<svg width="206" height="469" viewBox="0 0 206 469" fill="none" xmlns="http://www.w3.org/2000/svg">
<path d="M15.9973 97.0143C1.99739 163.014 59.4919 202.93 83.9973 207.514C95.0092 209.574 105.009 210.389 114.997 209.708C127.236 208.874 139.456 205.796 153.497 200.014C178.997 189.514 202.497 131.015 193.497 79.5145C184.497 28.0143 132.997 13.0144 97.4973 16.0143C61.9973 19.0143 29.9972 31.0144 15.9973 97.0143Z" fill="#282A36"/>
<path d="M56.6691 37.9082C51.8554 47.3898 45.2163 59.6452 40.0801 68.9116C38.471 71.816 38.9724 70.1804 37.849 72.1787C35.6522 76.0871 33.8456 79.8546 31.6525 83.7053C30.9243 84.9807 31.3294 83.1292 30.5761 84.4719C26.451 91.8316 22.8484 98.9519 18.7745 106.462C15.3162 112.838 11.8766 119.199 8.44957 125.554L1.64656 121.084C23.675 94.3034 45.3937 67.6086 67.6632 40.2743C76.5346 29.3846 87.6037 16.3763 96.5507 4.95416C97.5948 3.6205 96.617 4.12921 96.7907 3.85552C98.479 1.21159 98.989 0.910105 99.6399 0.481137L105.381 4.27466C105.034 4.61203 104.642 5.00788 104.008 6.10193C97.4352 17.4397 90.55 30.273 84.7729 41.4764C82.3162 46.2434 85.6199 41.9118 82.6456 46.4447C82.4398 46.7599 82.6653 45.3384 81.9295 46.6126C80.2617 49.5027 77.3602 55.1258 76.1118 57.3892C73.7038 61.7503 73.3204 62.4798 71.0998 66.6351C68.0607 72.3137 64.2519 78.9644 61.0959 85.1129C60.4235 86.426 61.7667 84.9291 60.7326 87.0435C59.6975 89.1599 56.7321 94.6376 55.6443 96.4374C54.5563 98.2377 54.643 97.2705 54.3917 97.5577C52.3075 99.9122 49.8136 106.748 49.3999 107.577C41.8276 122.695 34.501 135.215 27.0406 149.218C24.5817 153.834 22.08 158.606 19.5932 163.355L15.3651 160.504C19.8093 155.116 24.2209 149.761 28.3944 144.799C37.1843 134.35 44.8126 125.644 53.2929 115.444C54.1883 114.368 52.7013 115.263 53.794 113.947C65.404 99.9762 77.0306 86.1837 88.9337 72.56C90.1278 71.194 89.0083 73.3055 90.224 71.96C97.6594 63.7143 109.681 50.8823 112.252 44.4405C117.141 38.7317 123.065 31.7913 127.715 26.9155C130.714 23.7715 128.426 27.3476 131.667 23.1158C132.399 22.1618 131.032 23.0552 132.157 21.6475C135.936 16.9175 140.162 11.9787 144.067 7.17288L147.813 9.81717C147.056 11.1469 146.306 12.4854 145.575 13.8221C144.839 15.172 145.417 15.028 145.261 15.4435C143.96 18.8724 139.968 23.6316 139.262 24.6826C133.666 33.0893 130.165 39.4641 125.394 47.5403C124.291 49.4066 126.084 47.4868 125.039 49.2951C119.61 58.6768 113.869 68.3311 108.268 77.3481C107.022 79.3523 107.704 77.2357 107.086 78.1809C104.37 82.352 104.602 83.7676 102.011 87.7801C101.466 88.626 101.395 87.9268 101.262 88.0618C99.1892 90.1697 98.8012 92.8335 98.444 93.4847C93.9813 101.674 90.0208 106.313 85.5891 114.144C85.0597 115.082 86.751 113.245 85.2238 115.884C75.1037 133.378 64.1544 151.717 53.6457 168.794C51.9939 171.481 52.7913 169.341 52.648 169.488C50.3925 171.828 50.2143 174.15 49.7299 175.052C45.9358 182.073 41.3679 188.174 39.7606 193.373C39.5235 193.774 39.3219 194.114 39.1575 194.392C39.1164 194.461 39.0777 194.527 39.0413 194.588C38.9966 194.664 38.9118 194.811 38.8623 194.896C38.8082 194.99 38.7643 195.066 38.7326 195.121C38.7167 195.148 38.7039 195.171 38.6951 195.186C38.6907 195.194 38.6873 195.199 38.6852 195.203C38.6853 195.202 38.6761 195.222 38.7036 195.165C38.7192 195.126 38.736 195.115 38.8097 194.887C38.829 194.821 38.8537 194.743 38.8797 194.573C38.8874 194.394 38.9886 194.155 38.7494 193.469C38.6016 193.1 38.2992 192.638 37.7096 192.34C37.1799 192.07 36.6108 192.092 36.3179 192.159C35.7043 192.308 35.5494 192.492 35.4211 192.576C35.1886 192.767 35.1604 192.823 35.1108 192.876C35.0694 192.926 35.051 192.95 35.0361 192.97C35.0079 193.009 35.0005 193.02 34.996 193.027C34.9888 193.038 34.9998 193.021 35.0166 192.995C55.3701 166.473 75.5152 140.506 97.1735 115.73C97.4565 115.406 97.3557 116.32 97.9176 115.673C104.649 107.947 102.807 108.959 106.414 103.121C107.332 101.641 111.55 98.394 111.914 98.0937C113.231 97.0068 112.685 98.8222 113.093 98.43C116.448 95.1707 114.063 94.158 118.116 89.3618C118.246 89.2146 118.061 90.1379 118.436 89.7652C119.6 88.6096 120.515 87.2516 121.673 86.1325C124.328 83.5745 126.079 83.3685 129.203 78.6623C129.599 78.0659 127.819 77.9722 131.539 73.7726C133.022 72.09 139.528 64.6127 141.425 62.6213C143.327 60.6108 142.406 62.3326 142.549 62.1998C147.982 56.9876 146.267 59.2934 149.41 57.1114C152.587 54.9019 150.324 54.2747 151.174 52.9845C152.008 51.7099 156.087 47.9798 157.121 47.118C158.154 46.2525 157.235 47.6712 158.111 46.8654C163.956 41.506 159.721 43.6012 161.259 41.4656C164.865 36.4763 169.372 34.0415 173.432 30.1676C174.44 29.2102 173.553 29.6702 174.152 28.9707L175.666 30.1231C175.635 30.1887 175.597 30.2635 175.551 30.349C173.012 35.0816 170.995 37.6502 168.368 43.1833C167.938 44.0883 166.317 48.8462 164.141 51.2868C163.831 51.6316 164.128 50.3209 162.923 52.2684C161.122 55.177 158.008 60.4922 156.308 63.7525C155.052 66.1595 157.144 63.7709 155.286 66.6428C154.46 67.9189 155.522 65.2877 153.997 67.7006C152.479 70.1004 148.915 76.4156 147.564 78.822C146.216 81.2241 147.383 80.1526 147.302 80.3624C146.8 81.6265 144.395 86.3396 144.164 86.7457C132.587 107.268 121.152 125.762 110.066 145.849C109.196 147.425 110.233 146.634 110.105 146.877C107.25 152.344 108.463 147.445 105.942 150.965C107.153 150.937 105.735 153.054 103.692 156.887C102.708 158.734 103.62 157.941 103.562 158.128C102.563 161.128 100.81 162.617 100.395 163.021C98.8637 164.515 98.3708 166.806 97.3353 167.827C96.3028 168.847 97.3817 165.762 95.3333 169.387C95.0808 170.586 97.4521 168.377 96.0291 171.205C90.8624 181.473 79.874 199.45 74.7759 208.186L72.9775 206.977C73.225 206.671 73.4614 206.377 73.6862 206.097C79.6749 198.63 81.5352 196.161 85.0943 191.865C91.5232 184.105 88.6706 186.557 92.2846 181.441C95.91 176.31 95.4155 179.804 96.2736 179.332C97.1212 178.873 97.4115 177.871 98.258 177.136C99.1023 176.404 97.8347 178.431 99.4949 176.453C101.156 174.473 104.996 168.508 105.249 167.542C105.784 165.499 103.117 167.448 107.594 162.275C107.852 161.978 107.428 163.268 108.397 162.116C116.082 152.951 123.789 143.214 131.432 134.035C132.483 132.774 131.982 134.248 132.599 133.518C139.022 125.909 136.131 128.16 138.745 123.275C139.003 125.038 141.492 123.16 146.175 117.234C148.991 113.673 148.063 113.936 149.568 111.384C150.019 110.618 152.313 108.335 152.465 107.714C152.971 105.668 150.334 107.442 155.46 101.567C155.686 101.31 155.386 102.459 156.139 101.55C161.012 95.675 160.864 94.3952 165.885 87.8504C169.82 82.7202 177.376 74.0346 182.005 68.3099C183.052 69.3326 187.096 63.6664 188.055 60.8302C188.823 59.8733 189.601 58.8925 190.385 57.9033L192.425 59.1547C190.922 62.3856 189.223 65.8469 187.62 68.8298C186.841 70.2819 186.948 69.1257 186.815 69.2907C184.84 71.64 184.7 74.0637 184.295 74.9451C179.574 85.0185 174.621 92.8602 170.308 102.585C170.155 102.931 170.771 103.931 168.778 106.119C168.645 106.26 169.9 102.907 167.502 107.361C165.139 111.749 160.195 119.884 157.324 126.245C156.629 127.784 155.34 131.931 153.155 134.65C152.863 135.011 152.843 134.434 152.39 134.938C150.93 136.573 151.284 138.075 149.334 139.87C147.383 141.669 144.344 145.953 141.547 152.413C141.456 152.619 141.373 154.482 140.318 156.413C138.627 159.507 136.121 163.801 134.352 167.092C133.519 168.643 134.497 167.89 134.36 168.163C129.006 178.687 124.556 185.973 118.379 197.071C117.289 199.029 114.731 205.239 112.124 209.079C111.695 209.72 111.428 209.97 111.095 210.296C110.762 210.625 110.501 210.761 110.256 210.846C110.008 210.937 109.801 210.925 109.547 211.024C109.261 211.198 108.998 211.305 108.718 211.612L111.624 213.254C112.584 212.859 114.023 211.636 116.967 207.805C119.768 204.162 121.158 197.71 127.747 192.493C137.827 180.069 148.063 169.36 158.041 156.791C158.49 156.226 159.306 153.924 160.416 152.642C162.065 150.74 163.273 149.955 164.461 148.606C169.445 142.958 173.655 137.49 178.411 132.003C180.216 129.919 179.912 130.927 182.065 128.442C184.216 125.958 185.216 123.93 188.312 120.718C190.652 118.293 193.7 116.475 196.7 113.166C195.957 112.308 197.966 109.991 201.279 105.655C201.916 104.821 200.889 105.422 201.175 105.014C201.872 104.012 202.677 103.175 203.443 102.318L204.283 102.884C203.918 103.55 203.571 104.219 203.297 104.936C203.129 105.373 203.459 105.569 203.341 105.937C202.348 109.07 199.124 113.407 198.569 114.151C196.444 117.004 196.13 118.69 194.689 120.977C193.25 123.259 194.855 119.562 193.286 122.287C190.034 127.935 186.232 135.387 183.168 141.247C181.948 143.586 183.231 142.224 183.067 142.565C180.667 147.466 177.64 152.111 177.149 155.265C173.069 157.407 175.859 158.302 171.796 164.979C171.475 165.505 170.01 165.624 170.935 163.447C171.86 161.27 173.854 158.276 175.11 155.241C175.408 154.522 176.419 150.046 176.635 149.476C178.332 145.011 180.294 145.273 180.5 145.097C182.791 143.08 184.176 137.687 184.758 136.379C187.417 130.397 190.209 125.591 192.477 120.61C193.962 117.354 193.041 116.481 194.369 114.008C197.41 108.339 199.785 105.577 201.867 101.629L205.514 104.087C204.199 105.608 202.887 107.377 201.462 109.752C200.477 111.39 202.707 110.83 197.523 115.287C197.197 115.567 193.212 118.759 191.791 121.356C191.613 121.683 191.915 121.926 191.628 122.312C189.7 124.896 188.072 126.326 185.909 129.087C183.746 131.848 181.178 135.196 178.48 138.153C176.854 139.935 174.295 141.818 173.411 142.581C170.907 144.728 169.274 147.929 167.493 149.063C165.699 150.208 167.566 146.569 163.794 150.368C164.433 151.174 164.926 152.192 165.491 153.092C157.866 161.967 150.142 170.51 142.553 179.466C141.613 180.577 142.992 179.798 141.995 180.998C137.786 186.06 133.758 190.181 129.442 195.473C126.103 199.57 122.777 204.349 119.3 208.645C117.656 209.618 115.45 211.932 113.15 214.556L106.814 210.977C108.539 207.22 109.83 204.952 111.179 202.447C112.246 200.516 112.401 200.883 113.19 199.617C116.198 194.781 114.016 196.699 114.61 195.249C117.129 189.107 119.429 189.707 123.064 182.839C123.255 182.479 124.572 177.444 124.823 176.817C126.487 172.678 125.548 176.374 126.949 173.968C129.453 169.675 131.389 166.705 133.874 161.336C134.585 159.793 135.889 155.756 137.983 153.119C138.26 152.769 138.503 153.176 138.692 152.875C142.088 147.405 141.026 146.68 142.387 143.235C143.73 139.824 147.189 135.245 147.953 134.358C149.955 132.018 147.111 136.522 147.092 136.694C146.865 138.741 148.694 135.055 150.241 132.306C151.561 132.496 153.575 128.577 151.838 129.457C151.645 129.559 150.59 131.775 150.241 132.306C150.465 129.285 152.606 124.954 156.141 120.773C157.791 118.823 157.234 121.208 160.608 114.385C162.125 111.312 160.749 112.062 161.971 109.26C164.761 102.864 169.668 95.2964 172.889 88.8555C174.04 86.5515 172.45 88.5765 173.241 86.958C175.326 82.6821 177.517 79.2243 179.538 74.875C179.718 74.4866 178.804 75.189 179.463 73.8836C182.419 68.0061 185.29 62.5403 187.925 57.0762L194.276 60.9723C191.536 64.3502 188.743 67.804 185.79 71.5433C182.296 75.967 176.27 84.0493 172.611 88.6007C166.271 96.4907 157.997 105.822 152.781 112.719C149.377 117.216 150.531 116.551 149.3 118.657C146.925 122.722 140.896 128.478 140.066 129.239C140.04 129.262 142.953 125.379 141.15 127.255C139.803 128.11 140.098 129.194 140.066 129.239C139.522 129.739 133.431 137.281 132.314 138.851C131.707 139.704 132.437 139.535 132.114 139.975C124.417 150.412 116.47 160.681 108.158 170.868C108.007 171.044 107.811 170.446 107.462 170.863C102.567 176.695 100.052 180.918 96.4647 186.083C92.8773 191.246 89.6954 195.076 86.6884 197.436C83.8452 201.224 79.3261 206.312 76.7157 209.233C76.5896 209.374 76.4707 209.51 76.3586 209.643L71.031 206.061C72.8211 203.146 72.2683 202.246 72.4131 201.952C77.1463 192.302 80.7149 187.197 86.287 177.561C88.9377 172.98 93.9892 163.778 96.7198 158.739C98.8763 154.757 100.431 152.502 102.357 148.797C102.617 148.296 101.941 148.568 102.011 148.41C103.836 144.092 103.698 146.586 104.345 145.848C106.692 143.172 108.089 141.489 110.737 136.135C111.348 134.9 111.934 130.626 113.09 128.399C114.596 125.506 114.487 126.858 116.051 123.821C116.185 123.562 115.848 123.44 116.901 121.616C121.786 113.144 127.226 103.973 132.21 95.1172C132.892 93.9082 131.526 95.1792 132.504 93.4279C137.09 85.2101 142.198 76.2491 146.951 68.4048C148.123 66.4748 147.766 67.899 148.109 67.5306C150.207 65.263 151.42 61.0476 151.751 60.426C158.24 48.165 164.245 38.7202 170.681 27.2948L178.205 33.0231C176.35 34.8897 174.306 37.0204 172.353 39.1522C171.739 39.8108 167.615 45.7219 164.762 47.4112C164.557 47.5386 161.714 49.1717 160.319 51.6637C160.231 51.8208 161.93 50.7046 159.566 53.2026C157.208 55.6963 153.728 60.0303 150.221 63.144C149.103 64.1378 146.019 66.1529 143.665 69.9912C143.504 70.2498 140.29 76.5524 137.78 77.6276C137.376 77.7953 136.668 76.6691 133.698 81.1042C133.131 81.9552 134.547 80.7426 132.936 82.8851C130.459 86.1811 126.682 90.082 123.85 94.3011C123.358 95.0364 121.6 98.4475 119.17 100.328C118.789 100.622 119.04 99.6655 117.983 100.851C112.964 106.478 108.126 112.746 103.037 118.469C101.242 120.489 101.585 118.996 99.6445 121.071C97.7089 123.139 93.956 127.454 92.3357 129.943C90.7148 132.432 93.6143 130.589 90.8665 134.112C79.0299 149.309 66.6537 163.824 54.6877 179.032C52.9198 181.282 54.7761 179.526 52.1095 182.976C49.0526 186.955 44.8672 192.386 41.4749 197.105C41.4307 197.174 41.3936 197.233 41.3103 197.355C41.2624 197.423 41.2215 197.489 41.0562 197.698C40.9568 197.815 40.8754 197.944 40.4708 198.324C40.235 198.519 39.9819 198.823 38.9996 199.29C38.4631 199.518 37.62 199.856 36.2433 199.747C34.8925 199.697 32.9843 198.637 32.2138 197.382C30.8062 194.997 31.3227 194.089 31.2906 193.566C31.3629 193.043 31.4362 192.831 31.4901 192.643C31.5969 192.305 31.6556 192.181 31.6991 192.076C31.7844 191.881 31.8196 191.815 31.8527 191.748C31.9259 191.605 31.918 191.623 31.9231 191.612C31.9382 191.583 31.9521 191.557 31.9657 191.532C31.9928 191.482 32.0188 191.434 32.0464 191.384C32.1013 191.284 32.1625 191.174 32.2346 191.047C32.4248 190.71 32.4501 190.665 32.5611 190.47C32.6586 190.299 32.7671 190.109 32.8866 189.9C32.9996 189.703 33.1612 189.422 33.2343 189.295C33.5842 188.684 34.1468 187.712 34.5236 187.061C34.9208 186.375 35.3861 185.574 35.85 184.778C36.2501 184.091 36.6793 183.356 37.1354 182.577C38.8835 179.591 40.5903 176.706 42.3514 173.767C45.7279 168.138 48.8508 163.101 51.4123 159.284C57.4186 150.363 50.9997 162.293 55.4073 155.319C57.5632 151.902 58.6163 147.61 59.1028 146.704C63.5002 138.42 67.2798 133.096 71.4415 125.678C72.287 124.17 70.9845 125.373 71.7105 124.089C74.2089 119.665 77.0984 115.203 79.5433 110.963C80.6217 109.09 80.0819 109.235 81.1216 107.527C83.6233 103.408 85.8933 99.8742 88.5953 96.0058C88.8397 95.6566 87.8028 98.3802 89.6161 95.3338C92.5441 90.4124 96.4752 84.4462 99.5028 78.5642C100.399 76.8188 99.6669 76.2977 102.336 72.9829C102.895 72.2877 103.25 73.8036 104.94 69.1015C105.223 68.3162 108.332 60.564 111.072 57.5013C111.788 56.7037 113.945 54.776 115.017 52.6813C115.16 52.3952 114.097 53.2523 115.046 51.5489C118.397 45.5469 122.12 39.3264 125.558 33.1913C126.489 31.5289 124.622 33.7183 126.021 31.2535C129.808 24.5754 134.865 16.2404 138.832 9.81503C140.299 7.43947 139.675 9.31114 139.817 9.15839C140.808 8.10094 141.384 7.11054 141.76 6.25043L149.454 11.6827C148.769 12.7313 148.454 13.621 148.086 14.1119C144.026 19.4974 140.379 23.1332 136.488 27.9724C135.413 29.3071 136.553 28.6771 136.366 28.9655C134.409 31.9404 135.454 29.3785 133.945 31.0357C129.717 35.6761 125.258 41.0619 121.232 45.9642C119.754 47.7653 121.853 46.107 120.521 47.7194C112.649 57.2691 104.351 67.1006 96.368 76.1689C94.8642 77.8757 95.461 76.5094 95.0833 76.8113C92.4725 78.8859 90.1003 83.1438 89.4599 84.0445C86.5495 88.1405 85.0163 89.3942 82.2299 92.8305C68.6233 109.621 51.3083 129.922 38.0986 145.465C32.0878 152.54 26.5241 159.041 21.1386 165.337L12.9483 159.814C20.3534 146.267 27.299 133.543 34.9971 118.954C35.7494 117.529 34.493 118.7 35.1352 117.469C43.4487 101.583 51.9425 86.1082 60.2494 70.1779C60.9319 68.8711 59.4657 70.4978 60.5455 68.392C62.7571 64.0709 65.674 58.6586 68.1309 54.4074C69.3284 52.3333 68.2191 55.3801 69.4163 53.288C72.2048 48.4173 75.0661 43.1282 77.7013 38.0031C78.8217 35.8215 76.6043 38.8321 78.0977 36.0164C84.5039 23.9235 90.8236 11.9595 97.3595 0.000103235L106.717 6.18391C101.636 12.3552 96.4829 18.511 91.192 24.6644C90.2108 25.8054 88.5265 26.1432 86.6841 28.7657C86.7706 29.1448 87.0583 29.3598 87.2463 29.6463C67.5521 54.3673 47.6268 78.4877 27.6942 103.131C26.8539 104.17 28.7566 102.737 27.1321 104.75C21.0782 112.254 15.192 119.663 9.08158 127.075L8.10623e-06 121.107C2.52686 116.434 5.12083 111.746 7.84372 107.016C8.60163 105.697 9.14543 106.864 11.0941 102.829C11.437 102.117 14.4576 96.0843 15.0729 94.4375C15.1535 94.2122 14.1571 95.0784 15.157 93.1485C20.9756 81.9373 27.2371 70.2749 33.3684 59.2529C34.3588 57.4745 33.8003 59.6295 34.5095 58.3649C39.5374 49.3925 44.4034 39.3158 49.3884 30.8373C52.7268 25.163 52.3722 27.7276 54.7667 25.039C55.1052 24.6585 57.0189 21.064 57.5633 21.1126C58.9373 21.2248 59.2475 23.617 60.8206 23.5304C61.1579 23.5146 63.4204 18.5425 62.5392 21.7276C62.4758 21.9491 60.8409 25.5568 60.5985 26.5297C60.4288 27.2066 61.4517 26.3643 60.9943 27.6868C60.5368 29.0092 59.4484 30.1541 58.5998 32.2992C57.7545 34.4449 58.7403 33.8246 56.6691 37.9082ZM80.3652 191.743C82.5778 188.836 81.2805 187.486 79.7218 191.103C79.6482 191.279 80.2521 191.893 80.3652 191.743ZM149.156 169.581C145.481 172.666 144.263 175.884 146.896 173.742C149.528 171.601 150.274 168.64 149.156 169.581ZM180.582 131.887C176.516 135.688 177.886 138.002 181.341 133.163C181.543 132.882 180.82 131.664 180.582 131.887ZM47.4374 39.4946C47.4818 39.4615 48.8657 36.882 48.8774 36.8091C49.099 35.1643 46.3321 40.3225 47.4374 39.4946ZM197.991 112.423C199.092 111.05 201.032 106.455 199.663 108.161C198.561 109.535 196.619 114.134 197.991 112.423ZM174.159 30.6792C174.103 30.6963 172.622 32.1579 172.757 32.2374C173.208 32.4705 175.136 30.3331 174.159 30.6792ZM159.859 185.881C165.581 175.074 170.865 169.464 164.515 181.171C163.365 183.292 166.316 176.25 164.733 178.887C161.837 183.711 161.289 187.629 158.019 192.389C157.426 193.25 159.528 186.495 159.866 185.86C159.863 185.867 159.861 185.874 159.859 185.881ZM83.2686 190.994C83.325 190.942 84.7783 188.427 84.7922 188.355C85.0731 186.705 82.1451 191.773 83.2686 190.994ZM92.6237 122.055C92.4799 122.148 88.1655 127.366 88.0755 127.553C86.5707 130.874 95.2783 120.346 92.6237 122.055ZM182.107 68.243C183.62 65.399 185.915 62.3797 188.045 60.8411C186.064 63.291 184.096 65.7777 182.107 68.243Z" fill="#FF5E5E"/>
<path d="M113.577 215.794C112.823 215.906 111.739 215.559 110.85 215.561C107.119 215.545 105.744 215.242 102.41 214.944C97.4317 214.704 82.9364 212.953 83.4968 210.19C83.4968 210.19 83.4968 210.189 83.4969 210.189C83.5017 210.163 83.508 210.137 83.5157 210.111C83.6622 209.616 84.9517 209.281 85.2305 208.738C85.5076 208.194 86.0434 204.475 87.7143 204.545C90.1283 204.702 95.7213 206.395 97.0183 206.45C97.8965 206.507 99.0009 206.263 100.118 206.284C103.717 206.337 105.608 206.641 108.817 205.703C110.103 206.182 111.406 206.637 112.726 207.065C113.34 206.954 114.073 206.946 114.811 206.97C116.094 207.013 117.391 207.145 118.043 207.056C118.885 206.94 119.334 206.501 120.205 206.376C121.179 206.232 122.744 206.444 124.515 206.082C127.415 205.477 127.724 204.361 129.411 203.869C131.155 203.356 134.049 203.203 136.203 202.214C136.453 202.027 136.703 201.839 136.953 201.651C136.681 201.468 136.411 201.285 136.142 201.101C137.229 200.665 137.858 201.014 138.888 200.705C140.104 200.337 140.566 199.671 141.373 199.405C142.036 199.187 143.059 199.251 143.908 198.925C145.146 198.449 144.679 198.013 145.312 197.671C145.57 197.555 150.351 195.37 150.617 195.236C150.91 195.113 151.172 195.019 151.411 194.947C152.558 194.619 153.135 194.983 154.319 194.393C158.236 192.386 161.396 188.564 164.029 185.139C165.224 183.593 166.508 182.019 167.768 180.474C167.529 184.208 172.866 179.346 168.804 179.739C170.449 178.129 170.578 176.369 171.792 174.621C172.558 173.511 173.434 172.86 174.354 171.142C176.029 168.017 176.51 164.047 178.932 164.028C180.289 160.066 182.309 156.958 180.997 154.879C181.262 153.831 183.253 151.643 183.779 150.523C184.337 149.516 187.28 141.188 187.59 139.773C187.968 138.382 188.563 135.914 188.642 134.694C188.751 133.142 186.984 131.744 189.786 129.501C190.141 126.34 190.371 125.258 191.036 122.369C191.153 121.848 191.508 121.832 191.548 121.522C191.627 120.884 191.5 119.768 191.589 118.623C191.734 116.747 192.554 115.739 191.415 115.85C191.335 114.6 191.24 113.349 191.13 112.109C191.374 111.691 191.617 111.271 191.858 110.849C191.657 110.175 191.452 109.503 191.243 108.834C192.852 109.678 192.035 104.981 191.054 106.472C191.452 104.096 191.792 101.707 192.071 99.2997C193.956 99.5866 192.078 94.0069 191.078 94.5596C191.063 94.2874 191.047 94.0152 191.031 93.7432C191.363 91.325 190.772 89.1727 190.748 86.2476C190.705 83.3172 190.899 83.5627 191.615 82.5525C191.462 81.8755 191.304 81.2005 191.14 80.5276C190.971 80.3422 190.824 80.1682 190.699 80.0035C188.623 77.3919 192.214 76.8757 189.048 71.6709C189.943 69.3602 187.598 64.9083 185.852 62.2225C185.651 61.902 185.389 62.0138 185.101 61.6022C184.422 60.5926 183.323 57.7077 182.553 58.2434C182.281 57.1877 181.995 56.1569 181.664 55.1004C181.067 54.4407 180.461 53.8 179.847 53.1777C179.61 53.3402 179.373 53.5027 179.136 53.6651C179.008 51.6798 177.075 49.7016 176.405 48.5129C176.274 48.2746 176.549 47.9784 176.096 47.2625C175.574 46.4247 174.274 45.1216 173.559 44.1875C172.928 44.1555 172.299 44.1336 171.674 44.1214C170.063 42.8255 170.328 41.5038 169.481 40.6034C169.344 40.4185 166.224 37.8686 166.018 37.7722C164.48 36.842 164.359 37.8393 160.29 34.7903C159.558 34.2568 159.121 33.5715 158.427 33.1237C157.214 32.2986 152.993 30.8514 152.361 31.3586C151.24 29.7265 146.785 28.0936 145.588 27.3597C145.229 27.1288 145.358 26.5586 144.188 25.973C143.239 25.49 140.526 25.0019 139.277 24.5256C137.952 24.0088 137.603 23.4082 136.999 23.1915C136.429 22.9897 135.783 23.2047 134.993 22.9836C132.53 22.2895 130.396 21.1554 128.39 20.7308C125.489 20.1167 122.728 20.8348 120.245 21.0236C119.654 20.8719 119.093 20.556 118.463 20.4825C111.926 19.7024 104.603 19.3782 97.8146 19.7698C96.4425 19.8477 95.1026 19.9355 93.783 20.0359C90.0696 20.2164 80.7067 20.3126 83.6093 22.4389C82.4277 23.0103 73.2922 24.187 71.6604 24.8586C70.0034 25.3958 68.8833 26.3134 67.635 26.8226C63.8917 28.3911 61.1191 29.336 57.1667 32.3004C56.147 33.0774 55.3658 34.2952 54.7582 34.7294C54.0279 35.2479 52.945 35.3957 52.0017 36.1106C49.7459 37.7597 46.1181 41.5065 44.2926 43.5136C43.9584 43.8669 43.4924 43.6876 42.9209 44.1343C40.6599 45.8978 38.8741 48.4848 40.4056 48.9151C37.6556 51.2562 36.5088 54.5551 34.9705 57.418C31.4893 63.4995 26.4648 75.4665 25.3704 81.6551C24.6528 85.4731 25.2784 85.5905 23.2972 91.0228C22.854 92.2788 22.4003 93.4316 21.9034 94.9248C21.5521 95.979 21.1334 97.007 20.7449 98.0213C19.8628 100.292 19.2122 102.389 19.972 104.413C19.025 108.316 19.0753 111.448 17.7021 114.337C17.9968 114.692 18.2936 115.041 18.5923 115.401C18.59 115.892 18.5919 116.38 18.5979 116.867C18.3057 117.018 18.0139 117.17 17.7225 117.324C17.6323 120.829 19.1532 125.156 19.5472 128.054C19.9143 132.953 22.8502 145.276 24.58 149.704C25.3848 152.096 26.0194 151.931 25.4735 153.78C25.7974 154.247 26.1306 154.72 26.4644 155.183C26.8748 155.371 27.2853 155.555 27.696 155.735C29.1658 158.555 30.7535 162.063 32.4782 164.611C35.5634 169.317 41.5133 175.27 45.1793 179.547C46.0967 180.644 46.9531 182.262 48.0056 183.213C49.5249 184.574 50.5008 184.162 52.4771 185.795C55.809 188.623 61.8945 194.264 65.6021 196.242C66.6754 196.838 67.3812 196.82 68.1353 197.19C71.3479 198.746 73.9517 200.013 77.2752 200.72C80.3018 202.835 79.6311 203.787 80.4131 205.297C80.9343 206.425 83.2214 209.126 83.4905 209.958C83.6758 210.563 82.4651 211.057 82.7486 211.739C77.6471 211.124 75.7852 209.772 72.5191 207.526C65.8834 204.766 59.6718 201.16 53.8711 197.074C53.5395 196.425 53.2056 195.768 52.8898 195.118C52.8902 195.117 52.8906 195.116 52.8911 195.116C50.9849 193.215 49.5274 193.141 48.2821 192.385C35.5859 185.489 19.1302 161.631 15.2185 146.391C13.9941 143.253 11.0931 132.641 11.4699 130.241C11.5258 129.632 12.0154 129.399 11.9562 128.772C10.9297 123.229 10.4313 117.549 10.4373 111.886C11.0855 106.674 11.848 101.577 12.9047 96.3583C14.1906 90.0154 15.5586 83.6913 17.414 77.5673C25.0248 47.8517 48.8288 18.1315 81.0992 14.0419C85.9789 13.0916 91.9349 12.0773 97.1324 11.6966C98.26 11.6114 99.3671 11.5611 100.429 11.549C102.9 11.5351 103.946 12.322 107.176 11.7132C107.209 11.9371 107.241 12.161 107.273 12.3849C110.078 12.1489 111.905 11.7064 115.079 11.885C117.741 11.9861 124.76 12.8663 127.065 13.4271C128.257 13.6899 127.733 14.0163 128.848 14.2315C130.763 14.5872 134.954 14.96 137.561 15.713C139.932 16.3596 143.699 18.1124 145.478 18.7167C151.9 20.8193 158.995 23.4667 165.022 27.7272C166.689 28.8919 168.464 30.884 168.968 31.2577C169.966 31.9843 170.58 31.8058 171.276 32.2815C174.844 34.6672 179.166 39.8293 181.737 43.0947C190.001 53.1094 195.744 66.0718 197.806 78.7616C197.908 79.3684 198.006 79.9745 198.098 80.5795C199.51 88.8014 200.173 102.637 199.274 110.236C199.105 111.875 198.552 111.404 198.467 112.776C198.368 114.292 198.687 115.151 198.66 115.865C198.561 120.811 197.324 131.714 195.875 136.19C195.616 137.044 195.035 137.573 194.921 138.089C194.863 138.348 195.028 139.016 194.865 139.847C193.389 147.174 191.629 152.372 188.973 159.202C183.807 172.154 176.777 187.439 164.622 197.529C161.976 199.676 159.433 200.158 159.032 200.418C158.128 200.975 157.893 201.859 155.921 202.95C155.594 203.126 155.259 203.295 154.915 203.458C149.033 206.306 140.881 208.518 135.074 210.262C132.066 211.203 127.946 212.85 124.847 213.5C122.387 214.079 116.444 214.383 115.341 214.753C115.34 214.753 115.338 214.754 115.337 214.754C114.672 215.001 114.395 215.67 113.577 215.794ZM175.785 169.505C176.541 170.342 177.694 166.071 176.471 167.287C176.2 167.564 175.603 169.277 175.785 169.505ZM107.981 17.9859C108.017 18.2834 108.052 18.5809 108.087 18.8784C108.658 18.7644 109.234 18.655 109.815 18.5503C109.497 18.3614 109.178 18.1739 108.858 17.9878C108.565 17.986 108.273 17.9853 107.981 17.9859ZM128.935 452.897C129.115 453.225 128.894 453.83 128.993 454.241C129.407 455.999 129.316 456.726 129.517 458.395C129.661 459.65 130.183 462.138 129.895 464.64C129.663 467.132 128.35 469.385 127.079 468.875C127.079 468.875 127.079 468.875 127.079 468.875C127.054 468.867 127.029 468.857 127.003 468.847C126.532 468.648 126.181 467.856 125.632 467.633C125.084 467.41 121.449 466.498 121.329 465.984C121.239 465.275 122.141 463.031 122.003 462.464C121.935 462.107 121.534 461.691 121.4 461.253C120.948 459.782 120.99 458.919 119.723 457.797C120.039 457.106 120.351 456.438 120.639 455.718C120.194 455.051 120.432 453.742 120.236 453.297C120.08 452.944 119.64 452.862 119.484 452.487C119.306 452.064 119.454 451.265 119.094 450.511C118.495 449.253 117.474 449.433 117.044 448.717C116.599 447.979 116.593 446.55 115.833 445.691C115.677 445.61 115.521 445.529 115.365 445.449C115.174 445.638 114.982 445.828 114.79 446.017C114.466 445.564 114.844 445.142 114.648 444.673C114.417 444.122 113.851 444.05 113.691 443.683C113.56 443.384 113.735 442.817 113.536 442.436C113.251 441.886 112.792 442.242 112.558 441.983C112.468 441.88 111.156 439.761 111.093 439.637C110.628 438.68 111.29 438.27 110.995 437.472C110.168 435.25 108.573 433.313 107.432 431.408C106.923 430.559 106.532 429.604 106.235 428.655C108.679 429.24 108.659 425.485 106.371 427.935C106.319 426.756 105.234 426.385 104.938 425.374C104.746 424.719 104.947 424.114 104.55 423.235C103.841 421.675 101.98 420.4 103.827 419.091C102.691 417.375 102.801 415.451 100.715 415.449C100.411 414.992 101.025 413.319 100.973 412.703C100.904 412.142 100.034 407.859 99.8941 407.17C99.8755 407.096 99.8554 407.015 99.8339 406.93C99.6285 406.154 99.387 405.034 99.1368 404.483C98.7931 403.75 96.6714 403.314 98.9046 401.637C98.6045 399.973 98.6772 399.358 99.0108 397.837C99.0743 397.561 99.4269 397.55 99.4369 397.39C99.4567 397.067 99.2392 396.493 99.2694 395.903C99.3211 394.925 100.137 394.501 99.0045 394.447C98.9063 393.792 98.8246 393.128 98.7586 392.456C99.0144 392.273 99.2696 392.102 99.5266 391.929C99.3608 391.554 99.1998 391.174 99.0435 390.789C100.539 391.527 100.153 389.029 99.066 389.538C99.6893 388.437 100.353 387.349 101.033 386.323C102.738 387.036 102.056 383.933 101.044 383.803C101.091 383.674 101.139 383.546 101.187 383.417C102.062 382.451 102.069 381.309 102.928 380.087C103.781 378.895 103.901 379.091 104.853 379.032C104.941 378.706 105.03 378.38 105.121 378.055C103.705 375.505 107.248 377.45 106.902 374.019C108.637 373.8 108.974 371.392 109.291 369.817C109.327 369.634 109.075 369.5 109.107 369.247C109.189 368.628 110.208 367.48 109.371 367.096C109.848 366.763 110.325 366.433 110.803 366.105C110.854 365.655 110.906 365.205 110.958 364.755C110.704 364.621 110.45 364.486 110.197 364.352C111.46 364.069 111.763 362.725 112.282 362.261C112.386 362.17 112.747 362.334 113.035 362.032C113.374 361.679 113.693 360.851 114.072 360.417C113.792 360.015 113.512 359.612 113.231 359.211C113.503 358.219 114.688 358.464 115.05 357.99C115.117 357.901 115.96 356.177 115.99 356.069C116.223 355.224 115.244 354.974 116.58 352.917C116.818 352.55 117.283 352.4 117.476 352.062C117.823 351.462 118.086 349.256 117.512 348.799C118.697 348.451 119.332 346.318 119.836 345.841C119.99 345.7 120.527 345.901 120.886 345.413C121.185 345.003 121.277 343.675 121.578 343.156C121.91 342.585 122.439 342.555 122.58 342.299C122.712 342.056 122.444 341.683 122.578 341.344C123.014 340.258 123.934 339.506 124.219 338.634C124.626 337.395 123.792 336.01 123.474 334.959C123.582 334.756 123.827 334.582 123.899 334.367C123.906 334.347 123.911 334.327 123.914 334.306C124.44 331.28 124.351 327.421 123.9 323.906C123.748 322.314 124.128 317.847 121.923 319.624C121.367 319.208 121.092 314.891 120.803 314.111C120.543 313.333 119.888 312.902 119.656 312.306C118.954 310.516 118.758 309.124 117.455 307.106C117.118 306.588 116.351 306.211 116.211 305.879C116.043 305.478 116.338 304.832 116.136 304.303C115.653 303.04 114.419 300.833 113.93 299.622C113.843 299.401 114.227 299.121 114.209 298.75C114.139 297.305 113.42 295.987 112.205 296.895C112.198 294.991 110.785 293.935 110.012 292.555C108.391 289.637 105.765 284.07 103.795 281.773C102.549 280.314 101.984 280.683 101.176 277.974C100.99 277.36 100.866 276.764 100.639 276.014C100.128 274.293 100.48 272.293 98.5309 271.74C98.4897 271.592 98.4468 271.45 98.403 271.311C97.7059 269.293 97.0038 267.674 97.727 265.887C97.3804 265.782 97.0339 265.67 96.6879 265.552C96.611 265.282 96.5392 265.017 96.4701 264.748C96.7353 264.599 97.0015 264.452 97.2684 264.307C96.9214 262.432 95.4619 260.142 95.4034 258.497C95.1583 255.716 96.2542 248.996 97.1487 246.742C97.5807 245.528 96.9899 245.327 98.3917 244.875C98.3609 244.582 98.3319 244.288 98.3047 243.993C98.0675 243.761 97.8313 243.526 97.5961 243.29C97.942 241.688 98.8457 239.936 99.2615 238.46C99.9987 235.772 100.59 231.551 102.042 229.122C102.403 228.513 103.252 227.906 103.488 227.273C103.834 226.354 103.026 225.775 103.474 224.604C104.247 222.574 106.841 219.336 107.584 217.462C107.802 216.908 107.59 216.504 107.725 216.109C108.282 214.464 108.903 213.176 109.095 211.438C110.681 210.207 111.696 210.852 113.014 210.867C114.014 210.868 116.456 210.605 117.248 210.785C117.807 210.908 118.259 211.635 118.889 211.736C118.442 213.853 117.578 214.43 116.083 215.61C114.796 218.492 113.55 221.362 112.367 224.253C111.948 224.384 111.528 224.517 111.109 224.652C111.108 224.652 111.107 224.652 111.107 224.651C110.286 225.615 110.894 226.415 110.833 227.089C110.171 233.473 105.033 244.327 104.172 250.847C103.886 252.253 104.122 256.728 103.677 257.654C103.544 257.9 103.03 257.991 103.021 258.253C103.445 260.571 104.116 262.776 105.067 264.73C105.197 265.718 105.468 266.677 105.859 267.583C107.461 271.214 109.845 274.66 111.869 278.18C118.892 290.449 126.169 302.754 130.205 316.865C130.967 319.583 132.147 323.089 132.239 326.01C132.275 327.214 131.508 327.793 132.205 329.336C131.983 329.363 131.76 329.39 131.537 329.416C131.858 330.791 132.372 331.704 132.314 333.329C132.292 333.853 132.225 334.734 132.085 335.66C131.871 337.132 131.457 338.716 131.209 339.397C131 339.978 130.662 339.643 130.508 340.168C130.251 341.072 130.141 343.156 129.659 344.362C129.244 345.436 128.038 347.022 127.74 347.839C126.68 350.792 125.782 354.124 124.084 356.912C123.61 357.69 122.593 358.436 122.472 358.691C122.24 359.188 122.625 359.582 122.508 359.939C121.924 361.735 119.982 363.972 119.099 365.539C116.212 370.66 113.52 376.188 111.18 381.31C109.646 384.553 107.804 390.03 106.838 392.991C106.618 393.629 106.089 393.336 105.982 393.899C105.866 394.528 106.2 394.923 106.189 395.212C106.023 397.273 106.384 401.419 106.4 403.143C106.383 403.479 105.992 403.81 106.039 404.008C106.061 404.108 106.412 404.262 106.522 404.555C106.572 404.689 106.622 404.821 106.672 404.951C107.71 407.705 108.313 409.901 109.311 412.773C111.343 418.584 114.91 424.914 117.427 431.054C117.975 432.391 117.584 433.67 117.677 433.851C117.882 434.25 118.546 434.253 119.062 435.015C120.772 437.548 121.876 441.54 123.284 444.107C123.98 445.364 125.439 446.923 126.119 448.231C126.666 449.245 127.312 451.972 127.783 452.369C128.075 452.61 128.735 452.537 128.935 452.897ZM104.599 422.09C105.631 421.862 104.007 420.265 103.805 421.211C103.759 421.424 104.33 422.149 104.599 422.09ZM125.963 329.987C125.666 330.014 125.37 330.041 125.074 330.067C125.205 330.311 125.333 330.555 125.458 330.801C125.635 330.662 125.812 330.519 125.988 330.374C125.98 330.245 125.972 330.117 125.963 329.987Z" fill="white"/>
</svg>
