<svg width="553" height="620" viewBox="0 0 553 620" fill="none" xmlns="http://www.w3.org/2000/svg">
<path d="M4.18188 500.22V4.72046H547.182V500.22H423.682H144.682H4.18188Z" fill="#282A36"/>
<path d="M511.844 506.212C509.701 506.284 506.676 505.894 504.148 505.874C493.559 505.784 489.635 505.514 480.053 505.361C465.846 505.134 423.683 505.645 423.682 502.942C423.682 502.942 423.682 502.942 423.682 502.942C423.682 502.915 423.686 502.889 423.694 502.861C423.842 502.346 427.428 501.784 427.96 501.202C428.492 500.619 428.093 496.858 433.187 496.646C440.572 496.367 458.288 497.332 462.227 497.289C464.92 497.26 468.235 496.918 471.679 496.857C482.781 496.661 488.59 496.911 498.593 495.983C502.594 496.472 506.595 496.962 510.596 497.451C515.816 497.224 523.728 497.87 526.899 497.834C529.501 497.805 531.026 497.418 533.737 497.4C536.779 497.377 541.45 497.795 546.982 497.732C547.049 497.732 547.116 497.731 547.182 497.73L544.691 500.22C544.578 491.327 543.582 489.697 543.454 484.295C543.322 478.652 543.871 469.877 543.515 462.676C543.404 461.773 543.293 460.87 543.182 459.967C542.931 460.614 542.68 461.261 542.428 461.908C542.311 458.282 542.826 456.722 542.836 453.39C542.847 449.469 542.359 447.468 542.361 444.83C542.363 442.668 542.755 439.738 542.73 436.935C542.696 432.849 542.131 433.743 542.026 431.544C541.984 430.667 541.673 414.448 541.668 413.533C541.646 406.574 542.419 405.968 542.487 400.419C542.671 385.028 542.046 369.229 541.81 354.993C541.705 348.636 541.749 342.003 541.873 335.664C543.853 345.648 545.393 323.554 542.296 331.817C542.736 324.764 541.9 319.764 542.042 313.078C542.134 308.754 542.563 305.761 542.552 299.587C542.529 288.631 541.309 276.647 543.515 273.496C543.126 260.635 543.927 249.495 541.979 244.86C541.86 241.544 543.02 233.045 543.178 229.325C543.326 225.807 543.85 198.815 543.879 194.4C543.909 189.984 543.94 182.254 543.769 178.535C543.558 173.863 541.538 170.598 543.9 162.28C543.709 152.608 543.776 149.162 544.051 140.167C544.1 138.538 544.451 138.354 544.451 137.403C544.451 135.443 544.192 132.108 544.161 128.61C544.109 122.857 544.847 119.573 543.72 120.215C543.531 116.422 543.342 112.629 543.153 108.836C543.37 107.505 543.588 106.175 543.805 104.844C543.568 102.816 543.331 100.788 543.094 98.7601C544.725 101.142 543.763 86.8692 542.827 91.5035C543.164 84.1508 543.502 76.7981 543.839 69.4454C545.693 70.4715 544.053 53.3014 543.045 54.747C543.047 53.9056 543.048 53.0643 543.049 52.2229C543.542 44.8574 543.139 38.0934 543.47 29.1155C543.801 20.1384 543.981 20.981 544.834 18.2511C544.785 16.1386 544.736 14.026 544.687 11.9135C544.008 8.69231 543.868 6.57262 543.967 4.72046L547.182 7.93549C542.66 7.69373 539.733 6.02673 526.267 7.29868C520.203 5.82965 505.253 6.6013 495.341 7.04673C494.188 7.09847 494.168 7.38361 492.632 7.47153C488.876 7.68298 479.293 7.31643 479.62 8.23618C476.303 7.97007 472.986 7.70396 469.668 7.43784C466.957 7.60508 464.245 7.77232 461.534 7.93955C461.547 8.22666 461.561 8.51377 461.575 8.80088C456.115 7.82236 447.535 8.19841 443.303 7.96445C442.461 7.91703 442.279 7.52098 439.661 7.41294C436.601 7.28471 430.899 7.40191 427.253 7.27817C425.836 7.7169 424.418 8.15562 423.001 8.59434C416.481 8.8323 414.189 7.6743 410.36 7.58433C409.67 7.56869 397.093 7.65188 396.416 7.67661C390.868 7.87258 392.44 8.85911 376.395 8.64781C373.538 8.60957 371.227 8.26822 368.644 8.25449C364.082 8.22975 350.336 9.00395 349.255 9.71934C343.721 8.82398 328.917 9.18996 324.556 8.93125C323.24 8.85171 322.943 8.28141 318.897 8.16001C315.618 8.06103 307.172 8.51768 303.012 8.44126C298.597 8.35804 297.021 7.87894 295.042 7.84507C293.173 7.81357 291.45 8.20034 288.904 8.1981C280.953 8.1846 273.753 7.56209 267.47 7.55064C258.382 7.53264 250.354 8.67771 242.751 9.18614C240.863 9.1119 239.009 8.86612 237.03 8.86387C212.553 8.82786 184.94 8.61688 160.39 8.37168C148.992 8.25906 120.65 6.70475 128.215 9.2982C124.254 9.75239 95.4547 8.70677 89.9768 8.69102C84.5003 8.67542 80.1589 9.14046 75.8544 9.14732C62.864 9.16757 53.7165 8.83247 37.9044 9.23741C33.8206 9.34327 29.4448 9.89421 27.0263 9.8878C24.1134 9.8788 20.9783 9.34596 17.2045 9.31211C13.7208 9.2825 9.0721 9.29063 4.18188 9.30637L8.76779 4.72046C8.79269 12.4579 8.83662 20.8 8.78013 26.0881C8.76213 27.6637 8.29428 28.2173 8.14805 30.4709C7.57668 39.2471 7.62624 49.0842 9.11998 47.3436C8.27194 58.5923 9.04549 68.9981 9.09288 79.4224C9.18961 101.464 8.84095 141.615 9.46861 160.816C9.86457 172.924 10.5345 172.614 9.9564 190.44C9.82819 194.397 9.65526 198.336 9.5023 203.135C9.14236 214.385 7.90471 224.705 9.3961 233.28C9.0093 245.774 9.28361 255.725 8.00816 264.995C8.31407 266.088 8.61998 267.181 8.92588 268.274C8.93345 269.806 8.94102 271.337 8.94859 272.869C8.65684 273.347 8.36509 273.825 8.07334 274.303C7.99478 285.276 9.19391 299.198 9.18516 308.487C9.17166 324.061 8.7058 364.173 8.31211 378.941C8.10305 386.781 8.72791 387.203 7.44346 391.692C7.53281 393.445 7.62217 395.199 7.71153 396.952C7.99278 398.05 8.27403 399.147 8.55528 400.245C8.56653 410.303 8.12966 422.233 8.13413 431.816C8.14313 449.277 8.9172 475.497 8.40879 493.031C8.3442 495.246 8.16493 497.74 8.00376 500.22L4.18188 496.399C6.62461 496.557 9.05394 496.698 11.1902 496.695C17.4564 496.686 18.9794 495.724 26.9312 495.706C40.6363 495.676 66.1595 496.795 79.1133 496.709C82.9607 496.684 84.7558 496.326 87.4125 496.288C98.5524 496.124 107.698 496.153 118.38 495.6C129.85 496.522 128.859 497.712 132.413 498.914C135.107 499.82 143.367 501.922 144.54 502.716C145.363 503.274 142.288 503.991 143.442 504.605C129.701 505.096 123.928 504.556 112.77 503.692C92.1634 503.726 71.5571 503.761 50.9509 503.795C49.0761 503.46 47.2014 503.125 45.3267 502.79C45.3267 502.789 45.3267 502.788 45.3267 502.788C37.4132 502.401 34.0592 503.264 29.7914 503.46C22.4012 503.799 13.7167 504.029 4.18188 504.177L0.252011 504.203L0.22543 500.22C-0.443663 457.04 0.572958 396.417 0.746177 359.572C0.791154 349.879 0.339464 318.348 0.883873 311.697C1.02566 309.975 1.54253 309.496 1.56503 307.664C1.25765 291.297 0.950279 274.929 0.642906 258.562C1.44603 224.904 0.78275 190.108 0.659019 156.193C0.473614 105.441 0.26611 54.9683 0.138616 4.72046L0.111812 0.704354L4.18188 0.67719C44.7781 0.574185 85.2278 0.523404 125.56 0.578695C143.003 0.603442 165.138 0.21619 182.214 0.465902C189.341 0.569436 192.311 1.39948 201.673 0.780844C201.771 1.00448 201.87 1.22811 201.968 1.45174C210.138 1.18177 215.359 0.672913 224.52 0.621176C232.234 0.578435 252.642 0.545224 259.459 0.630697C262.994 0.673434 261.677 1.09131 264.973 1.08919C270.616 1.08245 282.674 0.504736 290.461 0.504721C297.515 0.504721 309.407 0.986082 314.83 0.916342C334.361 0.668877 355.636 -0.0446548 376.45 0.146565C382.199 0.200668 389.595 0.742495 391.395 0.727377C394.912 0.695889 395.96 0.169556 398.323 0.101888C410.323 -0.240041 429.03 0.385425 440.793 0.410238C475.557 0.483691 512.193 0.301556 547.182 0.3392L551.534 0.310156L551.563 4.72046C551.559 8.3096 551.553 11.8814 551.544 15.4321C551.483 39.5439 551.576 79.6128 551.18 101.874C551.095 106.674 550.518 105.395 550.518 109.426C550.518 113.895 550.908 116.315 550.939 118.404C551.16 132.861 551.553 164.776 551.155 178.426C551.079 181.025 550.627 182.911 550.629 184.468C550.629 185.256 550.937 187.036 550.968 189.509C551.247 211.35 551.068 227.273 550.962 248.674C550.762 289.66 551.335 337.149 551.025 380.206C550.957 389.587 550.064 396.02 550.073 397.339C550.091 400.234 550.692 402.087 550.84 407.95C551.328 427.443 550.687 453.697 550.988 472.238C551.122 480.49 551.754 491.523 552.002 500.22L552.034 505.008L547.182 505.041C546.225 505.068 545.296 505.09 544.403 505.107C537.203 505.242 520.2 504.943 517.009 505.278C515.067 505.48 514.169 506.13 511.844 506.212ZM543.054 293.009C544.093 294.292 543.229 280.812 542.672 285.869C542.546 287.008 542.784 292.678 543.054 293.009ZM204.272 7.0438C204.396 7.34067 204.519 7.63755 204.643 7.93443C206.412 7.81089 208.182 7.68735 209.952 7.56382C208.957 7.38535 207.962 7.20688 206.968 7.02842C206.069 7.03354 205.171 7.03867 204.272 7.0438ZM150.673 613.861C150.745 614.003 150.356 614.204 150.335 614.372C150.245 615.076 149.976 615.337 149.823 615.974C149.595 616.918 150.107 619.72 147.404 619.72C147.403 619.72 147.403 619.72 147.403 619.72C147.377 619.72 147.35 619.72 147.323 619.72C146.808 619.71 146.246 619.471 145.663 619.436C145.081 619.401 141.319 619.427 141.108 619.089C140.829 618.598 141.793 617.42 141.751 617.159C141.721 616.98 141.379 616.759 141.318 616.53C141.123 615.793 141.373 615.406 140.444 614.742C140.933 614.476 141.423 614.21 141.913 613.944C141.686 613.597 142.331 613.071 142.296 612.86C142.266 612.687 141.879 612.586 141.861 612.406C141.839 612.204 142.257 611.893 142.194 611.526C142.093 610.923 141.083 610.816 140.954 610.454C140.822 610.079 141.371 609.496 141.015 609.017C140.904 608.957 140.793 608.897 140.682 608.837C140.431 608.88 140.18 608.923 139.928 608.966C139.811 608.725 140.326 608.621 140.336 608.4C140.347 608.139 139.859 608.006 139.861 607.831C139.863 607.687 140.255 607.492 140.23 607.306C140.196 607.035 139.631 607.094 139.526 606.948C139.484 606.89 139.173 605.812 139.168 605.751C139.146 605.288 139.919 605.248 139.987 604.879C140.171 603.856 139.546 602.806 139.31 601.86C139.205 601.438 139.249 600.997 139.373 600.575C141.353 601.239 142.893 599.771 139.796 600.32C140.236 599.851 139.4 599.519 139.542 599.074C139.634 598.787 140.063 598.588 140.052 598.178C140.029 597.45 138.809 596.653 141.015 596.444C140.626 595.589 141.427 594.848 139.479 594.54C139.36 594.32 140.52 593.755 140.678 593.508C140.826 593.274 141.35 591.48 141.379 591.187C141.409 590.893 141.44 590.379 141.269 590.132C141.058 589.822 139.038 589.605 141.4 589.052C141.209 588.409 141.276 588.18 141.551 587.582C141.6 587.474 141.951 587.462 141.951 587.398C141.951 587.268 141.692 587.047 141.661 586.814C141.609 586.432 142.347 586.214 141.22 586.256C141.031 586.004 140.842 585.752 140.653 585.5C140.87 585.411 141.088 585.323 141.305 585.234C141.068 585.1 140.831 584.965 140.594 584.83C142.225 584.988 141.263 584.04 140.327 584.348C140.664 583.859 141.002 583.37 141.339 582.882C143.193 582.95 141.553 581.809 140.545 581.905C140.547 581.849 140.548 581.793 140.549 581.737C141.042 581.248 140.639 580.798 140.97 580.201C141.301 579.605 141.481 579.661 142.334 579.479C142.285 579.339 142.236 579.198 142.187 579.058C139.85 578.321 143.897 578.452 142.104 577.19C143.573 576.787 142.801 575.793 142.356 575.135C142.304 575.058 142.019 575.057 141.931 574.954C141.719 574.705 142.086 574.068 141.166 574.09C141.432 573.869 141.698 573.649 141.965 573.428C141.797 573.248 141.63 573.068 141.463 572.888C141.176 572.889 140.889 572.889 140.601 572.89C141.58 572.527 141.204 571.957 141.438 571.676C141.485 571.62 141.881 571.608 141.989 571.434C142.118 571.231 142 570.852 142.124 570.609C141.685 570.515 141.247 570.421 140.808 570.327C140.57 569.893 141.728 569.741 141.818 569.486C141.834 569.441 141.75 568.605 141.726 568.56C141.53 568.191 140.543 568.295 140.755 567.229C140.793 567.039 141.134 566.886 141.148 566.714C141.173 566.411 140.398 565.497 139.683 565.425C140.578 565.057 140.212 564.073 140.471 563.784C140.551 563.696 141.121 563.676 141.242 563.408C141.341 563.19 140.885 562.628 140.961 562.352C141.044 562.058 141.523 561.954 141.557 561.822C141.589 561.698 141.202 561.583 141.204 561.414C141.218 560.886 141.84 560.407 141.852 559.99C141.87 559.386 140.725 558.852 140.216 558.347C140.29 558.221 140.536 558.098 140.538 557.966C140.574 556.34 140.785 554.504 141.031 552.873C141.143 552.115 142.698 550.232 140.104 550.734C139.65 550.471 140.696 548.557 140.711 548.193C140.727 547.829 140.262 547.54 140.255 547.254C140.235 546.391 140.57 545.783 140.165 544.732C140.059 544.461 139.508 544.17 139.515 544.009C139.524 543.815 140.056 543.607 140.09 543.356C140.167 542.758 139.991 541.644 140.084 541.071C140.102 540.966 140.569 540.929 140.716 540.779C141.287 540.196 141.238 539.542 139.744 539.658C140.592 538.91 139.818 538.219 139.771 537.526C139.674 536.061 140.023 533.392 139.395 532.116C138.999 531.312 138.329 531.332 138.907 530.147C139.036 529.884 139.209 529.623 139.361 529.304C139.721 528.556 140.959 527.87 139.468 527.3C139.854 526.47 139.58 525.808 140.856 525.192C140.55 525.12 140.244 525.047 139.938 524.974C139.93 524.872 139.923 524.771 139.915 524.669C140.207 524.637 140.499 524.605 140.79 524.574C140.869 523.844 139.67 522.919 139.679 522.302C139.692 521.267 140.158 518.601 140.552 517.619C140.761 517.098 140.136 517.07 141.42 516.772C141.331 516.655 141.242 516.539 141.152 516.422C140.871 516.349 140.59 516.276 140.308 516.203C140.297 515.535 140.734 514.742 140.73 514.105C140.721 512.944 139.947 511.202 140.455 510.036C140.583 509.744 141.163 509.379 141.157 509.093C141.148 508.676 140.185 508.575 140.167 508.046C140.138 507.136 141.256 505.439 141.171 504.578C141.146 504.323 140.788 504.203 140.749 504.027C140.585 503.286 140.614 502.678 140.061 501.969C140.983 501.206 142.174 501.272 143.375 501.036C144.282 500.857 146.383 500.308 147.177 500.23C147.735 500.175 148.453 500.38 149.067 500.303C149.557 501.216 149.017 501.6 148.153 502.341C148.188 503.711 148.222 505.081 148.257 506.45C147.922 506.575 147.586 506.699 147.251 506.824C147.25 506.824 147.25 506.824 147.249 506.824C146.862 507.35 147.725 507.573 147.921 507.856C149.798 510.572 148.329 515.917 148.118 518.906C148.073 519.551 148.524 521.646 147.98 522.088C147.838 522.203 147.321 522.235 147.299 522.356C147.606 523.444 147.913 524.532 148.221 525.62C147.418 527.857 148.081 530.169 148.205 532.423C148.54 538.522 148.947 544.559 148.824 550.558C148.799 551.717 149.186 553.188 148.936 554.323C148.833 554.797 148.003 554.994 148.622 555.617C148.398 555.623 148.174 555.63 147.951 555.636C148.221 556.179 148.729 556.526 148.781 557.135C148.824 557.648 148.857 559.004 148.772 559.457C148.729 559.692 148.311 559.605 148.313 559.824C148.32 560.199 148.898 561 148.898 561.518C148.898 561.986 148.416 562.777 148.486 563.137C148.733 564.435 149.447 565.849 149.256 567.233C149.202 567.615 148.66 568.106 148.675 568.226C148.706 568.46 149.233 568.529 149.3 568.686C149.642 569.484 149.017 570.727 148.992 571.509C148.911 574.057 149.141 576.755 149.044 579.292C148.983 580.894 149.076 583.558 148.68 585.037C148.595 585.356 148.018 585.271 148.018 585.539C148.018 585.836 148.408 585.997 148.439 586.136C148.66 587.097 149.053 589.218 148.655 590.125C148.579 590.298 148.127 590.423 148.129 590.527C148.129 590.579 148.437 590.697 148.468 590.862C148.747 592.313 148.568 593.372 148.462 594.794C148.262 597.518 148.835 600.674 148.525 603.536C148.457 604.159 147.564 604.587 147.573 604.675C147.591 604.867 148.192 604.99 148.34 605.38C148.828 606.675 148.187 608.42 148.488 609.652C148.637 610.261 149.4 611.098 149.569 611.697C149.703 612.176 149.404 613.306 149.739 613.518C149.942 613.647 150.592 613.706 150.673 613.861ZM140.554 597.74C141.593 597.826 140.729 596.93 140.172 597.266C140.046 597.342 140.284 597.718 140.554 597.74ZM142.359 555.789C142.062 555.798 141.765 555.806 141.468 555.814C141.591 555.932 141.715 556.049 141.839 556.167C142.017 556.101 142.195 556.035 142.374 555.968C142.369 555.909 142.364 555.849 142.359 555.789ZM410.002 494.229C410.334 494.157 410.803 494.546 411.196 494.567C412.839 494.657 413.448 494.927 414.935 495.08C417.139 495.307 423.682 494.795 423.682 497.499C423.682 497.499 423.682 497.499 423.682 497.499C423.682 497.525 423.681 497.552 423.68 497.579C423.657 498.094 423.101 498.657 423.018 499.239C422.936 499.822 422.997 503.583 422.207 503.795C421.061 504.073 418.312 503.109 417.701 503.152C417.283 503.181 416.768 503.523 416.234 503.584C414.511 503.78 413.61 503.529 412.058 504.458C411.437 503.969 410.816 503.479 410.195 502.99C409.385 503.217 408.158 502.571 407.665 502.607C407.262 502.636 407.025 503.023 406.604 503.041C406.132 503.063 405.408 502.646 404.549 502.709C403.142 502.81 402.891 503.82 402.047 503.948C401.171 504.081 399.81 503.532 398.692 503.887C398.552 503.998 398.412 504.109 398.272 504.22C398.372 504.472 398.473 504.723 398.573 504.974C398.01 505.091 397.768 504.576 397.251 504.567C396.643 504.556 396.332 505.044 395.923 505.041C395.588 505.039 395.133 504.648 394.698 504.672C394.064 504.706 394.203 505.271 393.861 505.377C393.725 505.418 391.209 505.73 391.067 505.734C389.987 505.757 389.893 504.983 389.032 504.915C386.643 504.731 384.192 505.356 381.983 505.592C380.996 505.698 379.967 505.653 378.984 505.529C380.533 503.55 377.104 502.009 378.386 505.107C377.292 504.666 376.516 505.502 375.479 505.361C374.808 505.268 374.343 504.839 373.385 504.85C371.685 504.873 369.826 506.094 369.337 503.887C367.341 504.276 365.613 503.476 364.893 505.424C364.379 505.543 363.06 504.382 362.483 504.225C361.937 504.076 357.748 503.552 357.063 503.523C356.378 503.494 355.179 503.462 354.601 503.633C353.876 503.844 353.37 505.865 352.079 503.503C350.578 503.694 350.044 503.626 348.648 503.352C348.395 503.302 348.366 502.951 348.219 502.951C347.915 502.951 347.397 503.21 346.854 503.242C345.962 503.294 345.452 502.556 345.552 503.683C344.963 503.872 344.375 504.061 343.786 504.25C343.58 504.032 343.373 503.815 343.167 503.597C342.852 503.834 342.537 504.071 342.223 504.308C342.592 502.677 340.377 503.64 341.096 504.576C339.956 504.238 338.815 503.901 337.674 503.563C337.833 501.71 335.169 503.349 335.393 504.357C335.262 504.356 335.132 504.354 335.001 504.353C333.858 503.86 332.809 504.263 331.416 503.932C330.023 503.602 330.153 503.421 329.73 502.569C329.402 502.618 329.074 502.666 328.746 502.715C327.026 505.053 327.33 501.006 324.385 502.799C323.444 501.33 321.124 502.101 319.586 502.547C319.407 502.598 319.404 502.884 319.165 502.972C318.583 503.183 317.096 502.816 317.146 503.736C316.632 503.47 316.117 503.204 315.602 502.938C315.181 503.105 314.761 503.272 314.34 503.44C314.342 503.727 314.344 504.014 314.346 504.301C313.499 503.322 312.168 503.698 311.511 503.464C311.38 503.417 311.352 503.021 310.946 502.913C310.471 502.785 309.586 502.902 309.021 502.778C308.801 503.217 308.581 503.656 308.361 504.094C307.349 504.332 306.993 503.174 306.399 503.084C306.292 503.069 304.341 503.152 304.235 503.177C303.375 503.373 303.618 504.359 301.129 504.148C300.685 504.11 300.327 503.768 299.926 503.754C299.218 503.73 297.085 504.504 296.917 505.219C296.059 504.324 293.761 504.69 293.085 504.431C292.881 504.352 292.834 503.781 292.207 503.66C291.698 503.561 290.387 504.018 289.742 503.941C289.057 503.858 288.812 503.379 288.505 503.345C288.215 503.314 287.948 503.7 287.552 503.698C286.319 503.685 285.202 503.062 284.227 503.051C282.816 503.033 281.571 504.178 280.391 504.686C280.098 504.612 279.81 504.366 279.503 504.364C275.705 504.328 271.42 504.117 267.611 503.872C265.842 503.759 261.444 502.205 262.618 504.798C262.003 505.252 257.535 504.207 256.685 504.191C255.835 504.175 255.161 504.64 254.493 504.647C252.477 504.668 251.058 504.332 248.604 504.737C247.971 504.843 247.292 505.394 246.916 505.388C246.464 505.379 245.978 504.846 245.392 504.812C243.996 504.736 241.395 504.911 240.056 504.819C239.811 504.801 239.725 504.333 239.376 504.187C238.014 503.615 236.488 503.665 236.758 505.159C235.012 504.311 233.397 505.084 231.78 505.131C228.36 505.228 222.129 504.88 219.15 505.507C217.271 505.903 217.319 506.573 214.553 505.995C213.939 505.867 213.328 505.694 212.583 505.541C210.837 505.181 209.236 503.943 207.905 505.435C205.967 505.048 204.423 505.322 202.984 504.047C202.814 504.353 202.645 504.659 202.475 504.964C202.238 504.972 202 504.98 201.762 504.987C201.688 504.695 201.614 504.404 201.54 504.112C199.837 504.033 197.677 505.232 196.235 505.224C193.819 505.21 187.594 504.744 185.303 504.351C184.086 504.142 184.021 504.766 183.324 503.482C183.052 503.571 182.78 503.661 182.508 503.75C182.338 504.031 182.167 504.313 181.997 504.594C180.436 504.605 178.585 504.168 177.098 504.173C174.389 504.182 170.32 504.956 167.599 504.447C166.917 504.319 166.064 503.739 165.396 503.746C164.424 503.755 164.187 504.717 162.954 504.735C160.827 504.764 156.866 503.646 154.856 503.732C154.259 503.757 153.981 504.115 153.569 504.153C151.84 504.317 150.421 504.288 148.763 504.841C146.983 503.919 147.137 502.729 146.586 501.527C146.168 500.621 144.886 498.519 144.704 497.725C144.576 497.167 145.053 496.45 144.874 495.836C147.007 495.345 147.902 495.885 149.634 496.749C152.831 496.714 156.029 496.68 159.226 496.646C159.517 496.981 159.808 497.316 160.099 497.651C160.099 497.652 160.099 497.653 160.099 497.653C161.327 498.04 161.847 497.177 162.51 496.981C168.85 495.105 181.329 496.573 188.308 496.785C189.812 496.83 194.705 496.378 195.737 496.922C196.004 497.064 196.079 497.581 196.363 497.604C198.903 497.296 201.443 496.989 203.982 496.681C209.205 497.485 214.605 496.821 219.867 496.698C234.105 496.362 248.201 495.955 262.206 496.079C264.913 496.103 268.348 495.716 270.997 495.966C272.103 496.069 272.564 496.899 274.017 496.281C274.032 496.504 274.047 496.728 274.062 496.952C275.33 496.682 276.141 496.173 277.562 496.121C278.759 496.078 281.926 496.045 282.983 496.131C283.532 496.173 283.328 496.591 283.839 496.589C284.715 496.582 286.586 496.005 287.794 496.005C288.889 496.005 290.734 496.486 291.576 496.416C294.606 496.169 297.907 495.455 301.137 495.647C302.029 495.701 303.177 496.242 303.456 496.227C304.002 496.196 304.165 495.67 304.531 495.602C306.393 495.26 309.296 495.885 311.121 495.91C317.069 495.991 323.37 495.762 329.292 495.858C333.034 495.919 339.251 495.826 342.706 496.222C343.451 496.308 343.252 496.884 343.878 496.884C344.571 496.884 344.947 496.495 345.271 496.463C347.514 496.243 352.466 495.849 354.584 496.247C354.988 496.324 355.281 496.775 355.522 496.774C355.644 496.774 355.921 496.465 356.304 496.434C359.693 496.155 362.164 496.335 365.485 496.441C371.845 496.641 379.214 496.067 385.895 496.378C387.351 496.445 388.349 497.339 388.554 497.33C389.003 497.312 389.29 496.711 390.2 496.562C393.225 496.074 397.299 496.715 400.176 496.414C401.597 496.266 403.551 495.503 404.949 495.334C406.067 495.199 408.705 495.498 409.2 495.163C409.501 494.961 409.641 494.311 410.002 494.229ZM372.365 504.348C372.564 503.309 370.472 504.173 371.257 504.731C371.433 504.856 372.313 504.618 372.365 504.348ZM274.42 502.544C274.439 502.841 274.458 503.138 274.478 503.434C274.752 503.311 275.027 503.187 275.301 503.064C275.147 502.885 274.993 502.707 274.838 502.528C274.699 502.534 274.56 502.539 274.42 502.544ZM429.673 613.861C429.745 614.003 429.356 614.204 429.335 614.372C429.245 615.076 428.976 615.337 428.823 615.974C428.595 616.918 429.107 619.72 426.404 619.72C426.403 619.72 426.403 619.72 426.403 619.72C426.377 619.72 426.35 619.72 426.323 619.72C425.808 619.71 425.246 619.471 424.663 619.436C424.081 619.401 420.319 619.427 420.108 619.089C419.829 618.598 420.793 617.42 420.751 617.159C420.721 616.98 420.379 616.759 420.319 616.53C420.123 615.793 420.373 615.406 419.444 614.742C419.934 614.476 420.423 614.21 420.913 613.944C420.686 613.597 421.331 613.071 421.296 612.86C421.266 612.687 420.879 612.586 420.861 612.406C420.839 612.204 421.257 611.893 421.194 611.526C421.093 610.923 420.083 610.816 419.954 610.454C419.822 610.079 420.371 609.496 420.015 609.017C419.904 608.957 419.793 608.897 419.682 608.837C419.431 608.88 419.18 608.923 418.928 608.966C418.811 608.725 419.326 608.621 419.336 608.4C419.347 608.139 418.859 608.006 418.861 607.831C418.863 607.687 419.255 607.492 419.23 607.306C419.196 607.035 418.631 607.094 418.526 606.948C418.484 606.89 418.173 605.812 418.168 605.751C418.146 605.288 418.919 605.248 418.987 604.879C419.171 603.856 418.546 602.806 418.31 601.86C418.205 601.438 418.249 600.997 418.373 600.575C420.353 601.239 421.893 599.771 418.796 600.32C419.236 599.851 418.4 599.519 418.542 599.074C418.634 598.787 419.063 598.588 419.052 598.178C419.029 597.45 417.809 596.653 420.015 596.444C419.626 595.589 420.427 594.848 418.479 594.54C418.36 594.32 419.52 593.755 419.678 593.508C419.826 593.274 420.35 591.48 420.379 591.187C420.409 590.893 420.44 590.379 420.269 590.132C420.058 589.822 418.038 589.605 420.4 589.052C420.209 588.409 420.276 588.18 420.551 587.582C420.6 587.474 420.951 587.462 420.951 587.398C420.951 587.268 420.692 587.047 420.661 586.814C420.609 586.432 421.347 586.214 420.22 586.256C420.031 586.004 419.842 585.752 419.653 585.5C419.87 585.411 420.088 585.323 420.305 585.234C420.068 585.1 419.831 584.965 419.594 584.83C421.225 584.988 420.263 584.04 419.327 584.348C419.664 583.859 420.002 583.37 420.339 582.882C422.193 582.95 420.553 581.809 419.545 581.905C419.547 581.849 419.548 581.793 419.549 581.737C420.042 581.248 419.639 580.798 419.97 580.201C420.301 579.605 420.481 579.661 421.334 579.479C421.285 579.339 421.236 579.198 421.187 579.058C418.85 578.321 422.897 578.452 421.104 577.19C422.573 576.787 421.801 575.793 421.356 575.135C421.304 575.058 421.019 575.057 420.931 574.954C420.719 574.705 421.086 574.068 420.166 574.09C420.432 573.869 420.698 573.649 420.965 573.428C420.797 573.248 420.63 573.068 420.463 572.888C420.176 572.889 419.889 572.889 419.601 572.89C420.58 572.527 420.204 571.957 420.438 571.676C420.485 571.62 420.881 571.608 420.989 571.434C421.118 571.231 421 570.852 421.124 570.609C420.685 570.515 420.247 570.421 419.808 570.327C419.57 569.893 420.728 569.741 420.818 569.486C420.834 569.441 420.75 568.605 420.726 568.56C420.53 568.191 419.543 568.295 419.755 567.229C419.793 567.039 420.134 566.886 420.148 566.714C420.173 566.411 419.398 565.497 418.683 565.425C419.578 565.057 419.212 564.073 419.471 563.784C419.551 563.696 420.121 563.676 420.242 563.408C420.341 563.19 419.885 562.628 419.961 562.352C420.044 562.058 420.523 561.954 420.557 561.822C420.589 561.698 420.202 561.583 420.204 561.414C420.218 560.886 420.84 560.407 420.852 559.99C420.87 559.386 419.725 558.852 419.216 558.347C419.29 558.221 419.536 558.098 419.538 557.966C419.574 556.34 419.785 554.504 420.031 552.873C420.143 552.115 421.698 550.232 419.104 550.734C418.65 550.471 419.696 548.557 419.711 548.193C419.727 547.829 419.262 547.54 419.255 547.254C419.235 546.391 419.57 545.783 419.165 544.732C419.059 544.461 418.508 544.17 418.515 544.009C418.524 543.815 419.056 543.607 419.09 543.356C419.167 542.758 418.991 541.644 419.084 541.071C419.102 540.966 419.569 540.929 419.716 540.779C420.287 540.196 420.238 539.542 418.744 539.658C419.592 538.91 418.818 538.219 418.771 537.526C418.674 536.061 419.023 533.392 418.395 532.116C417.999 531.312 417.329 531.332 417.907 530.147C418.036 529.884 418.208 529.623 418.361 529.304C418.721 528.556 419.959 527.87 418.468 527.3C418.854 526.47 418.58 525.808 419.856 525.192C419.55 525.12 419.244 525.047 418.938 524.974C418.93 524.872 418.923 524.771 418.915 524.669C419.207 524.637 419.499 524.605 419.79 524.574C419.869 523.844 418.67 522.919 418.679 522.302C418.692 521.267 419.158 518.601 419.552 517.619C419.761 517.098 419.136 517.07 420.42 516.772C420.331 516.655 420.242 516.539 420.152 516.422C419.871 516.349 419.59 516.276 419.309 516.203C419.297 515.535 419.734 514.742 419.73 514.105C419.721 512.944 418.947 511.202 419.455 510.036C419.583 509.744 420.163 509.379 420.157 509.093C420.148 508.676 419.185 508.575 419.167 508.046C419.138 507.136 420.256 505.439 420.171 504.578C420.146 504.323 419.788 504.203 419.749 504.027C419.585 503.286 419.614 502.678 419.061 501.969C419.983 501.206 421.174 501.272 422.375 501.036C423.282 500.857 425.383 500.308 426.177 500.23C426.735 500.175 427.453 500.38 428.067 500.303C428.557 501.216 428.017 501.6 427.153 502.341C427.188 503.711 427.222 505.081 427.257 506.45C426.922 506.575 426.586 506.699 426.251 506.824C426.25 506.824 426.25 506.824 426.249 506.824C425.862 507.35 426.725 507.573 426.921 507.856C428.798 510.572 427.329 515.917 427.118 518.906C427.073 519.551 427.524 521.646 426.98 522.088C426.838 522.203 426.321 522.235 426.299 522.356C426.606 523.444 426.913 524.532 427.221 525.62C426.418 527.857 427.081 530.169 427.205 532.423C427.54 538.522 427.947 544.559 427.824 550.558C427.799 551.717 428.186 553.188 427.936 554.323C427.833 554.797 427.003 554.994 427.621 555.617C427.398 555.623 427.174 555.63 426.951 555.636C427.221 556.179 427.729 556.526 427.781 557.135C427.824 557.648 427.857 559.004 427.772 559.457C427.729 559.692 427.311 559.605 427.313 559.824C427.32 560.199 427.898 561 427.898 561.518C427.898 561.986 427.416 562.777 427.486 563.137C427.733 564.435 428.447 565.849 428.256 567.233C428.202 567.615 427.66 568.106 427.675 568.226C427.706 568.46 428.233 568.529 428.3 568.686C428.642 569.484 428.017 570.727 427.992 571.509C427.911 574.057 428.141 576.755 428.044 579.292C427.983 580.894 428.076 583.558 427.68 585.037C427.595 585.356 427.018 585.271 427.018 585.539C427.018 585.836 427.408 585.997 427.439 586.136C427.66 587.097 428.053 589.218 427.655 590.125C427.579 590.298 427.127 590.423 427.129 590.527C427.129 590.579 427.437 590.697 427.468 590.862C427.747 592.313 427.568 593.372 427.462 594.794C427.262 597.518 427.835 600.674 427.525 603.536C427.457 604.159 426.564 604.587 426.573 604.675C426.591 604.867 427.192 604.99 427.34 605.38C427.828 606.675 427.187 608.42 427.488 609.652C427.637 610.261 428.4 611.098 428.569 611.697C428.703 612.176 428.404 613.306 428.739 613.518C428.942 613.647 429.592 613.706 429.673 613.861ZM419.554 597.74C420.593 597.826 419.729 596.93 419.172 597.266C419.046 597.342 419.284 597.718 419.554 597.74ZM421.359 555.789C421.062 555.798 420.765 555.806 420.468 555.814C420.591 555.932 420.715 556.049 420.839 556.167C421.017 556.101 421.195 556.035 421.374 555.968C421.369 555.909 421.364 555.849 421.359 555.789Z" fill="white"/>
</svg>
