<svg width="186" height="224" viewBox="0 0 186 224" fill="none" xmlns="http://www.w3.org/2000/svg">
<path d="M126.023 201.973C126.017 201.834 126.439 201.866 126.522 201.744C126.854 201.25 127.179 201.152 127.477 200.695C127.503 200.654 127.527 200.608 127.55 200.557C127.906 200.117 127.733 196.807 130.247 196.834C130.247 196.834 130.247 196.834 130.248 196.834C130.274 196.834 130.301 196.835 130.328 196.836C130.843 196.853 131.402 197.183 131.983 197.242C132.564 197.303 136.328 197.32 136.526 197.852C136.797 198.619 135.692 200.429 135.657 200.863C135.647 201.161 135.928 201.586 135.903 202.018C135.888 202.267 135.855 202.502 135.811 202.731C135.632 203.667 135.402 204.235 135.699 205.463C135.053 205.715 134.403 205.922 133.761 206.08C133.681 206.715 132.669 207.113 132.509 207.407C132.378 207.652 132.601 208.009 132.441 208.26C132.26 208.546 131.63 208.686 131.303 209.175C130.768 209.963 131.383 210.772 131.065 211.293C130.726 211.839 129.669 212.096 129.333 212.862C129.334 213.009 129.333 213.157 129.332 213.304C129.549 213.449 129.768 213.592 129.987 213.734C129.76 214.087 129.294 213.807 129.012 214.028C128.68 214.287 128.813 214.804 128.583 214.981C128.396 215.124 127.908 215.005 127.682 215.204C127.349 215.491 127.759 215.89 127.627 216.116C127.58 216.212 126.299 217.462 126.212 217.513C125.588 217.94 125.124 217.314 124.589 217.56C123.109 218.235 121.944 219.55 120.675 220.403C120.109 220.785 119.448 221.028 118.783 221.171C118.956 218.954 116.303 218.386 118.25 220.934C117.403 220.803 117.22 221.768 116.506 221.877C116.048 221.944 115.606 221.645 115.002 221.856C113.938 222.234 112.996 223.754 112.12 221.698C110.906 222.416 109.615 221.84 109.423 223.845C109.198 223.965 108.577 223.55 108.108 223.22L107.545 223.252C107.368 223.067 107.207 222.91 107.094 222.858C106.757 222.705 104.251 222.177 103.837 222.151C103.433 222.123 102.71 222.094 102.359 222.267C101.919 222.482 101.647 224.504 100.85 222.15C99.9324 222.351 99.6352 222.287 98.7857 222.026C98.6306 221.979 98.6076 221.629 98.5178 221.63C98.333 221.633 98.0251 221.897 97.7035 221.935C97.1815 221.997 96.8477 221.266 96.9337 222.392C96.5786 222.588 96.2294 222.785 95.8858 222.983C95.7584 222.768 95.6314 222.554 95.5048 222.339C95.3249 222.581 95.1335 222.823 94.9508 223.065C95.1264 221.429 93.8267 222.428 94.284 223.352C93.6173 223.033 92.8811 222.719 92.2081 222.405C92.2423 220.548 90.6833 222.247 90.8668 223.249C90.7899 223.25 90.7132 223.252 90.6369 223.253C89.9105 222.789 89.3321 223.216 88.461 222.924C87.6158 222.631 87.6874 222.447 87.3879 221.607C87.1899 221.666 86.9941 221.724 86.8006 221.782C85.8832 224.166 85.8727 220.115 84.1742 221.995C83.5303 220.557 82.1653 221.399 81.2474 221.887C81.1403 221.944 81.1514 222.229 81.0104 222.323C80.6771 222.551 79.7307 222.223 79.8052 223.14C79.4816 222.887 79.1406 222.633 78.8199 222.377C78.5725 222.553 78.3021 222.728 78.047 222.902C78.0557 223.189 78.0644 223.476 78.0731 223.763C77.5198 222.8 76.6828 223.188 76.2573 222.953C76.1738 222.906 76.1566 222.51 75.9003 222.401C75.5924 222.272 75.0345 222.382 74.6677 222.247C74.5132 222.681 74.3558 223.115 74.1931 223.547C73.4958 223.756 73.3278 222.583 72.9445 222.465C72.8794 222.451 71.5744 222.408 71.4974 222.417C70.8995 222.53 70.9239 223.568 69.2275 223.037C68.9282 222.938 68.7554 222.551 68.487 222.475C68.3121 222.425 67.9801 222.45 67.6086 222.525C66.9191 222.64 66.0789 222.846 65.8525 223.241C65.4844 222.182 63.7618 221.792 63.454 221.32C63.3581 221.178 63.5942 220.661 63.2612 220.337C63.0056 220.086 61.9676 219.993 61.6396 219.684C61.2854 219.353 61.4157 218.859 61.2638 218.713C61.123 218.577 60.7525 218.79 60.5347 218.629C59.8515 218.117 59.6578 217.168 59.1751 216.752C58.4787 216.15 57.1099 216.458 56.1738 216.272C56.0812 216.082 56.1121 215.771 55.9662 215.626C54.1595 213.822 52.4705 211.526 51.2008 209.352C50.5722 208.342 50.3704 205.097 48.5765 207.111C47.9417 207.002 47.3581 203.831 47.1536 203.302C46.915 202.78 46.2963 202.546 46.1046 202.125C45.5248 200.818 45.4754 199.799 44.601 198.152C44.3756 197.72 43.7241 197.338 43.6685 197.031C43.6034 196.666 44.0607 196.211 44.026 195.73C43.9148 194.649 43.6779 192.37 44.0431 191.073C44.0444 191.068 44.0459 191.063 44.0477 191.058C44.1157 190.889 44.57 190.905 44.7604 190.684C45.5257 189.789 45.7532 188.843 44.264 188.614C45.3977 187.697 44.9843 186.466 45.2673 185.478C45.8821 183.328 47.5684 179.887 47.6539 177.952C47.7123 176.715 47.0673 176.523 48.233 175.148C48.4887 174.851 48.7865 174.57 49.0976 174.202C49.8262 173.344 51.3371 172.899 50.2505 171.6C51.0453 170.654 51.138 169.683 52.6455 169.347C52.3996 169.138 52.1537 168.929 51.9078 168.72C51.9544 168.583 52.0013 168.445 52.0468 168.31C52.3342 168.377 52.6217 168.444 52.9092 168.51C53.3621 167.587 52.7304 165.929 53.057 165.126C53.6074 163.778 55.3998 160.462 56.2534 159.317C56.7091 158.708 56.1377 158.452 57.4872 158.515C57.4614 158.33 57.4354 158.146 57.4093 157.962C57.1821 157.767 56.9548 157.572 56.7273 157.378C57.0454 156.499 57.8396 155.613 58.1403 154.776C58.6904 153.248 58.7679 150.708 59.7627 149.347C60.0128 149.008 60.7258 148.705 60.844 148.327C61.017 147.773 60.1435 147.35 60.3517 146.645C60.7108 145.447 62.4594 143.544 62.6977 142.372C62.7696 142.028 62.4662 141.782 62.4952 141.534C62.6078 140.508 62.8434 139.723 62.5349 138.66C63.6689 137.898 64.8088 138.233 66.0533 138.185C66.9931 138.148 69.2121 137.837 70.0121 137.888C70.5746 137.925 71.2141 138.367 71.8381 138.386C72.0301 139.817 71.3621 140.278 70.2626 141.119C69.8066 143.074 69.2899 145.015 68.7451 146.916C68.3716 146.991 67.998 147.065 67.6243 147.139C67.6236 147.139 67.6229 147.138 67.6222 147.138C67.0289 147.745 67.7561 148.305 67.8177 148.757C68.4313 153.099 64.4061 159.859 62.6653 163.726C62.2938 164.57 61.6273 167.511 60.889 167.894C60.6972 167.994 60.1998 167.846 60.1152 167.999C59.8339 169.547 59.5506 171.088 59.2606 172.642C57.3414 175.282 56.7342 178.568 55.7049 181.554C54.427 185.332 53.0054 189.409 52.4977 192.549C52.2099 194.897 53.8689 198.991 55.8676 202.323C56.6118 203.597 58.0088 204.9 58.7207 206.178C59.0168 206.71 58.5476 207.448 59.5424 207.652C59.3794 207.805 59.2165 207.958 59.0538 208.112C59.7265 208.469 60.3995 208.452 60.9743 208.975C61.4497 209.421 62.7174 210.578 63.0907 210.999C63.2857 211.224 62.9306 211.47 63.1433 211.648C63.51 211.953 64.6458 212.117 65.1494 212.472C65.5964 212.799 66.1275 213.714 66.5326 213.864C67.6134 214.282 68.8449 214.342 69.737 214.437C70.1364 214.497 70.5196 214.577 70.8956 214.701C71.3082 214.841 71.7923 215.462 71.9406 215.467C72.2214 215.474 72.3685 214.961 72.5583 214.915C73.5006 214.688 74.9904 215.378 76.0274 215.399C79.3566 215.477 83.1975 214.98 86.8062 214.917C89.1096 214.865 92.8952 214.63 95.0325 214.974C95.5 215.048 95.3814 215.628 95.7618 215.618C96.1815 215.608 96.4052 215.214 96.6052 215.178C97.9577 214.924 101.028 214.489 102.302 214.882C102.551 214.957 102.735 215.408 102.886 215.405C102.962 215.405 103.132 215.096 103.361 215.063C104.93 214.846 106.171 214.902 107.6 214.995L107.105 215.024C107.455 215.008 107.845 214.979 108.255 214.931C111.618 214.529 115.357 212.545 118.699 211.089C119.431 210.773 120.355 211.261 120.453 211.194C120.66 211.05 120.491 210.453 120.833 210.065C121.965 208.796 124.086 207.997 124.963 206.736C125.402 206.122 125.503 204.897 125.76 204.306C125.987 203.839 126.877 203.053 126.679 202.706C126.568 202.495 126.031 202.125 126.023 201.973ZM114.194 221.587C114.018 220.558 112.933 221.781 113.59 222.169C113.743 222.256 114.245 221.855 114.194 221.587ZM54.9935 211.963C54.779 212.169 54.5647 212.375 54.3506 212.581C54.5612 212.632 54.773 212.684 54.9837 212.732C55.049 212.539 55.1152 212.345 55.1825 212.153C55.1191 212.089 55.0562 212.026 54.9935 211.963ZM69.7077 143.554C69.637 143.62 69.5782 143.225 69.5036 143.198C69.1912 143.081 69.095 142.802 68.8172 142.625C68.4121 142.363 67.0993 142.761 67.3348 140.068C67.3348 140.068 67.3348 140.067 67.3348 140.067C67.3371 140.041 67.3396 140.014 67.3422 139.987C67.392 139.475 67.5496 138.924 67.6167 138.345C67.6838 137.766 68.0021 134.018 68.1729 133.821C68.4185 133.563 68.86 134.57 68.9798 134.537C69.0619 134.515 69.1891 134.182 69.2955 134.131C69.6387 133.964 69.7951 134.228 70.1687 133.327C70.2458 133.825 70.3231 134.323 70.4005 134.821C70.5735 134.607 70.7529 135.27 70.849 135.242C70.9276 135.219 71.0059 134.837 71.0879 134.826C71.1803 134.811 71.2856 135.239 71.4549 135.189C71.7322 135.11 71.8597 134.107 72.0297 133.992C72.2066 133.873 72.4174 134.44 72.66 134.102C72.6953 133.994 72.7305 133.885 72.7656 133.776C72.7657 133.524 72.7657 133.272 72.7659 133.02C72.8817 132.912 72.8884 133.429 72.9859 133.445C73.1004 133.465 73.1957 132.983 73.2727 132.991C73.3358 132.998 73.3926 133.395 73.4763 133.376C73.5982 133.351 73.6134 132.786 73.685 132.685C73.7142 132.646 74.2055 132.369 74.234 132.366C74.4389 132.358 74.4029 133.131 74.5606 133.21C74.999 133.425 75.4945 132.831 75.9238 132.62C76.1146 132.526 76.3033 132.582 76.479 132.716C76.0739 134.676 76.6307 136.251 76.5658 133.145C76.745 133.596 76.9348 132.769 77.1209 132.921C77.2411 133.019 77.3055 133.453 77.485 133.451C77.8049 133.444 78.2026 132.24 78.1946 134.449C78.585 134.077 78.8785 134.889 79.086 132.948C79.185 132.833 79.3866 134.001 79.4892 134.162C79.5839 134.315 80.3526 134.862 80.4804 134.894C80.6078 134.926 80.8315 134.963 80.9428 134.794C81.084 134.586 81.2117 132.568 81.4116 134.934C81.695 134.747 81.7927 134.816 82.0508 135.093C82.0976 135.143 82.0996 135.494 82.1274 135.494C82.1845 135.495 82.2836 135.236 82.3852 135.205C82.5521 135.155 82.6447 135.893 82.6304 134.766C82.7406 134.577 82.8501 134.389 82.959 134.2C82.9971 134.417 83.0354 134.635 83.074 134.852C83.1324 134.615 83.1903 134.378 83.2478 134.141C83.1834 135.772 83.5935 134.808 83.4544 133.873C83.6663 134.209 83.8801 134.544 84.0959 134.879C84.0888 136.733 84.5676 135.087 84.506 134.079C84.5301 134.08 84.5542 134.081 84.5782 134.082C84.798 134.571 84.9846 134.164 85.2491 134.488C85.5146 134.812 85.4958 134.993 85.5996 135.843C85.6596 135.793 85.7195 135.742 85.7794 135.691C86.0218 133.344 86.1059 137.392 86.5938 135.578C86.8297 137.039 87.2383 136.248 87.5022 135.788C87.5331 135.735 87.5188 135.45 87.5586 135.36C87.6558 135.143 87.9547 135.493 87.8923 134.576C88.003 134.836 88.113 135.096 88.2249 135.356C88.2927 135.184 88.3602 135.012 88.4273 134.84C88.4085 134.554 88.3898 134.267 88.3711 133.981C88.589 134.947 88.8117 134.555 88.9492 134.78C88.9768 134.826 89.0099 135.221 89.0936 135.323C89.1914 135.444 89.3495 135.315 89.4636 135.431C89.4709 134.99 89.4776 134.549 89.4837 134.109C89.649 133.857 89.807 135.006 89.9249 135.087C89.9459 135.101 90.3012 134.987 90.3186 134.961C90.4614 134.751 90.3294 133.774 90.8048 133.941C90.8888 133.972 90.9869 134.305 91.0616 134.312C91.1943 134.324 91.5069 133.514 91.4618 132.799C91.7095 133.674 92.0955 133.264 92.2443 133.507C92.2902 133.582 92.3627 134.147 92.4914 134.255C92.596 134.342 92.7823 133.861 92.9094 133.922C93.0448 133.99 93.1484 134.46 93.2094 134.486C93.2671 134.511 93.2687 134.121 93.3419 134.114C93.5713 134.099 93.8586 134.689 94.0387 134.677C94.3011 134.66 94.3747 133.494 94.5171 132.96C94.5808 133.026 94.6681 133.262 94.7247 133.256C95.4251 133.192 96.2327 133.279 96.9719 133.402C97.3061 133.461 98.3953 134.845 97.7198 132.331C97.7532 131.864 98.7463 132.744 98.9062 132.728C99.0638 132.714 99.098 132.234 99.218 132.203C99.5815 132.111 99.9083 132.387 100.266 131.9C100.359 131.773 100.369 131.208 100.437 131.2C100.52 131.192 100.718 131.695 100.832 131.705C101.103 131.726 101.539 131.451 101.796 131.488C101.843 131.496 101.961 131.949 102.056 132.078C102.427 132.58 102.697 132.468 102.315 131.023C102.818 131.778 102.951 130.953 103.221 130.84C103.802 130.604 105.03 130.659 105.398 129.915C105.637 129.445 105.457 128.8 106.103 129.228C106.246 129.322 106.405 129.459 106.574 129.572C106.974 129.838 107.588 130.954 107.435 129.45C107.886 129.728 108.092 129.386 108.701 130.54C108.65 130.236 108.597 129.934 108.544 129.631C108.584 129.611 108.624 129.592 108.665 129.573C108.757 129.85 108.849 130.127 108.942 130.404C109.268 130.394 109.327 129.13 109.588 129.064C110.035 128.95 111.273 129.069 111.804 129.319C112.085 129.452 111.915 128.851 112.416 130.041C112.44 129.94 112.464 129.84 112.488 129.739C112.437 129.46 112.386 129.182 112.335 128.903C112.622 128.804 113.069 129.123 113.337 129.035C113.817 128.876 114.335 127.9 114.969 128.23C115.129 128.313 115.46 128.816 115.578 128.771C115.75 128.705 115.494 127.776 115.71 127.687C116.079 127.536 117.163 128.356 117.485 128.158C117.584 128.099 117.52 127.742 117.581 127.681C117.837 127.422 118.102 127.364 118.223 126.738C118.842 127.502 119.199 128.638 119.688 129.741C120.057 130.573 120.976 132.479 121.269 133.218C121.474 133.738 121.617 134.447 121.85 135.017C121.606 135.619 121.262 135.165 120.662 134.456C120.074 134.692 119.518 134.914 118.918 135.148C118.758 134.848 118.599 134.548 118.44 134.247C118.439 134.247 118.439 134.246 118.439 134.245C118.089 133.953 118.261 134.805 118.198 135.032C117.612 137.2 114.804 136.545 113.428 136.731C113.138 136.772 112.337 137.478 111.987 137.011C111.897 136.89 111.739 136.397 111.679 136.391C111.282 136.826 110.901 137.254 110.494 137.686C109.276 137.192 108.439 138.103 107.453 138.483C104.808 139.505 102.15 140.517 99.3433 140.898C98.7966 140.972 98.197 141.468 97.6174 141.308C97.3786 141.242 97.158 140.437 96.9659 141.093C96.9285 140.873 96.8911 140.652 96.8537 140.432C96.6456 140.737 96.5626 141.264 96.2886 141.357C96.0528 141.436 95.422 141.559 95.2003 141.502C95.0853 141.475 95.07 141.055 94.969 141.071C94.7985 141.101 94.4989 141.723 94.2534 141.753C94.0318 141.781 93.6049 141.348 93.4461 141.436C92.8784 141.752 92.2702 142.534 91.6041 142.405C91.4191 142.368 91.1353 141.85 91.0811 141.87C90.9737 141.911 90.9868 142.438 90.918 142.512C90.5665 142.886 89.9338 142.309 89.5596 142.31C88.3521 142.316 87.0896 142.609 85.8837 142.548C85.1273 142.512 83.8686 142.623 83.1729 142.227C83.023 142.142 83.0626 141.565 82.9379 141.565C82.7997 141.565 82.7237 141.954 82.6586 141.985C82.2101 142.206 81.2076 142.587 80.7919 142.179C80.7128 142.101 80.6645 141.648 80.6165 141.648C80.5923 141.648 80.5302 141.955 80.4529 141.984C79.77 142.247 79.2804 142.051 78.6263 141.92C77.3726 141.671 75.8873 142.165 74.5915 141.769C74.3105 141.683 74.1753 140.778 74.1349 140.784C74.0459 140.796 73.9486 141.392 73.7593 141.528C73.1298 141.973 72.3845 141.274 71.7985 141.531C71.5122 141.658 71.0715 142.388 70.7837 142.534C70.5531 142.651 70.0631 142.31 69.9408 142.636C69.8657 142.833 69.7846 143.479 69.7077 143.554ZM77.6506 133.961C77.5626 134.998 77.9962 134.154 77.8757 133.589C77.8489 133.462 77.6736 133.692 77.6506 133.961ZM95.9276 134.916C95.8786 134.623 95.8297 134.331 95.7808 134.038C95.7493 134.168 95.7177 134.298 95.686 134.427C95.7413 134.599 95.7968 134.771 95.8525 134.943C95.8775 134.934 95.9026 134.925 95.9276 134.916ZM142.172 123.173C141.788 123.624 140.918 123.875 140.379 124.305C138.307 125.932 137.278 126.393 135.423 127.497C135.297 127.567 135.156 127.649 135.012 127.736C133.702 128.5 131.009 130.761 128.051 132.398C125.145 134.077 121.748 134.757 121.346 133.431C121.346 133.431 121.346 133.431 121.346 133.431C121.338 133.406 121.33 133.38 121.324 133.353C121.211 132.855 121.932 131.98 121.817 131.389C121.71 130.795 120.191 127.381 120.994 126.754C122.179 125.932 126.054 124.404 126.802 123.768C127.302 123.363 127.732 122.613 128.378 122.054C129.148 121.389 129.84 120.865 130.518 120.359C131.499 119.614 132.281 118.897 133.021 117.555C134.015 117.384 135.039 117.154 136.042 116.907C136.785 115.941 138.517 115.115 138.994 114.543C139.38 114.085 139.332 113.563 139.726 113.084C140.162 112.55 141.181 111.989 141.896 110.934C143.063 109.184 142.401 108.307 142.941 107.221C143.494 106.095 144.932 104.633 145.283 103.012C145.267 102.783 145.249 102.554 145.228 102.327C144.941 102.355 144.654 102.381 144.367 102.404C144.584 101.643 145.188 101.536 145.472 100.859C145.8 100.065 145.488 99.4849 145.677 98.949C145.831 98.5108 146.401 98.025 146.551 97.4279C146.767 96.5607 146.164 96.6 146.185 96.1161C146.233 95.9239 146.631 92.477 146.616 92.2808C146.807 90.8202 147.582 90.7744 147.756 89.5768C148.215 86.2341 147.388 82.7819 146.627 79.8371C146.29 78.513 146.018 77.1258 145.762 75.7826C148.283 77.3915 148.358 72.1743 145.931 74.866C145.891 73.2609 144.725 72.5184 144.302 71.1485C144.019 70.259 144.144 69.4821 143.52 68.285C143.485 68.2182 143.448 68.1519 143.41 68.0861C142.215 65.9759 139.972 64.4982 141.352 62.7347C139.422 60.5527 138.377 58.1263 136.239 58.6676C135.683 58.2123 135.229 56.0789 134.712 55.3906C134.332 54.6677 129.902 50.5386 128.993 50.0953C128.177 49.5438 126.676 48.6929 125.867 48.5086C124.95 48.2941 123.565 49.5688 123.1 47.7617L120.547 46.9932L120.348 44.5411C120.466 44.3835 120.606 44.2166 120.772 44.0393C120.327 41.716 120.304 40.8736 120.339 38.6639C120.346 38.2638 120.69 38.1813 120.665 37.9507C120.613 37.4757 120.268 36.6956 120.144 35.8512C119.941 34.4625 120.588 33.587 119.485 33.8642C119.197 32.9654 118.909 32.0666 118.621 31.1679C118.802 30.8219 118.983 30.4759 119.165 30.1299C118.876 29.664 118.586 29.1982 118.297 28.7324C119.982 29.1333 118.649 25.7783 117.84 27.0026C117.982 25.1842 118.124 23.3658 118.265 21.5474C120.135 21.5957 118.053 17.6118 117.089 18.071C117.068 17.867 117.047 17.6629 117.027 17.4589C117.302 15.7478 116.819 14.247 116.826 12.2641L123.646 14.0433C123.548 14.1532 123.445 14.2632 123.339 14.3734C121.8 15.9644 121.772 15.6924 120.692 15.7401C120.433 16.1879 120.174 16.6358 119.915 17.0836C120.252 20.6406 117.232 17.9046 116.009 22.7141C113.955 23.0665 112.47 26.483 111.432 28.7098C111.311 28.9689 111.54 29.1382 111.395 29.4942C111.036 30.3627 109.383 32.0533 110.178 32.5216C109.492 33.0261 108.807 33.5306 108.121 34.0351C107.874 34.6706 107.627 35.3061 107.379 35.9416C107.615 36.1053 107.851 36.2691 108.087 36.4329C106.518 36.9497 105.611 38.8717 104.822 39.5765C104.665 39.7163 104.316 39.5227 103.858 39.98C103.321 40.5133 102.61 41.7136 101.994 42.3659C102.151 42.9019 102.308 43.4378 102.465 43.9738C101.77 45.341 100.585 45.2066 99.9435 45.8067L97.292 49.3352L95.1432 45.6509C95.1819 45.6976 95.2135 45.731 95.237 45.7554C95.2628 45.7881 95.333 45.8561 95.2309 45.7699C95.1391 45.6954 94.9204 45.5415 94.6613 45.3897C94.1385 45.0787 93.4906 44.7885 93.4206 44.7673C92.2428 44.4485 92.2676 45.4106 88.9711 44.026C88.3699 43.7849 87.9677 43.3015 87.4038 43.1181C86.401 42.7708 83.1071 42.7348 82.7008 43.3872C82.1482 42.7608 80.875 42.3554 79.666 42.0661C78.7296 41.8356 77.8091 41.7177 77.3885 41.5425C77.1134 41.4281 77.1201 40.8467 76.2268 40.6322C75.4967 40.4499 73.5573 40.7856 72.6144 40.6967C71.6107 40.5919 71.2451 40.1187 70.786 40.0871C70.3517 40.0597 69.9596 40.4527 69.3719 40.4685C67.5383 40.5126 65.8118 40.0213 64.3333 40.1582C62.1945 40.3565 60.4694 41.7605 58.8216 42.553C58.3718 42.5535 57.9109 42.3849 57.4517 42.4667C54.3499 43.0179 50.9707 43.7144 47.8672 44.5953L43.5805 45.8507L42.797 41.6726C42.2798 38.8828 41.7844 36.1029 41.3272 33.467C40.8507 30.7274 40.9115 23.6458 38.7658 25.9958C38.118 25.1479 37.6579 18.0647 37.3914 16.7561C37.224 15.9346 36.8944 15.2598 36.6158 14.6178L44.6804 15.5069C44.5836 15.9102 44.4794 16.2935 44.3181 16.6491C43.0097 19.533 41.7711 21.4174 40.5237 25.0871C40.2027 26.0354 40.2561 27.2348 40.0032 27.7675C39.6975 28.4085 38.8935 28.8792 38.4773 29.7003C37.489 31.6595 35.9359 35.4437 34.9707 37.3154C34.7934 37.6566 34.3121 37.5831 33.9491 38.0207C32.5339 39.7239 31.5742 41.9221 33.1082 42.1627C31.1893 44.2972 30.8288 46.9247 29.8071 49.2519C29.7014 49.4924 29.5903 49.7419 29.4744 49.9997L28.7815 51.0943C24.8047 55.9522 17.7951 61.5143 15.9232 65.0143C14.6296 67.3145 15.1555 67.5531 12.8512 70.3715C12.3562 71.0149 11.8447 71.6539 11.318 72.4906C10.0902 74.4171 8.28284 76.3275 9.39255 78.4194C8.5057 80.9547 8.62672 83.1317 7.30142 85.1694C7.60171 85.4317 7.90434 85.6718 8.20855 85.9148C8.21379 86.2514 8.22242 86.5928 8.23453 86.9391C7.94422 87.0509 7.65428 87.1651 7.36472 87.2815C7.35576 88.0141 7.47267 88.7891 7.65675 89.6115C8.09473 91.5625 8.92125 93.3813 9.16672 94.7998C9.45353 98.2638 12.2423 106.066 14.2689 108.524C15.1956 109.922 15.7136 109.519 15.4954 111.12C15.8329 111.325 16.1763 111.525 16.5206 111.716C16.8872 111.669 17.2527 111.617 17.6154 111.559C19.2391 112.967 21.181 114.86 23.0799 116.047C26.2989 118.1 31.967 120.34 35.5578 123.35C35.7366 123.501 35.9074 123.65 36.0699 123.796C36.8301 124.485 37.5816 125.692 38.4227 126.223C39.6483 126.988 40.4571 126.367 41.9966 127.214C44.5881 128.758 49.3567 131.651 52.3826 132.048C53.254 132.192 53.7195 131.906 54.325 131.967C56.8837 132.211 59.0392 132.471 61.6349 132.174C64.2943 133.357 63.9499 134.514 64.7107 135.79C65.27 136.751 67.0929 139.022 67.3194 139.839C67.4737 140.413 66.6518 141.061 66.8823 141.697C63.4888 141.889 62.1387 141.231 59.4619 140.088C54.4105 139.585 49.0498 138.94 43.8366 136.985C43.4837 136.493 43.1534 135.999 42.8313 135.5C42.8316 135.499 42.8319 135.498 42.8322 135.498C41.1082 134.337 39.9706 134.698 38.8901 134.352C36.3944 133.538 33.5683 132.056 30.7156 130.186C22.9498 125.402 9.57392 117.943 5.42143 109.082C3.83198 106.9 0.722956 98.9086 1.14039 97.0492C1.1951 96.58 1.68277 96.3737 1.62485 95.9062C1.14507 93.9462 0.794587 92.0392 0.528487 90.0392C0.232743 87.8129 0.0439825 85.6091 -4.07696e-05 83.3339C1.07452 74.6871 3.96162 65.2372 9.89904 58.4929C14.0104 53.5894 18.6927 49.7231 22.0929 45.503L21.5586 46.3471C26.6773 34.8064 31.7948 23.3368 37.0173 11.9709L42.0606 0.644772L44.8652 12.8362C45.6408 16.3997 46.404 19.9615 47.1521 23.5226C48.0256 27.6842 49.5433 32.8769 50.178 36.9986C50.3622 38.1916 50.1018 38.9818 50.2875 40.0548L45.5132 37.3027C45.9992 37.1667 46.5669 36.9356 47.2177 36.551C47.304 36.7589 47.3901 36.9668 47.4761 37.1748C49.4107 36.3484 50.5782 35.5328 52.8477 34.9816C54.7443 34.491 59.8669 33.5936 61.6067 33.5013C62.5114 33.4351 62.2211 33.8897 63.0546 33.7952C64.4721 33.6241 67.5057 32.8054 69.5344 32.7674C71.3659 32.7021 74.4557 33.2678 75.8775 33.3292C77.63 33.3825 79.4624 33.4729 81.3566 33.7145C84.7488 34.1316 88.2766 34.7009 91.6822 35.9686C93.1168 36.4935 94.7832 37.7526 95.2419 37.9495C96.1433 38.317 96.6471 37.9818 97.3109 38.2503C97.8281 38.4652 98.3885 38.7439 99.0271 39.1548C99.3397 39.3573 99.6867 39.6012 100.07 39.9243C100.466 40.2868 100.876 40.554 101.597 41.6604L93.7619 41.406C95.2739 39.4068 97.1468 37.3029 98.3133 35.694C103.798 28.1288 109.352 19.9315 114.827 12.4082C115.495 11.4899 116.242 10.4501 117.039 9.33971L123.466 -5.53131e-05L124.888 11.3873C125.485 17.0633 126.262 24.2256 126.418 28.6129C126.46 29.7855 125.853 29.5377 125.959 30.5146C126.077 31.5977 126.528 32.1422 126.614 32.645C127.053 35.1886 127.829 39.9829 128.201 43.6872L125.169 40.138C127.084 40.73 128.099 41.2884 129.017 41.8284C129.636 42.2082 129.883 42.8463 130.242 43.0343C130.432 43.1353 130.991 43.0832 131.595 43.3938C136.778 46.1375 139.937 49.1311 143.579 53.408C146.252 56.6079 148.757 60.234 150.882 64.1737C154.325 70.4999 156.369 77.8857 156.391 84.8975C156.404 87.401 155.382 89.0447 155.375 89.3801C155.341 90.1315 155.918 90.6589 155.883 92.2213C155.822 97.4611 153.041 104.023 150.934 108.427C149.951 110.639 148.75 113.892 147.366 115.922C146.317 117.594 142.966 120.734 142.557 121.53C142.322 122.037 142.59 122.679 142.172 123.173ZM143.263 66.7429C144.33 66.488 142.027 64.2629 142.131 65.5403C142.155 65.8165 142.996 66.81 143.263 66.7429ZM49.5394 42.4031C49.6466 42.6814 49.7536 42.9598 49.8603 43.2383C50.2331 43.0072 50.5875 42.7848 50.9701 42.5584C50.6957 42.4449 50.4203 42.3329 50.1513 42.2202C49.9548 42.2781 49.738 42.3426 49.5394 42.4031ZM115.651 135.682C115.559 135.626 115.902 135.41 115.896 135.315C115.873 134.916 116.092 134.704 116.141 134.329C116.214 133.769 115.277 132.442 117.862 131.657C117.862 131.657 117.862 131.657 117.862 131.657C117.888 131.649 117.913 131.641 117.939 131.633C118.433 131.487 119.009 131.446 119.571 131.294C120.134 131.142 123.726 130.024 123.984 130.146C124.332 130.329 123.604 131.257 123.689 131.391C123.747 131.482 124.112 131.509 124.207 131.618C124.513 131.96 124.335 132.24 125.333 132.346C124.906 132.63 124.479 132.914 124.052 133.198C124.326 133.329 123.79 133.798 123.856 133.9C123.91 133.985 124.298 133.933 124.344 134.026C124.396 134.13 124.043 134.413 124.16 134.597C124.352 134.9 125.34 134.686 125.52 134.852C125.708 135.029 125.268 135.494 125.682 135.658C125.799 135.661 125.915 135.664 126.031 135.667C126.266 135.577 126.502 135.486 126.737 135.395C126.887 135.496 126.406 135.691 126.431 135.815C126.46 135.961 126.951 135.905 126.975 136.003C126.995 136.083 126.647 136.294 126.699 136.392C126.773 136.534 127.309 136.351 127.434 136.405C127.483 136.428 127.947 136.945 127.959 136.975C128.049 137.223 127.309 137.447 127.298 137.667C127.27 138.274 128.034 138.715 128.397 139.166C128.561 139.371 128.581 139.626 128.523 139.89C126.512 140.025 125.232 141.224 128.151 140.139C127.792 140.51 128.649 140.485 128.577 140.769C128.53 140.955 128.141 141.168 128.21 141.391C128.334 141.784 129.63 141.925 127.521 142.585C128.018 142.962 127.347 143.573 129.278 143.264C129.424 143.356 128.376 143.949 128.257 144.123C128.145 144.287 127.883 145.406 127.894 145.578C127.906 145.749 127.944 146.035 128.143 146.131C128.39 146.251 130.382 145.894 128.161 146.757C128.433 147.067 128.398 147.21 128.211 147.606C128.177 147.678 127.838 147.767 127.846 147.802C127.863 147.874 128.145 147.938 128.207 148.058C128.307 148.255 127.618 148.547 128.709 148.262C128.926 148.356 129.142 148.452 129.359 148.547C129.159 148.646 128.959 148.745 128.759 148.844C129.008 148.864 129.256 148.884 129.504 148.904C127.896 149.192 128.957 149.495 129.828 149.11C129.563 149.459 129.299 149.808 129.034 150.157C127.22 150.541 128.963 150.795 129.932 150.515C129.938 150.546 129.944 150.577 129.95 150.609C129.533 150.991 129.983 151.149 129.737 151.554C129.491 151.959 129.307 151.969 128.499 152.259C128.565 152.326 128.63 152.393 128.696 152.46C131.068 152.35 127.105 153.174 129.011 153.473C127.629 154.019 128.505 154.397 129.021 154.666C129.081 154.697 129.359 154.636 129.458 154.673C129.695 154.767 129.416 155.198 130.311 154.987C130.078 155.166 129.845 155.346 129.612 155.525C129.798 155.589 129.983 155.653 130.168 155.717C130.448 155.654 130.729 155.592 131.009 155.53C130.098 155.942 130.534 156.177 130.34 156.383C130.3 156.425 129.915 156.516 129.83 156.635C129.73 156.775 129.89 156.961 129.798 157.121C130.238 157.081 130.678 157.04 131.118 157C131.403 157.19 130.289 157.519 130.232 157.679C130.222 157.708 130.403 158.154 130.432 158.174C130.668 158.337 131.62 158.073 131.54 158.711C131.525 158.824 131.209 158.98 131.216 159.079C131.227 159.252 132.092 159.601 132.8 159.495C131.967 159.884 132.439 160.357 132.22 160.572C132.152 160.636 131.596 160.763 131.508 160.937C131.436 161.079 131.948 161.299 131.904 161.468C131.856 161.648 131.399 161.803 131.381 161.883C131.364 161.958 131.756 161.945 131.773 162.039C131.82 162.337 131.264 162.727 131.299 162.962C131.349 163.301 132.532 163.373 133.087 163.555C133.028 163.64 132.8 163.757 132.813 163.831C132.959 164.748 132.951 165.813 132.885 166.771C132.856 167.219 131.526 168.556 134.022 167.797C134.497 167.861 133.668 169.125 133.689 169.333C133.712 169.54 134.199 169.619 134.235 169.778C134.343 170.261 134.074 170.657 134.578 171.178C134.709 171.313 135.281 171.382 135.291 171.474C135.301 171.585 134.797 171.795 134.788 171.942C134.772 172.292 135.053 172.888 135.017 173.225C135.009 173.286 134.552 173.386 134.422 173.496C133.915 173.922 134.026 174.282 135.488 173.969C134.723 174.533 135.55 174.794 135.661 175.177C135.894 175.995 135.786 177.549 136.517 178.189C136.979 178.589 137.64 178.481 137.168 179.239C137.063 179.407 136.914 179.581 136.789 179.783C136.495 180.265 135.325 180.831 136.848 180.948C136.531 181.477 136.853 181.81 135.637 182.334C135.946 182.335 136.255 182.337 136.563 182.338C136.579 182.396 136.594 182.454 136.609 182.512C136.323 182.568 136.036 182.625 135.749 182.682C135.727 183.11 136.984 183.484 137.019 183.837C137.083 184.436 136.8 186.021 136.469 186.634C136.294 186.96 136.917 186.91 135.658 187.218C135.754 187.275 135.85 187.333 135.946 187.39C136.23 187.403 136.514 187.416 136.798 187.429C136.849 187.814 136.459 188.303 136.499 188.682C136.573 189.359 137.43 190.295 136.974 191.031C136.858 191.212 136.295 191.464 136.313 191.628C136.338 191.867 137.302 191.856 137.34 192.177C137.405 192.737 136.337 193.758 136.44 194.286C136.47 194.437 136.83 194.496 136.872 194.6C137.05 195.037 137.029 195.387 137.588 195.829C136.67 196.309 135.478 196.267 134.277 196.407C133.371 196.515 131.268 196.802 130.474 196.831C129.916 196.854 129.199 196.746 128.584 196.78C128.097 196.327 128.635 196.136 129.493 195.724C129.447 195.007 129.385 194.255 129.314 193.539C129.646 193.456 129.977 193.372 130.308 193.286C130.309 193.286 130.31 193.286 130.31 193.286C130.681 192.979 129.812 192.904 129.607 192.76C127.656 191.428 128.856 188.437 128.869 186.75C128.876 186.401 128.288 185.293 128.797 184.987C128.93 184.907 129.441 184.826 129.455 184.757C129.075 184.203 128.691 183.638 128.305 183.079C128.936 181.753 128.094 180.564 127.782 179.344C126.937 176.036 125.964 172.811 125.47 169.502C125.376 168.865 124.841 168.126 124.967 167.462C125.019 167.183 125.812 166.917 125.139 166.694C125.357 166.648 125.576 166.601 125.795 166.555C125.472 166.309 124.935 166.217 124.819 165.893C124.721 165.619 124.541 164.887 124.575 164.622C124.591 164.485 125.01 164.45 124.984 164.331C124.936 164.127 124.281 163.803 124.223 163.52C124.171 163.263 124.554 162.735 124.445 162.552C124.056 161.891 123.196 161.267 123.223 160.473C123.232 160.253 123.705 159.872 123.676 159.81C123.618 159.689 123.095 159.761 123.01 159.69C122.583 159.327 123.048 158.518 122.979 158.086C122.756 156.68 122.203 155.259 121.982 153.86C121.841 152.971 121.415 151.551 121.609 150.654C121.651 150.461 122.223 150.374 122.189 150.228C122.15 150.067 121.75 150.07 121.702 150.003C121.365 149.538 120.702 148.468 120.969 147.888C121.021 147.777 121.443 147.602 121.428 147.547C121.421 147.518 121.106 147.528 121.054 147.447C120.588 146.722 120.62 146.105 120.531 145.316C120.352 143.782 119.358 142.229 119.248 140.611C119.223 140.256 120.024 139.795 120.003 139.75C119.957 139.651 119.359 139.741 119.16 139.571C118.505 139.019 118.859 137.885 118.389 137.323C118.155 137.039 117.292 136.789 117.04 136.519C116.837 136.299 116.958 135.633 116.601 135.607C116.386 135.593 115.753 135.742 115.651 135.682ZM127.786 141.755C126.767 141.966 127.73 142.245 128.223 141.922C128.334 141.849 128.05 141.7 127.786 141.755ZM131.267 165.398C131.557 165.336 131.848 165.274 132.138 165.213C132.004 165.171 131.87 165.129 131.736 165.087C131.568 165.159 131.4 165.23 131.232 165.301C131.244 165.333 131.255 165.365 131.267 165.398ZM178.801 126.684C178.977 126.612 179.221 127.004 179.424 127.029C180.287 127.141 180.581 127.429 181.331 127.643C182.431 127.906 185.867 128.05 185.205 130.709C185.205 130.709 185.205 130.709 185.205 130.709C185.198 130.735 185.192 130.761 185.185 130.787C185.053 131.285 184.676 131.774 184.513 132.335C184.351 132.896 183.538 136.567 183.217 136.715C182.765 136.896 181.928 135.782 181.681 135.798C181.521 135.807 181.29 136.123 181.09 136.162C180.44 136.292 180.114 136.021 179.523 136.926C179.319 136.429 179.101 135.935 178.869 135.445C178.568 135.669 178.089 135.035 177.896 135.079C177.741 135.115 177.669 135.506 177.513 135.532C177.338 135.565 177.035 135.166 176.708 135.259C176.175 135.413 176.205 136.43 175.923 136.596C175.63 136.769 175.045 136.307 174.712 136.734C174.684 136.853 174.655 136.972 174.628 137.091C174.713 137.33 174.797 137.569 174.879 137.809C174.712 137.961 174.525 137.475 174.344 137.505C174.131 137.54 174.138 138.041 174.002 138.071C173.891 138.096 173.643 137.755 173.5 137.819C173.294 137.909 173.491 138.442 173.409 138.574C173.37 138.623 172.665 139.167 172.624 139.191C172.295 139.326 172.006 138.609 171.705 138.648C170.861 138.767 170.343 139.691 169.829 140.231C169.592 140.476 169.285 140.598 168.95 140.655C168.4 138.675 166.537 138.006 168.562 140.398C168.013 140.22 168.261 141.059 167.911 141.132C167.682 141.181 167.304 140.923 167.061 141.123C166.609 141.499 167.023 142.769 165.405 141.261C165.185 141.989 164.196 141.896 165.523 143.338C165.523 143.517 164.374 143.088 164.134 143.145C163.903 143.168 162.736 144.002 162.628 144.197C162.502 144.368 162.31 144.704 162.404 144.928C162.505 145.241 164.378 145.981 162.025 145.587C162.084 146.062 161.991 146.169 161.653 146.519C161.593 146.583 161.245 146.542 161.239 146.587C161.226 146.68 161.465 146.862 161.486 147.016C161.52 147.264 160.785 147.407 161.912 147.389C162.099 147.545 162.293 147.684 162.492 147.804C162.278 147.867 162.066 147.937 161.855 148.013C162.1 148.07 162.345 148.116 162.59 148.151C160.958 148.302 162.018 148.734 162.896 148.346C162.616 148.654 162.367 149.014 162.164 149.424C160.411 150.06 162.274 150.204 163.127 149.633C163.14 149.662 163.154 149.692 163.168 149.721C162.879 150.221 163.361 150.242 163.326 150.754C163.301 151.269 163.148 151.357 162.581 152.01C162.691 152.066 162.803 152.12 162.916 152.174C162.938 152.162 162.96 152.151 162.981 152.14C165.122 151.265 162.076 153.756 164.264 153.617C163.398 154.875 164.621 155.182 165.395 155.488C165.484 155.522 165.715 155.355 165.849 155.391C166.178 155.48 166.268 156.245 167.009 155.701C166.928 156.05 166.84 156.394 166.75 156.736C166.995 156.801 167.241 156.869 167.487 156.939C167.726 156.781 167.966 156.623 168.206 156.465C167.604 157.331 168.243 157.64 168.203 158.023C168.194 158.099 167.863 158.317 167.866 158.531C167.868 158.782 168.173 159.066 168.194 159.35C168.624 159.216 169.055 159.085 169.487 158.957C169.928 159.253 168.994 159.96 169.043 160.238C169.054 160.287 169.544 161.035 169.586 161.068C169.937 161.33 170.777 160.781 171.092 161.927C171.147 162.131 170.907 162.426 170.972 162.6C171.087 162.904 172.192 163.509 172.884 163.315C172.22 164.037 172.954 164.91 172.821 165.306C172.78 165.425 172.253 165.642 172.237 165.957C172.224 166.21 172.855 166.643 172.876 166.957C172.896 167.29 172.472 167.542 172.482 167.688C172.492 167.825 172.898 167.832 172.949 168.01C173.101 168.572 172.635 169.236 172.734 169.674C172.874 170.304 174.117 170.618 174.729 171.086C174.684 171.24 174.469 171.423 174.494 171.569C174.801 173.377 174.809 175.489 174.569 177.343C174.485 178.233 172.779 180.21 175.403 179.855C175.854 180.219 174.519 182.355 174.399 182.746C174.303 183.16 174.683 183.594 174.61 183.932C174.381 184.952 173.867 185.543 173.812 186.875C173.798 187.218 174.176 187.757 174.092 187.942C173.991 188.165 173.399 188.193 173.244 188.456C172.883 189.092 172.406 190.382 171.955 190.94C171.873 191.042 171.45 190.838 171.233 190.912C170.389 191.198 169.996 191.84 171.297 192.586C170.086 192.84 170.192 193.958 169.667 194.641C169.538 194.809 169.388 194.987 169.221 195.172C168.111 196.43 166.203 197.986 165.577 199.236C165.135 200.129 165.565 200.658 164.111 201.053C163.791 201.136 163.432 201.187 163.042 201.28C162.117 201.502 160.797 200.889 161.022 202.503C159.987 202.688 159.41 203.316 158.195 202.506C158.261 202.815 158.323 203.127 158.381 203.44C158.275 203.501 158.169 203.562 158.063 203.622C157.902 203.375 157.741 203.129 157.582 202.882C156.809 203.169 156.258 204.697 155.523 204.951C154.338 205.425 151.018 205.74 149.806 205.433C149.168 205.298 149.179 205.92 148.725 204.67C148.598 204.769 148.469 204.868 148.339 204.966C148.271 205.252 148.2 205.538 148.126 205.823C147.311 205.878 146.359 205.438 145.61 205.401C144.257 205.358 142.044 205.805 140.816 204.965C140.51 204.759 140.253 204.09 139.939 204.006C139.485 203.882 139.09 204.77 138.488 204.591C137.437 204.285 136.077 202.51 135.202 202.166C134.937 202.065 134.658 202.326 134.463 202.27C133.644 202.038 133.064 201.685 132.097 201.758C131.828 200.524 132.533 199.552 132.958 198.403C133.276 197.533 133.966 195.478 134.349 194.778C134.615 194.285 135.164 193.787 135.443 193.235C136.38 193.259 136.356 193.875 136.495 194.955C137.569 195.532 138.663 196.035 139.771 196.445C139.745 196.796 139.723 197.148 139.706 197.501C139.706 197.501 139.705 197.502 139.705 197.503C140.011 198.035 140.5 197.291 140.792 197.184C143.533 196.259 147.318 198.134 149.934 197.761C150.485 197.727 152.007 196.834 152.528 197.205C152.666 197.307 152.866 197.785 152.974 197.769C153.764 197.154 154.493 196.485 155.167 195.779C157.265 195.574 158.623 193.79 160.037 192.379C161.002 191.422 161.91 190.395 162.779 189.316C165.121 186.372 166.29 182.973 166.7 179.303C166.813 178.348 166.435 177.139 166.623 176.181C166.701 175.783 167.515 175.532 166.845 175.061C167.066 175.032 167.288 175.002 167.51 174.973C167.189 174.525 166.646 174.296 166.514 173.79C166.409 173.36 166.148 172.219 166.134 171.817C166.128 171.608 166.552 171.584 166.504 171.396C166.419 171.071 165.678 170.541 165.547 170.112C165.432 169.721 165.671 168.907 165.497 168.623C164.879 167.604 163.752 166.734 163.406 165.56C163.313 165.234 163.604 164.602 163.541 164.512C163.418 164.338 162.921 164.523 162.798 164.431C162.177 163.968 162.187 162.712 161.84 162.099C160.767 160.177 159.212 158.426 157.825 156.78C157.748 156.691 157.673 156.601 157.599 156.51C156.162 154.953 154.302 151.331 154.554 149.067C154.584 148.596 155.172 148.663 155.143 148.297C155.115 147.895 154.725 147.68 154.692 147.482C154.373 146.128 154.68 143.018 155.589 142.08C155.749 141.896 156.229 141.931 156.282 141.811C156.31 141.751 156.095 141.481 156.163 141.272C156.768 139.455 157.727 138.437 158.951 137.21C161.284 134.878 164.072 132.297 167.268 131.241C167.958 131.011 168.742 131.67 168.827 131.627C169.018 131.535 168.933 130.922 169.305 130.633C170.56 129.661 172.676 129.785 173.998 129.269C174.658 129.005 175.524 128.125 176.231 127.898C176.791 127.706 178.143 127.952 178.392 127.621C178.542 127.416 178.611 126.766 178.801 126.684ZM166.484 140.94C165.88 140.087 165.875 141.217 166.443 141.469C166.567 141.528 166.637 141.162 166.484 140.94ZM173.052 174.21C173.346 174.168 173.64 174.126 173.934 174.083C173.796 173.968 173.658 173.854 173.519 173.742C173.351 173.836 173.183 173.929 173.014 174.021C173.027 174.084 173.039 174.147 173.052 174.21ZM36.469 80.9992C36.5265 80.9537 36.1733 81.118 36.1485 81.1152C36.0375 81.1 35.7906 81.2119 35.6233 81.2328C35.4319 81.3177 35.3935 80.487 33.4985 82.432C33.4984 82.432 33.4984 82.432 33.4984 82.432C33.4796 82.4508 33.4607 82.4698 33.4415 82.489C33.08 82.8559 32.6806 83.2516 32.2569 83.6513C31.8331 84.0508 29.1316 86.6701 28.8833 86.7133C28.5369 86.7533 29.0401 85.8296 28.9832 85.8173C28.9306 85.7948 28.6138 85.9386 28.5249 85.915C28.2384 85.8371 28.3986 85.6174 27.4986 85.9127C27.8876 85.6054 28.2858 85.3121 28.6917 85.0316C28.4508 85.0608 28.9772 84.6672 28.9277 84.645C28.8858 84.6247 28.5264 84.7696 28.4938 84.7415C28.4552 84.7105 28.8116 84.4838 28.7257 84.4422C28.5868 84.3729 27.6409 84.7257 27.4903 84.6929C27.3323 84.6527 27.8076 84.3558 27.4397 84.3796C27.3307 84.4043 27.2215 84.4285 27.1122 84.4523C26.8777 84.5429 26.6435 84.6342 26.4095 84.7262C26.2802 84.7103 26.7598 84.5214 26.7531 84.472C26.7456 84.4138 26.2722 84.536 26.2617 84.4959C26.2535 84.4629 26.6136 84.3033 26.5781 84.2714C26.5286 84.2252 25.9919 84.4024 25.8812 84.4016C25.8379 84.4023 25.4714 84.2571 25.4637 84.2439C25.4144 84.1488 26.1594 83.9399 26.2054 83.8489C26.3295 83.5938 25.6785 83.5534 25.406 83.4094C25.2849 83.3486 25.3099 83.2466 25.4164 83.1467C27.3804 82.8749 28.8457 82.34 25.822 83.0188C26.2387 82.8522 25.4056 82.9462 25.5298 82.8377C25.6112 82.7682 26.0281 82.659 26.0047 82.5881C25.9606 82.4637 24.7323 82.5072 26.9094 82.1444C26.5034 82.0603 27.2809 81.8356 25.3426 82.0375C25.2192 82.0127 26.3579 81.7685 26.51 81.7129C26.652 81.6557 27.141 81.3175 27.1661 81.2708C27.1905 81.2224 27.2143 81.1402 27.0405 81.1183C26.8258 81.0945 24.8101 81.2381 27.1555 80.9442C26.9567 80.8644 27.0211 80.8224 27.2877 80.7116C27.3359 80.6915 27.6854 80.6629 27.685 80.6536C27.6835 80.6345 27.4226 80.6211 27.3886 80.5885C27.3328 80.5346 28.0668 80.4515 26.9428 80.5354C26.7517 80.5111 26.5607 80.4859 26.3696 80.4597C26.5859 80.4324 26.8021 80.4054 27.0184 80.3787C26.7806 80.3736 26.5427 80.3679 26.3048 80.3616C27.9342 80.2872 26.9653 80.2049 26.0336 80.3033C26.3662 80.2088 26.6992 80.117 27.0327 80.028C28.8845 79.948 27.2392 79.8632 26.2329 79.9181C26.234 79.9097 26.2351 79.9012 26.2362 79.8928C26.7254 79.7996 26.3201 79.7488 26.6476 79.6484C26.9751 79.5494 27.1559 79.5522 28.0073 79.5004C27.9579 79.482 27.9085 79.4636 27.8591 79.445C25.5197 79.3998 29.5655 79.3174 27.7695 79.1835C29.2372 79.1 28.4636 78.9821 28.0174 78.8924C27.9656 78.8821 27.6804 78.8845 27.5924 78.8707C27.3806 78.8368 27.7467 78.7443 26.827 78.7513C27.093 78.7178 27.359 78.6865 27.625 78.6552C27.4578 78.6303 27.2905 78.605 27.1233 78.5793C26.8362 78.5791 26.5491 78.579 26.262 78.5789C27.2405 78.5274 26.8648 78.4462 27.099 78.407C27.1465 78.3993 27.5425 78.4 27.6507 78.3765C27.7792 78.349 27.6624 78.295 27.7865 78.2623C27.348 78.2445 26.9094 78.2262 26.4709 78.2073C26.2337 78.1411 27.392 78.1344 27.4824 78.1009C27.4981 78.0949 27.4169 77.9769 27.3924 77.9701C27.1975 77.9149 26.2106 77.9095 26.4255 77.7604C26.4644 77.7339 26.8062 77.7206 26.8205 77.6965C26.8463 77.6547 26.0763 77.5012 25.3617 77.4673C26.2582 77.4412 25.8973 77.2885 26.1574 77.2559C26.2374 77.2462 26.8074 77.2647 26.9302 77.2316C27.0302 77.205 26.5771 77.1072 26.6552 77.0708C26.7401 77.0326 27.2194 77.0389 27.2541 77.0221C27.2863 77.0061 26.9007 76.9727 26.904 76.9488C26.9209 76.8742 27.5459 76.8382 27.5603 76.7815C27.5825 76.6997 26.4431 76.5642 25.9396 76.4622C26.0148 76.4484 26.2611 76.4449 26.2645 76.4263C26.3138 76.1958 26.5417 75.9497 26.8034 75.7396C26.9237 75.6394 28.4939 75.5073 25.9035 75.3645C25.4538 75.2884 26.5191 75.1045 26.5395 75.0567C26.5596 75.0071 26.1003 74.924 26.0972 74.8824C26.0886 74.7572 26.4303 74.7047 26.0424 74.5154C25.941 74.4663 25.3972 74.3684 25.406 74.3458C25.4179 74.3188 25.9509 74.3444 25.9883 74.3125C26.0733 74.2359 25.9165 74.0576 26.0174 73.9863C26.0369 73.9734 26.5024 74.0209 26.6501 74.0165C27.227 73.9997 27.1883 73.905 25.703 73.7462C26.5576 73.7398 25.8013 73.5504 25.7668 73.4441C25.6967 73.2205 26.0929 72.889 25.4981 72.6163C25.1227 72.4446 24.4595 72.3488 25.0569 72.2609C25.1895 72.2412 25.3663 72.2282 25.5246 72.2047C25.8973 72.1481 27.1348 72.2454 25.6748 71.9301C26.0757 71.8719 25.8207 71.7322 27.0936 71.8529C26.7936 71.7923 26.4936 71.7315 26.1936 71.6704C26.1886 71.6544 26.1836 71.6385 26.1787 71.6225C26.4671 71.6664 26.7556 71.7105 27.044 71.7546C27.1386 71.666 25.98 71.3293 26.0047 71.2407C26.0443 71.0922 26.5754 70.7873 26.9893 70.7263C27.2093 70.6916 26.5976 70.5641 27.8654 70.7745C27.7811 70.7405 27.6969 70.7063 27.6126 70.672C27.3391 70.6058 27.0656 70.5393 26.7922 70.4726C26.801 70.3726 27.2524 70.3482 27.2672 70.2578C27.2939 70.0887 26.5963 69.6616 27.1321 69.6049C27.2674 69.5898 27.8444 69.6704 27.848 69.6276C27.8538 69.5653 26.9223 69.3224 26.9245 69.2382C26.9296 69.0945 28.0792 69.1156 28.0303 68.9709C28.0166 68.927 27.6761 68.8147 27.6465 68.7781C27.5181 68.6262 27.5742 68.5354 27.0761 68.2671C27.9969 68.4056 29.1333 68.7617 30.2932 69.0762C31.1691 69.3119 33.1969 69.8663 33.9569 70.0967C34.4912 70.2572 35.1712 70.4876 35.7599 70.6623C36.206 70.8803 35.6813 70.7508 34.8307 70.5819C34.8238 70.7294 34.8225 70.8651 34.8184 71.0186C34.4905 70.9477 34.1622 70.8786 33.8341 70.8085C33.8334 70.8083 33.8327 70.8082 33.832 70.808C33.4427 70.7692 34.2736 71.0048 34.4565 71.0812C36.2071 71.8085 34.6593 72.0166 34.3843 72.3338C34.3261 72.3973 34.7266 72.7162 34.1821 72.6699C34.0402 72.6578 33.5307 72.5709 33.506 72.581C33.7864 72.7605 34.0678 72.938 34.3503 73.1137C33.5156 73.2391 34.1284 73.6196 34.2148 73.893C34.4469 74.6478 34.7756 75.381 34.5955 76.0572C34.5597 76.189 34.9331 76.3856 34.675 76.4968C34.568 76.5432 33.7382 76.5106 34.3507 76.6236C34.1275 76.6096 33.9043 76.5957 33.6811 76.5818C33.9463 76.6633 34.4516 76.7352 34.499 76.8079C34.538 76.8694 34.5624 77.0257 34.4744 77.0728C34.4304 77.0973 34.0136 77.0655 34.0144 77.0909C34.0188 77.1351 34.5914 77.2547 34.5887 77.3132C34.5863 77.366 34.1016 77.436 34.1696 77.4804C34.411 77.64 35.1191 77.8189 34.9242 77.9664C34.8691 78.007 34.3263 78.0502 34.3411 78.0642C34.3721 78.0912 34.8981 78.109 34.9655 78.1274C35.3057 78.2194 34.6786 78.3475 34.6532 78.4347C34.5703 78.7151 34.8029 79.0067 34.7141 79.2776C34.658 79.4516 34.7629 79.7217 34.3775 79.898C34.2942 79.9361 33.7182 79.9636 33.72 79.9922C33.7222 80.0241 34.112 80.0149 34.1444 80.0269C34.3711 80.1165 34.7806 80.292 34.3927 80.4152C34.3183 80.4395 33.8699 80.4964 33.8726 80.507C33.8731 80.5125 34.1811 80.4943 34.2141 80.5075C34.5066 80.6249 34.3386 80.7364 34.252 80.8882C34.0887 81.1783 34.7007 81.3446 34.444 81.6027C34.3877 81.6575 33.5299 81.91 33.5408 81.9161C33.5623 81.9274 34.1465 81.7857 34.2965 81.7716C34.7871 81.7184 34.2027 81.9951 34.5042 81.9421C34.6527 81.9162 35.3682 81.649 35.5175 81.5685C35.6385 81.508 35.3535 81.6045 35.6476 81.444C35.8258 81.3479 36.4035 81.0497 36.469 80.9992ZM26.4869 82.4292C27.5148 82.2753 26.6388 82.267 26.0964 82.4086C25.9742 82.4406 26.22 82.469 26.4869 82.4292ZM28.0998 76.2351C27.8035 76.2168 27.5072 76.1986 27.2108 76.1804C27.333 76.2048 27.4553 76.229 27.5775 76.2531C27.7562 76.2554 27.9349 76.2578 28.1136 76.2604C28.109 76.252 28.1044 76.2435 28.0998 76.2351ZM61.1706 82.0205C61.2299 81.9798 60.9039 82.1922 60.887 82.2038C60.811 82.252 60.589 82.4053 60.4673 82.4981C60.2948 82.6464 60.6797 82.3106 58.6404 84.0852C58.6404 84.0853 58.6403 84.0853 58.6403 84.0853C58.6202 84.1026 58.5998 84.12 58.5792 84.1376C58.1884 84.4731 57.7485 84.8237 57.3008 85.1963C56.8529 85.569 53.9859 88.0044 53.7767 88.0838C53.4927 88.1794 54.1031 87.3954 54.0445 87.3876C54.001 87.3791 53.7021 87.5506 53.6262 87.5499C53.3802 87.5454 53.5459 87.3465 52.6994 87.7539C53.0725 87.4319 53.451 87.1168 53.8344 86.8088C53.6083 86.8778 54.1025 86.4513 54.0545 86.4411C54.0141 86.4314 53.6747 86.6185 53.6422 86.5996C53.6036 86.579 53.9342 86.318 53.8484 86.2956C53.7094 86.2576 52.8196 86.7347 52.672 86.7331C52.5185 86.7297 52.9498 86.3728 52.5927 86.4551C52.4886 86.4956 52.3843 86.5357 52.2799 86.5755C52.06 86.6973 51.8404 86.8197 51.6212 86.9427C51.4931 86.9492 51.9423 86.6966 51.9305 86.6521C51.9168 86.5994 51.4664 86.7894 51.4516 86.754C51.4399 86.7247 51.7751 86.5184 51.7366 86.4945C51.6822 86.4581 51.1756 86.7086 51.0661 86.7241C51.0235 86.7313 50.6402 86.64 50.6307 86.6278C50.5683 86.5403 51.2767 86.2292 51.3097 86.1333C51.4 85.8712 50.7414 85.9 50.4495 85.7852C50.3199 85.7364 50.3315 85.6319 50.4211 85.5096C52.337 84.9974 53.7183 84.2677 50.8059 85.3271C51.1961 85.1028 50.3796 85.2942 50.4874 85.1636C50.5584 85.0803 50.9584 84.9192 50.9256 84.8468C50.8664 84.7257 49.6441 84.8809 51.7688 84.283C51.3528 84.2305 52.1024 83.9222 50.1923 84.3093C50.066 84.2925 51.1743 83.9326 51.3197 83.8592C51.4543 83.7838 51.9075 83.3827 51.929 83.3328C51.9487 83.2793 51.9656 83.193 51.7903 83.1823C51.5742 83.1731 49.5728 83.4549 51.8902 82.9879C51.6853 82.9154 51.7462 82.8656 52.0045 82.733C52.0513 82.709 52.3983 82.6586 52.3973 82.6489C52.3946 82.6293 52.1331 82.63 52.097 82.5983C52.0378 82.5454 52.7659 82.4205 51.6485 82.5676C51.4559 82.5512 51.2634 82.5332 51.0709 82.5137C51.2852 82.4738 51.4996 82.4346 51.7142 82.396C51.4762 82.4017 51.2382 82.4063 51.0001 82.41C52.6239 82.2567 51.6515 82.2137 50.7257 82.3583C51.0527 82.2414 51.3809 82.129 51.7103 82.0239C53.5573 81.8703 51.9099 81.8474 50.9061 81.9357C50.9068 81.9265 50.9076 81.9173 50.9084 81.9081C51.3936 81.7923 50.9865 81.7497 51.3106 81.6337C51.635 81.52 51.8159 81.5189 52.6656 81.4448C52.6158 81.4272 52.5659 81.4096 52.5161 81.392C50.1761 81.3943 54.2192 81.2311 52.4212 81.1263C53.8873 81.0188 53.1124 80.9145 52.6656 80.8259C52.6137 80.816 52.3286 80.8204 52.2404 80.807C52.0284 80.7736 52.394 80.6784 51.4744 80.6886C51.7402 80.6534 52.0062 80.6196 52.2722 80.5873C52.1049 80.5619 51.9376 80.5357 51.7705 80.5089C51.4833 80.5085 51.1962 80.5081 50.9091 80.5077C51.8877 80.4544 51.5123 80.3701 51.7467 80.3303C51.7943 80.3226 52.1903 80.3253 52.2986 80.3019C52.4272 80.2748 52.3109 80.2196 52.4353 80.1877C51.9969 80.1659 51.5586 80.1432 51.1203 80.1196C50.8838 80.0482 52.0421 80.0547 52.133 80.0216C52.1487 80.0156 52.0693 79.8939 52.0449 79.8865C51.851 79.8273 50.8642 79.8053 51.0821 79.654C51.1216 79.6274 51.4636 79.6205 51.4785 79.5964C51.5051 79.5546 50.7391 79.38 50.0257 79.3269C50.9227 79.321 50.5664 79.1534 50.8277 79.1267C50.9079 79.1191 51.4771 79.1545 51.6008 79.1245C51.7017 79.1005 51.2521 78.987 51.3314 78.9525C51.4176 78.9164 51.8964 78.9392 51.9317 78.9235C51.9644 78.9087 51.5802 78.8614 51.5844 78.8374C51.6041 78.7627 52.2301 78.7497 52.2467 78.6938C52.2721 78.6133 51.1393 78.4305 50.6409 78.3049C50.7167 78.2939 50.963 78.3009 50.9672 78.2822C51.0269 78.0511 51.2672 77.8133 51.5399 77.6188C51.6654 77.5243 53.2401 77.4878 50.6625 77.1939C50.218 77.0909 51.2924 76.9709 51.3156 76.926C51.3386 76.8783 50.8853 76.767 50.8849 76.7258C50.884 76.6013 51.2282 76.572 50.8533 76.3597C50.7552 76.3046 50.2191 76.1711 50.2294 76.1494C50.243 76.1235 50.773 76.1852 50.8124 76.1566C50.902 76.0876 50.7573 75.9019 50.8626 75.8398C50.8829 75.8286 51.3439 75.9085 51.4914 75.915C52.0677 75.9409 52.0352 75.847 50.5649 75.583C51.4172 75.6401 50.6759 75.4 50.6484 75.2947C50.5932 75.0737 51.0097 74.7857 50.4341 74.4809C50.071 74.2881 49.4163 74.1449 50.017 74.1078C50.1502 74.0998 50.3269 74.1023 50.4858 74.0933C50.86 74.0712 52.0858 74.2635 50.6509 73.85C51.0534 73.8274 50.8077 73.6749 52.0671 73.8927C51.7719 73.812 51.4767 73.7311 51.1815 73.6501C51.1774 73.635 51.1732 73.6199 51.1691 73.6049C51.4537 73.6692 51.7383 73.7337 52.0228 73.7982C52.1213 73.7248 50.9862 73.3191 51.0151 73.239C51.0618 73.1057 51.601 72.8763 52.0144 72.8522C52.2337 72.8395 51.6303 72.6774 52.8824 72.9661C52.7998 72.9291 52.7171 72.892 52.6345 72.8549C52.3648 72.7744 52.0952 72.6937 51.8257 72.6129C51.8375 72.5238 52.2864 72.5357 52.3033 72.4556C52.3324 72.3123 51.6465 71.8852 52.1758 71.8783C52.3094 71.8764 52.8802 71.9883 52.884 71.9502C52.8896 71.8962 51.9659 71.6255 51.9668 71.5551C51.9701 71.4345 53.1041 71.5327 53.0513 71.4058C53.0361 71.3684 52.6956 71.2565 52.6648 71.2251C52.5314 71.0936 52.5806 71.0273 52.0727 70.7905C52.9855 70.953 54.1279 71.2884 55.2908 71.5908C56.1686 71.819 58.2069 72.3336 58.9729 72.543C59.5111 72.6901 60.1946 72.9104 60.7875 73.0704C61.2294 73.309 60.6977 73.2048 59.8423 73.0543C59.8294 73.2249 59.8197 73.3852 59.8085 73.5522C59.4819 73.4752 59.1553 73.3984 58.8287 73.3218C58.8279 73.3216 58.8272 73.3214 58.8265 73.3212C58.4374 73.2759 59.2615 73.5344 59.4413 73.619C61.1625 74.4288 59.5888 74.6213 59.2996 74.9001C59.2368 74.9629 59.6181 75.2979 59.0777 75.2155C58.937 75.1938 58.4345 75.0727 58.4093 75.081C58.6771 75.278 58.9472 75.468 59.2179 75.6579C58.3777 75.7185 58.9655 76.1236 59.0346 76.389C59.2197 77.1178 59.5069 77.8093 59.2993 78.3921C59.258 78.5066 59.6229 78.7016 59.3615 78.782C59.2532 78.8153 58.4263 78.7387 59.0335 78.873C58.8113 78.848 58.5891 78.823 58.3668 78.798C58.6285 78.8853 59.1304 78.976 59.1755 79.0411C59.2124 79.0963 59.2322 79.2311 59.1431 79.2671C59.0985 79.286 58.6832 79.2388 58.6833 79.2609C58.6864 79.2998 59.2551 79.4284 59.2512 79.4768C59.2476 79.5208 58.7618 79.5607 58.8289 79.6013C59.0665 79.7477 59.7714 79.9161 59.5751 80.0287C59.5195 80.0599 58.9764 80.0839 58.9911 80.096C59.0217 80.1191 59.5475 80.1439 59.6147 80.1599C59.954 80.2401 59.3263 80.3307 59.3006 80.4015C59.2167 80.6286 59.4507 80.8531 59.365 81.0588C59.311 81.1953 59.4197 81.3861 59.0395 81.5431C58.9573 81.5773 58.3837 81.6367 58.3864 81.6592C58.3895 81.6845 58.7778 81.6503 58.8103 81.6571C59.0386 81.7092 59.4496 81.7962 59.0682 81.9243C58.9949 81.9493 58.5516 82.0369 58.5546 82.0448C58.5554 82.0489 58.8605 82.0034 58.8936 82.0094C59.187 82.0627 59.0244 82.1629 58.944 82.283C58.7956 82.5242 59.3985 82.5331 59.16 82.7736C59.1082 82.8264 58.2914 83.1897 58.3026 83.1932C58.3244 83.1989 58.8822 82.9748 59.0267 82.9349C59.4986 82.7982 58.9539 83.1447 59.2505 83.0609C59.3962 83.0187 60.0759 82.6704 60.2253 82.5913C60.3451 82.529 60.1013 82.7036 60.3855 82.5262C60.557 82.4186 61.1033 82.0663 61.1706 82.0205ZM51.3851 84.6294C52.3891 84.361 51.5151 84.4418 50.9931 84.6472C50.8758 84.6946 51.1246 84.6997 51.3851 84.6294ZM52.8093 78.1771C52.5143 78.1443 52.2192 78.1117 51.9241 78.079C52.045 78.1093 52.1659 78.1394 52.2868 78.1692C52.4652 78.1802 52.6436 78.1913 52.8219 78.2027C52.8177 78.1941 52.8135 78.1856 52.8093 78.1771Z" fill="white"/>
</svg>
