<svg width="614" height="570" viewBox="0 0 614 570" fill="none" xmlns="http://www.w3.org/2000/svg">
<path d="M389.712 567.167L417.212 492.021H5.21176V5.16736H607.212V492.021H475.086L389.712 567.167Z" fill="#282A36"/>
<path d="M303.769 486.03C306.526 485.958 310.418 486.347 313.671 486.367C327.297 486.457 332.347 486.727 344.676 486.88C362.956 487.107 417.211 486.596 417.212 489.299C417.212 489.299 417.212 489.299 417.212 489.299C417.212 489.326 417.207 489.353 417.196 489.38C417.006 489.895 412.391 490.457 411.706 491.039C411.023 491.622 411.535 495.384 404.981 495.595C395.478 495.874 372.682 494.909 367.613 494.952C364.148 494.981 359.882 495.323 355.452 495.384C341.166 495.58 333.691 495.33 320.82 496.259C315.672 495.769 310.523 495.28 305.375 494.79C298.658 495.017 288.477 494.372 284.396 494.407C281.049 494.436 279.086 494.823 275.597 494.841C271.684 494.864 265.673 494.446 258.555 494.509C246.885 494.61 244.808 495.62 237.806 495.748C230.545 495.881 219.252 495.332 209.987 495.687C208.825 495.798 207.663 495.91 206.501 496.021C207.334 496.272 208.166 496.523 208.999 496.774C204.332 496.891 202.325 496.376 198.037 496.367C192.992 496.356 190.418 496.844 187.023 496.842C184.242 496.839 180.471 496.448 176.865 496.473C171.607 496.506 172.757 497.071 169.928 497.177C168.799 497.218 147.929 497.53 146.751 497.535C137.797 497.557 137.017 496.783 129.877 496.716C110.073 496.531 89.7432 497.156 71.4244 497.392C63.2446 497.498 54.7098 497.453 46.5537 497.329C59.4002 495.35 30.9701 493.809 41.6025 496.907C32.528 496.466 26.0936 497.302 17.4908 497.161C13.2586 497.091 10.0175 496.826 5.21176 496.708L0.500832 496.683L0.525014 492.021C0.562155 490.509 0.584713 488.841 0.58202 486.94C0.559323 472.842 -0.661573 457.422 1.54516 453.367C1.15614 436.818 1.95661 422.484 0.008533 416.52C-0.110474 412.252 1.04988 401.316 1.20751 396.53C1.35599 392.003 1.87993 357.271 1.90917 351.59C1.93841 345.908 1.97022 335.961 1.79931 331.176C1.58784 325.164 -0.432464 320.963 1.92968 310.259C1.73853 297.814 1.80613 293.38 2.08056 281.805C2.13018 279.709 2.48088 279.472 2.48119 278.248C2.48119 275.726 2.22203 271.436 2.19042 266.934C2.13868 259.531 2.87658 255.306 1.7495 256.131C1.56054 251.251 1.37157 246.37 1.18261 241.489C1.40014 239.777 1.61767 238.065 1.8352 236.353C1.59814 233.743 1.36107 231.134 1.12401 228.525C2.75497 231.589 1.79251 213.224 0.856679 219.187C1.19408 209.726 1.53149 200.265 1.86889 190.804C3.72252 192.124 2.0828 170.03 1.07494 171.89C1.07641 170.808 1.07787 169.725 1.07934 168.642C1.57201 159.165 1.16905 150.461 1.49975 138.909C1.83043 127.357 2.01092 128.442 2.86352 124.929C2.81469 122.211 2.76586 119.492 2.71704 116.774C0.37965 102.51 4.42652 105.031 2.63354 80.6065C4.10257 72.8028 3.33093 53.5664 2.88549 40.8117C2.83376 39.3276 2.54861 39.3021 2.46069 37.3255C2.24924 32.4929 2.61579 20.1616 1.69604 20.5833C1.96215 16.3146 2.22826 12.0459 2.49438 7.77723C2.45268 6.90727 2.41098 6.03731 2.36928 5.16736L2.3841 2.31021L5.21176 2.32488C7.83095 2.19934 10.4499 2.0738 13.0691 1.94827C13.0515 1.66115 13.0338 1.37405 13.0161 1.08694C20.0419 2.06546 31.0817 1.6894 36.5277 1.92336C37.6112 1.97079 37.8455 2.36684 41.2141 2.47488C45.1515 2.60311 52.488 2.48591 57.1798 2.60964C59.0038 2.17092 60.8276 1.7322 62.6516 1.29348C71.0417 1.05552 73.9907 2.21352 78.9173 2.30349C79.8044 2.31913 95.988 2.23594 96.8599 2.21121C103.999 2.01524 101.976 1.02871 122.622 1.24001C126.299 1.27824 129.272 1.6196 132.595 1.63332C138.465 1.65807 156.154 0.883868 157.545 0.168476C164.665 1.06384 183.715 0.697853 189.326 0.956563C191.02 1.0361 191.402 1.60641 196.607 1.72781C200.827 1.82678 211.696 1.37013 217.048 1.44655C222.729 1.52978 224.757 2.00888 227.303 2.04275C229.708 2.07424 231.925 1.68748 235.202 1.68972C245.432 1.70322 254.697 2.32572 262.782 2.33718C274.476 2.35518 284.806 1.2101 294.59 0.70168C297.018 0.775919 299.404 1.0217 301.95 1.02395C333.447 1.05995 368.978 1.27093 400.568 1.51614C415.234 1.62876 451.703 3.18307 441.97 0.58962C447.066 0.135431 484.124 1.18105 491.173 1.1968C498.219 1.21239 503.806 0.74736 509.345 0.740499C526.06 0.720252 537.831 1.05535 558.177 0.650411C563.432 0.544544 569.062 -0.00638866 572.174 1.85966e-05C575.923 0.00901604 579.957 0.541853 584.813 0.575704C590.623 0.614095 598.952 0.589054 607.212 0.566248L611.837 0.590237L611.813 5.16736C611.835 13.3625 611.856 21.4894 611.81 27.0202C611.792 29.0477 611.324 29.7599 611.178 32.6598C610.607 43.9526 610.656 56.6106 612.15 54.3709C611.302 68.8453 612.075 82.2349 612.123 95.6485C612.22 124.011 611.871 175.675 612.499 200.383C612.894 215.962 613.564 215.563 612.986 238.501C612.858 243.592 612.685 248.661 612.532 254.837C612.172 269.312 610.935 282.592 612.426 293.626C612.039 309.703 612.314 322.507 611.038 334.436C611.344 335.842 611.65 337.248 611.956 338.654C611.963 340.625 611.971 342.596 611.978 344.567C611.687 345.182 611.395 345.797 611.103 346.412C611.025 360.532 612.224 378.447 612.215 390.399C612.202 410.439 611.736 462.054 611.342 481.056C611.218 487.043 611.388 489.668 611.277 492.021L611.256 496.107L607.212 496.087C605.601 496.011 604.117 495.804 601.77 495.282C599.513 495.372 597.257 495.461 595 495.55C593.588 495.832 592.176 496.113 590.764 496.394C577.821 496.405 562.47 495.969 550.139 495.973C528.874 495.982 497.512 496.675 475.086 496.319L477.925 495.247C476.96 496.07 476.014 496.871 475.09 497.648C470.758 501.29 465.067 505.527 460.913 509.192C454.866 514.526 454.031 516.544 446.362 523.318C433.144 534.991 407.753 555.851 395.297 566.929C394.016 568.068 392.998 569.029 392.11 569.892L386.303 565.92C386.996 563.688 387.449 561.979 388.194 559.873C392.966 546.355 397.037 535.313 401.241 522.215C407.179 508.673 407.859 510.279 410.559 506.397C412.602 503.453 418.228 494.194 419.492 493.05C420.38 492.246 419.694 496.209 420.781 495.026C415.165 511.799 412.105 518.59 406.36 531.776C401.913 543.977 397.466 556.177 393.019 568.378L387.385 564.523C397.529 555.571 407.673 546.619 417.817 537.666C419.849 536.324 421.882 534.982 423.914 533.64C423.914 533.64 423.915 533.641 423.915 533.641C431.815 527.204 434.484 523.704 438.476 519.929C447.758 511.152 459.422 500.541 472.39 488.958L473.524 487.948L475.086 487.94C516.16 487.64 566.273 488.073 607.212 488.37L603.561 492.021C603.656 478.919 603.737 466.758 603.776 456.132C603.821 443.66 603.369 403.087 603.914 394.529C604.056 392.314 604.572 391.697 604.595 389.34C604.288 368.279 603.98 347.218 603.673 326.157C604.476 282.848 603.813 238.074 603.689 194.434C603.509 131.027 603.308 67.9601 603.18 5.16736L607.212 9.1993C553.08 9.30984 499.152 9.3664 445.385 9.30912C422.94 9.28438 394.458 9.67163 372.485 9.42192C363.315 9.31838 359.494 8.48834 347.447 9.10697C347.32 8.88334 347.194 8.65971 347.067 8.43607C336.554 8.70605 329.835 9.2149 318.048 9.26664C308.123 9.30938 281.862 9.34259 273.091 9.25712C268.541 9.21438 270.236 8.7965 265.995 8.79862C258.733 8.80537 243.219 9.38308 233.199 9.3831C224.122 9.3831 208.82 8.90174 201.841 8.97147C176.709 9.21894 149.334 9.93247 122.551 9.74125C115.153 9.68715 105.637 9.14532 103.32 9.16044C98.7946 9.19193 97.4464 9.71826 94.4064 9.78593C78.9648 10.1279 54.8941 9.50239 39.7579 9.47758C28.3736 9.45889 16.8335 9.45675 5.21176 9.46333L9.50773 5.16736C9.52965 43.8956 9.64839 83.5276 9.57398 121.302C9.51325 152.328 9.60588 203.887 9.20997 232.531C9.12448 238.708 8.54786 237.062 8.54786 242.248C8.54798 247.999 8.93751 251.114 8.969 253.801C9.18948 272.404 9.58323 313.471 9.18507 331.035C9.10862 334.38 8.65681 336.807 8.65846 338.81C8.65846 339.824 8.96678 342.114 8.9983 345.297C9.27726 373.4 9.09744 393.89 8.99171 421.427C8.90674 443.809 8.96115 467.699 9.02821 492.021L5.21176 488.204C38.1978 488.113 71.9778 487.999 103.868 488.178C115.939 488.245 124.217 489.139 125.914 489.13C129.639 489.112 132.023 488.511 139.567 488.362C164.651 487.874 198.432 488.516 222.29 488.214C234.077 488.066 250.274 487.303 261.873 487.134C271.138 486.999 293.017 487.298 297.123 486.963C299.621 486.761 300.777 486.111 303.769 486.03ZM1.08373 478.476C2.12307 480.126 1.25932 462.781 0.701406 469.288C0.575784 470.754 0.813937 478.049 1.08373 478.476ZM344.102 2.84402C343.943 2.54714 343.784 2.25027 343.625 1.95339C341.348 2.07693 339.071 2.20046 336.794 2.324C338.074 2.50247 339.354 2.68093 340.633 2.8594C341.789 2.85427 342.946 2.84915 344.102 2.84402Z" fill="white"/>
</svg>
