<svg width="36" height="36" viewBox="0 0 36 36" fill="none" xmlns="http://www.w3.org/2000/svg">
<path d="M9.60138 28.89C9.69023 28.9239 9.72313 29.1048 9.81068 29.1722C10.1762 29.4525 10.2746 29.6183 10.613 29.874C11.1089 30.2867 12.8668 30.8416 12.5829 31.6715C12.5828 31.6715 12.5828 31.6715 12.5828 31.6715C12.5798 31.6799 12.5766 31.6882 12.5732 31.6966C12.509 31.8561 12.2851 31.9735 12.1921 32.1457C12.0992 32.3179 11.6785 33.5011 11.3996 33.4677C10.9943 33.4155 10.2772 32.7318 10.0944 32.6489C9.96451 32.5946 9.75764 32.616 9.58824 32.5475C9.04129 32.3232 8.82717 32.0967 8.21113 32.0678C8.12062 31.814 8.03752 31.5603 7.96155 31.307C7.69351 31.2119 7.49391 30.7916 7.35956 30.7001C7.24805 30.625 7.10564 30.6763 6.99223 30.5916C6.86434 30.4966 6.768 30.235 6.54076 30.0613C6.16986 29.7741 5.87915 29.9579 5.64151 29.7872C5.39474 29.6086 5.20529 29.1495 4.86519 28.9452C4.80572 28.9342 4.74619 28.9229 4.68661 28.9112C4.64649 28.9924 4.60676 29.0739 4.56744 29.1557C4.40791 29.0345 4.48247 28.8582 4.36959 28.7201C4.23731 28.5572 4.04362 28.5765 3.95453 28.4643C3.88174 28.3722 3.88684 28.1674 3.78949 28.0529C3.64811 27.8847 3.5263 28.0353 3.42667 27.96C3.38361 27.9338 2.79249 27.2644 2.7676 27.219C2.55363 26.902 2.75584 26.7365 2.62055 26.469C2.24785 25.7273 1.68056 25.0593 1.30493 24.3681C1.13742 24.0612 1.01946 23.714 0.943649 23.3741C1.74108 23.653 1.8444 22.3859 1.00835 23.1299C1.02619 22.7225 0.681331 22.5467 0.628607 22.1805C0.596335 21.945 0.693151 21.7516 0.614182 21.4292C0.472527 20.8618 -0.0338266 20.272 0.670908 19.999C0.441678 19.3361 0.667446 18.732 0.00494671 18.5211C-0.0469002 18.3397 0.323183 17.867 0.375118 17.6709C0.383391 17.6381 0.395071 17.5671 0.409779 17.4712C0.470935 17.0144 0.652708 16.0215 0.685298 15.8341C0.71574 15.6042 0.775598 15.2013 0.748192 15.0005C0.713444 14.7542 0.0774558 14.4506 0.934584 14.1641C0.972719 13.6527 1.03768 13.4773 1.24585 13.0443C1.28409 12.9659 1.39946 12.9876 1.41274 12.9399C1.4399 12.8418 1.40458 12.6507 1.4483 12.4727C1.5209 12.1785 1.81069 12.0954 1.44351 12.0073C1.44763 11.7972 1.45526 11.5876 1.46772 11.3752C1.56061 11.3341 1.65358 11.294 1.74661 11.255C1.7118 11.1267 1.67843 10.9975 1.64654 10.8673C2.09891 11.1893 2.09816 10.3771 1.7165 10.4747C1.97804 10.158 2.24862 9.85415 2.52748 9.56292C3.04551 9.89475 2.99212 8.86078 2.6721 8.75233C2.69511 8.71369 2.71826 8.67516 2.74156 8.63672C3.08252 8.38406 3.16051 8.00793 3.52267 7.67672C3.88553 7.35046 3.91121 7.42524 4.22311 7.47958C4.27495 7.3824 4.32799 7.2854 4.38196 7.18893C4.13484 6.24885 5.0998 7.17551 5.29925 6.0586C5.86869 6.15784 6.20733 5.44739 6.49505 4.99431C6.52779 4.94176 6.46514 4.87019 6.50552 4.79524C6.60451 4.6106 7.06613 4.3855 6.86016 4.15955C7.0519 4.11759 7.24327 4.07938 7.43416 4.04485C7.5122 3.91481 7.59232 3.78539 7.67458 3.65661C7.6177 3.57964 7.5608 3.50268 7.5039 3.42573C7.92913 3.51794 8.22801 3.16353 8.45941 3.10847C8.5052 3.09787 8.58451 3.20336 8.71871 3.16121C8.87565 3.11227 9.10841 2.92555 9.29328 2.8671C9.28378 2.70372 9.2762 2.53978 9.27056 2.37532C9.53735 2.13612 9.82623 2.4223 10.0163 2.35822C10.0492 2.34376 10.6281 2.03332 10.6584 2.01389C10.8963 1.83839 10.6844 1.55623 11.5069 1.30665C11.654 1.26392 11.8089 1.32811 11.9383 1.28677C12.1635 1.21024 12.7828 0.745909 12.7772 0.502861C13.1471 0.700989 13.8833 0.394926 14.1341 0.435355C14.2089 0.447087 14.2625 0.62917 14.479 0.628613C14.6526 0.627588 15.0709 0.402854 15.2925 0.39906C15.5282 0.3944 15.6302 0.543829 15.7344 0.542888C15.8326 0.542178 15.9103 0.403982 16.0434 0.391835C16.4611 0.356077 16.8539 0.542075 17.1774 0.535982C17.3616 0.532649 17.5367 0.473533 17.7087 0.39353C17.9774 0.268401 18.2368 0.0921668 18.4897 -0.000214338C18.5893 0.0289462 18.6847 0.115968 18.7903 0.123203C20.0965 0.210287 21.5477 0.544352 22.7647 1.00878C23.3501 1.20755 24.5184 2.25045 24.4864 1.30434C24.7558 1.23403 26.0013 2.22751 26.2366 2.38883C26.4872 2.53701 26.7652 2.52369 26.9636 2.64488C27.5589 3.01414 27.8956 3.37967 28.6446 3.80095C28.8376 3.91001 29.1374 3.92191 29.2364 4.00985C29.3554 4.11583 29.3659 4.36121 29.5082 4.50597C29.8526 4.84644 30.5292 5.44943 30.8121 5.82195C30.864 5.88953 30.7669 6.01494 30.8086 6.1374C30.9712 6.61336 31.2968 7.00938 31.6346 6.63244C31.7835 7.28385 32.3094 7.58737 32.6277 8.06052C33.3266 9.04501 34.1255 11.0696 34.6156 12.0116C34.9356 12.6018 35.1612 12.5356 35.2002 13.5377C35.2062 13.7606 35.1938 13.9843 35.1909 14.2511C35.185 14.886 34.841 15.4708 35.3769 15.8867C35.3143 16.5099 35.3936 17.0103 35.0903 17.4712C35.059 17.5183 35.0237 17.5647 34.9836 17.6104C35.0851 17.6693 35.1863 17.7292 35.2872 17.79C35.2883 17.8727 35.2888 17.9554 35.2887 18.038C35.1907 18.0606 35.0926 18.0828 34.9945 18.1046C34.9503 18.6819 35.2783 19.4611 35.2014 19.9668C35.1137 20.8144 34.4173 22.8928 33.985 23.5693C33.7718 23.9339 33.952 24.0363 33.4662 24.0906C33.4579 24.1871 33.4489 24.2835 33.4388 24.3805C33.5012 24.4714 33.563 24.563 33.6241 24.6554C33.4056 25.1512 32.9832 25.6533 32.7299 26.0939C32.2827 26.9006 31.6724 28.2097 30.9188 28.8104C30.7326 28.962 30.3941 29.0495 30.2406 29.2158C30.0161 29.4572 30.1901 29.7407 29.8873 30.0452C29.366 30.5812 28.0765 31.1564 27.5317 31.556C27.37 31.6786 27.3576 31.8305 27.2467 31.9195C26.7803 32.2921 26.3581 32.5311 25.9381 32.9648C25.2477 32.979 25.1227 32.5895 24.7857 32.3092C24.5287 32.0987 23.8763 31.624 23.7246 31.3999C23.6164 31.2442 23.6498 30.9688 23.5196 30.8022C24.0135 30.4038 24.3089 30.4533 24.8959 30.4612C25.7127 29.9952 26.4847 29.4512 27.1977 28.8404C27.3349 28.8714 27.4731 28.9005 27.6123 28.9279C27.6125 28.9281 27.6126 28.9282 27.6128 28.9284C27.9771 28.7823 27.8979 28.4604 27.9942 28.2797C28.9741 26.6256 31.308 23.8827 31.9088 21.847C32.0739 21.4284 32.2332 20.0002 32.4403 19.7243C32.4987 19.6537 32.6725 19.6564 32.6917 19.573C32.6948 18.8644 32.6475 18.1618 32.553 17.4712C32.545 17.4126 32.5367 17.3543 32.5281 17.2961C32.7806 15.7434 32.2903 14.1512 31.7548 12.7132C30.3094 8.77079 27.1785 5.65372 23.4714 4.03101C22.7525 3.7084 21.772 3.52325 21.0482 3.27322C20.7466 3.16884 20.6656 2.86732 20.2112 2.99652C20.2194 2.9223 20.2276 2.84807 20.2357 2.77383C19.8485 2.80049 19.596 2.93625 19.1828 2.91084C18.8688 2.88721 18.0827 2.85536 17.7087 2.84126C17.6714 2.8393 17.6382 2.83717 17.6102 2.83477C17.4501 2.82206 17.5077 2.68195 17.3574 2.6857C17.0993 2.69183 16.5636 2.91404 16.2202 2.95131C15.9048 2.98075 15.3525 2.89859 15.1123 2.96709C14.2502 3.20334 13.4018 3.68134 12.5202 3.95303C12.2757 4.02658 11.901 3.99008 11.8276 4.02837C11.6862 4.10208 11.7162 4.2816 11.6306 4.34594C11.1962 4.66759 10.3704 4.88186 9.91935 5.16373C8.44808 6.05943 7.1434 7.36815 6.095 8.71155C5.40555 9.54955 4.55861 11.1323 4.08628 12.0231C3.98021 12.2136 3.82197 12.0907 3.75662 12.2636C3.68503 12.4561 3.77196 12.6029 3.75117 12.6956C3.58951 13.3396 3.3872 14.7558 3.18552 15.3476C3.14361 15.4594 2.98323 15.5247 2.97482 15.5956C2.97033 15.6314 3.06224 15.7244 3.06038 15.8371C3.05159 16.4452 3.02834 16.9456 3.0105 17.4712C2.99992 17.8039 2.99277 18.1421 3.00532 18.5188C3.05773 20.3933 3.80973 22.4481 4.61906 24.2098C4.7927 24.5951 4.68508 24.9971 4.71871 25.0495C4.79201 25.162 5.0067 25.1335 5.18981 25.3327C5.78822 25.9939 6.35343 27.0619 7.01585 27.6039C7.33811 27.8745 7.92184 28.0815 8.25827 28.2982C8.5226 28.4771 9.05383 29.0201 9.23661 29.0103C9.34566 29.0066 9.50426 28.8541 9.60138 28.89ZM0.701567 21.0481C1.05184 21.0446 0.635108 20.4003 0.502221 20.6972C0.47158 20.7654 0.609358 21.0497 0.701567 21.0481ZM20.4317 0.916741C20.4413 0.818047 20.4508 0.719337 20.4602 0.620614C20.3616 0.646342 20.2636 0.672948 20.1669 0.700499C20.2096 0.766817 20.2512 0.833215 20.2931 0.899898C20.3393 0.905324 20.3855 0.910938 20.4317 0.916741ZM12.2269 34.6176C12.2041 34.6355 12.2221 34.505 12.2062 34.4927C12.1398 34.4397 12.1399 34.345 12.0886 34.2741C12.0132 34.17 11.6587 34.2255 11.9667 33.3781C11.9667 33.3781 11.9667 33.3781 11.9667 33.3781C11.9697 33.3698 11.9728 33.3614 11.9759 33.3529C12.0353 33.1918 12.1223 33.0239 12.1912 32.8424C12.2602 32.6608 12.6817 31.48 12.7349 31.4241C12.8085 31.3519 12.8067 31.6916 12.8355 31.6863C12.8547 31.6825 12.9112 31.5814 12.938 31.5691C13.024 31.5293 13.033 31.62 13.1875 31.3447C13.1602 31.5075 13.1337 31.6704 13.108 31.8335C13.1622 31.7714 13.1451 31.9917 13.1682 31.9864C13.1869 31.9821 13.2345 31.8617 13.2526 31.861C13.273 31.8596 13.2605 32.0014 13.3003 31.9916C13.3655 31.9761 13.4714 31.6563 13.5157 31.6249C13.5614 31.5923 13.5628 31.7833 13.6385 31.6817C13.654 31.6476 13.6695 31.6135 13.685 31.5794C13.7041 31.4978 13.7233 31.4162 13.7425 31.3346C13.7742 31.3031 13.7364 31.4708 13.7552 31.4793C13.7773 31.4894 13.8328 31.336 13.8478 31.3409C13.8601 31.3451 13.8425 31.4756 13.8611 31.4722C13.8881 31.468 13.9324 31.2848 13.9543 31.2542C13.9632 31.2425 14.0833 31.1671 14.0888 31.1669C14.1305 31.1702 14.069 31.4206 14.096 31.4508C14.1712 31.5337 14.3146 31.3545 14.4147 31.2973C14.4597 31.2717 14.4944 31.2952 14.5221 31.3439C14.3146 31.9733 14.3349 32.5047 14.5133 31.4863C14.5225 31.639 14.6129 31.3736 14.6415 31.4281C14.6601 31.4636 14.6476 31.6074 14.685 31.6116C14.7525 31.6182 14.9026 31.2334 14.7765 31.9583C14.8792 31.8468 14.8975 32.1218 15.0455 31.4889C15.072 31.4536 15.0518 31.8432 15.0653 31.8991C15.0771 31.9518 15.2121 32.1526 15.2383 32.1666C15.2639 32.1808 15.3099 32.1991 15.3418 32.1464C15.3825 32.0815 15.5044 31.4191 15.4354 32.2051C15.5047 32.1512 15.5221 32.1765 15.5649 32.2751C15.5727 32.2929 15.5573 32.4088 15.5633 32.4098C15.5756 32.4115 15.6084 32.3289 15.6316 32.3215C15.6696 32.3093 15.6573 32.5558 15.7036 32.183C15.7354 32.1237 15.7669 32.0644 15.7981 32.0049C15.7969 32.0779 15.7958 32.1508 15.7948 32.2238C15.8174 32.147 15.8398 32.0702 15.862 31.9934C15.7794 32.531 15.908 32.2236 15.917 31.9104C15.9479 32.0275 15.9797 32.1445 16.0127 32.2614C15.9368 32.8748 16.1065 32.3436 16.1321 32.0083C16.1371 32.0094 16.1422 32.0104 16.1473 32.0114C16.1752 32.1795 16.2305 32.0502 16.2749 32.1652C16.3198 32.2802 16.3091 32.3396 16.3003 32.6242C16.3152 32.6092 16.3301 32.5942 16.3449 32.5792C16.4817 31.809 16.3554 33.1523 16.5253 32.5663C16.5262 33.0575 16.6438 32.8082 16.7158 32.6639C16.7243 32.6472 16.7305 32.5524 16.742 32.5237C16.77 32.4549 16.8233 32.5804 16.8389 32.2742C16.8544 32.364 16.8703 32.4537 16.8865 32.5434C16.9066 32.4887 16.9265 32.4339 16.9463 32.379C16.951 32.2835 16.9557 32.1879 16.9604 32.0923C16.9778 32.4198 17.0379 32.297 17.0607 32.3761C17.0653 32.3921 17.0608 32.524 17.0759 32.5607C17.0936 32.6042 17.1312 32.5666 17.1529 32.6086C17.1671 32.4628 17.1812 32.317 17.1949 32.1711C17.2376 32.0932 17.2397 32.4794 17.2631 32.5101C17.2674 32.5155 17.3475 32.4899 17.3519 32.4817C17.3885 32.4171 17.3854 32.0883 17.4829 32.1604C17.5003 32.1734 17.5131 32.2874 17.5292 32.2921C17.5579 32.3008 17.6448 32.0433 17.6517 31.8048C17.6642 31.9204 17.6856 31.973 17.7087 31.999C17.7453 32.0401 17.7856 32.0146 17.8023 32.0673C17.8105 32.0938 17.8136 32.2839 17.8392 32.3241C17.8601 32.357 17.9107 32.2041 17.9368 32.2292C17.9645 32.2565 17.9772 32.416 17.9899 32.4271C18.0018 32.4373 18.0101 32.3082 18.0259 32.3087C18.0753 32.3121 18.1258 32.5184 18.1658 32.521C18.2239 32.5253 18.2609 32.142 18.3001 31.9708C18.3126 31.9951 18.3273 32.0765 18.3395 32.0767C18.4899 32.0824 18.663 32.1428 18.821 32.213C18.8927 32.2456 19.1159 32.7463 18.9929 31.8892C19.0027 31.7366 19.2097 32.067 19.2449 32.0684C19.2791 32.07 19.289 31.913 19.3147 31.9079C19.3922 31.8926 19.4616 31.997 19.5405 31.8511C19.5608 31.8129 19.5634 31.6274 19.578 31.6277C19.5956 31.6284 19.6376 31.802 19.6619 31.8101C19.7196 31.8282 19.812 31.756 19.8681 31.7786C19.8785 31.7831 19.9049 31.9368 19.9259 31.983C20.008 32.1632 20.0668 32.1371 19.9778 31.6471C20.0896 31.9155 20.1111 31.6506 20.1697 31.6245C20.294 31.5708 20.5554 31.6391 20.6254 31.4103C20.6693 31.2662 20.6195 31.0487 20.7631 31.2145C20.795 31.2512 20.8304 31.3023 20.8696 31.3457C20.9606 31.4481 21.1183 31.8349 21.0528 31.3393C21.1561 31.4471 21.191 31.3441 21.3508 31.7422C21.3322 31.6417 21.3134 31.5413 21.2946 31.4408C21.3029 31.4361 21.3112 31.4314 21.3196 31.4266C21.3466 31.52 21.3738 31.6135 21.401 31.7069C21.4737 31.7152 21.4528 31.307 21.5065 31.2953C21.5975 31.2756 21.8724 31.3575 21.9979 31.4557C22.0646 31.5081 22.0048 31.3086 22.1589 31.709C22.1605 31.6773 22.162 31.6456 22.1634 31.614C22.1418 31.5225 22.12 31.431 22.0981 31.3396C22.1552 31.3177 22.2695 31.4337 22.3252 31.4137C22.4275 31.3769 22.493 31.0813 22.6501 31.2047C22.6898 31.2358 22.7878 31.4059 22.8122 31.3946C22.8479 31.3783 22.7454 31.0742 22.7883 31.0517C22.8618 31.0141 23.1427 31.305 23.208 31.248C23.2271 31.2314 23.1929 31.1165 23.2033 31.0986C23.2462 31.0222 23.3022 31.0097 23.2909 30.8144C23.4741 31.071 23.6243 31.4382 23.8021 31.7978C23.936 32.0692 24.2642 32.6906 24.3773 32.93C24.4565 33.0984 24.531 33.3268 24.6197 33.5115C24.5918 33.7015 24.4806 33.553 24.2959 33.318C24.1634 33.3856 24.0299 33.4515 23.8953 33.5157C23.8425 33.4163 23.7899 33.3168 23.7376 33.2172C23.7375 33.217 23.7374 33.2168 23.7373 33.2165C23.6393 33.116 23.7193 33.3933 23.7134 33.4653C23.6553 34.1577 22.9271 33.8874 22.6032 33.9073C22.5329 33.9131 22.3546 34.1205 22.26 33.9579C22.2355 33.9156 22.1866 33.7504 22.1722 33.7466C22.0875 33.8759 22.0005 34.0047 21.9111 34.1329C21.6123 33.932 21.4237 34.202 21.1909 34.292C20.5676 34.5346 19.9261 34.7657 19.2663 34.7829C19.1396 34.7859 18.9877 34.9271 18.8574 34.8521C18.8029 34.821 18.7653 34.5461 18.7097 34.7559C18.7048 34.6815 18.6998 34.6071 18.6949 34.5328C18.6416 34.6259 18.6125 34.7973 18.5468 34.8177C18.4915 34.8348 18.3432 34.8518 18.2927 34.8248C18.2666 34.8114 18.2717 34.6719 18.248 34.6733C18.2076 34.6769 18.1253 34.8717 18.0683 34.8728C18.0167 34.8739 17.9279 34.7147 17.8893 34.7383C17.8313 34.773 17.7709 34.834 17.7087 34.889C17.6206 34.9669 17.5291 35.0325 17.4399 34.9938C17.3978 34.9751 17.3474 34.7935 17.3344 34.7983C17.3087 34.8082 17.297 34.9834 17.2791 35.0055C17.1877 35.1175 17.0565 34.9045 16.9716 34.8926C16.6938 34.8541 16.3923 34.911 16.1166 34.8535C15.9432 34.8181 15.6473 34.8167 15.5032 34.6648C15.4722 34.6321 15.506 34.4426 15.4773 34.4389C15.4456 34.4348 15.4112 34.5612 15.3948 34.5696C15.282 34.6291 15.0312 34.7248 14.9538 34.5776C14.9392 34.5494 14.9498 34.3986 14.9387 34.3973C14.9331 34.3964 14.9039 34.4958 14.8845 34.5033C14.713 34.5691 14.6085 34.4897 14.4632 34.4263C14.186 34.3059 13.8079 34.4192 13.5281 34.2427C13.4671 34.2044 13.4961 33.9043 13.4864 33.9049C13.465 33.9056 13.4023 34.0964 13.3487 34.1336C13.1703 34.2553 13.0431 33.9984 12.8873 34.0576C12.8101 34.0867 12.6494 34.3043 12.5688 34.3386C12.5045 34.3661 12.4143 34.2334 12.3581 34.3327C12.324 34.3926 12.2519 34.5971 12.2269 34.6176ZM14.6897 31.7835C14.6109 32.121 14.7513 31.8561 14.7583 31.6676C14.76 31.6252 14.7102 31.6959 14.6897 31.7835ZM18.5742 32.6726C18.5679 32.5738 18.5616 32.4751 18.5553 32.3763C18.5465 32.418 18.5376 32.4598 18.5287 32.5015C18.5381 32.5605 18.5476 32.6196 18.5573 32.6787C18.5629 32.6766 18.5685 32.6746 18.5742 32.6726ZM14.4365 29.3033C14.4564 29.3853 14.3211 29.4927 14.3095 29.5876C14.2595 29.9851 14.1622 30.1285 14.0931 30.4869C13.9905 31.0184 14.0808 32.6157 13.1808 32.5704C13.1808 32.5704 13.1808 32.5704 13.1808 32.5704C13.172 32.57 13.1631 32.5694 13.154 32.5686C12.9829 32.5544 12.8025 32.4099 12.6096 32.38C12.4166 32.3503 11.1636 32.3022 11.1029 32.1068C11.0241 31.8238 11.3788 31.1725 11.372 31.0233C11.3673 30.9214 11.2598 30.7907 11.2461 30.66C11.202 30.2383 11.2963 30.0236 11.006 29.6312C11.1766 29.4886 11.3471 29.3461 11.5177 29.2035C11.452 29.003 11.6819 28.7157 11.6761 28.5956C11.6713 28.4971 11.5453 28.4332 11.5445 28.3307C11.5428 28.2157 11.6908 28.0467 11.6803 27.8372C11.6638 27.4938 11.3307 27.4161 11.2983 27.2089C11.2677 27.0125 11.4317 26.7269 11.3802 26.4676L12.0409 27.5993C12.0124 27.5918 11.9859 27.5872 11.9583 27.5846C11.9087 27.6008 11.8551 27.6148 11.8096 27.6329C11.7912 27.7177 11.7811 27.8067 11.7646 27.8924C11.6147 27.859 11.6379 27.6771 11.5214 27.6117C11.3875 27.5359 11.2362 27.6387 11.1463 27.5885C11.0693 27.5454 11.0307 27.3748 10.9306 27.3277C10.7817 27.2564 10.7215 27.4386 10.6267 27.425C10.5892 27.4215 9.97032 27.1758 9.93725 27.1547C9.68964 27.0108 9.80639 26.7791 9.62773 26.6373C9.13227 26.2411 8.47539 26.0369 7.89842 25.6195C7.66301 25.4465 7.43749 25.2106 7.22857 24.8785C7.21245 24.8518 7.19688 24.8251 7.18182 24.7983C7.24103 24.8034 7.29451 24.801 7.34252 24.793C7.53516 24.7698 7.6361 24.6541 7.68304 24.5376C7.80765 24.2559 7.60735 23.9402 7.17754 24.5446C7.1018 24.1615 6.75029 24.0954 6.64957 23.7908C6.58802 23.5959 6.66071 23.4148 6.55068 23.1659C6.35663 22.7322 5.80516 22.3514 6.4685 22.0034C6.1808 21.5164 6.34414 21.0008 5.66813 20.9189C5.59844 20.7757 5.92041 20.3316 5.95683 20.1605C5.96046 20.01 6.12269 18.7152 6.25906 18.4359C6.29805 18.301 6.36762 18.0927 6.46459 17.8869C6.52341 17.7588 6.57556 17.6473 6.59702 17.5642C6.64998 17.3451 6.20695 16.7975 7.05606 16.9858C7.26154 16.623 7.37351 16.531 7.68341 16.3212C7.73963 16.2837 7.83103 16.357 7.85667 16.3291C7.9091 16.2717 7.93582 16.1155 8.02373 16.0076C8.16874 15.8298 8.43502 15.9106 8.1486 15.6659C8.20802 15.5149 8.26978 15.3635 8.33222 15.213C8.41991 15.2282 8.5094 15.2419 8.59709 15.2575C8.59745 15.1466 8.60179 15.0322 8.60315 14.9212C8.91354 15.3759 9.09395 14.761 8.74921 14.6584C9.03624 14.5416 9.32712 14.4261 9.61559 14.3188C9.74399 14.4819 9.84564 14.4929 9.91448 14.4287L9.69968 14.7219C9.76531 14.558 9.58531 14.1801 9.36619 14.1238C9.37936 14.0949 9.39253 14.0661 9.4057 14.0372C9.66754 13.8484 9.64676 13.5608 9.88352 13.2947C10.1203 13.0285 10.1626 13.0818 10.4643 13.1013C10.4813 13.0218 10.4983 12.9423 10.5154 12.8627C9.9692 12.1673 11.1754 12.7757 10.9149 11.8801C11.4552 11.8667 11.4457 11.2469 11.4595 10.8448C11.4612 10.798 11.3744 10.7592 11.3708 10.6944C11.363 10.5363 11.6198 10.254 11.334 10.1425C11.4654 10.0634 11.5969 9.98426 11.7283 9.90516C11.7268 9.88769 11.7253 9.87023 11.7238 9.85276L12.5859 8.10176L13.3963 9.78454C13.4792 9.83861 13.5621 9.89267 13.645 9.94674C13.7291 9.90091 13.8131 9.85508 13.8971 9.80925C13.7076 10.1453 13.9714 10.3708 13.9784 10.5484C13.9796 10.5839 13.8666 10.6525 13.8817 10.7565C13.8988 10.8784 14.0352 11.0493 14.0641 11.19C14.2182 11.1677 14.3723 11.1455 14.5264 11.1232C14.7129 11.3022 14.414 11.5614 14.4561 11.7028C14.4639 11.7281 14.7132 12.1328 14.7326 12.1514C14.8893 12.3047 15.1508 12.0966 15.3757 12.6629C15.4156 12.7639 15.3568 12.8946 15.3989 12.9825C15.4634 13.1174 15.8281 13.3869 16.0733 13.4055L14.6899 12.5792C14.7101 12.5476 14.7239 12.5157 14.7293 12.4841C14.938 12.7826 15.4966 12.6606 15.6611 12.7468C15.7108 12.7734 15.722 12.9635 15.8746 13.0039C15.9983 13.0369 16.317 12.8847 16.4739 12.9102C16.6404 12.9379 16.6999 13.0976 16.7746 13.1089C16.8451 13.1194 16.9101 12.9905 17.0062 12.9912C17.3061 12.9957 17.5777 13.2032 17.8148 13.207C18.1577 13.213 18.4605 12.8314 18.7474 12.6619C18.8186 12.6866 18.8885 12.7685 18.9632 12.7693C19.0473 12.7704 19.1323 12.772 19.2182 12.774L18.0231 13.4675C18.4659 12.7333 18.9873 11.9516 19.4695 11.2575C19.7154 10.9028 20.6958 10.2314 19.8036 10.0503C19.7652 9.9129 20.1313 9.5209 20.4089 9.22437L21.8617 6.94774L22.8946 9.29336C22.9401 9.48734 22.9783 9.65082 23.0072 9.71242C23.095 9.89955 23.3069 9.97672 23.3815 10.121C23.6067 10.5563 23.6612 10.9149 24.0487 11.3881C24.1492 11.5101 24.3872 11.5757 24.4261 11.6582C24.4726 11.7579 24.3666 11.9431 24.4202 12.0755C24.5492 12.3904 24.8843 12.93 25.0024 13.235C25.0236 13.2908 24.8935 13.3793 24.8879 13.4771C24.8656 13.8584 25.0464 14.183 25.4624 13.9016C25.4559 13.9537 25.4544 14.003 25.4571 14.0499L24.922 13.4437C25.241 13.8589 25.6449 13.9191 25.9707 14.1797C26.7319 14.762 27.8341 16.1744 28.4156 17.0808C28.7444 17.5794 28.9741 17.5836 29.0205 18.3997C29.0206 18.4832 29.0162 18.5757 29.0058 18.6783C28.9843 18.893 28.9389 19.1029 28.888 19.3518C28.7651 19.951 28.2843 20.354 28.6742 20.8722C28.4073 21.443 28.3083 21.9351 27.7434 22.1442C27.8147 22.2324 27.8851 22.3216 27.9539 22.4128C27.9242 22.479 27.8942 22.5438 27.863 22.6087C27.7664 22.5835 27.6701 22.5574 27.5742 22.5306C27.3258 22.9484 27.3012 23.6954 27.0175 24.0381C26.8846 24.201 26.6756 24.4264 26.4088 24.6618C25.7674 25.2416 24.8415 25.7396 24.407 25.8822C24.0839 25.9918 24.1647 26.182 23.7967 25.895C23.7462 25.9559 23.6967 26.0155 23.6451 26.0756C23.6474 26.1799 23.6492 26.2841 23.6499 26.3886C23.2707 26.5841 22.7617 26.6489 22.4095 26.7939C22.1428 26.9051 21.8313 27.0732 21.5511 27.2281L22.294 25.3125C22.5532 25.7185 22.8118 26.146 22.8908 26.5365C22.9246 26.7045 22.8408 26.9753 22.9135 27.1206C23.0191 27.3321 23.333 27.2441 23.469 27.5116C23.7029 27.9728 23.7866 29.002 24.025 29.4295C24.0956 29.5566 24.2326 29.5656 24.2877 29.6503C24.52 30.0048 24.6615 30.3197 25.003 30.6021C24.9146 31.1256 24.5411 31.2647 24.239 31.5598C24.0111 31.7828 23.5163 32.3683 23.2972 32.5234C23.1434 32.6323 22.8775 32.632 22.7122 32.7604C22.3393 32.3648 22.4065 32.0904 22.4824 31.5861C22.1336 30.8912 21.7848 30.1963 21.436 29.5014C21.5058 29.3891 21.5756 29.2768 21.6454 29.1645C21.6456 29.1644 21.6458 29.1643 21.646 29.1642C21.6321 28.8392 21.318 28.8506 21.1891 28.7341C20.657 28.2532 20.1907 27.4324 19.7782 26.5292L19.0925 25.3013L20.5133 24.6335C21.7803 24.1887 22.9387 23.8408 23.6488 23.3685C23.8193 23.2619 24.1596 22.9251 24.4147 22.6678C24.5613 22.5235 24.6969 22.3976 24.7979 22.3812C24.8689 22.3697 25.0127 22.466 25.0562 22.4237C25.3131 21.9374 25.5002 21.4247 25.5985 20.9258C26.0651 20.3194 26.1366 19.5188 25.9675 18.8358C25.9111 18.6197 25.8074 18.3931 25.6783 18.1588C25.2061 17.3001 24.2269 16.4263 23.3259 15.8378L23.0941 15.7023L22.8835 15.3366C22.0278 13.7434 21.1889 12.1509 20.3922 10.5446L22.838 10.6124C22.6854 10.8776 22.5317 11.1419 22.3769 11.4054C22.0432 11.9727 21.741 12.7618 21.349 13.2799C21.1857 13.4962 20.8899 13.4562 20.8937 13.8652C20.8271 13.8314 20.7605 13.7976 20.694 13.7639C20.6192 14.0762 20.6687 14.3313 20.5122 14.64C20.4865 14.6905 20.4517 14.7567 20.4112 14.8322L20.0936 15.4729L19.2182 15.5246C18.8639 15.5339 18.3242 15.5366 18.117 15.5137C17.9837 15.4994 18.0333 15.3602 17.909 15.3609C17.6961 15.3631 17.2412 15.5557 16.9474 15.5557C16.6813 15.5557 16.2326 15.3952 16.028 15.4185C15.5988 15.4665 15.1473 15.5673 14.6899 15.6304L13.8959 15.6773L13.3868 14.8521C13.1915 14.5849 13.0117 14.3059 12.8797 14.0046C12.7928 13.8051 12.8195 13.4738 12.7829 13.4164C12.7107 13.3045 12.5375 13.3529 12.4754 13.2851C12.1604 12.9405 12.0094 12.2203 11.8062 11.8256C11.649 11.5199 11.4842 11.2128 11.3157 10.9049L13.8888 10.8C13.4447 11.8345 13.0187 12.9047 12.5562 13.9005C12.3387 14.3688 12.0587 15.0214 11.7735 15.6292L11.405 16.1322C11.0511 16.4271 10.6779 16.7424 10.3934 16.9394C10.2499 17.0395 10.1476 16.8708 10.0442 16.9729C9.92861 17.0876 9.96049 17.2404 9.91566 17.3009C9.59648 17.718 8.9538 18.6445 8.69684 18.8494C8.64258 18.8891 8.49198 18.851 8.47803 18.8791C8.47645 18.8822 8.4793 18.8886 8.4847 18.8969C8.50869 18.9128 8.56405 18.9418 8.56692 18.9576C8.57011 19.2183 8.52889 19.8176 8.63346 20.4778C8.76613 21.347 9.23769 22.4295 9.69815 23.0263C9.85863 23.2284 10.2456 23.561 10.5997 23.8561C10.8418 24.0587 10.8697 24.4314 10.9107 24.4552C11.0004 24.5067 11.1641 24.3748 11.3662 24.4434C11.9424 24.6397 12.5803 25.1642 13.1329 25.4152L13.8114 25.7059L13.819 26.5903C13.8178 26.6911 13.8207 26.7883 13.8293 26.8808C13.8613 27.2284 14.0915 27.7155 14.1306 28.058C14.1619 28.3315 14.03 28.9672 14.1354 29.093C14.1991 29.1696 14.4138 29.2143 14.4365 29.3033ZM6.59772 22.8376C6.9376 22.7632 6.47152 22.33 6.36989 22.5937C6.34678 22.6552 6.50826 22.8575 6.59772 22.8376ZM19.0324 12.9145C18.9442 12.8695 18.856 12.8244 18.7677 12.7794C18.7704 12.8578 18.773 12.9362 18.7756 13.0146C18.8459 13.0115 18.9162 13.0085 18.9864 13.0054C19.0018 12.9751 19.0171 12.9448 19.0324 12.9145Z" fill="white"/>
</svg>
