<svg width="4000" height="12" viewBox="0 0 4000 12" fill="none" xmlns="http://www.w3.org/2000/svg">
<path d="M309.503 11.9042C311.978 11.8889 321.933 11.926 326.242 11.9195C321.357 12.0805 300.576 11.9594 309.503 11.9042ZM751.551 0.214995C747.976 0.254792 744.4 0.294589 740.825 0.334385C750.986 0.360243 764.644 0.331034 774.073 0.36881C775.615 0.375154 771.615 0.490379 775.264 0.495524C778.914 0.500636 778.21 0.343171 783.519 0.326328C789.474 0.307914 816.74 0.417615 826.182 0.414954C861.499 0.404325 897.119 0.314398 932.506 0.379797C895.973 0.496294 932.787 0.614861 943.019 0.564374C945.287 0.552684 944.924 0.259943 981.578 0.333652C1004.87 0.380428 983.358 0.798942 1022.23 0.589277C992.338 0.296497 1021.73 0.317017 1045.16 0.307284C1049.2 0.30556 1081.82 0.349548 1096.23 0.336582C1101.16 0.332073 1108.68 0.178735 1115.22 0.174711C1119.72 0.172056 1123.12 0.255887 1129.8 0.251618C1160.96 0.232723 1191.6 0.226204 1222.81 0.254548C1204.57 0.648591 1237.12 0.422484 1238.58 0.441322C1246.02 0.548308 1212.39 0.578762 1225.69 0.645676C1244.27 0.633469 1262.86 0.621261 1281.44 0.609054C1266.19 0.560673 1301.64 0.277232 1308.16 0.406165C1305.29 0.0579743 1392.87 0.709217 1406.2 0.592939C1408.98 0.568378 1390.8 0.396291 1432.96 0.475015C1437.53 0.483762 1435.8 0.588816 1438.2 0.579023C1439.63 0.573134 1448.31 0.239236 1457.56 0.423744C1460.94 0.491086 1439.33 0.710384 1486.78 0.622238C1467.89 0.282395 1552.58 0.438192 1568.16 0.523357C1565.05 0.477701 1561.93 0.432045 1558.82 0.386389C1574.22 0.509552 1577 0.394008 1580.47 0.400305C1594.46 0.425597 1613.68 0.54204 1626.71 0.531414C1641.95 0.519188 1642 0.307838 1659.77 0.390051C1655.56 0.343419 1651.34 0.296786 1647.12 0.250153C1659.4 0.261384 1671.67 0.272615 1683.94 0.283846C1655.52 0.563614 1690.07 0.297193 1692.35 0.29117C1695.98 0.280988 1690.76 0.395524 1696.84 0.381262C1697.46 0.378914 1696.56 0.271056 1705.91 0.258943C1725.47 0.234001 1722.38 0.369611 1730.59 0.368077C1731.34 0.367379 1728.71 0.270211 1742.89 0.247223C1787.96 0.174044 1742.66 0.321686 1740.93 0.335117C1738.66 0.352832 1754.12 0.758898 1715.83 0.614913C1728.69 0.660751 1729.98 0.840442 1731.43 0.844902C1732.71 0.848569 1754.98 0.823258 1756.21 0.817069C1767.16 0.75605 1757.52 0.633255 1759.66 0.611251C1761.4 0.593512 1788.23 0.753536 1794.52 0.384192C1807.36 0.724868 1787.14 0.693657 1765.61 0.746022C1762.47 0.81593 1786.11 0.883909 1787.35 0.883722C1817.85 0.883101 1800.96 0.602873 1807.63 0.423744C1811.13 0.330019 1823.56 0.5212 1812.09 0.269929C1839.76 0.243406 1822.98 0.389011 1824.77 0.41056C1827.46 0.442219 1837.15 0.370204 1838.36 0.379797C1840.14 0.393998 1833.96 0.480994 1840.97 0.511638C1842.14 0.516093 1853.44 0.366388 1838.87 0.294833C1858.34 0.316115 1856.74 0.188461 1863.34 0.445717C1876.75 -0.0409803 1873.07 0.7334 1878.35 0.760671C1892.4 0.832556 1888.32 0.450435 1889.07 0.431801C1894.18 0.31239 1933.06 0.443656 1942.69 0.388586C1938.89 0.663813 1911.86 0.391591 1905.82 0.444985C1885.68 0.622624 1934.21 0.582588 1919.58 0.928401C1925.72 0.833427 1931.85 0.738453 1937.99 0.643478C1949.23 0.865823 1933.28 0.962776 1963.55 0.881525C1968.49 0.689612 1942.15 0.911837 1947.43 0.760671C1950.55 0.671952 1968.1 0.652897 1968.44 0.606123C1968.79 0.54982 1952.93 0.616547 1955.43 0.529949C1960.89 0.34307 2018.74 0.520978 1974.7 0.62297C1986.98 0.619776 1993.31 0.991482 2003.97 0.875665C2010.85 0.80049 1972.1 0.287122 2030.24 0.381262C2031.48 0.556784 2007 0.433092 2006.36 0.44645C2005.47 0.465893 2009.9 0.861974 2010.66 0.881525C2013.37 0.945891 2072.75 0.733799 2085.29 0.932796C2080.33 0.703876 2130.16 0.891948 2135.59 0.822196C2137.03 0.802939 2131.63 0.662715 2133.18 0.647873C2142.81 0.559537 2168.88 0.809851 2180.97 0.816337C2194.5 0.823686 2192.79 0.702578 2193.54 0.702807C2199.5 0.709562 2194.74 0.791665 2198.38 0.791433C2203.88 0.791039 2241.66 0.807832 2243.56 0.790701C2244.11 0.785362 2237.95 0.647016 2246.18 0.620773C2247.61 0.616226 2246.71 0.780251 2271.1 0.709399C2300.48 0.624184 2250.7 0.505424 2262.91 0.333652C2281.78 0.578227 2281.17 0.335863 2286.28 0.354893C2288.06 0.361825 2301.24 0.567888 2315.57 0.554852C2305.29 0.588301 2295.01 0.621749 2284.73 0.655198C2294.83 0.69133 2314.46 0.646607 2322.78 0.687426C2326.84 0.707295 2323.5 0.876576 2332.32 0.872003C2334.19 0.870111 2341.62 0.457691 2318.51 0.642746C2316.66 0.495484 2327.66 0.59138 2332.76 0.549725C2333.53 0.543234 2336.58 0.297215 2343.09 0.450112C2344.66 0.487729 2327.62 1.20538 2371.55 0.685961C2372.97 0.66922 2368.05 0.579343 2369.43 0.560712C2370.38 0.548094 2381.59 0.58445 2382.83 0.571699C2384.09 0.558017 2378.68 0.459897 2380.19 0.44059C2387.92 0.341102 2398.07 0.730261 2382.12 0.70061C2387.46 0.748707 2392.79 0.796805 2398.12 0.844902C2392.41 0.551606 2406.49 0.76238 2413.86 0.753346C2461.13 0.695619 2429.48 0.504861 2437.61 0.406165C2450.68 0.247697 2440.69 0.749615 2460.1 0.598799C2461.89 0.584699 2438.44 0.371642 2484.24 0.491861C2477.48 0.500163 2470.72 0.508464 2463.96 0.516765C2467.86 0.800448 2488.37 0.497305 2489.94 0.493326C2507.93 0.454375 2495.77 0.556642 2522.48 0.41056C2524.86 0.397444 2530.06 0.467456 2535.16 0.432533C2556.3 0.288658 2507.26 0.345227 2505.92 0.230377C2505.28 0.174101 2558.02 0.188274 2559.83 0.214995C2567.52 0.333447 2535.92 0.267167 2541.95 0.414222C2544.14 0.466436 2619.3 0.359195 2634.38 0.416419C2651.78 0.48301 2659.62 0.86763 2659.73 0.435463C2664.64 0.859674 2668.98 0.570242 2671.2 0.573164C2698.11 0.612433 2698.16 0.616714 2721.24 0.576093C2726.33 0.567264 2730.63 0.695975 2732.44 0.674242C2733.49 0.661115 2731.53 0.523374 2736.66 0.480875C2743.8 0.422735 2786.7 0.564407 2789.89 0.640549C2793.07 0.716691 2771.77 0.673569 2775.59 0.798758C2791.01 0.811413 2805.8 0.780437 2821.32 0.793631C2827.77 0.799487 2824.45 0.887106 2827.24 0.888849C2828.43 0.889926 2850.69 0.812767 2849.75 0.780447C2847.54 0.705292 2778.79 0.75581 2796.89 0.602461C2800.38 0.572831 2812.72 0.774745 2810.76 0.529216C2872.18 0.584883 2933.6 0.640549 2995.03 0.696215C2959.74 0.879858 2920.02 0.715619 2883.06 0.732838C2877.99 0.734963 2860.86 0.711282 2862.95 0.835381C2894.38 0.867508 2933.46 0.802849 2963.64 0.883722C2964.61 0.886398 2961.06 0.997894 2964.68 1.01556C2971.44 1.04854 2993.46 0.868717 2997.16 0.915217C2997.8 0.92605 2985.26 1.07304 2989.08 1.16645C2998.86 1.40616 3001.34 0.875234 3009.75 0.881525C3016.26 0.886615 3059.96 1.14333 3070.85 0.981138C3082.42 0.808263 3038.64 0.880774 3041.87 0.739429C3071.5 0.597385 3101.49 0.749068 3129.49 0.731372C3129.98 0.730922 3125.7 0.620157 3131.94 0.604659C3142.81 0.577688 3145.67 0.734804 3150.96 0.759938C3156.66 0.786695 3176.84 0.764179 3179.54 0.821464C3179.88 0.828975 3175.79 0.984814 3175.17 0.989195C3166.38 1.05342 3163.26 0.851161 3162.46 0.848565C3159.46 0.840895 3156.5 0.918367 3153.76 0.913753C3149.25 0.906058 3146.77 0.834383 3140.81 0.828056C3136.7 0.823424 3140.67 0.961064 3136.7 0.95477C3135.25 0.951902 3119.57 0.637613 3118.1 0.958432C3117.65 1.05959 3245.91 1.18948 3258.73 1.10858C3247.73 1.07001 3236.74 1.03143 3225.74 0.992857C3248.07 1.08676 3274.9 0.83042 3276.8 1.20966C3359.61 1.24067 3442.42 1.27168 3525.23 1.30268C3540.01 1.33499 3531.9 1.5787 3556.23 1.50777C3549.94 1.43013 3543.66 1.35249 3537.37 1.27485C3549.84 1.32932 3605.09 1.43572 3614.03 1.38545C3615.19 1.37886 3616.8 1.1583 3630.6 1.13935C3642.85 1.12261 3644.82 1.28787 3651.37 1.31953C3656.87 1.34565 3663.04 1.30235 3664.68 1.31147C3665.93 1.31878 3666.42 1.41983 3669.44 1.43745C3678.95 1.49194 3671.24 1.2074 3680.68 1.53414C3678.38 1.54659 3676.08 1.55904 3673.78 1.57149C3685.27 1.61878 3700.95 1.76712 3684.04 1.8403C3681.13 1.85294 3683.63 1.75517 3681.46 1.75534C3596.55 1.77351 3664.35 1.96356 3694.11 1.81174C3701.75 1.9566 3744.58 1.86815 3746 1.8967C3747.98 1.93805 3740.65 2.05382 3750.26 2.15379C3752.28 2.17495 3809.55 2.09384 3788.93 2.28636C3784.67 2.32608 3757.22 2.28435 3750.6 2.29003C3766.17 2.59706 3802.68 2.15717 3806.78 2.16844C3823.34 2.21629 3774.97 2.43453 3812.27 2.47021C3840.96 2.49759 3814.03 2.29257 3825.06 2.20506C3831.26 2.15596 3863.72 2.38181 3862.84 2.08933C3873.98 2.0581 3867.46 2.21297 3868.84 2.22411C3870.18 2.2339 3892.09 2.14634 3899.2 2.20799C3900.07 2.21566 3897.35 2.36768 3898.24 2.38012C3899.98 2.40141 3921.1 2.37102 3921.95 2.35814C3922.49 2.34919 3917.46 2.2161 3919.53 2.18382C3921.94 2.1466 3942.27 2.17792 3943.39 2.13987C3944.98 2.08235 3919.88 2.12025 3924.06 1.97141C3935.63 2.00889 3954.48 1.90958 3962.12 1.78976C3960.24 1.82402 3949.03 1.82894 3945.13 1.81686C3946.97 1.59888 3971.05 1.60185 3962.82 1.77438C3968.05 1.68172 3964.48 1.63257 3967.43 1.54512C3968.2 1.52297 3975.64 1.51841 3977.07 1.48067C3977.26 1.47315 3969.58 1.3909 3971.12 1.34663C3973.9 1.26662 3996.45 1.28462 3998.29 1.30561C4003.49 1.36509 3985.1 1.43707 3983.57 1.52901C3983.35 1.54313 3998.99 1.72331 3999.23 1.73922C4000.14 1.90996 3982.74 1.78692 3984.73 1.94065C3989.03 1.97312 3993.34 2.00559 3997.64 2.03806C3981.04 2.19374 3950.33 2.11369 3942.42 2.29076C3967.02 2.23807 3992.78 2.2443 3992.72 2.64307C3992.71 2.81101 3982.09 2.90946 3982.5 2.95216C3984.07 3.10495 3998.81 2.93897 3999.35 2.94703C3999.8 2.95634 4000 2.96541 4000 2.97423C4000 2.97424 4000 2.97424 4000 2.97425C4000 3.0637 3978.99 3.12812 3977.94 3.16896C3976.17 3.24152 3985.52 3.54018 3985.51 3.60624C3985.18 3.61951 3970.22 3.69019 3975.27 3.80546C3980.38 3.9219 3993.47 3.92447 3993.93 3.93657C3996.43 4.00623 3973.53 4.06976 3972.84 4.1109C3972.48 4.13169 3984.78 4.25947 3985.14 4.29621C3985.45 4.33307 3976.1 4.4135 3972.42 4.52986C3969.67 4.6163 3977.67 4.68257 3976.26 4.69612C3975.26 4.70511 3953.61 4.70363 3952.55 4.71883C3950.96 4.7413 3956.03 4.84462 3955.29 4.87045C3954.25 4.9076 3947.26 4.87031 3948.17 4.90853C3948.85 4.93702 3975.95 5.29316 3975.77 5.38829C3975.46 5.55054 3946.77 5.17722 3973.47 5.8175C3973.65 5.82171 3980.15 5.7762 3980.33 5.78015C3984.34 5.89795 3963.51 6.07917 3988.99 6.04749C3941.6 6.2521 3983.09 6.2914 3976.08 6.5646C3973.37 6.66961 3955 6.71291 3954.91 6.72867C3956.7 6.86189 3962.55 6.75857 3964.54 6.82389C3965.64 6.86039 3949.2 7.00124 3952.9 7.0927C3954.81 7.13983 3972.26 7.12306 3972.98 7.13225C3979.88 7.21897 3971.42 7.31237 3972.93 7.37396C3973.94 7.41526 3984.47 7.41853 3984.74 7.42596C3985.19 7.44143 3970.89 7.60828 3967.91 7.66694C3965.65 7.71207 3974.15 7.78277 3972.57 7.80244C3963.05 7.92009 3942.8 7.62004 3962.31 8.04049C3963.51 8.06627 3970.89 8.05586 3971.1 8.061C3975.66 8.18019 3962.08 8.19049 3959.64 8.28806C3955.47 8.45619 3975 8.36245 3958.76 8.48069C3970.94 8.59064 3977.73 8.58605 3991.99 8.5554C3952.51 8.6409 3938.58 9.07614 3982.41 9.06518C3968.47 9.0584 3970.01 9.30405 3965.85 9.30836C3963.27 9.31076 3943.05 9.06652 3952.32 9.61452C3953.48 9.68298 3965.76 9.596 3961.92 9.73611C3932.44 9.70036 3961.29 9.82526 3961.32 9.84378C3960.94 10.1666 3888.92 9.90219 3876.54 9.939C3862.18 9.98169 3849.42 10.2361 3846.3 10.2364C3836.03 10.2365 3844.55 10.1073 3842.26 10.0599C3839.93 10.0128 3810.73 10.2602 3809.27 10.2466C3803.61 10.192 3809.35 10.039 3808.76 10.0313C3801.76 9.93751 3762.54 10.0573 3751.56 10.0218C3751.9 10.121 3773.94 10.1289 3760.18 10.2884C3744.15 10.4743 3743.23 10.0366 3742.82 10.0174C3669.38 10.0215 3595.94 10.0257 3522.51 10.0298C3523.42 10.2627 3571.44 10.0871 3572.53 10.1177C3578.94 10.2992 3497.84 10.2959 3487.89 10.2137C3495.44 10.264 3503 10.3143 3510.56 10.3646C3497.66 10.6322 3469.09 10.2845 3450.43 10.4026C3444.4 10.441 3455.98 10.5443 3455.74 10.5513C3448.96 10.6553 3438.08 10.5752 3446.21 10.4356C3429.67 10.5693 3432.09 10.4218 3419.39 10.4107C3418.74 10.4102 3424.19 10.5183 3414.14 10.563C3409.43 10.5839 3384.33 10.5843 3380.97 10.6788C3379.59 10.7186 3392.32 11.1375 3393.89 10.7769C3421.2 10.9527 3402.62 10.6126 3413.23 10.6209C3414.85 10.6228 3411.11 10.824 3437.82 10.7293C3432.73 11.0922 3401.97 10.8209 3396.7 10.8648C3385.83 10.9552 3430.64 11.1426 3438.86 10.8597C3435.02 11.1429 3442.04 10.8979 3452.03 10.9095C3462.96 10.9221 3458.2 11.0065 3464.11 11.0069C3480.29 11.009 3473.59 10.8091 3486.93 10.9893C3473.92 10.4314 3509.76 10.9157 3520.2 11.0618C3503.21 11.0902 3486.22 11.1185 3469.23 11.1468C3470.2 11.1761 3471.17 11.2054 3472.14 11.2347C3467.66 11.2306 3463.19 11.2264 3458.71 11.2222C3459.43 11.1942 3460.15 11.1661 3460.86 11.138C3437.78 11.3206 3432.15 11.1154 3430.27 11.1131C3406.04 11.0893 3378.06 11.0911 3353.56 11.0904C3349.89 11.0903 3352.41 11.2729 3325.62 11.13C3317.08 11.0844 3325.15 10.9424 3315.46 10.9637C3303.35 11.3497 3303.58 11.0418 3299.97 11.0413C3289.64 11.0414 3283.32 11.137 3282.37 11.138C3269.6 11.1529 3250.89 11.137 3236.86 11.1512C3236.6 11.1527 3243.9 11.2713 3234.79 11.2362C3231.59 11.2236 3202.89 10.7174 3177.8 10.8824C3184.32 10.9166 3190.85 10.9508 3197.37 10.9849C3189.7 10.9372 3135.93 11.0648 3149.08 11.2003C3157.14 11.2831 3176.81 10.9568 3178.97 11.2706C3161.08 11.1767 3062.26 11.3171 3054.57 11.2442C3053.5 11.2338 3060.05 11.132 3058.58 11.119C3057.44 11.1091 3034.81 11.1332 3031.8 11.0941C3030.01 11.0708 3040.01 11.0084 3039.2 10.9718C3038.49 10.9456 3010.22 10.902 3008.61 11.0296C3015.55 10.9784 3035.06 11.0231 3024.83 11.1307C3023.51 11.1441 3016.69 11.0617 3015.09 11.0787C3000.26 11.2351 3044.59 11.1975 3051.45 11.1988C3023.6 11.3614 2980.53 11.1697 2948.26 11.2757C2935.22 11.1695 2967.59 11.1132 2952.84 11.0252C2922.23 10.8428 2944.69 11.1721 2943.74 11.1856C2936.14 11.2928 2910.25 10.7185 2910.23 11.1556C2899.14 11.0898 2902.73 11.0347 2887.07 11.0919C2889.13 11.1221 2891.19 11.1524 2893.25 11.1827C2875.86 11.4359 2839.07 10.7971 2841.83 10.7484C2849.24 10.6179 2868.41 10.8214 2870.04 10.8165C2872.46 10.8092 2879.16 10.3657 2905.67 10.7623C2916.53 10.4648 2863.65 10.5615 2887.71 10.3587C2871.46 10.392 2804.62 10.1849 2795 10.3155C2793.85 10.3325 2799.2 10.629 2782.68 10.4781C2774.85 10.4062 2793.75 10.4028 2790.16 10.3353C2779.12 10.128 2629 10.2606 2600.48 10.2715C2598.63 10.2719 2599.31 10.1799 2597.49 10.1807C2591.9 10.1833 2571.54 10.3205 2561.54 10.2781C2582.26 10.4484 2542.02 10.4617 2531.78 10.4429C2516.25 10.4144 2517.21 10.2525 2510.5 10.2181C2484.63 10.0853 2444.55 10.4697 2424.45 10.1104C2425.55 10.467 2389.69 9.93554 2373.38 9.93241C2360.6 9.92985 2342.07 10.1659 2359.31 10.3096C2337.26 10.2932 2314.04 10.3597 2293.35 10.3814C2289.93 10.385 2294.64 10.2796 2288.8 10.2891C2288.27 10.2907 2287.54 10.3941 2282.53 10.4048C2241.17 10.4949 2261.29 10.2753 2253.55 10.2107C2249.22 10.1746 2246.03 10.1566 2243.68 10.1507C2267.79 10.1305 2295.6 10.0899 2303.04 10.087C2296.7 9.85873 2249.6 10.1308 2235.81 10.0694C2235.33 10.0671 2237 9.94135 2236.51 9.94046C2236.5 9.94046 2236.49 9.94046 2236.48 9.94046C2231.31 9.93082 2198.39 9.97725 2205.17 10.1272C2206.99 10.1673 2222.14 10.1672 2240.11 10.1536C2235.25 10.1817 2238.88 10.3227 2238.02 10.3287C2227.61 10.3983 2202.11 10.2608 2193.07 10.2422C2191 10.2382 2191.15 10.3284 2190.81 10.3287C2182.58 10.3082 2185.96 10.0504 2177.52 10.3162C2162.62 9.99494 2205.44 10.2685 2202.42 10.0599C2200.1 9.89921 2105 9.98549 2105.28 10.2386C2104.96 10.2115 2103.65 10.1779 2100.97 10.1397C2095.02 10.0548 2068.55 10.0813 2063.98 10.128C2063.21 10.1371 2063.52 10.3828 2062.56 10.3851C2060.17 10.3907 2027.81 10.1981 2015.73 10.3433C2022.26 10.3777 2028.78 10.4122 2035.31 10.4466C1995.9 10.4487 2001.99 10.5218 2015.12 10.5953C2015.78 10.5959 2016.42 10.6053 2017.04 10.6063C2027.22 10.6606 2040.27 10.7129 2040.46 10.7322C2041.21 10.8062 1974.35 10.8473 1987.21 10.6194C1989 10.5883 2019.94 10.6898 2004.62 10.5272C2001.94 10.4987 1982.07 10.5451 1981.03 10.5272C1974.05 10.408 2017.43 10.2497 2012.13 10.0804C2001.6 10.2416 1988.09 10.1567 1976.01 10.1983C1970.52 10.2171 1969.17 10.3403 1968.49 10.3426C1958.36 10.3747 1964.04 10.2456 1960.66 10.2488C1958.85 10.251 1938.88 10.5259 1942.66 10.147C1876.88 10.4257 1924.46 10.4254 1964.81 10.4041C1952.06 10.5421 1927.06 10.4753 1915.85 10.5074C1911.82 10.519 1914.21 10.6454 1907.41 10.6707C1893.41 10.7227 1826.61 10.5775 1809.2 10.5433C1819.89 10.4986 1816.77 10.3609 1808.52 10.3704C1800.26 10.38 1807.19 10.5638 1805.59 10.5836C1803.86 10.604 1765.15 10.5173 1758.71 10.5411C1787.85 10.4745 1781.28 10.3372 1756.54 10.3228C1760.12 10.2832 1763.69 10.2437 1767.27 10.2041C1752.77 10.2597 1722.29 10.0502 1713.91 10.1126C1712.6 10.1226 1717.32 10.2381 1716.58 10.2437C1709.23 10.2928 1684.22 10.175 1683.06 10.2144C1682.07 10.2472 1692.74 10.344 1688.78 10.3917C1687.95 10.4017 1677.67 10.2456 1667.54 10.284C1663.78 10.2981 1666.04 10.4073 1665.1 10.4136C1657.21 10.4661 1661.86 10.2823 1647.44 10.3118C1636.88 10.3337 1629.01 10.5135 1614.41 10.4539C1662.35 10.6831 1622.05 10.5874 1602 10.6568C1598.79 10.6679 1601.54 10.8661 1582.35 10.7696C1623.2 10.4112 1570.7 10.5801 1559.96 10.5762C1559.38 10.575 1559.17 10.4443 1553.91 10.4422C1553.46 10.4423 1554.1 10.5307 1549.21 10.5374C1502.78 10.6013 1532.47 10.5015 1523.65 10.4144C1519.89 10.3772 1497.32 10.5022 1491.24 10.5052C1489.84 10.5055 1490.48 10.4137 1485.07 10.4173C1475.5 10.4239 1466.93 10.5216 1460.61 10.5294C1459.88 10.5298 1459.85 10.385 1447.87 10.4319C1444.51 10.4451 1440.73 10.4965 1445.51 10.5381C1461.37 10.6751 1491.44 10.4381 1509.37 10.5748C1525.71 10.6993 1474.17 10.711 1471.49 10.7117C1470.51 10.7122 1480.57 10.6403 1470.35 10.626C1461.62 10.6142 1445.66 10.8644 1432.64 10.8099C1431.65 10.8058 1421.26 10.5937 1421.73 10.5814C1422.17 10.5723 1438.14 10.5263 1435.82 10.4649C1435.54 10.4579 1425.39 10.4593 1424.07 10.4136C1422.45 10.358 1418.07 9.81206 1415.91 9.79837C1410.34 9.76455 1413.96 9.88906 1410.37 9.8804C1402.65 9.86214 1375.9 9.70069 1375.03 9.88992C1379.45 9.90115 1383.87 9.91238 1388.29 9.92362C1363.7 9.94308 1374.18 10.0236 1370.69 10.0591C1366.94 10.0975 1368 9.93118 1359.71 9.91556C1357.9 9.91212 1323.22 9.94684 1323.85 10.0166C1343.03 9.90556 1335.92 10.1111 1336.8 10.1148C1340.16 10.1282 1344.46 10.0129 1348.97 10.0152C1380.68 10.0332 1348.7 10.2152 1356.18 10.262C1358.76 10.2778 1363.89 10.1793 1364.99 10.1844C1368.54 10.2007 1368.6 10.3296 1370.97 10.3191C1376.5 10.2949 1370.04 10.1126 1370.48 10.1031C1375.42 9.98893 1394.79 10.1309 1382.73 10.3294C1389.97 10.4009 1390.82 10.1597 1396.56 10.2561C1407.97 10.4471 1390.87 10.398 1386.24 10.4297C1369.63 10.5441 1364.7 10.4515 1341.18 10.4832C1332.71 10.4944 1322.68 10.6115 1318.75 10.618C1316.28 10.622 1292.91 10.2144 1292.22 10.8524C1283.13 10.7906 1268.88 10.3702 1259.52 10.3895C1251.11 10.407 1253.79 10.6327 1253 10.6414C1251.8 10.6551 1241.64 10.6374 1238.2 10.6692C1234.17 10.7069 1236.18 10.7931 1229.79 10.8282C1213.89 10.9153 1214.31 10.685 1212.67 10.67C1193.7 10.4969 1202.01 10.8246 1197.8 10.8509C1193.88 10.8751 1138.95 10.7489 1127.39 10.8319C1132.1 10.7857 1136.8 10.7396 1141.51 10.6934C1133.09 10.5497 1124.16 10.7841 1124 10.5264C1122.3 10.9424 1104.92 10.6644 1099.7 10.6751C1097.64 10.6795 1097.8 10.7504 1095.23 10.7535C1085.17 10.7659 1062.49 10.7095 1057.03 10.7454C1033.44 10.9002 1093.77 11.1576 1098.52 11.1732C1089.01 11.1686 1035.22 11.2618 1059.95 11.4618C1063.77 11.4926 1070.54 11.3064 1072.69 11.2992C1087.22 11.2512 1075.79 11.4181 1076.93 11.4339C1078.87 11.4595 1088.43 11.2983 1090.95 11.3175C1091.8 11.3236 1086.37 11.4747 1100.23 11.4779C1093.42 11.6243 1054.47 11.505 1049.36 11.5394C1047.54 11.5517 1058.95 11.8646 1025.62 11.5606C1026 11.5897 1026.39 11.6187 1026.78 11.6478C1008.22 11.6598 989.655 11.6717 971.095 11.6837C973.112 11.6168 983.533 11.4823 970.409 11.5108C962.853 11.5273 968.443 11.6764 967.754 11.6808C960.973 11.7218 840.957 11.6722 817.698 11.6888C809.787 11.6942 787.733 11.814 786.052 11.8163C775.997 11.8283 740.39 11.7503 733.287 11.7672C728.851 11.778 733.068 11.9027 729.106 11.8968C725.423 11.8912 729.238 11.7708 728.144 11.7657C719.083 11.7221 650.251 11.8801 633.906 11.7665C643.895 11.8006 693.746 11.5599 692.744 11.4749C692.527 11.4633 680.412 11.3717 677.912 11.4163C673.783 11.3121 659.607 11.6296 651.896 11.5672C651.024 11.5601 654.458 11.382 640.696 11.3497C635.955 11.3386 623.542 11.4775 611.048 11.3219C592.961 11.3966 497.867 11.1656 491.343 11.357C491.149 11.3671 504.54 11.433 495.493 11.5116C483.466 11.616 494.267 11.2643 480.25 11.234C478.137 11.2294 439.137 11.2649 437.861 11.2867C426.049 11.4841 460.127 11.5641 459.65 11.587C458.462 11.6448 430.146 11.6797 428.995 11.6661C427.9 11.6519 450.992 11.3904 423.243 11.4896C426.421 11.5208 429.6 11.5521 432.779 11.5833C419.729 11.6442 418.485 11.4633 415.323 11.4522C405.495 11.4172 394.862 11.6921 379.114 11.3526C374.95 11.2625 381.863 11.1625 381.342 11.149C376.34 11.0278 369.958 11.3521 362.436 11.1102C361.87 11.0921 379.375 10.9472 348.779 10.9468C350.885 10.97 352.991 10.9932 355.097 11.0164C350.782 11.0682 319.805 11.099 315.637 11.0867C303.463 11.051 314.08 10.8845 301.843 10.9044C309.692 11.1325 272.481 11.1623 274.622 10.9659C269.424 11.2126 237.815 11.0223 222.955 11.0164C213.579 11.0129 194.455 11.1206 191.476 11.108C187.847 11.0926 188.95 10.9243 182.397 10.8868C180.529 10.8761 161.022 10.9995 143.899 10.8253C140.581 10.7917 133.612 10.5062 139.779 10.4349C150.336 10.3128 170.308 10.5428 170.053 10.3741C169.753 10.1936 142.854 10.3009 135.614 10.2774C102.187 10.1685 121.489 9.97663 120.629 9.91849C118.4 9.77738 100.136 9.78176 99.3739 9.76907C96.2155 9.71271 109.158 9.60103 109.353 9.51491C109.589 9.40277 91.9842 9.2004 95.9865 9.1626C101.715 9.10892 117.895 9.2776 118.92 9.26954C132.273 9.16075 113.97 8.90168 108.926 8.7744C107.397 8.73525 113.49 8.67089 112.222 8.65941C92.8682 8.48515 108.142 9.0235 95.2693 8.98755C83.7841 8.9555 98.5614 8.78525 98.1227 8.77587C97.5556 8.76555 83.8234 8.75627 81.6737 8.69603C80.6142 8.66587 116.306 8.33472 114.816 8.18625C103.428 8.21896 92.0395 8.25168 80.6513 8.28439C79.7585 8.0908 96.1385 8.23331 97.8328 8.21335C101.243 8.17329 91.733 8.07533 92.1412 8.01412C92.3602 7.97519 103.522 7.83627 93.4382 7.779C89.9726 7.75922 82.6994 7.89496 70.077 7.7563C114.005 7.57919 83.5636 7.47037 82.2688 7.40179C81.0004 7.33322 101.972 7.17183 76.5162 7.20037C75.4125 6.82361 77.0649 7.08128 84.2982 7.01506C93.1592 6.93366 72.6798 6.8096 105.065 6.90373C103.223 6.72733 77.1924 6.73981 75.8143 6.72574C74.6243 6.71298 80.4104 6.62622 78.3473 6.59683C53.9444 6.25599 70.7055 6.41164 63.6377 6.19398C63.0092 6.17453 39.9446 6.09384 57.5037 6.06214C89.4937 6.00451 102.863 6.25447 108.239 5.72009C84.5773 5.48796 55.9075 5.8329 48.7146 5.83874C37.7049 5.84716 49.11 5.73818 47.7533 5.70764C47.2821 5.69777 37.7946 5.70677 37.6672 5.69811C30.9021 5.29053 79.903 5.69135 95.3303 5.62047C91.1952 5.55944 87.06 5.4984 82.9249 5.43736C88.5351 5.43492 94.1452 5.43248 99.7554 5.43004C73.0286 5.30734 98.8131 5.38358 105.477 5.05356C106.974 4.9794 89.4151 5.10657 109.445 4.90048C94.6718 4.8529 99.3839 4.78547 86.0072 4.8785C86.3524 4.74622 116.449 4.597 128.32 4.52912C86.3834 4.38047 110.298 4.86568 74.0443 4.60896C67.3214 4.77276 84.6259 4.74087 83.2148 4.7679C78.1521 4.86511 66.2839 4.71076 51.9647 5.05136C49.6332 5.10728 59.4988 5.27941 44.8999 5.2711C43.2852 5.26992 33.9829 5.12282 34.1119 5.11215C35.3451 4.99695 44.5504 5.04012 44.9304 4.99203C45.287 4.94651 35.0171 4.97389 34.9817 4.96127C34.6661 4.81694 43.5505 4.90611 42.2601 4.86092C39.4734 4.76266 2.53252 4.45207 50.744 4.54304C10.6992 4.70621 45.6171 4.70241 61.2116 4.63972C65.1885 4.62401 66.1956 4.5378 71.8623 4.50788C79.1514 4.46914 87.6828 4.51052 91.4546 4.4947C95.5111 4.47726 72.462 4.27348 105.798 4.33429C88.8322 4.1316 58.8646 4.3477 42.1991 4.20538C8.57584 3.91779 65.6427 3.85604 71.5876 3.82817C73.1714 3.82062 67.8615 3.70419 68.9173 3.69706C70.6438 3.68612 103.032 3.73994 106.225 3.64359C109.41 3.54733 94.3622 3.64803 93.3619 3.54764C92.6839 3.48006 131.755 3.36018 110.604 3.31399C96.0265 3.28233 69.1557 3.55396 64.6296 3.26199C86.0682 3.23782 107.507 3.21364 128.946 3.18947C117.211 3.07839 105.477 2.9673 93.7434 2.85621C117.806 2.82098 138.608 2.94639 161.462 2.78736C106.545 2.43139 179.293 2.50328 180.093 2.45995C180.361 2.43404 158.745 2.14511 155.267 2.09226C174.421 1.98111 232.623 1.9268 198.572 1.57003C204.752 1.65058 219.719 1.45173 219.522 1.43672C217.621 1.27911 184.977 1.38131 190.301 1.23896C196.471 1.07376 205.117 1.29787 214.609 1.27998C263.315 1.18667 249.953 0.363858 298.792 0.494059C297.82 0.464761 296.849 0.435463 295.877 0.406165C348.963 0.452797 402.048 0.49943 455.133 0.546063C475.903 0.294791 531.18 0.141784 558.329 0.169584C563.796 0.174998 590.636 0.306871 592.661 0.32999C596.412 0.374299 575.789 0.391206 585.108 0.474283C587.076 0.491335 632.517 0.546745 629.267 0.406165C624.175 0.389865 608.239 0.460531 605.631 0.427406C587.31 0.190973 727.399 0.379857 734.339 0.284578C731.237 0.238922 728.134 0.193266 725.032 0.14761C733.872 0.170072 742.712 0.192534 751.551 0.214995ZM345.346 11.5057C340.041 11.6468 326.744 11.5408 318.887 11.5804C308.033 11.6359 289.58 12.179 297.525 11.6346C313.465 11.5916 329.406 11.5487 345.346 11.5057ZM578.318 11.7159C567.629 11.6402 575.92 11.3361 584.681 11.4625C585.653 11.4769 592.78 11.8179 578.318 11.7159ZM466.257 11.5716C466.707 11.5676 475.944 11.5756 476.267 11.5804C484.551 11.7025 456.701 11.6775 466.257 11.5716ZM1007.59 11.4156C995.817 11.4287 1004.35 11.7052 1011.67 11.5914C1012.13 11.5842 1008.37 11.415 1007.59 11.4156ZM999.217 11.4083C990.07 11.1608 971.647 11.6624 986.293 11.6119C987.714 11.6068 999.641 11.4203 999.217 11.4083ZM540.217 11.5951C541.42 11.5002 552.446 11.546 557.154 11.5687C557.026 11.6553 544.834 11.5845 540.217 11.5951ZM819.774 11.5687C820.242 11.4941 781.918 11.4982 779.307 11.5965C785.356 11.5548 819.333 11.6357 819.774 11.5687ZM918.056 11.464C917.084 11.4511 903.845 11.4707 904.231 11.5365C910.694 11.6228 922.43 11.5223 918.056 11.464ZM1113.4 11.4684C1114.12 11.4518 1104.2 11.0331 1127.7 11.3087C1131.15 11.349 1118.83 11.4585 1120.05 11.4735C1122.62 11.5028 1124.65 11.5164 1126.28 11.5189C1115.34 11.5536 1103.97 11.5699 1102.87 11.5445C1097.71 11.4246 1113.08 11.4753 1113.4 11.4684ZM1215.95 11.1563C1218.21 11.088 1232.61 11.1245 1235.88 11.1527C1236.44 11.158 1233.99 11.3375 1240.47 11.3241C1245.68 11.313 1237.9 11.1291 1248.04 11.1585C1258.29 11.1881 1244.6 11.3191 1245.49 11.3285C1246.69 11.3407 1262.54 11.2581 1262.05 11.3651C1261.68 11.4443 1244.7 11.3907 1240.51 11.4076C1235.13 11.4292 1241.65 11.5612 1232.66 11.5328C1227.02 11.5151 1230.15 11.283 1228.95 11.2713C1227.96 11.2619 1208.22 11.3954 1215.98 11.1571C1215.97 11.1568 1215.96 11.1566 1215.95 11.1563ZM1129.24 11.5086C1128.41 11.5165 1127.45 11.5206 1126.28 11.5189C1127.27 11.5157 1128.26 11.5121 1129.24 11.5086ZM376.23 11.4039C381.786 11.4755 365.294 11.5672 359.049 11.4735C358.941 11.3979 375.345 11.3928 376.23 11.4039ZM1139.39 11.3197C1155.64 11.3778 1143.68 11.4578 1129.24 11.5086C1133.82 11.465 1133.93 11.3002 1139.39 11.3197ZM677.912 11.4163C678.597 11.4337 679.032 11.4606 679.087 11.505C677.286 11.4565 677.124 11.4304 677.912 11.4163ZM715.831 11.4955C728.829 11.3604 702.419 11.3659 702.586 11.4625C702.665 11.499 715.31 11.5008 715.831 11.4955ZM1022.7 11.4288C1021.51 11.4156 1039.98 11.0078 1013.16 11.3138C1027.48 11.3619 1012.38 11.4063 1012.6 11.442C1013.18 11.5446 1037.23 11.446 1042.55 11.4903C1046.72 11.3067 1026.63 11.4723 1022.73 11.4288C1022.72 11.4288 1022.71 11.4288 1022.7 11.4288ZM1400.78 11.2552C1397.53 11.3628 1387.19 11.3282 1380.22 11.3219C1383.47 11.2143 1393.81 11.2489 1400.78 11.2552ZM3225.94 11.2706C3178.15 11.3701 3171.96 10.9319 3215.68 11.1051C3216.54 11.1087 3228.84 11.2262 3225.94 11.2706ZM2815.78 11.1571C2811.28 10.9661 2826.18 10.9353 2835.97 11.0142C2838.18 11.032 2846.37 11.2254 2837.02 11.2633C2837.32 11.0318 2822.86 10.9433 2815.78 11.1571ZM1148.57 11.1973C1153.3 11.07 1167.87 11.1606 1175.55 11.1798C1170.86 11.2846 1155.36 11.2372 1148.57 11.1973ZM3068.89 11.0421C3063.86 11.0276 3060.46 11.1938 3061.33 11.2076C3065.22 11.271 3074.63 11.1367 3068.89 11.0421ZM1101.54 11.1776C1100.88 11.1015 1120.17 11.0282 1121.52 11.2164C1117.39 11.2028 1102.02 11.2253 1101.54 11.1776ZM1387.63 11.1981C1384.64 11.1594 1400.15 11.0901 1404.84 11.1285C1404.47 11.2095 1389.59 11.2232 1387.63 11.1981ZM2987.79 11.0985C2983.28 11.084 2972.01 11.0796 2970.76 11.1468C2969.21 11.2308 2985.74 11.2022 2987.79 11.0985ZM3827.12 10.9534C3827.69 10.9836 3810.24 11.2011 3802.48 11.1461C3787.74 11.0408 3826.5 10.9321 3827.12 10.9534ZM3116.58 10.9564C3130.8 11.1144 3115.01 10.9614 3115.63 11.1278C3125.21 11.1338 3149.02 11.142 3132.65 10.9783C3129.46 10.9467 3121.04 10.9671 3116.58 10.9564ZM3103.46 10.9007C3101.93 10.9546 3091.68 11.1246 3100.54 11.1124C3104.64 11.1065 3111.24 10.9177 3103.46 10.9007ZM3718.98 11.0274C3706.23 10.8801 3764.68 10.9591 3766.36 10.9849C3767.25 10.9986 3767.83 11.0114 3768.16 11.0223C3770.31 10.9756 3781.35 10.9672 3782.63 11.0853C3779.32 11.0755 3770.28 11.0859 3769.23 11.0728C3768.78 11.0673 3768.44 11.062 3768.21 11.0567C3764.31 11.1592 3721.42 11.0553 3718.98 11.0274ZM3622.13 10.8758C3636.72 10.6585 3639.31 11.028 3638.05 11.0399C3622.17 11.1911 3632.52 10.9186 3632.04 10.9058C3630.93 10.8846 3619.65 11.011 3622.18 10.8758C3622.16 10.8758 3622.15 10.8758 3622.13 10.8758ZM3699.13 10.9666C3699.73 10.9618 3711.98 10.9732 3712.48 10.9791C3722.52 11.1033 3687.86 11.0715 3699.13 10.9666ZM1293.26 10.8978C1302.02 10.9345 1293.42 11.0705 1287.59 11.0216C1287.12 11.0167 1285.52 10.8653 1293.26 10.8978ZM3096.45 10.9373C3094.42 10.9116 3042.41 10.8148 3045.53 11.0201C3049.95 10.9959 3109.07 11.1015 3096.45 10.9373ZM2707.76 10.8875C2716.94 10.8891 2706.94 11.0828 2702.04 11.0106C2700.23 10.9838 2705.45 10.8872 2707.76 10.8875ZM1075.53 11.0018C1066 11.1082 1067.97 10.7513 1076.23 10.8736C1076.55 10.8784 1075.9 10.9976 1075.53 11.0018ZM2781.04 10.9989C2749.41 11.1162 2756.9 10.5023 2798.02 10.7095C2796.73 10.7369 2795.45 10.7642 2794.16 10.7916C2841.62 10.8837 2797.41 10.8348 2785.78 10.8692C2781.37 10.8823 2785.07 10.9847 2781.07 10.9996C2781.06 10.9993 2781.05 10.9991 2781.04 10.9989ZM2659.53 10.8758C2629.07 10.4401 2687.22 10.7238 2703.9 10.6671C2687.73 10.847 2666.68 10.8198 2695.31 11.004C2653.45 11.0396 2670.88 10.8661 2669.2 10.8516C2667.23 10.8354 2660.83 10.8945 2659.53 10.8758ZM2739.88 10.8729C2741.64 10.8602 2754.91 10.9489 2759.69 10.9344C2753.01 11.0833 2728.19 10.9593 2739.88 10.8729ZM3520.6 10.9769C3521.7 10.8602 3524.43 10.7743 3534.9 10.8179C3531.66 10.8765 3524.98 10.9269 3520.6 10.9769ZM335.275 10.8919C328.064 10.8836 313.706 10.8396 318.109 10.9622C318.591 10.9727 335.254 10.9607 335.275 10.8919ZM2945.39 10.8428C2943.86 10.8285 2904.19 10.8189 2917.89 10.9476C2922.02 10.9864 2958.11 10.9699 2945.39 10.8428ZM3150.77 10.8575C3147.45 10.8563 3133.97 10.8782 3133.68 10.9058C3132.77 11.0012 3149.32 10.9488 3150.77 10.8575ZM298.898 10.7725C297.949 10.7604 275.923 10.7819 278.345 10.8384C282.941 10.9455 302.153 10.8142 298.898 10.7725ZM1325.16 10.6246C1327 10.6203 1329.44 10.7469 1330.07 10.7484C1331.57 10.7502 1365.28 10.7014 1352.4 10.8641C1350.25 10.8913 1301.76 10.8289 1295.45 10.8128C1293.01 10.6389 1313.73 10.8043 1318.77 10.7864C1319.66 10.783 1320.22 10.6375 1325.15 10.6253C1325.15 10.6251 1325.16 10.6248 1325.16 10.6246ZM3575.15 10.8538C3576.64 10.7433 3616.26 10.67 3615.8 10.804C3602.25 10.8206 3588.7 10.8372 3575.15 10.8538ZM3555.03 10.8355C3546.57 10.7573 3566.37 10.7314 3572.21 10.7659C3572.27 10.8403 3556.26 10.847 3555.03 10.8355ZM3075.62 10.4444C3071.64 10.4714 3083.89 10.6328 3081.15 10.6641C3079.39 10.6837 3070.5 10.6232 3067.66 10.6736C3066.85 10.6897 3075.93 10.8413 3078.55 10.8348C3082.28 10.826 3078.67 10.7067 3082.73 10.7059C3096.24 10.7033 3108.22 10.7884 3120.88 10.7864C3122.02 10.786 3113.16 10.7017 3122.91 10.7029C3124.42 10.703 3133.47 10.8285 3145.14 10.8099C3170.91 10.4211 3189.83 10.8028 3222.54 10.6627C3221.3 10.626 3196.85 10.5279 3195.41 10.5242C3168.07 10.4603 3119.1 10.4533 3090.47 10.4524C3083.12 10.4521 3086.69 10.5344 3083.53 10.5374C3081.03 10.5396 3084 10.3873 3075.62 10.4444ZM339.105 10.8077C335.669 10.6555 323.612 10.7518 315.912 10.744C318.623 10.8812 331.581 10.774 339.105 10.8077ZM3377.14 10.7176C3373.28 10.7235 3361.31 10.6776 3360.32 10.7235C3359.05 10.7833 3376.32 10.821 3377.14 10.7176ZM1515.19 10.6678C1515.57 10.6636 1524.85 10.6718 1525.2 10.6766C1533.5 10.7987 1505.65 10.7737 1515.19 10.6678ZM1737.32 10.6971C1744.36 10.6783 1751.46 10.6307 1753.83 10.7542C1749.34 10.7353 1736.49 10.7831 1737.32 10.6971ZM2043.76 10.6934C2042.31 10.5317 2063.5 10.6364 2067.5 10.6509C2066.02 10.7228 2044.83 10.8099 2043.76 10.6934ZM3519.08 10.4693C3532.03 10.4789 3529.3 10.2339 3537.52 10.3448C3538.87 10.3635 3543.21 10.8735 3528.96 10.6824C3526.4 10.6481 3536.43 10.5269 3519.08 10.4693ZM2804.72 10.7147C2808.01 10.6077 2818.31 10.6394 2825.27 10.648C2823.71 10.7275 2809.67 10.707 2804.72 10.7147ZM259.119 10.6502C253.042 10.4992 224.964 10.6112 231.912 10.711C232.9 10.724 255.18 10.6445 259.119 10.6502ZM1181.51 10.7095C1193.07 10.5906 1169.14 10.5538 1161.59 10.67C1165.01 10.6624 1180.74 10.7174 1181.51 10.7095ZM1970.15 10.6055C1970.71 10.6007 1982.96 10.6121 1983.5 10.618C1993.54 10.7422 1958.88 10.7104 1970.15 10.6055ZM1664.27 10.5008C1668.69 10.4029 1697.7 10.4819 1704.21 10.5799C1697.95 10.723 1658.8 10.623 1664.27 10.5008ZM3465.76 10.5389C3475 10.5338 3483.77 10.5639 3492.27 10.6063C3490.48 10.6887 3466.74 10.6004 3465.76 10.5389ZM2015.12 10.5953C2015.78 10.5959 2016.42 10.6053 2017.04 10.6063C2016.39 10.6028 2015.75 10.5988 2015.12 10.5953ZM3258.87 10.481C3251.12 10.4485 3252.73 10.5994 3253.21 10.6041C3259.03 10.653 3267.64 10.5177 3258.87 10.481ZM330.255 10.5836C327.57 10.4473 314.541 10.553 307.047 10.5206C309.221 10.6282 324.218 10.5978 330.255 10.5836ZM2626.91 10.5967C2617.17 10.449 2656.77 10.2774 2665.12 10.3726C2665.73 10.4639 2628.33 10.617 2626.91 10.5967ZM1145.64 10.5052C1144.86 10.3984 1128.24 10.5273 1131.77 10.5777C1134.01 10.6098 1146.11 10.5715 1145.64 10.5052ZM2685.03 10.4349C2688.75 10.4023 2697.42 10.5076 2694.37 10.5718C2690.45 10.6541 2684.07 10.4442 2685.03 10.4349ZM3018.81 10.3492C3017.19 10.3329 2995.31 10.4424 3004.35 10.5513C3010.62 10.627 3011.62 10.4727 3013.09 10.4722C3014.74 10.4727 3049.86 10.6616 3018.81 10.3492ZM2405.14 10.5037C2413.39 10.4627 2423.37 10.5103 2432.01 10.5074C2428.49 10.5734 2408.65 10.5914 2405.14 10.5037ZM1209.76 10.4766C1207.75 10.4334 1153.15 10.4074 1184.17 10.5403C1185.98 10.5478 1215.85 10.6074 1209.76 10.4766ZM3519.08 10.4693C3517.44 10.4681 3515.56 10.463 3513.37 10.4524C3515.54 10.4566 3517.43 10.4638 3519.08 10.4693ZM3371.92 10.4532C3374.9 10.3755 3359.87 10.3547 3355.44 10.396C3354.07 10.491 3371.51 10.464 3371.92 10.4532ZM2432.66 10.399C2437.64 10.3545 2446.67 10.402 2452.83 10.3968C2451.79 10.469 2434.81 10.4724 2432.66 10.399ZM2083.16 10.3177C2093.04 10.3606 2105.2 10.3409 2105.39 10.2525C2105.6 10.2663 2106.08 10.281 2106.87 10.2957C2107.67 10.3103 2118.26 10.2692 2122.86 10.2994C2150.4 10.4785 2016.52 10.4046 2094.11 10.1551C2090.46 10.2093 2086.81 10.2635 2083.16 10.3177ZM1625.01 10.2928C1619.4 10.1852 1603.69 10.32 1607.77 10.3624C1610.61 10.3914 1630.63 10.4011 1625.01 10.2928ZM1840.86 10.229C1839.19 10.2098 1823.85 10.2852 1823.45 10.3418C1832.27 10.4015 1848.5 10.3182 1840.86 10.229ZM1581.89 10.1668C1578.37 10.1506 1573.88 10.324 1574.29 10.3316C1577.87 10.3949 1587.8 10.2634 1581.89 10.1668ZM3492.24 10.002C3487 9.95231 3470.3 10.0779 3466.66 10.1924C3465.99 10.1703 3464.16 10.1414 3460.82 10.1067C3460.83 10.1067 3460.84 10.1067 3460.85 10.1067C3456.33 10.0605 3321.37 10.0099 3411.9 10.2305C3414.73 10.2376 3410.86 10.1348 3422.4 10.1529C3423.16 10.1542 3423.54 10.2381 3425.89 10.2422C3431.31 10.2511 3460.16 10.3039 3465.96 10.2364C3466.01 10.2519 3466.38 10.2667 3467.18 10.2803C3474.29 10.4014 3496.3 10.0403 3492.24 10.002ZM1871.27 10.2137C1868.19 10.1826 1858.42 10.2121 1857.4 10.2862C1862.25 10.3225 1878.44 10.2862 1871.27 10.2137ZM1208.07 10.1726C1201.78 10.1117 1185.84 10.2256 1190.65 10.2862C1193.61 10.3234 1215.32 10.2426 1208.07 10.1726ZM1773.4 10.2532C1809.47 10.3408 1782.01 10.2461 1787.53 10.1375C1782.82 10.1761 1778.11 10.2146 1773.4 10.2532ZM3659.14 10.2825C3653.39 10.2575 3660.14 10.0431 3666.48 10.1595C3668.46 10.1964 3662.35 10.2961 3659.14 10.2825ZM3918.8 10.2159C3913.89 10.0258 3937.86 10.1375 3928.52 10.2679C3928.08 10.2723 3919.15 10.2231 3918.8 10.2159ZM3737.35 10.1382C3733.45 10.2677 3730.91 10.283 3719.91 10.251C3736.19 10.2146 3721.09 10.1001 3737.35 10.1382ZM2105.28 10.2386C2105.35 10.2438 2105.4 10.2477 2105.39 10.2525C2105.32 10.2477 2105.29 10.2432 2105.28 10.2386ZM1547.99 10.2005C1543.47 10.0908 1530.82 10.0989 1534.59 10.2093C1534.95 10.2195 1546.14 10.2815 1547.99 10.2005ZM3466.66 10.1924C3467.26 10.2121 3466.96 10.2248 3465.96 10.2364C3465.91 10.2217 3466.17 10.2079 3466.66 10.1924ZM1615.92 10.1111C1615.47 10.1929 1634.72 10.2247 1635.5 10.2151C1646.55 10.0733 1623.87 10.1062 1615.92 10.1111ZM1080.75 10.0577C1079.75 10.0662 1086.16 10.2774 1090.08 10.1946C1093.12 10.1304 1084.46 10.0252 1080.75 10.0577ZM3774.69 10.0855C3780.79 10.0856 3789.37 10.0855 3790.96 10.1858C3786.87 10.1704 3774.57 10.1591 3774.69 10.0855ZM3909.41 10.0782C3902.2 10.1961 3885.74 10.1957 3875.23 10.1763C3875.04 10.0211 3902.65 10.1147 3909.41 10.0782ZM3508.78 10.0599C3508.27 10.0535 3492.98 10.0072 3495.07 10.1111C3498.12 10.2635 3513.09 10.1164 3508.78 10.0599ZM1110.44 10.1697C1117.28 10.0982 1101.54 9.87827 1094.33 10.0481C1090.62 10.1351 1109.29 10.1817 1110.44 10.1697ZM1508.48 10.0569C1499.46 10.117 1521.82 10.2242 1524.95 10.1155C1520.79 10.1068 1511.69 10.0356 1508.48 10.0569ZM1815.5 9.94705C1787.07 9.63373 1802.56 10.2053 1807.6 10.1551C1808.31 10.1479 1816.2 9.95442 1815.5 9.94705ZM188.562 10.024C184.536 10.0675 199.544 10.2252 201.486 10.1214C202.686 10.0564 191.136 9.99622 188.562 10.024ZM2243.68 10.1507C2242.48 10.1517 2241.29 10.1527 2240.11 10.1536C2241 10.1485 2242.16 10.1468 2243.68 10.1507ZM1426.57 9.63723C1446.59 10.0796 1444.49 9.73865 1446.22 9.7405C1449.98 9.74527 1458.72 9.86488 1465.8 9.84524C1457.69 9.89505 1449.58 9.94486 1441.46 9.99466C1447.87 10.0266 1503.55 10.1894 1504.71 10.1177C1506.38 10.0156 1488.87 10.0476 1488.35 10.0386C1487.62 10.0258 1484.88 9.74178 1483.26 9.73098C1480.58 9.71372 1434.03 9.70783 1426.57 9.63723ZM1756.04 9.99613C1760.61 10.0299 1761.91 10.1424 1764.04 10.1155C1764.76 10.1063 1764.88 9.99899 1767.35 9.97123C1763.58 9.97953 1759.81 9.98783 1756.04 9.99613ZM1390.73 10.0349C1385.06 9.9038 1410.47 9.9536 1411.28 9.9683C1415.63 10.0572 1395.36 10.1421 1390.73 10.0349ZM1606.31 10.0159C1605.38 10.0083 1585.87 9.9673 1586.03 10.0401C1591.19 10.0956 1617.27 10.1117 1606.31 10.0159ZM1770.4 9.9639C1777.25 9.97642 1790.21 10.0845 1788.72 9.92288C1788.71 9.92288 1788.7 9.92288 1788.69 9.92288C1782.6 9.93656 1776.5 9.95023 1770.4 9.9639ZM1133.85 9.8284C1121.14 9.571 1127.16 9.89624 1138.41 9.97928C1141.82 9.86372 1135.93 9.87028 1133.85 9.8284ZM1093.2 9.6365C1089.66 9.59018 1053.25 9.64093 1058.8 9.77713C1060.78 9.82566 1081.72 9.70325 1082.68 9.71267C1084.15 9.72663 1077.47 9.8773 1088.63 9.84744C1087.98 9.79639 1094.41 9.65197 1093.2 9.6365ZM1123.33 9.6636C1110.71 9.46785 1107.87 9.82888 1117.37 9.82986C1121.08 9.8305 1125.13 9.69184 1123.33 9.6636ZM1174.89 9.69436C1170.35 9.66012 1158.25 9.61018 1149.91 9.73025C1161.07 9.7405 1172.23 9.75076 1183.39 9.76101C1184.68 9.69299 1178.87 9.72445 1174.86 9.69436C1174.87 9.69436 1174.88 9.69436 1174.89 9.69436ZM3985.26 9.15308C3975.23 9.0507 3998.34 9.01146 3999.32 9.03662C4002.22 9.12012 3989.75 9.19881 3985.26 9.15308ZM110.223 6.74405C107.436 6.70324 105.614 6.56896 99.4807 6.63931C105.65 6.73844 111.82 6.83756 117.99 6.93669C122.784 6.70956 113.269 6.78907 110.223 6.74405ZM86.6633 5.91419C87.5349 5.90869 82.7741 5.55943 94.0333 5.7926C101.641 5.95004 60.2715 6.10347 52.804 5.94861C61.0552 5.87665 79.1611 5.95902 86.6633 5.91419ZM14.1991 4.40241C13.7221 4.37456 29.4393 4.3337 31.2585 4.35334C40.8109 4.45684 16.7798 4.55163 14.1991 4.40241ZM64.3397 4.46906C56.9686 4.40124 73.2978 4.35752 78.1641 4.39655C78.6362 4.46156 65.4783 4.47894 64.3397 4.46906ZM3883.7 4.09478C3875.72 3.85742 3868.59 4.36839 3880.86 4.26544C3881.45 4.2606 3884.04 4.10641 3883.7 4.09478ZM29.5648 4.0501C36.9358 4.11793 20.6067 4.16164 15.7403 4.12261C15.2877 4.05768 28.4424 4.04018 29.5648 4.0501ZM3878.09 3.52933C3867.49 3.35853 3871.22 3.93178 3872.55 3.95488C3878 4.04611 3896.7 3.82111 3900.52 3.76518C3872.53 3.85121 3883.07 3.60982 3878.09 3.52933ZM3829.23 3.87358C3819.4 3.93474 3844.51 4.0517 3849.31 3.89189C3844.42 3.89954 3832.02 3.8559 3829.23 3.87358ZM3769.58 3.68974C3764.3 3.66921 3748.58 3.62005 3745.94 3.71025C3751.71 3.69392 3767.35 3.78255 3769.58 3.68974ZM3757.62 3.41946C3749.36 3.2969 3747.38 3.654 3756.9 3.54764C3757.27 3.54352 3757.92 3.42628 3757.62 3.41946ZM3711.18 3.29055C3705.77 3.14854 3699.58 3.49437 3708.36 3.50369C3710.97 3.50583 3711.76 3.30683 3711.18 3.29055ZM3864.83 2.91261C3857.07 2.85163 3847.07 3.09929 3863.64 3.12648C3857.82 3.16433 3852 3.20217 3846.18 3.24001C3867.88 3.37883 3866.29 3.03538 3872.52 3.04958C3881.22 3.06976 3880.54 3.35317 3878.79 3.44217C3885.93 3.26853 3916.25 3.26575 3933.78 3.23269C3918.38 3.15982 3893.38 3.03349 3878.18 2.98732C3873.84 2.97395 3869.62 3.05168 3865.92 3.04298C3859.99 3.02863 3865.26 2.91671 3864.86 2.91261C3864.85 2.91261 3864.84 2.91261 3864.83 2.91261ZM3650.15 3.28542C3634.22 3.12455 3644.29 3.47188 3653.29 3.40994C3653.68 3.40517 3650.54 3.28935 3650.15 3.28542ZM8.44656 2.99464C29.7243 3.13982 14.258 3.33223 58.7702 3.04005C40.0696 3.2469 57.736 3.18881 54.0857 3.27224C51.1574 3.33825 40.1852 3.28358 46.5631 3.41653C38.1798 3.27183 1.78362 3.31185 0.161016 3.28835C0.176274 3.28835 0.191533 3.28835 0.206792 3.28835C-0.767761 3.27443 1.65689 2.94847 8.44656 2.99464ZM3769.5 2.7815C3764.19 2.36007 3762.11 3.02897 3751.67 2.67969C3737.76 3.18689 3790.07 2.67976 3796.41 3.10817C3739.6 3.05839 3833.94 3.53267 3794.28 2.89137C3826.95 3.12413 3804.99 2.81194 3810.03 2.73023C3815.43 2.64318 3833.9 2.73778 3832.97 2.58081C3832.95 2.58081 3832.94 2.58081 3832.93 2.58081C3821.63 2.59179 3810.33 2.60278 3799.03 2.61377C3810.09 2.95238 3787 2.85085 3779.16 2.57495C3775.94 2.6438 3772.72 2.71265 3769.5 2.7815ZM3833.47 3.09938C3832.35 3.09163 3807.77 3.13909 3809.36 3.20705C3812.64 3.2504 3847.53 3.19842 3833.47 3.09938ZM3941.65 3.0254C3932.83 3.02458 3919.18 2.95852 3914.37 3.0862C3923.2 3.08706 3936.85 3.15315 3941.65 3.0254ZM3487.17 3.00123C3475.92 3.10601 3510.56 3.13705 3500.54 3.01295C3500.04 3.00711 3487.72 2.99634 3487.17 3.00123ZM3743.91 2.84522C3732.48 2.71643 3737.88 3.12637 3746.36 3.01955C3746.85 3.01325 3744.44 2.8511 3743.91 2.84522ZM25.689 2.94484C26.4542 2.8444 57.3261 2.91495 62.7985 2.91407C59.6893 3.00743 24.8113 3.05998 25.689 2.94484ZM3957.19 2.64966C3939.62 2.28851 3915.79 2.70565 3913.18 2.69654C3910.58 2.68725 3914.66 2.52938 3914.07 2.52514C3912.71 2.51629 3885.04 2.52954 3883.7 2.54052C3882.74 2.54909 3887.75 2.77094 3882.04 2.84083C3893.18 2.71477 3943.77 2.79363 3946.4 2.76905C3948.43 2.74942 3933.1 2.51645 3957.16 2.64966C3957.17 2.64966 3957.18 2.64966 3957.19 2.64966ZM3906.65 2.64819C3913.56 2.74119 3894.18 2.75283 3889.48 2.71851C3879.06 2.64171 3905.76 2.63717 3906.65 2.64819ZM3860.02 2.5625C3857.8 2.54164 3837.82 2.52269 3836.12 2.62622C3845.58 2.76052 3865.04 2.6111 3860.02 2.5625ZM3637.67 2.57641C3632.48 2.58968 3618.21 2.51012 3617.39 2.60058C3622.58 2.58739 3636.85 2.66688 3637.67 2.57641ZM131.021 2.15525C122.399 2.07956 142.375 2.04863 148.202 2.08494C148.518 2.14529 131.755 2.16176 131.021 2.15525ZM3741.98 1.9802C3738.9 1.95269 3676.22 2.02134 3667.42 2.0637C3676.02 2.13211 3738.15 2.13737 3740.97 2.10398C3741.79 2.09399 3742.37 1.98453 3741.98 1.9802ZM3877.55 1.93845C3883.3 1.80523 3887.05 1.96501 3887.77 1.96702C3894.88 1.9874 3909.62 1.95736 3906.39 2.08567C3893.85 2.0339 3866.11 2.203 3877.55 1.93845ZM3633.21 1.97361C3611.93 2.02305 3652.81 2.1634 3647.45 2.02415C3647.1 2.01573 3635.41 1.96842 3633.21 1.97361ZM3748.98 1.94138C3753.68 1.83373 3816.38 1.92657 3826.45 1.92673C3817.43 2.12528 3810.16 1.97447 3798.05 1.98459C3794.78 1.98756 3795.66 2.07016 3795.31 2.07029C3789.65 2.07412 3793.88 1.97872 3790.39 1.97727C3788.19 1.97662 3742.37 2.09305 3748.98 1.94138ZM3880.83 1.84616C3884.34 1.76979 3923.49 1.73724 3925.07 1.75753C3936.85 1.90847 3883.87 1.87275 3880.83 1.84616ZM3743.23 1.76486C3749.97 1.53411 3781.11 1.68864 3759.8 1.80368C3757.76 1.81414 3749.14 1.71412 3743.23 1.76486ZM3635.49 1.75387C3634.44 1.74709 3612.25 1.70096 3611.85 1.77438C3615.06 1.80291 3647.4 1.82851 3635.49 1.75387ZM3646.99 1.50557C3646.46 1.50733 3651.66 1.64874 3641.25 1.63082C3640.39 1.62913 3638.77 1.47004 3625.69 1.52828C3623.03 1.54027 3618.92 1.64552 3619.22 1.65206C3632.84 1.90174 3673.86 1.42354 3646.99 1.50557ZM3881.55 1.71725C3879.44 1.6501 3884.53 1.45078 3889.12 1.55172C3891.08 1.5953 3887.41 1.71492 3881.55 1.71725ZM3565.11 1.68942C3578.01 1.56854 3537.51 1.54568 3535.45 1.57662C3536.75 1.65192 3563.82 1.70122 3565.11 1.68942ZM151.208 1.22211C151.198 1.22211 151.188 1.22211 151.178 1.22211C162.03 1.2495 155.308 1.35006 155.816 1.35322C178.932 1.50093 172.801 1.27316 176.416 1.24628C184.167 1.18815 182.918 1.46513 195.993 1.35029C174.38 1.51987 194.053 1.44878 194.665 1.54732C197.087 1.94945 165.89 1.35903 155.114 1.44331C153.613 1.45498 164.698 1.58332 160.852 1.61983C148.345 1.73814 109.566 1.11737 151.208 1.22211ZM3892.66 1.53414C3897.69 1.41602 3935.88 1.53058 3925.75 1.62789C3924.13 1.64349 3885.26 1.7063 3892.66 1.53414ZM2108.75 1.35981C2117.93 1.25759 2096.66 1.13743 2092.71 1.21699C2090.75 1.25662 2104.72 1.40468 2108.75 1.35981ZM1959.61 0.922542C1948.7 0.943293 1937.21 1.36957 1950.77 1.30342C1952.22 1.29619 1960.86 0.981672 1959.61 0.922542ZM2675.74 1.14154C2664.35 0.989207 2665.03 1.27225 2673.39 1.26826C2676.34 1.26689 2676.09 1.14637 2675.74 1.14154ZM2241.1 1.17817C2239.96 1.16829 2226.8 1.18636 2227.28 1.25141C2232.14 1.29044 2248.47 1.24599 2241.1 1.17817ZM2679.35 1.10126C2672.6 1.15227 2684.22 1.35699 2692.47 1.15693C2688.28 1.17334 2680.05 1.09605 2679.35 1.10126ZM3719.7 1.13935C3714.04 1.25557 3698.05 1.22045 3688.86 1.24043C3687.87 1.08985 3713.13 1.16665 3719.7 1.13935ZM2005.9 1.09394C1995.58 1.20006 2017.7 1.28694 2015.67 1.14667C2015.39 1.13905 2006.31 1.08941 2005.9 1.09394ZM3043.14 1.08588C3035.63 1.1757 3059.46 1.29649 3052.9 1.13861C3052.58 1.13218 3043.55 1.08088 3043.14 1.08588ZM3147.19 1.13788C3141.49 1.10758 3117.21 1.11691 3126.66 1.20454C3128.13 1.218 3146.76 1.22015 3147.19 1.13788ZM177.057 1.13788C173.989 0.983204 191.796 1.02002 194.345 1.04706C195.346 1.0583 181.058 1.33913 177.057 1.13788ZM2601.78 1.11737C2595.88 1.13673 2580.6 1.09995 2577.91 1.1811C2585.12 1.1643 2603.71 1.27902 2601.78 1.11737ZM2052.98 1.0932C2043.99 0.925123 2028.63 0.941712 2032.42 1.16132C2049.39 1.1466 2030.33 0.96393 2052.98 1.0932ZM2717.3 0.920344C2712.58 0.907523 2708.95 1.11842 2709.49 1.12836C2714.61 1.22289 2722 1.0024 2717.3 0.920344ZM2362.73 1.09394C2362.46 1.00381 2347.31 1.04471 2349.33 1.10272C2350 1.1222 2362.95 1.16687 2362.73 1.09394ZM3521.33 1.08808C3514.39 1.00581 3535.59 0.925385 3541.86 1.02142C3544.9 1.15981 3522.21 1.09753 3521.33 1.08808ZM2848.33 0.973081C2849.03 0.839326 2825.36 0.914949 2834.69 1.02582C2837.02 1.05356 2848.08 1.0178 2848.33 0.973081ZM3074.97 0.812675C3059.09 0.972178 3125.77 1.08542 3108.25 0.886652C3106.99 0.87249 3076.35 0.799205 3074.97 0.812675ZM3183.87 0.912288C3181.13 0.894712 3182.5 0.445261 3193.83 0.618575C3195.32 0.641052 3188.36 0.759864 3189.58 0.787039C3190.29 0.802526 3214.95 0.865649 3216.08 0.855156C3217.3 0.843242 3215.86 0.699189 3217.1 0.683031C3218.5 0.664972 3233.68 0.791516 3241.62 0.792898C3256.6 0.795271 3258.22 0.675371 3259.45 0.674974C3263.02 0.67418 3269.04 0.759311 3276.29 0.759206C3312.85 0.758249 3368.77 0.656616 3397.75 0.910823C3371.96 0.80874 3347.38 0.917048 3321.72 0.950375C3329.23 0.7001 3283.96 1.14321 3310.44 0.854424C3298.25 0.917066 3192.85 0.967161 3183.9 0.912288C3183.89 0.912288 3183.88 0.912288 3183.87 0.912288ZM1916.56 0.796561C1923.26 0.643103 1888.89 0.677622 1885.97 0.855156C1890.51 0.879795 1915.73 0.813954 1916.56 0.796561ZM2075.16 0.422279C2078.36 0.39579 2081.39 0.0958304 2098.13 0.247956C2098.14 0.247956 2098.16 0.247956 2098.17 0.247956C2103.07 0.292382 2097.49 0.365472 2098.39 0.391516C2098.71 0.402151 2113.98 0.551364 2101.3 0.575361C2081.97 0.612177 2099.48 0.35221 2089.17 0.349034C2087.91 0.348788 2068.4 0.511155 2069.53 0.546795C2069.65 0.550947 2075.52 0.516599 2076.49 0.531414C2080.15 0.587101 2078.37 0.68077 2078.89 0.685228C2080.58 0.696651 2111.43 0.537071 2115.92 0.676439C2117.38 0.72138 2066.73 0.825053 2064.76 0.801688C2063.51 0.786964 2064.03 0.526955 2062.74 0.501383C2062.08 0.488646 2041.71 0.586079 2039.06 0.562177C2038.29 0.555263 2037.71 0.547811 2037.28 0.541668C2040.36 0.622111 2021.91 0.616319 2022.47 0.525554C2022.79 0.48988 2035.49 0.510529 2035.95 0.516765C2036.15 0.519405 2036.32 0.523044 2036.48 0.525554C2033.85 0.42752 2076.85 0.431942 2067.56 0.286043C2080.03 0.206118 2065.8 0.500072 2075.16 0.422279ZM2135.07 0.261872C2133.78 0.289217 2132.5 0.316562 2131.21 0.343907C2153.03 0.276977 2178.2 0.408611 2203.34 0.40763C2209.71 0.40758 2202.38 0.240344 2210.74 0.286043C2217.44 0.322667 2224.85 0.477784 2221.21 0.51237C2220.32 0.520999 2206.68 0.419967 2199.86 0.430336C2179.71 0.461031 2184.8 0.604446 2183.62 0.608321C2182.32 0.612398 2169.64 0.511541 2162.72 0.516032C2145.31 0.52764 2137.36 0.615691 2113.57 0.500651C2127.3 0.406132 2119.78 0.200796 2135.07 0.261872ZM2948.32 0.567304C2949.15 0.477035 2963.43 0.557124 2968.61 0.543865C2967.8 0.634357 2953.51 0.554039 2948.32 0.567304ZM820.689 0.450112C816.304 0.598243 849.173 0.634922 840.51 0.511638C838.594 0.484277 824.819 0.451166 820.689 0.450112ZM968.349 0.540203C972.746 0.499249 955.041 0.392597 955.074 0.507243C955.099 0.544007 967.783 0.545529 968.349 0.540203ZM2417.1 0.40763C2417.93 0.402991 2430.02 0.435984 2430.4 0.44352C2438.42 0.600806 2398.61 0.509899 2417.1 0.40763ZM1147.85 0.357823C1132.53 0.454916 1178.66 0.496999 1164.56 0.373205C1163.86 0.367175 1148.59 0.353105 1147.85 0.357823ZM1211.97 0.330723C1208.3 0.335926 1191.98 0.287718 1191.77 0.33292C1191.44 0.405844 1210.12 0.455672 1211.97 0.330723ZM2720.49 0.360753C2718.72 0.193848 2740.23 0.320245 2747.71 0.299227C2749.49 0.466248 2727.97 0.339675 2720.49 0.360753ZM2584.7 0.237701C2675.39 0.106129 2655.4 0.462729 2579.3 0.319004C2579.19 0.211928 2578.98 0.245988 2584.7 0.237701ZM2700.84 0.257478C2697.54 0.364403 2687.24 0.332696 2680.28 0.324131C2681.53 0.24979 2695.82 0.276695 2700.84 0.257478ZM781.55 0.220855C787.238 0.085784 812.427 0.252304 807.948 0.308017C806.906 0.320048 779.462 0.295135 781.55 0.220855ZM2424.7 0.264802C2422.59 0.102482 2449.82 0.168693 2451.9 0.204741C2460.31 0.349739 2426.9 0.228976 2424.7 0.264802ZM2849.21 0.217926C2854.02 0.0907822 2867.68 0.156177 2876.47 0.157865C2872.47 0.266581 2856.67 0.220213 2849.21 0.217926ZM2785.8 0.118312C2786.35 0.113432 2798.6 0.124911 2799.15 0.130764C2809.19 0.254947 2774.53 0.223144 2785.8 0.118312ZM136.163 0.00112009C136.571 -0.00297689 145.849 0.00513029 146.173 0.00990963C154.454 0.131979 126.607 0.107036 136.163 0.00112009Z" fill="white"/>
</svg>
