<svg width="1915" height="12" viewBox="0 0 1915 12" fill="none" xmlns="http://www.w3.org/2000/svg">
<path d="M148.136 11.9042C149.321 11.8889 154.085 11.926 156.148 11.9195C153.81 12.0805 143.863 11.9594 148.136 11.9042ZM359.711 0.214995C358 0.254792 356.289 0.294589 354.577 0.334385C359.441 0.360243 365.978 0.331034 370.491 0.36881C371.229 0.375154 369.314 0.490379 371.061 0.495524C372.808 0.500636 372.471 0.343171 375.012 0.326328C377.862 0.307914 390.912 0.417615 395.432 0.414954C412.335 0.404325 429.383 0.314398 446.321 0.379797C428.835 0.496294 446.455 0.614861 451.353 0.564374C452.438 0.552684 452.264 0.259943 469.808 0.333652C480.957 0.380428 470.66 0.798942 489.264 0.589277C474.958 0.296497 489.026 0.317017 500.241 0.307284C502.174 0.30556 517.788 0.349548 524.685 0.336582C527.044 0.332073 530.64 0.178735 533.77 0.174711C535.924 0.172056 537.553 0.255887 540.752 0.251618C555.663 0.232723 570.328 0.226204 585.265 0.254548C576.536 0.648591 592.117 0.422484 592.817 0.441322C596.375 0.548308 580.28 0.578762 586.645 0.645676C595.541 0.633469 604.436 0.621261 613.332 0.609054C606.031 0.560673 622.997 0.277232 626.12 0.406165C624.745 0.0579743 666.662 0.709217 673.043 0.592939C674.372 0.568378 665.673 0.396291 685.853 0.475015C688.039 0.483762 687.212 0.588816 688.358 0.579023C689.044 0.573134 693.199 0.239236 697.626 0.423744C699.243 0.491086 688.901 0.710384 711.612 0.622238C702.567 0.282395 743.102 0.438192 750.56 0.523357C749.07 0.477701 747.58 0.432045 746.09 0.386389C753.462 0.509552 754.793 0.394008 756.453 0.400305C763.146 0.425597 772.348 0.54204 778.582 0.531414C785.878 0.519188 785.903 0.307838 794.409 0.390051C792.39 0.343419 790.372 0.296786 788.354 0.250153C794.228 0.261384 800.103 0.272615 805.977 0.283846C792.374 0.563614 808.911 0.297193 810.001 0.29117C811.739 0.280988 809.242 0.395524 812.148 0.381262C812.449 0.378914 812.014 0.271056 816.494 0.258943C825.853 0.234001 824.374 0.369611 828.303 0.368077C828.663 0.367378 827.402 0.270211 834.189 0.247223C855.76 0.174044 834.082 0.321686 833.255 0.335117C832.168 0.352832 839.564 0.758898 821.241 0.614913C827.393 0.660751 828.012 0.840442 828.705 0.844902C829.318 0.848569 839.977 0.823258 840.565 0.817069C845.805 0.75605 841.194 0.633255 842.216 0.611251C843.051 0.593512 855.893 0.753536 858.904 0.384192C865.048 0.724868 855.368 0.693657 845.064 0.746022C843.56 0.81593 854.876 0.883909 855.471 0.883722C870.067 0.883101 861.986 0.602873 865.177 0.423744C866.853 0.330019 872.8 0.5212 867.31 0.269929C880.558 0.243406 872.523 0.389011 873.379 0.41056C874.67 0.442219 879.305 0.370204 879.886 0.379797C880.737 0.393998 877.777 0.480994 881.135 0.511638C881.693 0.516093 887.103 0.366388 880.127 0.294833C889.448 0.316115 888.68 0.188461 891.841 0.445717C898.261 -0.0409803 896.5 0.7334 899.028 0.760671C905.75 0.832556 903.8 0.450435 904.155 0.431801C906.601 0.31239 925.21 0.443656 929.818 0.388586C928 0.663813 915.066 0.391591 912.174 0.444985C902.531 0.622624 925.764 0.582588 918.761 0.928401C921.697 0.833427 924.633 0.738453 927.569 0.643478C932.952 0.865823 925.315 0.962776 939.802 0.881525C942.171 0.689612 929.559 0.911837 932.09 0.760671C933.581 0.671952 941.981 0.652897 942.146 0.606123C942.312 0.54982 934.72 0.616547 935.916 0.529949C938.529 0.34307 966.22 0.520978 945.14 0.62297C951.02 0.619776 954.049 0.991482 959.148 0.875665C962.445 0.80049 943.896 0.287122 971.724 0.381262C972.317 0.556784 960.598 0.433092 960.295 0.44645C959.867 0.465893 961.987 0.861974 962.354 0.881525C963.652 0.945891 992.07 0.733799 998.074 0.932796C995.697 0.703876 1019.55 0.891948 1022.15 0.822196C1022.84 0.802939 1020.25 0.662715 1020.99 0.647873C1025.6 0.559537 1038.08 0.809851 1043.87 0.816337C1050.34 0.823686 1049.52 0.702578 1049.88 0.702807C1052.73 0.709562 1050.46 0.791665 1052.2 0.791433C1054.83 0.791039 1072.92 0.807832 1073.82 0.790701C1074.09 0.785362 1071.14 0.647016 1075.08 0.620773C1075.76 0.616226 1075.33 0.780251 1087.01 0.709399C1101.07 0.624184 1077.24 0.505424 1083.08 0.333652C1092.12 0.578227 1091.82 0.335863 1094.27 0.354893C1095.12 0.361825 1101.43 0.567888 1108.29 0.554852C1103.37 0.588301 1098.45 0.621749 1093.53 0.655198C1098.36 0.69133 1107.76 0.646607 1111.74 0.687426C1113.69 0.707295 1112.08 0.876576 1116.31 0.872003C1117.2 0.870111 1120.76 0.457691 1109.7 0.642746C1108.81 0.495484 1114.08 0.59138 1116.52 0.549725C1116.89 0.543234 1118.34 0.297215 1121.46 0.450112C1122.21 0.487729 1114.06 1.20538 1135.08 0.685961C1135.76 0.66922 1133.41 0.579343 1134.07 0.560712C1134.52 0.548094 1139.89 0.58445 1140.48 0.571699C1141.09 0.558017 1138.5 0.459897 1139.22 0.44059C1142.92 0.341103 1147.78 0.730261 1140.14 0.70061C1142.7 0.748707 1145.25 0.796805 1147.8 0.844902C1145.07 0.551606 1151.81 0.76238 1155.34 0.753346C1177.96 0.695619 1162.81 0.504861 1166.7 0.406165C1172.96 0.247697 1168.18 0.749615 1177.46 0.598799C1178.32 0.584699 1167.1 0.371642 1189.02 0.491861C1185.78 0.500163 1182.55 0.508464 1179.31 0.516765C1181.18 0.800448 1190.99 0.497305 1191.75 0.493326C1200.36 0.454375 1194.54 0.556642 1207.32 0.41056C1208.46 0.397444 1210.95 0.467456 1213.39 0.432533C1223.51 0.288658 1200.04 0.345227 1199.4 0.230377C1199.09 0.174101 1224.33 0.188274 1225.2 0.214995C1228.88 0.333447 1213.76 0.267167 1216.64 0.414222C1217.69 0.466436 1253.66 0.359195 1260.88 0.416419C1269.21 0.48301 1272.96 0.86763 1273.01 0.435463C1275.36 0.859674 1277.44 0.570242 1278.5 0.573164C1291.38 0.612433 1291.41 0.616714 1302.45 0.576093C1304.89 0.567264 1306.95 0.695975 1307.81 0.674242C1308.31 0.661115 1307.38 0.523374 1309.84 0.480875C1313.25 0.422735 1333.78 0.564407 1335.31 0.640549C1336.84 0.716691 1326.64 0.673569 1328.47 0.798758C1335.85 0.811413 1342.92 0.780437 1350.35 0.793631C1353.44 0.799486 1351.85 0.887106 1353.19 0.888849C1353.76 0.889926 1364.41 0.812767 1363.96 0.780447C1362.9 0.705292 1330 0.75581 1338.66 0.602461C1340.33 0.572831 1346.24 0.774745 1345.3 0.529216C1374.7 0.584883 1404.1 0.640549 1433.49 0.696215C1416.6 0.879858 1397.6 0.715619 1379.9 0.732837C1377.48 0.734963 1369.28 0.711282 1370.28 0.835381C1385.32 0.867508 1404.03 0.802849 1418.47 0.883722C1418.93 0.886398 1417.24 0.997894 1418.97 1.01556C1422.21 1.04854 1432.74 0.868717 1434.52 0.915217C1434.82 0.92605 1428.82 1.07304 1430.65 1.16645C1435.33 1.40616 1436.52 0.875234 1440.54 0.881525C1443.66 0.886615 1464.57 1.14333 1469.78 0.981138C1475.32 0.808263 1454.37 0.880774 1455.92 0.739429C1470.1 0.597385 1484.45 0.749068 1497.85 0.731372C1498.09 0.730922 1496.04 0.620157 1499.03 0.604659C1504.23 0.577688 1505.59 0.734803 1508.13 0.759938C1510.86 0.786694 1520.51 0.764179 1521.81 0.821464C1521.97 0.828975 1520.01 0.984814 1519.72 0.989195C1515.51 1.05342 1514.02 0.851161 1513.63 0.848565C1512.2 0.840895 1510.78 0.918367 1509.47 0.913753C1507.31 0.906058 1506.12 0.834383 1503.27 0.828056C1501.3 0.823424 1503.2 0.961063 1501.31 0.95477C1500.61 0.951902 1493.1 0.637613 1492.4 0.958432C1492.19 1.05959 1553.57 1.18948 1559.71 1.10858C1554.45 1.07001 1549.18 1.03143 1543.92 0.992857C1554.61 1.08676 1567.45 0.83042 1568.36 1.20966C1607.99 1.24067 1647.63 1.27168 1687.26 1.30268C1694.34 1.33499 1690.46 1.5787 1702.1 1.50777C1699.09 1.43013 1696.08 1.35249 1693.07 1.27485C1699.04 1.32932 1725.49 1.43572 1729.77 1.38545C1730.32 1.37886 1731.09 1.1583 1737.7 1.13935C1743.56 1.12261 1744.5 1.28787 1747.64 1.31953C1750.27 1.34565 1753.22 1.30235 1754.01 1.31147C1754.61 1.31878 1754.84 1.41983 1756.28 1.43745C1760.84 1.49194 1757.15 1.2074 1761.67 1.53414C1760.57 1.54659 1759.47 1.55904 1758.37 1.57149C1763.86 1.61878 1771.37 1.76712 1763.27 1.8403C1761.88 1.85294 1763.08 1.75517 1762.04 1.75534C1721.4 1.77351 1753.85 1.96356 1768.09 1.81174C1771.75 1.9566 1792.25 1.86815 1792.93 1.8967C1793.88 1.93805 1790.37 2.05382 1794.97 2.15379C1795.94 2.17495 1823.35 2.09384 1813.48 2.28636C1811.44 2.32608 1798.3 2.28435 1795.13 2.29003C1802.58 2.59706 1820.06 2.15717 1822.02 2.16844C1829.95 2.21629 1806.79 2.43453 1824.65 2.47021C1838.38 2.49759 1825.49 2.29257 1830.77 2.20506C1833.74 2.15596 1849.27 2.38181 1848.85 2.08933C1854.19 2.0581 1851.06 2.21297 1851.72 2.22411C1852.37 2.2339 1862.85 2.14634 1866.26 2.20799C1866.67 2.21566 1865.37 2.36768 1865.8 2.38012C1866.63 2.40141 1876.74 2.37102 1877.15 2.35814C1877.4 2.34919 1874.99 2.2161 1875.98 2.18382C1877.14 2.1466 1886.87 2.17792 1887.41 2.13987C1888.16 2.08235 1876.15 2.12025 1878.15 1.97141C1883.69 2.00889 1892.71 1.90958 1896.37 1.78976C1895.47 1.82402 1890.1 1.82894 1888.24 1.81686C1889.12 1.59888 1900.64 1.60185 1896.7 1.77438C1899.21 1.68172 1897.5 1.63257 1898.91 1.54512C1899.28 1.52297 1902.84 1.51841 1903.52 1.48067C1903.61 1.47315 1899.94 1.3909 1900.68 1.34663C1902.01 1.26662 1912.8 1.28462 1913.68 1.30561C1916.17 1.36509 1907.37 1.43707 1906.64 1.52901C1906.53 1.54313 1914.02 1.72331 1914.13 1.73922C1914.57 1.90996 1906.24 1.78692 1907.19 1.94065C1909.25 1.97312 1911.31 2.00559 1913.37 2.03806C1905.43 2.19374 1890.73 2.11369 1886.94 2.29076C1898.72 2.23807 1911.04 2.2443 1911.02 2.64307C1911.01 2.81101 1905.93 2.90946 1906.12 2.95216C1906.87 3.10495 1913.93 2.93897 1914.19 2.94703C1914.4 2.95634 1914.5 2.96541 1914.5 2.97423C1914.5 2.97424 1914.5 2.97424 1914.5 2.97425C1914.5 3.0637 1904.44 3.12812 1903.94 3.16896C1903.1 3.24152 1907.57 3.54018 1907.56 3.60624C1907.41 3.61951 1900.25 3.69019 1902.66 3.80546C1905.11 3.9219 1911.38 3.92447 1911.59 3.93657C1912.79 4.00623 1901.83 4.06976 1901.5 4.1109C1901.33 4.13169 1907.22 4.25947 1907.39 4.2962C1907.54 4.33307 1903.06 4.4135 1901.3 4.52986C1899.98 4.6163 1903.81 4.68257 1903.14 4.69612C1902.66 4.7051 1892.3 4.70363 1891.79 4.71883C1891.03 4.7413 1893.46 4.84462 1893.1 4.87045C1892.6 4.9076 1889.26 4.87031 1889.69 4.90853C1890.02 4.93702 1902.99 5.29316 1902.9 5.38829C1902.76 5.55054 1889.02 5.17722 1901.8 5.8175C1901.89 5.82171 1905 5.7762 1905.09 5.78015C1907.01 5.89795 1897.04 6.07917 1909.23 6.04749C1886.55 6.2521 1906.41 6.2914 1903.05 6.5646C1901.75 6.66961 1892.96 6.71291 1892.92 6.72867C1893.78 6.86189 1896.58 6.75857 1897.53 6.82389C1898.05 6.86039 1890.19 7.00124 1891.96 7.0927C1892.87 7.13983 1901.22 7.12306 1901.57 7.13225C1904.87 7.21897 1900.82 7.31237 1901.55 7.37396C1902.03 7.41526 1907.07 7.41853 1907.2 7.42596C1907.41 7.44143 1900.57 7.60828 1899.14 7.66694C1898.06 7.71207 1902.13 7.78277 1901.37 7.80244C1896.82 7.92009 1887.12 7.62004 1896.46 8.04049C1897.03 8.06627 1900.57 8.05586 1900.67 8.061C1902.85 8.18019 1896.35 8.19049 1895.18 8.28806C1893.19 8.45619 1902.54 8.36245 1894.76 8.48069C1900.59 8.59064 1903.84 8.58605 1910.67 8.5554C1891.77 8.6409 1885.1 9.07614 1906.08 9.06518C1899.41 9.0584 1900.15 9.30405 1898.16 9.30836C1896.92 9.31076 1887.24 9.06652 1891.68 9.61452C1892.24 9.68298 1898.11 9.596 1896.27 9.73611C1882.17 9.70036 1895.97 9.82526 1895.99 9.84378C1895.81 10.1666 1861.33 9.90219 1855.41 9.939C1848.54 9.98169 1842.43 10.2361 1840.94 10.2364C1836.02 10.2365 1840.1 10.1073 1839 10.0599C1837.89 10.0128 1823.91 10.2602 1823.21 10.2466C1820.5 10.192 1823.25 10.039 1822.97 10.0313C1819.62 9.93751 1800.85 10.0573 1795.59 10.0218C1795.75 10.121 1806.3 10.1289 1799.72 10.2884C1792.05 10.4743 1791.61 10.0366 1791.41 10.0174C1756.26 10.0215 1721.11 10.0257 1685.96 10.0298C1686.4 10.2627 1709.38 10.0871 1709.9 10.1177C1712.97 10.2992 1674.15 10.2959 1669.39 10.2137C1673.01 10.264 1676.62 10.3143 1680.24 10.3646C1674.07 10.6322 1660.4 10.2845 1651.46 10.4026C1648.57 10.441 1654.12 10.5443 1654 10.5513C1650.76 10.6553 1645.55 10.5752 1649.44 10.4356C1641.53 10.5693 1642.68 10.4218 1636.61 10.4107C1636.29 10.4102 1638.9 10.5183 1634.09 10.563C1631.84 10.5839 1619.82 10.5843 1618.22 10.6788C1617.55 10.7186 1623.65 11.1375 1624.4 10.7769C1637.47 10.9527 1628.58 10.6126 1633.65 10.6209C1634.43 10.6228 1632.64 10.824 1645.43 10.7293C1642.99 11.0922 1628.27 10.8209 1625.75 10.8648C1620.54 10.9552 1641.99 11.1426 1645.92 10.8597C1644.09 11.1429 1647.45 10.8979 1652.23 10.9095C1657.46 10.9221 1655.18 11.0065 1658.01 11.0069C1665.76 11.009 1662.55 10.8091 1668.93 10.9893C1662.71 10.4314 1679.86 10.9157 1684.86 11.0618C1676.73 11.0902 1668.59 11.1185 1660.46 11.1468C1660.92 11.1761 1661.39 11.2054 1661.85 11.2347C1659.71 11.2306 1657.57 11.2264 1655.43 11.2222C1655.77 11.1942 1656.11 11.1661 1656.46 11.138C1645.41 11.3206 1642.71 11.1154 1641.81 11.1131C1630.22 11.0893 1616.82 11.0911 1605.1 11.0904C1603.34 11.0903 1604.55 11.2729 1591.73 11.13C1587.64 11.0844 1591.5 10.9424 1586.86 10.9637C1581.06 11.3497 1581.17 11.0418 1579.45 11.0413C1574.5 11.0414 1571.48 11.137 1571.02 11.138C1564.91 11.1529 1555.96 11.137 1549.24 11.1512C1549.12 11.1527 1552.61 11.2713 1548.25 11.2362C1546.72 11.2236 1532.98 10.7174 1520.97 10.8824C1524.1 10.9166 1527.22 10.9508 1530.34 10.9849C1526.67 10.9372 1500.94 11.0648 1507.23 11.2003C1511.09 11.2831 1520.5 10.9568 1521.54 11.2706C1512.97 11.1767 1465.67 11.3171 1461.99 11.2442C1461.48 11.2338 1464.62 11.132 1463.91 11.119C1463.37 11.1091 1452.53 11.1332 1451.1 11.0941C1450.24 11.0708 1455.03 11.0084 1454.64 10.9718C1454.3 10.9456 1440.77 10.902 1439.99 11.0296C1443.32 10.9784 1452.66 11.0231 1447.76 11.1307C1447.13 11.1441 1443.86 11.0617 1443.1 11.0787C1436 11.2351 1457.22 11.1975 1460.5 11.1988C1447.17 11.3614 1426.55 11.1697 1411.11 11.2757C1404.87 11.1695 1420.36 11.1132 1413.3 11.0252C1398.65 10.8428 1409.4 11.1721 1408.95 11.1856C1405.31 11.2928 1392.92 10.7185 1392.91 11.1556C1387.6 11.0898 1389.32 11.0347 1381.82 11.0919C1382.81 11.1221 1383.8 11.1524 1384.78 11.1827C1376.46 11.4359 1358.85 10.7971 1360.17 10.7484C1363.72 10.6179 1372.89 10.8214 1373.67 10.8165C1374.83 10.8092 1378.04 10.3657 1390.73 10.7623C1395.92 10.4648 1370.62 10.5615 1382.13 10.3587C1374.35 10.392 1342.36 10.1849 1337.76 10.3155C1337.21 10.3325 1339.77 10.629 1331.86 10.4781C1328.11 10.4062 1337.16 10.4028 1335.44 10.3353C1330.16 10.128 1258.3 10.2606 1244.65 10.2715C1243.77 10.2719 1244.09 10.1799 1243.22 10.1807C1240.55 10.1833 1230.8 10.3205 1226.02 10.2781C1235.93 10.4484 1216.67 10.4617 1211.78 10.4429C1204.34 10.4144 1204.8 10.2525 1201.59 10.2181C1189.21 10.0853 1170.02 10.4697 1160.4 10.1104C1160.93 10.467 1143.77 9.93554 1135.96 9.93241C1129.84 9.92985 1120.97 10.1659 1129.23 10.3096C1118.67 10.2932 1107.56 10.3597 1097.65 10.3814C1096.02 10.385 1098.27 10.2796 1095.48 10.2891C1095.22 10.2907 1094.87 10.3941 1092.48 10.4048C1072.68 10.4949 1082.31 10.2753 1078.61 10.2107C1076.53 10.1746 1075 10.1566 1073.88 10.1507C1085.42 10.1305 1098.73 10.0899 1102.29 10.087C1099.26 9.85873 1076.72 10.1308 1070.11 10.0694C1069.88 10.0671 1070.68 9.94135 1070.45 9.94046C1070.44 9.94046 1070.44 9.94046 1070.44 9.94046C1067.96 9.93082 1052.21 9.97725 1055.45 10.1272C1056.32 10.1673 1063.57 10.1672 1072.17 10.1536C1069.85 10.1817 1071.58 10.3227 1071.17 10.3287C1066.19 10.3983 1053.99 10.2608 1049.66 10.2422C1048.67 10.2382 1048.74 10.3284 1048.58 10.3287C1044.64 10.3082 1046.25 10.0504 1042.22 10.3162C1035.08 9.99494 1055.58 10.2685 1054.13 10.0599C1053.03 9.89921 1007.51 9.98549 1007.64 10.2386C1007.48 10.2115 1006.86 10.1779 1005.57 10.1397C1002.73 10.0548 990.058 10.0813 987.872 10.128C987.503 10.1371 987.65 10.3828 987.193 10.3851C986.048 10.3907 970.562 10.1981 964.779 10.3433C967.902 10.3777 971.026 10.4122 974.149 10.4466C955.287 10.4487 958.202 10.5218 964.487 10.5953C964.801 10.5959 965.107 10.6053 965.407 10.6063C970.278 10.6606 976.523 10.7129 976.617 10.7322C976.975 10.8062 944.974 10.8473 951.129 10.6194C951.987 10.5883 966.793 10.6898 959.462 10.5272C958.179 10.4987 948.671 10.5451 948.171 10.5272C944.829 10.408 965.593 10.2497 963.055 10.0804C958.016 10.2416 951.548 10.1567 945.768 10.1983C943.138 10.2171 942.493 10.3403 942.168 10.3426C937.319 10.3747 940.04 10.2456 938.421 10.2488C937.553 10.251 927.998 10.5259 929.804 10.147C898.32 10.4257 921.094 10.4254 940.408 10.4041C934.305 10.5421 922.341 10.4753 916.972 10.5074C915.045 10.519 916.187 10.6454 912.933 10.6707C906.236 10.7227 874.26 10.5775 865.929 10.5433C871.045 10.4986 869.549 10.3609 865.601 10.3704C861.651 10.38 864.969 10.5638 864.198 10.5836C863.373 10.604 844.845 10.5173 841.763 10.5411C855.711 10.4745 852.564 10.3372 840.726 10.3228C842.437 10.2832 844.149 10.2437 845.86 10.2041C838.921 10.2597 824.332 10.0502 820.32 10.1126C819.692 10.1226 821.952 10.2381 821.599 10.2437C818.08 10.2928 806.11 10.175 805.553 10.2144C805.081 10.2472 810.187 10.344 808.292 10.3917C807.896 10.4017 802.974 10.2456 798.126 10.284C796.327 10.2981 797.41 10.4073 796.957 10.4136C793.181 10.4661 795.41 10.2823 788.508 10.3118C783.451 10.3337 779.684 10.5135 772.696 10.4539C795.641 10.6831 776.353 10.5874 766.758 10.6568C765.221 10.6679 766.539 10.8661 757.352 10.7696C776.903 10.4112 751.777 10.5801 746.638 10.5762C746.356 10.575 746.259 10.4443 743.739 10.4422C743.525 10.4423 743.832 10.5307 741.489 10.5374C719.27 10.6013 733.477 10.5015 729.256 10.4144C727.459 10.3772 716.654 10.5022 713.744 10.5052C713.075 10.5055 713.382 10.4137 710.794 10.4173C706.213 10.4239 702.11 10.5216 699.086 10.5294C698.734 10.5298 698.719 10.385 692.988 10.4319C691.377 10.4451 689.568 10.4965 691.856 10.5381C699.446 10.6751 713.842 10.4381 722.42 10.5748C730.243 10.6993 705.577 10.711 704.294 10.7117C703.823 10.7122 708.64 10.6403 703.746 10.626C699.567 10.6142 691.928 10.8644 685.7 10.8099C685.225 10.8058 680.248 10.5937 680.478 10.5814C680.686 10.5723 688.329 10.5263 687.219 10.4649C687.086 10.4579 682.229 10.4593 681.595 10.4136C680.819 10.358 678.725 9.81206 677.688 9.79837C675.026 9.76455 676.759 9.88906 675.037 9.8804C671.345 9.86214 658.539 9.70069 658.122 9.88992C660.238 9.90115 662.353 9.91238 664.469 9.92362C652.699 9.94308 657.716 10.0236 656.048 10.0591C654.253 10.0975 654.758 9.93118 650.79 9.91556C649.927 9.91212 633.325 9.94684 633.627 10.0166C642.808 9.90556 639.404 10.1111 639.828 10.1148C641.436 10.1282 643.49 10.0129 645.648 10.0152C660.827 10.0332 645.52 10.2152 649.103 10.262C650.336 10.2778 652.794 10.1793 653.317 10.1844C655.017 10.2007 655.045 10.3296 656.18 10.3191C658.827 10.2949 655.736 10.1126 655.946 10.1031C658.312 9.98893 667.581 10.1309 661.811 10.3294C665.275 10.4009 665.681 10.1597 668.427 10.2561C673.889 10.4471 665.707 10.398 663.49 10.4297C655.538 10.5441 653.18 10.4515 641.924 10.4832C637.87 10.4944 633.069 10.6115 631.188 10.618C630.003 10.622 618.817 10.2144 618.488 10.8524C614.139 10.7906 607.317 10.3702 602.837 10.3895C598.815 10.407 600.094 10.6327 599.718 10.6414C599.143 10.6551 594.28 10.6374 592.634 10.6692C590.706 10.7069 591.669 10.7931 588.61 10.8282C580.999 10.9153 581.198 10.685 580.416 10.67C571.334 10.4969 575.31 10.8246 573.295 10.8509C571.421 10.8751 545.132 10.7489 539.598 10.8319C541.85 10.7857 544.101 10.7396 546.353 10.6934C542.324 10.5497 538.052 10.7841 537.977 10.5264C537.159 10.9424 528.841 10.6644 526.342 10.6751C525.358 10.6795 525.435 10.7504 524.203 10.7535C519.388 10.7659 508.534 10.7095 505.923 10.7454C494.63 10.9002 523.506 11.1576 525.78 11.1732C521.229 11.1686 495.483 11.2618 507.317 11.4618C509.147 11.4926 512.388 11.3064 513.416 11.2992C520.37 11.2512 514.901 11.4181 515.446 11.4339C516.373 11.4595 520.95 11.2983 522.158 11.3175C522.561 11.3236 519.966 11.4747 526.598 11.4779C523.336 11.6243 504.695 11.505 502.249 11.5394C501.378 11.5517 506.839 11.8646 490.885 11.5606C491.07 11.5897 491.255 11.6187 491.44 11.6478C482.557 11.6598 473.674 11.6717 464.791 11.6837C465.756 11.6168 470.744 11.4823 464.462 11.5108C460.845 11.5273 463.521 11.6764 463.191 11.6808C459.946 11.7218 402.503 11.6722 391.371 11.6888C387.584 11.6942 377.029 11.814 376.224 11.8163C371.411 11.8283 354.369 11.7503 350.969 11.7672C348.846 11.778 350.865 11.9027 348.968 11.8968C347.205 11.8912 349.031 11.7708 348.508 11.7657C344.171 11.7221 311.226 11.8801 303.403 11.7665C308.184 11.8006 332.044 11.5599 331.565 11.4749C331.461 11.4633 325.662 11.3717 324.466 11.4163C322.49 11.3121 315.704 11.6296 312.014 11.5672C311.596 11.5601 313.24 11.382 306.653 11.3497C304.384 11.3386 298.443 11.4775 292.463 11.3219C283.806 11.3966 238.292 11.1656 235.169 11.357C235.076 11.3671 241.486 11.433 237.155 11.5116C231.399 11.616 236.569 11.2643 229.859 11.234C228.848 11.2294 210.182 11.2649 209.571 11.2867C203.918 11.4841 220.228 11.5641 220 11.587C219.431 11.6448 205.879 11.6797 205.328 11.6661C204.803 11.6519 215.856 11.3904 202.574 11.4896C204.096 11.5208 205.618 11.5521 207.139 11.5833C200.893 11.6442 200.297 11.4633 198.784 11.4522C194.08 11.4172 188.991 11.6921 181.453 11.3526C179.461 11.2625 182.769 11.1625 182.52 11.149C180.126 11.0278 177.071 11.3521 173.471 11.1102C173.2 11.0921 181.578 10.9472 166.935 10.9468C167.942 10.97 168.95 10.9932 169.958 11.0164C167.893 11.0682 153.067 11.099 151.072 11.0867C145.245 11.051 150.327 10.8845 144.47 10.9044C148.226 11.1325 130.416 11.1623 131.441 10.9659C128.953 11.2126 113.824 11.0223 106.712 11.0164C102.224 11.0129 93.0711 11.1206 91.6453 11.108C89.9084 11.0926 90.4362 10.9243 87.2999 10.8868C86.4055 10.8761 77.069 10.9995 68.8737 10.8253C67.2855 10.7917 63.9499 10.5062 66.9019 10.4349C71.9547 10.3128 81.5135 10.5428 81.3915 10.3741C81.2482 10.1936 68.3735 10.3009 64.9081 10.2774C48.9093 10.1685 58.1478 9.97663 57.7363 9.91849C56.6693 9.77738 47.9276 9.78176 47.5628 9.76907C46.0511 9.71271 52.2457 9.60103 52.3392 9.51491C52.4521 9.40277 44.0259 9.2004 45.9415 9.1626C48.6836 9.10892 56.4273 9.2776 56.9183 9.26954C63.3093 9.16075 54.549 8.90168 52.1347 8.7744C51.4028 8.73525 54.319 8.67089 53.7122 8.65941C44.449 8.48515 51.7595 9.0235 45.5983 8.98755C40.1012 8.9555 47.174 8.78525 46.964 8.77587C46.6926 8.76555 40.12 8.75627 39.0911 8.69603C38.584 8.66587 55.6672 8.33472 54.9537 8.18625C49.5031 8.21896 44.0524 8.25168 38.6017 8.28439C38.1744 8.0908 46.0143 8.23331 46.8252 8.21335C48.4576 8.17329 43.9057 8.07533 44.1011 8.01412C44.2059 7.97519 49.5484 7.83627 44.7219 7.779C43.0631 7.75923 39.582 7.89496 33.5406 7.7563C54.5656 7.57919 39.9956 7.47037 39.3759 7.40179C38.7688 7.33322 48.8063 7.17183 36.6226 7.20037C36.0943 6.82361 36.8852 7.08128 40.3472 7.01506C44.5883 6.93366 34.7864 6.8096 50.287 6.90373C49.4051 6.72733 36.9462 6.73981 36.2866 6.72574C35.717 6.71299 38.4864 6.62622 37.499 6.59683C25.8191 6.25599 33.8414 6.41164 30.4586 6.19398C30.1578 6.17453 19.1185 6.09384 27.5227 6.06214C42.8339 6.00451 49.233 6.25447 51.806 5.72009C40.4808 5.48796 26.7587 5.8329 23.316 5.83874C18.0465 5.84716 23.5053 5.73818 22.8559 5.70764C22.6304 5.69777 18.0895 5.70677 18.0285 5.69811C14.7905 5.29053 38.2436 5.69135 45.6275 5.62047C43.6483 5.55944 41.6691 5.4984 39.6899 5.43736C42.3751 5.43492 45.0603 5.43248 47.7454 5.43004C34.9533 5.30734 47.2944 5.38358 50.4841 5.05356C51.2002 4.9794 42.7963 5.10657 52.383 4.90048C45.3123 4.8529 47.5676 4.78547 41.1652 4.8785C41.3304 4.74622 55.7354 4.597 61.4171 4.52912C41.3452 4.38047 52.7915 4.86568 35.4394 4.60896C32.2217 4.77276 40.5041 4.74087 39.8287 4.7679C37.4056 4.86511 31.7251 4.71076 24.8716 5.05136C23.7557 5.10728 28.4776 5.27941 21.4902 5.2711C20.7174 5.26992 16.2651 5.12282 16.3268 5.11215C16.9171 4.99695 21.3229 5.04012 21.5048 4.99203C21.6755 4.94651 16.7601 4.97389 16.7431 4.96127C16.5921 4.81694 20.8444 4.90611 20.2268 4.86092C18.893 4.76266 1.21213 4.45207 24.2874 4.54304C5.12092 4.70621 21.8335 4.70241 29.2974 4.63972C31.2008 4.62401 31.6829 4.5378 34.3951 4.50788C37.8838 4.46914 41.9672 4.51052 43.7725 4.4947C45.714 4.47726 34.6821 4.27348 50.6375 4.33429C42.5173 4.1316 28.1741 4.3477 20.1975 4.20538C4.10461 3.91779 31.4182 3.85604 34.2636 3.82817C35.0217 3.82062 32.4802 3.70419 32.9855 3.69706C33.8119 3.68612 49.3135 3.73994 50.842 3.64359C52.3664 3.54733 45.1641 3.64803 44.6854 3.54764C44.3608 3.48006 63.0613 3.36018 52.938 3.31399C45.9607 3.28233 33.0996 3.55396 30.9333 3.26199C41.1944 3.23782 51.4555 3.21364 61.7166 3.18947C56.1003 3.07839 50.4841 2.9673 44.8679 2.85621C56.3849 2.82098 66.3413 2.94639 77.2798 2.78736C50.9951 2.43139 85.8141 2.50328 86.1971 2.45995C86.3252 2.43404 75.9793 2.14511 74.3147 2.09226C83.4823 1.98111 111.339 1.9268 95.0413 1.57003C97.9995 1.65058 105.163 1.45173 105.069 1.43672C104.159 1.27911 88.5347 1.38131 91.083 1.23896C94.036 1.07376 98.174 1.29787 102.717 1.27998C126.029 1.18667 119.634 0.363858 143.009 0.494059C142.544 0.464761 142.079 0.435463 141.614 0.406165C167.022 0.452797 192.43 0.49943 217.838 0.546063C227.779 0.294791 254.236 0.141784 267.23 0.169584C269.847 0.174998 282.693 0.306871 283.663 0.32999C285.458 0.374299 275.587 0.391206 280.047 0.474283C280.989 0.491335 302.738 0.546745 301.183 0.406165C298.746 0.389865 291.119 0.460531 289.87 0.427406C281.101 0.190973 348.152 0.379857 351.473 0.284578C349.988 0.238922 348.503 0.193266 347.018 0.14761C351.249 0.170072 355.48 0.192534 359.711 0.214995ZM165.291 11.5057C162.752 11.6468 156.388 11.5408 152.628 11.5804C147.432 11.6359 138.6 12.179 142.403 11.6346C150.032 11.5916 157.662 11.5487 165.291 11.5057ZM276.797 11.7159C271.681 11.6402 275.649 11.3361 279.843 11.4625C280.308 11.4769 283.719 11.8179 276.797 11.7159ZM223.162 11.5716C223.378 11.5676 227.799 11.5756 227.953 11.5804C231.918 11.7025 218.589 11.6775 223.162 11.5716ZM482.26 11.4156C476.623 11.4287 480.705 11.7052 484.21 11.5914C484.43 11.5842 482.631 11.415 482.26 11.4156ZM478.25 11.4083C473.872 11.1608 465.055 11.6624 472.065 11.6119C472.745 11.6068 478.453 11.4203 478.25 11.4083ZM258.561 11.5951C259.137 11.5002 264.414 11.546 266.668 11.5687C266.607 11.6553 260.771 11.5845 258.561 11.5951ZM392.364 11.5687C392.588 11.4941 374.245 11.4982 372.996 11.5965C375.891 11.5548 392.153 11.6357 392.364 11.5687ZM439.404 11.464C438.94 11.4511 432.603 11.4707 432.788 11.5365C435.881 11.6228 441.498 11.5223 439.404 11.464ZM532.901 11.4684C533.245 11.4518 528.499 11.0331 539.744 11.3087C541.395 11.349 535.499 11.4585 536.085 11.4735C537.314 11.5028 538.285 11.5164 539.065 11.5189C533.828 11.5536 528.388 11.5699 527.862 11.5445C525.39 11.4246 532.748 11.4753 532.901 11.4684ZM581.986 11.1563C583.065 11.088 589.956 11.1245 591.524 11.1527C591.793 11.158 590.62 11.3375 593.722 11.3241C596.214 11.313 592.492 11.1291 597.345 11.1585C602.249 11.1881 595.697 11.3191 596.125 11.3285C596.699 11.3407 604.285 11.2581 604.049 11.3651C603.873 11.4443 595.746 11.3907 593.737 11.4076C591.164 11.4292 594.284 11.5612 589.983 11.5328C587.281 11.5151 588.779 11.283 588.208 11.2713C587.73 11.2619 578.284 11.3954 582.001 11.1571C581.996 11.1568 581.991 11.1566 581.986 11.1563ZM540.482 11.5086C540.088 11.5165 539.625 11.5206 539.065 11.5189C539.54 11.5157 540.013 11.5121 540.482 11.5086ZM180.073 11.4039C182.733 11.4755 174.839 11.5672 171.85 11.4735C171.798 11.3979 179.65 11.3928 180.073 11.4039ZM545.338 11.3197C553.118 11.3778 547.396 11.4578 540.482 11.5086C542.677 11.465 542.726 11.3002 545.338 11.3197ZM324.466 11.4163C324.794 11.4337 325.002 11.4606 325.028 11.505C324.166 11.4565 324.089 11.4304 324.466 11.4163ZM342.614 11.4955C348.836 11.3604 336.195 11.3659 336.275 11.4625C336.313 11.499 342.365 11.5008 342.614 11.4955ZM489.49 11.4288C488.921 11.4156 497.763 11.0078 484.926 11.3138C491.777 11.3619 484.549 11.4063 484.655 11.442C484.935 11.5446 496.444 11.446 498.992 11.4903C500.987 11.3067 491.369 11.4723 489.505 11.4288C489.5 11.4288 489.495 11.4288 489.49 11.4288ZM670.45 11.2552C668.891 11.3628 663.944 11.3282 660.606 11.3219C662.165 11.2142 667.112 11.2489 670.45 11.2552ZM1544.01 11.2706C1521.14 11.3701 1518.18 10.9319 1539.11 11.1051C1539.52 11.1087 1545.4 11.2262 1544.01 11.2706ZM1347.7 11.1571C1345.55 10.9661 1352.68 10.9353 1357.37 11.0142C1358.43 11.032 1362.35 11.2254 1357.87 11.2633C1358.01 11.0318 1351.09 10.9433 1347.7 11.1571ZM549.735 11.1973C552 11.07 558.973 11.1606 562.647 11.1798C560.405 11.2846 552.984 11.2372 549.735 11.1973ZM1468.85 11.0421C1466.44 11.0276 1464.81 11.1938 1465.23 11.2076C1467.09 11.271 1471.6 11.1367 1468.85 11.0421ZM527.226 11.1776C526.907 11.1015 536.143 11.0282 536.786 11.2164C534.812 11.2028 527.455 11.2253 527.226 11.1776ZM664.155 11.1981C662.721 11.1594 670.147 11.0901 672.393 11.1285C672.212 11.2095 665.095 11.2232 664.155 11.1981ZM1430.03 11.0985C1427.87 11.084 1422.48 11.0796 1421.88 11.1468C1421.14 11.2308 1429.05 11.2022 1430.03 11.0985ZM1831.76 10.9534C1832.03 10.9836 1823.67 11.2011 1819.96 11.1461C1812.91 11.0408 1831.46 10.9321 1831.76 10.9534ZM1491.67 10.9564C1498.48 11.1144 1490.92 10.9614 1491.22 11.1278C1495.8 11.1338 1507.2 11.142 1499.36 10.9783C1497.84 10.9467 1493.81 10.9671 1491.67 10.9564ZM1485.39 10.9007C1484.66 10.9546 1479.75 11.1246 1484 11.1124C1485.96 11.1065 1489.12 10.9177 1485.39 10.9007ZM1780 11.0274C1773.9 10.8801 1801.87 10.9591 1802.67 10.9849C1803.1 10.9986 1803.38 11.0114 1803.54 11.0223C1804.56 10.9756 1809.85 10.9672 1810.46 11.0853C1808.87 11.0755 1804.55 11.0859 1804.05 11.0728C1803.83 11.0673 1803.67 11.062 1803.56 11.0567C1801.69 11.1592 1781.17 11.0553 1780 11.0274ZM1733.64 10.8758C1740.63 10.6585 1741.86 11.028 1741.26 11.0399C1733.66 11.1911 1738.62 10.9186 1738.38 10.9058C1737.85 10.8846 1732.45 11.011 1733.67 10.8758C1733.66 10.8758 1733.65 10.8758 1733.64 10.8758ZM1770.5 10.9666C1770.78 10.9618 1776.65 10.9732 1776.89 10.9791C1781.69 11.1033 1765.1 11.0715 1770.5 10.9666ZM618.984 10.8978C623.182 10.9345 619.064 11.0705 616.275 11.0216C616.046 11.0167 615.281 10.8653 618.984 10.8978ZM1482.04 10.9373C1481.07 10.9116 1456.17 10.8148 1457.67 11.0201C1459.78 10.9959 1488.08 11.1015 1482.04 10.9373ZM1296 10.8875C1300.39 10.8891 1295.61 11.0828 1293.26 11.0106C1292.4 10.9838 1294.9 10.8872 1296 10.8875ZM514.774 11.0018C510.216 11.1082 511.159 10.7513 515.11 10.8736C515.265 10.8784 514.953 10.9976 514.774 11.0018ZM1331.07 10.9989C1315.93 11.1162 1319.52 10.5023 1339.2 10.7095C1338.59 10.7369 1337.97 10.7642 1337.35 10.7916C1360.07 10.8837 1338.91 10.8348 1333.34 10.8692C1331.23 10.8823 1333 10.9847 1331.09 10.9996C1331.08 10.9993 1331.08 10.9991 1331.07 10.9989ZM1272.92 10.8758C1258.34 10.4401 1286.17 10.7238 1294.16 10.6671C1286.42 10.847 1276.34 10.8198 1290.04 11.004C1270.01 11.0396 1278.35 10.8661 1277.55 10.8516C1276.6 10.8354 1273.54 10.8945 1272.92 10.8758ZM1311.38 10.8729C1312.22 10.8602 1318.57 10.9489 1320.86 10.9344C1317.66 11.0833 1305.78 10.9593 1311.38 10.8729ZM1685.05 10.9769C1685.58 10.8603 1686.88 10.7743 1691.89 10.8179C1690.34 10.8765 1687.14 10.9269 1685.05 10.9769ZM160.471 10.8919C157.02 10.8836 150.148 10.8396 152.255 10.9622C152.486 10.9727 160.461 10.9607 160.471 10.8919ZM1409.74 10.8428C1409 10.8285 1390.02 10.8189 1396.58 10.9476C1398.55 10.9864 1415.83 10.9699 1409.74 10.8428ZM1508.04 10.8575C1506.45 10.8563 1500 10.8782 1499.86 10.9058C1499.42 11.0012 1507.34 10.9488 1508.04 10.8575ZM143.06 10.7725C142.606 10.7604 132.064 10.7819 133.223 10.8384C135.422 10.9455 144.618 10.8142 143.06 10.7725ZM634.255 10.6246C635.137 10.6203 636.302 10.7469 636.607 10.7484C637.323 10.7502 653.455 10.7014 647.292 10.8641C646.264 10.8913 623.055 10.8289 620.036 10.8128C618.869 10.6389 628.783 10.8043 631.195 10.7864C631.62 10.783 631.892 10.6375 634.248 10.6253C634.251 10.6251 634.253 10.6248 634.255 10.6246ZM1711.16 10.8538C1711.87 10.7433 1730.83 10.67 1730.61 10.804C1724.13 10.8206 1717.64 10.8372 1711.16 10.8538ZM1701.52 10.8355C1697.48 10.7573 1706.95 10.7314 1709.75 10.7659C1709.78 10.8403 1702.11 10.847 1701.52 10.8355ZM1472.07 10.4444C1470.16 10.4714 1476.03 10.6328 1474.71 10.6641C1473.87 10.6837 1469.62 10.6232 1468.26 10.6736C1467.87 10.6897 1472.22 10.8413 1473.47 10.8348C1475.26 10.826 1473.53 10.7067 1475.47 10.7059C1481.94 10.7033 1487.67 10.7884 1493.73 10.7864C1494.28 10.786 1490.03 10.7017 1494.7 10.7029C1495.42 10.703 1499.76 10.8285 1505.34 10.8099C1517.68 10.4211 1526.73 10.8028 1542.39 10.6627C1541.8 10.626 1530.09 10.5279 1529.4 10.5242C1516.32 10.4603 1492.88 10.4533 1479.18 10.4524C1475.66 10.4521 1477.37 10.5344 1475.85 10.5374C1474.66 10.5396 1476.08 10.3873 1472.07 10.4444ZM162.304 10.8077C160.659 10.6555 154.889 10.7518 151.203 10.744C152.501 10.8812 158.703 10.774 162.304 10.8077ZM1616.38 10.7176C1614.54 10.7235 1608.81 10.6776 1608.33 10.7235C1607.72 10.7833 1615.99 10.821 1616.38 10.7176ZM725.21 10.6678C725.389 10.6636 729.833 10.6718 730.001 10.6766C733.972 10.7987 720.641 10.7737 725.21 10.6678ZM831.524 10.6971C834.894 10.6783 838.293 10.6307 839.426 10.7542C837.278 10.7353 831.128 10.7831 831.524 10.6971ZM978.195 10.6934C977.499 10.5317 987.643 10.6364 989.559 10.6509C988.849 10.7228 978.705 10.8099 978.195 10.6934ZM1684.32 10.4693C1690.52 10.4789 1689.21 10.2339 1693.15 10.3448C1693.79 10.3635 1695.87 10.8735 1689.05 10.6824C1687.82 10.6481 1692.62 10.5269 1684.32 10.4693ZM1342.41 10.7147C1343.99 10.6077 1348.91 10.6394 1352.25 10.648C1351.5 10.7275 1344.78 10.707 1342.41 10.7147ZM124.021 10.6502C121.112 10.4992 107.674 10.6112 110.999 10.711C111.472 10.724 122.135 10.6445 124.021 10.6502ZM565.503 10.7095C571.032 10.5906 559.58 10.5538 555.964 10.67C557.601 10.6624 565.13 10.7174 565.503 10.7095ZM942.964 10.6055C943.229 10.6007 949.092 10.6121 949.354 10.618C954.159 10.7422 937.57 10.7104 942.964 10.6055ZM796.563 10.5008C798.675 10.4029 812.563 10.4819 815.676 10.5799C812.68 10.723 793.942 10.623 796.563 10.5008ZM1658.8 10.5389C1663.22 10.5338 1667.42 10.5639 1671.49 10.6063C1670.63 10.6887 1659.27 10.6004 1658.8 10.5389ZM964.487 10.5953C964.801 10.5959 965.107 10.6053 965.407 10.6063C965.094 10.6028 964.787 10.5988 964.487 10.5953ZM1559.78 10.481C1556.07 10.4485 1556.84 10.5994 1557.07 10.6041C1559.86 10.653 1563.97 10.5177 1559.78 10.481ZM158.068 10.5836C156.783 10.4473 150.547 10.553 146.96 10.5206C148.001 10.6282 155.179 10.5978 158.068 10.5836ZM1257.3 10.5967C1252.65 10.449 1271.6 10.2774 1275.59 10.3726C1275.89 10.4639 1257.99 10.617 1257.3 10.5967ZM548.333 10.5052C547.961 10.3984 540.003 10.5273 541.694 10.5777C542.764 10.6098 548.555 10.5715 548.333 10.5052ZM1285.12 10.4349C1286.9 10.4023 1291.05 10.5076 1289.59 10.5718C1287.72 10.6541 1284.66 10.4442 1285.12 10.4349ZM1444.88 10.3492C1444.1 10.3329 1433.63 10.4424 1437.96 10.5513C1440.96 10.627 1441.44 10.4727 1442.14 10.4722C1442.93 10.4727 1459.74 10.6616 1444.88 10.3492ZM1151.16 10.5037C1155.11 10.4627 1159.88 10.5103 1164.02 10.5074C1162.33 10.5734 1152.84 10.5914 1151.16 10.5037ZM579.021 10.4766C578.061 10.4334 551.927 10.4074 566.773 10.5403C567.639 10.5478 581.935 10.6074 579.021 10.4766ZM1684.32 10.4693C1683.54 10.4681 1682.63 10.463 1681.59 10.4524C1682.63 10.4566 1683.53 10.4638 1684.32 10.4693ZM1613.89 10.4532C1615.31 10.3755 1608.12 10.3547 1606 10.396C1605.34 10.491 1613.69 10.464 1613.89 10.4532ZM1164.33 10.399C1166.72 10.3545 1171.04 10.402 1173.99 10.3968C1173.49 10.469 1165.36 10.4724 1164.33 10.399ZM997.052 10.3177C1001.78 10.3606 1007.6 10.3409 1007.69 10.2525C1007.79 10.2663 1008.02 10.281 1008.4 10.2957C1008.79 10.3103 1013.85 10.2692 1016.05 10.2994C1029.24 10.4785 965.155 10.4046 1002.3 10.1551C1000.55 10.2093 998.8 10.2635 997.052 10.3177ZM777.772 10.2928C775.087 10.1852 767.568 10.32 769.519 10.3624C770.878 10.3914 780.459 10.4011 777.772 10.2928ZM881.084 10.229C880.281 10.2098 872.939 10.2852 872.751 10.3418C876.971 10.4015 884.74 10.3182 881.084 10.229ZM757.133 10.1668C755.448 10.1506 753.298 10.324 753.496 10.3316C755.208 10.3949 759.963 10.2634 757.133 10.1668ZM1671.47 10.002C1668.96 9.95231 1660.97 10.0779 1659.23 10.1924C1658.91 10.1703 1658.03 10.1414 1656.43 10.1067C1656.44 10.1067 1656.44 10.1067 1656.45 10.1067C1654.29 10.0605 1589.69 10.0099 1633.02 10.2305C1634.38 10.2376 1632.52 10.1348 1638.04 10.1529C1638.41 10.1542 1638.59 10.2381 1639.72 10.2422C1642.31 10.2511 1656.12 10.3039 1658.9 10.2364C1658.92 10.2519 1659.1 10.2667 1659.48 10.2803C1662.88 10.4014 1673.42 10.0403 1671.47 10.002ZM895.639 10.2137C894.162 10.1826 889.485 10.2121 889 10.2862C891.32 10.3225 899.068 10.2862 895.639 10.2137ZM578.21 10.1726C575.2 10.1117 567.572 10.2256 569.877 10.2862C571.291 10.3234 581.682 10.2426 578.21 10.1726ZM848.796 10.2532C866.056 10.3408 852.915 10.2461 855.559 10.1375C853.305 10.1761 851.05 10.2146 848.796 10.2532ZM1751.35 10.2825C1748.6 10.2575 1751.84 10.0431 1754.87 10.1595C1755.82 10.1964 1752.89 10.2961 1751.35 10.2825ZM1875.63 10.2159C1873.28 10.0258 1884.76 10.1375 1880.29 10.2679C1880.08 10.2723 1875.8 10.2231 1875.63 10.2159ZM1788.79 10.1382C1786.92 10.2677 1785.71 10.283 1780.44 10.251C1788.23 10.2146 1781.01 10.1001 1788.79 10.1382ZM1007.64 10.2386C1007.67 10.2438 1007.7 10.2477 1007.69 10.2525C1007.66 10.2477 1007.64 10.2432 1007.64 10.2386ZM740.905 10.2005C738.745 10.0908 732.689 10.0989 734.493 10.2093C734.667 10.2195 740.019 10.2815 740.905 10.2005ZM1659.23 10.1924C1659.52 10.2121 1659.37 10.2248 1658.9 10.2364C1658.87 10.2217 1659 10.2079 1659.23 10.1924ZM773.419 10.1111C773.203 10.1929 782.419 10.2247 782.789 10.2151C788.078 10.0733 777.225 10.1062 773.419 10.1111ZM517.272 10.0577C516.796 10.0662 519.862 10.2774 521.741 10.1946C523.197 10.1304 519.052 10.0252 517.272 10.0577ZM1806.66 10.0855C1809.58 10.0856 1813.69 10.0855 1814.45 10.1858C1812.49 10.1704 1806.6 10.1591 1806.66 10.0855ZM1871.14 10.0782C1867.69 10.1961 1859.81 10.1957 1854.78 10.1763C1854.69 10.0211 1867.91 10.1147 1871.14 10.0782ZM1679.39 10.0599C1679.15 10.0535 1671.83 10.0072 1672.83 10.1111C1674.29 10.2635 1681.45 10.1164 1679.39 10.0599ZM531.484 10.1697C534.756 10.0982 527.225 9.87827 523.772 10.0481C521.998 10.1351 530.932 10.1817 531.484 10.1697ZM721.997 10.0569C717.678 10.117 728.382 10.2242 729.877 10.1155C727.888 10.1068 723.531 10.0356 721.997 10.0569ZM868.946 9.94705C855.336 9.63373 862.748 10.2053 865.162 10.1551C865.503 10.1479 869.278 9.95442 868.946 9.94705ZM90.2504 10.024C88.3237 10.0675 95.5067 10.2252 96.4362 10.1214C97.0106 10.0564 91.4825 9.99622 90.2504 10.024ZM1073.88 10.1507C1073.31 10.1517 1072.74 10.1527 1072.17 10.1536C1072.6 10.1485 1073.15 10.1468 1073.88 10.1507ZM682.793 9.63723C692.373 10.0796 691.367 9.73865 692.199 9.7405C693.998 9.74527 698.179 9.86488 701.57 9.84524C697.687 9.89505 693.804 9.94486 689.921 9.99466C692.988 10.0266 719.634 10.1894 720.193 10.1177C720.993 10.0156 712.608 10.0476 712.364 10.0386C712.012 10.0258 710.702 9.74178 709.924 9.73098C708.645 9.71372 686.364 9.70783 682.793 9.63723ZM840.485 9.99613C842.673 10.0299 843.295 10.1424 844.312 10.1155C844.658 10.1063 844.714 9.99899 845.896 9.97123C844.092 9.97953 842.289 9.98783 840.485 9.99613ZM665.638 10.0349C662.925 9.9038 675.085 9.9536 675.475 9.9683C677.555 10.0572 667.854 10.1421 665.638 10.0349ZM768.818 10.0159C768.374 10.0083 759.037 9.9673 759.112 10.0401C761.582 10.0956 774.067 10.1117 768.818 10.0159ZM847.357 9.9639C850.638 9.97642 856.839 10.0845 856.128 9.92288C856.123 9.92288 856.119 9.92288 856.114 9.92288C853.195 9.93656 850.276 9.95023 847.357 9.9639ZM542.687 9.8284C536.608 9.571 539.488 9.89624 544.871 9.97928C546.501 9.86372 543.684 9.87028 542.687 9.8284ZM523.231 9.6365C521.54 9.59018 504.11 9.64093 506.77 9.77713C507.715 9.82566 517.738 9.70325 518.199 9.71267C518.899 9.72663 515.702 9.8773 521.048 9.84744C520.735 9.79639 523.811 9.65197 523.231 9.6365ZM537.655 9.6636C531.614 9.46785 530.256 9.82888 534.8 9.82986C536.575 9.8305 538.517 9.69184 537.655 9.6636ZM562.333 9.69436C560.159 9.66012 554.369 9.61018 550.378 9.73025C555.719 9.7405 561.06 9.75076 566.401 9.76101C567.017 9.69299 564.235 9.72445 562.318 9.69436C562.323 9.69436 562.328 9.69436 562.333 9.69436ZM1907.45 9.15308C1902.65 9.0507 1913.71 9.01146 1914.17 9.03662C1915.56 9.12012 1909.59 9.19881 1907.45 9.15308ZM52.7555 6.74405C51.4217 6.70324 50.5497 6.56896 47.614 6.63931C50.5669 6.73844 53.5199 6.83756 56.4728 6.93669C58.7676 6.70956 54.2133 6.78907 52.7555 6.74405ZM41.4792 5.91419C41.8964 5.90869 39.6177 5.55943 45.0067 5.7926C48.6478 5.95004 28.8475 6.10347 25.2733 5.94861C29.2225 5.87665 37.8885 5.95902 41.4792 5.91419ZM6.79606 4.40241C6.56775 4.37456 14.0904 4.3337 14.9611 4.35334C19.5331 4.45683 8.03125 4.55163 6.79606 4.40241ZM30.7946 4.46906C27.2666 4.40124 35.0821 4.35752 37.4113 4.39655C37.6372 4.46156 31.3396 4.47894 30.7946 4.46906ZM1858.84 4.09478C1855.02 3.85742 1851.6 4.36839 1857.48 4.26544C1857.76 4.2606 1859 4.10641 1858.84 4.09478ZM14.1504 4.0501C17.6784 4.11793 9.86287 4.16164 7.53369 4.12261C7.31708 4.05768 13.6133 4.04018 14.1504 4.0501ZM1856.15 3.52933C1851.08 3.35853 1852.86 3.93178 1853.5 3.95488C1856.11 4.04611 1865.06 3.82111 1866.88 3.76518C1853.49 3.85121 1858.54 3.60982 1856.15 3.52933ZM1832.76 3.87358C1828.06 3.93474 1840.08 4.0517 1842.37 3.89189C1840.04 3.89954 1834.1 3.8559 1832.76 3.87358ZM1804.22 3.68974C1801.69 3.66921 1794.16 3.62005 1792.9 3.71025C1795.66 3.69392 1803.15 3.78255 1804.22 3.68974ZM1798.49 3.41946C1794.54 3.2969 1793.59 3.654 1798.15 3.54764C1798.32 3.54352 1798.63 3.42628 1798.49 3.41946ZM1776.27 3.29055C1773.67 3.14854 1770.71 3.49437 1774.91 3.50369C1776.16 3.50583 1776.54 3.30683 1776.27 3.29055ZM1849.8 2.91261C1846.09 2.85163 1841.3 3.09929 1849.23 3.12648C1846.45 3.16433 1843.66 3.20217 1840.88 3.24001C1851.26 3.37883 1850.5 3.03538 1853.48 3.04958C1857.65 3.06976 1857.32 3.35317 1856.48 3.44217C1859.9 3.26853 1874.42 3.26575 1882.81 3.23269C1875.43 3.15982 1863.47 3.03349 1856.19 2.98732C1854.12 2.97395 1852.1 3.05168 1850.33 3.04298C1847.49 3.02863 1850.01 2.91671 1849.82 2.91261C1849.81 2.91261 1849.81 2.91261 1849.8 2.91261ZM1747.05 3.28542C1739.43 3.12455 1744.25 3.47188 1748.56 3.40994C1748.74 3.40517 1747.24 3.28935 1747.05 3.28542ZM4.04273 2.99464C14.2268 3.13982 6.82423 3.33223 28.1289 3.04005C19.1783 3.2469 27.6339 3.18881 25.8868 3.27224C24.4852 3.33825 19.2336 3.28358 22.2863 3.41653C18.2738 3.27183 0.853687 3.31185 0.0770661 3.28835C0.0843694 3.28835 0.0916726 3.28835 0.0989759 3.28835C-0.36747 3.27443 0.793029 2.94847 4.04273 2.99464ZM1804.18 2.7815C1801.64 2.36007 1800.64 3.02897 1795.64 2.67969C1788.99 3.18689 1814.02 2.67976 1817.05 3.10817C1789.86 3.05839 1835.02 3.53267 1816.04 2.89137C1831.67 3.12413 1821.16 2.81194 1823.58 2.73023C1826.16 2.64318 1835 2.73778 1834.55 2.58081C1834.55 2.58081 1834.54 2.58081 1834.54 2.58081C1829.13 2.59179 1823.72 2.60278 1818.31 2.61377C1823.61 2.95238 1812.55 2.85085 1808.8 2.57495C1807.26 2.6438 1805.72 2.71265 1804.18 2.7815ZM1834.79 3.09938C1834.26 3.09163 1822.5 3.13909 1823.25 3.20705C1824.83 3.2504 1841.52 3.19842 1834.79 3.09938ZM1886.57 3.0254C1882.35 3.02458 1875.82 2.95852 1873.52 3.0862C1877.74 3.08706 1884.27 3.15315 1886.57 3.0254ZM1669.05 3.00123C1663.66 3.10601 1680.24 3.13705 1675.44 3.01295C1675.21 3.00711 1669.31 2.99634 1669.05 3.00123ZM1791.93 2.84522C1786.46 2.71643 1789.04 3.12637 1793.1 3.01955C1793.33 3.01325 1792.18 2.8511 1791.93 2.84522ZM12.2954 2.94484C12.6616 2.8444 27.4377 2.91495 30.0569 2.91407C28.5688 3.00743 11.8753 3.05998 12.2954 2.94484ZM1894.01 2.64966C1885.6 2.28851 1874.2 2.70565 1872.95 2.69654C1871.7 2.68725 1873.65 2.52938 1873.37 2.52514C1872.72 2.51629 1859.48 2.52954 1858.84 2.54052C1858.38 2.54909 1860.77 2.77094 1858.04 2.84083C1863.37 2.71477 1887.59 2.79363 1888.85 2.76905C1889.82 2.74942 1882.48 2.51645 1893.99 2.64966C1894 2.64966 1894 2.64966 1894.01 2.64966ZM1869.82 2.64819C1873.13 2.74119 1863.85 2.75283 1861.6 2.71851C1856.61 2.64171 1869.4 2.63717 1869.82 2.64819ZM1847.5 2.5625C1846.44 2.54164 1836.88 2.52269 1836.06 2.62622C1840.59 2.76052 1849.91 2.6111 1847.5 2.5625ZM1741.08 2.57641C1738.59 2.58968 1731.76 2.51012 1731.37 2.60058C1733.86 2.58739 1740.69 2.66688 1741.08 2.57641ZM62.7098 2.15525C58.5832 2.07956 68.1441 2.04863 70.9333 2.08494C71.0846 2.14529 63.0611 2.16176 62.7098 2.15525ZM1791 1.9802C1789.53 1.95269 1759.53 2.02134 1755.32 2.0637C1759.44 2.13211 1789.17 2.13737 1790.52 2.10398C1790.92 2.09399 1791.19 1.98453 1791 1.9802ZM1855.89 1.93845C1858.64 1.80523 1860.44 1.96501 1860.79 1.96702C1864.19 1.9874 1871.24 1.95736 1869.7 2.08567C1863.69 2.0339 1850.42 2.203 1855.89 1.93845ZM1738.95 1.97361C1728.76 2.02305 1748.33 2.1634 1745.76 2.02415C1745.59 2.01573 1740 1.96842 1738.95 1.97361ZM1794.36 1.94138C1796.6 1.83373 1826.62 1.92657 1831.43 1.92673C1827.12 2.12528 1823.64 1.97447 1817.84 1.98459C1816.28 1.98756 1816.7 2.07016 1816.53 2.07029C1813.82 2.07412 1815.85 1.97872 1814.18 1.97727C1813.12 1.97662 1791.19 2.09305 1794.36 1.94138ZM1857.46 1.84616C1859.14 1.76979 1877.88 1.73724 1878.64 1.75753C1884.28 1.90847 1858.92 1.87275 1857.46 1.84616ZM1791.6 1.76486C1794.83 1.53411 1809.74 1.68864 1799.53 1.80368C1798.56 1.81414 1794.43 1.71412 1791.6 1.76486ZM1740.03 1.75387C1739.53 1.74709 1728.91 1.70096 1728.72 1.77438C1730.26 1.80291 1745.74 1.82851 1740.03 1.75387ZM1745.54 1.50557C1745.28 1.50733 1747.77 1.64874 1742.79 1.63082C1742.38 1.62913 1741.61 1.47004 1735.35 1.52828C1734.08 1.54027 1732.11 1.64552 1732.25 1.65206C1738.77 1.90174 1758.4 1.42354 1745.54 1.50557ZM1857.81 1.71725C1856.8 1.6501 1859.23 1.45078 1861.43 1.55172C1862.37 1.5953 1860.61 1.71492 1857.81 1.71725ZM1706.35 1.68942C1712.53 1.56854 1693.14 1.54568 1692.15 1.57662C1692.78 1.65192 1705.73 1.70122 1706.35 1.68942ZM72.372 1.22211C72.3671 1.22211 72.3623 1.22211 72.3574 1.22211C77.5517 1.2495 74.3343 1.35006 74.5776 1.35322C85.6415 1.50093 82.7069 1.27316 84.437 1.24628C88.1468 1.18815 87.5491 1.46513 93.8071 1.35029C83.4628 1.51987 92.8787 1.44878 93.1717 1.54732C94.331 1.94945 79.3992 1.35903 74.2416 1.44331C73.523 1.45498 78.8288 1.58332 76.9877 1.61983C71.0015 1.73814 52.4408 1.11737 72.372 1.22211ZM1863.12 1.53414C1865.53 1.41602 1883.81 1.53058 1878.96 1.62789C1878.18 1.64349 1859.58 1.7063 1863.12 1.53414ZM1009.3 1.35981C1013.69 1.25759 1003.51 1.13743 1001.62 1.21699C1000.69 1.25662 1007.37 1.40468 1009.3 1.35981ZM937.918 0.922542C932.698 0.943293 927.195 1.36957 933.689 1.30342C934.379 1.29619 938.516 0.981672 937.918 0.922542ZM1280.67 1.14154C1275.22 0.989207 1275.55 1.27225 1279.55 1.26826C1280.96 1.26689 1280.85 1.14637 1280.67 1.14154ZM1072.65 1.17817C1072.1 1.16829 1065.8 1.18636 1066.03 1.25141C1068.36 1.29044 1076.18 1.24599 1072.65 1.17817ZM1282.4 1.10126C1279.17 1.15227 1284.74 1.35699 1288.69 1.15693C1286.68 1.17334 1282.74 1.09605 1282.4 1.10126ZM1780.34 1.13935C1777.63 1.25557 1769.98 1.22045 1765.58 1.24043C1765.11 1.08985 1777.2 1.16665 1780.34 1.13935ZM960.076 1.09394C955.134 1.20006 965.721 1.28694 964.75 1.14667C964.615 1.13905 960.27 1.08941 960.076 1.09394ZM1456.52 1.08588C1452.93 1.1757 1464.33 1.29649 1461.2 1.13861C1461.04 1.13218 1456.72 1.08088 1456.52 1.08588ZM1506.32 1.13788C1503.6 1.10758 1491.98 1.11691 1496.5 1.20454C1497.2 1.218 1506.12 1.22015 1506.32 1.13788ZM84.7437 1.13788C83.2754 0.983204 91.7982 1.02002 93.0183 1.04706C93.4977 1.0583 86.6588 1.33913 84.7437 1.13788ZM1245.28 1.11737C1242.46 1.13673 1235.14 1.09995 1233.85 1.1811C1237.3 1.1643 1246.2 1.27902 1245.28 1.11737ZM982.606 1.0932C978.303 0.925123 970.951 0.941712 972.769 1.16132C980.89 1.1466 971.765 0.96393 982.606 1.0932ZM1300.57 0.920344C1298.31 0.907523 1296.57 1.11842 1296.83 1.12836C1299.28 1.22289 1302.81 1.0024 1300.57 0.920344ZM1130.86 1.09394C1130.73 1.00381 1123.48 1.04471 1124.45 1.10272C1124.77 1.1222 1130.97 1.16687 1130.86 1.09394ZM1685.4 1.08808C1682.08 1.00581 1692.22 0.925385 1695.22 1.02142C1696.68 1.15981 1685.82 1.09753 1685.4 1.08808ZM1363.28 0.973081C1363.62 0.839326 1352.29 0.914949 1356.75 1.02582C1357.87 1.05356 1363.16 1.0178 1363.28 0.973081ZM1471.76 0.812675C1464.16 0.972178 1496.07 1.08542 1487.68 0.886652C1487.09 0.87249 1472.42 0.799205 1471.76 0.812675ZM1523.88 0.912288C1522.57 0.894712 1523.22 0.445261 1528.65 0.618575C1529.36 0.641052 1526.03 0.759864 1526.61 0.787039C1526.95 0.802526 1538.75 0.865649 1539.3 0.855156C1539.88 0.843242 1539.19 0.699189 1539.79 0.683031C1540.45 0.664972 1547.72 0.791516 1551.52 0.792898C1558.69 0.795271 1559.46 0.675371 1560.05 0.674974C1561.77 0.67418 1564.64 0.759311 1568.12 0.759206C1585.61 0.758249 1612.38 0.656616 1626.25 0.910823C1613.9 0.80874 1602.14 0.917048 1589.86 0.950375C1593.45 0.7001 1571.79 1.14321 1584.46 0.854424C1578.62 0.917066 1528.18 0.967161 1523.89 0.912288C1523.89 0.912288 1523.88 0.912288 1523.88 0.912288ZM917.315 0.796561C920.522 0.643103 904.068 0.677622 902.672 0.855156C904.844 0.879795 916.918 0.813954 917.315 0.796561ZM993.225 0.422279C994.753 0.39579 996.203 0.0958304 1004.22 0.247956C1004.22 0.247956 1004.23 0.247956 1004.24 0.247956C1006.58 0.292382 1003.91 0.365472 1004.34 0.391516C1004.5 0.402151 1011.8 0.551364 1005.74 0.575361C996.481 0.612177 1004.86 0.35221 999.929 0.349034C999.326 0.348788 989.987 0.511155 990.53 0.546795C990.586 0.550947 993.396 0.516599 993.86 0.531414C995.613 0.587101 994.76 0.68077 995.007 0.685228C995.815 0.696651 1010.58 0.537071 1012.73 0.676439C1013.43 0.72138 989.189 0.825053 988.244 0.801688C987.647 0.786964 987.898 0.526955 987.28 0.501383C986.962 0.488646 977.211 0.586079 975.945 0.562177C975.578 0.555263 975.297 0.547811 975.091 0.541668C976.566 0.622111 967.736 0.616319 968.007 0.525554C968.16 0.48988 974.238 0.510529 974.456 0.516765C974.551 0.519405 974.634 0.523044 974.711 0.525554C973.453 0.42752 994.03 0.431942 989.588 0.286043C995.553 0.206118 988.742 0.500072 993.225 0.422279ZM1021.9 0.261872C1021.28 0.289217 1020.67 0.316562 1020.05 0.343907C1030.49 0.276977 1042.54 0.408611 1054.57 0.40763C1057.62 0.40758 1054.11 0.240344 1058.11 0.286043C1061.32 0.322667 1064.87 0.477784 1063.12 0.51237C1062.7 0.520999 1056.17 0.419967 1052.91 0.430336C1043.26 0.461031 1045.7 0.604446 1045.14 0.608321C1044.51 0.612398 1038.45 0.511541 1035.13 0.516032C1026.8 0.527641 1022.99 0.615691 1011.61 0.500651C1018.18 0.406132 1014.58 0.200796 1021.9 0.261872ZM1411.14 0.567304C1411.54 0.477035 1418.37 0.557124 1420.85 0.543865C1420.46 0.634357 1413.62 0.554039 1411.14 0.567304ZM392.802 0.450112C390.703 0.598243 406.435 0.634922 402.289 0.511638C401.372 0.484277 394.779 0.451166 392.802 0.450112ZM463.476 0.540203C465.581 0.499249 457.107 0.392597 457.122 0.507243C457.134 0.544007 463.205 0.545529 463.476 0.540203ZM1156.88 0.40763C1157.28 0.402991 1163.07 0.435984 1163.25 0.44352C1167.09 0.600806 1148.03 0.509899 1156.88 0.40763ZM549.392 0.357823C542.056 0.454916 564.135 0.496999 557.389 0.373205C557.052 0.367175 549.744 0.353105 549.392 0.357823ZM580.08 0.330723C578.321 0.335926 570.513 0.287718 570.41 0.33292C570.255 0.405844 579.192 0.455672 580.08 0.330723ZM1302.09 0.360753C1301.25 0.193848 1311.54 0.320245 1315.12 0.299227C1315.97 0.466248 1305.67 0.339675 1302.09 0.360753ZM1237.1 0.237701C1280.51 0.106129 1270.94 0.462729 1234.52 0.319004C1234.46 0.211928 1234.36 0.245988 1237.1 0.237701ZM1292.69 0.257478C1291.11 0.364403 1286.18 0.332696 1282.85 0.324131C1283.45 0.24979 1290.29 0.276695 1292.69 0.257478ZM374.07 0.220855C376.792 0.085784 388.848 0.252304 386.704 0.308017C386.205 0.320048 373.07 0.295135 374.07 0.220855ZM1160.52 0.264802C1159.51 0.102482 1172.54 0.168693 1173.54 0.204741C1177.57 0.349739 1161.58 0.228976 1160.52 0.264802ZM1363.7 0.217926C1366.01 0.0907822 1372.54 0.156177 1376.75 0.157865C1374.83 0.266581 1367.27 0.220213 1363.7 0.217926ZM1333.35 0.118312C1333.62 0.113432 1339.48 0.124911 1339.74 0.130764C1344.55 0.254947 1327.96 0.223144 1333.35 0.118312ZM65.171 0.00112009C65.3664 -0.00297689 69.8071 0.00513029 69.9619 0.00990963C73.9257 0.131979 60.5974 0.107036 65.171 0.00112009Z" fill="white"/>
</svg>
