<svg width="893" height="779" viewBox="0 0 893 779" fill="none" xmlns="http://www.w3.org/2000/svg">
<path d="M14.9937 256.995L445.994 4.99451L878.494 272.495H697.494L684.494 772.495H621.494H461.994H172.494L187.994 256.995H14.9937Z" fill="#282A36"/>
<path d="M382.838 500.456C382.831 500.176 383.298 499.888 383.39 499.574C383.778 498.255 384.142 497.817 384.526 496.641C385.143 494.86 385.361 489.403 388.025 489.652C388.025 489.652 388.025 489.652 388.025 489.652C388.051 489.655 388.078 489.659 388.105 489.663C388.615 489.741 389.116 490.293 389.686 490.436C390.255 490.578 393.999 490.966 394.118 491.717C394.269 492.818 392.954 495.095 392.896 495.666C392.863 496.051 393.12 496.574 393.094 497.067C393.004 498.667 392.612 499.352 393.21 500.984C392.608 501.445 392.004 501.893 391.398 502.327C391.448 503.102 390.556 503.991 390.471 504.446C390.404 504.812 390.721 505.123 390.636 505.5C390.542 505.925 389.96 506.446 389.799 507.203C389.531 508.435 390.415 508.971 390.292 509.759C390.162 510.58 389.233 511.579 389.211 512.65C389.27 512.808 389.327 512.974 389.384 513.136C389.653 513.137 389.921 513.136 390.19 513.135C390.11 513.678 389.547 513.708 389.361 514.156C389.141 514.683 389.484 515.135 389.336 515.49C389.214 515.78 388.689 516.019 388.553 516.398C388.351 516.949 388.92 517.055 388.885 517.398C388.878 517.54 388.152 519.847 388.089 519.964C387.659 520.894 386.93 520.616 386.493 521.317C385.292 523.234 384.663 525.547 383.709 527.445C383.29 528.286 382.683 529.099 382.038 529.789C381.263 527.466 378.161 529.149 381.364 530.003C380.406 530.57 380.616 531.676 379.887 532.37C379.414 532.816 378.807 532.886 378.233 533.586C377.213 534.838 376.885 536.973 374.965 535.785C373.938 537.427 372.227 537.928 373.034 539.832C372.747 540.261 371.036 540.227 370.527 540.451C370.051 540.703 366.662 542.712 366.113 543.034C365.581 543.387 364.653 543.995 364.303 544.434C363.871 544.978 364.546 546.958 362.266 545.598C361.186 546.49 360.712 546.689 359.457 547.083C359.229 547.154 359.036 546.86 358.917 546.925C358.673 547.06 358.381 547.514 357.952 547.777C357.246 548.208 356.494 547.758 357.086 548.722C356.685 549.138 356.278 549.549 355.866 549.956C355.598 549.843 355.331 549.729 355.066 549.613C354.904 549.951 354.738 550.289 354.569 550.627C354.205 549.005 352.738 550.71 353.718 551.3C352.607 551.418 351.498 551.512 350.397 551.579C349.863 549.806 348.183 552.186 348.7 553.062C348.586 553.102 348.471 553.141 348.356 553.181C347.195 553.069 346.405 553.76 345.076 553.827C343.753 553.888 343.817 553.674 343.208 552.965C342.937 553.094 342.664 553.223 342.391 553.35C341.484 556.018 340.732 552.052 338.578 554.41C337.418 553.176 335.57 554.362 334.276 555.048C334.126 555.128 334.175 555.409 333.978 555.534C333.495 555.838 332.104 555.698 332.296 556.597C331.789 556.409 331.286 556.218 330.787 556.022C330.435 556.243 330.082 556.462 329.724 556.68C329.765 556.964 329.806 557.248 329.846 557.533C328.946 556.669 327.797 557.189 327.176 557.021C327.053 556.987 326.984 556.597 326.607 556.529C326.167 556.448 325.382 556.644 324.863 556.567C324.705 557.022 324.545 557.476 324.383 557.931C323.484 558.246 323.069 557.114 322.528 557.063C322.43 557.057 320.676 557.249 320.584 557.276C319.819 557.509 320.08 558.498 317.807 558.364C317.403 558.338 317.07 558.005 316.705 558C316.078 557.993 314.233 558.742 313.994 559.438C313.987 559.457 313.982 559.475 313.978 559.493C313.205 558.606 311.046 558.92 310.429 558.628C310.246 558.541 310.23 557.971 309.667 557.821C309.214 557.7 307.981 558.081 307.381 557.957C306.765 557.826 306.589 557.329 306.315 557.271C306.057 557.217 305.78 557.58 305.419 557.544C304.289 557.421 303.347 556.685 302.482 556.564C301.226 556.386 299.92 557.351 298.782 557.683C298.529 557.568 298.309 557.282 298.032 557.233C294.596 556.624 290.814 555.577 287.527 554.429C285.979 553.916 282.646 551.249 282.883 554.037C282.192 554.316 278.641 552.006 277.929 551.704C277.201 551.418 276.463 551.634 275.888 551.417C274.157 550.757 273.079 549.952 270.857 549.4C270.282 549.257 269.479 549.491 269.165 549.337C268.785 549.148 268.612 548.476 268.141 548.209C267.016 547.585 264.794 546.63 263.756 545.946C263.567 545.821 263.724 545.373 263.514 545.089C262.699 543.981 261.48 543.311 260.928 544.72C259.973 543.167 258.304 543.028 257.015 542.229C254.267 540.576 249.882 536.735 247.4 535.288C245.823 534.388 245.372 534.912 243.895 532.64C243.571 532.133 243.289 531.597 242.913 530.979C242.027 529.521 241.978 527.589 240.034 527.59C239.156 525.938 238.03 524.917 238.268 523.081C237.928 523.133 237.587 523.183 237.245 523.231C237.107 523.053 236.971 522.874 236.835 522.694C237.033 522.469 237.232 522.244 237.431 522.02C236.582 520.676 234.482 519.615 233.785 518.412C232.551 516.441 230.375 510.92 230.011 508.74C229.784 507.588 229.187 507.759 230.168 506.708C229.998 506.502 229.829 506.295 229.661 506.086C229.344 506.03 229.026 505.971 228.707 505.911C228.214 504.513 228.127 502.717 227.769 501.387C227.083 498.938 225.58 495.338 225.757 492.726C225.799 492.082 226.279 491.23 226.207 490.615C226.105 489.721 225.122 489.586 225.011 488.421C224.81 486.484 225.825 482.689 225.789 480.912C225.773 480.366 225.422 480.1 225.395 479.717C225.28 478.097 225.385 476.791 224.951 475.24C226.007 473.679 227.188 473.938 228.431 473.561C229.369 473.27 231.585 472.372 232.394 472.313C232.961 472.269 233.624 472.765 234.253 472.683C234.531 474.552 233.933 475.224 232.964 476.61C232.808 479.307 232.781 481.975 232.906 484.696C232.579 484.953 232.253 485.213 231.929 485.475C231.928 485.475 231.928 485.475 231.927 485.475C231.588 486.54 232.481 486.926 232.715 487.458C234.771 492.611 235.607 502.851 238.017 508.26C238.451 509.439 240.721 512.822 240.717 513.823C240.707 514.087 240.294 514.404 240.397 514.622C241.755 516.304 243.203 517.908 244.713 519.408C246.695 523.396 250.343 526.323 253.725 529.123C262.954 536.768 273.914 541.891 285.165 545.614C287.34 546.337 290.237 546.742 292.371 547.508C293.258 547.826 293.446 548.724 294.793 548.384C294.759 548.605 294.725 548.827 294.691 549.048C295.815 549.012 296.59 548.649 297.77 548.817C298.799 548.973 301.406 549.359 302.31 549.56C302.766 549.666 302.539 550.057 302.97 550.112C303.707 550.204 305.345 549.813 306.362 549.905C307.268 549.994 308.792 550.589 309.509 550.558C310.937 550.5 312.518 550.26 313.994 550.069C315.173 549.925 316.374 549.82 317.557 549.867C318.31 549.899 319.309 550.398 319.548 550.37C320.013 550.316 320.121 549.783 320.427 549.698C321.974 549.275 324.463 549.699 326.008 549.55C331.022 549.092 336.209 547.893 340.984 546.622C344.027 545.858 348.835 543.982 351.584 543.1C352.181 542.916 352.279 543.507 352.752 543.281C353.276 543.028 353.384 542.539 353.61 542.39C355.211 541.377 358.515 538.989 360.166 538.315C360.484 538.193 360.939 538.429 361.104 538.313C361.187 538.255 361.199 537.872 361.44 537.663C363.557 535.804 365.229 534.672 367.319 532.881C371.328 529.445 374.683 524.304 377.671 519.662C378.32 518.666 379.498 518.34 379.573 518.181C379.733 517.837 379.32 517.333 379.523 516.598C380.211 514.164 382.123 511.256 382.631 508.881C382.889 507.716 382.674 505.899 382.829 504.767C382.967 503.858 383.827 501.776 383.589 501.316C383.452 501.026 382.848 500.762 382.838 500.456ZM377.22 533.997C376.563 533.177 375.906 535.209 376.81 535.035C377.017 534.996 377.393 534.211 377.22 533.997ZM293.833 554.583C293.788 554.877 293.744 555.171 293.699 555.465C293.97 555.396 294.24 555.326 294.508 555.255C294.407 555.052 294.306 554.849 294.206 554.646C294.082 554.625 293.957 554.604 293.833 554.583ZM307.52 390.282C307.674 390.204 307.911 390.585 308.097 390.599C308.877 390.662 309.174 390.924 309.88 391.059C310.915 391.253 313.997 390.721 313.994 393.43C313.994 393.43 313.994 393.43 313.994 393.43C313.994 393.457 313.993 393.484 313.993 393.511C313.982 394.026 313.725 394.588 313.688 395.171C313.651 395.753 313.685 399.515 313.332 399.727C312.821 400.007 311.583 399.056 311.309 399.104C311.122 399.137 310.899 399.483 310.662 399.548C309.903 399.76 309.484 399.521 308.824 400.471C308.533 399.991 308.239 399.511 307.943 399.033C307.59 399.273 307.016 398.651 306.797 398.697C306.617 398.735 306.532 399.126 306.344 399.153C306.133 399.186 305.786 398.785 305.404 398.87C304.778 399.006 304.728 400.022 304.363 400.173C303.985 400.33 303.344 399.824 302.878 400.215C302.825 400.33 302.771 400.446 302.717 400.561C302.781 400.809 302.844 401.056 302.907 401.303C302.668 401.438 302.522 400.933 302.293 400.942C302.023 400.953 301.927 401.45 301.747 401.463C301.6 401.473 301.367 401.101 301.178 401.142C300.903 401.201 301.015 401.758 300.876 401.877C300.819 401.922 299.758 402.339 299.699 402.351C299.237 402.421 299.111 401.657 298.727 401.63C297.66 401.562 296.673 402.315 295.76 402.68C295.348 402.844 294.9 402.864 294.459 402.805C294.84 400.745 293.108 399.45 294.139 402.426C293.599 402.064 293.397 402.943 292.933 402.877C292.632 402.834 292.364 402.443 291.951 402.527C291.218 402.678 290.664 404.028 290.032 401.903C289.252 402.452 288.345 401.827 288.451 403.798C288.26 403.961 287.45 402.952 287.167 402.856C286.901 402.76 285.004 402.682 284.699 402.736C284.4 402.783 283.882 402.888 283.683 403.12C283.428 403.409 283.773 405.409 282.585 403.292C282.009 403.658 281.768 403.66 281.1 403.577C280.98 403.562 280.864 403.231 280.801 403.25C280.673 403.29 280.533 403.606 280.316 403.708C279.96 403.877 279.517 403.246 279.91 404.303C279.725 404.563 279.543 404.823 279.363 405.083C279.209 404.906 279.054 404.729 278.899 404.552C278.847 404.821 278.795 405.09 278.744 405.358C278.358 403.764 277.762 404.997 278.375 405.772C277.798 405.62 277.218 405.474 276.634 405.336C276.038 403.577 275.532 405.534 276.004 406.433C275.951 406.452 275.899 406.472 275.846 406.491C275.204 406.218 274.937 406.763 274.255 406.694C273.571 406.628 273.551 406.442 273.038 405.735C272.925 405.838 272.813 405.941 272.702 406.045C272.988 408.482 271.411 404.745 271 406.929C269.987 405.785 269.391 406.944 269.005 407.652C268.959 407.734 269.09 407.987 269.039 408.113C268.913 408.418 268.168 408.405 268.629 409.202C268.307 409.075 267.982 408.95 267.656 408.828C267.577 409.064 267.501 409.3 267.425 409.535C267.569 409.784 267.712 410.033 267.856 410.282C267.054 409.613 266.743 410.232 266.381 410.176C266.309 410.165 266.094 409.831 265.887 409.831C265.643 409.828 265.375 410.13 265.1 410.156C265.25 410.58 265.403 411.002 265.558 411.423C265.321 411.854 264.567 410.964 264.3 411.03C264.252 411.041 263.588 411.581 263.566 411.627C263.368 412 264.008 412.749 263.02 413.186C262.844 413.264 262.52 413.076 262.372 413.166C262.108 413.324 261.835 414.492 262.215 415.104C261.387 414.605 260.843 415.496 260.46 415.474C260.343 415.467 259.97 415.034 259.683 415.111C259.449 415.173 259.307 415.884 259.047 416.005C258.768 416.132 258.378 415.836 258.255 415.897C258.14 415.955 258.307 416.322 258.178 416.432C257.773 416.768 256.998 416.629 256.676 416.909C256.211 417.313 256.6 418.524 256.605 419.229C256.465 419.262 256.206 419.171 256.112 419.261C254.939 420.366 253.545 421.56 252.298 422.653C251.712 423.155 249.315 423.676 251.665 424.888C251.862 425.359 249.876 426.246 249.65 426.545C249.426 426.828 249.639 427.331 249.482 427.566C249.01 428.277 248.387 428.596 248.149 429.708C248.092 429.992 248.405 430.527 248.316 430.656C248.208 430.811 247.647 430.703 247.487 430.897C247.109 431.361 246.69 432.411 246.323 432.872C246.255 432.956 245.83 432.755 245.63 432.813C244.846 433.036 244.571 433.647 245.939 434.257C244.838 434.506 245.194 435.491 244.921 436.134C244.346 437.454 242.888 439.788 242.987 441.191C243.042 442.084 243.67 442.308 242.692 443.195C242.476 443.394 242.218 443.577 241.958 443.826C241.35 444.404 239.953 444.614 241.16 445.665C240.513 446.321 240.555 447.044 239.143 447.245C239.409 447.413 239.675 447.581 239.942 447.749C239.916 447.851 239.89 447.954 239.865 448.056C239.577 447.997 239.29 447.935 239.003 447.875C238.699 448.55 239.563 449.803 239.374 450.399C239.045 451.409 237.875 453.889 237.252 454.775C236.916 455.245 237.517 455.424 236.195 455.417C236.252 455.557 236.31 455.696 236.368 455.836C236.623 455.977 236.879 456.117 237.134 456.257C236.978 456.949 236.375 457.618 236.237 458.259C235.986 459.412 236.373 461.373 235.657 462.439C235.476 462.706 234.837 462.968 234.791 463.26C234.723 463.685 235.652 463.956 235.576 464.495C235.443 465.411 234.051 467.032 234.011 467.896C233.997 468.159 234.333 468.333 234.345 468.518C234.399 469.295 234.283 469.918 234.735 470.724C233.718 471.394 232.546 471.181 231.323 471.281C230.399 471.356 228.241 471.696 227.442 471.689C226.881 471.683 226.195 471.372 225.576 471.383C225.211 470.313 225.802 469.955 226.765 469.266C226.932 467.764 227.103 466.364 227.316 464.837C227.668 464.755 228.021 464.674 228.374 464.594C228.375 464.594 228.376 464.594 228.377 464.594C228.852 464.09 228.042 463.709 227.901 463.37C226.521 460.168 229.198 454.625 230.275 451.546C230.487 450.901 230.694 448.529 231.361 448.222C231.533 448.142 232.037 448.258 232.097 448.137C232.15 446.904 232.204 445.726 232.31 444.456C233.863 442.379 234.141 439.781 235.008 437.444C237.338 431.137 240.399 424.911 244.699 419.64C245.514 418.637 246.309 417.083 247.355 416.292C247.793 415.958 248.545 416.362 248.573 415.424C248.742 415.571 248.91 415.718 249.079 415.865C249.3 415.234 249.206 414.595 249.654 414.065C250.029 413.615 251.102 412.523 251.546 412.23C251.771 412.078 251.983 412.452 252.163 412.282C252.468 411.989 252.755 410.951 253.2 410.564C253.6 410.214 254.6 410 254.871 409.689C255.844 408.566 256.697 407.012 258.107 406.248C258.496 406.038 259.264 406.167 259.367 406.079C259.567 405.904 259.338 405.424 259.449 405.268C260.021 404.468 261.562 404.229 262.333 403.796C264.85 402.367 267.472 400.754 270.141 399.679C271.818 398.987 274.588 397.808 276.295 397.649C276.66 397.613 276.757 398.19 277.038 398.094C277.349 397.989 277.396 397.563 277.533 397.485C278.475 396.933 280.649 395.871 281.731 395.997C281.937 396.02 282.189 396.42 282.3 396.389C282.355 396.374 282.403 396.042 282.572 395.965C284.072 395.285 285.251 395.19 286.82 394.96C289.794 394.523 293.157 393.385 296.322 393.315C297.013 393.298 297.58 394.135 297.674 394.115C297.881 394.074 297.949 393.461 298.361 393.268C299.718 392.632 301.695 393.105 303.01 392.713C303.661 392.518 304.531 391.7 305.184 391.496C305.708 391.331 306.96 391.573 307.179 391.23C307.312 391.022 307.352 390.37 307.52 390.282ZM291.423 402.112C291.323 401.073 290.573 402.089 291.015 402.575C291.114 402.684 291.448 402.381 291.423 402.112ZM253.275 419.566C253.497 419.763 253.719 419.96 253.941 420.157C253.933 419.985 253.925 419.813 253.919 419.641C253.743 419.567 253.567 419.494 253.39 419.421C253.351 419.469 253.313 419.517 253.275 419.566ZM383.509 483.125C383.709 483.075 383.936 483.492 384.16 483.537C385.097 483.733 385.418 484.04 386.258 484.288C387.503 484.655 391.331 484.568 391.031 487.255C391.031 487.255 391.031 487.255 391.031 487.255C391.028 487.282 391.025 487.308 391.021 487.335C390.951 487.845 390.568 488.368 390.455 488.942C390.343 489.516 389.961 493.258 389.482 493.417C388.791 493.62 387.313 492.485 386.956 492.488C386.712 492.49 386.378 492.797 386.063 492.823C385.048 492.906 384.556 492.6 383.559 493.423C383.255 492.897 382.952 492.37 382.648 491.844C382.156 492.017 381.52 491.297 381.233 491.3C380.997 491.303 380.817 491.673 380.573 491.664C380.298 491.655 379.927 491.193 379.425 491.201C378.603 491.211 378.346 492.198 377.845 492.271C377.326 492.347 376.602 491.714 375.918 491.995C375.825 492.096 375.732 492.198 375.639 492.299C375.669 492.555 375.699 492.811 375.729 493.067C375.392 493.147 375.309 492.62 375.012 492.578C374.663 492.527 374.43 492.992 374.194 492.964C374.001 492.94 373.782 492.522 373.529 492.518C373.16 492.511 373.177 493.081 372.969 493.164C372.886 493.196 371.4 493.344 371.318 493.34C370.693 493.292 370.725 492.517 370.236 492.395C368.88 492.058 367.398 492.521 366.098 492.614C365.518 492.655 364.93 492.544 364.376 492.358C365.489 490.49 363.684 488.738 364.079 491.899C363.497 491.391 362.957 492.172 362.375 491.965C361.999 491.83 361.779 491.373 361.225 491.323C360.243 491.236 359.035 492.329 358.998 490.105C357.805 490.363 356.898 489.456 356.267 491.346C355.957 491.431 355.326 490.193 355.01 489.999C354.712 489.816 352.356 489.026 351.965 488.953C351.573 488.88 350.885 488.771 350.533 488.904C350.092 489.067 349.576 491.042 349.094 488.612C348.208 488.705 347.907 488.603 347.133 488.241C346.993 488.175 347.015 487.825 346.93 487.815C346.755 487.795 346.428 488.02 346.112 488.016C345.591 488.01 345.38 487.244 345.312 488.37C344.952 488.52 344.591 488.67 344.231 488.82C344.136 488.591 344.041 488.361 343.947 488.132C343.739 488.347 343.531 488.562 343.324 488.778C343.718 487.181 342.334 487.994 342.645 488.971C342.025 488.562 341.405 488.153 340.784 487.744C341.082 485.913 339.364 487.371 339.382 488.387C339.306 488.377 339.231 488.367 339.156 488.357C338.552 487.794 337.903 488.127 337.136 487.708C336.37 487.29 336.466 487.119 336.316 486.245C336.122 486.272 335.927 486.299 335.733 486.327C334.482 488.539 335.107 484.537 333.21 486.129C332.83 484.608 331.408 485.226 330.472 485.57C330.363 485.609 330.329 485.893 330.182 485.965C329.823 486.137 329.006 485.677 328.934 486.595C328.667 486.297 328.399 485.999 328.132 485.702C327.871 485.841 327.61 485.98 327.349 486.119C327.318 486.405 327.288 486.69 327.257 486.976C326.877 485.949 326.068 486.237 325.716 485.962C325.646 485.906 325.673 485.511 325.451 485.377C325.192 485.219 324.669 485.279 324.356 485.119C324.181 485.541 324.005 485.963 323.83 486.385C323.22 486.556 323.144 485.382 322.811 485.255C322.752 485.232 321.617 485.189 321.554 485.207C321.036 485.347 321.067 486.343 319.656 485.972C319.404 485.906 319.236 485.544 319.006 485.504C318.601 485.434 317.285 486.066 317.109 486.766C316.714 485.821 315.349 486.037 314.988 485.736C314.879 485.644 314.916 485.074 314.567 484.913C314.285 484.782 313.479 485.151 313.115 485.034C312.73 484.907 312.642 484.415 312.469 484.362C312.305 484.312 312.108 484.679 311.88 484.651C311.171 484.559 310.596 483.868 310.035 483.794C309.224 483.685 308.379 484.743 307.643 485.172C307.482 485.08 307.344 484.817 307.167 484.795C304.982 484.514 302.536 484.029 300.367 483.54C299.36 483.314 296.998 481.486 297.387 484.139C296.982 484.551 294.522 483.224 294.034 483.154C293.546 483.084 293.106 483.502 292.72 483.466C291.556 483.357 290.775 482.932 289.316 483.177C288.939 483.241 288.486 483.745 288.271 483.714C288.011 483.676 287.79 483.115 287.456 483.044C286.66 482.878 285.141 482.885 284.38 482.707C284.241 482.673 284.243 482.203 284.058 482.035C283.336 481.38 282.451 481.331 282.441 482.832C281.529 481.877 280.513 482.542 279.575 482.485C277.593 482.361 274.04 481.613 272.253 482.045C271.127 482.318 271.08 482.987 269.55 482.234C269.21 482.067 268.877 481.856 268.465 481.656C267.499 481.186 266.713 479.853 265.78 481.249C264.706 480.74 263.785 480.913 263.098 479.553C262.966 479.846 262.835 480.139 262.703 480.432C262.565 480.424 262.427 480.417 262.289 480.409C262.279 480.114 262.269 479.819 262.258 479.525C261.286 479.337 259.907 480.39 259.077 480.288C257.686 480.119 254.15 479.255 252.873 478.717C252.195 478.431 252.088 479.047 251.829 477.726C251.662 477.797 251.496 477.869 251.329 477.94C251.199 478.208 251.07 478.477 250.941 478.745C250.04 478.656 249.021 478.103 248.164 478.012C246.601 477.846 244.17 478.353 242.658 477.673C242.279 477.502 241.852 476.87 241.466 476.834C240.905 476.78 240.662 477.721 239.949 477.66C238.72 477.552 236.561 476.186 235.393 476.141C235.046 476.127 234.846 476.465 234.604 476.477C233.589 476.529 232.775 476.408 231.758 476.852C230.834 475.82 231.055 474.647 230.871 473.418C230.73 472.49 230.225 470.319 230.208 469.518C230.196 468.955 230.551 468.273 230.516 467.651C231.799 467.301 232.256 467.895 233.158 468.865C235.005 469.037 236.852 469.209 238.698 469.38C238.829 469.732 238.959 470.084 239.09 470.436C239.09 470.437 239.09 470.437 239.09 470.438C239.754 470.902 240.15 470.077 240.554 469.925C244.416 468.469 251.446 470.731 255.445 471.391C256.307 471.533 259.178 471.399 259.712 472.006C259.85 472.164 259.836 472.683 259.997 472.723C261.495 472.581 262.993 472.439 264.491 472.298C267.412 473.432 270.598 473.12 273.645 473.336C281.889 473.92 290.059 474.422 298.117 475.447C299.674 475.646 301.697 475.482 303.197 475.901C303.823 476.075 303.996 476.93 304.902 476.408C304.886 476.632 304.87 476.855 304.854 477.078C305.615 476.891 306.138 476.438 306.963 476.478C307.658 476.513 309.487 476.684 310.087 476.837C310.398 476.914 310.234 477.316 310.529 477.347C311.035 477.397 312.177 476.943 312.874 477.021C313.505 477.092 314.515 477.689 315.008 477.674C316.782 477.623 318.764 477.126 320.604 477.524C321.112 477.635 321.714 478.248 321.876 478.251C322.195 478.255 322.347 477.742 322.565 477.698C323.677 477.478 325.28 478.287 326.33 478.429C329.749 478.893 333.406 479.07 336.809 479.547C338.959 479.849 342.553 480.157 344.5 480.773C344.92 480.906 344.741 481.466 345.102 481.506C345.501 481.551 345.761 481.188 345.951 481.177C347.269 481.103 350.167 481.03 351.344 481.562C351.568 481.664 351.686 482.132 351.826 482.146C351.896 482.154 352.089 481.865 352.314 481.859C354.298 481.8 355.703 482.137 357.605 482.456C361.249 483.065 365.56 482.969 369.376 483.708C370.208 483.869 370.684 484.821 370.803 484.825C371.064 484.836 371.296 484.257 371.837 484.168C373.635 483.878 375.911 484.778 377.603 484.664C378.439 484.608 379.649 483.975 380.474 483.897C381.133 483.835 382.621 484.302 382.943 484.001C383.14 483.82 383.292 483.183 383.509 483.125ZM360.692 490.758C360.923 489.738 359.621 490.462 360.011 491.067C360.099 491.203 360.633 491.023 360.692 490.758ZM304.439 482.659C304.417 482.955 304.395 483.251 304.374 483.548C304.546 483.442 304.717 483.337 304.889 483.232C304.82 483.045 304.751 482.858 304.682 482.67C304.601 482.666 304.52 482.663 304.439 482.659ZM397.218 483.533C397.283 483.709 396.885 483.938 396.855 484.141C396.727 484.99 396.439 485.301 396.238 486.046C395.958 487.148 396.131 490.582 393.433 490.267C393.433 490.267 393.433 490.267 393.433 490.267C393.407 490.264 393.38 490.261 393.353 490.257C392.843 490.187 392.315 489.847 391.741 489.743C391.166 489.64 387.424 489.256 387.253 488.866C387.035 488.305 388.111 487.11 388.089 486.817C388.076 486.619 387.753 486.353 387.711 486.1C387.572 485.288 387.846 484.881 386.955 484.108C387.458 483.844 387.959 483.574 388.46 483.3C388.248 482.91 388.91 482.352 388.88 482.117C388.855 481.925 388.47 481.806 388.456 481.608C388.437 481.387 388.86 481.052 388.8 480.648C388.702 479.983 387.691 479.863 387.56 479.471C387.425 479.064 387.963 478.417 387.594 477.905C387.481 477.842 387.368 477.781 387.255 477.719C387.005 477.773 386.755 477.826 386.506 477.879C386.382 477.624 386.893 477.497 386.894 477.258C386.895 476.977 386.401 476.854 386.396 476.668C386.391 476.515 386.773 476.289 386.739 476.09C386.69 475.802 386.129 475.893 386.015 475.742C385.973 475.68 385.59 474.549 385.579 474.487C385.521 473.998 386.289 473.896 386.324 473.495C386.418 472.384 385.68 471.328 385.322 470.354C385.162 469.92 385.145 469.45 385.206 468.989C387.266 469.428 388.567 467.626 385.586 468.659C385.95 468.098 385.069 467.872 385.134 467.386C385.176 467.067 385.565 466.785 385.479 466.35C385.322 465.575 383.963 464.979 386.084 464.331C385.524 463.501 386.132 462.544 384.158 462.643C383.991 462.441 384.986 461.589 385.076 461.289C385.168 461.009 385.195 458.99 385.133 458.673C385.077 458.355 384.955 457.803 384.716 457.591C384.418 457.318 382.419 457.675 384.508 456.421C384.12 455.805 384.111 455.55 384.172 454.845C384.183 454.717 384.512 454.596 384.491 454.53C384.447 454.394 384.124 454.242 384.013 454.011C383.83 453.629 384.449 453.162 383.399 453.573C383.131 453.374 382.862 453.177 382.592 452.983C382.765 452.82 382.938 452.656 383.11 452.492C382.837 452.433 382.564 452.376 382.292 452.32C383.884 451.923 382.621 451.282 381.861 451.924C381.994 451.313 382.12 450.7 382.237 450.077C383.991 449.465 381.996 448.899 381.104 449.386C381.082 449.329 381.061 449.272 381.039 449.216C381.292 448.536 380.731 448.243 380.777 447.519C380.82 446.792 381.008 446.776 381.705 446.245C381.597 446.123 381.489 446.001 381.38 445.88C378.919 446.12 382.654 444.542 380.429 444.047C381.558 443.005 380.371 442.347 379.639 441.905C379.554 441.854 379.3 441.984 379.17 441.924C378.857 441.778 378.852 440.987 378.052 441.442C378.173 441.104 378.292 440.765 378.409 440.425C378.168 440.331 377.926 440.238 377.684 440.147C377.433 440.287 377.183 440.427 376.932 440.568C377.597 439.747 376.962 439.389 377.01 439.006C377.021 438.929 377.357 438.72 377.355 438.5C377.353 438.241 377.04 437.939 377.01 437.646C376.579 437.781 376.15 437.917 375.721 438.055C375.275 437.775 376.178 437.032 376.108 436.746C376.096 436.694 375.54 435.959 375.492 435.931C375.109 435.695 374.344 436.32 373.889 435.234C373.808 435.04 374 434.713 373.908 434.549C373.745 434.256 372.545 433.87 371.914 434.216C372.428 433.382 371.514 432.723 371.539 432.318C371.548 432.195 371.998 431.843 371.923 431.534C371.863 431.282 371.131 431.06 371.012 430.775C370.887 430.47 371.2 430.089 371.139 429.954C371.082 429.827 370.699 429.962 370.588 429.815C370.249 429.351 370.415 428.555 370.135 428.187C369.732 427.654 368.473 427.925 367.735 427.834C367.706 427.683 367.809 427.423 367.719 427.312C366.616 425.945 365.438 424.322 364.383 422.876C363.902 422.203 363.518 419.643 362.094 421.882C361.582 422.007 360.812 419.83 360.52 419.551C360.239 419.272 359.695 419.408 359.462 419.208C358.756 418.605 358.48 417.919 357.349 417.498C357.056 417.391 356.465 417.618 356.337 417.505C356.183 417.367 356.346 416.813 356.157 416.617C355.707 416.153 354.655 415.555 354.217 415.112C354.138 415.029 354.388 414.632 354.346 414.417C354.182 413.58 353.572 413.2 352.798 414.484C352.647 413.326 351.586 413.527 350.95 413.15C349.614 412.34 347.367 410.527 345.873 410.406C344.935 410.327 344.636 410.922 343.817 409.819C343.633 409.575 343.47 409.292 343.242 409C342.713 408.317 342.599 406.877 341.396 407.95C340.768 407.216 340.021 407.174 339.94 405.74C339.744 405.987 339.548 406.235 339.354 406.483C339.252 406.446 339.15 406.41 339.048 406.373C339.134 406.092 339.219 405.811 339.305 405.53C338.611 405.141 337.233 405.869 336.634 405.624C335.633 405.196 333.118 403.814 332.227 403.14C331.756 402.775 331.548 403.366 331.607 402.043C331.46 402.092 331.314 402.142 331.168 402.193C331.014 402.441 330.86 402.689 330.708 402.938C330.022 402.752 329.318 402.111 328.654 401.95C327.436 401.649 325.474 402.019 324.35 401.308C324.068 401.127 323.778 400.49 323.472 400.447C323.027 400.385 322.774 401.319 322.22 401.257C321.276 401.145 319.598 399.834 318.661 399.851C318.385 399.854 318.231 400.202 318.041 400.227C317.246 400.336 316.596 400.274 315.83 400.802C315.056 399.857 315.141 398.672 314.901 397.465C314.721 396.555 314.103 394.45 314.005 393.656C313.939 393.098 314.185 392.381 314.094 391.767C315.21 391.281 315.685 391.834 316.54 392.73C318.186 392.761 319.826 392.853 321.465 393.005C321.576 393.355 321.684 393.705 321.79 394.056C321.79 394.057 321.79 394.057 321.79 394.058C322.358 394.517 322.728 393.697 323.092 393.55C326.622 392.077 332.709 395.006 335.941 396.39C336.654 396.664 339.165 397.104 339.451 397.812C339.526 397.993 339.372 398.488 339.496 398.561C340.799 398.747 342.109 398.971 343.411 399.226C345.492 401.055 348.198 401.709 350.583 402.953C357.001 406.296 363.025 410.428 368.051 415.512C369.019 416.488 370.529 417.485 371.263 418.647C371.572 419.133 371.114 419.861 372.067 419.996C371.906 420.151 371.745 420.306 371.583 420.461C372.211 420.758 372.868 420.734 373.381 421.248C373.813 421.678 374.873 422.898 375.144 423.373C375.287 423.618 374.896 423.799 375.06 424C375.344 424.341 376.387 424.732 376.762 425.222C377.103 425.665 377.28 426.705 377.588 427.009C378.7 428.104 380.25 429.081 381.001 430.577C381.208 430.99 381.069 431.778 381.157 431.888C381.332 432.105 381.821 431.894 381.979 432.017C382.779 432.643 383.015 434.244 383.457 435.064C384.908 437.727 386.583 440.491 387.74 443.302C388.477 445.058 389.759 447.992 389.972 449.781C390.02 450.167 389.443 450.266 389.549 450.564C389.666 450.895 390.096 450.947 390.18 451.093C390.771 452.099 391.905 454.389 391.813 455.547C391.797 455.766 391.403 456.032 391.437 456.15C391.454 456.209 391.789 456.262 391.872 456.442C392.596 458.03 392.725 459.298 392.99 460.974C393.493 464.156 394.663 467.777 394.689 471.211C394.695 471.954 393.846 472.534 393.864 472.635C393.901 472.858 394.513 472.953 394.696 473.403C395.303 474.912 394.757 477.006 395.081 478.458C395.244 479.174 396.011 480.184 396.173 480.899C396.306 481.473 395.975 482.819 396.299 483.085C396.496 483.247 397.143 483.342 397.218 483.533ZM385.891 465.798C386.931 465.705 385.905 464.901 385.423 465.363C385.314 465.466 385.621 465.822 385.891 465.798ZM367.532 424.32C367.316 424.524 367.101 424.728 366.885 424.933C367.063 424.947 367.241 424.961 367.42 424.977C367.505 424.804 367.591 424.631 367.675 424.458C367.628 424.411 367.58 424.365 367.532 424.32ZM319.985 551.159C320.057 551.353 319.668 551.628 319.647 551.857C319.557 552.817 319.287 553.173 319.134 554.041C318.907 555.329 319.419 559.152 316.715 559.152C316.715 559.152 316.715 559.152 316.715 559.152C316.689 559.152 316.662 559.151 316.635 559.151C316.12 559.137 315.557 558.812 314.975 558.764C314.392 558.716 310.631 558.752 310.419 558.29C310.141 557.62 311.105 556.014 311.062 555.657C311.033 555.413 310.691 555.113 310.63 554.8C310.435 553.794 310.685 553.267 309.756 552.361C310.245 551.998 310.735 551.635 311.224 551.272C310.997 550.799 311.643 550.082 311.607 549.794C311.578 549.559 311.191 549.42 311.173 549.174C311.151 548.899 311.568 548.475 311.506 547.974C311.404 547.152 310.395 547.005 310.266 546.512C310.134 546 310.682 545.205 310.327 544.552C310.216 544.47 310.105 544.388 309.994 544.306C309.743 544.365 309.491 544.424 309.24 544.482C309.123 544.154 309.638 544.012 309.647 543.71C309.659 543.355 309.171 543.173 309.173 542.934C309.175 542.738 309.566 542.472 309.542 542.218C309.508 541.848 308.943 541.929 308.837 541.73C308.796 541.65 308.484 540.18 308.48 540.097C308.458 539.466 309.231 539.411 309.299 538.908C309.483 537.513 308.858 536.08 308.622 534.79C308.516 534.214 308.561 533.612 308.685 533.038C310.665 533.943 312.205 531.94 309.108 532.689C309.548 532.049 308.712 531.596 308.853 530.99C308.946 530.598 309.375 530.327 309.364 529.767C309.341 528.774 308.12 527.687 310.327 527.402C309.938 526.236 310.738 525.226 308.79 524.806C308.671 524.505 309.832 523.734 309.989 523.397C310.138 523.078 310.662 520.631 310.691 520.231C310.72 519.831 310.752 519.13 310.581 518.793C310.37 518.369 308.349 518.073 310.712 517.319C310.52 516.442 310.588 516.13 310.862 515.315C310.912 515.167 311.263 515.15 311.263 515.064C311.263 514.886 311.004 514.584 310.972 514.267C310.921 513.745 311.658 513.448 310.531 513.506C310.342 513.162 310.153 512.818 309.965 512.474C310.182 512.354 310.4 512.233 310.617 512.112C310.38 511.928 310.143 511.745 309.906 511.561C311.537 511.777 310.574 510.483 309.639 510.903C309.976 510.236 310.313 509.57 310.651 508.903C312.504 508.996 310.865 507.44 309.857 507.571C309.858 507.494 309.86 507.418 309.861 507.342C310.354 506.674 309.951 506.061 310.282 505.247C310.612 504.433 310.793 504.51 311.645 504.262C311.597 504.071 311.548 503.879 311.499 503.688C309.162 502.683 313.208 502.86 311.415 501.139C312.884 500.59 312.113 499.234 311.667 498.336C311.616 498.231 311.331 498.229 311.243 498.09C311.031 497.75 311.398 496.881 310.478 496.911C310.744 496.61 311.01 496.309 311.276 496.008C311.109 495.763 310.942 495.517 310.775 495.271C310.487 495.272 310.2 495.273 309.913 495.275C310.892 494.78 310.516 494.002 310.75 493.618C310.797 493.542 311.193 493.525 311.301 493.288C311.429 493.011 311.312 492.494 311.436 492.163C310.997 492.035 310.559 491.906 310.12 491.778C309.882 491.187 311.04 490.979 311.13 490.632C311.145 490.569 311.062 489.429 311.038 489.368C310.842 488.865 309.855 489.007 310.066 487.553C310.105 487.293 310.446 487.084 310.46 486.85C310.484 486.436 309.71 485.19 308.995 485.092C309.89 484.59 309.524 483.248 309.783 482.853C309.862 482.734 310.433 482.707 310.554 482.34C310.653 482.043 310.196 481.277 310.273 480.9C310.356 480.5 310.835 480.357 310.869 480.177C310.901 480.008 310.514 479.852 310.516 479.621C310.53 478.9 311.152 478.247 311.163 477.678C311.181 476.854 310.036 476.126 309.528 475.437C309.602 475.266 309.848 475.098 309.85 474.918C309.886 472.699 310.097 470.196 310.342 467.97C310.455 466.937 312.009 464.368 309.416 465.053C308.962 464.694 310.007 462.084 310.023 461.587C310.039 461.09 309.574 460.697 309.567 460.307C309.547 459.129 309.882 458.3 309.477 456.866C309.371 456.496 308.82 456.099 308.826 455.88C308.835 455.616 309.368 455.332 309.402 454.99C309.478 454.174 309.303 452.654 309.395 451.872C309.413 451.729 309.881 451.679 310.027 451.475C310.599 450.679 310.549 449.787 309.056 449.945C309.904 448.925 309.13 447.982 309.083 447.037C308.986 445.039 309.335 441.399 308.707 439.658C308.311 438.56 307.641 438.589 308.219 436.972C308.347 436.614 308.52 436.257 308.673 435.822C309.033 434.802 310.271 433.866 308.779 433.089C309.166 431.956 308.892 431.054 310.167 430.214C309.861 430.114 309.556 430.015 309.25 429.916C309.242 429.777 309.235 429.639 309.227 429.5C309.519 429.456 309.81 429.413 310.102 429.37C310.181 428.375 308.982 427.113 308.99 426.271C309.004 424.859 309.47 421.222 309.863 419.884C310.072 419.173 309.448 419.135 310.732 418.728C310.643 418.569 310.553 418.41 310.464 418.251C310.183 418.151 309.902 418.052 309.62 417.952C309.609 417.04 310.046 415.959 310.041 415.09C310.032 413.507 309.258 411.13 309.767 409.541C309.895 409.142 310.475 408.644 310.468 408.254C310.459 407.685 309.497 407.547 309.479 406.827C309.45 405.584 310.568 403.27 310.482 402.096C310.458 401.747 310.099 401.584 310.061 401.344C309.897 400.334 309.926 399.504 309.373 398.536C310.295 397.496 311.486 397.586 312.687 397.264C313.594 397.02 315.695 396.271 316.489 396.165C317.047 396.09 317.764 396.369 318.379 396.264C318.869 397.51 318.329 398.033 317.465 399.045C317.5 400.913 317.534 402.781 317.569 404.649C317.233 404.819 316.898 404.989 316.563 405.159C316.562 405.159 316.561 405.159 316.561 405.159C316.174 405.876 317.037 406.18 317.233 406.567C319.109 410.271 317.641 417.562 317.429 421.64C317.384 422.518 317.836 425.377 317.292 425.98C317.15 426.136 316.633 426.179 316.611 426.345C316.918 427.829 317.225 429.313 317.533 430.797C316.73 433.848 317.393 437.003 317.517 440.077C317.852 448.395 318.259 456.631 318.135 464.813C318.111 466.394 318.498 468.401 318.248 469.949C318.145 470.595 317.315 470.864 317.933 471.713C317.71 471.722 317.486 471.731 317.262 471.74C317.532 472.48 318.041 472.954 318.093 473.784C318.136 474.483 318.169 476.334 318.083 476.952C318.041 477.272 317.623 477.153 317.625 477.451C317.632 477.963 318.209 479.056 318.209 479.762C318.209 480.402 317.728 481.48 317.798 481.971C318.045 483.742 318.759 485.671 318.568 487.557C318.513 488.079 317.972 488.749 317.987 488.912C318.018 489.231 318.545 489.326 318.612 489.54C318.954 490.628 318.329 492.324 318.304 493.391C318.223 496.865 318.453 500.547 318.356 504.007C318.295 506.192 318.388 509.825 317.992 511.843C317.906 512.278 317.33 512.162 317.33 512.528C317.33 512.933 317.719 513.152 317.751 513.342C317.971 514.652 318.365 517.545 317.967 518.783C317.891 519.019 317.439 519.19 317.44 519.331C317.44 519.402 317.749 519.563 317.78 519.788C318.059 521.768 317.879 523.211 317.774 525.151C317.573 528.867 318.147 533.172 317.837 537.076C317.769 537.926 316.875 538.509 316.884 538.629C316.902 538.891 317.504 539.059 317.652 539.591C318.14 541.358 317.499 543.738 317.8 545.419C317.948 546.249 318.711 547.39 318.88 548.208C319.015 548.86 318.716 550.402 319.051 550.691C319.253 550.867 319.903 550.948 319.985 551.159ZM309.866 529.171C310.905 529.287 310.041 528.065 309.483 528.523C309.358 528.627 309.596 529.141 309.866 529.171ZM311.67 471.949C311.373 471.96 311.077 471.971 310.78 471.982C310.903 472.143 311.027 472.303 311.15 472.463C311.329 472.373 311.507 472.283 311.686 472.193C311.681 472.111 311.675 472.03 311.67 471.949ZM692.325 701.803C692.312 705.058 691.804 709.639 691.684 713.476C691.176 729.548 690.751 735.497 690.22 750.038C690.022 755.452 689.801 763.544 689.539 772.626L689.433 777.52L684.494 777.541C657.4 777.462 621.495 777.241 621.494 775.216C621.494 775.216 621.494 775.216 621.494 775.216C621.494 775.189 621.5 775.163 621.512 775.136C621.737 774.621 627.182 774.058 627.99 773.476C628.797 772.893 628.192 769.132 635.927 768.92C647.141 768.642 674.042 769.606 680.023 769.563C681.414 769.553 682.914 769.507 684.494 769.448L681.448 772.415C681.414 769.348 681.339 765.979 681.388 762.529C681.631 745.671 682.11 736.859 681.576 721.652C682.223 715.591 682.871 709.531 683.518 703.47C683.497 695.54 684.455 683.547 684.544 678.732C684.618 674.782 684.291 672.457 684.38 668.341C684.478 663.723 685.08 656.644 685.235 648.245C685.492 634.475 684.546 631.999 684.633 623.735C684.723 615.166 685.618 601.859 685.547 590.92C685.471 589.547 685.396 588.173 685.32 586.799C685.044 587.775 684.767 588.75 684.49 589.726C684.517 584.218 685.093 581.864 685.234 576.806C685.4 570.854 684.991 567.805 685.097 563.8C685.185 560.519 685.692 556.081 685.778 551.826C685.905 545.623 685.305 546.964 685.286 543.624C685.28 542.291 685.608 517.664 685.64 516.274C685.892 505.71 686.689 504.811 686.976 496.389C687.768 473.032 687.766 449.033 688.092 427.417C688.237 417.764 688.544 407.697 688.918 398.079C690.503 413.285 692.915 379.787 689.492 392.249C690.211 381.556 689.573 373.943 689.978 363.799C690.241 357.237 690.788 352.706 691.021 343.333C691.43 326.701 690.683 308.479 693.013 303.753C693.086 291.746 693.583 280.738 693.545 272.392L693.662 268.527L697.494 268.544C702.722 268.384 706.9 268.042 709.612 267.291C714.648 267.172 727.554 268.333 733.202 268.49C738.543 268.639 779.529 269.163 786.234 269.192C792.94 269.221 804.677 269.253 810.324 269.082C817.419 268.871 822.377 266.85 835.008 269.212C849.694 269.021 854.926 269.089 868.585 269.363C871.058 269.413 871.338 269.764 872.783 269.764C874.251 269.764 876.229 269.701 878.494 269.633L876.988 274.928C874.976 273.765 872.703 272.446 870.406 271.045C862.949 266.494 859.097 263.243 859.332 264.714C854.335 261.845 849.337 258.977 844.339 256.108C842.735 254.86 841.131 253.612 839.527 252.364C836.784 250.946 834.04 249.528 831.297 248.11C835.23 248.625 816.292 238.043 821.785 242.541C812.467 236.381 803.149 230.221 793.831 224.061C796.131 223.305 773.095 210.985 774.431 212.996C773.346 212.323 772.26 211.65 771.174 210.977C761.921 204.674 752.974 199.615 741.554 192.162C730.135 184.711 731.318 185.23 728.241 182.325C725.487 180.679 722.733 179.033 719.979 177.387C704.435 170.521 709.093 168.644 683.637 155.008C676.578 148.914 656.865 137.63 643.83 130.091C642.314 129.214 642.138 129.441 640.108 128.288C635.147 125.468 622.963 117.502 622.903 118.546C618.759 115.67 614.615 112.794 610.47 109.918C606.881 107.894 603.291 105.871 599.701 103.847C599.568 104.102 599.435 104.358 599.301 104.613C592.765 99.4194 581.487 92.8863 576.145 89.3068C575.082 88.594 575.055 88.1117 571.731 85.9288C567.847 83.3757 560.422 78.9212 555.779 75.9037C553.717 75.1446 551.656 74.3855 549.595 73.6264C541.049 68.6209 538.699 65.8054 533.801 62.6707C532.919 62.1067 516.633 52.1318 515.745 51.6116C508.478 47.347 509.988 49.4414 489.379 36.446C485.709 34.1313 482.904 31.9952 479.577 29.9209C473.698 26.2559 455.538 15.9343 453.766 15.6792C451.503 13.9231 447.789 11.4394 443.653 8.77888L448.24 8.83582C439.876 13.5294 430.166 19.3246 426.301 21.3864C424.535 22.3264 423.858 22.0618 418.494 25.0575C414.145 27.4856 403.304 34.3532 397.813 37.4752C391.984 40.7872 389.675 41.5819 387.065 43.069C384.599 44.4741 382.536 46.1286 379.196 48.0786C368.767 54.1605 359.016 59.1412 350.773 63.9473C338.851 70.8971 328.906 78.0382 319.195 84.3049C316.684 85.6873 314.129 86.8962 311.534 88.4109C279.429 107.14 243.127 128.121 210.821 146.726C195.824 155.364 157.888 175.745 169.113 172.186C164.15 175.614 125.871 196.784 118.682 200.969C111.495 205.153 106.039 208.881 100.4 212.187C83.3818 222.16 71.2218 228.882 50.6989 241.35C45.399 244.572 39.9412 248.401 36.7677 250.249C32.9447 252.474 28.5661 254.417 23.6021 257.28C21.7272 258.362 19.5996 259.6 17.3014 260.942L14.9937 252.422C29.1245 252.43 48.899 252.319 59.9268 252.396C62.3195 252.414 63.16 252.882 66.582 253.028C79.9083 253.6 94.8457 253.55 92.2027 252.056C109.284 252.904 125.084 252.131 140.913 252.084C153.697 252.047 170.492 252.075 187.994 252.088L193.071 252.111L192.898 257.142C192.024 285.45 191.132 315.608 190.978 333.632C190.822 352.021 191.505 351.571 190.114 378.609C189.805 384.611 189.453 390.585 189.081 397.865C188.208 414.928 186.5 430.555 187.599 443.614C186.642 462.566 186.462 477.678 184.764 491.71C185.02 493.377 185.276 495.045 185.532 496.713C185.47 499.038 185.407 501.364 185.345 503.689C185.032 504.405 184.718 505.122 184.405 505.838C183.825 522.491 184.389 543.658 183.956 557.756C183.232 581.393 180.935 642.261 179.868 664.664C179.301 676.557 179.907 677.216 178.418 683.99C178.427 686.654 178.436 689.319 178.446 691.983C178.677 693.657 178.908 695.331 179.139 697.005C178.691 712.272 177.71 730.367 177.277 744.911C177.033 753.13 176.824 762.629 176.612 772.618L172.494 768.374C194.719 768.177 219.364 767.917 237.732 768.268C244.408 768.396 252.753 768.976 259.291 768.969C268.806 768.96 271.118 767.998 283.193 767.98C304.004 767.951 342.76 769.069 362.43 768.983C368.272 768.958 370.998 768.6 375.032 768.562C391.947 768.398 405.835 768.427 422.055 767.874C439.471 768.796 437.967 769.986 443.364 771.188C447.455 772.094 459.997 774.196 461.778 774.99C463.029 775.548 458.359 776.265 460.111 776.879C439.245 777.37 430.479 776.83 413.536 775.966C382.246 776.001 350.956 776.035 319.666 776.069C316.819 775.734 313.973 775.399 311.126 775.064C311.126 775.063 311.126 775.062 311.126 775.062C299.109 774.675 294.017 775.538 287.536 775.734C258.47 776.613 216.219 776.758 172.494 776.642L168.238 776.66L168.348 772.37C169.971 722.789 171.986 671.321 173.189 635.038C173.677 620.327 174.664 572.457 175.512 562.379C175.732 559.769 176.271 559.058 176.377 556.278C176.817 531.426 177.256 506.575 177.696 481.723C180.035 430.662 180.96 377.829 182.384 326.351C183.025 303.158 183.664 280.002 184.302 256.883L187.994 260.688C130.112 260.831 72.4574 260.969 14.9937 261.058L-0.000117302 261.081L12.9427 253.487C62.4949 224.411 111.907 195.473 161.232 166.693C184.109 153.346 212.929 136.046 235.44 123.174C244.834 117.801 249.146 116.242 261.106 108.532C261.348 108.65 261.59 108.768 261.831 108.885C272.405 102.39 278.993 97.9492 290.974 90.8838C301.064 84.9348 327.8 69.2641 336.779 64.1135C341.435 61.4406 339.919 62.8109 344.239 60.2828C351.633 55.9519 367.146 46.212 377.354 40.2439C386.601 34.8373 402.432 26.1385 409.506 21.9216C420.619 15.2988 432.122 8.34537 443.833 1.29954L446.034 -4.33922e-05L448.245 1.35431C463.385 10.4575 478.823 19.7948 493.922 29.2598C501.318 33.8982 510.584 40.2659 512.917 41.6912C517.475 44.4737 519.105 44.8629 522.192 46.6925C537.87 55.9868 561.698 71.4604 576.876 80.8771C626.334 111.562 678.894 143.8 728.13 174.366C759.236 193.677 811.031 225.602 839.571 243.72C845.726 247.627 843.77 247.095 848.975 250.315C854.747 253.885 858.078 255.487 860.792 257.128C865.985 260.268 872.908 264.463 880.576 269.127L892.429 276.43L878.494 276.454C855.004 276.629 825.487 276.756 810.491 276.468C806.543 276.391 803.679 275.94 801.315 275.941C800.119 275.941 797.416 276.25 793.66 276.281C760.497 276.56 736.317 276.38 703.821 276.274C701.723 276.268 699.614 276.262 697.494 276.257L701.255 272.592C699.531 333.331 698.25 402.782 696.309 465.929C695.871 480.167 694.724 489.909 694.681 491.912C694.584 496.306 695.112 499.134 695.029 508.038C694.748 537.641 693.07 577.476 692.64 605.628C692.427 619.536 692.693 638.664 692.506 652.351C692.356 663.284 691.386 689.086 691.595 693.939C691.721 696.891 692.335 698.271 692.325 701.803ZM691.782 333.361C692.77 335.335 692.439 314.851 691.681 322.513C691.511 324.238 691.525 332.851 691.782 333.361ZM267.675 111.946C267.987 112.108 268.298 112.27 268.61 112.431C270.867 110.969 273.125 109.506 275.382 108.043C273.988 108.651 272.594 109.259 271.201 109.867C270.025 110.56 268.85 111.253 267.675 111.946ZM627.151 742.819C627.221 743.555 626.832 744.585 626.811 745.436C626.723 748.961 626.457 750.317 626.321 753.525C626.084 758.3 626.879 772.46 624.214 772.407C624.214 772.407 624.214 772.407 624.214 772.407C624.187 772.408 624.16 772.407 624.133 772.405C623.617 772.379 623.019 771.24 622.432 771.078C621.845 770.915 618.087 771.18 617.83 769.445C617.478 766.869 618.352 760.869 618.299 759.598C618.26 758.697 617.907 757.573 617.836 756.377C617.612 752.702 617.855 750.599 616.921 747.308C617.409 745.97 617.898 744.612 618.39 743.237C618.164 741.452 618.817 738.85 618.786 737.757C618.76 736.873 618.376 736.35 618.362 735.418C618.344 734.4 618.77 732.856 618.72 730.983C618.639 727.901 617.634 727.348 617.521 725.529C617.403 723.655 617.98 720.613 617.649 718.234C617.541 717.93 617.433 717.626 617.326 717.321C617.072 717.536 616.819 717.751 616.565 717.965C616.461 716.747 616.981 716.226 617.003 715.1C617.029 713.773 616.548 713.086 616.561 712.188C616.572 711.466 616.975 710.49 616.961 709.547C616.944 708.172 616.376 708.465 616.279 707.722C616.241 707.426 616 701.939 616 701.64C616.009 699.298 616.786 699.102 616.879 697.227C617.136 692.047 616.59 686.705 616.427 681.907C616.354 679.763 616.434 677.526 616.591 675.392C618.518 678.786 620.174 671.368 617.034 674.103C617.511 671.738 616.701 670.035 616.878 667.783C616.993 666.327 617.438 665.326 617.459 663.254C617.495 659.54 616.336 655.51 618.558 654.481C618.236 650.101 619.091 646.432 617.166 644.803C617.063 643.675 618.264 640.835 618.439 639.602C618.606 638.39 619.247 629.35 619.292 627.829C619.339 626.331 619.398 623.8 619.241 622.496C619.045 620.906 617.037 619.775 619.423 617.055C619.259 613.718 619.334 612.623 619.626 609.599C619.679 609.039 620.03 608.979 620.031 608.653C620.035 607.983 619.781 606.852 619.753 605.693C619.707 603.824 620.445 602.649 619.318 602.878C619.131 601.573 618.942 600.299 618.751 599.058C618.968 598.613 619.184 598.219 619.401 597.734C619.161 597.027 618.922 596.332 618.681 595.65C620.318 596.413 619.324 591.728 618.399 593.254C618.715 590.688 619.026 588.458 619.309 585.816C620.239 585.972 620.265 584.592 619.926 583.362C619.583 581.927 618.872 580.699 618.378 580.95C618.369 580.678 618.36 580.411 618.351 580.15C618.549 578.971 618.504 577.644 618.434 576.595C618.342 575.257 618.226 574.036 618.194 572.897C618.202 572.77 618.172 572.511 618.187 572.472C618.2 572.415 618.235 572.472 618.36 572.654C617.779 571.002 618.055 570.976 618.334 569.973C617.971 569.357 617.614 568.749 617.245 568.121C613.49 565.873 617.439 564.577 612.862 559.84C613.197 557.359 610.027 553.384 607.873 550.884C607.622 550.59 607.38 550.739 607.028 550.359C606.193 549.439 604.703 546.63 604.005 547.251C603.603 546.216 603.175 545.172 602.739 544.148C602.072 543.537 601.396 542.934 600.718 542.348C600.495 542.53 600.273 542.711 600.051 542.893C599.724 540.889 597.621 539.008 596.867 537.848C596.718 537.615 596.974 537.303 596.47 536.606C595.883 535.786 594.501 534.545 593.727 533.642C593.091 533.641 592.458 533.65 591.829 533.668C590.143 532.455 590.329 531.118 589.426 530.265C589.281 530.084 585.998 527.745 585.788 527.676C584.189 526.89 584.156 527.824 579.884 525.301C579.344 524.998 578.937 524.608 578.486 524.283C578.305 524.15 578.115 524.028 577.904 523.932C576.647 523.284 572.401 522.817 571.906 523.48C570.531 522.153 565.856 521.799 564.518 521.465C564.109 521.349 564.062 520.763 562.788 520.554C561.737 520.373 559.02 520.742 557.675 520.685C556.266 520.611 555.733 520.154 555.083 520.141C554.474 520.131 553.941 520.541 553.114 520.586C550.535 520.721 548.139 520.344 546.085 520.595C543.116 520.96 540.706 522.539 538.384 523.521C537.771 523.568 537.13 523.45 536.497 523.584C528.683 525.212 519.964 527.762 512.441 530.659C508.926 531.898 499.875 534.728 503.287 535.922C502.316 536.829 493.67 540.558 492.208 541.608C490.697 542.571 489.808 543.745 488.673 544.559C486.164 546.369 484.121 547.724 481.813 549.784C481.351 550.203 480.7 550.993 480.192 551.891C479.673 552.78 479.449 554.28 479.167 554.808C478.784 555.506 477.875 556.145 477.365 557.228C476.194 559.575 474.63 564.93 473.863 567.516C473.712 568 473.214 568.049 472.883 568.732C471.564 571.497 470.961 574.521 472.532 574.327C470.881 577.85 471.015 581.308 470.477 584.707C469.277 591.906 467.294 605.149 467.324 611.599C467.328 615.661 467.996 615.573 466.916 621.492C466.68 622.785 466.404 624.076 466.129 625.668C465.483 629.431 464.022 632.743 465.331 635.727C464.686 639.899 464.786 643.2 463.358 646.271C463.646 646.652 463.934 647.03 464.222 647.409C464.205 647.92 464.189 648.432 464.173 648.944C463.874 649.09 463.576 649.236 463.277 649.383C463.03 653.057 464.05 657.775 463.941 660.882C463.731 666.102 462.986 679.536 462.567 684.495C462.333 687.128 462.959 687.271 461.665 688.768C461.751 689.356 461.837 689.943 461.924 690.529C462.204 690.895 462.484 691.268 462.764 691.639C462.764 695.049 462.336 698.981 462.364 702.245C462.407 708.094 463.328 716.874 462.992 722.778C462.904 724.23 462.381 726.108 462.436 727.566C462.517 729.675 463.496 730.155 463.615 732.772C463.819 737.456 463.131 745.933 463.515 750.323C463.625 751.614 464.023 752.181 464.122 753.051C464.551 756.791 464.754 759.689 465.647 763.315C465.092 767.173 463.885 766.936 462.82 768.297C462.016 769.331 460.251 772.295 459.512 772.758C458.991 773.095 458.156 772.186 457.593 772.636C456.552 768.092 456.904 766.056 457.413 762.136C456.765 755.215 456.282 748.22 455.896 741.221C456.197 740.543 456.503 739.935 456.808 739.288C456.809 739.288 456.809 739.288 456.81 739.288C457.072 736.63 456.163 735.516 455.907 734.061C453.385 720.362 454.552 693.02 455.086 677.873C455.167 674.594 454.978 663.93 455.609 661.694C455.769 661.116 456.291 660.971 456.334 660.353C456.21 654.823 456.134 649.278 456.111 643.727C457.498 632.401 457.665 620.62 458.717 609.15C461.818 586.981 460.451 564.45 476.304 543.356C483.117 537.481 490.641 532.637 498.496 528.582C503.86 525.787 510.773 522.371 516.449 520.626C518.817 519.896 520.043 520.345 522.941 518.791C523.04 518.995 523.138 519.199 523.236 519.402C525.853 518.323 527.457 517.337 530.526 516.51C533.097 515.773 540.059 514.343 542.437 514.12C543.662 513.98 543.269 514.46 544.396 514.301C546.351 514.012 550.452 513 553.219 512.875C555.693 512.722 559.911 513.202 561.816 513.245C568.096 513.324 575.228 513.736 581.912 516.809C582.533 517.098 583.144 517.403 583.742 517.725C585.626 518.723 587.644 520.595 588.191 520.936C589.276 521.596 589.882 521.378 590.629 521.814C594.478 524.004 599.092 529.015 601.852 532.108C611.064 542.109 618.32 554.46 623.908 566.115C624.367 567.051 624.84 568.016 625.334 568.961C627.969 580.421 626.795 589.61 626.772 596.677C626.692 598.349 626.114 597.914 626.116 599.24C626.119 600.718 626.507 601.549 626.538 602.264C626.763 607.119 627.077 617.97 626.626 622.535C626.541 623.417 626.082 624.085 626.078 624.586C626.075 624.847 626.377 625.441 626.399 626.269C626.593 633.709 626.34 638.977 626.129 646.228C625.728 660.025 626.036 676.044 625.514 690.541C625.4 693.703 624.476 695.845 624.479 696.291C624.483 697.27 625.075 697.907 625.197 699.885C625.595 706.43 624.846 715.311 625.09 721.526C625.209 724.644 625.938 728.835 626.089 731.899C626.207 734.273 625.885 740.069 626.22 741.099C626.421 741.748 627.07 742.022 627.151 742.819ZM617.996 661.039C619.028 661.485 618.235 656.929 617.651 658.624C617.519 659.005 617.728 660.922 617.996 661.039ZM525.614 524.524C525.739 524.796 525.864 525.068 525.988 525.341C526.511 525.055 527.036 524.772 527.562 524.492C527.198 524.411 526.832 524.331 526.466 524.253C526.182 524.342 525.898 524.433 525.614 524.524ZM613.673 766.503C613.863 766.431 614.131 766.82 614.355 766.841C615.295 766.931 615.643 767.201 616.493 767.354C617.753 767.581 621.494 767.07 621.494 769.773C621.494 769.773 621.494 769.773 621.494 769.773C621.494 769.8 621.493 769.826 621.493 769.853C621.479 770.368 621.161 770.931 621.114 771.513C621.067 772.096 621.102 775.857 620.65 776.069C619.995 776.347 618.424 775.383 618.074 775.426C617.835 775.455 617.541 775.797 617.236 775.858C616.251 776.054 615.736 775.804 614.848 776.732C614.493 776.243 614.138 775.753 613.784 775.264C613.32 775.491 612.619 774.845 612.337 774.881C612.106 774.91 611.971 775.297 611.731 775.315C611.461 775.338 611.047 774.92 610.556 774.983C609.751 775.084 609.608 776.094 609.125 776.222C608.625 776.355 607.846 775.806 607.207 776.161C607.127 776.272 607.047 776.383 606.967 776.494C607.025 776.746 607.082 776.997 607.139 777.248C606.818 777.365 606.679 776.85 606.384 776.841C606.036 776.83 605.858 777.318 605.624 777.315C605.433 777.313 605.173 776.922 604.924 776.946C604.562 776.98 604.641 777.545 604.446 777.651C604.368 777.692 602.929 778.004 602.848 778.008C602.231 778.031 602.177 777.257 601.685 777.189C600.319 777.005 598.918 777.63 597.655 777.866C597.091 777.972 596.503 777.927 595.94 777.803C596.826 775.824 594.866 774.283 595.599 777.381C594.973 776.94 594.53 777.776 593.937 777.635C593.553 777.543 593.288 777.113 592.74 777.124C591.768 777.147 590.705 778.368 590.425 776.161C589.284 776.55 588.296 775.75 587.885 777.698C587.591 777.817 586.837 776.656 586.507 776.499C586.195 776.35 583.8 775.826 583.409 775.797C583.017 775.768 582.331 775.736 582.001 775.907C581.587 776.118 581.297 778.139 580.559 775.777C579.701 775.968 579.396 775.9 578.598 775.626C578.453 775.576 578.437 775.225 578.353 775.225C578.179 775.225 577.883 775.484 577.573 775.516C577.062 775.568 576.771 774.83 576.828 775.957C576.491 776.146 576.155 776.335 575.818 776.524C575.7 776.306 575.582 776.089 575.464 775.871C575.284 776.108 575.104 776.345 574.925 776.582C575.136 774.951 573.87 775.914 574.281 776.85C573.629 776.512 572.976 776.175 572.324 775.837C572.415 773.984 570.892 775.623 571.02 776.631C570.946 776.63 570.871 776.628 570.796 776.627C570.143 776.134 569.543 776.537 568.746 776.207C567.95 775.876 568.025 775.695 567.783 774.843C567.595 774.892 567.408 774.94 567.22 774.989C566.237 777.327 566.411 773.28 564.727 775.073C564.189 773.604 562.863 774.375 561.984 774.821C561.881 774.872 561.88 775.158 561.743 775.246C561.41 775.457 560.56 775.09 560.589 776.01C560.295 775.744 560 775.478 559.706 775.212C559.466 775.379 559.225 775.546 558.985 775.714C558.986 776.001 558.987 776.288 558.988 776.575C558.504 775.596 557.743 775.972 557.367 775.739C557.293 775.691 557.276 775.295 557.044 775.187C556.773 775.059 556.267 775.176 555.944 775.052C555.818 775.491 555.692 775.93 555.566 776.368C554.988 776.606 554.785 775.448 554.445 775.358C554.384 775.343 553.268 775.426 553.208 775.451C552.716 775.647 552.855 776.633 551.432 776.422C551.178 776.384 550.973 776.042 550.744 776.029C550.34 776.004 549.12 776.778 549.024 777.493C548.533 776.598 547.22 776.964 546.833 776.705C546.716 776.626 546.69 776.055 546.331 775.934C546.04 775.835 545.291 776.292 544.922 776.215C544.53 776.132 544.391 775.653 544.215 775.619C544.049 775.588 543.897 775.974 543.671 775.972C542.965 775.959 542.327 775.336 541.769 775.325C540.963 775.307 540.251 776.452 539.576 776.96C539.409 776.886 539.244 776.64 539.069 776.638C536.898 776.602 534.448 776.391 532.27 776.146C531.259 776.033 528.745 774.479 529.416 777.072C529.065 777.526 526.51 776.481 526.024 776.465C525.538 776.449 525.153 776.914 524.771 776.921C523.619 776.942 522.807 776.607 521.405 777.011C521.042 777.117 520.654 777.668 520.44 777.662C520.181 777.653 519.903 777.12 519.568 777.086C518.77 777.01 517.283 777.185 516.517 777.093C516.378 777.075 516.329 776.607 516.129 776.461C515.35 775.889 514.478 775.939 514.632 777.433C513.634 776.585 512.711 777.358 511.786 777.406C509.831 777.502 506.269 777.154 504.566 777.781C503.492 778.177 503.519 778.847 501.938 778.269C501.587 778.141 501.237 777.968 500.812 777.815C499.814 777.455 498.898 776.217 498.138 777.709C497.029 777.322 496.146 777.596 495.324 776.321C495.227 776.627 495.13 776.933 495.033 777.239C494.897 777.246 494.762 777.254 494.626 777.261C494.583 776.969 494.541 776.678 494.498 776.386C493.525 776.307 492.29 777.507 491.466 777.498C490.084 777.484 486.526 777.018 485.216 776.625C484.521 776.416 484.483 777.041 484.085 775.756C483.929 775.845 483.774 775.935 483.618 776.024C483.521 776.305 483.424 776.587 483.326 776.868C482.434 776.879 481.376 776.442 480.526 776.447C478.977 776.456 476.651 777.23 475.095 776.721C474.705 776.593 474.218 776.013 473.836 776.02C473.28 776.029 473.145 776.991 472.439 777.009C471.224 777.039 468.959 775.92 467.81 776.006C467.469 776.031 467.31 776.389 467.074 776.427C466.086 776.591 465.274 776.562 464.327 777.115C463.309 776.193 463.397 775.003 463.082 773.801C462.843 772.895 462.11 770.793 462.006 769.999C461.933 769.441 462.206 768.724 462.104 768.11C463.323 767.619 463.835 768.159 464.825 769.023C466.653 768.988 468.481 768.954 470.309 768.92C470.475 769.255 470.641 769.59 470.807 769.925C470.807 769.926 470.807 769.927 470.807 769.927C471.509 770.314 471.807 769.451 472.186 769.255C475.81 767.379 482.944 768.847 486.934 769.059C487.794 769.104 490.591 768.652 491.181 769.196C491.334 769.338 491.376 769.855 491.539 769.878C492.991 769.57 494.443 769.263 495.895 768.956C498.881 769.759 501.967 769.095 504.976 768.972C513.116 768.636 521.174 768.229 529.18 768.353C530.728 768.378 532.691 767.99 534.206 768.24C534.838 768.344 535.102 769.174 535.932 768.555C535.941 768.779 535.95 769.002 535.959 769.226C536.683 768.956 537.146 768.447 537.959 768.395C538.643 768.352 540.454 768.319 541.059 768.405C541.372 768.448 541.255 768.865 541.548 768.863C542.048 768.857 543.118 768.279 543.809 768.279C544.434 768.279 545.489 768.76 545.971 768.69C547.703 768.443 549.59 767.729 551.437 767.921C551.947 767.975 552.603 768.517 552.763 768.501C553.075 768.47 553.168 767.944 553.377 767.876C554.442 767.534 556.101 768.159 557.145 768.184C560.545 768.265 564.147 768.036 567.533 768.132C569.672 768.193 573.226 768.1 575.201 768.496C575.627 768.582 575.513 769.158 575.871 769.158C576.267 769.158 576.482 768.769 576.667 768.737C577.95 768.517 580.781 768.123 581.992 768.521C582.222 768.598 582.39 769.049 582.528 769.048C582.598 769.048 582.755 768.74 582.975 768.708C584.912 768.429 586.325 768.609 588.223 768.715C591.859 768.915 596.072 768.341 599.892 768.652C600.724 768.719 601.294 769.613 601.411 769.604C601.668 769.586 601.833 768.985 602.353 768.836C604.082 768.348 606.411 768.99 608.056 768.688C608.868 768.54 609.985 767.777 610.785 767.608C611.423 767.473 612.932 767.772 613.215 767.437C613.387 767.235 613.467 766.585 613.673 766.503ZM592.156 776.623C592.27 775.583 591.074 776.447 591.523 777.005C591.624 777.13 592.127 776.892 592.156 776.623ZM536.163 774.818C536.174 775.115 536.185 775.412 536.196 775.708C536.353 775.585 536.51 775.461 536.667 775.338C536.579 775.159 536.49 774.981 536.402 774.802C536.322 774.808 536.243 774.813 536.163 774.818Z" fill="white"/>
</svg>
