<svg width="32" height="32" viewBox="0 0 32 32" fill="none" xmlns="http://www.w3.org/2000/svg">
<path fill-rule="evenodd" clip-rule="evenodd" d="M25.1992 0.00369378C25.3271 -0.0263437 25.5082 0.136425 25.659 0.145085C26.2909 0.182875 26.5253 0.29606 27.0972 0.360247C27.5675 0.413122 28.5511 0.371276 29.3341 0.516392L30.0525 0.481966L30.7147 1.10409C31.0784 1.64335 31.2665 2.17465 30.9183 2.53153C30.9109 2.53915 30.9035 2.54744 30.8955 2.55489C30.7403 2.70097 30.4254 2.71152 30.2345 2.86103C30.0933 2.97199 29.475 3.61212 29.0491 3.88028L29.3341 4.002C29.2165 3.9816 29.0945 3.95318 28.9748 3.92454C28.8554 3.99013 28.7576 4.01942 28.697 3.98479C28.6319 3.9453 28.5647 3.8832 28.497 3.80651C28.3451 3.76922 28.2244 3.74403 28.1617 3.74873C28.0011 3.76115 27.8031 3.90379 27.5977 3.92946C26.935 4.01155 26.5878 3.90737 25.9907 4.29708C25.7519 4.09168 25.5123 3.88528 25.2735 3.67988C24.9618 3.77493 24.4892 3.50512 24.2999 3.52004C24.1449 3.53259 24.0533 3.69446 23.8916 3.70201C23.71 3.71106 23.4312 3.53551 23.1013 3.56184C22.56 3.60438 22.4633 4.02801 22.1385 4.08192C21.8016 4.13752 21.2775 3.90823 20.8476 4.05733C20.7939 4.10374 20.7397 4.14985 20.686 4.19626C20.7246 4.30162 20.7635 4.40812 20.8021 4.51347C20.5857 4.5624 20.4921 4.34652 20.2932 4.34257C20.0592 4.33791 19.9394 4.54269 19.7819 4.54175C19.653 4.54054 19.4783 4.37691 19.3113 4.38683C19.0677 4.40106 19.1201 4.6373 18.9892 4.68191C18.9349 4.69935 17.972 4.82951 17.9138 4.83191C17.4986 4.8412 17.4618 4.51739 17.1307 4.48888C16.2118 4.41149 15.2684 4.67376 14.4185 4.77289C14.039 4.81722 13.6425 4.79776 13.2641 4.74585C13.8602 3.91506 12.5408 3.26881 13.0342 4.5688C12.6133 4.38413 12.3148 4.73509 11.9158 4.67576C11.6576 4.63703 11.4785 4.45588 11.1099 4.4606C10.4561 4.47042 9.74154 4.98186 9.55316 4.05733C8.7854 4.2205 8.11994 3.88427 7.84319 4.70158C7.64505 4.7512 7.13717 4.26485 6.91515 4.19872C6.70467 4.13638 5.09467 3.91603 4.83037 3.90364C4.65667 3.89556 4.39692 3.88926 4.17656 3.90487L4.628 3.68848C4.52773 3.73359 4.35459 3.73676 4.06759 3.67127C4.00215 3.77857 3.94231 3.86894 3.88677 3.94913L3.88318 3.95036C3.80096 3.97662 3.72479 4.06785 3.64728 4.15938L3.77301 4.09913C3.61075 4.30474 3.45253 4.4484 3.17667 4.67331C3.16278 4.68452 3.14687 4.6896 3.13117 4.69298C3.07711 4.88626 3.00793 4.986 3.34432 4.95732C3.42153 5.18975 3.49822 5.42323 3.57543 5.65567C3.48676 5.73701 3.39826 5.81899 3.30959 5.90034C3.40627 6.02438 3.5027 6.14884 3.59938 6.27287C2.93342 6.12732 3.32718 7.00151 3.70955 6.71795C3.57167 7.16858 3.4331 7.61976 3.29522 8.07039C2.53792 8.00761 3.20778 9.05964 3.61974 8.97161C3.61914 9.02274 3.61913 9.07417 3.61854 9.1253C3.41737 9.57671 3.58124 9.99265 3.4461 10.5429C3.31115 11.092 3.2371 11.0411 2.88928 11.2081C2.90922 11.3374 2.92922 11.4672 2.94916 11.5966C3.90386 12.2759 2.24991 12.1568 2.98269 13.3203C2.3828 13.6923 2.69768 14.6087 2.8797 15.2162C2.90134 15.2863 3.0175 15.2883 3.05334 15.3822C3.13936 15.6127 2.99038 16.1988 3.36587 16.1789C3.25715 16.3822 3.14888 16.5867 3.04016 16.79C3.10839 16.9559 3.1767 17.122 3.24493 17.2879C3.36216 17.2871 3.47976 17.2863 3.59698 17.2854C3.19738 17.6201 3.34999 18.146 3.25451 18.4055C3.23461 18.4569 3.07346 18.4691 3.02939 18.6293C2.97724 18.8168 3.02462 19.1658 2.9743 19.3891C3.1536 19.476 3.33267 19.5641 3.51196 19.651C3.60848 20.0501 3.13679 20.191 3.10004 20.4256C3.09395 20.4728 3.12707 21.238 3.13716 21.2801C3.21739 21.6198 3.62092 21.5242 3.53472 22.5071C3.51895 22.6821 3.37866 22.8247 3.37306 22.9829C3.36347 23.2631 3.67975 24.1035 3.97179 24.1706C3.60609 24.5099 3.7554 25.4181 3.64967 25.6853C3.61647 25.7656 3.38431 25.7846 3.33474 26.032C3.29455 26.2333 3.48083 26.7509 3.4497 27.0058C3.41557 27.2762 3.22045 27.3739 3.20661 27.4951C3.19461 27.6094 3.35122 27.7156 3.35031 27.8714C3.34844 28.0277 3.31741 28.1786 3.28085 28.325C3.29344 28.3408 3.30574 28.3569 3.31917 28.3718C3.40688 28.4129 3.49568 28.4728 3.5874 28.4726C5.04889 28.4679 6.69952 28.5334 8.1665 28.6164C8.84781 28.6547 10.5464 29.2837 10.0812 28.2021C10.3152 28.0083 12.041 28.4236 12.3684 28.4259C12.6951 28.4278 12.9522 28.2294 13.209 28.223C13.9841 28.2041 14.532 28.3367 15.4734 28.1541C15.7166 28.1064 15.9756 27.872 16.1201 27.8726C16.2938 27.8744 16.484 28.095 16.7092 28.1062C17.2465 28.131 18.2458 28.0439 18.7617 28.0755C18.8558 28.0817 18.8922 28.2778 19.0275 28.3373C19.5544 28.5699 20.1415 28.5407 20.0298 27.9156C20.7057 28.2621 21.3226 27.9292 21.9445 27.9009C23.2597 27.8424 25.6583 27.9571 26.8014 27.6783C27.4073 27.5304 27.4883 27.3097 28.133 27.3783C28.1865 27.0167 28.2777 26.6863 28.5677 26.3702C28.4428 26.3033 28.3177 26.2366 28.1929 26.1697C28.1898 26.076 28.1864 25.9819 28.1833 25.8882C28.3025 25.8589 28.4221 25.829 28.5413 25.7997C28.5732 25.1272 28.0829 24.2739 28.0863 23.7046C28.0918 22.75 28.2822 20.291 28.4431 19.3854C28.5285 18.905 28.2741 18.8785 28.7988 18.6035C28.7623 18.4962 28.7251 18.3886 28.6886 18.2813C28.5738 18.2141 28.4586 18.1469 28.3438 18.0797C28.3392 17.4633 28.5179 16.7318 28.5162 16.1445C28.5125 15.0743 28.1961 13.4669 28.4036 12.3921C28.456 12.1227 28.6933 11.7854 28.691 11.5216C28.6873 11.1375 28.2938 11.0435 28.2863 10.5564C28.2743 9.71639 28.7306 8.15148 28.6958 7.35729C28.6856 7.12171 28.5403 7.01093 28.5246 6.84828C28.4575 6.16563 28.4692 5.60454 28.2432 4.94994C28.62 4.24745 29.1067 4.3082 29.5975 4.09053C29.968 3.92542 30.8271 3.4187 31.1518 3.34668C31.3797 3.29645 31.6733 3.48489 31.9242 3.41431C32.1243 4.25618 31.9035 4.6104 31.5506 5.2942C31.5646 6.55718 31.5784 7.82052 31.5925 9.08349C31.4555 9.19836 31.3175 9.31411 31.1805 9.42898C31.023 9.91345 31.3758 10.1192 31.456 10.3806C32.2227 12.8854 31.6226 17.8158 31.5362 20.5731C31.5179 21.1677 31.7023 23.1001 31.4799 23.5079C31.4217 23.6132 31.2101 23.6428 31.2009 23.755C31.3265 24.7582 31.4525 25.7617 31.5781 26.7648C31.4592 27.5123 31.4194 28.2696 31.4188 29.0295L31.4404 29.5275L31.0273 29.9787C30.7486 30.2556 30.4763 30.5413 30.2082 30.8308L29.8921 31.1762L29.3113 31.2107C28.3953 31.2616 27.4787 31.3423 26.5727 31.3779C21.0969 31.5928 15.6758 31.8374 10.2872 31.8586C9.24578 31.8624 7.9263 32.043 6.90557 31.952C6.47987 31.9143 6.29786 31.5687 5.74284 31.8352C5.73579 31.7419 5.72833 31.6483 5.72128 31.5549C5.23507 31.6748 4.92545 31.8922 4.37893 31.9213C4.14185 31.9338 3.70408 31.9479 3.27966 31.9545L2.52286 32L1.92652 31.2918C1.67841 30.9695 1.44263 30.6517 1.33378 30.4816C1.21739 30.3005 1.39962 30.2548 1.2775 30.0967C1.15725 29.9427 0.900579 29.736 0.64883 29.5177L0.32791 29.1377L0.299171 28.4837C0.249299 28.2342 0.205823 27.9804 0.205769 27.7755C0.205769 27.3432 0.402889 26.6143 0.374611 26.2816C0.273486 25.0846 -0.0182984 23.7803 0.0596783 22.5046C0.0817719 22.1525 0.302542 21.6983 0.296776 21.5874C0.283642 21.3724 0.0696871 21.3077 0.0417164 21.1633C-0.0980217 20.4277 0.15724 19.2803 0.16745 18.5592C0.200528 16.2098 0.106383 13.7207 0.145896 11.3814C0.170715 9.90352 0.132637 7.44708 0.294381 6.0823C0.329308 5.78815 0.564814 5.86552 0.565008 5.61878C0.564808 5.3456 0.407188 5.19699 0.39377 5.0692C0.369404 4.82956 0.339267 4.51097 0.312343 4.15815L0.289591 3.63438L0.685951 3.0971C1.07227 2.53631 1.54791 1.87964 1.96005 1.41023L2.39114 0.827454L3.2569 0.785651C3.49656 0.795474 3.70928 0.816664 3.87599 0.850814C4.03116 0.882884 4.1447 1.07266 4.23763 1.07212C4.28488 1.07129 4.39107 0.942753 4.53819 0.929501C5.84212 0.812435 6.79304 0.887587 8.07071 0.93196C10.5177 1.01596 13.3531 0.774659 15.9237 0.904912C16.4827 0.93318 16.8665 1.3068 16.9463 1.3045C17.1191 1.29694 17.2301 1.04483 17.5798 0.98237C18.7436 0.777571 20.3118 1.04732 21.4188 0.920895C21.9657 0.858513 22.7176 0.538094 23.2557 0.467212C23.6855 0.410828 24.6982 0.535688 24.8903 0.395902C25.0061 0.310998 25.0605 0.0380285 25.1992 0.00369378ZM5.21116 28.9963C5.27147 29.0704 5.33168 29.1448 5.39198 29.2189C5.44556 29.216 5.50006 29.2132 5.55364 29.2103C5.54467 29.086 5.53506 28.9608 5.5261 28.8365C5.4213 28.8897 5.31596 28.9432 5.21116 28.9963ZM10.7171 4.25036C10.7937 3.81421 9.98906 4.17728 10.2908 4.41142C10.3589 4.46396 10.6966 4.36339 10.7171 4.25036Z" fill="white"/>
<path fill-rule="evenodd" clip-rule="evenodd" d="M15.7273 10.1667C15.9928 10.5353 15.9868 11.0395 16.0686 11.54C16.1338 11.9182 16.2646 12.7973 16.2733 13.131C16.2822 13.3649 16.2492 13.6665 16.2625 13.924C16.1299 14.1308 16.0799 13.9073 15.9237 13.5576C15.6981 13.5941 15.477 13.6528 15.2687 13.7297C15.2114 13.6005 15.152 13.4712 15.0902 13.3437L15.089 13.3425C14.9496 13.2185 15.0225 13.5748 15.0076 13.6683C14.8721 14.5345 14.0628 14.3779 13.6976 14.7588C13.6199 14.8313 13.6343 15.1892 13.409 15.1572C13.3486 15.1482 13.1564 15.0649 13.1384 15.0797C13.1778 15.3063 13.2402 15.5207 13.3192 15.7252C12.9674 15.9676 13.0825 16.3797 13.1671 16.7309C13.1805 16.7865 13.1938 16.8404 13.203 16.892C13.4023 17.9304 13.9309 18.4068 14.6807 18.9133C14.8305 19.0119 15.0958 18.9567 15.2243 19.1137C15.2758 19.1799 15.2096 19.5216 15.38 19.3043C15.3552 19.3944 15.3292 19.4846 15.3046 19.5748C15.4267 19.4933 15.5337 19.3018 15.6303 19.3018C15.7143 19.3047 15.921 19.3265 15.9823 19.3682C16.0149 19.3902 15.9842 19.5632 16.0183 19.5661C16.0788 19.5693 16.2101 19.3361 16.2673 19.335C16.2701 19.335 16.2729 19.3353 16.2757 19.3362C16.3282 19.3549 16.4376 19.5282 16.4853 19.4973C16.6653 19.3752 16.7818 19.0433 16.9679 19.0645C17.0193 19.0724 17.1556 19.2559 17.1726 19.2477C17.1988 19.223 17.1275 19.0157 17.1343 18.9809C17.1678 18.8126 17.4133 18.9779 17.5079 18.9293C17.8056 18.7783 17.9577 18.4796 18.1402 18.2371C18.2646 18.0807 18.3486 17.7429 18.5485 17.551C18.5931 17.5098 18.8205 17.5702 18.8299 17.5264C18.8378 17.477 18.6873 17.423 18.6766 17.3986C18.6175 17.2322 18.4884 16.8996 18.6227 16.7309C18.6273 16.7249 18.632 16.7181 18.6371 16.7125C18.6687 16.68 18.8482 16.654 18.8515 16.6338C18.8513 16.6235 18.7259 16.6025 18.7114 16.5723C18.5899 16.3025 18.648 16.1132 18.6539 15.8568C18.6605 15.352 18.2816 14.9698 18.1833 14.6027C18.1633 14.5213 18.412 14.2442 18.4012 14.2326C18.3763 14.2136 18.1742 14.3582 18.0959 14.3605C17.8464 14.373 17.8568 14.0318 17.6468 14.0445C17.5453 14.052 17.3116 14.2872 17.2301 14.3273C17.1659 14.3571 17.0927 14.1951 17.0253 14.3211C16.9856 14.3978 16.8992 14.6553 16.8768 14.6838C16.8575 14.707 16.8837 14.5474 16.8697 14.5338C16.8129 14.4788 16.8104 14.3618 16.7487 14.2842C16.6517 14.1618 16.2954 14.3554 16.2757 13.2269C16.2757 13.2159 16.2756 13.2038 16.2757 13.1925C16.2768 12.9764 16.3241 12.7406 16.3356 12.4966C16.3472 12.2527 16.3582 10.6773 16.4637 10.5872C16.6189 10.4721 16.9387 10.9053 17.0098 10.8995C17.0624 10.8935 17.1459 10.7615 17.2181 10.747C17.4542 10.7032 17.5402 10.8278 17.8396 10.5036C17.8739 10.7244 17.8998 10.9454 17.9162 11.165C18.044 11.1052 18.106 11.4127 18.1653 11.422C18.2159 11.4286 18.3023 11.2886 18.3557 11.3027C18.4162 11.3185 18.4329 11.5168 18.5401 11.54C18.7155 11.5797 18.9385 11.224 19.0694 11.2363C19.2071 11.2515 19.2495 11.5478 19.4586 11.5167C19.5005 11.4902 19.5429 11.4636 19.5855 11.438C19.6333 11.3437 19.6806 11.248 19.7268 11.1527C19.8261 11.1646 19.7326 11.3616 19.7915 11.4122C19.8606 11.4715 20.0214 11.3428 20.0705 11.3851C20.1106 11.4204 20.0606 11.5919 20.116 11.6285C20.1966 11.6827 20.3365 11.4932 20.4058 11.4982C20.4371 11.4985 20.8056 11.6981 20.8261 11.7208C20.9521 11.8501 20.7209 12.0739 20.783 12.1953C20.9512 12.5279 21.3635 12.694 21.6128 12.9589C21.7222 13.0732 21.7764 13.2307 21.79 13.3879C20.9684 13.5369 20.5755 14.2191 21.6679 13.5429C21.5648 13.7623 21.9209 13.7355 21.9194 13.9043C21.9157 14.01 21.7703 14.1305 21.814 14.2584C21.8904 14.4735 22.4369 14.621 21.5709 14.8879C21.7828 15.1111 21.4926 15.3791 22.293 15.3514C22.3504 15.4151 21.9037 15.6554 21.8463 15.7289C21.7973 15.8089 21.6193 16.3315 21.6056 16.4113C21.5966 16.4919 21.5863 16.6334 21.6559 16.7027C21.6654 16.7121 21.6839 16.7219 21.7074 16.7309C21.9013 16.8042 22.4616 16.8983 21.5972 17.0137C21.6679 17.1999 21.6353 17.2755 21.5086 17.4342C21.4837 17.4621 21.3435 17.4522 21.341 17.4699C21.3379 17.5071 21.4358 17.5831 21.4404 17.6518C21.4467 17.7655 21.1393 17.7809 21.596 17.8412C21.6608 17.9296 21.7239 18.0205 21.7852 18.1129C21.6931 18.123 21.6007 18.131 21.5086 18.1387C21.5955 18.1991 21.6809 18.2628 21.7661 18.3268C21.1276 18.1305 21.4459 18.4977 21.8379 18.5039C21.6666 18.6244 21.4911 18.7374 21.3134 18.8371C20.6032 18.572 21.1269 19.1053 21.5134 19.2465C21.5061 19.2637 21.4981 19.2822 21.4907 19.2993C21.2457 19.37 21.3363 19.5749 21.1278 19.6891C20.9198 19.7981 20.8612 19.744 20.5327 19.6153C20.5299 19.6614 20.5263 19.7075 20.5219 19.7543C21.2049 20.4786 19.8585 19.5072 20.2381 20.2387C19.6937 19.9553 19.7761 20.3541 19.7603 20.6309C19.76 20.6626 19.8412 20.7486 19.8442 20.7969C19.8492 20.9153 19.6075 20.932 19.8573 21.2186C19.7334 21.1812 19.6112 21.1396 19.4921 21.0944C19.4926 21.1836 19.4914 21.2744 19.4873 21.3649C19.5574 21.4611 19.6279 21.5576 19.6981 21.6538C19.3653 21.3974 19.312 21.6242 19.1844 21.5911C19.1594 21.5837 19.0688 21.446 19.0023 21.435C18.9249 21.4216 18.8525 21.5219 18.7664 21.5112C18.8294 21.6857 18.8899 21.8616 18.9473 22.0387C18.8665 22.1942 18.6128 21.7807 18.5305 21.7792C18.5108 21.7843 18.3042 21.9145 18.2946 21.928C18.2248 22.045 18.4002 22.4261 18.0504 22.4555C17.9876 22.4595 17.8996 22.3375 17.848 22.3473C17.7596 22.3675 17.5618 22.7518 17.5953 23.0493C17.3976 22.7124 17.1124 22.9183 17.0014 22.8218C16.969 22.7924 16.934 22.5561 16.8457 22.5145C16.7763 22.4812 16.6142 22.688 16.5224 22.6595C16.4264 22.6291 16.3877 22.4292 16.3476 22.4149C16.324 22.4072 16.302 22.465 16.2757 22.5108C16.2594 22.5394 16.2411 22.563 16.2206 22.5624C16.0498 22.5545 15.9218 22.2848 15.8051 22.2686C15.6352 22.2452 15.4201 22.7003 15.2279 22.8833C15.1944 22.846 15.175 22.7379 15.1357 22.7284C14.6516 22.621 14.1453 22.3692 13.7419 22.078C13.5398 21.9434 13.371 21.1108 12.9887 22.1333C12.8164 22.2612 12.518 21.5545 12.4414 21.478C12.354 21.4047 12.1648 21.5006 12.0894 21.4424C11.8626 21.2629 11.811 21.0286 11.4499 20.8842C11.356 20.8464 11.1211 20.9215 11.0847 20.8743C11.0428 20.8173 11.1627 20.6167 11.1218 20.5399C11.018 20.359 10.7392 20.0709 10.674 19.8735C10.6629 19.8371 10.8219 19.7276 10.85 19.6534C10.9596 19.3666 10.8583 19.1924 10.3207 19.4911C10.525 19.1021 10.1512 19.0097 10.0549 18.7719C9.84108 18.2746 9.8555 17.3603 9.60106 16.9473C9.54076 16.8523 9.4687 16.7899 9.41067 16.7309C9.30689 16.6317 9.24708 16.538 9.40947 16.2969C9.46606 16.2116 9.54246 16.1289 9.61304 16.0314C9.78072 15.7929 10.3064 15.6689 9.73638 15.3797C9.93631 15.1408 9.88055 14.8869 10.4345 14.8363C10.32 14.7799 10.2056 14.7219 10.092 14.6629C10.0982 14.6294 10.1045 14.5955 10.1112 14.5621C10.2281 14.5875 10.3454 14.613 10.462 14.6396C10.5556 14.4343 10.2063 13.9656 10.2992 13.7629C10.4343 13.4197 11.0907 12.7112 11.4308 12.5802C11.6036 12.5044 11.4239 12.3201 11.875 12.6109C11.8723 12.5586 11.8703 12.5052 11.8691 12.4523C11.8018 12.3538 11.7353 12.2539 11.6703 12.1535C11.8248 11.9837 12.1383 11.941 12.2954 11.8105C12.5708 11.5703 12.8968 10.9769 13.3324 11.0003C13.4401 11.0057 13.6408 11.1779 13.7179 11.1417C13.8306 11.0882 13.7119 10.701 13.8688 10.6314C14.1474 10.5071 14.769 10.816 15.0016 10.7384C15.0733 10.7134 15.0833 10.5599 15.1333 10.5343C15.3444 10.4277 15.5251 10.416 15.7273 10.1667ZM14.6065 22.1997C14.6526 22.1594 14.6984 22.118 14.743 22.0768C14.7443 21.9998 14.7453 21.9225 14.7478 21.8456C14.7318 21.8433 14.7158 21.8407 14.6999 21.8382C14.6685 21.9585 14.6375 22.0794 14.6065 22.1997ZM21.6571 14.4527C21.243 14.5465 21.6518 14.715 21.8463 14.556C21.89 14.5183 21.7649 14.4274 21.6571 14.4527Z" fill="white"/>
<path fill-rule="evenodd" clip-rule="evenodd" d="M24.6987 7.03639C24.6839 7.1765 24.6441 7.32908 24.5957 7.48884C24.6154 7.4572 24.634 7.42222 24.6532 7.38802C24.6364 7.46426 24.6176 7.53063 24.5574 7.71753C24.5472 7.70737 24.5388 7.69894 24.5298 7.69417C24.5273 7.70174 24.5251 7.70993 24.5226 7.71753C24.5071 7.71426 24.4913 7.71154 24.4759 7.70892C24.4773 7.71205 24.4801 7.71521 24.4843 7.71753C24.4763 7.7165 24.4682 7.71317 24.4604 7.70646C24.1624 7.6597 23.9045 7.73371 23.6701 7.90195L23.6677 7.90441C23.7113 7.96994 23.7654 8.04572 23.8341 8.13064C23.8392 8.13694 23.8445 8.14387 23.8497 8.15031C23.9507 8.27389 24.0639 8.40705 24.173 8.55112C24.1836 8.56525 24.2001 8.58659 24.2209 8.61383C24.1444 8.8304 24.068 9.04251 24.0245 9.15849C23.9645 9.3196 23.8859 9.52613 23.8197 9.70439C23.8253 9.7061 23.8311 9.70772 23.8365 9.70931C23.8635 9.65412 23.9037 9.5634 23.9455 9.45357C23.9794 9.47318 24.0365 9.50537 24.173 9.5175C24.2033 9.51845 24.2346 9.51718 24.2676 9.51505C24.2935 9.40746 24.3099 9.29726 24.3155 9.18923C24.388 9.05036 24.518 9.28083 24.6184 9.29743C24.6592 9.30148 24.6984 9.30027 24.7346 9.29988C24.7631 9.33898 24.7904 9.37704 24.816 9.413C24.9207 9.36221 25.0105 9.30105 25.0771 9.24948C25.073 9.25739 25.0698 9.26682 25.0651 9.2753L25.1836 9.35521C25.2212 9.37741 25.2595 9.39876 25.2974 9.42037C25.3101 9.32782 25.2965 9.26298 25.2771 9.21136C25.2286 9.2114 25.1798 9.20735 25.131 9.20521C25.1528 9.18705 25.1726 9.17399 25.1848 9.16341C25.247 9.10621 25.2395 9.11454 25.1729 9.11177C25.1659 9.11136 25.1517 9.10479 25.1346 9.09825C25.134 9.08949 25.1325 9.08134 25.131 9.07366C25.1332 9.05763 25.1384 9.04039 25.1405 9.02325C25.1515 8.94771 25.1719 8.86937 25.1896 8.80317C25.2045 8.83653 25.2658 8.8363 25.2363 8.76383C25.2341 8.58088 25.1753 8.37348 25.0902 8.22777C24.9626 8.03063 24.8234 8.01822 24.725 8.0372C24.7297 7.9905 24.7492 7.9317 24.7669 7.88597C24.7738 7.86973 24.8195 7.79439 24.8304 7.76917C24.8522 7.70726 24.8024 7.80703 24.9454 7.56015C24.9087 7.63449 24.8761 7.71233 24.8448 7.79007C24.8798 7.75088 24.9188 7.71355 24.9609 7.67941C25.0085 7.60425 25.0559 7.52837 25.1034 7.45319C24.972 7.72937 25.1003 7.68105 25.0974 7.77531C25.0956 7.79349 25.0169 7.88756 25.0148 7.93269C25.0116 7.98412 25.0884 8.01546 25.0902 8.08392C25.2101 8.01927 25.3361 7.96228 25.4662 7.91671C25.6098 8.0175 25.3079 8.22701 25.301 8.29539C25.3018 8.30427 25.3268 8.36444 25.3441 8.42326C25.3525 8.43402 25.3617 8.44423 25.3657 8.44539C25.4282 8.45414 25.7242 8.40419 25.6698 8.4749C25.6594 8.48689 25.5606 8.50745 25.5537 8.5167C25.5478 8.53172 25.7881 8.55486 26.0063 8.54252C25.7366 8.5854 25.848 8.62536 25.7716 8.64457C25.7477 8.65001 25.5751 8.65964 25.5369 8.67284C25.5073 8.68315 25.6441 8.70417 25.6231 8.71834C25.5979 8.73278 25.4545 8.73968 25.4411 8.74538C25.4388 8.75058 25.5439 8.7561 25.5489 8.76383C25.5446 8.79019 25.3573 8.80956 25.3501 8.82899C25.3466 8.8571 25.6902 8.91207 25.8387 8.98022C25.815 8.98977 25.7421 8.99362 25.7369 9.00604C25.7295 9.04279 25.7184 9.08544 25.6962 9.15235C25.6646 9.22772 25.6688 9.29142 25.4974 9.56546C25.4703 9.5548 25.4004 9.59396 25.3046 9.6466C25.2216 9.70495 24.7375 9.49032 25.2866 10.0769C25.3029 10.1225 25.261 10.1523 25.1968 10.1667C24.985 10.2528 24.7483 10.1748 24.6927 10.1863C24.6161 10.204 24.5736 10.3593 24.4963 10.372C24.2997 10.3985 24.149 10.3189 23.9263 10.3118C23.921 10.3202 23.9139 10.3329 23.9048 10.3499C23.8894 10.379 23.8339 10.5346 23.8257 10.5392C23.8207 10.529 23.8565 10.3736 23.8497 10.3585C23.8322 10.3284 23.7554 10.3603 23.7311 10.3204C23.7282 10.31 23.7735 10.1745 23.7814 10.1286C23.79 10.078 23.7931 10.0412 23.7898 10.0253C23.7889 10.0272 23.7872 10.0295 23.7862 10.0314C23.7677 10.1078 23.7495 10.1847 23.7323 10.2613C23.7125 10.2762 23.7148 10.2352 23.718 10.1937C23.7275 10.1645 23.7359 10.1345 23.7359 10.1298C23.7287 10.1372 23.6821 10.264 23.6724 10.265C23.6698 10.2639 23.6727 10.2479 23.6748 10.2282C23.6563 10.2729 23.6338 10.3255 23.6102 10.3868C23.6284 10.2984 23.6246 10.2638 23.6114 10.2552C23.5953 10.2927 23.5802 10.3289 23.5695 10.34C23.5669 10.3558 23.3749 10.3791 23.3455 10.3646C23.3032 10.3457 23.2974 10.2991 23.2964 10.2454C23.2492 10.2378 23.1885 10.235 23.112 10.238C22.9044 10.2172 22.7681 10.4594 22.5337 9.84578C22.5161 9.79264 22.5002 9.735 22.487 9.67365C22.4879 9.61034 22.4945 9.54677 22.5013 9.48431C22.5251 9.24284 22.8791 9.07323 22.4151 9.05767C22.4616 8.97828 22.4635 8.9114 22.5025 8.85604C22.4969 8.82357 22.4912 8.79108 22.4882 8.75891C22.4551 8.72886 22.4237 8.69919 22.4031 8.67284C22.3726 8.63348 22.3883 8.59773 22.4283 8.57203C22.5605 8.59151 22.6873 8.60387 22.7935 8.6126C22.7902 8.60433 22.7858 8.59508 22.7791 8.58555C22.7165 8.58062 22.6432 8.57257 22.5588 8.56711C22.6936 8.55225 22.4443 8.50753 22.4882 8.48965C22.5186 8.47925 22.65 8.48702 22.6486 8.47121C22.6459 8.458 22.5654 8.43474 22.548 8.42326C22.5427 8.39939 22.5518 8.37871 22.5887 8.3667C22.5475 8.31223 22.5189 8.25941 22.5349 8.20932C22.5501 8.16334 22.5763 8.10008 22.6271 8.01261C22.6331 8.10571 22.7466 8.12772 22.8486 8.12818C22.8816 8.13035 22.8537 8.11201 22.8654 8.11097C22.8139 8.06918 22.7321 8.01709 22.6043 7.94867C22.5921 7.903 22.8175 7.94171 22.936 7.96097C22.9665 7.94769 22.9946 7.93106 23.0067 7.9081C23.0123 7.89681 23.0145 7.88239 23.0186 7.86753C22.9386 7.82058 22.8901 7.79242 23.021 7.85646C23.0264 7.83478 23.0346 7.81011 23.0402 7.78269C22.9548 7.80653 22.9032 7.67809 23.0833 7.63146C23.1438 7.61817 23.3195 7.68521 23.3587 7.64253C23.4183 7.57837 23.2418 7.3271 23.409 7.20729C23.5114 7.13081 23.7156 7.09614 23.9083 7.11016C23.8819 7.12671 23.8629 7.1464 23.8485 7.16917L23.694 7.21958C23.6785 7.26364 23.6702 7.31652 23.6772 7.34622C23.6807 7.35922 23.6888 7.36017 23.706 7.35852C23.7585 7.30123 23.8226 7.24515 23.8964 7.19622C23.9664 7.24919 24.0286 7.30791 24.082 7.37081C24.0984 7.34984 24.1166 7.32945 24.1347 7.30934C24.1019 7.30975 24.0739 7.30423 24.0604 7.26753C24.0495 7.23918 24.0349 7.18124 24.0209 7.12491C24.078 7.1356 24.1329 7.14935 24.1802 7.1704C24.1985 7.18464 24.2137 7.20104 24.2293 7.21467C24.2401 7.20478 24.2504 7.19349 24.2616 7.18393C24.2625 7.17107 24.2641 7.15742 24.2652 7.14458L24.2556 7.30196C24.2553 7.30735 24.2558 7.31296 24.2556 7.31794C24.253 7.37731 24.253 7.40796 24.2556 7.41753C24.2567 7.42271 24.2549 7.42168 24.2568 7.4163C24.2682 7.38964 24.2919 7.2264 24.2939 7.06344C24.3165 7.1384 24.3535 7.21525 24.3945 7.29581C24.4165 7.26406 24.4394 7.1999 24.4556 7.19376C24.5438 7.16001 24.5914 7.18307 24.6987 7.03639ZM24.1395 9.62078C24.1187 9.6306 24.0989 9.68017 24.0784 9.73881C24.1164 9.72904 24.1302 9.70972 24.1179 9.68717C24.1421 9.68531 24.1665 9.68216 24.1898 9.67857C24.1749 9.64679 24.1578 9.61284 24.1395 9.62078ZM24.2484 9.6589C24.2661 9.64955 24.2792 9.6372 24.2903 9.62447C24.2788 9.6054 24.2723 9.58981 24.2676 9.59127C24.2601 9.59611 24.2543 9.62751 24.2484 9.6589ZM23.6078 8.30523C23.6157 8.3105 23.6238 8.31594 23.6317 8.32121C23.6253 8.31498 23.6176 8.30871 23.6102 8.30154C23.6093 8.3024 23.6086 8.30423 23.6078 8.30523ZM23.6832 7.38557C23.6365 7.4254 23.5508 7.50455 23.5503 7.58843C23.5453 7.63006 23.5551 7.67351 23.5731 7.72368C23.6543 7.70541 23.7487 7.75163 23.5874 7.52204C23.6114 7.47731 23.6444 7.43126 23.6832 7.38557Z" fill="white"/>
<path d="M24.5682 7.72982C24.5697 7.7302 24.5714 7.73067 24.5729 7.73105L24.5705 7.73228C24.5842 7.74908 24.5995 7.77043 24.6137 7.7999C24.615 7.79225 24.6155 7.78361 24.6172 7.77531C24.6245 7.79777 24.6414 7.8306 24.6436 7.86015C24.6631 7.84611 24.6937 7.81992 24.7322 7.76917C24.6857 7.88106 24.6639 7.95113 24.658 7.99293C24.6465 7.97955 24.6382 7.96711 24.6304 7.95728C24.6229 7.94946 24.6169 7.9417 24.6113 7.93515C24.6156 7.91454 24.6202 7.89341 24.622 7.87367C24.6272 7.87362 24.6317 7.86806 24.64 7.86261C24.6337 7.86316 24.6277 7.86443 24.622 7.86507C24.6219 7.86777 24.6222 7.87092 24.622 7.87367C24.6164 7.8736 24.6137 7.87219 24.6113 7.8663C24.5797 7.87199 24.5694 7.88608 24.6113 7.93515C24.5979 7.99831 24.5804 8.05941 24.5945 8.07408C24.5975 8.08062 24.633 8.06324 24.6855 8.04703C24.6612 8.04542 24.6522 8.03388 24.658 7.99293C24.6699 8.0068 24.6833 8.02336 24.6987 8.04334C24.707 8.04108 24.7159 8.03896 24.725 8.0372C24.7247 8.03993 24.724 8.04315 24.7238 8.0458C24.716 8.0473 24.7077 8.04645 24.7011 8.04703C24.7479 8.1083 24.812 8.2018 24.8819 8.36178C24.9323 8.57702 24.9047 8.64134 25.0639 8.73678C24.9704 8.81597 24.8711 8.86268 24.7562 8.92366C24.7627 8.93647 24.9078 8.98813 24.9442 9.0171C24.9776 9.04412 24.9895 9.08055 24.9789 9.13144C25.0373 9.08382 24.9881 8.99665 25.0016 8.99005C25.0321 8.96637 25.1127 8.98436 25.131 9.07366C25.1299 9.08111 25.1284 9.08873 25.1274 9.09579C25.1297 9.09668 25.1323 9.09739 25.1346 9.09825C25.1362 9.1262 25.132 9.15932 25.1202 9.19907C25.1178 9.20057 25.1155 9.20354 25.113 9.20521C25.1149 9.20527 25.1171 9.20513 25.119 9.20521C25.1178 9.20907 25.1167 9.21353 25.1154 9.21751C25.1036 9.22719 25.091 9.23868 25.0771 9.24948C25.0826 9.23859 25.087 9.22744 25.0914 9.21751C25.0212 9.25496 24.9025 9.29804 24.7346 9.29988C24.5534 9.05155 24.3283 8.75443 24.2209 8.61383C24.2978 8.39594 24.3752 8.17272 24.4185 8.0372C24.4529 7.92978 24.488 7.82198 24.5226 7.71753C24.5334 7.71981 24.5441 7.72357 24.555 7.72613C24.5558 7.72342 24.5565 7.72019 24.5574 7.71753C24.561 7.72119 24.5644 7.72534 24.5682 7.72982Z" fill="white"/>
<path d="M25.1154 9.22243C25.1156 9.22104 25.115 9.21877 25.1154 9.21751C25.1199 9.2139 25.1256 9.21115 25.1298 9.20767C25.1257 9.21224 25.1202 9.21697 25.1154 9.22243Z" fill="white"/>
<path d="M25.131 9.20521C25.1275 9.20506 25.1225 9.20533 25.119 9.20521C25.1195 9.20333 25.1196 9.2009 25.1202 9.19907C25.1787 9.16271 25.1841 9.14622 25.131 9.20521Z" fill="white"/>
<path d="M24.6364 7.74581C24.6294 7.74608 24.6256 7.751 24.622 7.75318C24.6228 7.75007 24.6236 7.7465 24.6244 7.74335C24.6283 7.74442 24.6326 7.74466 24.6364 7.74581Z" fill="white"/>
<path d="M24.5777 7.72491C24.7604 7.34111 24.667 7.57248 24.6244 7.74335C24.6073 7.73835 24.5898 7.73527 24.5729 7.73105C24.5745 7.72928 24.576 7.72656 24.5777 7.72491Z" fill="white"/>
<path d="M24.6532 7.38802C24.6559 7.37595 24.6601 7.36303 24.6628 7.34991C24.6878 7.25248 24.6553 7.36692 24.731 7.24294C24.7089 7.28912 24.6808 7.33871 24.6532 7.38802Z" fill="white"/>
<path d="M23.9742 6.98352C23.9891 6.9952 24.0047 7.05952 24.0209 7.12491C23.9844 7.1181 23.9466 7.11295 23.9083 7.11016C23.9116 7.1079 23.9143 7.10349 23.9179 7.10155C23.9382 7.08912 23.9486 6.96521 23.9742 6.98352Z" fill="white"/>
<path d="M3.77301 4.09913C3.80975 4.05257 3.84864 4.00417 3.88677 3.94913C3.96214 3.9254 4.06436 3.91283 4.17656 3.90487L3.77301 4.09913Z" fill="white"/>
</svg>
