<svg width="150" height="229" viewBox="0 0 150 229" fill="none" xmlns="http://www.w3.org/2000/svg">
<path d="M55.5816 132.546C40.2781 132.546 3.14832 109.194 3.14832 72.4375C3.14832 35.6808 33.915 4.54565 82.4483 4.54565C130.982 4.54565 151.782 56.87 144.848 83.6808C140.657 99.8894 128.705 114.359 111.482 123.269C111.482 123.269 111.867 126.111 112.437 130.383C113.677 139.698 115.79 155.813 116.682 164.113C117.534 172.048 110.197 183.326 100.648 190.157C95.6261 193.75 89.9918 196.113 84.615 196.113C75.5607 196.113 71.9075 196.798 68.1483 194.861C65.4307 193.461 62.6576 190.691 57.7483 185.302C47.6554 174.223 48.8488 151.581 53.2615 138.167C53.9641 136.031 54.7483 134.13 55.5816 132.546Z" fill="#282A36"/>
<path d="M130.429 117.492C130.116 117.868 129.352 118.019 128.91 118.369C127.045 119.822 126.187 120.147 124.398 121.289C121.838 123.101 113.991 128.197 112.732 125.686C112.732 125.686 112.732 125.686 112.732 125.686C112.72 125.663 112.708 125.638 112.697 125.614C112.491 125.141 112.903 124.291 112.725 123.725C112.547 123.158 110.718 119.877 111.487 119.215C112.625 118.299 116.093 117.296 116.721 116.806C117.15 116.487 117.5 115.838 118.019 115.4C119.683 113.986 120.752 113.479 121.671 111.53C122.579 111.416 123.493 111.279 124.41 111.121C125.032 110.273 126.61 109.671 127.037 109.198C127.386 108.814 127.326 108.327 127.687 107.933C128.091 107.489 129.033 107.111 129.723 106.25C130.846 104.837 130.266 103.937 130.835 103.041C131.419 102.115 132.896 101.085 133.403 99.7292C133.412 99.522 133.42 99.3154 133.426 99.1092C133.149 99.0702 132.872 99.0297 132.595 98.9876C132.889 98.3557 133.481 98.3967 133.839 97.8668C134.257 97.2434 134.044 96.6591 134.306 96.2356C134.521 95.8894 135.143 95.6093 135.387 95.1327C135.742 94.4398 135.164 94.3113 135.271 93.8986C135.336 93.7396 136.427 90.8947 136.473 90.7336C136.992 89.551 137.741 89.7544 138.207 88.8101C139.185 86.7934 139.586 84.5091 139.853 82.3889C139.922 81.796 139.979 81.2003 140.041 80.6099C140.158 79.4821 140.375 78.3091 140.614 77.1777C142.394 79.2515 144.33 75.2126 141.1 76.5162C141.648 75.223 140.85 74.2718 141.006 73.0197C141.103 72.2009 141.531 71.657 141.476 70.4713C141.376 68.3724 139.904 66.2597 142.014 65.3864C141.319 62.9547 141.663 60.6478 139.573 60.1887C139.333 59.6069 140.083 57.7248 140.05 56.9882C140.075 56.2905 139.011 51.0453 138.693 50.23C138.43 49.4032 137.902 47.9522 137.466 47.3467C136.913 46.5642 134.832 46.8074 136.307 44.3513C135.329 42.7046 135.085 42.0676 134.5 40.3703C134.392 40.0631 134.683 39.8643 134.593 39.6976C134.407 39.355 133.859 38.8964 133.488 38.3148C132.878 37.3585 133.164 36.4209 132.267 37.1132C131.719 36.5727 131.163 36.041 130.603 35.5261C130.644 35.1904 130.683 34.8534 130.719 34.515C130.301 34.3143 129.882 34.1187 129.462 33.9282C131.078 33.3805 128.659 31.6387 128.431 32.9315C127.873 31.5812 127.262 30.2359 126.606 28.9106C128.178 27.8732 124.687 26.3414 124.134 27.2609C124.026 27.1392 123.918 27.018 123.809 26.8971C123.202 25.5101 121.999 24.8471 120.964 23.4138C119.909 21.9796 120.142 21.9695 120.303 20.97C119.957 20.7305 119.607 20.4947 119.256 20.2628C116.095 20.7042 118.938 17.7111 114.792 16.9611C114.647 15.0566 111.652 14.0717 109.715 13.5576C109.489 13.4946 109.351 13.7439 109.042 13.6801C108.305 13.5194 106.77 12.3721 106.436 13.2377C105.966 12.7236 105.479 12.2149 104.989 11.7174C104.436 11.6639 103.883 11.6188 103.33 11.5819C103.228 11.8503 103.125 12.1187 103.023 12.387C102.392 11.083 100.692 10.8893 99.9796 10.4239C99.8372 10.3295 99.9238 9.93964 99.4602 9.6855C98.9119 9.38313 97.8117 9.19556 97.1475 8.90098C96.7689 9.25716 96.3955 9.61682 96.0273 9.97984C94.7512 9.92325 94.5529 8.70676 93.837 8.47393C93.7149 8.42092 91.2607 8.09252 91.1174 8.11029C90.0011 8.16621 90.2263 9.13171 87.1381 8.65015C86.5764 8.56919 86.1685 8.20188 85.6675 8.16199C85.0148 8.10465 83.343 8.47909 82.4483 8.9976C82.1333 9.17417 81.9139 9.36261 81.8599 9.54614C80.7411 8.64593 77.8502 9.09943 76.9565 8.89716C76.6911 8.83189 76.6005 8.26331 75.787 8.1916C75.124 8.13072 73.4978 8.71279 72.6578 8.71884C71.7738 8.71945 71.4125 8.27842 71.0164 8.28739C70.6427 8.29711 70.3474 8.72015 69.8494 8.77896C68.2691 8.95967 66.7575 8.55837 65.5241 8.75499C63.6978 9.04603 62.3825 10.4797 61.0262 11.3054C60.6473 11.3147 60.2356 11.1577 59.8563 11.2459C55.16 12.3158 49.9375 13.8287 45.4291 15.5865C43.3375 16.324 37.6425 17.6539 40.2175 19.213C39.7497 19.9252 34.4676 21.9576 33.5936 22.625C32.7109 23.2247 32.3086 24.1 31.65 24.6101C29.6837 26.1516 28.0874 27.0345 26.1473 29.4326C25.6519 30.0529 25.452 31.0341 25.1262 31.3594C24.7331 31.7494 23.9331 31.8154 23.4178 32.3257C22.1737 33.5363 20.2646 36.1322 19.2297 37.4148C19.0371 37.6465 18.5954 37.457 18.2218 37.7268C16.7589 38.776 15.7688 40.4422 17.2138 40.9532C15.341 42.3165 15.0214 44.4657 14.1852 46.2462C12.29 49.9706 9.54037 57.1889 9.56114 60.9142C9.53449 63.2452 10.1703 63.2481 9.21966 66.5017C9.01834 67.2255 8.7834 67.9497 8.57577 68.8498C8.28587 70.1011 7.72823 71.3008 7.65348 72.4375C7.6027 73.1987 7.77737 73.9143 8.40715 74.5316C8.12493 76.887 8.61988 78.6776 7.64758 80.6266C7.98355 80.7824 8.32013 80.934 8.65724 81.0812C8.71506 81.3614 8.77548 81.6419 8.83906 81.9253C8.57028 82.0702 8.30206 82.2167 8.03438 82.3647C8.36904 84.4641 10.2392 86.6839 10.8005 88.32C11.5897 91.1277 14.5432 98.1563 15.8873 100.723C16.5432 102.113 17.1069 101.812 16.5516 103.265C16.8227 103.495 17.0959 103.724 17.3698 103.949C17.7236 103.957 18.0764 103.962 18.4283 103.964C19.5842 105.51 20.7209 107.579 21.979 108.966C24.2517 111.532 28.4871 114.439 30.8575 116.922C31.4543 117.56 31.9441 118.661 32.6436 119.164C33.6567 119.886 34.4314 119.261 35.7292 120.112C37.9101 121.584 41.6926 124.992 44.0532 125.912C44.7265 126.188 45.2117 126.005 45.687 126.161C47.7058 126.814 49.3385 127.401 51.3321 127.328C53.1033 128.68 52.7246 129.767 53.2504 131.069C53.5857 132.054 55.2352 134.268 55.5489 135.041C55.7507 135.601 54.9921 136.31 55.2649 136.928C51.6851 137.272 50.3708 136.326 48.1667 134.861C43.7058 133.628 39.5758 131.752 35.671 129.578C35.4839 129.085 35.2892 128.585 35.1228 128.096C35.1231 128.096 35.1235 128.095 35.1239 128.094C33.8894 126.909 32.8115 127.234 31.9431 126.904C23.2113 123.933 11.4803 110.096 7.3593 101.212C6.28234 99.4119 3.05614 93.2609 3.17485 91.6641C3.18332 91.2623 3.63777 90.9955 3.53194 90.6139C2.11009 87.3715 0.969788 83.9412 0.167259 80.4336C0.0834718 77.7721 -0.00328588 75.1295 0.000104666 72.4375C0.0044477 67.6977 0.20411 62.8716 1.12398 58.2125C4.84436 38.4872 18.2532 21.207 35.4984 11.8606C38.8006 10.0108 43.0304 7.62631 46.5842 6.55878C48.0804 6.10628 48.9371 6.67316 50.6545 5.45122C50.7444 5.6571 50.8341 5.86306 50.9236 6.06906C52.5198 5.2685 53.4246 4.46323 55.3331 3.89056C56.9193 3.39052 61.2116 2.393 62.6665 2.23481C63.4241 2.13849 63.2189 2.60041 63.9174 2.47487C65.1035 2.25405 67.5654 1.29597 69.2392 1.10319C70.7247 0.917235 73.3469 1.16189 74.4693 1.01977C77.0128 0.687783 79.6801 0.262784 82.4483 0.0767283C84.2577 -0.0405016 86.0269 -0.0351529 87.7987 0.174612C89.0839 0.322546 90.6327 1.04818 91.0182 1.08477C91.7757 1.15029 92.0835 0.664001 92.6177 0.674757C95.3332 0.709696 99.2624 2.24252 101.73 3.05669C109.83 5.58424 117.953 9.90877 124.261 15.5185C128.34 18.9432 134.201 25.5934 136.499 29.8931C137.011 30.8079 136.375 30.8946 136.849 31.6213C137.369 32.4264 137.975 32.6697 138.239 33.0392C140.124 35.5451 143.603 41.5972 144.293 44.5284C144.435 45.0784 144.163 45.6198 144.288 45.934C144.35 46.0923 144.778 46.3403 144.996 46.8309C146.897 51.1689 147.687 54.5573 148.526 59.1221C149.896 66.8317 150.962 76.0049 148.641 84.6617C148.345 85.7474 148.01 86.8119 147.639 87.8488C146.935 89.809 145.571 90.793 145.479 91.0583C145.263 91.6464 145.674 92.2506 145.293 93.4914C144.038 97.6546 140.512 102.319 138.308 105.702C137.241 107.396 136.057 110.019 134.82 111.608C133.858 112.902 130.962 115.319 130.654 116.027C130.475 116.466 130.764 117.082 130.429 117.492ZM141.912 69.1883C142.976 69.3727 141.903 66.8228 141.429 67.8528C141.325 68.0827 141.641 69.1415 141.912 69.1883ZM53.1029 11.2412C53.2173 11.5163 53.3314 11.7915 53.4453 12.0668C53.7426 11.842 54.0501 11.6163 54.3463 11.3965C54.1072 11.2831 53.8621 11.1722 53.6169 11.062C53.4451 11.1213 53.2738 11.181 53.1029 11.2412ZM58.5119 138.501C58.4414 138.574 58.3312 138.188 58.2466 138.169C57.8922 138.087 57.7581 137.819 57.4435 137.671C56.9821 137.454 55.5661 137.972 55.5816 135.267C55.5816 135.267 55.5816 135.267 55.5816 135.267C55.5816 135.241 55.5818 135.214 55.582 135.187C55.5869 134.672 55.6994 134.109 55.7152 133.527C55.7309 132.944 55.7143 129.183 55.8663 128.971C56.0848 128.692 56.639 129.652 56.7652 129.608C56.8489 129.577 56.9525 129.234 57.0559 129.172C57.3874 128.972 57.5713 129.218 57.8607 128.284C57.9938 128.77 58.1292 129.257 58.2667 129.744C58.4274 129.513 58.6885 130.152 58.7842 130.114C58.8633 130.082 58.8995 129.694 58.9824 129.674C59.0752 129.649 59.232 130.062 59.4029 129.994C59.6835 129.884 59.7009 128.873 59.8668 128.739C60.0424 128.6 60.3279 129.139 60.536 128.775C60.5594 128.663 60.5827 128.551 60.6061 128.439C60.5763 128.188 60.5467 127.938 60.5171 127.688C60.6232 127.567 60.6914 128.079 60.7944 128.084C60.9158 128.091 60.9573 127.6 61.0388 127.599C61.1055 127.599 61.2132 127.986 61.2995 127.958C61.4253 127.918 61.3725 127.355 61.4362 127.246C61.4643 127.204 61.9459 126.869 61.9722 126.864C62.1826 126.831 62.2393 127.603 62.4134 127.662C62.8948 127.822 63.3648 127.171 63.7788 126.91C63.967 126.793 64.1731 126.826 64.3764 126.938C64.1856 128.933 64.9693 130.428 64.5213 127.352C64.7675 127.779 64.8711 126.934 65.0887 127.062C65.2284 127.145 65.3464 127.568 65.5357 127.544C65.8715 127.499 66.1563 126.255 66.4093 128.45C66.7828 128.034 67.1921 128.806 67.1879 126.853C67.2802 126.727 67.6291 127.864 67.7569 128.012C67.8757 128.152 68.76 128.608 68.9027 128.625C69.0419 128.643 69.2834 128.655 69.3846 128.475C69.5126 128.252 69.4408 126.231 69.9007 128.562C70.1858 128.346 70.2989 128.404 70.6051 128.652C70.6606 128.697 70.6975 129.046 70.7275 129.044C70.7892 129.038 70.8708 128.771 70.9759 128.729C71.1493 128.662 71.3187 129.387 71.196 128.267C71.2963 128.068 71.3964 127.869 71.4965 127.67C71.5579 127.882 71.6194 128.095 71.681 128.308C71.722 128.066 71.7629 127.824 71.8036 127.582C71.8825 129.213 72.2372 128.212 72.0037 127.295C72.2639 127.609 72.5269 127.922 72.7888 128.235C72.9381 130.084 73.3114 128.399 73.1652 127.4C73.1914 127.399 73.2175 127.398 73.2437 127.397C73.5211 127.864 73.6903 127.442 74.0033 127.742C74.3169 128.042 74.3096 128.224 74.4839 129.063C74.545 129.008 74.6062 128.952 74.6672 128.897C74.7657 126.536 75.1337 130.566 75.5336 128.719C75.8823 130.159 76.2677 129.34 76.5272 128.862C76.5574 128.807 76.5259 128.523 76.564 128.431C76.658 128.207 76.9968 128.537 76.8813 127.625C77.0146 127.877 77.1482 128.129 77.2822 128.382C77.3472 128.206 77.412 128.03 77.4766 127.854C77.4426 127.569 77.4086 127.284 77.3746 126.999C77.6582 127.951 77.8809 127.545 78.0401 127.762C78.072 127.806 78.1249 128.198 78.2194 128.296C78.3302 128.411 78.4939 128.274 78.6226 128.382C78.6135 127.942 78.6044 127.501 78.5947 127.06C78.7669 126.799 78.9801 127.939 79.1103 128.014C79.1337 128.027 79.514 127.895 79.5319 127.868C79.6797 127.652 79.5065 126.679 80.0295 126.825C80.1227 126.852 80.2382 127.181 80.32 127.184C80.4651 127.19 80.7892 126.367 80.7278 125.653C81.016 126.518 81.4244 126.094 81.5935 126.332C81.6448 126.405 81.7309 126.969 81.8726 127.072C81.9877 127.156 82.1863 126.668 82.3251 126.726C82.4729 126.789 82.588 127.257 82.6541 127.282C82.7164 127.305 82.7159 126.914 82.795 126.906C83.0426 126.884 83.3536 127.469 83.5501 127.452C83.8347 127.429 83.9175 126.26 84.0761 125.722C84.1448 125.787 84.2378 126.022 84.2989 126.015C85.0588 125.938 85.9373 126.016 86.7316 126.137C87.0998 126.193 88.2261 127.582 87.5696 125.062C87.6154 124.595 88.6664 125.478 88.8397 125.463C89.0105 125.45 89.0638 124.969 89.1938 124.939C89.5866 124.85 89.9212 125.131 90.3318 124.645C90.438 124.518 90.4723 123.952 90.5468 123.945C90.6367 123.938 90.8284 124.444 90.9493 124.456C91.2371 124.481 91.7111 124.213 91.9872 124.254C92.0378 124.263 92.1435 124.719 92.24 124.849C92.617 125.359 92.9088 125.251 92.5681 123.796C93.0722 124.561 93.2365 123.739 93.5376 123.63C94.1839 123.402 95.453 123.489 95.895 122.747C96.1707 122.279 96.0132 121.629 96.6645 122.073C96.809 122.171 96.963 122.313 97.1377 122.43C97.5514 122.703 98.1522 123.832 98.0555 122.322C98.5158 122.608 98.7328 122.272 99.3187 123.44C99.2771 123.135 99.2351 122.83 99.1928 122.525C99.2364 122.507 99.28 122.488 99.3235 122.469C99.4093 122.748 99.4953 123.027 99.5813 123.306C99.9301 123.299 100.036 122.032 100.302 121.971C100.759 121.866 102.034 121.993 102.575 122.242C102.863 122.376 102.695 121.773 103.193 122.965C103.219 122.864 103.244 122.763 103.269 122.662C103.219 122.384 103.169 122.105 103.118 121.826C103.401 121.729 103.86 122.044 104.139 121.949C104.644 121.779 105.108 120.807 105.763 121.112C105.926 121.19 106.274 121.681 106.389 121.631C106.557 121.56 106.258 120.644 106.469 120.545C106.833 120.378 107.9 121.154 108.227 120.919C108.319 120.853 108.223 120.504 108.275 120.44C108.491 120.166 108.728 120.09 108.755 119.464C109.429 120.164 109.934 121.24 110.561 122.271C111.032 123.05 112.219 124.803 112.624 125.487C112.906 125.97 113.139 126.657 113.456 127.184C113.232 127.85 112.785 127.466 112.053 126.856C111.41 127.196 110.742 127.519 110.111 127.808C109.927 127.521 109.744 127.232 109.563 126.944C109.562 126.943 109.562 126.942 109.562 126.942C109.174 126.679 109.381 127.524 109.312 127.76C108.661 130.033 105.557 129.494 104.092 129.68C103.782 129.723 102.882 130.439 102.534 129.967C102.444 129.844 102.296 129.349 102.233 129.342C101.803 129.774 101.356 130.206 100.907 130.635C99.6575 130.118 98.7101 131.021 97.6528 131.38C94.8039 132.351 91.9833 133.293 89.0783 133.65C88.5201 133.718 87.8676 134.216 87.2861 134.054C87.0424 133.987 86.8211 133.182 86.617 133.839C86.5798 133.619 86.5427 133.398 86.5055 133.178C86.2867 133.484 86.1964 134.013 85.9109 134.108C85.6694 134.188 85.0243 134.317 84.7938 134.264C84.6747 134.238 84.6568 133.818 84.5521 133.836C84.3734 133.868 84.07 134.495 83.8205 134.53C83.5942 134.562 83.1487 134.138 82.9852 134.231C82.3961 134.562 81.8088 135.36 81.1159 135.257C80.9245 135.227 80.6192 134.72 80.5637 134.742C80.4553 134.787 80.4878 135.314 80.4205 135.391C80.0782 135.779 79.402 135.232 79.0218 135.252C77.7857 135.32 76.5072 135.695 75.2745 135.727C74.4907 135.75 73.2187 135.969 72.4631 135.642C72.3012 135.571 72.2886 134.993 72.1598 135.005C72.0171 135.018 71.9756 135.413 71.9118 135.451C71.4768 135.713 70.4711 136.196 70.0041 135.835C69.9145 135.766 69.8169 135.321 69.7675 135.326C69.7424 135.328 69.7111 135.64 69.6348 135.678C68.9542 136.014 68.4223 135.875 67.7334 135.82C66.395 135.719 64.9046 136.39 63.4972 136.155C63.1874 136.104 62.9348 135.222 62.893 135.233C62.801 135.256 62.7716 135.859 62.5906 136.016C62.0017 136.534 61.0925 135.932 60.5201 136.254C60.2346 136.413 59.8367 137.19 59.5488 137.368C59.3149 137.51 58.7625 137.226 58.6628 137.563C58.6028 137.767 58.5882 138.418 58.5119 138.501ZM65.7718 128.031C65.8019 129.071 66.1615 128.181 65.9665 127.635C65.9226 127.512 65.7639 127.761 65.7718 128.031ZM85.5834 127.662C85.5345 127.369 85.4856 127.076 85.4368 126.783C85.4009 126.913 85.3649 127.044 85.3288 127.174C85.3865 127.346 85.4443 127.518 85.5022 127.69C85.5293 127.68 85.5563 127.671 85.5834 127.662ZM50.1101 130.083C50.0501 130.042 50.4022 130.208 50.4252 130.208C50.5252 130.211 50.7724 130.32 50.9261 130.355C51.1538 130.409 50.7814 130.018 53.173 131.278C53.173 131.278 53.1731 131.279 53.1731 131.279C53.1966 131.291 53.2203 131.303 53.2443 131.316C53.6998 131.556 54.1914 131.83 54.7062 132.102C55.2212 132.375 58.5516 134.123 58.7321 134.234C58.9693 134.382 58.0902 133.982 58.1224 134.013C58.1448 134.033 58.4437 134.2 58.493 134.237C58.6519 134.355 58.4215 134.257 59.2346 134.707C58.794 134.493 58.353 134.28 57.9117 134.068C58.1066 134.185 57.5206 133.914 57.5478 133.938C57.5702 133.959 57.9132 134.138 57.9255 134.154C57.9413 134.172 57.5622 133.996 57.6107 134.04C57.6884 134.11 58.5879 134.569 58.6953 134.641C58.8065 134.715 58.3043 134.492 58.6126 134.67C58.7108 134.722 58.809 134.774 58.9072 134.826C59.1328 134.937 59.3583 135.047 59.5839 135.158C59.684 135.219 59.2214 134.993 59.2088 134.998C59.1937 135.003 59.6281 135.225 59.6229 135.231C59.6181 135.235 59.2639 135.069 59.2823 135.087C59.3074 135.112 59.8149 135.361 59.9069 135.413C59.9426 135.434 60.2025 135.612 60.2055 135.616C60.2172 135.642 59.5223 135.303 59.4546 135.287C59.2697 135.245 59.8117 135.56 60.0075 135.698C60.095 135.759 60.0466 135.756 59.9275 135.718C58.1565 134.833 56.7392 134.226 59.542 135.545C59.136 135.372 59.8838 135.747 59.7484 135.702C59.66 135.673 59.2686 135.496 59.2712 135.517C59.2779 135.556 60.3675 136.107 58.3683 135.173C58.7039 135.373 57.9651 135.064 59.7235 135.902C59.8274 135.961 58.766 135.491 58.6184 135.435C58.4796 135.381 57.9702 135.234 57.938 135.234C57.9058 135.234 57.8671 135.242 58.0177 135.324C58.2036 135.426 60.0366 136.275 57.8786 135.314C58.0402 135.421 57.9746 135.402 57.7134 135.313C57.6662 135.297 57.3467 135.152 57.3452 135.155C57.3426 135.16 57.5744 135.277 57.5987 135.3C57.6386 135.337 56.9621 135.042 57.9898 135.505C58.1573 135.593 58.3248 135.681 58.4924 135.769C58.2925 135.684 58.0925 135.598 57.8925 135.512C58.1061 135.615 58.3198 135.718 58.5336 135.821C57.049 135.145 57.9091 135.58 58.7687 135.95C58.452 135.831 58.1351 135.714 57.8178 135.597C56.1262 134.839 57.6019 135.556 58.5251 135.96C58.5228 135.962 58.5204 135.963 58.518 135.965C58.0588 135.785 58.4191 135.967 58.1057 135.858C57.7922 135.749 57.628 135.674 56.8441 135.339C56.8861 135.365 56.9282 135.39 56.9702 135.416C59.0971 136.386 55.3924 134.757 57.0114 135.53C55.657 134.961 56.3449 135.314 56.7415 135.519C56.7875 135.543 57.0493 135.656 57.1281 135.696C57.3176 135.79 56.9691 135.673 57.8144 136.035C57.5659 135.939 57.3174 135.844 57.0688 135.748C57.2191 135.822 57.3695 135.895 57.52 135.969C57.7839 136.082 58.0478 136.195 58.3118 136.308C57.4058 135.938 57.7411 136.11 57.5208 136.03C57.4762 136.014 57.1116 135.859 57.009 135.825C56.8872 135.783 56.988 135.846 56.8697 135.808C57.2718 135.983 57.674 136.159 58.0762 136.334C58.2877 136.445 57.2186 136 57.131 135.976C57.1158 135.972 57.1772 136.04 57.1992 136.052C57.3731 136.144 58.2844 136.522 58.0708 136.484C58.0322 136.478 57.7146 136.352 57.6989 136.354C57.6706 136.358 58.3691 136.694 59.0286 136.972C58.1956 136.643 58.5165 136.824 58.2725 136.738C58.1974 136.711 57.67 136.494 57.553 136.459C57.4577 136.431 57.8701 136.629 57.7946 136.611C57.7125 136.592 57.2675 136.414 57.2338 136.407C57.2024 136.401 57.5583 136.552 57.5532 136.559C57.5315 136.576 56.9468 136.362 56.9287 136.376C56.9011 136.396 57.9527 136.849 58.4155 137.061C58.3446 137.038 58.1146 136.951 58.1103 136.956C58.0492 137.011 57.8223 137.01 57.5665 136.99C57.4491 136.981 55.9703 136.494 58.3924 137.421C58.8108 137.598 57.8057 137.297 57.7847 137.308C57.7641 137.318 58.1927 137.499 58.1944 137.513C58.1992 137.557 57.8765 137.462 58.2371 137.653C58.3315 137.702 58.8411 137.912 58.8326 137.916C58.8211 137.921 58.3202 137.739 58.2845 137.738C58.2034 137.736 58.3492 137.845 58.2537 137.837C58.2352 137.835 57.7972 137.671 57.658 137.625C57.1142 137.448 57.1496 137.495 58.549 138.017C57.7436 137.749 58.4562 138.052 58.4898 138.098C58.5572 138.193 58.1881 138.186 58.7573 138.456C59.1165 138.627 59.7461 138.856 59.1852 138.707C59.0607 138.674 58.8943 138.625 58.7456 138.586C58.396 138.495 57.2213 138.104 58.6151 138.635C58.2385 138.539 58.4866 138.66 57.2764 138.256C57.5632 138.362 57.8501 138.469 58.1369 138.575C58.1425 138.582 58.148 138.589 58.1536 138.596C57.8784 138.499 57.6032 138.402 57.328 138.305C57.2425 138.311 58.3577 138.754 58.3403 138.777C58.3118 138.816 57.8322 138.776 57.4453 138.69C57.2399 138.644 57.8296 138.85 56.612 138.441C56.6945 138.476 56.7771 138.51 56.8597 138.545C57.1242 138.641 57.3888 138.736 57.6533 138.832C57.6539 138.864 57.229 138.756 57.2235 138.786C57.214 138.841 57.9204 139.167 57.4218 139.054C57.2961 139.026 56.7414 138.856 56.7432 138.871C56.7454 138.892 57.6555 139.206 57.6648 139.234C57.6792 139.283 56.5939 139.002 56.6619 139.069C56.6815 139.088 57.0195 139.207 57.0532 139.227C57.1981 139.311 57.1614 139.329 57.6764 139.534C56.7896 139.278 55.6599 138.903 54.5155 138.537C53.6517 138.261 51.647 137.631 50.8913 137.387C50.3604 137.216 49.6822 136.981 49.0976 136.793C48.6476 136.591 49.1673 136.739 50 136.973C49.9908 136.891 49.9818 136.809 49.973 136.727C50.2929 136.827 50.6128 136.928 50.9326 137.029C50.9333 137.029 50.934 137.029 50.9347 137.029C51.3103 137.126 50.4961 136.839 50.3154 136.762C48.5856 136.019 50.073 136.209 50.3258 136.128C50.3798 136.11 49.9923 135.851 50.5135 136.01C50.6492 136.052 51.1369 136.223 51.1603 136.224C50.8903 136.066 50.6206 135.907 50.3516 135.747C51.1486 135.904 50.5676 135.561 50.4945 135.401C50.2955 134.971 50.0357 134.508 50.2745 134.239C50.3212 134.188 49.9919 133.967 50.2477 134C50.3538 134.013 51.1285 134.312 50.5671 134.049C50.7748 134.132 50.9825 134.215 51.1903 134.298C50.9508 134.17 50.4859 133.962 50.4508 133.911C50.4219 133.868 50.4199 133.784 50.5087 133.793C50.5532 133.797 50.9385 133.959 50.9411 133.947C50.9427 133.925 50.4249 133.665 50.4361 133.637C50.4462 133.613 50.9083 133.755 50.8515 133.71C50.6503 133.548 50.0226 133.199 50.2297 133.2C50.2882 133.2 50.7986 133.384 50.7872 133.372C50.7633 133.348 50.2798 133.14 50.2209 133.105C49.9238 132.93 50.5276 133.108 50.5679 133.077C50.6992 132.975 50.5497 132.742 50.6972 132.647C50.7896 132.588 50.7678 132.409 51.1636 132.494C51.249 132.513 51.7727 132.754 51.7789 132.74C51.7857 132.725 51.4345 132.556 51.409 132.536C51.2304 132.396 50.9231 132.121 51.3069 132.239C51.3805 132.262 51.7939 132.444 51.7949 132.438C51.7961 132.436 51.5189 132.301 51.4942 132.279C51.2756 132.087 51.4648 132.106 51.5949 132.078C51.8417 132.023 51.4028 131.611 51.7549 131.597C51.8316 131.594 52.6449 131.965 52.6389 131.957C52.6275 131.939 52.0908 131.669 51.9675 131.583C51.5626 131.3 52.1827 131.494 51.9447 131.296C51.8277 131.198 51.1686 130.811 51.0344 130.702C50.927 130.615 51.2245 130.69 50.9321 130.527C50.7554 130.428 50.1782 130.128 50.1101 130.083ZM58.8099 135.319C57.8727 134.869 58.6359 135.276 59.1465 135.501C59.2614 135.552 59.0532 135.435 58.8099 135.319ZM56.3839 136.371C56.6596 136.481 56.9353 136.591 57.211 136.701C57.0984 136.65 56.9858 136.599 56.8732 136.548C56.7064 136.484 56.5396 136.421 56.3728 136.357C56.3765 136.362 56.3802 136.366 56.3839 136.371ZM118.329 129.242C118.401 129.241 118.017 129.305 117.998 129.317C117.914 129.371 117.649 129.422 117.502 129.48C117.285 129.566 117.814 129.667 115.134 130.024C115.134 130.024 115.134 130.024 115.134 130.024C115.108 130.028 115.081 130.031 115.054 130.035C114.544 130.102 113.985 130.162 113.407 130.237C112.829 130.312 109.101 130.81 108.888 130.818C108.608 130.825 109.555 130.627 109.511 130.617C109.48 130.61 109.139 130.642 109.077 130.637C108.877 130.619 109.122 130.563 108.196 130.646C108.679 130.566 109.162 130.485 109.646 130.405C109.418 130.414 110.054 130.299 110.017 130.29C109.986 130.284 109.602 130.329 109.583 130.32C109.559 130.311 109.97 130.237 109.905 130.224C109.8 130.201 108.798 130.328 108.668 130.323C108.534 130.319 109.073 130.211 108.717 130.23C108.606 130.241 108.496 130.252 108.385 130.263C108.137 130.299 107.888 130.335 107.639 130.371C107.521 130.372 108.031 130.298 108.038 130.283C108.048 130.266 107.563 130.323 107.563 130.312C107.565 130.304 107.951 130.24 107.925 130.233C107.89 130.221 107.33 130.299 107.224 130.305C107.183 130.307 106.865 130.284 106.86 130.28C106.834 130.256 107.601 130.151 107.665 130.12C107.84 130.034 107.212 130.055 106.97 130.03C106.862 130.019 106.903 129.987 107.022 129.946C108.99 129.723 110.505 129.433 107.439 129.875C107.872 129.789 107.041 129.879 107.177 129.834C107.267 129.804 107.691 129.736 107.676 129.713C107.648 129.672 106.432 129.786 108.617 129.482C108.225 129.483 109.012 129.333 107.079 129.573C106.959 129.576 108.105 129.389 108.259 129.353C108.405 129.319 108.91 129.142 108.936 129.121C108.963 129.1 108.99 129.065 108.819 129.073C108.607 129.082 106.603 129.337 108.94 128.992C108.745 128.979 108.81 128.957 109.078 128.885C109.126 128.872 109.473 128.824 109.473 128.821C109.472 128.813 109.213 128.834 109.18 128.824C109.126 128.808 109.856 128.697 108.739 128.849C108.549 128.859 108.36 128.869 108.171 128.879C108.386 128.845 108.601 128.811 108.816 128.777C108.579 128.8 108.343 128.823 108.107 128.847C109.725 128.64 108.764 128.711 107.839 128.854C108.169 128.78 108.5 128.706 108.83 128.633C110.668 128.391 109.034 128.542 108.036 128.68C108.037 128.677 108.038 128.673 108.039 128.67C108.523 128.575 108.12 128.601 108.443 128.522C108.766 128.442 108.945 128.422 109.789 128.298C109.739 128.296 109.69 128.294 109.64 128.292C107.318 128.559 111.33 128.029 109.543 128.193C110.996 127.974 110.223 128.017 109.776 128.037C109.724 128.039 109.442 128.077 109.354 128.082C109.142 128.095 109.5 128.009 108.589 128.132C108.851 128.084 109.113 128.035 109.375 127.987C109.208 127.998 109.04 128.01 108.873 128.021C108.589 128.059 108.304 128.098 108.02 128.136C108.987 127.984 108.609 128.001 108.839 127.953C108.886 127.943 109.278 127.89 109.384 127.865C109.509 127.836 109.39 127.83 109.511 127.799C109.075 127.851 108.64 127.904 108.204 127.957C107.965 127.962 109.111 127.799 109.198 127.772C109.213 127.767 109.124 127.728 109.099 127.729C108.902 127.733 107.925 127.87 108.126 127.779C108.163 127.762 108.5 127.708 108.512 127.696C108.534 127.675 107.76 127.724 107.05 127.815C107.934 127.674 107.564 127.663 107.818 127.612C107.896 127.596 108.461 127.519 108.579 127.487C108.676 127.46 108.218 127.488 108.292 127.461C108.372 127.433 108.846 127.363 108.879 127.35C108.909 127.339 108.525 127.384 108.526 127.373C108.535 127.34 109.148 127.23 109.156 127.203C109.169 127.164 108.03 127.285 107.522 127.322C107.594 127.305 107.837 127.265 107.838 127.256C107.861 127.155 108.055 127.019 108.285 126.888C108.391 126.828 109.916 126.51 107.35 126.885C106.898 126.931 107.919 126.675 107.931 126.652C107.944 126.628 107.481 126.673 107.472 126.657C107.445 126.609 107.772 126.53 107.362 126.52C107.255 126.517 106.707 126.573 106.712 126.563C106.719 126.55 107.246 126.467 107.277 126.447C107.348 126.401 107.166 126.36 107.253 126.313C107.27 126.305 107.733 126.24 107.877 126.211C108.438 126.1 108.384 126.068 106.904 126.274C107.739 126.116 106.967 126.178 106.914 126.144C106.806 126.068 107.131 125.866 106.498 125.872C106.1 125.877 105.436 125.967 105.999 125.82C106.124 125.788 106.294 125.749 106.443 125.711C106.793 125.617 108.014 125.41 106.532 125.576C106.908 125.474 106.632 125.475 107.89 125.266C107.587 125.302 107.283 125.339 106.979 125.375C106.971 125.37 106.963 125.365 106.954 125.36C107.243 125.319 107.532 125.278 107.821 125.237C107.893 125.183 106.697 125.289 106.701 125.252C106.706 125.185 107.146 124.969 107.528 124.855C107.731 124.797 107.112 124.879 108.382 124.689C108.293 124.695 108.204 124.7 108.114 124.705C107.835 124.739 107.556 124.772 107.276 124.805C107.26 124.766 107.686 124.66 107.677 124.623C107.658 124.555 106.878 124.559 107.372 124.418C107.496 124.383 108.068 124.284 108.06 124.269C108.048 124.247 107.093 124.367 107.07 124.338C107.034 124.289 108.129 124.039 108.037 123.998C108.01 123.985 107.654 124.027 107.615 124.022C107.447 124.001 107.471 123.962 106.916 123.992C107.825 123.826 109.004 123.665 110.193 123.491C111.09 123.361 113.168 123.046 113.954 122.933C114.507 122.856 115.219 122.769 115.827 122.682C116.321 122.674 115.788 122.765 114.939 122.929C114.984 123.004 115.029 123.083 115.074 123.159C114.743 123.212 114.412 123.265 114.081 123.318C114.08 123.318 114.079 123.318 114.079 123.318C113.699 123.399 114.557 123.297 114.753 123.288C116.634 123.198 115.223 123.716 115.037 123.921C114.997 123.965 115.462 124.029 114.926 124.13C114.786 124.155 114.274 124.227 114.253 124.237C114.566 124.258 114.88 124.282 115.193 124.308C114.415 124.546 115.091 124.596 115.232 124.715C115.613 125.035 116.065 125.339 115.991 125.714C115.975 125.785 116.371 125.821 116.132 125.923C116.034 125.965 115.213 126.089 115.831 126.042C115.609 126.072 115.388 126.102 115.166 126.133C115.438 126.129 115.945 126.081 116.001 126.111C116.047 126.135 116.091 126.212 116.01 126.251C115.97 126.271 115.555 126.321 115.559 126.334C115.569 126.357 116.147 126.326 116.151 126.357C116.155 126.384 115.684 126.495 115.756 126.508C116.012 126.552 116.731 126.543 116.552 126.65C116.502 126.679 115.968 126.781 115.984 126.786C116.017 126.796 116.54 126.73 116.608 126.73C116.953 126.732 116.344 126.892 116.325 126.94C116.265 127.101 116.514 127.234 116.439 127.396C116.391 127.501 116.504 127.647 116.124 127.787C116.041 127.817 115.469 127.889 115.471 127.905C115.474 127.923 115.861 127.881 115.894 127.885C116.12 127.914 116.527 127.987 116.14 128.094C116.065 128.114 115.618 128.181 115.621 128.187C115.621 128.191 115.928 128.157 115.96 128.162C116.248 128.211 116.079 128.301 115.985 128.398C115.808 128.585 116.402 128.7 116.117 128.91C116.055 128.956 115.173 129.1 115.182 129.104C115.202 129.113 115.799 129.041 115.949 129.045C116.443 129.059 115.821 129.246 116.129 129.28C116.281 129.296 117.044 129.245 117.217 129.259C117.354 129.27 117.067 129.378 117.4 129.346C117.602 129.326 118.247 129.244 118.329 129.242ZM108.17 129.62C109.201 129.488 108.338 129.549 107.787 129.642C107.663 129.664 107.903 129.655 108.17 129.62ZM109.625 126.886C109.331 126.926 109.036 126.966 108.742 127.006C108.866 126.996 108.989 126.986 109.112 126.977C109.289 126.949 109.465 126.922 109.641 126.894C109.636 126.891 109.63 126.888 109.625 126.886ZM69.3089 188.468C69.3974 188.446 69.2171 188.8 69.2561 188.856C69.4171 189.095 69.3327 189.368 69.4386 189.633C69.6243 190.058 70.6046 190.036 69.3947 192.442C69.3947 192.442 69.3947 192.442 69.3947 192.442C69.3825 192.466 69.3701 192.489 69.3575 192.513C69.1198 192.97 68.7659 193.42 68.4756 193.925C68.1854 194.43 66.4397 197.764 66.1282 197.835C65.6821 197.913 65.5187 196.678 65.372 196.628C65.2607 196.591 64.9548 196.798 64.7986 196.764C64.2953 196.655 64.2551 196.314 63.3561 196.798C63.5172 196.304 63.6915 195.819 63.8722 195.337C63.5665 195.384 63.7347 194.686 63.6226 194.638C63.5278 194.597 63.2328 194.855 63.1398 194.799C63.036 194.74 63.172 194.306 62.9736 194.215C62.6503 194.065 61.929 194.773 61.6859 194.726C61.4311 194.674 61.5576 194.044 61.1178 194.117C61.0166 194.174 60.9151 194.231 60.8135 194.288C60.6587 194.487 60.5042 194.687 60.35 194.887C60.1672 194.875 60.4754 194.457 60.3917 194.364C60.2921 194.253 59.8978 194.551 59.8255 194.478C59.7657 194.417 59.9611 194.061 59.8676 194.004C59.7331 193.919 59.3613 194.346 59.2266 194.362C59.1743 194.369 58.5132 194.152 58.4883 194.132C58.2876 193.962 58.8177 193.398 58.7228 193.205C58.4499 192.665 57.6012 192.685 57.0664 192.466C56.8293 192.37 56.6924 192.161 56.6248 191.909C58.3127 190.813 58.8861 189.175 56.8358 191.516C56.9787 191.025 56.2495 191.47 56.1841 191.193C56.1437 191.014 56.3869 190.645 56.226 190.488C55.9409 190.215 54.7481 190.722 56.2966 189.146C55.6988 189.072 56.0219 188.239 54.4719 189.431C54.3014 189.421 54.9569 188.418 54.9834 188.213C54.9908 188.156 54.9732 188.023 54.9415 187.859C54.8285 187.43 54.6528 186.813 54.5892 186.702C54.4963 186.546 54.3239 186.282 54.0971 186.27C53.8197 186.26 52.1201 187.367 53.7994 185.67C53.413 185.471 53.3825 185.313 53.4003 184.861C53.4039 184.779 53.688 184.573 53.667 184.542C53.6235 184.48 53.3354 184.518 53.2316 184.42C53.0605 184.259 53.6077 183.746 52.6788 184.385C52.437 184.361 52.1945 184.333 51.9515 184.302C52.1061 184.14 52.2615 183.978 52.4177 183.818C52.1736 183.874 51.9281 183.928 51.6831 183.982C53.1224 183.211 52.0094 183.23 51.3005 183.867C51.4346 183.434 51.5778 183.007 51.7295 182.587C53.3659 181.719 51.615 181.934 50.7495 182.45C50.7348 182.419 50.7201 182.388 50.7055 182.358C51.003 181.867 50.5208 181.811 50.6571 181.34C50.7963 180.873 50.9751 180.825 51.6984 180.362C51.6198 180.311 51.5415 180.26 51.4632 180.207C49.1601 180.795 52.8734 179.195 50.9481 179.262C52.2056 178.47 51.2899 178.275 50.7376 178.082C50.6736 178.06 50.4075 178.162 50.3043 178.139C50.0544 178.081 50.2691 177.608 49.4111 177.939C49.6154 177.725 49.8221 177.515 50.0302 177.307C49.8381 177.266 49.646 177.225 49.4537 177.182C49.1829 177.277 48.9121 177.372 48.6412 177.468C49.4944 176.944 49.0339 176.756 49.2047 176.526C49.2396 176.48 49.6135 176.35 49.6854 176.222C49.7712 176.072 49.5936 175.901 49.6712 175.734C49.2366 175.815 48.8016 175.893 48.3662 175.97C48.0639 175.797 49.1476 175.378 49.193 175.214C49.2 175.185 48.9877 174.75 48.9574 174.732C48.7126 174.582 47.7744 174.902 47.8191 174.248C47.8279 174.132 48.1361 173.96 48.1249 173.862C48.1053 173.689 47.2277 173.36 46.5218 173.482C47.3407 173.06 46.8588 172.591 47.0759 172.369C47.1429 172.303 47.6975 172.17 47.7841 171.995C47.8549 171.853 47.3422 171.631 47.3859 171.459C47.4342 171.276 47.8934 171.127 47.9124 171.048C47.93 170.973 47.5379 170.982 47.5221 170.887C47.4792 170.589 48.044 170.212 48.0154 169.979C47.9754 169.643 46.7972 169.533 46.2498 169.322C46.3121 169.239 46.5443 169.132 46.5352 169.057C46.4301 168.127 46.5102 167.062 46.6627 166.119C46.7288 165.677 48.1926 164.505 45.6307 164.993C45.1631 164.874 46.13 163.712 46.1366 163.51C46.1403 163.304 45.6673 163.166 45.6523 163.003C45.6081 162.513 45.9285 162.159 45.506 161.576C45.3957 161.425 44.8408 161.273 44.8451 161.181C44.8516 161.069 45.3818 160.94 45.4131 160.797C45.4829 160.457 45.3024 159.827 45.3954 159.501C45.4134 159.442 45.8813 159.422 46.0277 159.338C46.5998 159.013 46.5547 158.651 45.0603 158.697C45.9131 158.285 45.1475 157.884 45.111 157.488C45.0337 156.649 45.4562 155.163 44.8821 154.4C44.5187 153.919 43.8489 153.874 44.4793 153.243C44.6194 153.104 44.8042 152.97 44.9724 152.803C45.3683 152.409 46.6368 152.151 45.1858 151.679C45.6185 151.251 45.3877 150.849 46.6947 150.653C46.3956 150.577 46.0966 150.501 45.7977 150.424C45.797 150.366 45.7963 150.308 45.7957 150.25C46.0875 150.267 46.3793 150.284 46.6711 150.302C46.7978 149.909 45.6759 149.241 45.7329 148.894C45.8236 148.308 46.5155 146.893 47.0008 146.419C47.2564 146.168 46.6444 146.043 47.9378 146.106C47.8612 146.027 47.7845 145.949 47.7084 145.868C47.4389 145.777 47.1697 145.686 46.9005 145.595C46.9578 145.219 47.4708 144.864 47.5358 144.516C47.6527 143.878 47.1028 142.756 47.7508 142.22C47.9133 142.087 48.525 142.022 48.5559 141.866C48.6016 141.638 47.6799 141.355 47.7345 141.061C47.8344 140.535 49.1561 139.916 49.2092 139.42C49.2247 139.274 48.899 139.111 48.8899 139.004C48.8487 138.554 48.9729 138.24 48.5666 137.68C49.5783 137.533 50.7013 137.935 51.8849 138.176C52.7789 138.357 54.8648 138.737 55.6303 138.951C56.1686 139.101 56.8194 139.419 57.4146 139.575C57.7455 140.141 57.1779 140.148 56.2427 140.251C56.0782 140.907 55.9214 141.586 55.7824 142.246C55.4425 142.22 55.1024 142.196 54.762 142.173C54.7613 142.172 54.7606 142.172 54.7599 142.172C54.3177 142.335 55.1257 142.661 55.2807 142.848C56.76 144.603 54.793 146.865 54.3484 148.349C54.2485 148.669 54.5396 149.773 53.9711 149.922C53.8226 149.96 53.3084 149.906 53.2775 149.965C53.5064 150.555 53.742 151.144 53.9849 151.726C53.058 152.762 53.6113 154.011 53.6614 155.148C53.7961 158.249 54.2068 161.252 54.3151 164.206C54.3351 164.782 54.7893 165.457 54.6049 166.037C54.5285 166.278 53.716 166.477 54.3682 166.704C54.1468 166.736 53.9253 166.767 53.7039 166.798C54.0059 167.032 54.533 167.134 54.626 167.421C54.7026 167.665 54.8363 168.308 54.7899 168.541C54.7667 168.661 54.3476 168.689 54.3679 168.795C54.4057 168.977 55.0432 169.259 55.0901 169.502C55.1315 169.722 54.7359 170.195 54.8408 170.353C55.2136 170.924 56.0605 171.411 56.0405 172.085C56.0335 172.272 55.5719 172.637 55.6025 172.69C55.6629 172.79 56.1786 172.68 56.2638 172.732C56.6936 172.998 56.2612 173.724 56.3545 174.086C56.6484 175.248 57.3178 176.327 57.7185 177.396C57.9712 178.088 58.6134 179.077 58.6263 179.837C58.629 180.003 58.1202 180.277 58.1861 180.381C58.2598 180.497 58.627 180.347 58.6871 180.382C59.1071 180.632 59.9575 181.141 59.8898 181.688C59.8759 181.794 59.558 182.12 59.5886 182.155C59.6035 182.174 59.8763 182.021 59.9462 182.056C60.2779 182.225 60.4776 182.427 60.6475 182.661C60.8364 182.91 60.9881 183.172 61.1896 183.465C62.0068 184.654 63.543 185.468 64.3319 186.729C64.5023 187.001 64.0183 187.784 64.056 187.81C64.1381 187.867 64.6084 187.489 64.8541 187.526C65.6588 187.646 65.8258 188.705 66.4715 188.892C66.7867 188.983 67.5928 188.683 67.901 188.728C68.1514 188.769 68.3332 189.312 68.6144 189.107C68.7843 188.984 69.2101 188.493 69.3089 188.468ZM56.4319 189.973C57.2257 189.3 56.265 189.534 55.9781 190.045C55.9138 190.161 56.2262 190.148 56.4319 189.973ZM48.1674 167.589C47.8735 167.631 47.5796 167.674 47.2858 167.716C47.4168 167.766 47.5478 167.815 47.6789 167.864C47.8509 167.803 48.0231 167.744 48.1953 167.685C48.186 167.653 48.1767 167.621 48.1674 167.589ZM28.7735 167.535C28.8153 167.606 28.4521 167.456 28.4105 167.486C28.2344 167.609 27.9649 167.537 27.7452 167.616C27.4085 167.744 27.53 168.634 25.0973 167.463C25.0972 167.463 25.0972 167.463 25.0971 167.463C25.0733 167.451 25.0492 167.439 25.0248 167.427C24.5624 167.201 24.0898 166.887 23.5724 166.619C23.0549 166.351 19.6721 164.706 19.5448 164.487C19.385 164.179 20.4618 164.2 20.4722 164.093C20.4798 164.016 20.2212 163.775 20.2128 163.664C20.1829 163.312 20.4727 163.308 19.8036 162.61C20.2814 162.762 20.7572 162.918 21.2311 163.079C21.1055 162.846 21.7659 163.002 21.7751 162.919C21.7841 162.849 21.4748 162.613 21.4958 162.545C21.5178 162.467 21.9343 162.589 21.9556 162.438C21.9927 162.191 21.1678 161.608 21.1387 161.417C21.1096 161.219 21.6935 161.331 21.5005 160.982C21.4213 160.901 21.3424 160.819 21.2635 160.737C21.0461 160.61 20.8286 160.484 20.6108 160.357C20.5678 160.212 21.0168 160.467 21.0736 160.401C21.1407 160.323 20.7687 160.002 20.8106 159.946C20.8453 159.9 21.2108 160.059 21.233 159.985C21.2672 159.878 20.7915 159.572 20.739 159.463C20.7181 159.42 20.7192 158.882 20.7288 158.862C20.8191 158.699 21.4536 159.142 21.5933 159.066C21.9766 158.855 21.7313 158.144 21.7712 157.707C21.7889 157.512 21.9316 157.402 22.1311 157.35C23.5275 158.775 25.0788 159.298 22.5243 157.534C22.9821 157.666 22.4104 157.043 22.6308 156.995C22.7739 156.965 23.1554 157.177 23.2455 157.049C23.4019 156.822 22.6662 155.8 24.4063 157.159C24.3173 156.661 25.1085 156.968 23.7082 155.609C23.6736 155.467 24.6905 156.066 24.8694 156.101C25.039 156.131 25.8756 155.977 25.9707 155.916C26.0667 155.853 26.2154 155.736 26.1507 155.554C26.07 155.328 24.6382 153.9 26.516 155.348C26.5365 155.044 26.6448 155.026 26.9961 155.052C27.0597 155.057 27.3187 155.294 27.3348 155.277C27.3674 155.242 27.235 155.005 27.2704 154.921C27.3287 154.784 27.9187 155.234 27.0905 154.47C27.0172 154.272 26.9445 154.075 26.8726 153.877C27.0524 154.003 27.2321 154.13 27.4116 154.257C27.2748 154.057 27.1384 153.857 27.0024 153.657C28.1368 154.83 27.6858 153.911 26.9347 153.342C27.3041 153.445 27.6723 153.551 28.0396 153.658C29.3452 154.974 28.4647 153.531 27.726 152.845C27.7416 152.832 27.7572 152.818 27.7727 152.804C28.2494 153.023 28.081 152.622 28.4705 152.701C28.8594 152.78 28.9718 152.923 29.6181 153.483C29.62 153.413 29.622 153.342 29.6242 153.272C28.1792 151.415 30.9747 154.34 30.049 152.74C31.1755 153.694 30.8931 152.894 30.7595 152.406C30.7439 152.35 30.5476 152.143 30.5138 152.054C30.4343 151.837 30.8531 151.946 30.2158 151.283C30.4569 151.421 30.6977 151.56 30.938 151.699C30.8709 151.533 30.8041 151.366 30.7375 151.199C30.541 150.99 30.3446 150.78 30.1481 150.571C30.9137 151.195 30.8083 150.779 31.0428 150.88C31.09 150.901 31.3626 151.189 31.4822 151.225C31.6232 151.269 31.6444 151.09 31.7927 151.122C31.5206 150.776 31.249 150.43 30.9774 150.084C30.9332 149.801 31.7562 150.618 31.8845 150.622C31.9071 150.623 32.0745 150.358 32.0701 150.329C32.0372 150.094 31.347 149.388 31.7781 149.284C31.8553 149.266 32.1249 149.483 32.1805 149.451C32.2788 149.396 32.0119 148.597 31.5575 148.044C32.2528 148.624 32.2794 148.112 32.53 148.237C32.6065 148.276 32.9882 148.699 33.1414 148.726C33.2658 148.749 33.1189 148.271 33.245 148.263C33.3801 148.255 33.7228 148.592 33.7808 148.587C33.8353 148.581 33.6135 148.262 33.6614 148.223C33.8153 148.108 34.3524 148.467 34.4737 148.378C34.6501 148.251 34.0535 147.255 33.8654 146.748C33.9483 146.775 34.1413 146.933 34.1792 146.904C34.6553 146.548 35.301 146.285 35.9132 146.099C36.1984 146.01 37.7027 146.791 35.9281 144.891C35.7163 144.477 36.9149 144.854 37.0272 144.785C37.1399 144.715 36.9315 144.286 37.0085 144.216C37.2419 144.004 37.6184 144.133 37.6699 143.578C37.6822 143.433 37.4259 142.934 37.4761 142.903C37.5374 142.867 37.9254 143.24 38.0179 143.21C38.2363 143.137 38.4459 142.753 38.6677 142.698C38.709 142.689 39.0052 143.051 39.1375 143.134C39.6538 143.458 39.8099 143.276 38.8692 142.115C39.6001 142.623 39.3292 141.857 39.5004 141.668C39.8719 141.265 40.8448 140.974 40.8532 140.189C40.8546 139.696 40.454 139.159 41.1425 139.372C41.2954 139.419 41.4721 139.504 41.657 139.559C42.0921 139.688 43.0165 140.547 42.3128 139.216C42.784 139.354 42.8131 138.996 43.7393 139.902C43.5834 139.637 43.4277 139.373 43.2721 139.108C43.298 139.08 43.324 139.053 43.3499 139.025C43.5283 139.256 43.7065 139.487 43.8848 139.719C44.1454 139.63 43.7266 138.458 43.9134 138.338C44.2347 138.128 45.2851 137.967 45.8077 138.087C46.0824 138.152 45.7388 137.63 46.5513 138.631C46.5356 138.533 46.5199 138.436 46.5042 138.339C46.3677 138.091 46.2312 137.844 46.0949 137.597C46.2873 137.452 46.7672 137.655 46.9597 137.521C47.3048 137.278 47.3987 136.286 48.0373 136.476C48.1964 136.525 48.6234 136.938 48.7048 136.877C48.8231 136.79 48.3287 135.963 48.4847 135.84C48.7577 135.628 49.8621 136.249 50.091 136.003C50.1568 135.933 50.0024 135.607 50.0364 135.54C50.1761 135.258 50.3736 135.169 50.3117 134.556C51.038 135.192 51.6387 136.22 52.3395 137.2C52.8692 137.938 54.124 139.634 54.5579 140.299C54.8634 140.766 55.1806 141.414 55.5217 141.925C55.5263 142.497 55.1366 142.103 54.4635 141.504C54.0902 141.776 53.7063 142.06 53.3406 142.335C53.1245 142.075 52.9079 141.816 52.6909 141.557C52.6905 141.556 52.6902 141.556 52.6898 141.555C52.329 141.327 52.7312 142.095 52.7555 142.313C53.0028 144.384 50.6914 144.162 49.7168 144.581C49.5128 144.666 49.1784 145.449 48.7401 145.092C48.6271 144.998 48.3214 144.581 48.2745 144.586C48.1476 145.051 48.0192 145.518 47.8897 145.988C46.8041 145.776 46.5404 146.787 45.9939 147.344C44.506 148.859 43.1312 150.435 41.47 151.623C41.1485 151.852 41.0063 152.469 40.5521 152.521C40.3628 152.544 39.7798 151.949 40.0133 152.559C39.8683 152.389 39.7233 152.219 39.5783 152.049C39.6087 152.375 39.8453 152.841 39.7206 153.013C39.6143 153.158 39.2861 153.48 39.114 153.515C39.0257 153.535 38.7767 153.198 38.7214 153.248C38.6285 153.336 38.7991 153.951 38.6672 154.066C38.5475 154.169 38.0295 153.982 37.9832 154.115C37.8136 154.592 37.9325 155.44 37.4597 155.608C37.3283 155.653 36.8424 155.362 36.8225 155.4C36.7851 155.477 37.1213 155.882 37.1279 155.968C37.1605 156.4 36.4326 156.218 36.2222 156.38C35.5399 156.902 35.0454 157.691 34.3795 158.212C33.9541 158.545 33.4049 159.233 32.7798 159.314C32.645 159.331 32.2482 158.912 32.1863 158.977C32.1178 159.049 32.3631 159.356 32.3544 159.411C32.2948 159.792 32.1054 160.574 31.6143 160.523C31.5198 160.514 31.1576 160.24 31.1358 160.267C31.1242 160.28 31.3267 160.515 31.3141 160.576C31.1992 161.121 30.8373 161.259 30.4558 161.54C29.714 162.095 29.5205 163.241 28.7287 163.778C28.5556 163.896 27.756 163.475 27.7459 163.504C27.7233 163.565 28.1839 163.953 28.2317 164.139C28.3887 164.751 27.5451 164.84 27.5867 165.324C27.6028 165.567 28.104 166.197 28.1542 166.434C28.1927 166.624 27.7687 166.743 28.0224 166.972C28.1764 167.109 28.7254 167.457 28.7735 167.535ZM23.7384 157.24C24.5189 157.927 24.0687 157.117 23.5591 156.857C23.4439 156.799 23.5355 157.062 23.7384 157.24ZM35.9525 147.791C35.7599 147.565 35.5672 147.339 35.3746 147.113C35.4213 147.235 35.468 147.357 35.5149 147.479C35.6477 147.601 35.7805 147.722 35.9131 147.844C35.9262 147.826 35.9394 147.809 35.9525 147.791ZM107.033 192.789C107.01 192.901 106.666 192.681 106.572 192.731C106.178 192.938 105.883 192.829 105.482 192.952C104.898 193.136 103.799 194.581 102.232 192.371C102.232 192.371 102.232 192.371 102.232 192.37C102.216 192.349 102.201 192.327 102.185 192.305C101.891 191.882 101.674 191.346 101.349 190.862C101.024 190.378 98.8145 187.334 98.8263 187.064C98.8593 186.697 99.9149 187.11 99.9979 186.992C100.053 186.912 99.9333 186.573 99.9876 186.454C100.161 186.07 100.474 186.139 100.147 185.209C100.559 185.504 100.974 185.796 101.393 186.085C101.385 185.797 102.008 186.115 102.07 186.016C102.119 185.935 101.907 185.607 101.966 185.532C102.03 185.448 102.426 185.657 102.528 185.483C102.697 185.198 102.064 184.409 102.113 184.192C102.164 183.968 102.755 184.171 102.69 183.744C102.637 183.642 102.583 183.54 102.529 183.439C102.341 183.27 102.153 183.102 101.966 182.933C101.973 182.766 102.363 183.106 102.45 183.036C102.552 182.955 102.263 182.556 102.326 182.498C102.379 182.451 102.72 182.665 102.77 182.582C102.844 182.463 102.427 182.08 102.404 181.955C102.397 181.905 102.549 181.313 102.566 181.289C102.707 181.114 103.274 181.641 103.45 181.557C103.937 181.32 103.839 180.509 103.97 180.012C104.029 179.789 104.205 179.658 104.433 179.586C105.7 181.144 107.353 181.594 104.834 179.769C105.319 179.884 104.792 179.214 105.039 179.14C105.2 179.093 105.593 179.293 105.714 179.13C105.928 178.835 105.214 177.773 107.008 179.062C106.967 178.488 107.833 178.671 106.369 177.377C106.337 177.221 107.431 177.695 107.633 177.686C107.824 177.682 108.773 177.252 108.882 177.141C108.991 177.035 109.163 176.837 109.09 176.639C109.003 176.388 107.368 175.198 109.499 176.255C109.514 175.878 109.628 175.823 110.023 175.708C110.094 175.688 110.396 175.866 110.413 175.839C110.448 175.782 110.285 175.551 110.319 175.434C110.373 175.243 111.064 175.523 110.083 174.968C109.984 174.764 109.885 174.56 109.783 174.359C109.993 174.43 110.203 174.5 110.414 174.57C110.242 174.394 110.068 174.219 109.893 174.046C111.277 174.914 110.667 174.031 109.773 173.713C110.183 173.669 110.594 173.618 111.004 173.56C112.632 174.45 111.442 173.175 110.515 172.774C110.528 172.751 110.541 172.727 110.555 172.704C111.102 172.71 110.832 172.343 111.254 172.221C111.676 172.097 111.828 172.196 112.643 172.463C112.627 172.378 112.611 172.294 112.595 172.21C110.592 170.952 114.299 172.588 112.878 171.316C114.321 171.665 113.787 170.896 113.471 170.443C113.434 170.39 113.165 170.297 113.098 170.221C112.937 170.039 113.381 169.859 112.501 169.59C112.785 169.575 113.071 169.551 113.357 169.526C113.222 169.394 113.086 169.264 112.948 169.137C112.672 169.059 112.396 168.98 112.12 168.901C113.106 169.013 112.814 168.652 113.071 168.586C113.124 168.572 113.509 168.664 113.634 168.609C113.782 168.544 113.709 168.345 113.854 168.258C113.436 168.119 113.016 167.983 112.596 167.852C112.402 167.62 113.549 167.781 113.66 167.679C113.681 167.663 113.664 167.267 113.641 167.244C113.472 167.047 112.494 166.954 112.756 166.543C112.802 166.47 113.148 166.441 113.169 166.37C113.208 166.239 112.458 165.815 111.742 165.771C112.644 165.676 112.282 165.293 112.536 165.19C112.614 165.156 113.185 165.133 113.302 165.022C113.397 164.927 112.928 164.739 112.994 164.635C113.033 164.574 113.186 164.52 113.323 164.474C113.443 164.423 113.552 164.382 113.564 164.347C113.588 164.278 113.197 164.259 113.19 164.167C113.172 163.881 113.762 163.547 113.749 163.325C113.73 162.996 112.559 162.827 112.023 162.616C112.09 162.541 112.326 162.446 112.32 162.374C112.256 161.491 112.349 160.461 112.488 159.551C112.55 159.118 113.971 157.918 111.429 158.498C110.96 158.402 111.874 157.246 111.865 157.041C111.856 156.843 111.375 156.743 111.35 156.588C111.272 156.116 111.565 155.751 111.092 155.225C110.968 155.089 110.402 154.999 110.398 154.912C110.394 154.806 110.909 154.627 110.925 154.487C110.961 154.15 110.712 153.567 110.764 153.243C110.775 153.184 111.237 153.106 111.372 153.006C111.898 152.614 111.805 152.268 110.331 152.516C111.121 152.005 110.306 151.721 110.212 151.352C110.015 150.565 110.177 149.07 109.466 148.453C109.017 148.065 108.354 148.162 108.845 147.443C108.954 147.284 109.107 147.119 109.237 146.926C109.541 146.473 110.721 145.942 109.202 145.821C109.527 145.319 109.209 144.995 110.43 144.495C110.122 144.495 109.813 144.494 109.505 144.494C109.49 144.439 109.476 144.385 109.461 144.33C109.748 144.276 110.035 144.221 110.322 144.166C110.349 143.759 109.094 143.409 109.059 143.071C109 142.508 109.273 140.993 109.593 140.407C109.763 140.097 109.142 140.164 110.394 139.833C110.297 139.781 110.2 139.729 110.103 139.677C109.819 139.673 109.535 139.67 109.251 139.667C109.192 139.303 109.569 138.817 109.519 138.468C109.427 137.839 108.535 136.994 108.955 136.286C109.061 136.11 109.61 135.837 109.583 135.683C109.544 135.456 108.582 135.525 108.526 135.24C108.433 134.752 109.419 133.683 109.271 133.218C109.228 133.081 108.864 133.064 108.814 132.973C108.599 132.6 108.581 132.249 107.983 131.945C108.841 131.405 110.026 131.283 111.2 130.996C112.085 130.778 114.129 130.205 114.911 130.059C115.46 129.956 116.186 129.971 116.789 129.848C117.34 130.271 116.835 130.572 116.031 131.079C116.165 131.825 116.299 132.571 116.431 133.309C116.108 133.421 115.785 133.533 115.461 133.646C115.461 133.646 115.46 133.646 115.459 133.646C115.114 133.99 115.985 133.99 116.2 134.121C118.257 135.359 117.184 138.469 117.187 140.132C117.188 140.487 117.785 141.577 117.276 141.887C117.144 141.967 116.634 142.051 116.62 142.121C117.002 142.678 117.383 143.23 117.765 143.786C117.126 145.111 117.946 146.29 118.226 147.507C118.983 150.8 119.802 154.053 120.075 157.361C120.127 158.003 120.607 158.764 120.432 159.417C120.36 159.692 119.549 159.897 120.202 160.163C119.981 160.193 119.759 160.222 119.537 160.251C119.84 160.522 120.368 160.658 120.458 160.983C120.533 161.264 120.65 161.997 120.593 162.267C120.566 162.403 120.145 162.4 120.16 162.521C120.19 162.724 120.813 163.109 120.844 163.395C120.853 163.473 120.819 163.571 120.77 163.674C120.667 163.997 120.472 164.346 120.53 164.526C120.829 165.432 121.506 166.523 121.205 167.485C121.121 167.756 120.538 168.016 120.541 168.096C120.549 168.257 121.061 168.386 121.111 168.506C121.361 169.123 120.572 169.844 120.422 170.33C119.937 171.955 119.555 173.675 118.813 175.103C118.353 176.01 117.677 177.531 116.879 178.121C116.708 178.248 116.233 177.917 116.153 178.056C116.063 178.211 116.35 178.492 116.334 178.581C116.237 179.191 115.874 180.505 115.233 180.739C115.112 180.783 114.695 180.593 114.662 180.645C114.645 180.67 114.86 180.902 114.831 181.001C114.566 181.882 114.043 182.298 113.448 182.909C112.313 184.077 111.532 185.889 110.13 186.924C109.825 187.149 109.006 186.71 108.978 186.753C108.913 186.846 109.294 187.316 109.238 187.586C109.045 188.481 107.851 188.745 107.519 189.458C107.355 189.811 107.492 190.715 107.327 191.084C107.197 191.379 106.48 191.598 106.596 191.937C106.666 192.142 107.055 192.665 107.033 192.789ZM106.239 179.281C107.016 179.973 106.633 179.074 106.092 178.856C105.971 178.806 106.037 179.102 106.239 179.281ZM113.992 160.98C113.698 161.019 113.403 161.058 113.109 161.097C113.239 161.147 113.37 161.198 113.5 161.248C113.673 161.191 113.846 161.135 114.019 161.078C114.01 161.045 114.001 161.013 113.992 160.98ZM134.456 121.754C134.389 121.712 134.781 121.718 134.806 121.682C134.916 121.53 135.19 121.501 135.355 121.367C135.609 121.126 135.101 120.675 137.796 120.556C137.796 120.556 137.796 120.556 137.796 120.556C137.823 120.555 137.849 120.554 137.876 120.553C138.391 120.53 138.955 120.573 139.538 120.569C140.12 120.565 143.881 120.43 144.096 120.61C144.382 120.878 143.4 121.419 143.435 121.53C143.46 121.614 143.795 121.737 143.848 121.845C144.017 122.206 143.753 122.341 144.639 122.761C144.138 122.832 143.638 122.881 143.137 122.929C143.341 123.113 142.669 123.24 142.69 123.328C142.707 123.404 143.082 123.51 143.086 123.59C143.093 123.682 142.659 123.736 142.693 123.896C142.745 124.159 143.722 124.416 143.816 124.594C143.912 124.782 143.319 124.914 143.617 125.194C143.719 125.246 143.82 125.297 143.922 125.349C144.171 125.391 144.419 125.432 144.668 125.472C144.755 125.606 144.244 125.528 144.211 125.621C144.171 125.731 144.628 125.913 144.605 125.992C144.586 126.054 144.186 126.035 144.188 126.121C144.188 126.246 144.739 126.373 144.823 126.467C144.857 126.503 145.015 127.07 145.01 127.097C144.969 127.308 144.225 127.094 144.11 127.232C143.797 127.605 144.232 128.251 144.299 128.741C144.329 128.961 144.215 129.13 144.029 129.261C142.297 128.261 140.637 128.258 143.594 129.209C143.108 129.235 143.822 129.694 143.613 129.822C143.477 129.904 143.049 129.813 142.985 129.983C142.877 130.281 143.826 131.13 141.796 130.259C141.985 130.764 141.133 130.67 142.801 131.687C142.859 131.834 141.717 131.513 141.529 131.528C141.352 131.55 140.524 131.957 140.437 132.042C140.35 132.133 140.213 132.302 140.305 132.479C140.422 132.694 142.087 133.845 139.959 132.793C139.977 133.122 139.865 133.172 139.501 133.225C139.435 133.235 139.14 133.046 139.126 133.067C139.096 133.111 139.262 133.331 139.234 133.428C139.188 133.589 138.528 133.246 139.467 133.869C139.562 134.065 139.658 134.258 139.751 134.454C139.551 134.36 139.352 134.265 139.153 134.169C139.314 134.352 139.474 134.536 139.633 134.721C138.348 133.716 138.897 134.598 139.728 135.046C139.329 135.021 138.938 134.981 138.546 134.939C137.09 133.792 138.109 135.154 138.92 135.752C138.905 135.77 138.888 135.788 138.872 135.806C138.359 135.661 138.555 136.061 138.138 136.047C137.723 136.03 137.598 135.896 136.899 135.403C136.901 135.477 136.902 135.551 136.902 135.625C138.476 137.38 135.46 134.685 136.468 136.248C135.27 135.384 135.587 136.179 135.722 136.683C135.738 136.741 135.944 136.938 135.979 137.029C136.062 137.249 135.62 137.177 136.283 137.814C136.029 137.693 135.776 137.571 135.524 137.446C135.591 137.616 135.656 137.787 135.721 137.958C135.923 138.162 136.125 138.366 136.327 138.57C135.529 137.983 135.628 138.41 135.381 138.322C135.332 138.304 135.055 138.021 134.93 137.991C134.782 137.954 134.751 138.144 134.595 138.12C134.865 138.468 135.134 138.817 135.402 139.166C135.427 139.467 134.603 138.65 134.467 138.652C134.443 138.653 134.246 138.94 134.247 138.971C134.264 139.216 134.943 139.936 134.466 140.065C134.381 140.087 134.112 139.867 134.049 139.902C133.94 139.962 134.136 140.802 134.558 141.38C133.869 140.786 133.78 141.323 133.522 141.195C133.444 141.155 133.089 140.709 132.927 140.68C132.81 140.658 132.872 141.064 132.783 141.153C132.771 141.164 132.758 141.17 132.743 141.172C132.58 141.189 132.259 140.83 132.191 140.838C132.126 140.845 132.309 141.191 132.243 141.235C132.032 141.367 131.504 140.971 131.347 141.059C131.112 141.19 131.496 142.297 131.526 142.867C131.434 142.835 131.259 142.652 131.202 142.681C130.476 143.052 129.511 143.262 128.652 143.294C128.212 143.335 126.954 142.049 127.814 144.506C127.759 144.999 126.504 144.177 126.319 144.173C126.123 144.183 126.015 144.662 125.854 144.684C125.366 144.746 125.021 144.428 124.427 144.823C124.272 144.925 124.077 145.468 123.979 145.456C123.862 145.441 123.776 144.901 123.639 144.856C123.31 144.755 122.657 144.843 122.356 144.691C122.302 144.662 122.368 144.199 122.318 144.04C122.126 143.421 121.809 143.391 121.504 144.855C121.307 143.933 120.754 144.576 120.364 144.495C119.538 144.335 118.415 143.432 117.542 143.647C116.981 143.784 116.629 144.359 116.399 143.533C116.351 143.351 116.33 143.131 116.28 142.914C116.155 142.397 116.629 141.213 115.519 142.246C115.427 141.695 114.998 141.703 115.59 140.538C115.37 140.753 115.149 140.967 114.927 141.18C114.885 141.155 114.843 141.13 114.801 141.105C114.978 140.872 115.156 140.64 115.333 140.408C115.138 140.141 114.023 140.751 113.812 140.542C113.455 140.202 112.936 139.001 112.953 138.42C112.957 138.111 112.479 138.513 113.36 137.57C113.261 137.592 113.161 137.613 113.061 137.634C112.828 137.795 112.594 137.954 112.36 138.113C112.158 137.896 112.274 137.351 112.102 137.143C111.785 136.765 110.707 136.618 110.832 135.909C110.863 135.731 111.252 135.273 111.18 135.179C111.075 135.041 110.253 135.545 110.109 135.361C109.86 135.04 110.426 133.835 110.174 133.571C110.098 133.49 109.763 133.627 109.692 133.58C109.393 133.392 109.288 133.141 108.654 133.131C109.31 132.4 110.383 131.878 111.408 131.245C112.179 130.763 113.97 129.648 114.674 129.278C115.167 129.016 115.836 128.751 116.376 128.458C116.928 128.465 116.499 128.809 115.846 129.418C116.082 129.78 116.326 130.128 116.585 130.477C116.322 130.688 116.061 130.903 115.8 131.116C115.799 131.117 115.798 131.117 115.798 131.117C115.565 131.471 116.331 131.066 116.544 131.033C118.561 130.712 118.327 132.808 118.844 133.648C118.949 133.831 119.707 133.948 119.431 134.43C119.358 134.557 119.012 134.941 119.025 134.984C119.485 134.993 119.937 134.978 120.372 134.935C120.38 135.975 121.349 135.834 121.904 135.992C123.515 136.466 124.59 136.179 125.686 136.05C125.916 136.021 126.061 135.567 126.364 135.712C126.489 135.773 126.876 136.511 126.747 135.889C126.843 136.091 126.938 136.293 127.033 136.496C127.043 136.193 126.888 135.702 126.989 135.591C127.076 135.499 127.328 135.314 127.472 135.323C127.544 135.328 127.749 135.693 127.797 135.66C127.877 135.601 127.722 135.01 127.827 134.934C127.88 134.897 128.036 134.958 128.178 135C128.308 135.027 128.425 135.044 128.448 134.987C128.632 134.535 128.524 133.707 128.967 133.581C129.089 133.549 129.562 133.856 129.581 133.82C129.616 133.747 129.286 133.337 129.277 133.255C129.232 132.84 129.931 133.047 130.126 132.895C130.758 132.407 131.158 131.649 131.731 131.122C132.101 130.784 132.517 130.097 133.103 129.952C133.229 129.922 133.685 130.276 133.734 130.207C133.788 130.129 133.496 129.866 133.495 129.813C133.491 129.435 133.505 128.686 133.985 128.657C134.078 128.652 134.486 128.85 134.502 128.82C134.51 128.806 134.264 128.616 134.263 128.556C134.249 128.029 134.56 127.838 134.857 127.492C135.427 126.82 135.281 125.714 135.853 125.004C135.978 124.849 136.868 125.004 136.868 124.973C136.87 124.909 136.31 124.686 136.204 124.529C135.853 124.019 136.609 123.681 136.397 123.252C136.294 123.039 135.595 122.651 135.458 122.467C135.349 122.32 135.692 122.073 135.368 121.97C135.173 121.907 134.531 121.8 134.456 121.754ZM142.449 129.952C141.519 129.488 142.145 130.191 142.711 130.298C142.839 130.32 142.691 130.072 142.449 129.952ZM129.446 141.541C129.575 141.808 129.705 142.075 129.835 142.342C129.833 142.206 129.83 142.071 129.825 141.936C129.719 141.789 129.615 141.641 129.511 141.493C129.49 141.509 129.468 141.525 129.446 141.541ZM95.986 186.091C95.9753 186.012 96.2299 186.31 96.2757 186.304C96.4689 186.284 96.6726 186.473 96.8896 186.511C97.2155 186.567 97.4873 185.75 99.0647 187.944C99.0648 187.944 99.0648 187.944 99.0648 187.944C99.0802 187.965 99.0958 187.987 99.1115 188.009C99.4092 188.43 99.6832 188.925 100.013 189.405C100.343 189.885 102.533 192.944 102.569 193.177C102.605 193.494 101.755 192.911 101.715 192.99C101.686 193.045 101.824 193.365 101.8 193.455C101.722 193.746 101.485 193.603 101.827 194.492C101.486 194.131 101.147 193.768 100.811 193.403C100.847 193.651 100.36 193.197 100.327 193.261C100.299 193.314 100.482 193.656 100.446 193.701C100.405 193.754 100.102 193.452 100.041 193.564C99.9412 193.747 100.448 194.621 100.42 194.79C100.389 194.965 99.9483 194.592 100.005 194.973C100.047 195.077 100.088 195.182 100.13 195.287C100.271 195.495 100.413 195.703 100.555 195.91C100.549 196.051 100.255 195.627 100.19 195.655C100.114 195.688 100.327 196.129 100.278 196.156C100.237 196.177 99.9836 195.872 99.945 195.923C99.8875 195.996 100.19 196.474 100.202 196.589C100.207 196.634 100.06 197.08 100.044 197.094C99.923 197.189 99.5293 196.523 99.3931 196.522C99.0178 196.522 99.0227 197.232 98.8582 197.587C98.7855 197.746 98.6348 197.774 98.4551 197.728C97.7279 195.875 96.6119 194.718 98.1865 197.391C97.8503 197.069 98.1347 197.862 97.9395 197.803C97.8135 197.763 97.5638 197.407 97.45 197.476C97.2526 197.599 97.5379 198.816 96.5295 196.852C96.4493 197.321 95.9028 196.691 96.6187 198.505C96.6001 198.645 95.9552 197.663 95.8199 197.55C95.689 197.447 94.9588 197.192 94.8629 197.199C94.7659 197.208 94.6045 197.24 94.5964 197.428C94.5886 197.659 95.2659 199.564 94.2298 197.434C94.1103 197.687 94.0162 197.65 93.7419 197.461C93.6923 197.427 93.565 197.1 93.5464 197.107C93.5085 197.121 93.5343 197.388 93.4764 197.443C93.3806 197.534 93.0647 196.863 93.462 197.918C93.4508 198.123 93.4377 198.328 93.4234 198.534C93.3235 198.339 93.2241 198.143 93.1253 197.947C93.1633 198.185 93.2004 198.423 93.2365 198.662C92.7497 197.105 92.7796 198.112 93.1739 198.966C92.912 198.699 92.6542 198.429 92.4014 198.156C91.8511 196.387 92.0159 198.055 92.3398 199.009C92.3217 199.013 92.3037 199.017 92.2856 199.021C91.9866 198.598 91.964 199.026 91.6822 198.764C91.4032 198.501 91.3714 198.322 91.0836 197.517C91.0548 197.576 91.0259 197.635 90.9967 197.694C91.388 200.01 90.3721 196.095 90.4515 197.926C89.9671 196.534 89.8697 197.353 89.765 197.833C89.7533 197.889 89.8165 198.167 89.8044 198.26C89.7728 198.484 89.496 198.17 89.6969 199.067C89.5699 198.822 89.445 198.577 89.3223 198.33C89.3002 198.506 89.277 198.681 89.2522 198.857C89.309 199.138 89.3659 199.42 89.4227 199.701C89.1118 198.766 89.0037 199.169 88.8694 198.956C88.8428 198.913 88.767 198.524 88.6932 198.428C88.6069 198.313 88.5078 198.45 88.4107 198.341C88.455 198.778 88.4977 199.216 88.5388 199.654C88.4328 199.913 88.1989 198.777 88.1053 198.701C88.0885 198.688 87.8333 198.81 87.822 198.836C87.7313 199.047 87.9012 200.021 87.5137 199.857C87.4448 199.827 87.3526 199.495 87.2944 199.488C87.1937 199.475 86.9699 200.277 87.0112 200.992C86.7938 200.114 86.4916 200.508 86.3693 200.257C86.3331 200.18 86.2835 199.612 86.1853 199.497C86.1067 199.404 85.9468 199.871 85.8477 199.8C85.7432 199.722 85.6847 199.245 85.6397 199.214C85.5974 199.184 85.5763 199.572 85.519 199.572C85.3388 199.566 85.162 198.948 85.0261 198.939C84.8788 198.929 84.7509 199.564 84.615 200.098C84.5774 200.28 84.5407 200.45 84.5047 200.579C84.4693 200.505 84.4344 200.259 84.3974 200.257C83.9451 200.221 83.4283 200.013 82.9758 199.772C82.7582 199.661 82.2162 198.113 82.3866 200.704C82.3254 201.159 81.7658 200.121 81.6674 200.107C81.5667 200.093 81.4933 200.559 81.4116 200.567C81.166 200.591 80.996 200.259 80.7051 200.669C80.6296 200.776 80.5577 201.329 80.5124 201.323C80.4577 201.315 80.3892 200.784 80.3184 200.751C80.1543 200.678 79.8336 200.859 79.6724 200.77C79.6426 200.753 79.6228 200.285 79.5778 200.14C79.4049 199.572 79.2129 199.626 79.2779 201.118C79.0453 200.275 78.8717 201.052 78.6686 201.104C78.2546 201.209 77.4695 200.875 77.1036 201.507C76.8718 201.906 76.8799 202.576 76.5216 202.002C76.4437 201.874 76.3591 201.702 76.2617 201.549C76.0307 201.191 75.8281 199.954 75.6497 201.445C75.3975 201.058 75.1846 201.33 75.0099 200.053C74.9838 200.358 74.9575 200.664 74.9307 200.969C74.899 200.977 74.8672 200.984 74.8355 200.991C74.8302 200.699 74.825 200.407 74.8201 200.115C74.5932 200.033 74.2796 201.225 74.07 201.209C73.7396 201.188 72.8577 200.674 72.5582 200.25C72.4001 200.026 72.3302 200.647 72.3522 199.359C72.3059 199.444 72.2577 199.529 72.2091 199.614C72.1561 199.892 72.1022 200.169 72.0473 200.446C71.8099 200.433 71.5826 199.965 71.3593 199.938C70.9592 199.893 70.1645 200.538 69.827 199.937C69.7451 199.787 69.7476 199.191 69.6445 199.172C69.494 199.143 69.2116 200.064 69.0012 200.024C68.6278 199.953 68.3509 198.684 68.0319 198.65C67.9331 198.638 67.7604 198.955 67.6822 198.965C67.3519 199.01 67.1508 198.892 66.6614 199.276C66.7722 198.31 67.3261 197.253 67.7817 196.139C68.1223 195.297 68.9386 193.355 69.2929 192.644C69.5387 192.143 69.9032 191.524 70.1696 190.97C70.5362 190.606 70.3378 191.109 70.1164 191.958C70.3744 192.036 70.6297 192.097 70.8894 192.146C70.8084 192.472 70.7306 192.799 70.656 193.127C70.6557 193.127 70.6555 193.128 70.6553 193.129C70.6527 193.533 70.9496 192.72 71.0561 192.547C72.0155 190.887 72.6966 192.472 73.4982 192.733C73.6553 192.791 74.1926 192.364 74.2871 192.91C74.3116 193.053 74.3027 193.57 74.3342 193.594C74.6308 193.296 74.9241 192.994 75.2138 192.689C75.8036 193.498 76.4438 192.83 77.0663 192.697C78.7563 192.336 80.4878 191.882 82.234 191.986C82.5639 192.007 82.9981 191.616 83.3249 191.863C83.4637 191.966 83.5255 192.795 83.7058 192.176C83.7088 192.399 83.7119 192.623 83.7149 192.847C83.8718 192.576 83.9668 192.067 84.1442 192.015C84.2416 191.986 84.4459 191.962 84.615 191.973C84.681 191.979 84.7394 191.993 84.7744 192.023C84.827 192.065 84.8133 192.483 84.8635 192.48C84.9516 192.472 85.1157 191.889 85.2282 191.884C85.3304 191.88 85.536 192.351 85.6156 192.276C85.9019 192.008 86.1386 191.269 86.4625 191.421C86.5525 191.465 86.7353 191.987 86.7615 191.968C86.8109 191.929 86.7525 191.406 86.7773 191.334C86.9011 190.971 87.2726 191.544 87.4581 191.535C88.0522 191.509 88.6121 191.142 89.2104 191.074C89.5931 191.031 90.164 190.753 90.6338 191.006C90.7353 191.061 90.9074 191.612 90.9708 191.589C91.0414 191.564 90.9473 191.184 90.9687 191.142C91.1195 190.855 91.4546 190.304 91.8107 190.587C91.8788 190.642 92.0791 191.048 92.1028 191.037C92.115 191.032 92.025 190.735 92.0506 190.691C92.2769 190.294 92.5854 190.355 92.955 190.303C93.6678 190.198 94.1197 189.328 94.9004 189.252C95.0706 189.235 95.6037 189.961 95.6199 189.941C95.6552 189.901 95.3881 189.361 95.4014 189.183C95.4452 188.597 96.1541 188.923 96.2699 188.498C96.3265 188.289 96.1027 187.529 96.1375 187.307C96.1652 187.13 96.5651 187.229 96.4267 186.919C96.3431 186.731 95.9995 186.179 95.986 186.091ZM97.1024 197.088C96.6703 196.143 96.7932 197.043 97.1322 197.499C97.2091 197.601 97.215 197.333 97.1024 197.088ZM83.7856 198.438C83.7893 198.735 83.793 199.032 83.7967 199.329C83.8284 199.205 83.8603 199.082 83.8924 198.958C83.8734 198.78 83.8543 198.601 83.8353 198.423C83.8187 198.428 83.8026 198.433 83.7856 198.438ZM72.8987 227.125C72.9691 227.168 72.5781 227.21 72.5558 227.256C72.4582 227.451 72.1858 227.514 72.026 227.688C71.7887 227.945 72.2693 228.755 69.5679 228.651C69.5679 228.651 69.5678 228.651 69.5678 228.651C69.5413 228.65 69.5145 228.648 69.4874 228.647C68.9729 228.625 68.4137 228.536 67.832 228.503C67.2502 228.471 63.4912 228.333 63.2835 228.23C63.0104 228.081 63.987 227.786 63.9471 227.71C63.9196 227.659 63.5803 227.584 63.5221 227.517C63.3346 227.301 63.5887 227.202 62.6677 226.979C63.1598 226.923 63.6518 226.867 64.1438 226.811C63.9208 226.704 64.5716 226.581 64.5384 226.52C64.511 226.47 64.1254 226.427 64.1093 226.375C64.0892 226.317 64.5101 226.246 64.4512 226.14C64.3566 225.966 63.3487 225.897 63.2245 225.79C63.096 225.679 63.6507 225.536 63.3009 225.387C63.1905 225.366 63.0802 225.345 62.9698 225.324C62.7183 225.326 62.4668 225.328 62.2153 225.331C62.1011 225.258 62.6167 225.249 62.6284 225.187C62.6425 225.114 62.1562 225.058 62.1603 225.008C62.1642 224.968 62.5574 224.928 62.5349 224.875C62.5042 224.797 61.9388 224.792 61.8347 224.747C61.7943 224.728 61.4944 224.413 61.4906 224.395C61.4734 224.264 62.2467 224.283 62.3183 224.181C62.5138 223.9 61.9007 223.58 61.6749 223.304C61.5739 223.181 61.6236 223.058 61.7518 222.944C63.7228 223.208 65.2783 222.853 62.1769 222.889C62.6224 222.773 61.7904 222.648 61.9365 222.528C62.0318 222.45 62.4632 222.411 62.4564 222.295C62.4416 222.089 61.2303 221.817 63.4377 221.843C63.0582 221.587 63.8662 221.409 61.9229 221.247C61.8064 221.181 62.972 221.066 63.1322 221.003C63.2831 220.942 63.8262 220.457 63.8586 220.375C63.891 220.294 63.9284 220.15 63.7603 220.074C63.5523 219.978 61.5359 219.839 63.9023 219.774C63.7183 219.586 63.7883 219.524 64.0691 219.366C64.1198 219.337 64.4704 219.347 64.4714 219.33C64.4728 219.293 64.2163 219.22 64.1872 219.154C64.1397 219.044 64.8794 219.011 63.7527 218.979C63.5666 218.901 63.3805 218.823 63.1944 218.744C63.4128 218.728 63.6311 218.711 63.8494 218.695C63.614 218.648 63.3786 218.6 63.1432 218.553C64.7712 218.661 63.8198 218.356 62.8813 218.407C63.2237 218.282 63.5662 218.158 63.9087 218.033C65.7602 218.123 64.1341 217.739 63.126 217.727C63.128 217.711 63.1301 217.695 63.1322 217.68C63.6298 217.561 63.232 217.418 63.569 217.263C63.9059 217.108 64.0857 217.13 64.9396 217.112C64.8923 217.071 64.8451 217.029 64.7978 216.988C62.4702 216.69 66.5126 216.883 64.7347 216.458C66.207 216.401 65.4467 216.091 65.0088 215.888C64.9579 215.865 64.673 215.853 64.5863 215.821C64.3777 215.743 64.7509 215.577 63.8316 215.548C64.0999 215.496 64.3682 215.444 64.6366 215.392C64.4714 215.335 64.3062 215.278 64.1411 215.22C63.8542 215.21 63.5673 215.199 63.2804 215.188C64.2621 215.123 63.8925 214.948 64.1294 214.878C64.1774 214.864 64.5733 214.876 64.6831 214.831C64.8135 214.779 64.7005 214.667 64.8268 214.604C64.3894 214.56 63.952 214.517 63.5147 214.473C63.2816 214.342 64.4404 214.344 64.5331 214.275C64.5492 214.263 64.4751 214.024 64.4509 214.011C64.2591 213.899 63.2722 213.891 63.4949 213.598C63.5352 213.546 63.878 213.516 63.8936 213.468C63.9216 213.384 63.1579 213.096 62.4438 213.048C63.3425 212.979 62.9875 212.688 63.2492 212.616C63.3296 212.594 63.8997 212.611 64.0239 212.54C64.1252 212.482 63.675 212.306 63.7544 212.231C63.8407 212.152 64.3206 212.141 64.3559 212.105C64.3887 212.071 64.0035 212.024 64.0076 211.976C64.0268 211.828 64.654 211.717 64.67 211.6C64.6946 211.43 63.5562 211.236 63.0536 211.074C63.1292 211.041 63.3761 211.016 63.3798 210.979C63.4335 210.522 63.6643 210.012 63.927 209.562C64.0478 209.353 65.6215 208.882 63.0245 208.924C62.5735 208.832 63.6391 208.333 63.6588 208.231C63.6784 208.129 63.2168 208.029 63.2131 207.948C63.2022 207.704 63.5437 207.546 63.1505 207.234C63.0477 207.153 62.5003 207.05 62.5085 207.005C62.5196 206.951 63.0543 206.913 63.0908 206.843C63.1737 206.678 63.0107 206.357 63.1091 206.199C63.1282 206.17 63.5961 206.178 63.7439 206.141C64.3212 205.999 64.2788 205.812 62.7849 205.787C63.6404 205.609 62.875 205.385 62.8351 205.187C62.7544 204.771 63.1318 204.032 62.5185 203.648C62.1316 203.406 61.462 203.386 62.0525 203.074C62.1835 203.005 62.3592 202.938 62.5155 202.854C62.8833 202.657 64.1275 202.512 62.6434 202.293C63.0389 202.074 62.772 201.877 64.0532 201.753C63.7483 201.72 63.4435 201.688 63.1386 201.656C63.1321 201.627 63.1256 201.598 63.1192 201.569C63.4111 201.571 63.7029 201.574 63.9948 201.576C64.0813 201.373 62.8931 201.066 62.9085 200.893C62.9333 200.601 63.4278 199.868 63.8319 199.606C64.0465 199.467 63.4224 199.436 64.7091 199.401C64.6211 199.365 64.5331 199.328 64.445 199.292C64.1648 199.261 63.8846 199.229 63.6043 199.198C63.6003 199.009 64.0455 198.802 64.048 198.623C64.0516 198.295 63.2971 197.774 63.8178 197.465C63.9491 197.388 64.5326 197.307 64.5292 197.226C64.5247 197.109 63.564 197.043 63.5518 196.893C63.5325 196.635 64.6682 196.2 64.5922 195.954C64.5702 195.881 64.2137 195.834 64.1774 195.783C64.0213 195.568 64.0571 195.397 63.5118 195.176C64.4417 194.997 65.6307 195.061 66.8337 195.041C67.7416 195.025 69.8473 194.952 70.6416 194.96C71.1997 194.966 71.9146 195.052 72.5291 195.054C73.0092 195.33 72.4655 195.417 71.5943 195.593C71.6138 195.98 71.6333 196.368 71.6528 196.755C71.3164 196.777 70.9801 196.8 70.6438 196.822C70.6431 196.822 70.6424 196.822 70.6416 196.822C70.2493 196.955 71.1095 197.051 71.3023 197.139C73.1475 197.976 71.622 199.426 71.3782 200.261C71.3262 200.441 71.7548 201.049 71.206 201.153C71.0631 201.179 70.5462 201.168 70.5224 201.202C70.8177 201.52 71.113 201.839 71.4084 202.157C70.5815 202.757 71.2191 203.434 71.3182 204.074C71.5868 205.806 71.9283 207.524 71.7394 209.21C71.7021 209.536 72.073 209.965 71.8111 210.276C71.7025 210.405 70.871 210.429 71.4824 210.628C71.2588 210.621 71.0353 210.615 70.8118 210.608C71.0756 210.771 71.5803 210.889 71.6254 211.062C71.6625 211.208 71.681 211.592 71.5906 211.717C71.5454 211.781 71.1287 211.74 71.1285 211.802C71.1311 211.908 71.6997 212.156 71.6941 212.302C71.689 212.434 71.1994 212.639 71.2652 212.743C71.4983 213.118 72.1959 213.544 71.9898 213.927C71.9316 214.033 71.3848 214.15 71.3986 214.185C71.4275 214.252 71.9527 214.292 72.0186 214.338C72.3516 214.576 71.7131 214.903 71.6798 215.122C71.5712 215.837 71.7714 216.607 71.6471 217.318C71.569 217.767 71.6326 218.522 71.2209 218.923C71.132 219.01 70.5567 218.964 70.5538 219.039C70.5507 219.123 70.9382 219.183 70.9681 219.224C71.178 219.503 71.5484 220.116 71.1406 220.357C71.0624 220.402 70.6095 220.42 70.61 220.449C70.6095 220.464 70.9163 220.509 70.946 220.557C71.2089 220.977 71.0177 221.268 70.8966 221.665C70.6669 222.425 71.2058 223.337 70.8645 224.132C70.7902 224.305 69.8926 224.391 69.9006 224.416C69.9165 224.471 70.5158 224.529 70.66 224.644C71.1335 225.028 70.4736 225.496 70.7613 225.855C70.9031 226.032 71.6564 226.297 71.8186 226.472C71.9483 226.613 71.6369 226.92 71.9693 226.992C72.1702 227.036 72.8191 227.078 72.8987 227.125ZM62.9625 222.191C64.0001 222.255 63.1467 221.969 62.5856 222.042C62.4592 222.059 62.6931 222.174 62.9625 222.191ZM65.2222 210.435C64.9254 210.426 64.6287 210.417 64.332 210.408C64.4541 210.446 64.5763 210.484 64.6985 210.522C64.8775 210.51 65.0566 210.498 65.2356 210.486C65.2311 210.469 65.2267 210.452 65.2222 210.435ZM110.31 222.289C110.386 222.322 110.006 222.424 109.991 222.475C109.925 222.688 109.666 222.794 109.534 222.995C109.339 223.293 109.939 224.044 107.253 224.348C107.253 224.348 107.253 224.348 107.253 224.348C107.226 224.351 107.2 224.354 107.173 224.357C106.661 224.412 106.094 224.406 105.514 224.461C104.934 224.517 101.197 224.947 100.976 224.873C100.683 224.763 101.603 224.314 101.552 224.244C101.517 224.195 101.17 224.17 101.102 224.111C100.884 223.92 101.119 223.78 100.175 223.693C100.652 223.561 101.13 223.429 101.608 223.297C101.371 223.223 101.995 222.998 101.953 222.941C101.919 222.895 101.531 222.909 101.507 222.859C101.478 222.803 101.883 222.667 101.808 222.568C101.688 222.405 100.681 222.487 100.542 222.397C100.398 222.304 100.924 222.074 100.556 221.976C100.443 221.971 100.331 221.966 100.219 221.961C99.9704 222.002 99.7221 222.043 99.4739 222.083C99.3498 222.027 99.858 221.939 99.8601 221.874C99.8627 221.798 99.3734 221.814 99.3699 221.763C99.3675 221.721 99.75 221.621 99.7196 221.57C99.6772 221.496 99.1176 221.576 99.0078 221.546C98.965 221.534 98.62 221.258 98.6135 221.24C98.5763 221.109 99.3436 221.011 99.3988 220.897C99.5487 220.581 98.8933 220.348 98.6277 220.101C98.5089 219.991 98.5392 219.859 98.6484 219.723C100.637 219.693 102.12 219.096 99.06 219.602C99.4826 219.417 98.6408 219.415 98.7668 219.271C98.8491 219.178 99.2694 219.072 99.2448 218.955C99.1985 218.747 97.9593 218.655 100.145 218.346C99.7308 218.143 100.502 217.84 98.5562 217.969C98.4308 217.919 99.5654 217.626 99.7139 217.537C99.8538 217.452 100.316 216.876 100.335 216.788C100.355 216.7 100.37 216.548 100.192 216.496C99.9716 216.43 97.957 216.594 100.286 216.169C100.075 216.005 100.135 215.931 100.388 215.728C100.434 215.691 100.782 215.648 100.78 215.63C100.776 215.592 100.511 215.557 100.472 215.494C100.408 215.389 101.134 215.243 100.016 215.382C99.8198 215.331 99.6238 215.279 99.4278 215.228C99.6411 215.178 99.8544 215.128 100.068 215.078C99.8277 215.066 99.5877 215.053 99.3478 215.041C100.974 214.903 99.9862 214.738 99.0664 214.932C99.3857 214.753 99.705 214.574 100.024 214.395C101.868 214.206 100.202 214.061 99.2035 214.202C99.2032 214.186 99.2028 214.169 99.2024 214.153C99.676 213.956 99.2609 213.872 99.5701 213.663C99.8792 213.453 100.06 213.449 100.902 213.301C100.849 213.266 100.795 213.231 100.742 213.196C98.3957 213.246 102.421 212.829 100.598 212.666C102.045 212.385 101.246 212.184 100.782 212.044C100.728 212.028 100.444 212.06 100.354 212.04C100.135 211.992 100.479 211.767 99.5656 211.876C99.8229 211.783 100.08 211.689 100.337 211.596C100.165 211.562 99.9932 211.529 99.8212 211.496C99.5359 211.528 99.2506 211.561 98.9654 211.593C99.9259 211.379 99.5336 211.256 99.7569 211.149C99.8022 211.127 100.195 211.079 100.297 211.017C100.418 210.944 100.289 210.848 100.404 210.764C99.965 210.786 99.526 210.808 99.0869 210.83C98.8363 210.732 99.982 210.558 100.063 210.474C100.077 210.459 99.9672 210.227 99.9412 210.217C99.7344 210.133 98.7576 210.274 98.9327 209.942C98.9645 209.883 99.2987 209.8 99.3067 209.749C99.3214 209.659 98.5223 209.482 97.8091 209.542C98.6868 209.335 98.291 209.092 98.5386 208.979C98.6148 208.945 99.1809 208.875 99.2927 208.784C99.3839 208.71 98.9119 208.599 98.9788 208.511C99.0519 208.417 99.5246 208.333 99.5539 208.291C99.5812 208.252 99.1931 208.262 99.1898 208.213C99.186 208.059 99.7889 207.851 99.7867 207.729C99.7849 207.553 98.6296 207.527 98.1079 207.438C98.1776 207.394 98.4178 207.331 98.4157 207.292C98.3984 206.819 98.5482 206.265 98.7386 205.767C98.8258 205.535 100.309 204.817 97.7481 205.253C97.2882 205.228 98.2648 204.558 98.2685 204.452C98.2721 204.345 97.8006 204.314 97.7845 204.232C97.7362 203.985 98.0493 203.772 97.6126 203.514C97.4986 203.447 96.9417 203.425 96.9428 203.378C96.9454 203.321 97.4681 203.201 97.4935 203.125C97.55 202.944 97.3395 202.642 97.4124 202.466C97.4268 202.434 97.8905 202.371 98.0309 202.311C98.5797 202.078 98.5091 201.895 97.0286 202.096C97.8468 201.785 97.0556 201.673 96.9859 201.478C96.842 201.066 97.1013 200.256 96.436 199.958C96.0163 199.771 95.3513 199.852 95.887 199.445C96.0059 199.355 96.1692 199.26 96.3107 199.15C96.644 198.894 97.8514 198.557 96.3509 198.56C96.7081 198.277 96.414 198.117 97.6612 197.796C97.3549 197.809 97.0486 197.822 96.7422 197.836C96.7314 197.807 96.7205 197.779 96.7097 197.75C96.9986 197.708 97.2874 197.666 97.5763 197.624C97.6305 197.405 96.4088 197.273 96.3974 197.093C96.377 196.793 96.7529 195.971 97.1121 195.644C97.3028 195.47 96.681 195.532 97.9475 195.301C97.855 195.278 97.7624 195.254 97.6698 195.231C97.3879 195.241 97.1061 195.252 96.8242 195.262C96.7912 195.07 97.1994 194.792 97.1742 194.609C97.1274 194.275 96.3014 193.859 96.7685 193.466C96.8864 193.367 97.4508 193.196 97.4349 193.114C97.4124 192.995 96.4527 193.074 96.4176 192.923C96.3588 192.664 97.4145 192.048 97.3014 191.81C97.2685 191.739 96.9087 191.744 96.865 191.698C96.6776 191.502 96.6868 191.324 96.1137 191.181C97.0053 190.857 98.1905 190.742 99.3765 190.539C100.272 190.386 102.342 189.991 103.128 189.88C103.681 189.801 104.4 189.779 105.008 189.688C105.525 189.897 105.001 190.068 104.167 190.379C104.246 190.771 104.325 191.162 104.404 191.554C104.075 191.627 103.746 191.701 103.417 191.775C103.416 191.775 103.415 191.775 103.415 191.775C103.047 191.97 103.912 191.938 104.116 191.997C106.069 192.571 104.785 194.279 104.672 195.165C104.648 195.356 105.166 195.911 104.639 196.099C104.502 196.148 103.989 196.215 103.971 196.253C104.312 196.533 104.653 196.812 104.994 197.092C104.269 197.828 105.003 198.421 105.2 199.058C105.732 200.78 106.334 202.477 106.407 204.223C106.42 204.56 106.853 204.942 106.642 205.297C106.554 205.446 105.736 205.596 106.371 205.706C106.149 205.733 105.927 205.76 105.705 205.787C105.991 205.913 106.508 205.956 106.579 206.126C106.638 206.27 106.716 206.657 106.645 206.798C106.611 206.87 106.193 206.892 106.202 206.955C106.221 207.063 106.821 207.229 106.838 207.378C106.853 207.514 106.401 207.796 106.482 207.892C106.77 208.239 107.525 208.567 107.38 208.988C107.339 209.104 106.817 209.307 106.836 209.34C106.874 209.404 107.4 209.365 107.472 209.403C107.838 209.594 107.257 210.024 107.258 210.252C107.26 210.997 107.577 211.75 107.563 212.493C107.555 212.962 107.734 213.721 107.389 214.192C107.315 214.294 106.739 214.334 106.748 214.412C106.758 214.497 107.15 214.5 107.186 214.537C107.436 214.789 107.897 215.357 107.531 215.664C107.46 215.722 107.015 215.809 107.02 215.839C107.022 215.854 107.332 215.854 107.369 215.898C107.694 216.285 107.549 216.611 107.491 217.033C107.381 217.842 108.054 218.689 107.839 219.55C107.792 219.738 106.918 219.961 106.93 219.986C106.954 220.039 107.555 220.007 107.715 220.103C108.243 220.422 107.662 220.998 108.002 221.32C108.169 221.479 108.955 221.635 109.142 221.789C109.292 221.912 109.031 222.271 109.371 222.295C109.576 222.31 110.224 222.254 110.31 222.289ZM99.7291 218.772C100.765 218.68 99.8771 218.519 99.3337 218.678C99.2113 218.714 99.4603 218.796 99.7291 218.772ZM100.153 206.459C99.8585 206.495 99.5638 206.531 99.269 206.567C99.3956 206.587 99.5222 206.607 99.6488 206.627C99.824 206.588 99.9992 206.549 100.174 206.509C100.167 206.493 100.16 206.476 100.153 206.459ZM101.156 63.5339C101.222 63.5853 100.828 63.5886 100.801 63.6327C100.682 63.8191 100.404 63.8496 100.223 63.998C99.962 64.2095 100.278 65.1244 97.655 64.4503C97.655 64.4503 97.655 64.4503 97.6549 64.4503C97.6292 64.4438 97.6032 64.4372 97.5769 64.4305C97.0781 64.3023 96.5452 64.1154 95.9809 63.9708C95.4164 63.8263 91.7625 62.9333 91.5652 62.8491C91.3062 62.7357 92.2787 62.8004 92.2444 62.752C92.2202 62.7227 91.8899 62.6299 91.8353 62.5912C91.6591 62.4683 91.9146 62.4557 91.0083 62.2383C91.4966 62.2834 91.9858 62.3214 92.4757 62.3524C92.2573 62.276 92.9068 62.2857 92.8753 62.2489C92.8493 62.2201 92.4665 62.1611 92.4513 62.1347C92.4321 62.1053 92.8523 62.1056 92.7949 62.0456C92.7026 61.9475 91.6974 61.8471 91.5732 61.7924C91.4446 61.7371 91.9975 61.6976 91.6463 61.6133C91.5358 61.5993 91.4253 61.5856 91.3148 61.5722C91.0637 61.5642 90.8125 61.5556 90.5614 61.5465C90.4461 61.5134 90.9609 61.5285 90.9715 61.5021C90.9841 61.4712 90.4971 61.4355 90.5 61.4163C90.5029 61.4007 90.8949 61.3915 90.871 61.3681C90.8383 61.3346 90.2731 61.3265 90.1678 61.3079C90.1272 61.2995 89.8172 61.1785 89.8125 61.1728C89.7905 61.1241 90.564 61.1192 90.6314 61.0746C90.8152 60.9486 90.1867 60.8335 89.9456 60.7379C89.8378 60.6937 89.88 60.642 90.0003 60.5844C91.9818 60.5519 93.5057 60.2423 90.42 60.5261C90.8556 60.4365 90.0185 60.4556 90.1551 60.3916C90.2441 60.3491 90.6699 60.2863 90.6536 60.2333C90.6216 60.1344 89.3978 60.1761 91.587 59.8972C91.1873 59.8243 91.9662 59.6096 90.0302 59.8303C89.9087 59.8201 91.0471 59.5825 91.1975 59.5225C91.3407 59.4712 91.8161 59.1252 91.8362 59.0732C91.8574 59.0242 91.8748 58.9401 91.6998 58.9336C91.4824 58.921 89.4933 59.2743 91.7972 58.7467C91.5906 58.6861 91.6503 58.6407 91.8999 58.4929C91.945 58.4662 92.2878 58.3922 92.286 58.3821C92.2817 58.3615 92.0208 58.3807 91.9822 58.3514C91.9189 58.3037 92.6316 58.1095 91.5327 58.3601C91.3398 58.3628 91.1469 58.3664 90.9543 58.372C91.1634 58.3105 91.3724 58.2486 91.5812 58.1862C91.3455 58.2192 91.11 58.253 90.8746 58.2875C92.468 57.9385 91.4966 58.0135 90.5979 58.2794C90.9091 58.1304 91.2188 57.977 91.527 57.8192C93.3269 57.3751 91.6904 57.5953 90.7202 57.8699C90.7195 57.8613 90.7187 57.8526 90.718 57.844C91.1752 57.6456 90.768 57.6829 91.0622 57.5061C91.3558 57.3273 91.5317 57.2866 92.3441 57.0261C92.2907 57.0167 92.2373 57.0074 92.1839 56.9983C89.9053 57.5327 93.7964 56.4185 92.0158 56.7225C93.4027 56.2329 92.6119 56.2867 92.1541 56.3178C92.1009 56.3211 91.8291 56.4075 91.7402 56.4181C91.5264 56.4434 91.8421 56.2289 90.9689 56.5181C91.2108 56.4016 91.4522 56.2837 91.6932 56.165C91.525 56.1891 91.3569 56.2138 91.189 56.2391C90.9169 56.3307 90.6447 56.4222 90.3726 56.5138C91.2818 56.1471 90.895 56.1781 91.1013 56.0589C91.1431 56.0347 91.5169 55.9036 91.6094 55.8405C91.7193 55.766 91.5875 55.7443 91.6905 55.6646C91.2715 55.7956 90.8528 55.9274 90.4343 56.0599C90.187 56.0748 91.2686 55.6604 91.3385 55.5891C91.3507 55.5765 91.2245 55.4734 91.1986 55.475C90.9932 55.4847 90.0747 55.8441 90.2122 55.6093C90.2371 55.5671 90.5473 55.4225 90.55 55.3911C90.5551 55.3347 89.779 55.4746 89.109 55.7258C89.9221 55.3462 89.5229 55.3322 89.7457 55.1932C89.8143 55.1505 90.3422 54.9347 90.438 54.8477C90.5161 54.7766 90.0581 54.8629 90.1116 54.7922C90.1702 54.7159 90.6061 54.5163 90.6288 54.4828C90.6499 54.4513 90.2854 54.5822 90.2767 54.5555C90.2554 54.4696 90.7972 54.1527 90.7795 54.0821C90.7552 53.9793 89.6682 54.3508 89.17 54.4807C89.2299 54.4323 89.4468 54.315 89.4402 54.2944C89.3659 54.0361 89.4321 53.6732 89.5367 53.3208C89.5861 53.1605 90.8432 52.1904 88.5477 53.4006C88.1214 53.5617 88.9212 52.819 88.9061 52.7545C88.8925 52.6926 88.4555 52.8588 88.4281 52.8198C88.3457 52.702 88.5973 52.4581 88.1575 52.49C88.0426 52.4987 87.5324 52.7119 87.5259 52.6859C87.5193 52.6538 87.9747 52.3752 87.9851 52.3224C88.0063 52.1987 87.7648 52.119 87.8008 51.9923C87.8084 51.9686 88.2167 51.74 88.333 51.6478C88.7875 51.2874 88.6891 51.2114 87.3902 51.9494C88.073 51.4312 87.3396 51.7042 87.2432 51.6294C87.0412 51.4663 87.1212 50.9085 86.472 51.0452C86.0635 51.133 85.4917 51.4818 85.8884 51.02C85.9762 50.9174 86.1022 50.7916 86.2059 50.6677C86.4497 50.376 87.4405 49.6247 86.1228 50.3298C86.3786 50.0083 86.0908 50.0658 87.1122 49.2946C86.847 49.4475 86.5819 49.6007 86.3169 49.7541C86.3014 49.7437 86.2858 49.7333 86.2703 49.7229C86.5136 49.562 86.757 49.4009 87.0002 49.2398C86.9986 49.0907 85.906 49.6088 85.8592 49.5207C85.7771 49.3682 85.924 48.7469 86.1537 48.3852C86.2767 48.1941 85.7582 48.5429 86.7903 47.7766C86.7051 47.8104 86.6201 47.8443 86.5352 47.8785C86.2961 48.0272 86.0572 48.1761 85.8185 48.3253C85.7467 48.2406 86.0307 47.8834 85.9638 47.7956C85.8417 47.6367 85.0469 47.8555 85.3438 47.4C85.4191 47.2856 85.8511 46.8938 85.8175 46.8592C85.7692 46.8087 84.9849 47.3669 84.9181 47.3071C84.805 47.2035 85.5324 46.3119 85.3715 46.2438C85.3256 46.2249 85.0305 46.4289 84.9827 46.4297C84.7797 46.4362 84.7423 46.3415 84.2376 46.5961C84.8829 45.9261 85.8157 45.1866 86.725 44.4005C87.4121 43.808 88.9781 42.4033 89.5823 41.8878C90.0074 41.5263 90.5897 41.1049 91.0558 40.7046C91.5576 40.5444 91.1927 40.9524 90.6137 41.6123C90.817 41.8131 91.0203 42.0198 91.2141 42.2191C90.962 42.4414 90.7094 42.6633 90.4566 42.8847C90.456 42.8851 90.4554 42.8856 90.4548 42.886C90.2082 43.2016 90.9258 42.7199 91.118 42.6498C92.9612 41.9782 92.4143 43.7493 92.5622 44.3564C92.5948 44.485 93.2069 44.593 92.799 44.9652C92.6925 45.0615 92.2624 45.3483 92.2564 45.3804C92.6297 45.3909 93.0058 45.4085 93.3837 45.4317C92.9394 46.2332 93.7423 46.2754 94.0816 46.6061C94.9938 47.4907 95.9433 48.3883 96.376 49.5602C96.4579 49.7847 96.94 49.8972 96.8128 50.217C96.7605 50.3506 96.0226 50.7325 96.6386 50.5922C96.4356 50.6861 96.2326 50.78 96.0296 50.8738C96.321 50.8624 96.8146 50.7191 96.9137 50.8142C96.9963 50.8938 97.1405 51.1402 97.0992 51.2612C97.0793 51.3232 96.6882 51.4713 96.7079 51.512C96.7444 51.5798 97.3416 51.5083 97.3837 51.6096C97.422 51.7012 97.0396 52.037 97.1322 52.0799C97.4626 52.2354 98.2382 52.2579 98.1651 52.6058C98.1438 52.7022 97.6726 52.9895 97.6954 53.0077C97.742 53.043 98.241 52.8749 98.3162 52.8834C98.6972 52.9282 98.1997 53.3951 98.2305 53.5605C98.3327 54.1024 98.7297 54.5934 98.7904 55.1613C98.8292 55.5145 99.0688 56.0716 98.7564 56.4819C98.6891 56.57 98.123 56.6813 98.1359 56.7375C98.1501 56.7992 98.538 56.7489 98.5754 56.772C98.8375 56.9286 99.3197 57.3245 98.9643 57.6009C98.8962 57.6535 98.4566 57.7613 98.4622 57.7835C98.4642 57.7948 98.7724 57.7667 98.8099 57.7978C99.1411 58.0737 99.0007 58.3415 98.9393 58.6786C98.8226 59.3101 99.4586 59.9996 99.1644 60.7068C99.1005 60.8596 98.2075 60.9683 98.2167 60.9869C98.235 61.0302 98.8364 61.0538 98.9848 61.1484C99.4731 61.469 98.818 61.8725 99.0978 62.1904C99.2364 62.3476 99.9792 62.6247 100.131 62.8036C100.253 62.9451 99.9197 63.2127 100.244 63.3132C100.44 63.3745 101.082 63.4779 101.156 63.5339ZM91.1474 60.1268C92.183 60.036 91.3105 59.9959 90.7606 60.1016C90.6367 60.1243 90.8786 60.1497 91.1474 60.1268ZM90.9511 53.2149C90.6814 53.339 90.4117 53.463 90.142 53.587C90.2627 53.5541 90.3835 53.5214 90.5044 53.4889C90.6623 53.4051 90.8202 53.3211 90.978 53.237C90.9691 53.2296 90.9601 53.2223 90.9511 53.2149ZM130.335 52.9792C130.41 53.0019 130.028 53.0883 130.011 53.1263C129.938 53.2869 129.676 53.3703 129.537 53.5196C129.332 53.7372 129.892 54.296 127.195 54.4986C127.195 54.4986 127.195 54.4986 127.195 54.4987C127.169 54.5007 127.142 54.5027 127.115 54.5047C126.601 54.542 126.037 54.5398 125.456 54.5792C124.875 54.6187 121.125 54.9179 120.91 54.8822C120.626 54.8287 121.57 54.5568 121.524 54.5162C121.492 54.4897 121.148 54.4863 121.084 54.4558C120.878 54.3577 121.12 54.2685 120.185 54.2632C120.667 54.1696 121.149 54.0736 121.631 53.9754C121.399 53.9446 122.03 53.7842 121.991 53.7528C121.958 53.7274 121.572 53.757 121.55 53.7298C121.524 53.6998 121.933 53.5974 121.862 53.5443C121.749 53.4571 120.746 53.5709 120.611 53.5311C120.472 53.4899 121.003 53.3219 120.64 53.2949C120.529 53.3009 120.417 53.3071 120.306 53.3134C120.058 53.3556 119.811 53.3976 119.563 53.4394C119.442 53.4193 119.949 53.3304 119.953 53.2946C119.959 53.2525 119.473 53.3031 119.471 53.2763C119.47 53.2542 119.853 53.1664 119.824 53.1412C119.784 53.1044 119.227 53.1989 119.119 53.193C119.077 53.19 118.744 53.078 118.738 53.07C118.705 53.0051 119.467 52.8745 119.525 52.8067C119.681 52.6186 119.037 52.5638 118.779 52.4664C118.663 52.4225 118.695 52.3491 118.805 52.2627C120.77 51.9995 122.238 51.4757 119.213 52.145C119.632 51.9899 118.801 52.0983 118.926 52.0047C119.008 51.9437 119.423 51.8289 119.4 51.768C119.354 51.6585 118.135 51.7939 120.286 51.3022C119.878 51.2494 120.633 50.9581 118.721 51.3346C118.598 51.3282 119.71 50.987 119.855 50.9123C119.992 50.844 120.435 50.4401 120.452 50.3848C120.469 50.331 120.48 50.2408 120.304 50.2424C120.086 50.2416 118.118 50.7015 120.387 50.0386C120.176 49.9829 120.233 49.9312 120.473 49.7665C120.517 49.7366 120.856 49.6462 120.853 49.6358C120.848 49.6145 120.588 49.6443 120.547 49.6149C120.481 49.5669 121.185 49.3411 120.097 49.6388C119.904 49.6475 119.711 49.6569 119.518 49.667C119.724 49.5963 119.93 49.5254 120.136 49.4542C119.902 49.4951 119.667 49.5364 119.433 49.5782C121.013 49.1717 120.043 49.2755 119.155 49.5747C119.459 49.4092 119.763 49.2424 120.065 49.072C121.851 48.5754 120.221 48.8388 119.258 49.1372C119.257 49.1281 119.256 49.119 119.254 49.1099C119.705 48.8958 119.298 48.9389 119.587 48.7517C119.876 48.5635 120.051 48.5201 120.859 48.2446C120.805 48.2359 120.752 48.2273 120.698 48.2189C118.427 48.7856 122.302 47.6158 120.525 47.9407C121.906 47.4352 121.117 47.4994 120.659 47.5319C120.606 47.5355 120.334 47.6232 120.245 47.6341C120.031 47.66 120.346 47.4437 119.474 47.7348C119.715 47.6169 119.956 47.4981 120.197 47.3787C120.029 47.4025 119.86 47.4268 119.692 47.4514C119.42 47.5429 119.148 47.6343 118.876 47.7257C119.784 47.358 119.397 47.3875 119.604 47.2682C119.646 47.2441 120.02 47.1142 120.113 47.0514C120.223 46.9773 120.091 46.955 120.195 46.8759C119.775 47.0045 119.355 47.1338 118.936 47.2635C118.688 47.2758 119.772 46.8684 119.843 46.7976C119.855 46.785 119.73 46.6797 119.704 46.681C119.498 46.6884 118.576 47.0378 118.715 46.8024C118.741 46.7602 119.053 46.6195 119.056 46.5881C119.062 46.5319 118.283 46.6598 117.609 46.8994C118.427 46.5312 118.028 46.5088 118.253 46.3733C118.322 46.3317 118.854 46.1258 118.952 46.0406C119.031 45.9711 118.572 46.0485 118.626 45.9788C118.687 45.9039 119.127 45.7138 119.15 45.681C119.172 45.6503 118.805 45.7734 118.797 45.7462C118.777 45.6594 119.326 45.3552 119.311 45.2849C119.289 45.1824 118.193 45.5276 117.692 45.6445C117.753 45.5977 117.973 45.4863 117.967 45.4656C117.9 45.2052 117.977 44.8467 118.094 44.5007C118.149 44.3421 119.44 43.4203 117.105 44.5516C116.674 44.6989 117.5 43.9871 117.487 43.9232C117.476 43.8617 117.034 44.013 117.008 43.9737C116.931 43.8546 117.194 43.6249 116.753 43.6406C116.638 43.6456 116.121 43.8404 116.115 43.8145C116.11 43.7827 116.576 43.522 116.589 43.4705C116.615 43.349 116.38 43.2669 116.421 43.1406C116.429 43.1173 116.846 42.9049 116.966 42.8178C117.435 42.4773 117.342 42.4005 116.015 43.0865C116.718 42.598 115.977 42.8471 115.884 42.7692C115.691 42.602 115.799 42.0591 115.149 42.1764C114.739 42.2516 114.155 42.5801 114.572 42.1377C114.664 42.0394 114.796 41.9194 114.905 41.8008C115.163 41.5237 116.185 40.8173 114.843 41.4733C115.113 41.1655 114.823 41.2115 115.877 40.4867C115.607 40.6295 115.336 40.7727 115.066 40.9161C115.051 40.9059 115.036 40.8957 115.021 40.8855C115.271 40.7345 115.521 40.5834 115.77 40.4322C115.779 40.2911 114.667 40.7659 114.626 40.6797C114.556 40.5352 114.731 39.9273 114.982 39.5882C115.114 39.4041 114.583 39.7343 115.643 39.0071C115.557 39.0384 115.471 39.0699 115.386 39.1016C115.142 39.242 114.898 39.3827 114.654 39.5238C114.588 39.4395 114.89 39.1019 114.828 39.0145C114.716 38.8589 113.923 39.0642 114.241 38.63C114.322 38.5203 114.769 38.1467 114.736 38.1114C114.69 38.0602 113.891 38.5963 113.83 38.541C113.731 38.4499 114.483 37.5802 114.336 37.5259C114.294 37.5107 113.994 37.7071 113.947 37.7087C113.748 37.7159 113.719 37.6299 113.22 37.8889C113.883 37.2389 114.824 36.5101 115.745 35.7371C116.44 35.155 118.022 33.7677 118.63 33.2566C119.058 32.8986 119.645 32.4837 120.114 32.0874C120.624 31.9396 120.26 32.3518 119.672 33.0045C119.873 33.2092 120.071 33.4197 120.266 33.6317C120.008 33.8481 119.752 34.0655 119.492 34.2791C119.492 34.2795 119.491 34.2799 119.49 34.2803C119.234 34.5867 119.963 34.1234 120.157 34.0579C122.021 33.4409 121.413 35.1907 121.529 35.7891C121.557 35.9192 122.16 36.0429 121.736 36.3955C121.626 36.4874 121.185 36.7574 121.178 36.789C121.55 36.8135 121.922 36.8405 122.295 36.8715C121.819 37.6542 122.612 37.7159 122.93 38.0452C123.79 38.9361 124.686 39.8392 125.058 40.9765C125.127 41.1935 125.602 41.3135 125.46 41.6166C125.402 41.744 124.652 42.1024 125.27 41.975C125.064 42.0629 124.859 42.1508 124.653 42.2387C124.943 42.2315 125.439 42.0993 125.533 42.192C125.612 42.2705 125.744 42.5052 125.698 42.6211C125.676 42.6803 125.281 42.8197 125.299 42.8589C125.333 42.9242 125.929 42.8593 125.967 42.9566C126.001 43.0438 125.608 43.3625 125.698 43.4036C126.02 43.5518 126.79 43.5725 126.705 43.8986C126.681 43.9895 126.204 44.2654 126.226 44.2825C126.271 44.3155 126.772 44.1516 126.846 44.1588C127.223 44.1972 126.716 44.6415 126.742 44.7959C126.831 45.3044 127.216 45.7487 127.272 46.2686C127.307 46.5922 127.546 47.0885 127.242 47.4783C127.176 47.5625 126.615 47.6974 126.629 47.7484C126.644 47.8048 127.029 47.7346 127.066 47.7533C127.329 47.8806 127.818 48.1992 127.475 48.4729C127.409 48.5251 126.976 48.6569 126.982 48.6764C126.985 48.6865 127.29 48.6363 127.328 48.661C127.668 48.8797 127.541 49.1287 127.5 49.4299C127.422 50.0031 128.11 50.518 127.903 51.1451C127.858 51.2818 126.991 51.5137 127.002 51.5289C127.026 51.5633 127.623 51.4891 127.782 51.5431C128.307 51.7255 127.725 52.1711 128.057 52.3754C128.221 52.477 129 52.5477 129.183 52.6522C129.33 52.7354 129.061 53.0059 129.398 53.0119C129.603 53.0158 130.25 52.9549 130.335 52.9792ZM119.877 51.6001C120.898 51.4042 120.023 51.4373 119.488 51.6041C119.367 51.6412 119.612 51.6508 119.877 51.6001ZM119.509 44.431C119.235 44.5472 118.962 44.6634 118.689 44.7796C118.81 44.75 118.932 44.7206 119.054 44.6913C119.214 44.6122 119.374 44.5329 119.535 44.4534C119.526 44.4459 119.517 44.4385 119.509 44.431Z" fill="white"/>
</svg>
