<svg width="243" height="82" viewBox="0 0 243 82" fill="none" xmlns="http://www.w3.org/2000/svg">
<path d="M145.792 60.7055C142.603 61.6724 138.279 62.4814 135.059 62.894C134.041 63.0266 134.516 62.7272 133.809 62.8069C132.417 62.9621 131.153 63.2685 129.806 63.3695C129.356 63.4022 129.861 62.9882 129.39 63.0296C126.786 63.2605 124.396 63.649 121.766 63.8659C108.914 64.8987 96.2808 65.1681 83.3032 64.7421C79.021 64.6011 73.8471 64.0776 69.423 63.9223C68.9066 63.9048 69.1947 64.2189 69.095 64.2368C67.5319 64.5057 68.0833 63.9457 67.0886 63.7965C63.131 63.2024 58.7171 62.7698 54.8942 62.4485C53.2759 62.312 54.8327 63.0826 53.2353 62.5638C53.1232 62.528 53.5767 62.2669 53.1307 62.18C52.1175 61.9847 50.1958 61.7949 49.4257 61.6645C47.9444 61.4133 47.6896 61.3804 46.2563 61.1667C44.298 60.87 42.0606 60.3526 39.9417 60.0466C39.4955 59.9832 40.0257 60.4045 39.3093 60.331C38.5841 60.2576 36.7685 59.8854 36.1191 59.6769C35.4951 59.4753 35.8173 59.2821 35.7158 59.2029C34.8824 58.5415 32.6143 58.7445 32.3419 58.6978C27.1911 57.8336 22.988 56.2979 18.4135 54.6741C14.8535 53.4011 11.1276 51.9173 8.06921 49.9616C4.53221 47.6042 1.13922 44.7167 0.440411 39.7773C0.392537 39.2612 0.0614554 39.9079 0.0163189 39.2547C0.00912964 39.1136 0.00511789 38.972 0.00430071 38.8302C-0.145736 32.6133 3.67482 27.0656 8.13455 23.7448C8.59048 23.3976 8.23697 24.1228 8.7038 23.7952C11.5661 21.7023 16.5774 19.6899 17.7831 17.5463C19.911 16.5675 22.5507 15.5292 24.5732 15.0784C25.896 14.7828 24.8027 15.5709 26.2925 14.8626C26.6203 14.7085 26.0708 14.5694 26.573 14.3607C28.7107 13.4757 31.1582 12.8023 33.3342 11.998C33.7798 11.8328 33.5773 11.5971 33.6927 11.5106C34.6349 10.8057 36.6033 10.9785 37.0107 10.9239C40.0677 10.4998 42.2329 9.83777 44.9894 9.23743C45.6367 9.09798 44.7899 8.89366 45.4115 8.74633C48.6462 7.98698 52.0074 7.37023 55.2091 6.97747C55.9261 6.89051 55.3288 7.32438 55.6742 7.29931C57.2046 7.1858 57.4168 6.52966 58.8677 6.42442C59.1733 6.40189 59.0483 6.70344 59.1082 6.72451C60.0435 7.05636 60.6879 6.26876 60.9092 6.21882C63.6847 5.57789 65.5852 6.01665 68.2773 5.54573C68.599 5.48914 67.8218 5.24048 68.7299 5.10286C74.8022 4.18262 81.2735 3.55811 87.3323 3.26388C88.2773 3.21753 87.6305 3.54379 87.6928 3.57051C88.7061 3.98469 89.2606 3.25074 89.5653 3.19707C91.9626 2.79237 94.2714 3.17042 95.8459 2.22952C105.924 1.68898 115.946 0.668109 125.953 0.89463C126.134 0.898603 126.314 0.903038 126.495 0.907947C126.626 0.910693 126.407 1.25563 126.667 1.2597C129.795 1.31787 129.171 0.824319 131.198 0.115688C131.708 -0.0622267 133.326 0.658418 133.464 0.711545C133.979 0.904892 133.465 1.41812 133.636 1.45355C135.051 1.7315 134.782 0.0873699 136.673 0.0451822C136.732 0.0466852 136.491 0.355346 136.65 0.382173C137.141 0.466582 137.643 0.336278 138.13 0.432202C139.25 0.655219 139.658 1.44892 141.338 0.9649C141.554 0.902867 141.205 -0.0317703 142.913 0.000833631C143.6 0.0121589 146.599 -0.00534689 147.427 0.0633225C148.27 0.12918 147.689 0.426922 147.748 0.440324C150.021 0.857298 149.156 1.01621 150.28 1.61969C151.398 2.22353 151.106 0.817648 151.568 0.668631C152.025 0.5193 153.682 0.882668 154.089 1.008C154.494 1.13239 153.98 1.31126 154.341 1.38497C156.726 1.87186 155.413 0.717865 156.208 0.518129C158.064 0.0482661 159.521 1.14541 161.203 1.32463C161.66 1.3735 161.297 1.11937 161.706 1.1166C163.317 1.11027 164.313 1.48841 166.165 1.30545C166.466 1.27511 168 0.748814 168.946 1.27888C169.079 1.35498 168.67 1.58451 169.36 1.69369C170.395 1.85682 172.218 2.06237 173.357 2.07932C174.186 2.09034 173.282 1.57858 174.304 1.80638C174.757 1.90851 173.885 2.07697 174.737 2.24844C175.578 2.41695 177.765 2.63257 178.602 2.72057C179.433 2.80556 179.016 2.43259 179.085 2.41842C179.508 2.33918 181.106 2.37348 181.247 2.39266C188.382 3.24416 194.805 4.90431 201.593 6.39195C202.135 6.51273 201.859 6.09211 201.942 6.10712C203.814 6.43493 202.147 6.94541 203.335 7.56863C203.33 6.85171 204.042 7.16309 205.326 7.443C205.956 7.5818 205.691 7.22866 205.755 7.21809C206.789 7.0873 207.27 7.78226 207.4 7.9333C207.885 8.49197 208.648 8.23859 208.99 8.62464C209.319 9.00516 208.265 9.07709 209.476 9.46001C209.892 9.33412 209.192 8.42503 210.145 8.62469C213.754 9.32128 219.901 12.4023 222.44 13.8474C224.986 15.231 225.838 15.7141 227.237 16.6877C229.729 18.507 229.044 17.4868 230.753 18.4418C232.43 19.4342 230.946 19.8021 231.01 20.1696C231.066 20.5365 231.459 20.515 231.63 20.8348C231.797 21.1527 231.137 20.8332 231.7 21.3659C232.261 21.879 234.13 22.9775 234.508 22.9926C235.32 23.0093 235.05 21.8683 236.387 23.5505C236.461 23.6479 235.964 23.573 236.26 23.9344C238.196 26.2964 240.012 28.8875 241.288 31.6804C241.58 32.3121 241.785 32.938 241.904 33.5514C241.99 34.0417 241.553 33.6905 241.593 33.9664C241.746 35.3987 241.691 35.8817 241.877 36.2133C242.031 36.5444 242.342 36.7619 242.427 37.6897C241.656 37.0842 241.109 37.8946 239.968 39.7107C239.248 40.7716 239.659 40.8119 239.272 41.6983C239.118 42.0084 238.332 42.4617 238.322 42.7158C238.296 43.53 239.509 43.3611 237.428 44.8453C237.334 44.9082 237.403 44.4357 237.094 44.6701C235.242 45.999 235.301 46.6946 233.193 48.1404C231.571 49.2511 228.26 50.6191 226.181 51.5313C225.787 50.6489 223.984 51.7428 223.492 52.6875C222.186 53.2407 220.646 53.9312 219.357 54.3517C218.907 54.4992 219.09 54.1225 219.023 54.1167C218 54.015 217.654 54.8478 217.37 54.9855C214.204 56.4753 211.566 56.8843 208.565 58.3988C208.464 58.4506 208.504 59.1488 207.538 58.9488C207.474 58.9337 208.382 58.3132 206.945 58.7596C205.524 59.2017 202.585 59.7486 200.711 60.6346C200.248 60.8526 199.166 61.7459 198.041 61.6276C197.891 61.6108 197.984 61.3827 197.761 61.3355C197.042 61.1873 196.888 61.9406 195.99 61.5952C195.105 61.2457 193.501 61.2509 191.55 62.1964C191.488 62.2254 191.143 62.8792 190.49 63.0461C189.44 63.3149 187.96 63.59 186.884 63.8731C186.37 64.0088 186.784 64.2476 186.696 64.2768C183.262 65.3586 180.707 65.6862 176.936 66.4554C176.243 66.5962 174.374 67.5073 172.962 67.4617C171.413 67.4115 172.544 65.4681 169.282 66.61C167.973 67.0657 166.693 69.4916 164.026 68.963C159.355 70.2483 154.873 70.6078 150.164 71.9298C149.954 71.9887 149.392 72.6934 148.891 72.7834C148.146 72.9162 147.698 72.726 147.146 72.8148C144.856 73.1752 142.878 73.788 140.721 74.1535C139.884 74.296 140.123 73.9653 139.131 74.1329C138.143 74.2996 137.554 74.7849 136.211 74.8469C135.21 74.8899 134.062 74.3269 132.695 74.4804C132.777 75.2252 131.842 75.3768 130.274 75.8523C129.974 75.9439 130.348 76.1424 130.208 76.199C129.632 76.4361 129.085 76.3126 128.511 76.5603C128.374 76.6197 128.411 76.8724 128.301 76.9351C127.367 77.479 125.674 77.1857 125.389 77.1325C124.284 76.9353 123.882 77.3398 123.058 77.3267C122.2 77.3191 123.414 76.9259 122.427 76.9993C120.352 77.1566 118.054 77.5757 115.95 77.9022C115.157 78.0265 115.752 78.2762 115.639 78.3018C114.829 78.4756 114.023 78.534 113.337 78.6476C112.565 78.7748 111.915 78.9566 111.512 79.3631C110.074 77.8102 110.674 79.6678 108.175 79.695C107.981 79.6957 107.609 78.9128 108.329 78.6796C109.132 78.4338 110.075 78.5509 111.049 78.2069C111.266 78.1282 112.513 77.1453 112.704 77.0671C114.063 76.4796 114.415 77.6787 114.509 77.733C115.446 78.3286 116.969 77.2339 117.412 77.1029C119.304 76.5266 120.934 76.4337 122.607 75.9611C123.672 75.6582 123.598 74.8462 124.432 74.7301C127.187 74.3446 128.458 75.2747 130.835 73.859C131.36 73.5531 130.636 72.7804 132.786 73.1073C132.912 73.1298 134.581 73.4801 135.328 72.9338C135.425 72.8644 135.376 72.6103 135.512 72.5635C136.429 72.2542 137.099 72.3415 138.126 72.0521C139.143 71.7646 140.433 71.375 141.594 71.246C142.308 71.1651 143.312 71.4657 143.676 71.5165C144.705 71.667 145.644 70.9184 146.329 71.2055C147.02 71.4933 145.94 72.3432 147.6 72.2934C147.529 71.622 147.53 70.9186 147.494 70.2366C150.917 69.5936 154.425 69.1099 157.863 68.3633C158.293 68.2692 157.779 68.0072 158.237 67.8971C160.179 67.4324 161.926 67.3242 163.914 66.7878C165.451 66.3712 167.087 65.6181 168.685 65.1594C169.845 65.688 172.199 64.8837 173.962 64.5421C174.58 64.4222 174.585 64.632 175.037 64.5944C176.741 64.446 175.812 63.9667 176.238 63.7556C178.061 62.8491 178.589 64.3062 180.85 63.7102C180.97 63.6797 182.24 62.5178 182.433 62.416C183.642 61.7678 182.717 62.6393 183.539 62.4939C185.038 62.2274 186.109 62.1544 187.756 61.4724C188.23 61.2742 189.31 60.4582 190.388 60.5758C190.53 60.5911 190.53 60.872 190.637 60.8594C192.574 60.6066 192.393 59.7699 193.369 59.1987C194.335 58.6301 196.135 58.7266 196.521 58.7905C197.52 58.9581 195.901 59.165 195.864 59.2196C195.443 59.8726 196.63 59.4423 197.556 59.2164C197.924 59.9802 199.187 59.5557 198.514 58.9785C198.439 58.9162 197.751 59.1995 197.556 59.2164C198.131 58.1949 199.491 57.6845 201.229 57.9544C202.044 58.079 201.487 58.6942 203.656 57.8566C204.634 57.4756 204.076 57.0491 204.9 56.621C206.753 55.6533 209.525 55.2906 211.519 54.491C212.238 54.2028 211.423 54.1587 211.909 53.9516C213.173 53.4082 214.453 53.1877 215.745 52.5625C215.862 52.5057 215.45 52.3108 215.86 52.1484C218.891 50.9338 221.709 49.9894 224.799 48.5166C226.348 47.7864 228.814 46.2852 230.301 45.4203C232.761 44.0561 236.065 42.1872 237.406 40.4391C238.366 39.1991 237.838 39.2678 237.994 38.669C238.274 37.5852 239.45 36.3095 239.561 36.0297C239.587 36.0211 239.437 37.0433 239.725 36.5464C240.143 36.2797 239.56 36.0338 239.561 36.0297C239.61 35.9589 239.717 35.4271 239.666 34.8436C239.629 34.2829 239.427 33.6796 239.312 33.4805C239.19 33.2683 238.952 33.5132 238.894 33.4051C238.824 33.2781 238.749 33.1493 238.667 33.0185C236.899 30.0978 234.765 27.4438 232.327 24.9114C232.284 24.8618 232.597 24.6776 232.493 24.5634C231.014 22.9545 229.633 22.4035 228.065 21.56C226.457 20.7003 225.342 19.8972 224.726 18.8192C223.535 18.1759 221.923 16.9898 220.973 16.332C220.01 15.6646 219.569 16.2158 219.475 16.1836C216.485 15.2366 214.944 14.1775 211.914 12.9968C210.455 12.4238 207.476 11.5548 205.845 11.1637C204.537 10.8435 203.803 10.4756 202.59 10.2594C202.425 10.2301 202.511 10.5659 202.459 10.5642C201.036 10.5679 201.859 10.0183 201.615 9.81865C200.711 9.09443 200.175 8.69353 198.383 8.51368C197.969 8.47117 196.562 9.25097 195.839 9.16325C194.883 9.0439 195.317 8.74296 194.303 8.63221C194.216 8.62269 194.188 8.85665 193.572 8.72491C190.747 8.12437 187.649 7.4648 184.629 7.05731C184.224 7.00192 184.69 7.44574 184.104 7.37238C181.335 7.02574 178.29 6.65051 175.578 6.20296C174.918 6.09247 175.36 5.87363 175.223 5.78188C174.381 5.22494 173.041 5.78908 172.829 5.78383C167.83 5.67543 163.985 4.81928 158.878 4.90633C158.59 4.91076 156.428 5.56629 155.494 4.91292C155.431 4.86917 154.5 4.19952 153.645 4.61954C153.592 4.64593 154.179 4.99011 153.142 4.93297C152.101 4.87604 150.467 5.06875 149.042 4.69111C148.596 4.57198 147.519 3.92045 146.192 4.42832C146.105 4.46262 144.043 5.61801 143.295 4.82596C143.178 4.69583 143.285 3.84888 141.694 4.29468C141.391 4.38143 141.945 4.56421 141.145 4.68968C139.923 4.88321 138.274 4.68166 136.76 5.08987C136.499 5.16172 135.396 5.75895 134.482 5.34849C134.339 5.28419 134.601 4.99531 134.123 4.97663C131.831 4.88747 129.492 5.15789 127.164 5.06173C126.429 5.03207 126.669 4.65193 126.114 4.51086C126.048 4.49388 125.971 4.48038 125.879 4.47138C125.025 4.38723 123.3 4.34988 122.414 4.60143C121.527 4.85298 122.542 5.52996 121.201 5.65409C115.405 6.19406 109.622 6.10569 103.819 6.45046C102.959 6.50189 103.69 6.71008 102.424 6.80575C97.7519 7.15051 89.7402 8.07784 85.6465 7.94219C82.3719 7.82719 86.4037 7.08206 83.9162 7.15316C82.7171 7.18921 81.5063 8.16756 81.2238 8.22492C78.4502 8.79671 76.4473 8.65313 73.9456 9.07685C73.4298 9.16482 73.9805 9.44107 73.5416 9.51232C72.0427 9.75898 70.4186 9.81696 68.9889 10.0401C68.3466 10.1413 68.5008 10.3838 67.9075 10.4458C66.4719 10.6002 65.1942 10.6744 63.7805 10.6398C63.6514 10.6367 64.4505 10.1875 63.4023 10.3336C61.7074 10.5713 59.5292 10.674 57.6458 11.2489C57.074 11.4232 57.1513 12.0139 55.835 11.8273C55.5605 11.7892 55.7621 11.0224 54.4307 11.8932C54.2091 12.036 51.9446 13.3079 50.6544 13.018C50.3148 12.9406 49.4025 12.5248 48.7379 12.7562C48.6485 12.7897 49.0832 13.0273 48.5252 13.1747C46.5075 13.7002 44.4543 14.1196 42.3997 14.7146C41.8581 14.873 42.7504 14.9994 41.9433 15.2254C39.7545 15.8393 36.9429 16.496 34.792 17.0202C33.9822 17.2174 34.4564 16.7916 34.3899 16.7799C33.3152 16.5897 32.964 17.3866 32.6737 17.5164C30.9025 18.3069 29.2918 18.5217 27.6634 19.1972C27.1908 19.3923 27.6386 19.5626 27.5527 19.6236C26.6651 20.2415 27.2004 19.4438 26.5595 19.617C24.7898 20.0936 22.8906 20.9033 21.2762 21.6934C20.6861 21.9837 21.5126 21.9997 20.9765 22.2604C17.7867 23.8262 14.6333 25.603 11.9899 27.492C11.4953 27.8475 11.6129 27.39 11.474 27.4215C10.5141 27.6257 9.95922 28.9984 9.82266 29.2307C9.13684 30.3194 8.60159 30.5766 7.99645 31.4735C6.55945 33.634 5.61961 36.1383 5.61571 38.8302C5.48887 40.6769 7.34548 43.0163 9.59007 44.6601C15.3863 48.7697 21.3739 50.8596 28.572 52.7459C29.0228 52.8583 28.6622 52.3811 29.052 52.4729C34.2227 53.7016 39.2755 54.8355 44.6068 55.5789C45.0383 55.639 44.4732 55.1928 45.1677 55.277C46.5816 55.4456 48.4536 55.738 49.8478 56.04C50.5422 56.1887 49.5597 56.3614 50.2608 56.5047C51.8853 56.8373 53.7211 57.0894 55.4083 57.2237C56.1347 57.2807 55.0834 56.7994 56.0243 56.9009C62.4866 57.5826 68.8262 58.0055 75.369 58.7813C75.8174 58.8341 76.1802 59.5851 77.1477 59.4846C77.2284 59.2844 77.2343 59.0451 77.2747 58.8292C86.7337 59.0955 96.1155 59.3424 105.598 58.9278C105.997 58.91 105.289 58.5559 106.06 58.5189C110.518 58.3007 114.866 57.8771 119.42 57.8021C119.869 57.7934 119.707 58.4998 121.042 58.2522C121.28 58.2095 123.278 57.8896 123.769 57.6776C123.836 57.6468 123.437 57.3746 124.073 57.2871C127.799 56.779 131.728 56.2564 135.391 55.7565C135.978 55.6768 135.42 56.1296 135.845 56.0742C138.931 55.6653 142.104 54.6747 144.924 54.2167C146.879 53.8848 146.34 54.6434 147.51 54.9004C147.679 54.9371 148.831 54.5915 148.99 54.8915C149.403 55.6474 149.12 56.7089 149.625 57.4941C149.738 57.6655 151.235 56.953 150.456 57.7031C150.404 57.7552 149.3 58.2712 149.054 58.5107C148.884 58.6778 149.349 58.8932 148.976 59.1542C148.601 59.4151 148.061 59.2775 147.402 59.6376C146.744 59.9963 147.136 60.2962 145.792 60.7055ZM216.562 13.4935C215.695 12.7768 215.097 13.825 216.27 14.0037C216.327 14.0112 216.607 13.5297 216.562 13.4935ZM154.571 69.9928C156.067 70.2266 156.869 69.2682 155.802 69.0718C154.738 68.8748 154.117 69.922 154.571 69.9928ZM140.075 73.2055C141.824 73.3025 141.758 71.5888 140.048 72.2569C139.948 72.2954 139.973 73.1999 140.075 73.2055ZM142.873 56.3415C142.892 56.3538 143.747 56.1535 143.762 56.1325C144.118 55.6501 142.417 56.0499 142.873 56.3415ZM125.619 76.2078C126.167 76.3474 127.627 75.8272 126.93 75.6576C126.364 75.5222 124.932 76.0354 125.619 76.2078ZM161.222 1.91011C161.205 1.89135 160.574 1.8467 160.582 1.94808C160.611 2.27395 161.493 2.22277 161.222 1.91011ZM100.907 80.1262C104.575 79.6634 106.89 80.7298 103.024 81.1413C102.352 81.2106 104.393 80.489 103.52 80.4893C101.845 80.5019 100.684 81.5585 99.0616 81.3063C98.5448 81.2916 100.748 80.1437 100.912 80.1235C100.91 80.1244 100.908 80.1253 100.907 80.1262ZM216.541 11.9272C216.528 11.9036 215.716 11.5563 215.689 11.5636C215.106 11.7366 216.736 12.4326 216.541 11.9272ZM124.161 1.34088C124.112 1.3089 122.071 1.37417 122.004 1.40899C120.971 2.07989 125.096 1.94946 124.161 1.34088ZM226.137 51.5237C225.372 52.3152 224.393 52.8119 223.496 52.6861C224.377 52.321 225.201 51.9463 226.137 51.5237Z" fill="white"/>
</svg>
