<svg width="189" height="164" viewBox="0 0 189 164" fill="none" xmlns="http://www.w3.org/2000/svg">
<path d="M33.6701 60.8265C36.2488 57.9509 39.8958 54.441 42.7408 51.8448C43.6319 51.0307 43.4345 51.6898 44.0599 51.1377C45.2828 50.0578 46.2277 48.8626 47.4541 47.8129C47.8617 47.4661 47.7604 48.2927 48.1795 47.9211C50.4735 45.8818 52.4008 43.7162 54.6397 41.5678C58.4894 37.8742 62.2873 34.1745 66.0661 30.4584L72.5029 34.5141C68.8806 43.7101 65.3424 52.931 61.7227 62.3237C59.8896 67.0816 57.3181 72.739 55.6852 77.7494C55.495 78.3344 56.0367 78.1434 56.0304 78.2657C55.9198 80.1799 55.293 79.299 54.7676 80.3819C53.1331 83.7554 51.6323 87.5277 50.375 91.0986L45.838 88.3935C46.5131 87.6047 47.1657 86.8233 47.7891 86.0602C49.0204 84.551 47.0712 85.4346 48.7367 84.2901C48.8517 84.21 48.8775 84.891 49.268 84.5236C50.1528 83.6898 51.608 81.9113 52.2562 81.232C53.507 79.9244 53.7012 79.6968 54.8358 78.4173C56.3899 76.6707 58.4033 74.7388 59.9817 72.7865C60.3176 72.3688 59.4878 72.5824 59.9908 71.8876C60.4945 71.1923 62.0198 69.523 62.6088 69.0261C63.198 68.5291 63.2673 69.0228 63.4215 68.9789C64.7046 68.63 65.6729 65.9976 65.8764 65.7286C69.6119 60.8429 73.5234 57.2773 77.3295 52.9552C80.218 49.6733 83.1655 46.0397 85.9352 42.9358C89.2365 39.239 92.2091 36.2599 95.3586 32.6177C95.6914 32.2337 94.873 32.3063 95.2786 31.8365C99.5883 26.8458 103.963 21.9739 108.59 17.3007C109.055 16.8323 108.866 17.7975 109.353 17.3493C109.353 17.3489 109.354 17.3485 109.354 17.3481L112.678 19.4873C110.658 22.9955 107.158 28.4084 108.154 31.4756C106.962 33.9306 105.528 36.9172 104.132 38.966C103.232 40.2872 103.363 38.6711 102.783 40.5296C102.652 40.9485 103.316 40.625 103.087 41.2385C102.119 43.8214 100.749 46.5028 99.8588 49.088C99.6787 49.6143 100.128 49.65 100.134 49.8245C100.16 51.2815 98.3274 52.8663 98.0637 53.2727C96.0667 56.372 95.1775 58.8903 93.7765 61.9834C93.4512 62.7011 94.3528 62.0844 94.0585 62.7834C92.525 66.4054 90.8144 70.1027 89.0087 73.5129C88.6057 74.271 88.4843 73.3534 88.2691 73.7055C87.3254 75.2602 87.9996 76.0007 87.1108 77.499C86.9245 77.8154 86.6288 77.4576 86.5599 77.4997C85.4793 78.1569 86.0367 79.3986 85.9476 79.6523C84.8414 82.8706 82.9871 84.4136 81.7852 87.463C81.6424 87.8283 82.4841 87.2375 82.0533 88.2511C79.1861 95.0046 75.8814 102.025 72.5278 108.479C72.007 109.483 71.9756 108.586 71.9021 108.631C70.7334 109.376 71.3585 110.477 71.243 110.828C70.3079 113.592 68.4174 115.717 68.72 118.015C65.1646 125.271 62.0537 132.7 58.643 139.972L55.2289 138.073C57.6388 134.633 60.122 131.25 62.7754 127.988C62.8727 127.867 63.1338 128.378 63.326 128.135C65.6445 125.205 64.5966 125.361 65.1839 122.783C65.3325 122.134 67.3457 121.214 67.5093 121.123C68.1083 120.792 68.3747 121.734 68.5389 121.599C69.8758 120.466 67.672 119.31 68.945 117.423C68.9882 117.366 69.1982 117.869 69.3426 117.736C69.7925 117.323 69.9719 116.734 70.4268 116.341C71.4711 115.442 72.7321 115.722 73.2884 113.648C73.357 113.384 71.9746 112.924 73.1667 111.277C73.6429 110.621 75.6296 107.635 76.2674 106.853C76.9044 106.072 76.8934 106.896 76.9497 106.848C78.9586 104.941 78.5901 105.929 80.0819 105.301C81.5709 104.672 79.6177 103.806 79.7322 103.217C79.8478 102.628 81.3663 101.26 81.7811 100.952C82.1959 100.644 82.094 101.308 82.4168 101.004C84.5494 98.9785 82.257 99.375 82.5098 98.404C83.1031 96.1127 85.368 95.5453 86.6375 93.938C86.9809 93.5031 86.4342 93.6781 86.682 93.2517C87.6674 91.5654 88.7266 90.8662 89.5974 88.7788C89.7401 88.4375 89.9659 86.4272 91.1855 85.8506C91.3597 85.7699 91.4205 86.3744 91.9575 85.7347C92.76 84.7794 94.0815 82.974 94.7201 81.7958C95.1915 80.9258 94.0291 81.503 94.8876 80.587C95.2694 80.1802 95.0087 81.236 95.7002 80.4541C96.3886 79.6767 97.8478 77.486 98.3975 76.6486C98.946 75.8126 98.2371 75.9943 98.2552 75.9091C98.3734 75.3989 99.2529 73.6776 99.3483 73.5374C104.085 66.4158 109.176 60.3374 113.611 53.2843C113.96 52.7312 113.292 52.8053 113.34 52.718C114.414 50.7438 114.556 52.9677 115.808 51.9276C114.82 51.5331 115.493 50.8739 116.28 49.504C116.659 48.8434 116.094 48.961 116.098 48.8805C116.222 47.605 117.315 47.397 117.562 47.32C118.472 47.0344 118.344 45.9689 118.957 45.7704C119.568 45.5707 119.399 46.8652 120.238 45.6084C120.167 45.0489 118.733 45.4347 119.245 44.3955C119.9 43.0625 120.928 41.458 122.079 39.8091L124.825 41.1172C123.632 44.8352 122.045 48.8495 121.326 51.0326C120.24 54.3333 119.979 55.4269 119.261 57.3245C117.965 60.7522 119.045 59.68 118.7 61.9484C118.354 64.2231 116.977 62.6475 116.517 62.8497C116.059 63.0461 116.332 63.4961 116.015 63.8174C115.699 64.1376 115.701 63.237 115.354 64.1105C115.006 64.9846 114.909 67.6344 115.194 68.0684C115.799 68.9865 116.983 68.1395 115.963 70.4222C115.904 70.5533 115.592 69.9746 115.388 70.4835C113.782 74.5303 112.449 78.8366 110.884 82.8904C110.669 83.4475 110.327 82.7867 110.195 83.1092C108.827 86.4685 110.04 85.4879 110.395 87.665C109.286 86.8631 108.209 87.6801 107.405 90.3007C106.92 91.8759 107.544 91.769 107.615 92.9047C107.637 93.2456 106.926 94.2483 107.119 94.5278C107.748 95.4473 108.998 94.6794 107.805 97.271C107.751 97.3842 107.411 96.8681 107.259 97.2696C106.273 99.8647 107.046 100.446 106.28 103.343C105.68 105.613 103.935 109.445 103.072 111.975C101.696 111.498 101.28 114.01 101.942 115.281C101.399 116.928 100.908 118.737 100.288 120.3C100.075 120.838 99.7817 120.353 99.717 120.409C98.7092 121.269 99.4238 122.274 99.3516 122.643C99.0694 124.009 98.6881 125.253 98.2912 126.455L96.572 125.579C98.083 123.674 99.5952 121.932 100.75 119.614C100.812 119.488 100.139 118.701 101.352 118.32C101.433 118.297 101.03 119.595 102.156 118.163C103.282 116.731 105.783 114.317 106.933 112.017C107.212 111.46 107.49 109.73 108.75 109.125C108.92 109.046 109.042 109.365 109.315 109.272C110.19 108.965 109.629 108.013 110.869 107.811C112.108 107.61 113.765 106.495 114.824 104.099C114.859 104.023 114.577 103.054 115.07 102.421C115.858 101.412 117.088 100.063 117.89 98.9934C118.273 98.4809 117.625 98.5048 117.685 98.4106C120.053 94.8062 122.257 92.6319 125.19 89.0698C125.729 88.4174 126.645 86.0659 128.064 85.0868C129.62 84.0107 130.478 86.9717 132.497 83.3217C133.313 81.8507 132.084 78.2804 135.183 76.8695C138.36 71.9944 142.258 68.2105 145.308 63.2188C145.445 62.9946 145.247 61.8072 145.627 61.3232C146.193 60.6057 146.821 60.4517 147.236 59.9473C148.981 57.8398 150.21 55.6328 151.842 53.5621C152.346 52.9209 152.523 53.157 152.971 52.7582L152.713 52.6296C152.651 52.7507 152.587 52.9073 152.523 53.1185C152.174 54.2594 152.492 55.1766 151.792 56.6579C151.261 57.7762 149.834 58.6393 149.263 60.1617C150.325 60.5278 149.999 61.5919 149.743 63.5755C149.694 63.9569 150.181 63.6715 150.177 63.8574C150.171 64.6165 149.674 65.1796 149.695 65.9081C149.699 66.0851 150.066 66.1974 150.09 66.3481C150.311 67.6328 148.953 69.2599 148.718 69.5388C147.821 70.6091 148.138 71.3182 147.655 72.1972C147.172 73.0748 147.301 71.5943 146.859 72.6538C145.942 74.8501 145.171 77.7879 144.498 80.0919C144.232 81.0118 144.902 80.5231 144.875 80.658C144.459 82.5983 143.388 84.376 144.068 85.7106C141.159 86.3114 143.987 86.9291 142.706 89.5078C142.604 89.7106 141.329 89.6431 141.387 88.7697C141.445 87.8963 142.174 86.7541 142.225 85.5338C142.238 85.2449 141.556 83.3761 141.548 83.1454C141.487 81.338 143.344 81.612 143.467 81.5523C144.81 80.8601 144.139 78.6226 144.198 78.1001C144.463 75.7098 145.266 73.8429 145.535 71.857C145.713 70.5587 144.575 70.1034 144.89 69.1335C145.934 65.9094 147.893 65.2371 147.347 61.764C147.232 61.0198 145.765 61.3097 147.443 59.2374C147.548 59.1073 148.968 57.618 148.672 56.4405C148.635 56.2925 148.26 56.1904 148.277 56.0139C148.393 54.8331 148.903 54.1686 149.108 52.9046C149.172 52.512 149.236 52.0935 149.309 51.6623L155.795 54.8903C155.297 55.7234 154.733 56.5979 154.057 57.342C153.467 57.993 152.213 58.4532 151.819 58.6808C150.699 59.3174 150.602 60.8337 149.668 61.0462C148.727 61.2618 148.845 59.5406 147.357 60.8454C148.119 61.5105 148.846 62.266 149.586 62.9694C146.998 66.3372 144.22 69.4754 141.688 72.9028C141.375 73.3283 142.133 73.2239 141.808 73.6885C140.437 75.6473 138.871 77.0798 137.501 79.15C136.442 80.7537 135.633 82.7781 134.54 84.4658C132.88 84.7479 131.4 87.359 130.013 89.0207C129.527 89.6032 129.312 89.377 128.907 89.7462C127.386 91.1435 128.773 90.9984 128.566 91.5396C127.672 93.8597 125.707 92.6316 124.054 94.9146C123.966 95.035 123.849 97.2328 123.758 97.4795C123.195 99.055 123.257 97.4323 122.583 98.1751C121.35 99.5311 120.352 100.366 119.349 102.291C119.058 102.854 118.768 104.511 117.564 105.121C117.406 105.202 117.135 104.886 117.038 104.974C115.321 106.589 116.305 107.408 115.85 108.728C115.395 110.049 113.455 111.154 113.001 111.334C111.818 111.809 113.28 110.497 113.265 110.411C113.07 109.393 112.274 110.667 111.534 111.54C110.434 110.917 109.531 112.237 110.77 112.448C110.907 112.469 111.35 111.688 111.534 111.54C111.91 113.081 110.978 114.578 108.891 115.434C107.914 115.834 107.931 114.771 106.451 117.111C105.78 118.172 106.76 118.306 106.282 119.33C105.189 121.668 102.57 123.8 101.103 125.954C100.571 126.735 101.502 126.286 101.151 126.83C100.822 127.341 100.46 127.796 100.089 128.235L94.0743 125.172C94.4321 124.186 94.8318 123.238 95.0429 122.14C95.072 121.986 94.4881 122.207 94.6377 121.693C95.7628 117.796 97.0933 114.509 98.3338 110.46C98.9329 108.504 99.7362 104.925 100.405 102.913C101.562 99.4248 103.565 95.3103 104.311 92.257C104.799 90.2662 104.196 90.5519 104.128 89.6148C103.996 87.8055 105.987 85.2799 106.278 84.9466C106.287 84.9366 105.886 86.6556 106.402 85.8303C107.067 85.4614 106.274 84.9663 106.278 84.9466C106.467 84.7273 107.598 81.3937 107.71 80.6978C107.771 80.3195 107.261 80.3864 107.302 80.1917C108.269 75.5685 109.526 71.0248 111.124 66.5233C111.158 66.4457 111.623 66.7192 111.695 66.5348C112.722 63.9596 112.623 62.0807 112.922 59.7902C113.22 57.5001 113.868 55.8087 115.121 54.7804C115.513 53.103 116.611 50.8594 117.254 49.572C117.898 48.2846 116.98 47.7984 116.997 47.6731C117.438 44.3199 118.392 42.3833 119.451 39.4828L126.735 42.9525C126.423 43.3638 126.101 43.7999 125.767 44.2721C124.655 45.8389 122.645 49.0796 121.574 50.8656C120.729 52.2781 119.977 52.9651 119.256 54.3058C119.158 54.4871 119.65 54.5697 119.63 54.6313C119.135 56.3363 118.669 55.0417 118.309 55.2199C117.003 55.8649 116.248 56.2978 115.318 58.2816C115.103 58.7388 115.614 60.8389 115.183 61.6455C114.619 62.6926 114.394 62.0018 113.816 63.1063C113.766 63.2005 114.071 63.38 113.63 64.0051C111.588 66.909 109.252 70.0011 107.218 73.0779C106.939 73.4975 107.765 73.2759 107.369 73.8873C105.513 76.7555 103.401 79.847 101.321 82.4582C100.808 83.0999 100.77 82.4546 100.574 82.5367C99.3783 83.0467 99.3616 84.9033 99.2349 85.1259C96.2339 90.4515 92.8557 93.7972 89.7469 99.1913C89.5793 99.486 89.0341 102.258 87.6034 102.692C87.5069 102.723 86.0651 103.135 86.0432 104.346C86.0421 104.421 86.854 104.106 86.1132 105.113C85.3725 106.12 84.5225 107.971 83.1099 109.089C82.6633 109.443 81.1473 109.97 80.8756 111.743C80.8608 111.86 80.8972 114.905 79.4059 114.976C79.1617 114.986 78.1974 114.152 77.6525 116.119C77.5499 116.495 78.1595 116.097 77.7606 117.003C77.1508 118.392 75.7634 119.841 75.2042 121.677C75.1079 121.998 75.0579 123.608 73.9062 124.148C73.7258 124.233 73.5574 123.727 73.1954 124.179C71.4723 126.326 70.0992 128.865 68.2982 131.01C67.661 131.77 67.377 130.97 66.6498 131.719C65.9226 132.47 64.6171 134.089 64.2736 135.155C63.9301 136.222 65.4906 135.857 64.6604 137.242C63.6344 138.954 62.5433 140.616 61.4152 142.249L51.8315 136.919C53.9237 132.379 56.2771 127.974 58.3873 123.429C58.8247 122.487 58.1171 123.113 58.7361 121.714C61.0167 116.554 64.6664 107.516 67.4238 103.388C69.6329 100.08 68.0751 104.79 69.547 102.166C70.2559 100.898 69.7406 98.9529 69.847 98.618C70.8724 95.3399 72.3535 93.4061 73.4519 90.5344C73.6786 89.9413 72.9561 90.2988 73.1542 89.7964C73.8266 88.0783 74.8277 86.4044 75.5096 84.7803C75.8145 84.0512 75.3973 84.0238 75.7222 83.3727C76.4955 81.8132 77.2748 80.4769 78.3034 79.0797C78.3972 78.9523 78.4158 80.1027 78.9586 78.9357C79.8359 77.0464 81.2238 74.8353 81.8624 72.4955C82.0504 71.8007 81.2445 71.409 82.434 70.2672C82.6829 70.0275 83.4971 70.8405 83.3772 68.8359C83.3587 68.4995 83.438 65.2577 84.7755 64.2488C85.1278 63.9824 86.335 63.4404 86.5585 62.6036C86.5858 62.4888 85.9568 62.7159 86.2038 62.0502C87.0816 59.7073 88.1987 57.3402 89.1102 54.9376C89.3528 54.2956 88.4813 55.0232 88.8573 54.0729C89.8906 51.4593 91.4398 48.3123 92.7048 45.8705C93.172 44.9707 93.2622 45.7778 93.3332 45.729C94.4837 44.9466 93.871 43.9047 93.9793 43.5225C94.6652 41.1508 95.8489 39.6411 96.6587 37.5345C96.8833 36.9537 96.2743 37.164 96.2867 37.0339C96.4383 35.6949 96.817 36.9127 97.2342 36.2091C98.4056 34.2391 99.409 31.9076 100.296 29.782C100.621 29.001 99.7351 29.6456 100.033 28.9473C101.784 24.8096 103.741 20.5695 105.808 16.6917C105.859 16.5968 105.906 16.5251 105.95 16.472L114.886 22.2226C114.501 22.4749 114.502 21.9777 114.341 22.0348C113.054 22.4814 112.591 24.3896 112.392 24.7472C111.488 26.3742 110.743 26.6589 109.734 27.9093C104.807 34.0222 98.2201 41.1261 93.2115 46.5808C86.6867 53.6905 81.438 59.0439 75.4333 66.0154C75.0513 66.4581 75.8597 66.3846 75.5358 66.771C71.3343 71.7428 66.9351 76.4058 62.745 81.405C62.4004 81.8145 63.3072 81.5855 62.7675 82.2546C61.6632 83.6296 60.1663 85.285 58.862 86.5098C58.2266 87.1078 58.6564 85.9334 58.0238 86.5416C56.55 87.9568 55.0787 89.5696 53.7596 91.1949C53.1991 91.8874 54.4928 91.2375 53.7327 92.1096C53.2002 92.7223 52.669 93.3341 52.1382 93.9448L42.4957 88.1957C44.8871 81.5673 47.2847 75.0298 50.3439 68.544C50.5778 68.0483 51.7751 67.9789 51.9786 66.8168C51.7225 66.6293 51.384 66.5096 51.0912 66.3611C54.8924 55.5354 59.1756 45.0121 63.208 34.2373C63.3779 33.783 62.5415 34.3682 62.8676 33.4875C63.1427 32.7447 63.4131 32.0037 63.6822 31.2644L72.8048 37.0125C69.6026 40.3314 66.4673 43.6205 62.8013 46.6803C62.3762 47.0362 61.8388 46.1188 60.8165 47.3922C60.6369 47.6174 59.0278 49.4678 58.746 50.0767C58.7101 50.1617 59.3645 50.1751 58.8244 50.7504C55.6799 54.0876 52.2518 57.4556 48.8512 60.5328C48.3018 61.0288 48.485 60.1097 48.0905 60.4599C45.2946 62.9466 42.742 66.1265 39.9241 68.3604C38.0366 69.8544 38.0215 68.6069 36.5158 68.9119C36.303 68.9552 35.2586 70.0013 34.8438 69.7044C33.7979 68.9609 33.3016 67.4795 32.1277 66.7477C31.8758 66.5891 30.7204 68.2269 31.0332 66.8961C31.0565 66.8046 31.8897 65.613 31.9651 65.1931C32.0184 64.9017 31.3415 64.862 31.5402 64.3547C31.739 63.8477 32.4318 63.7519 32.8343 62.9821C33.2344 62.2104 32.561 62.0659 33.6701 60.8265ZM120.146 43.773C120.997 42.6585 119.336 41.9508 119.333 43.4354C119.335 43.5079 120.103 43.8308 120.146 43.773ZM143.154 68.6407C141.487 69.5345 141.708 71.1739 142.926 70.5752C144.143 69.9763 143.661 68.3676 143.154 68.6407ZM153.427 54.0775C151.719 55.3036 153.559 57.0893 154.444 55.0633C154.496 54.946 153.526 54.0057 153.427 54.0775ZM40.4401 64.523C40.4103 64.5194 39.6529 65.2649 39.6521 65.2996C39.6662 66.1025 41.1805 64.6116 40.4401 64.523ZM147.584 68.7385C148.086 68.2298 148.197 66.3854 147.573 67.0174C147.07 67.5262 146.959 69.3722 147.584 68.7385ZM87.3943 94.3824C87.3606 94.3847 86.9144 95.0025 87.0483 95.0744C87.4807 95.3039 87.96 94.3485 87.3943 94.3824ZM139.399 97.6439C140.705 93.4006 143.462 91.3867 141.913 95.9712C141.632 96.8014 141.784 93.9733 141.297 94.9932C140.408 96.8596 141.307 98.5225 140.058 100.33C139.831 100.657 139.32 97.8846 139.399 97.6355C139.399 97.6383 139.399 97.6411 139.399 97.6439ZM122.428 43.6762C122.458 43.658 122.787 42.6557 122.771 42.6246C122.392 41.9125 121.731 43.9317 122.428 43.6762ZM61.6033 130.601C61.5288 130.621 60.1204 132.623 60.1143 132.715C60.1722 134.294 63.022 130.249 61.6033 130.601ZM103.022 112.004C103.236 113.272 102.9 114.608 101.945 115.276C102.314 114.193 102.654 113.094 103.022 112.004Z" fill="#E6FF43"/>
<path d="M59.6644 35.3975C60.4702 35.4831 61.5126 36.0854 62.4427 36.2898C66.3383 37.1501 67.7361 37.7008 71.2469 38.5494C76.4524 39.8081 92.1315 42.3803 91.6084 45.0325C91.6084 45.0326 91.6084 45.0326 91.6084 45.0327C91.6033 45.0587 91.5966 45.0847 91.5883 45.1107C91.434 45.6052 90.0001 45.8954 89.6906 46.428C89.3815 46.9609 88.8006 50.6803 86.8776 50.5165C84.0947 50.2515 77.7351 48.0136 76.2713 47.7684C75.2706 47.601 73.9794 47.6948 72.6953 47.5033C68.555 46.8859 66.4568 46.217 62.5809 46.3991C61.1973 45.6272 59.8136 44.8552 58.43 44.0833C56.4571 43.9254 53.6585 42.7152 52.4798 42.5189C51.5128 42.3579 50.8744 42.6265 49.8689 42.4465C48.7408 42.2467 47.0957 41.4962 45.0393 41.1547C41.6684 40.5928 40.8766 41.4658 38.841 41.1949C36.7302 40.9137 33.5937 39.7355 30.8643 39.5591C30.5091 39.6023 30.1539 39.6454 29.7987 39.6886C29.9891 39.9822 30.1796 40.2758 30.37 40.5695C29.0073 40.4198 28.5307 39.801 27.3011 39.5489C25.8545 39.252 25.0208 39.5851 24.0463 39.3905C23.2481 39.2307 22.241 38.633 21.2006 38.4528C19.6843 38.188 19.9051 38.8076 19.0722 38.751C18.7401 38.7274 12.6866 37.8509 12.3476 37.7886C11.94 37.7117 11.595 37.627 11.2949 37.5368L16.0452 28.1323C17.1601 29.3706 17.109 30.0787 18.369 31.3078C22.5226 35.3554 27.3359 38.9093 31.4526 42.353C33.2909 43.8906 35.1043 45.6094 36.7827 47.3116C32.6718 46.2353 37.7737 52.9875 37.5671 48.6014C39.23 50.7189 41.1842 51.3725 42.9472 53.176C44.0869 54.343 44.629 55.4205 46.3529 56.9814C49.4136 59.7491 53.5686 61.8936 52.9554 64.3231C56.7929 67.3045 59.3491 70.7262 61.9521 70.4665C62.9543 71.2216 64.5338 74.2379 65.4613 75.2995C65.7086 75.5823 66.4539 76.3608 67.4239 77.3588L69.3859 79.2175L68.3902 81.5843C66.8811 84.7944 64.5521 89.8733 64.0889 90.9746C63.4441 92.5079 62.3334 95.1991 61.9718 96.5631C61.5146 98.2755 62.9337 100.168 59.577 102.199C58.4016 105.652 57.8568 106.832 56.3438 109.876C56.0699 110.427 55.7185 110.361 55.5852 110.694C55.311 111.379 55.0852 112.641 54.6252 113.877C53.8685 115.908 52.7241 116.782 53.8603 116.976C53.5052 118.373 53.1501 119.769 52.795 121.166C52.4069 121.55 52.0188 121.935 51.6307 122.319C51.5671 123.117 51.5036 123.914 51.44 124.711C50.2589 123.272 49.156 128.621 50.6732 127.348C49.3314 129.794 47.9897 132.24 46.6479 134.686C45.0704 133.638 44.1911 140.252 45.3291 140.12C45.21 140.414 45.091 140.708 44.9719 141.001C43.4842 143.394 42.9122 145.909 41.3493 148.926C39.7866 151.942 39.7369 151.581 38.5634 152.219C38.3133 152.976 38.0631 153.732 37.8129 154.489C38.3075 158.276 36.1883 157.647 34.809 160.952L31.4542 158.596C32.1397 158.005 32.8954 157.166 33.733 155.937C36.416 155.516 40.1098 151.197 42.603 148.383C42.8931 148.055 42.7092 147.837 43.083 147.387C43.9993 146.289 46.9396 144.164 46.236 143.559C47.3464 142.927 48.4568 142.295 49.5672 141.664C50.219 140.86 50.8708 140.056 51.5227 139.252C51.328 139.041 51.1333 138.83 50.9386 138.619C53.1254 137.983 55.2897 135.555 56.6362 134.67C56.9047 134.495 57.2191 134.745 58.0276 134.17C58.9739 133.5 60.5004 131.985 61.6086 131.165C61.7159 130.482 61.8232 129.799 61.9304 129.117C63.607 127.307 65.0216 127.598 66.1588 126.707C66.3632 126.546 69.847 123.335 70.0212 123.147C71.4521 121.612 70.3541 121.268 75.0095 117.41C75.8389 116.723 76.7161 116.399 77.4518 115.763C78.7521 114.639 82.1057 110.62 81.9344 109.815C83.6298 109.25 86.4238 106.661 88.2174 105.148L90.7069 103.011L93.3411 104.698C93.8706 105.044 94.3043 105.342 94.5723 105.572C94.9527 105.9 94.7489 106.444 95.9826 107.346C96.9825 108.078 99.9306 109.357 101.225 110.244C102.597 111.187 102.851 111.906 103.468 112.325C104.051 112.721 104.806 112.732 105.622 113.237C108.164 114.819 110.147 116.771 112.156 118.021C115.061 119.832 118.236 120.442 120.941 121.511C121.508 121.946 121.973 122.522 122.607 122.915C128.132 126.347 134.112 130.162 139.875 133.887L134.21 138.429C133.334 135.703 132.477 133.013 131.656 130.416C130.36 126.322 128.341 115.726 126.821 119.266C125.904 118.004 123.348 107.411 122.689 105.456C122.03 103.502 121.056 102.108 120.52 100.578C119.867 98.7146 119.346 97.0549 118.803 95.3767L117.755 92.1616L120.443 90.3756C122.618 88.9388 124.818 87.4463 127.604 85.2301C128.81 84.2692 129.853 82.8796 130.607 82.3675C131.515 81.7517 132.789 81.5195 133.978 80.74C136.81 78.8784 141.907 75.1476 144.634 73.3771C145.133 73.0548 145.57 73.3214 146.352 72.9596C149.397 71.5523 152.418 69.4069 151.03 68.55C154.998 66.8414 157.785 63.9785 160.989 61.7093C166.876 57.544 177.189 50.7322 183.464 45.9834L187.311 55.1657C186.152 55.4403 185.098 55.7091 184.18 55.9687C179.776 57.2152 180.017 57.8513 173.314 58.5462C171.826 58.7005 170.336 58.8097 168.532 58.9995C164.303 59.4428 160.253 58.9583 157.361 61.0304C152.667 61.5356 149.038 62.5098 145.368 61.9138C145.022 62.2917 144.675 62.6695 144.328 63.0474C143.763 63.1633 143.198 63.2793 142.633 63.3952C142.401 63.1425 142.169 62.8898 141.938 62.6371C137.864 63.3373 132.939 65.5012 129.502 66.1505C126.702 66.68 121.74 67.5148 116.742 68.3089L111.824 69.1606L111.184 64.3796C110.547 59.0613 109.957 53.705 109.727 50.847C109.49 47.8963 108.848 47.8331 109.864 45.9687C109.677 45.3292 109.489 44.6896 109.301 44.0501C108.961 43.6838 108.621 43.3174 108.281 42.951C107.701 39.2073 107.457 34.6993 106.91 31.1319C105.913 24.6316 103.664 14.9847 103.174 8.37929C103.052 6.72292 103.315 4.58936 103.064 2.98719C102.987 2.49184 102.88 2.08265 102.753 1.71702L109.814 2.30541C109.62 3.72626 109.923 4.7275 109.201 6.97305C107.619 11.8866 103.559 20.6715 102.119 25.3337C101.69 26.7182 101.82 27.4723 101.544 28.4349C100.392 32.4726 99.29 35.7364 98.5613 39.7315C96.3378 43.5483 95.323 42.8225 93.7641 43.7198C92.5863 44.4011 89.6197 46.7017 88.7275 46.8737C88.1007 46.9945 87.78 45.6702 87.0609 45.8917C88.2089 40.8214 89.3999 38.9238 91.5312 35.2002C93.9187 27.8154 96.3061 20.4307 98.6936 13.0459C99.2323 12.4796 99.7709 11.9132 100.31 11.3469C100.31 11.3471 100.311 11.3473 100.312 11.3475C101.609 8.6363 101.182 7.16689 101.497 5.57852C101.836 3.87218 102.273 2.00069 102.79 -1.8239e-05L110.062 0.606034C113.553 16.5777 116.229 42.0246 118.303 56.9224C118.485 58.2213 118.888 60.5599 119.324 63.1422L115.194 60.2221C119.767 59.2686 125.111 58.184 126.753 58.2247C127.417 58.242 127.691 58.7158 128.373 58.6081C134.37 57.1468 140.366 55.6855 146.363 54.2243C158.965 52.6289 171.711 49.5127 184.234 46.9889C184.719 46.8911 185.204 46.7933 185.689 46.6956L188.363 53.081C167.216 67.9834 146.247 82.8059 125.27 97.3695L126.835 92.6001C129.496 100.229 132.131 107.851 134.735 115.472C136.858 121.689 139.948 129.442 141.813 135.602C141.832 135.663 141.85 135.723 141.867 135.782L145.845 146.944L135.627 140.785C133.526 139.334 132.956 138.071 129.708 136.78C129.794 136.57 129.879 136.36 129.965 136.151C127.203 134.767 125.262 134.169 122.297 132.404C119.801 130.917 113.238 126.915 111.097 125.496C109.985 124.761 110.627 124.666 109.569 124.016C107.755 122.908 103.586 121.018 101.088 119.481C98.8261 118.088 95.2647 115.329 93.4888 114.317C92.0184 113.479 90.5054 112.643 88.9674 111.801L93.7617 111.38C89.5805 115.501 85.2524 119.873 80.6446 123.775C78.9908 125.174 76.5497 126.62 76.053 127.082C75.0843 127.986 75.1393 128.642 74.5195 129.284C71.3699 132.543 65.6902 136.759 62.3637 139.685C53.6231 147.374 44.6004 155.584 35.7694 163.447L28.7813 158.541C29.8348 155.904 30.8874 153.29 31.9386 150.712C35.3677 142.303 40.8865 128.257 44.3679 120.619C45.1188 118.972 45.4752 119.634 46.039 118.224C46.664 116.661 46.641 115.67 46.9038 114.928C48.7214 109.791 52.8201 98.4837 55.099 93.8585C55.5336 92.9777 56.2169 92.486 56.4332 91.941C56.5434 91.6655 56.5061 90.9285 56.8228 90.0519C58.3466 85.8331 59.7511 82.2794 61.2142 78.7139L62.2087 83.0629C59.8534 80.8707 57.5047 78.6373 54.8305 76.1272C43.5728 65.5632 29.9852 53.9174 18.2264 42.746C15.6644 40.312 14.4792 38.0176 14.1064 37.6889C13.2896 36.9666 12.3689 36.9393 10.639 35.5588C10.3765 35.349 10.1117 35.1339 9.84484 34.914L-2.86102e-06 26.0326L13.0736 28.5217C20.2267 29.5544 29.2499 31.9167 35.8438 32.9246C39.2573 33.4468 44.0562 33.6159 47.4198 34.1074C50.1063 34.4999 56.3313 36.0331 57.5753 35.9371C58.3318 35.8801 58.7896 35.3078 59.6644 35.3975ZM47.8427 59.0234C46.7849 59.4645 51.1146 62.2527 50.0854 60.5558C49.8536 60.1736 48.1169 58.9085 47.8427 59.0234ZM132.158 130.934C132.274 130.657 132.39 130.379 132.506 130.102C131.874 129.858 131.242 129.614 130.609 129.369C130.835 129.718 131.06 130.066 131.286 130.415C131.576 130.588 131.867 130.761 132.158 130.934Z" fill="white"/>
</svg>
