<svg width="202" height="199" viewBox="0 0 202 199" fill="none" xmlns="http://www.w3.org/2000/svg">
<path d="M19.5879 69.5347C24.3216 66.707 30.7084 63.3249 35.6123 60.844C37.1488 60.0658 36.5436 60.7689 37.6113 60.2442C39.6992 59.2176 41.512 58.0246 43.5876 57.0321C44.2762 56.7045 43.6956 57.6066 44.412 57.2531C47.7884 55.5834 50.8855 53.7723 54.1796 51.9813L65.3644 45.6333L60.3217 57.5219C60.0739 58.0775 59.8218 58.6359 59.5632 59.1977C52.0478 75.5211 44.8435 91.7044 37.5321 108.181L31.8043 104.34C34.5341 101.606 37.2733 98.8605 40.0273 96.1019C45.1716 90.9484 51.6866 84.9393 56.8015 79.4221C57.3983 78.7777 56.7162 78.8428 56.8069 78.6979C58.2396 76.4346 58.2689 77.6815 59.5496 76.5414C64.631 72.0143 69.9383 66.6447 74.3842 61.8536C76.2747 59.8144 73.6982 61.1931 76.0075 59.5365C76.1672 59.4209 76.0099 60.2534 76.5786 59.7434C77.8678 58.586 80.1008 56.1822 81.0642 55.2502C82.9224 53.4557 83.2177 53.1469 84.929 51.4044C87.2714 49.025 90.2147 46.3488 92.6431 43.713C93.1604 43.1494 92.1085 43.5367 92.9025 42.6075C93.6973 41.6776 95.9839 39.3974 96.8261 38.6984C97.6685 37.9992 97.6149 38.5952 97.8117 38.5181C98.1449 38.3911 98.4889 38.149 98.8279 37.8412L102.173 40.2114C101.289 41.7613 100.786 44.2379 100.635 44.5895C97.1373 52.6347 93.2916 59.1159 89.6504 66.4909C86.8872 72.0903 84.1012 78.1608 81.4464 83.476C78.2819 89.8076 75.3911 95.0707 72.3859 101.256C72.0682 101.908 72.9523 101.396 72.5653 102.194C68.4538 110.666 64.2568 119.023 59.7616 127.26C59.3104 128.086 59.4015 126.78 58.9241 127.592C56.0105 132.568 51.1002 140.293 51.527 144.314C49.7257 147.77 47.5526 151.972 45.6178 154.904C44.3708 156.795 44.8522 154.598 43.8366 157.175C43.607 157.756 44.3907 157.24 44.0142 158.096C43.0489 160.289 41.9149 162.548 40.8364 164.792L36.9575 162.504C37.856 161.18 38.731 159.86 39.5203 158.556C39.9299 157.877 39.4577 157.812 39.5228 157.585C40.0889 155.684 42.7191 153.693 43.1703 153.174C46.5963 149.216 48.586 145.969 51.3641 141.995C52.009 141.072 50.7814 141.839 51.3851 140.94C54.5225 136.281 57.8823 131.531 61.228 127.159C61.9733 126.188 61.7306 127.389 62.1072 126.939C63.7629 124.951 63.335 123.958 64.9083 122.041C65.239 121.636 65.4132 122.115 65.505 122.062C66.943 121.25 66.8458 119.608 67.0457 119.281C69.5558 115.131 72.1927 113.196 74.7375 109.27C75.041 108.799 73.8888 109.535 74.7686 108.231C80.6269 99.5447 87.0678 90.5277 93.3306 82.2517C94.3038 80.9645 93.9719 82.1354 94.0698 82.0799C95.639 81.1565 95.4112 79.6954 95.6796 79.2418C97.8189 75.6777 100.732 72.9844 101.342 69.9765C109.016 59.478 116.169 48.6705 123.76 38.2141L127.098 39.9082C125.531 44.1654 123.899 48.3957 122.156 52.5829C122.072 52.7882 121.726 52.2491 121.56 52.6593C119.559 57.5973 120.63 56.886 120.386 60.5257C120.324 61.4423 118.354 63.6167 118.196 63.8148C117.618 64.5354 117.205 63.4388 117.053 63.6945C115.819 65.8182 118.285 66.2532 117.226 69.3267C117.189 69.4215 116.898 68.8694 116.767 69.1126C116.356 69.8676 116.253 70.7212 115.834 71.4543C114.873 73.1308 113.516 73.3783 113.232 76.3476C113.198 76.7241 114.707 76.6516 113.698 79.374C113.295 80.4588 111.648 85.3087 111.094 86.6361C110.541 87.9619 110.435 86.8839 110.383 86.9741C108.558 90.4312 108.801 88.9657 107.334 90.5069C105.869 92.0489 108.032 92.2272 107.997 93.0495C107.961 93.873 106.571 96.3897 106.182 96.9919C105.793 97.5936 105.805 96.6797 105.511 97.2328C103.574 100.904 105.911 99.2751 105.786 100.662C105.495 103.931 103.211 105.769 102.116 108.477C101.819 109.209 102.365 108.716 102.168 109.392C101.38 112.064 100.374 113.488 99.7638 116.628C99.6637 117.141 99.7156 119.867 98.5248 121.209C98.3545 121.399 98.2045 120.642 97.7355 121.735C97.0342 123.367 95.913 126.358 95.4148 128.202C95.0472 129.562 96.1782 128.247 95.413 129.856C95.0726 130.571 95.1937 129.07 94.5836 130.423C93.9762 131.769 92.7662 135.328 92.3121 136.685C91.8592 138.039 92.5732 137.459 92.5665 137.578C92.5161 138.3 91.8443 140.966 91.7648 141.195C90.0682 146.194 88.2746 150.971 86.4923 155.699L84.2664 154.609C88.0534 149.156 91.8005 143.779 95.3643 138.041C95.8574 137.248 95.0885 137.488 95.1593 137.365C96.7267 134.572 96.4896 137.426 98.0917 135.807C97.0449 135.508 97.923 134.508 99.0581 132.561C99.6044 131.623 98.9444 131.897 98.964 131.792C99.3316 130.111 100.605 129.605 100.898 129.452C101.978 128.885 102.024 127.531 102.753 127.141C103.479 126.75 103.057 128.465 104.231 126.654C104.25 125.944 102.56 126.754 103.324 125.295C106.206 119.792 113.155 110.546 115.94 106.427C118.719 102.316 119.538 100.937 121.232 98.5894C124.291 94.3499 122.64 95.5578 124.137 92.6622C125.638 89.7587 126.26 92.0531 126.835 91.8703C127.406 91.6947 127.351 91.0604 127.839 90.6971C128.325 90.3354 127.869 91.5086 128.667 90.4312C129.465 89.3531 130.898 85.917 130.824 85.3014C130.664 83.9991 129.02 84.8951 131.218 82.0993C131.345 81.9388 131.374 82.7477 131.84 82.1202C135.529 77.1281 139.068 71.75 142.719 66.7416C143.221 66.0534 143.24 66.9745 143.537 66.5771C146.636 62.4394 144.895 63.5046 145.626 60.6054C146.359 61.839 147.867 60.9768 149.998 57.7404L148.542 57.0106C148.536 57.0276 148.53 57.0447 148.523 57.0619C147.71 59.2705 148.38 59.0842 148.231 60.6507C148.187 61.1208 147.25 62.5515 147.396 62.9262C147.871 64.1594 149.323 63.0205 147.572 66.6784C147.494 66.8383 147.241 66.1453 147.004 66.7101C145.468 70.3602 146.159 71.1171 144.793 75.1704C143.723 78.3477 141.154 83.7552 139.758 87.3081C138.419 86.7327 137.494 90.2324 137.934 91.9503C137.044 94.2621 136.178 96.7938 135.225 98.9942C134.898 99.7516 134.688 99.0985 134.61 99.1805C133.392 100.431 133.939 101.778 133.791 102.293C132.15 107.862 129.833 112.041 128.612 117.482C128.569 117.675 129.409 118.321 128.208 119.456C128.128 119.528 128.323 117.655 127.396 120.086C126.469 122.517 124.275 126.936 123.474 130.489C123.279 131.348 123.29 133.707 122.079 135.153C121.916 135.345 121.732 135.002 121.464 135.267C120.602 136.126 121.354 137.043 120.094 137.962C118.833 138.882 117.296 141.191 116.607 144.817C116.584 144.932 117.048 146.02 116.642 147.091C115.994 148.801 114.944 151.181 114.293 152.976C113.981 153.835 114.655 153.459 114.609 153.611C113.872 155.953 113.122 157.991 112.332 159.983L111.339 159.504C113.088 156.794 114.908 154.204 117.064 150.884C117.723 149.872 118.939 146.552 120.617 144.837C122.457 142.954 123.196 146.489 125.759 141.145C126.794 138.99 125.683 134.789 129.291 131.98C133.256 124.688 137.95 118.569 141.78 111.167C141.953 110.834 141.82 109.37 142.287 108.625C142.982 107.52 143.703 107.121 144.21 106.339C146.344 103.067 147.902 99.8327 149.905 96.6449C150.665 95.4341 150.766 96.0806 151.672 94.6366C152.577 93.1932 152.692 91.9336 154.121 90.101C155.202 88.7178 157.079 87.8195 158.395 85.9111C157.483 85.2529 158.329 83.907 159.544 81.3396C159.777 80.8459 159.141 81.1405 159.234 80.8964C159.605 79.8987 160.384 79.2403 160.713 78.2784C160.793 78.0448 160.472 77.836 160.519 77.6338C160.91 75.9065 163.083 73.9915 163.458 73.6637C164.891 72.4045 164.907 71.4188 165.825 70.3425C166.741 69.2681 165.897 71.1946 166.859 69.8741C168.298 67.8992 169.845 65.4037 171.269 63.0704L170.295 62.6527C170.018 63.6712 169.752 64.6615 169.499 65.5821C169.138 66.9014 169.875 66.1336 169.835 66.3255C169.223 69.0899 167.953 71.7096 168.528 73.489C165.474 74.6962 168.33 75.2021 166.768 78.9679C166.644 79.2642 165.336 79.3309 165.478 78.103C165.62 76.875 166.479 75.1866 166.646 73.4747C166.686 73.0694 166.158 70.5438 166.172 70.2223C166.279 67.7041 168.167 67.8524 168.299 67.7534C169.749 66.6162 169.268 63.5739 169.377 62.8364C169.397 62.6972 169.419 62.5592 169.441 62.4222L172.025 63.5302C170.641 66.4435 169.012 68.6803 167.833 71.1427C167.027 72.8213 167.974 73.6096 167.186 74.8335C164.567 78.902 162.237 79.4609 161.128 84.1215C160.889 85.1199 162.532 84.9824 159.817 87.4302C159.646 87.5838 157.476 89.3073 157.213 90.9058C157.18 91.1067 157.515 91.3034 157.414 91.5329C156.728 93.0672 155.885 93.8567 155.068 95.4857C154.25 97.1146 153.304 99.0955 152.114 100.799C151.397 101.826 149.946 102.82 149.483 103.239C148.169 104.418 147.943 106.4 146.871 106.973C145.792 107.552 146.059 105.299 144.278 107.455C145.086 108.067 145.848 108.806 146.63 109.474C143.447 114.638 140.067 119.567 136.943 124.79C136.556 125.438 137.421 125.061 137.018 125.762C135.318 128.723 133.439 131.068 131.732 134.172C130.412 136.575 129.341 139.44 127.977 141.962C126.081 142.857 124.207 146.692 122.512 149.275C121.919 150.18 121.693 149.959 121.208 150.563C119.382 152.849 120.96 152.218 120.684 152.981C119.495 156.253 117.371 155.303 115.329 158.77C115.243 158.915 115.035 160.738 114.892 161.666L108.426 158.553C108.415 158.306 108.412 158.12 108.423 158.044C108.737 155.731 108.955 157.837 109.531 156.528C110.582 154.137 111.48 152.538 112.192 149.543C112.398 148.669 112.413 146.397 113.565 144.975C113.716 144.787 114.055 145.045 114.14 144.881C115.653 141.902 114.483 141.38 114.728 139.451C114.973 137.521 116.808 135.074 117.252 134.601C118.405 133.363 117.105 135.82 117.137 135.922C117.517 137.117 118.127 135.065 118.749 133.555C120.007 133.763 120.721 131.594 119.389 131.987C119.242 132.033 118.915 133.267 118.749 133.555C118.086 131.787 118.801 129.377 120.832 127.169C121.783 126.136 121.951 127.503 123.09 123.724C123.607 122.009 122.559 122.362 122.88 120.799C123.615 117.229 125.98 113.106 127.138 109.572C127.558 108.289 126.663 109.361 126.935 108.478C127.655 106.137 128.729 104.232 129.403 101.862C129.464 101.647 128.812 101.988 129.069 101.269C131.005 95.8088 133.036 91.1808 135.122 85.504C136.13 82.7611 137.669 77.7611 138.76 74.937C140.649 70.0415 143.542 64.2272 144.918 59.958C145.817 57.1743 145.133 57.6066 145.247 56.3145C145.26 56.1571 145.283 55.9951 145.315 55.8298L152.876 59.6195C151.869 61.9049 148.928 64.5102 148.491 64.8693C148.476 64.8808 149.754 62.7109 148.808 63.6959C147.938 64.06 148.505 64.8443 148.491 64.8693C148.186 65.1221 145.345 69.268 144.878 70.1551C144.625 70.6373 145.183 70.6396 145.044 70.8861C141.721 76.7413 138.14 82.442 134.23 88.0281C134.157 88.1234 133.817 87.6855 133.649 87.9131C131.297 91.089 130.452 93.5547 128.992 96.4873C127.532 99.4193 126.014 101.51 124.208 102.63C122.96 104.748 120.702 107.479 119.391 109.044C118.081 110.608 118.781 111.403 118.7 111.563C116.2 116.573 113.953 118.946 110.722 123.727C109.184 125.999 106.332 130.636 104.802 133.184C103.593 135.199 102.62 136.252 101.565 138.147C101.422 138.403 101.964 138.404 101.93 138.488C101.065 140.806 100.77 139.228 100.331 139.537C98.7394 140.655 97.8074 141.38 96.4011 144.154C96.0763 144.793 96.2795 147.407 95.6471 148.546C94.8224 150.026 94.6912 149.178 93.84 150.736C93.7667 150.869 94.08 151.036 93.4698 151.941C92.1599 153.89 90.7715 155.904 89.3752 157.946L80.724 153.71C81.7165 151.02 82.7105 148.292 83.6145 145.612C83.8458 144.931 83.0148 145.62 83.3403 144.633C84.8678 139.999 86.6305 134.951 88.4281 130.543C88.8722 129.459 89.0044 130.28 89.1974 130.078C90.3726 128.834 90.1242 126.41 90.2247 126.059C92.5958 117.671 95.6438 111.678 98.1176 103.149C98.2505 102.684 98.423 98.8126 99.8545 97.5525C99.9508 97.4656 101.397 96.2292 101.247 94.6431C101.237 94.5444 100.435 95.3489 101.064 93.6791C101.693 92.0092 102.316 89.1872 103.63 87.047C104.046 86.3691 105.553 84.9482 105.583 82.5092C105.582 82.3491 105.108 78.4045 106.655 77.5882C106.909 77.4568 108.035 78.0742 108.322 75.2498C108.375 74.7097 107.796 75.5238 108.083 74.1512C108.521 72.0477 109.762 69.4885 110.083 66.8277C110.137 66.3632 109.959 64.2443 111.084 62.9819C111.261 62.7841 111.509 63.3608 111.822 62.5972C113.314 58.967 114.384 54.9963 115.957 51.3306C116.514 50.032 116.925 50.9357 117.577 49.6069C118.229 48.2776 119.36 45.5371 119.566 43.9822C119.772 42.4269 118.195 43.6597 118.863 41.4539C119.265 40.1289 119.684 38.8119 120.118 37.5011L129.824 42.4271C125.001 49.5606 119.72 56.3117 114.737 63.3423C113.879 64.5522 114.901 63.7649 113.66 65.5638C109.086 72.1971 101.449 83.8293 96.7803 89.0985C93.0396 93.3205 96.6472 87.2432 93.9832 90.6046C92.6989 92.2275 92.4635 94.785 92.2117 95.2173C89.7647 99.4487 87.3726 101.909 85.0122 105.608C84.525 106.372 85.453 105.935 85.0336 106.582C83.6049 108.794 81.8385 110.935 80.4379 113.025C79.8105 113.963 80.251 114.015 79.6337 114.851C78.1606 116.852 76.7719 118.562 75.0884 120.342C74.935 120.504 75.3839 119.003 74.3203 120.502C72.6 122.929 70.1957 125.755 68.5502 128.779C68.0633 129.677 68.7761 130.221 67.0227 131.661C66.6553 131.963 66.1055 130.87 65.4178 133.488C65.3006 133.927 63.8928 138.15 62.0332 139.411C61.5431 139.743 60.0151 140.4 59.4319 141.482C59.3555 141.631 60.1291 141.36 59.5903 142.218C57.6844 145.236 55.5098 148.277 53.543 151.371C53.0186 152.198 54.2589 151.286 53.4643 152.509C51.2796 155.874 48.319 159.913 45.9538 163.044C45.081 164.198 45.3125 163.142 45.2156 163.203C43.651 164.176 43.8894 165.559 43.6163 166.053C43.469 166.317 43.3204 166.572 43.1705 166.82L34.0534 161.442C35.2363 158.603 36.6698 156.552 37.8722 153.865C38.2364 153.054 37.5363 153.411 37.577 153.234C38.0222 151.408 38.1736 153.007 38.771 152.007C40.4472 149.209 42.0187 145.942 43.4212 142.967C43.9357 141.874 42.8461 142.85 43.3135 141.872C46.0707 136.079 49.0712 130.122 52.1134 124.642C52.6871 123.61 52.7346 124.461 52.9293 124.283C54.2802 123.062 54.5598 120.431 54.7347 119.881C55.5282 117.377 56.3074 116.637 57.2609 114.55C61.9131 104.354 68.2591 92.0617 73.0783 82.6485C79.356 70.3809 84.4492 60.9713 90.1758 49.1445C90.5403 48.393 89.667 48.9009 89.9748 48.25C91.7904 44.4364 93.6582 40.6817 95.5292 36.9297L104.126 43.0216C100.593 46.6078 97.0564 50.189 93.5668 53.8836C93.0413 54.4386 94.1897 54.0207 93.3589 54.924C91.6574 56.7792 89.4086 59.038 87.5094 60.7388C86.5837 61.5691 87.4227 60.0618 86.4976 60.904C84.3428 62.8644 82.1365 65.0669 80.1088 67.262C79.2467 68.197 80.9743 67.2039 79.8237 68.3896C71.9934 76.4747 64.3321 84.4433 55.8796 92.0859C55.3001 92.6097 54.0356 92.3302 53.0273 93.663C53.1582 93.9657 53.4196 94.2118 53.6147 94.4787C48.4594 99.8655 43.2459 105.147 38.0083 110.407L29.5649 104.744C33.1603 96.6148 36.7991 88.502 40.3752 80.2931C40.6518 79.6579 39.6426 80.5265 40.1753 79.2956C43.2579 72.1714 46.0954 65.1861 49.7721 58.1247C50.1362 57.4237 50.9171 58.2008 51.6944 56.0077C51.7583 55.8261 52.0691 55.0118 52.3971 54.1035L58.3937 59.5128C57.4732 60.1039 56.4619 60.7774 56.1006 61.115C56.0098 61.2042 56.8001 61.3102 55.8237 61.8726C50.1449 65.1332 44.1034 68.3884 38.2563 71.3251C37.3122 71.7982 38.0439 70.8051 37.3693 71.1382C32.5859 73.5047 27.7157 76.6735 23.0452 78.7567C19.9181 80.1495 20.5896 78.7648 18.5854 78.8929C18.3021 78.9113 16.4504 79.9251 16.1089 79.5383C15.2451 78.5685 15.4594 76.8574 14.4332 75.8826C14.2137 75.6718 11.8996 77.3259 13.0168 75.8946C13.0958 75.7964 14.7706 74.5918 15.0946 74.137C15.3208 73.8213 14.5176 73.683 15.0403 73.1485C15.563 72.6142 16.4606 72.6046 17.377 71.8075C18.2914 71.0079 17.5505 70.7539 19.5879 69.5347ZM113.499 116.094C112.062 117.397 113.413 118.61 114.164 116.676C114.198 116.581 113.572 116.026 113.499 116.094ZM138.928 118.835C136.977 120.52 137.099 122.559 138.521 121.398C139.942 120.237 139.522 118.321 138.928 118.835ZM151.655 96.8C149.631 98.9253 151.571 100.633 152.727 97.7424C152.795 97.5747 151.773 96.6756 151.655 96.8ZM25.7963 74.5754C25.7621 74.5672 24.4265 75.2879 24.4063 75.3263C23.9795 76.2182 26.65 74.7768 25.7963 74.5754ZM164.236 74.9052C163.476 75.491 162.477 77.8994 163.42 77.1716C164.18 76.5857 165.181 74.1753 164.236 74.9052ZM101.262 108.266C101.297 108.246 101.674 107.226 101.524 107.197C101.04 107.108 100.676 108.584 101.262 108.266ZM162.596 90.7564C164.34 84.6612 167.371 81.4981 165.343 88.1011C164.976 89.2969 165.398 85.3253 164.8 86.8121C163.709 89.533 164.479 91.7433 163.022 94.4275C162.757 94.913 162.492 91.1029 162.596 90.7448C162.596 90.7486 162.596 90.7525 162.596 90.7564ZM111.103 115.82C111.063 115.839 110.22 117.087 110.22 117.13C110.251 118.125 111.948 115.609 111.103 115.82ZM123.005 48.6133C123.08 48.5512 124.264 45.2625 124.258 45.1396C123.971 43.1123 121.575 49.7601 123.005 48.6133ZM139.701 87.3511C139.675 89.0913 139.063 90.9606 137.937 91.9435C138.534 90.423 139.104 88.8811 139.701 87.3511Z" fill="#E6FF43"/>
<path d="M50.1415 53.138C51.0126 53.31 52.1084 54.0248 53.1073 54.329C57.2905 55.6075 58.7762 56.3087 62.5417 57.5343C68.1247 59.3519 85.0179 63.6055 84.2814 66.2066C84.2814 66.2066 84.2814 66.2066 84.2814 66.2067C84.2741 66.2322 84.2652 66.2575 84.2546 66.2827C84.0555 66.7616 82.4773 66.8989 82.1071 67.3994C81.7371 67.9002 80.8703 71.5642 78.7888 71.1944C75.7783 70.6313 69.0017 67.7093 67.4249 67.3071C66.3469 67.0324 64.9364 66.9882 63.5516 66.6591C59.0869 65.5978 56.8467 64.7034 52.619 64.4713C51.1627 63.55 49.7063 62.6287 48.2499 61.7074C46.1138 61.3382 43.146 59.8266 41.8762 59.5038C40.8344 59.2391 40.123 59.44 39.0406 59.1521C37.8261 58.8313 36.0839 57.9036 33.8686 57.3414C30.2373 56.4181 29.3208 57.208 27.1236 56.7189C24.8452 56.2114 21.5077 54.6956 18.5499 54.2271C18.1608 54.2323 17.7717 54.2376 17.3825 54.2428C17.5712 54.5574 17.7598 54.8719 17.9484 55.1864C16.4755 54.8908 15.9961 54.2199 14.6745 53.8358C13.1196 53.3837 12.1917 53.6282 11.1439 53.329C10.2857 53.0836 9.22794 52.3772 8.10767 52.0853C7.08648 51.818 6.78264 51.9699 6.47748 52.0856L12.1091 45.0278C12.2865 45.1098 12.455 45.2012 12.6527 45.4807C12.8624 45.7789 16.3465 51.5081 16.5316 51.8376C17.9287 54.3493 17.3697 54.9396 18.4088 56.9833C21.2933 62.6502 24.9691 68.077 27.9944 73.1238C29.3455 75.3773 30.6189 77.8029 31.765 80.1596C28.0514 77.4898 31.0726 86.2364 32.1557 81.7568C33.1649 84.5241 34.8886 85.9357 36.0879 88.4267C36.8628 90.0382 37.0782 91.3288 38.3103 93.5614C40.4989 97.5215 43.9425 101.28 42.6295 103.48C45.5167 107.955 47.0191 112.376 49.6463 113.122C50.4072 114.267 51.0712 117.904 51.6691 119.328C51.8072 119.656 52.2022 120.502 52.7328 121.616L53.8784 123.797L52.4932 125.682C50.1092 128.672 45.976 133.964 45.1595 135.076C44.0796 136.545 42.2051 139.129 41.4549 140.48C40.5099 142.176 41.3761 144.445 37.461 145.878C35.3037 149.245 34.4245 150.366 32.0495 153.236C31.6195 153.755 31.2896 153.614 31.0618 153.934C30.593 154.594 30.0068 155.867 29.1959 157.063C27.8621 159.03 26.4753 159.708 27.5475 160.145C26.8544 161.421 26.1613 162.697 25.4682 163.973L20.3691 158.138C20.4726 158.067 20.576 157.995 20.6795 157.924C21.2672 157.861 21.8548 157.799 22.4425 157.736C23.074 157.137 23.7054 156.538 24.3369 155.939C24.2237 157.84 28.9959 154.249 26.8664 154.31C29.712 153.198 32.5576 152.085 35.4032 150.973C35.8892 152.812 41.4064 148.065 40.4094 147.45C40.7178 147.29 41.0261 147.129 41.3345 146.969C44.2569 145.992 46.5433 144.337 49.9801 142.908C53.4166 141.478 53.1923 141.799 54.5868 142.03C55.3366 141.582 56.0865 141.133 56.8363 140.685C59.804 136.488 60.9678 140.447 67.0763 135.217C69.9767 135.354 75.0851 131.802 78.503 129.506C78.9007 129.239 78.7754 128.982 79.2963 128.61C79.9393 128.152 81.1923 127.54 82.2066 126.949L84.4439 125.821L85.8468 127.785C86.5731 128.682 87.2437 129.354 87.5705 129.029C88.1709 130.288 88.7713 131.548 89.3716 132.808C90.1718 133.609 90.9719 134.41 91.772 135.211C91.9995 135.036 92.2271 134.861 92.4546 134.686C93.0081 137.081 95.4166 139.706 96.2675 141.251C96.4361 141.559 96.1623 141.855 96.7181 142.788C97.3661 143.881 98.8601 145.705 99.6556 146.989C100.356 147.199 101.057 147.409 101.758 147.619C103.55 149.643 103.181 151.092 104.049 152.417C104.206 152.656 107.36 156.783 107.546 156.993C109.066 158.719 109.473 157.611 113.242 163.065C113.913 164.036 114.206 165.007 114.828 165.873C115.929 167.402 119.926 171.507 120.766 171.441C121.405 173.811 125.333 178.51 126.196 180.112C126.455 180.596 126.069 181.034 126.965 182.45C127.024 182.543 127.094 182.645 127.174 182.756L121.022 185.233C120.838 183.705 120.066 180.707 119.933 179.133C119.781 177.314 120.172 176.607 120.1 175.792C120.032 175.023 119.557 174.367 119.424 173.323C119.015 170.066 119.25 167.037 118.927 164.462C118.462 160.738 116.9 157.597 115.991 154.549C115.965 153.766 116.11 152.975 116.007 152.165C114.742 142.135 113.483 130.8 112.422 120.713C112.281 119.382 112.183 117.476 112.066 115.507L111.803 113.19L113.77 112.154C118.281 110.075 123.111 107.736 120.258 107.182C121.475 105.998 132.408 101.201 134.4 100.128C136.391 99.0552 137.74 97.786 139.296 96.926C143.991 94.3309 147.465 92.81 152.998 89.3177C154.426 88.4146 155.747 87.0632 156.626 86.589C157.685 86.019 159.077 85.8643 160.46 85.1453C163.755 83.4276 169.743 79.9479 172.913 78.3165C173.492 78.0196 173.917 78.3202 174.804 78.0013C178.257 76.7612 181.796 74.7661 180.448 73.8013C184.93 72.3133 188.328 69.5704 192.08 67.4607C193.644 66.5827 195.47 65.5805 197.445 64.5038L199.812 73.7523C190.639 73.7334 178.691 73.6079 172.323 74.1119C167.323 74.5079 167.451 75.1778 160.089 74.5997C158.455 74.4715 156.828 74.2985 154.846 74.1456C150.2 73.7857 145.938 72.548 142.397 74.0394C137.237 73.6526 133.128 73.9269 129.299 72.6514C128.848 72.9574 128.397 73.2633 127.945 73.5692C127.313 73.5767 126.68 73.5843 126.047 73.5919C125.85 73.3001 125.653 73.0084 125.455 72.7166C122.331 72.6625 118.628 73.2156 115.372 73.5615L110.56 73.4838L110.636 68.8252C110.48 67.3584 110.366 65.9824 110.369 64.7909C110.382 58.3592 110.848 41.7935 111.242 35.6948C111.451 32.457 110.826 32.2827 112.111 30.429C112.021 29.7048 111.932 28.9806 111.842 28.2564C111.561 27.8032 111.28 27.35 110.999 26.8968C110.987 22.7428 111.424 17.8158 111.42 13.8585C111.416 10.4028 111.236 6.11644 111.105 1.79221L119.227 3.62258C117.339 7.9283 115.379 12.2492 113.522 15.5422C112.627 17.1274 111.13 18.9288 110.373 20.5378C109.271 22.8793 109.87 23.8603 108.478 26.8345C106.077 31.9598 100.545 41.0016 98.3273 45.8708C97.6681 47.3167 97.6736 48.14 97.2375 49.1475C95.4123 53.3737 93.7658 56.7731 92.3733 60.9954C89.5083 64.8785 88.6083 63.9982 86.8935 64.8089C85.5972 65.4249 82.2358 67.605 81.3108 67.7018C80.6609 67.7697 80.5574 66.3146 79.7982 66.4818C81.7896 61.1451 83.3 59.223 86.0571 55.431C89.6765 47.729 93.2959 40.027 96.9153 32.325C97.5502 31.7694 98.1851 31.2138 98.8201 30.6582C98.8207 30.6585 98.8214 30.6588 98.822 30.6591C100.573 27.8729 100.388 26.2514 100.967 24.5752C103.232 18.017 107.173 9.23366 111.598 1.66893e-06L119.55 1.79221C119.497 16.6074 118.933 32.7094 118.808 43.6939C118.763 47.697 119.215 60.7186 118.67 63.4653C118.528 64.1764 118.011 64.3742 117.989 65.1308C118.045 66.3623 118.101 67.5937 118.157 68.8252L115.372 66.0403C120.9 65.7889 126.428 65.5376 131.956 65.2862C145.856 66.0893 160.226 65.426 174.232 65.3023C182.777 65.2267 191.304 65.1475 199.812 65.0714L201.615 72.1174C176.112 86.3847 150.773 100.518 125.409 114.303C122.914 115.658 120.185 117.215 117.409 118.797L119.577 114.532C120.291 119.391 121.022 124.378 121.422 128.634C121.698 131.566 121.032 132.889 122.143 136.644C121.927 136.713 121.71 136.782 121.494 136.851C122.196 140.162 122.978 142.235 123.516 145.98C123.968 149.134 125.086 157.488 125.364 160.291C125.509 161.744 125.025 161.258 125.202 162.608C125.509 164.918 126.722 169.782 127.136 172.971C127.511 175.86 127.666 180.792 128.023 183.004C128.092 183.433 128.163 183.864 128.235 184.297L130.221 198.98L121.325 187.08C116.523 181.051 111.081 174.748 106.392 168.1C105.024 166.158 103.645 163.38 103.191 162.791C102.302 161.642 101.621 161.607 100.987 160.863C97.766 157.081 93.6768 150.496 90.809 146.575C87.3129 141.795 83.7036 136.934 80.0686 132.056L85.5452 133.312C76.552 138.075 67.4987 142.902 58.7356 147.432C49.8899 152.005 35.28 159.775 26.9552 163.696C25.16 164.542 25.3601 163.786 23.886 164.559C23.847 164.58 23.8086 164.6 23.7707 164.621L19.5 159.733C20.5062 158.286 20.7663 157.278 21.2288 156.574C24.5067 151.578 31.8185 140.605 35.4074 136.24C36.0916 135.409 36.911 135.036 37.2819 134.511C37.4703 134.245 37.6447 133.468 38.2105 132.617C41.0607 128.329 43.5721 124.777 46.17 121.19L45.9257 125.333C44.3544 122.393 42.7868 119.399 41.0074 116.046C33.0703 101.094 23.1666 84.1565 14.9165 68.4018C13.1188 64.9693 12.6298 62.2092 12.3607 61.7354C11.7719 60.6948 10.8776 60.3113 9.58679 58.2574C7.90513 55.5775 6.17013 52.4373 4.44489 49.2134L5.81741e-05 41.2757L8.85744 43.6835C14.2945 45.2736 19.8585 47.0212 24.3856 48.1132C28.0658 49.0014 33.2754 49.684 36.9032 50.5361C39.8008 51.2166 46.4755 53.4183 47.8348 53.4552C48.6614 53.479 49.1954 52.9546 50.1415 53.138ZM39.172 96.186C38.0059 96.2192 41.4322 100.691 40.9208 98.5906C40.8056 98.1176 39.4744 96.1768 39.172 96.186ZM116.071 138.515C115.783 138.603 115.495 138.692 115.207 138.781C115.424 139.49 115.64 140.198 115.857 140.907C115.981 140.477 116.105 140.047 116.229 139.616C116.176 139.249 116.124 138.882 116.071 138.515Z" fill="white"/>
</svg>
