<svg width="158" height="132" viewBox="0 0 158 132" fill="none" xmlns="http://www.w3.org/2000/svg">
<path d="M25.8805 53.9752C28.7464 52.3456 32.6714 50.5412 35.7008 49.2612C36.6498 48.8593 36.3295 49.3786 36.9911 49.114C38.2849 48.5961 39.3675 47.8717 40.6575 47.3824C41.0857 47.2215 40.809 47.9269 41.2528 47.748C43.6829 46.7644 45.8286 45.5317 48.2367 44.4298C50.5832 43.3562 52.9159 42.2748 55.2403 41.1859L66.2124 35.4835L60.696 46.6382C55.7009 55.771 50.8872 64.9218 45.9395 74.2798C44.4043 77.184 42.4332 80.4668 40.7623 83.6651L35.9859 80.1377C36.8385 79.3353 37.6584 78.5309 38.4165 77.7313C38.7775 77.3499 38.2454 77.2489 38.2919 77.1533C39.0309 75.6649 39.2763 76.6687 40.0941 76.0444C43.3383 73.5648 46.6126 70.462 49.3033 67.6285C50.4471 66.4221 48.639 66.9463 50.1847 66.1399C50.2914 66.0833 50.3142 66.7138 50.6767 66.4336C51.4982 65.7974 52.8501 64.3763 53.452 63.8473C54.6137 62.8293 54.7941 62.6487 55.8479 61.6393C57.2913 60.2623 59.1608 58.7828 60.6272 57.2201C60.9392 56.8855 60.1697 56.959 60.6371 56.3942C61.1051 55.829 62.5217 54.5188 63.0686 54.1488C63.6155 53.7788 63.6789 54.2434 63.822 54.2259C65.0118 54.095 65.9138 51.8159 66.1029 51.5985C69.5736 47.656 73.2052 44.9543 76.7404 41.5409C79.4233 38.9487 82.1615 36.0417 84.734 33.5957C87.7727 30.7091 90.5111 28.4232 93.4073 25.5744L97.2219 28.3888C97.2056 28.4218 97.1894 28.4548 97.1731 28.4879C96.9812 28.8767 97.7156 28.6786 97.4822 29.154C95.0028 34.2049 92.4272 39.1634 89.559 43.9905C89.2709 44.4744 89.154 43.6041 88.8397 44.0741C86.9249 46.9568 83.5963 51.3669 84.6065 54.1646C83.4809 56.2039 82.1281 58.6866 80.7994 60.3485C79.9431 61.4202 80.0483 60.012 79.5103 61.5883C79.3885 61.9435 80.0298 61.7257 79.815 62.2422C78.9103 64.4167 77.6151 66.6374 76.7854 68.8216C76.6177 69.2664 77.055 69.3429 77.0629 69.4969C77.108 70.7808 75.3488 71.9909 75.0982 72.3218C73.1998 74.8472 72.3701 76.9727 71.0509 79.5523C70.7445 80.1509 71.6123 79.699 71.3358 80.2842C69.8951 83.3157 68.2832 86.3957 66.575 89.2137C66.1938 89.8399 66.0632 89.0209 65.8588 89.3089C64.9631 90.5816 65.6284 91.3004 64.7851 92.5289C64.6084 92.7885 64.3161 92.4442 64.2497 92.4743C63.2085 92.9439 63.7672 94.0918 63.6841 94.3059C62.6531 97.0253 60.8721 98.1964 59.7458 100.758C59.612 101.064 60.4219 100.629 60.0171 101.477C57.323 107.129 54.2074 112.972 51.0365 118.311C50.5441 119.142 50.5014 118.35 50.4305 118.382C50.2096 118.488 50.0561 118.612 49.9511 118.746L48.2942 117.714C48.8148 117.249 48.5621 116.479 48.6895 116.259C49.9609 114.114 52.0383 112.782 52.0817 110.705C58.7387 102.581 64.4849 93.8308 71.6224 86.1781C71.7122 86.08 71.9707 86.5721 72.148 86.3752C74.2878 84.0074 73.2964 84.0243 73.8003 81.7696C73.9279 81.2021 75.8196 80.6101 75.973 80.5472C76.5347 80.3201 76.8072 81.2007 76.9602 81.0981C78.2056 80.2341 76.0898 78.9319 77.2588 77.3809C77.2987 77.3348 77.5085 77.8127 77.6428 77.7098C78.0612 77.3911 78.2193 76.8813 78.6428 76.58C79.6154 75.8929 80.8181 76.2942 81.3031 74.4899C81.3627 74.2602 80.041 73.6825 81.1383 72.3381C81.5767 71.8028 83.4004 69.3454 83.9895 68.7155C84.5778 68.0863 84.5845 68.8282 84.637 68.7912C86.5042 67.3087 86.175 68.1566 87.5779 67.7665C88.9782 67.3745 87.1062 66.3639 87.2027 65.8462C87.3002 65.3283 88.713 64.2745 89.1004 64.0457C89.4876 63.8173 89.4048 64.4041 89.7048 64.1676C91.687 62.5932 89.5193 62.6802 89.7391 61.8346C90.2546 59.8389 92.3926 59.5945 93.5642 58.2952C93.8811 57.9437 93.3658 58.0369 93.5921 57.6817C94.4924 56.2777 95.4833 55.7723 96.2665 53.9931C96.3948 53.7023 96.5674 51.9165 97.713 51.5406C97.8767 51.4884 97.947 52.0405 98.4433 51.5271C99.1853 50.7606 100.402 49.2888 100.984 48.3019C101.413 47.5732 100.322 47.9564 101.118 47.2319C101.472 46.9101 101.246 47.8312 101.886 47.2079C102.523 46.5883 103.863 44.7854 104.367 44.0953C104.87 43.4063 104.201 43.4865 104.217 43.4118C104.318 42.9658 105.117 41.5177 105.205 41.4025C107.643 38.116 110.193 35.1383 112.68 32.1278L114.651 33.1311C113.633 36.0163 112.659 38.9069 111.864 41.9281C111.722 42.4676 112.32 42.2613 112.303 42.3451C111.953 44.2339 111.088 42.3977 110.264 43.5409C111.315 43.6589 110.905 44.3573 110.623 45.6769C110.488 46.3131 110.976 46.0926 110.998 46.1611C111.304 47.2584 110.353 47.6688 110.149 47.7867C109.395 48.2226 109.865 49.0895 109.359 49.3883C108.856 49.6877 108.587 48.5647 108.219 49.8006C108.47 50.2549 109.678 49.6218 109.544 50.6044C109.04 54.3123 106.304 60.6878 105.364 63.5066C104.426 66.3197 104.213 67.2557 103.581 68.8692C102.441 71.7837 103.464 70.8996 103.216 72.8493C102.967 74.8044 101.543 73.3842 101.097 73.5404C100.652 73.6917 100.941 74.0924 100.641 74.3577C100.341 74.6219 100.307 73.8423 99.9993 74.5843C99.6913 75.3268 99.7042 77.6168 100.004 78.0042C100.638 78.8237 101.774 78.1389 100.859 80.0734C100.806 80.1845 100.475 79.6707 100.294 80.1029C98.8729 83.5407 97.7325 87.2143 96.3526 90.6598C96.1621 91.1333 95.7976 90.5472 95.6811 90.8211C94.4666 93.6734 95.6249 92.874 96.064 94.7732C94.9359 94.0337 93.9064 94.6971 93.2186 96.9329C92.8046 98.2768 93.4159 98.2097 93.5325 99.1957C93.5681 99.4917 92.9072 100.331 93.1091 100.581C93.7676 101.402 94.9711 100.789 93.8988 102.983C93.8504 103.079 93.4932 102.619 93.3593 102.96C92.4913 105.166 93.2787 105.701 92.6408 108.178C92.1409 110.118 90.5744 113.365 89.8248 115.52C88.4464 115.05 88.1386 117.208 88.8444 118.336C88.8088 118.442 88.7735 118.55 88.7384 118.658L86.5283 117.691C87.2487 116.511 87.9551 115.227 88.7331 114.151C89.0225 113.75 89.2228 114.242 89.2935 114.211C90.3905 113.75 89.8728 112.702 90.001 112.407C91.4279 109.231 93.4908 107.17 94.5349 103.954C94.5716 103.839 93.795 103.165 94.8781 102.775C94.9508 102.752 94.7968 103.926 95.6123 102.602C96.4279 101.279 98.3753 99.0233 99.0606 96.9242C99.227 96.4165 99.1856 94.8621 100.274 94.2709C100.421 94.1929 100.593 94.4727 100.835 94.3783C101.612 94.069 100.911 93.2425 102.052 93.0123C103.192 92.782 104.567 91.7196 105.149 89.5388C105.169 89.4702 104.73 88.6166 105.087 88.0324C105.657 87.1001 106.585 85.8466 107.157 84.8594C107.43 84.3865 106.82 84.4343 106.859 84.3478C108.471 81.0358 110.177 79.0062 112.332 75.7088C112.728 75.1048 113.182 72.9697 114.355 72.0384C115.642 71.0148 116.977 73.6212 118.249 70.2827C118.764 68.9372 116.969 65.8025 119.659 64.4173C121.813 59.9387 124.843 56.404 126.856 51.8266C126.947 51.6209 126.549 50.5699 126.825 50.1226C127.235 49.4594 127.804 49.2963 128.108 48.8294C129.008 47.4618 129.659 46.0608 130.375 44.6862L130.801 44.8689C130.65 45.5127 130.486 46.1549 130.285 46.7969C130.03 47.6121 129.707 47.2084 129.403 48.1807C129.099 49.1525 129.446 49.9584 128.807 51.2098C128.323 52.1544 126.942 52.8413 126.433 54.1336C127.496 54.494 127.212 55.4003 127.03 57.1042C126.996 57.4319 127.467 57.2053 127.47 57.3659C127.491 58.0217 127.021 58.4879 127.067 59.1184C127.078 59.2716 127.444 59.3839 127.474 59.5151C127.739 60.6348 126.455 61.9848 126.232 62.2161C125.384 63.1041 125.723 63.7302 125.277 64.4699C124.831 65.2085 124.905 63.9341 124.506 64.8316C123.678 66.692 123.022 69.1994 122.44 71.1629C122.209 71.9471 122.855 71.5524 122.833 71.6679C122.491 73.3278 121.497 74.82 122.217 76.0017C119.362 76.4005 122.181 77.0516 121.007 79.2275C120.913 79.3985 119.65 79.2873 119.676 78.5347C119.702 77.7823 120.382 76.8252 120.388 75.7725C120.39 75.5234 119.648 73.8798 119.632 73.68C119.507 72.1152 121.353 72.429 121.473 72.3825C122.776 71.8399 122.032 69.8781 122.071 69.4289C122.247 67.3737 122.973 65.7934 123.168 64.088C123.297 62.9732 122.156 62.5324 122.432 61.7072C123.348 58.9636 125.261 58.4637 124.596 55.4391C124.455 54.791 123.015 54.9808 124.599 53.2591C124.699 53.151 126.049 51.9226 125.715 50.8925C125.672 50.7631 125.298 50.6593 125.308 50.5074C125.38 49.4916 125.861 48.9384 126.018 47.8543C126.176 46.7704 126.324 45.4551 126.793 44.3006C126.86 44.1341 126.966 43.9663 127.092 43.8031L133.705 46.6348C133.188 47.0386 132.486 47.3458 132.232 47.5125C131.282 48.1261 131.458 49.4827 130.609 49.7104C129.754 49.9412 129.563 48.4009 128.381 49.6256C129.221 50.1879 130.044 50.8321 130.87 51.4294C129.009 54.5393 126.927 57.4522 125.13 60.6131C124.908 61.0055 125.608 60.8814 125.383 61.3091C124.427 63.1124 123.194 64.4542 122.26 66.3569C121.538 67.8308 121.127 69.6697 120.388 71.2199C118.864 71.5393 117.92 73.9291 116.897 75.4681C116.539 76.0074 116.295 75.8145 115.976 76.1604C114.78 77.469 116.07 77.2828 115.969 77.7742C115.53 79.8802 113.45 78.8651 112.285 80.969C112.222 81.0801 112.498 83.0454 112.456 83.2692C112.2 84.6976 111.973 83.2476 111.464 83.9377C110.534 85.1977 109.734 85.9831 109.123 87.7418C108.946 88.2555 108.963 89.7457 107.928 90.3389C107.792 90.4171 107.479 90.1468 107.403 90.2293C106.06 91.74 107.136 92.4305 106.938 93.6269C106.739 94.8235 105.094 95.8885 104.695 96.0674C103.656 96.5395 104.813 95.3092 104.782 95.2331C104.419 94.3335 103.888 95.502 103.34 96.311C102.187 95.8 101.563 97.0152 102.775 97.1522C102.909 97.1652 103.191 96.4511 103.34 96.311C103.969 97.6708 103.348 99.0441 101.52 99.8928C100.664 100.29 100.492 99.3403 99.5013 101.488C99.0513 102.463 100.005 102.542 99.7316 103.475C99.1072 105.605 96.9991 107.614 95.9872 109.595C95.6199 110.314 96.4241 109.875 96.1872 110.374C95.5597 111.701 94.6028 112.635 94.0182 113.993C93.9657 114.117 94.5566 114.086 94.3316 114.483C93.187 116.516 91.9984 118.288 90.784 120.181L84.0211 117.223C84.38 116.196 84.7382 115.141 85.0837 114.015C85.5955 112.346 86.2427 109.28 86.8213 107.565C87.8214 104.593 89.6313 101.113 90.2433 98.5001C90.6444 96.7966 90.0598 97.0193 89.9551 96.2053C89.7503 94.6336 91.6134 92.5284 91.8869 92.2518C91.8957 92.2435 91.57 93.7153 92.0462 93.0219C92.688 92.7297 91.8842 92.2686 91.8869 92.2518C92.0646 92.0696 93.0455 89.2298 93.1285 88.632C93.1733 88.307 92.6723 88.3441 92.7041 88.1772C93.4709 84.2144 94.527 80.3322 95.9212 76.5004C95.9511 76.4346 96.4212 76.6903 96.4852 76.5337C97.394 74.3462 97.2197 72.7157 97.4211 70.7449C97.6226 68.7745 98.193 67.3368 99.3886 66.4977C99.7069 65.0615 100.7 63.1641 101.283 62.0759C101.866 60.9877 100.939 60.5292 100.951 60.4214C101.3 57.0544 102.418 55.3865 103.507 52.1146C104.027 50.5596 104.832 47.406 105.241 45.6758C105.563 44.3078 106.038 43.569 106.268 42.2881C106.299 42.1149 105.813 42.1517 105.812 42.0956C105.711 40.5576 106.572 41.5438 106.848 41.3166C107.853 40.4936 108.414 39.9672 108.627 38.1014C108.677 37.6713 107.508 36.0188 107.644 35.2486C107.824 34.2481 108.262 34.7794 108.437 33.7276C108.452 33.6378 108.108 33.5529 108.313 32.9332C108.483 32.4166 108.659 31.893 108.84 31.364L117.529 35.7858C115.922 37.773 114.197 39.8375 112.665 41.9167C112.409 42.262 113.189 42.1597 112.826 42.6642C111.124 45.0311 109.183 47.5691 107.263 49.6779C106.789 50.1958 106.74 49.6096 106.555 49.6605C105.431 49.9792 105.454 51.6511 105.338 51.8369C102.6 56.2841 99.4635 58.9019 96.6248 63.3982C96.4718 63.6441 96.0119 66.0785 94.663 66.3017C94.5721 66.318 93.2121 66.5197 93.2165 67.6086C93.217 67.6764 93.9811 67.4878 93.2988 68.3081C92.6167 69.1285 91.8484 70.6974 90.5307 71.5385C90.1142 71.8053 88.6862 72.1011 88.4651 73.6673C88.4536 73.7715 88.5514 76.5206 87.1374 76.4088C86.9057 76.3889 85.9731 75.5233 85.4968 77.2323C85.4073 77.5599 85.9776 77.2728 85.6178 78.0425C85.0678 79.2227 83.781 80.3655 83.2884 81.9548C83.2037 82.2328 83.1897 83.678 82.1077 84.0294C81.9383 84.0845 81.768 83.6085 81.4337 83.9731C79.8428 85.7053 78.5922 87.8324 76.9273 89.5538C76.3383 90.1641 76.0521 89.409 75.3775 89.9993C74.7028 90.5898 73.4973 91.8954 73.1935 92.8166C72.8896 93.738 74.3631 93.5927 73.6039 94.7437C70.3032 99.7475 66.2242 104.094 62.552 108.807C62.0073 109.505 62.7607 109.154 61.9803 110.2C59.7003 113.261 56.2653 118.203 53.3569 121.533L44.2913 115.885C44.8851 114.894 45.4631 114.017 46.0066 113.322C48.1083 110.635 46.6587 114.621 48.0533 112.46C48.7249 111.417 48.1975 109.654 48.2964 109.371C49.248 106.591 50.661 105.038 51.6892 102.623C51.9013 102.124 51.2041 102.366 51.3897 101.944C52.0197 100.501 52.9697 99.129 53.6102 97.7691C53.8965 97.1585 53.4907 97.0925 53.7976 96.5526C54.5277 95.2586 55.2668 94.1616 56.2473 93.0359C56.3367 92.9334 56.3706 93.9469 56.8821 92.975C57.7089 91.4015 59.0275 89.5962 59.616 87.6025C59.7892 87.0103 59.0007 86.585 60.141 85.7002C60.3797 85.5143 61.182 86.3109 61.0381 84.536C61.0155 84.2383 61.0483 81.3954 62.3342 80.6421C62.6731 80.4432 63.8389 80.0876 64.0446 79.3741C64.0695 79.2759 63.4614 79.4126 63.6922 78.8519C64.5133 76.8795 65.5665 74.9098 66.4196 72.8883C66.6465 72.348 65.8095 72.9005 66.1619 72.1024C67.1304 69.9076 68.5929 67.2953 69.7888 65.2748C70.2306 64.5304 70.3293 65.2492 70.3977 65.2134C71.505 64.6407 70.8953 63.6629 70.9954 63.3377C71.6295 61.3207 72.7592 60.1118 73.5174 58.3404C73.7278 57.8521 73.1388 57.976 73.149 57.8628C73.278 56.7004 73.6628 57.8094 74.0586 57.2324C75.17 55.6174 76.1133 53.6677 76.946 51.8873C77.2513 51.233 76.3993 51.7111 76.6788 51.1268C78.3242 47.6636 80.1684 44.131 82.124 40.928C82.4931 40.3253 82.6675 40.91 82.8192 40.8222C83.8738 40.2216 83.7268 38.4859 83.8031 38.142C84.1481 36.5781 84.7509 36.2076 85.3072 34.9537C86.719 31.7631 88.4656 28.2648 90.237 24.858L98.8418 31.2065C96.2694 33.6324 93.7025 35.9781 91.4725 38.0287C85.4126 43.6046 80.5385 47.7532 74.961 53.279C74.6062 53.6298 75.3557 53.682 75.0548 53.9896C71.152 57.9423 67.0664 61.5815 63.1742 65.5612C62.8541 65.887 63.695 65.8106 63.1936 66.3465C62.1677 67.4482 60.7774 68.7497 59.5664 69.6835C58.9764 70.1397 59.3768 69.1227 58.7894 69.5885C57.4209 70.6725 56.0544 71.9387 54.829 73.2389C54.3083 73.7931 55.5086 73.3867 54.8025 74.0767C50.5618 78.2345 46.41 82.3493 41.7942 86.1571L33.3006 79.8845C33.7122 79.2082 34.1332 78.5342 34.5652 77.8629C34.8186 77.4691 35.9842 77.6014 36.2438 76.6225C36.0053 76.4181 35.6833 76.2594 35.4071 76.083C39.6747 67.2712 44.3939 58.8003 48.8833 50.0701C49.0725 49.702 48.2295 50.0767 48.5931 49.3627C49.797 46.9974 50.9314 44.6462 52.1802 42.3235L59.5604 49.699C57.7814 50.5479 55.9603 51.3462 54.0387 52.0436C53.5933 52.2062 53.3449 51.1829 52.1781 51.9489C51.9727 52.0848 50.1716 53.1521 49.7906 53.5949C49.7404 53.658 50.2968 53.9121 49.7027 54.2292C46.247 56.0643 42.5417 57.8222 38.9268 59.3288C38.343 59.5712 38.711 58.8131 38.2932 58.9818C35.3311 60.1817 32.4175 62.0945 29.4947 63.059C27.5375 63.703 27.8114 62.5765 26.454 62.2933C26.2622 62.2535 25.1287 62.807 24.8423 62.3868C24.1191 61.3317 24.0355 59.8169 23.2002 58.7249C23.0212 58.4893 21.6569 59.5333 22.2303 58.4533C22.2713 58.3797 23.2577 57.6173 23.4186 57.2679C23.5312 57.0258 22.9617 56.7396 23.2482 56.3574C23.5347 55.9753 24.1491 56.1456 24.6703 55.6029C25.1897 55.0575 24.6473 54.6785 25.8805 53.9752ZM103.901 57.1736C104.696 56.2435 103.027 55.5631 103.085 56.8482C103.09 56.9111 103.861 57.222 103.901 57.1736ZM125.769 56.7512C124.346 57.6166 124.844 59.0701 125.894 58.4862C126.943 57.9022 126.202 56.4869 125.769 56.7512ZM128.643 46.8078C129.716 45.3337 127.344 44.3717 127.332 46.2772C127.33 46.3877 128.58 46.894 128.643 46.8078ZM30.8183 59.8018C30.7937 59.7876 29.9747 60.1772 29.966 60.208C29.7935 60.9347 31.4309 60.1554 30.8183 59.8018ZM125.082 61.4774C125.56 61.0585 125.604 59.4689 125.009 59.9893C124.53 60.4083 124.486 61.9992 125.082 61.4774ZM94.2918 58.7852C94.2598 58.7832 93.8492 59.2876 93.9777 59.3682C94.3929 59.6262 94.828 58.8213 94.2918 58.7852ZM118.03 86.1229C119.168 82.5093 121.823 80.8829 120.456 84.7813C120.208 85.4873 120.256 83.0491 119.811 83.9104C118.999 85.4868 119.949 86.9615 118.779 88.4722C118.566 88.7452 117.961 86.3277 118.029 86.1156C118.03 86.118 118.03 86.1205 118.03 86.1229ZM106.151 57.1831C106.181 57.1685 106.464 56.3142 106.448 56.2867C106.044 55.6548 105.473 57.3757 106.151 57.1831ZM70.5642 88.3956C70.4939 88.4048 69.1986 90.0434 69.1948 90.1258C69.2825 91.5565 71.9035 88.2455 70.5642 88.3956ZM89.7772 115.543C90.0399 116.649 89.7627 117.792 88.8465 118.332C89.1669 117.409 89.458 116.471 89.7772 115.543Z" fill="#E6FF43"/>
<path d="M54.3595 38.8296C54.937 38.7875 55.7267 39.2181 56.4025 39.2737C59.2331 39.5107 60.2697 39.8345 62.8271 40.1204C66.619 40.5446 77.9344 40.6195 77.7946 43.3192C77.7946 43.3193 77.7946 43.3193 77.7946 43.3194C77.7932 43.3458 77.7907 43.3726 77.7871 43.3996C77.7208 43.9118 76.7316 44.4235 76.5589 44.9978C76.3864 45.5723 76.2983 49.3343 74.9236 49.4747C72.9318 49.6504 68.2385 48.4412 67.1817 48.4292C66.4591 48.4212 65.5538 48.7166 64.6287 48.7294C61.6461 48.7707 60.1037 48.4403 57.3775 49.229C56.3316 48.6846 55.2858 48.1401 54.2399 47.5957C52.8305 47.7499 50.7456 46.9953 49.8947 46.9867C49.1966 46.9798 48.7683 47.3452 48.0413 47.3255C47.2259 47.3056 45.9969 46.8235 44.5125 46.8095C42.079 46.7846 41.5946 47.7706 40.131 47.8231C38.6133 47.8772 36.2921 47.2073 34.3459 47.4621C34.0983 47.5605 33.8508 47.6589 33.6032 47.7573C33.7634 48.0172 33.9237 48.277 34.0839 48.5369C33.1068 48.6033 32.7159 48.0675 31.8242 48.0119C30.775 47.9462 30.2141 48.4059 29.5078 48.367C28.9292 48.3347 28.1649 47.9031 27.4133 47.8887C26.3176 47.8656 26.5275 48.4424 25.9334 48.5175C25.6964 48.5463 21.3378 48.6325 21.0925 48.6242C19.2282 48.5498 19.106 47.769 17.6238 47.6243C14.9388 47.3644 12.1892 47.4469 9.53946 47.546L13.408 39.0043C14.4766 39.9218 15.5276 40.8166 16.51 41.7081C17.7747 42.8554 18.983 44.1607 20.0799 45.4646C16.7943 44.928 19.8229 50.2467 20.4968 46.4985C21.5001 48.1605 23.0345 48.5376 24.1836 49.9204C24.9263 50.8153 25.1783 51.6898 26.3412 52.868C28.4067 54.9566 31.5228 56.4067 30.5312 58.5515C33.2154 60.7504 34.7253 63.4485 36.988 62.9798C37.6935 63.5338 38.4518 65.9758 39.0346 66.8003C39.5862 67.5796 44.2592 73.1296 45.0641 73.9982C45.8691 74.8668 47.292 76.3737 48.1101 76.9688C49.1354 77.7187 51.1935 76.9364 51.057 80.1821C52.7225 81.658 53.3992 82.3901 54.4912 83.7739L56.0094 85.4127L55.1506 87.2993C55.0067 87.5588 54.8503 87.8363 54.6779 88.1406C54.4612 88.523 54.1192 88.4311 54.0191 88.6657C53.8133 89.1492 53.7018 90.0733 53.3636 90.9487C52.8074 92.3882 51.7837 92.9093 52.8881 93.1924C52.6639 94.2021 52.4396 95.2118 52.2154 96.2215C51.8755 96.4646 51.5357 96.7076 51.1958 96.9507C51.2011 97.5438 51.2064 98.1369 51.2117 98.73C49.9609 97.5039 49.3483 101.402 50.6959 100.625C49.6137 102.307 48.5314 103.988 47.4491 105.67C45.8512 104.691 45.5577 109.569 46.6368 109.607C46.5472 109.814 46.4575 110.021 46.3678 110.228C45.1414 111.852 44.8021 113.679 43.5555 115.764C42.3089 117.849 42.2312 117.571 41.1601 117.91C40.9833 118.45 40.8065 118.991 40.6297 119.531C41.6169 123.181 38.0988 121.113 37.7561 126.498C36.881 126.903 36.2247 127.903 35.7102 129.119L32.992 127.149C34.2537 126.04 35.4605 124.517 36.4161 123.35C36.6147 123.107 36.4309 122.889 36.683 122.552C37.3015 121.729 39.4764 120.313 38.8046 119.679C39.6492 119.294 40.4938 118.908 41.3384 118.523C41.7753 117.918 42.2123 117.314 42.6493 116.709C42.4574 116.495 42.2656 116.282 42.0738 116.068C43.8198 115.841 45.3032 114.043 46.3112 113.472C46.5123 113.359 46.8099 113.625 47.4092 113.244C48.111 112.8 49.1843 111.705 50.0014 111.155C49.9985 110.574 49.9956 109.994 49.9927 109.414C51.1516 108.083 52.3765 108.55 53.2083 107.942C53.3577 107.832 55.8405 105.549 55.9609 105.411C56.9513 104.284 55.9845 103.819 59.3609 101.145C59.9626 100.67 60.6537 100.519 61.1837 100.073C62.1205 99.2863 64.3843 96.2768 64.1313 95.5475C65.8374 95.2445 68.5834 92.3554 69.6336 91.7803C69.9516 91.6078 70.3871 91.9845 71.2832 91.3617C72.0101 90.8572 73.4135 89.0224 74.3031 88.3456C74.5231 88.1788 74.7262 88.0553 74.9137 87.9598L77.0452 86.1865L79.2073 87.6182C79.6867 88.1197 79.8248 88.5463 80.1558 88.7845C80.5635 89.0773 81.1604 88.995 81.7377 89.3596C83.5364 90.5033 84.8412 92.056 86.2624 92.9606C88.3171 94.27 90.7489 94.4431 92.7461 95.0952C93.1353 95.4268 93.426 95.8991 93.8743 96.1829C99.4152 99.6992 105.575 103.81 111.022 107.514C111.65 107.941 112.469 108.593 113.34 109.281L108.332 113.23C107.612 109.953 106.737 106.119 105.376 108.186C104.607 107.324 103.134 99.6731 102.68 98.2762C102.227 96.8797 101.414 95.9251 101.04 94.8336C99.9092 91.5394 99.4442 89.1082 97.7078 85.2199C97.258 84.216 96.3616 83.28 96.1607 82.6634C96.0815 82.419 96.0541 82.1502 96.0424 81.8652L94.8778 78.0987L97.9844 76.1031C98.5381 75.9246 99.1749 75.7916 99.7495 75.4294C101.788 74.1392 105.41 71.4716 107.377 70.2494C107.736 70.0272 108.122 70.3311 108.704 70.113C110.972 69.2654 113.127 67.7442 111.902 66.7698C114.874 65.7792 116.749 63.5732 119.036 61.9655C123.872 58.5689 132.977 52.8161 136.886 49.4074C139.35 47.2579 138.905 46.7501 143.185 44.5463C143.657 44.303 144.135 44.0695 144.637 43.823L147.496 53.9751C146.94 53.8701 146.356 53.7606 145.713 53.6534C142.717 53.1521 140.012 51.7858 137.645 53.1676C134.318 52.6238 131.64 52.7725 129.217 51.3817C128.91 51.6735 128.603 51.9653 128.296 52.2571C127.885 52.2454 127.475 52.2336 127.064 52.2219C126.95 51.9245 126.836 51.627 126.721 51.3296C123.786 51.1129 120.002 52.1353 117.515 52.0096C113.972 51.8315 105.701 51.1041 100.879 50.5341L97.8627 50.3169L97.0085 47.6404C96.7849 46.8105 96.5969 46.0827 96.4577 45.5007C95.9665 43.4464 95.3391 43.5442 96.1583 41.9864C95.9199 41.5715 95.6814 41.1566 95.4429 40.7417C95.0808 40.5559 94.7187 40.3701 94.3565 40.1843C93.4623 37.6401 92.827 34.4751 91.981 32.0493C90.4386 27.6295 87.404 21.2417 86.344 16.6337C86.0977 15.5599 86.1365 14.118 85.8349 13.046L92.5193 13.0176C92.4874 13.0963 92.4584 13.1746 92.4326 13.2522C91.9042 14.8469 92.6857 15.5415 92.0214 17.5673C90.8748 21.0582 87.6282 27.1846 86.5992 30.5027C86.293 31.488 86.4785 32.0585 86.2871 32.7456C85.4882 35.628 84.6768 37.9421 84.2859 40.8326C82.4291 43.4514 81.3859 42.8192 79.943 43.3382C78.8531 43.7327 76.1543 45.1595 75.3013 45.2036C74.7021 45.2345 74.2856 44.2239 73.6048 44.3208C74.3176 40.6733 75.3239 39.3792 77.0986 36.8208C78.8317 31.575 80.5648 26.3293 82.2979 21.0836C82.7762 20.7145 83.2544 20.3453 83.7327 19.9762C83.7334 19.9765 83.7341 19.9767 83.7348 19.9769C84.7795 18.0903 84.2489 16.9623 84.4289 15.8155C84.673 14.2601 85.0488 12.5244 85.5256 10.6585L88.9719 -2.2389e-06L92.8083 10.6276C97.0263 20.3589 101.243 35.0888 104.394 45.0791L101.246 42.7257C102.292 42.8046 103.29 42.8757 104.23 42.9365C106.824 43.1035 115.289 43.0495 117.045 43.677C117.499 43.8404 117.603 44.3627 118.093 44.4082C122.491 44.3074 126.888 44.2065 131.286 44.1056C136.737 44.8502 142.325 45.06 147.909 45.1778L157.62 45.5166L149.58 51.1122C146.644 53.2162 143.732 55.3499 140.804 57.3943C128.174 66.2124 115.64 74.9999 103.1 83.6464L104.68 78.9569C107.649 87.5543 110.57 96.1401 113.413 104.729C114.036 106.613 114.802 108.689 115.571 110.792L119.503 121.972L109.282 115.753C106.669 114.207 104.021 112.626 101.865 111.104C100.301 110.002 100.067 108.876 97.612 108.066C97.7085 107.863 97.8049 107.66 97.9014 107.456C95.9021 106.521 94.4458 106.209 92.3376 104.948C90.5627 103.886 85.9093 101.008 84.4063 99.9644C83.6259 99.4247 84.1471 99.2582 83.3973 98.7906C82.1119 97.9927 79.0662 96.7651 77.2974 95.6561C76.6666 95.2607 75.9052 94.6953 75.1363 94.1115L79.9605 93.7276C78.7584 94.6029 77.5095 95.4827 76.8738 96.0951C73.096 99.7295 69.2734 104.022 64.948 107.553C63.7523 108.527 61.9034 109.425 61.55 109.754C60.8611 110.399 60.9963 110.98 60.5642 111.448C58.3681 113.824 54.1819 116.656 51.7922 118.714C46.9182 122.911 41.9445 127.357 37.0016 131.731L30.1074 126.735C31.6318 123.096 33.1575 119.486 34.6895 115.978C37.2763 110.054 41.3971 100.133 44.0981 94.7959C44.6806 93.6452 45.0769 94.1866 45.5 93.1922C45.969 92.0896 45.8647 91.34 46.0549 90.8125C46.6173 89.2498 47.4859 86.8867 48.4366 84.4425L49.2636 88.8642C46.7386 86.4287 44.1366 83.8016 42.839 82.1425C42.4075 81.5897 42.3785 80.9123 42.0861 80.6144C41.9388 80.4631 41.385 80.3363 40.8998 79.8832C36.615 75.8827 33.7655 72.6986 29.8387 68.5143C22.8896 61.1126 14.4292 53.1056 7.00672 45.2375L5.44051e-06 38.2552L10.0023 38.6233C10.8926 38.6836 11.777 38.748 12.6543 38.8172C15.1625 39.0149 16.8386 39.9967 17.1922 40.006C17.9682 40.0283 18.4955 39.4537 20.0729 39.3869C25.3174 39.1703 32.3131 40.1754 37.2929 40.132C39.7531 40.111 43.1628 39.5238 45.585 39.4804C47.5197 39.4456 52.0566 39.9807 52.9284 39.6905C53.4586 39.5153 53.7328 38.8786 54.3595 38.8296ZM27.212 54.4814C26.2275 54.9602 29.3675 56.9467 28.8214 55.5862C28.6984 55.2798 27.4674 54.3569 27.212 54.4814ZM100.348 102.39C100.478 102.121 100.608 101.852 100.737 101.583C100.27 101.435 99.8021 101.288 99.3346 101.141C99.4657 101.433 99.5968 101.726 99.7279 102.019C99.9347 102.143 100.142 102.266 100.348 102.39Z" fill="white"/>
</svg>
