<svg width="118" height="82" viewBox="0 0 118 82" fill="none" xmlns="http://www.w3.org/2000/svg">
<path d="M19.3474 39.7537C20.6517 38.4672 22.5992 37.0671 24.1447 36.0818C24.6285 35.7724 24.6097 36.2015 24.9529 35.9989C25.6238 35.6025 26.0756 35.0245 26.7546 34.6521C26.9807 34.5298 27.0612 35.1178 27.2909 34.9807C28.547 34.2269 29.5187 33.2531 30.7155 32.3984C36.611 28.189 42.1951 23.7972 47.9676 19.3014C48.0096 19.2687 48.0518 19.236 48.0944 19.2032L55.0794 13.1593L53.5816 22.4125C53.0658 24.7378 52.1264 27.4705 51.881 29.9017C51.8522 30.192 52.3183 30.101 52.3442 30.1619C52.7372 31.1157 51.9108 30.6715 51.6924 31.2074C50.8276 33.3351 50.3382 35.7873 50.1172 37.9465C50.0245 38.8654 51.0544 38.1153 50.4028 38.9385C50.3585 38.9958 49.9385 38.6817 49.8439 38.921C49.6302 39.464 49.5175 40.5476 49.4012 40.9774C49.1746 41.8053 49.1538 41.9453 49.0032 42.74C48.7933 43.8257 48.3273 45.0775 48.2188 46.2636C48.197 46.5171 48.7308 46.2738 48.7388 46.6858C48.7466 47.0981 48.5142 48.1427 48.3378 48.4769C48.1613 48.8113 47.8167 48.5922 47.7199 48.6394C46.9055 49.0243 47.6805 50.4233 47.6766 50.5843C47.5753 53.5156 46.56 55.8597 46.0721 58.5395C45.7029 60.5741 45.4931 62.7834 45.1138 64.7143C44.66 67.0142 44.0464 68.9217 43.6812 71.1699C43.6421 71.4071 44.2495 71.2318 44.2029 71.5217C44.0508 72.4667 43.8873 73.4075 43.7066 74.344L38.2995 72.0803C39.555 70.3295 40.8805 68.6351 42.3342 67.026C42.545 66.7935 42.721 67.4075 42.9558 67.1923C44.3848 65.8681 46.9198 63.9655 45.7994 61.7962C46.6101 60.7889 47.5818 59.5571 48.6021 58.8632C49.2596 58.4154 49.2871 59.3181 49.6235 58.4372C49.6999 58.2388 49.1578 58.1858 49.3017 57.909C49.9079 56.7438 50.8515 55.6684 51.3913 54.4736C51.5002 54.2299 51.1114 54.0443 51.0915 53.9396C50.943 53.073 52.3779 52.8118 52.5689 52.6693C54.0138 51.5774 54.5587 50.4216 55.4927 49.1152C55.7097 48.8121 54.9896 48.8447 55.1815 48.5413C56.1836 46.9723 57.331 45.4238 58.5848 44.0789C58.8649 43.7806 59.0485 44.3648 59.2027 44.2365C59.8776 43.6675 59.2351 42.985 59.8679 42.4291C60.0004 42.3112 60.285 42.63 60.3405 42.6304C61.2107 42.6395 60.6249 41.705 60.6794 41.5884C61.3497 40.1003 62.807 39.8717 63.5741 38.518C63.6649 38.3555 62.994 38.3947 63.2758 37.9563C65.1509 35.0335 67.3781 32.1138 69.6964 29.5454C70.0563 29.1457 70.1609 29.6849 70.2201 29.6854C71.1583 29.6751 70.5266 28.7985 70.5952 28.6339C71.1582 27.3509 72.5961 26.7928 72.1375 25.3304C75.8259 20.8126 78.595 15.6817 82.8018 11.5867C82.8543 11.5339 83.1902 11.9304 83.2931 11.8239C84.5367 10.5441 83.7029 10.372 83.591 8.86873C83.5634 8.49048 85.021 8.42237 85.1356 8.40628C85.5562 8.34969 85.9965 9.02398 86.1013 8.97973C86.6293 8.74229 86.0115 8.14138 85.6218 7.5089L88.0749 8.7237C88.4137 9.01712 88.6769 9.34642 88.5546 9.73265C88.5405 9.76351 88.1493 9.49098 88.0789 9.56339C87.8585 9.78795 87.9467 10.108 87.7142 10.3224C87.1784 10.8119 85.9651 10.6618 86.3413 11.7887C86.391 11.932 87.7844 12.1795 87.4304 13.0756C87.2882 13.4325 86.7979 15.0565 86.5675 15.4821C86.3373 15.9072 86.005 15.4596 85.9761 15.486C85.0192 16.5245 84.9298 15.9872 83.8923 16.3303C82.8579 16.6744 84.9162 17.1413 85.0609 17.4613C85.2048 17.7816 84.4509 18.5263 84.2177 18.6942C83.9845 18.8618 83.7976 18.5011 83.6431 18.6669C82.6277 19.7697 84.4577 19.551 84.6405 20.0786C85.0745 21.3234 83.3394 21.6349 82.9014 22.5094C82.783 22.746 83.1861 22.6502 83.1474 22.8821C82.9894 23.7991 82.3578 24.1802 82.4658 25.3148C82.4832 25.5003 83.1205 26.5921 82.2986 26.907C82.1805 26.951 81.8769 26.6229 81.675 26.9711C81.3729 27.4909 80.972 28.4731 80.905 29.1137C80.8557 29.5867 81.6276 29.2716 81.2606 29.7702C81.0971 29.9916 80.8861 29.418 80.6088 29.8436C80.3322 30.2666 79.9712 31.4582 79.8403 31.9136C79.7098 32.3683 80.2511 32.2686 80.2708 32.3149C80.3795 32.5921 80.3282 33.5279 80.3034 33.6042C79.1361 37.4777 77.227 40.7854 76.2938 44.6212C76.2199 44.922 76.7705 44.8808 76.7642 44.9283C76.6487 46.0017 75.6029 44.7945 74.9447 45.3611C75.9679 45.5738 75.6565 45.9327 75.5396 46.6776C75.4841 47.0368 75.927 46.9721 75.9563 47.0158C76.3779 47.7085 75.5131 47.8231 75.3302 47.8652C74.6571 48.0217 75.2102 48.6 74.7589 48.7086C74.3106 48.818 73.9206 48.1149 73.7115 48.7985C74.0055 49.1021 75.093 48.8905 75.079 49.4555C75.0277 51.5876 73.144 54.9999 72.5704 56.5452C71.9978 58.0873 71.9027 58.6139 71.4848 59.4858C70.7298 61.0607 71.6093 60.6749 71.5991 61.7983C71.588 62.9248 70.0544 61.8887 69.6438 61.9208C69.2342 61.9502 69.5583 62.2272 69.3012 62.3439C69.0444 62.4601 68.9205 61.9928 68.7114 62.3914C68.5023 62.7902 68.7823 64.151 69.1151 64.4216C69.8203 64.994 70.8313 64.7418 70.1792 65.7658C70.1411 65.8245 69.7625 65.4745 69.6393 65.7065C69.0053 66.9223 68.5 68.2152 67.9654 69.4866L66.8658 69.0147C67.2668 68.421 67.6744 67.8345 68.1077 67.2731C68.2825 67.0477 68.6158 67.519 68.7228 67.3906C69.8379 66.0543 68.7763 66.1669 68.376 64.8775C69.4084 65.6861 70.3519 65.6145 70.9841 64.4825C71.3645 63.8021 70.8046 63.647 70.6988 63.0131C70.6665 62.8227 71.2726 62.5269 71.0879 62.3111C70.4856 61.6032 69.3828 61.5889 70.367 60.6048C70.4115 60.5623 70.7381 60.9553 70.8611 60.7917C71.6582 59.7352 70.9376 59.1594 71.5242 57.8659C71.984 56.852 73.4219 55.3903 74.1105 54.3267C75.3725 55.052 75.6564 53.8456 75.0111 52.9374C75.4427 52.2388 75.8204 51.4354 76.3243 50.808C76.4974 50.5918 76.78 50.9521 76.8364 50.9439C77.7165 50.8263 77.0334 50.043 77.0853 49.8695C77.6851 48.0093 79.0873 46.9968 79.3373 45.044C79.3459 44.9745 78.5112 44.3946 79.3939 44.3219C79.4537 44.3187 79.5648 45.0703 80.0116 44.333C80.4584 43.5955 81.7166 42.4342 81.8833 41.1606C81.9241 40.8527 81.5584 39.8155 82.4035 39.6101C82.5176 39.5835 82.7302 39.7984 82.926 39.7773C83.5526 39.7053 82.7538 39.0377 83.7212 39.0804C84.6887 39.123 85.6889 38.6543 85.7462 37.3088C85.7495 37.2668 85.1779 36.626 85.3721 36.2999C85.6827 35.7796 86.2452 35.108 86.5456 34.5516C86.6892 34.2851 86.1552 34.2122 86.1725 34.1618C86.9076 32.2428 87.9992 31.1901 89.2216 29.3738C89.4466 29.0413 89.4001 27.7043 90.2483 27.2879C91.1781 26.8299 92.9194 28.7858 93.3464 26.7911C93.5203 25.9876 91.2579 23.603 93.3623 23.1457C94.0704 21.2529 95.2983 19.7714 96.2322 18.0675L95.2136 17.7446C95.135 18.4653 95.1061 19.199 95.1786 19.9599C95.1902 20.0857 96.0157 20.5714 95.9718 20.8594C95.9048 21.2867 95.4725 21.4774 95.4117 21.7811C95.1466 23.0525 95.3634 24.2671 95.1717 25.5001C95.0998 25.9683 94.6982 25.7572 94.6124 26.3156C94.527 26.8737 95.0384 27.309 94.6869 28.0392C94.4196 28.5904 93.2258 29.0386 93.0094 29.7856C94.1209 29.9385 94.0398 30.4591 94.2308 31.4216C94.268 31.6067 94.6773 31.4581 94.7149 31.5479C94.8766 31.9142 94.5197 32.1969 94.7011 32.5478C94.7445 32.6331 95.1248 32.6791 95.1818 32.7513C95.681 33.366 94.7236 34.1811 94.5571 34.3209C93.9243 34.8571 94.3883 35.1921 94.1143 35.6269C93.8403 36.061 93.6379 35.344 93.443 35.8649C93.0397 36.9447 92.9426 38.379 92.7998 39.5053C92.7451 39.955 93.2874 39.7043 93.2914 39.77C93.3168 40.7152 92.6717 41.5966 93.6265 42.2252C90.9377 42.5798 93.818 42.8147 93.1462 44.0872C93.0922 44.1873 91.8398 44.1831 91.7028 43.7605C91.566 43.3379 92.0206 42.7707 91.7994 42.181C91.7477 42.0414 90.6721 41.1551 90.6133 41.044C90.1542 40.1735 92.0164 40.2643 92.1228 40.2328C93.273 39.8689 92.1264 38.8046 92.0671 38.5513C91.7955 37.3924 92.1608 36.474 91.9821 35.51C91.8673 34.8798 90.6625 34.6856 90.7528 34.2107C91.0523 32.6323 92.804 32.2643 91.5054 30.6012C91.2286 30.2448 89.869 30.4174 91.0382 29.3803C91.1119 29.3152 92.1595 28.5652 91.612 28.0038C91.5429 27.9333 91.1568 27.8924 91.1335 27.8069C90.9848 27.2347 91.3329 26.9028 91.2521 26.2885C91.1712 25.6743 91.0316 24.931 91.2384 24.2629C91.3623 23.8602 92.14 23.4123 92.3379 23.2349C92.9067 22.7351 92.1416 22.0465 92.7939 21.7703C93.4496 21.4914 94.3114 22.2747 94.8113 21.4081C93.8125 21.2629 92.7921 21.0711 91.7898 20.9048C91.9408 19.735 92.1901 18.5873 92.4063 17.4327L98.7063 19.4301C98.2551 20.1221 97.8176 20.8236 97.4323 21.5613C97.3175 21.7834 97.9158 21.8211 97.805 22.0659C97.3353 23.0973 96.5205 23.7755 96.09 24.8763C95.7585 25.7294 95.7816 26.8777 95.4507 27.7784C94.1601 27.7291 93.8243 29.1511 93.2387 29.9959C93.0339 30.2921 92.7754 30.1224 92.5645 30.297C91.775 30.9593 92.8858 31.0569 92.8993 31.3652C92.9541 32.6858 90.8851 31.6567 90.2922 32.8516C90.2601 32.9145 90.9218 34.2641 90.9316 34.4052C91.005 35.3079 90.496 34.3081 90.1884 34.6782C89.6265 35.354 89.0798 35.7375 88.9071 36.7983C88.8582 37.1085 89.1884 38.0989 88.3921 38.3149C88.2877 38.3435 87.9514 38.1107 87.9013 38.1524C87.0233 38.9234 88.129 39.5653 88.2053 40.3242C88.2814 41.0832 87.0405 41.5072 86.7225 41.5574C85.8971 41.6925 86.6672 41.0752 86.6241 41.0195C86.1097 40.3611 85.8842 41.0446 85.5666 41.4868C84.431 40.9508 84.1322 41.6493 85.2417 41.9477C85.3635 41.9792 85.4641 41.5543 85.5666 41.4868C86.4147 42.4957 86.1519 43.2994 84.7027 43.5489C84.0237 43.6653 83.6696 43.0067 83.2414 44.2605C83.0465 44.8292 83.9128 45.0451 83.8668 45.6164C83.761 46.9211 82.3075 47.8918 81.8248 49.0311C81.6496 49.4447 82.2733 49.2913 82.1678 49.5818C81.8892 50.3534 81.2341 50.8083 81.0006 51.6087C80.9799 51.6815 81.5 51.7622 81.3834 51.9869C80.5083 53.695 79.4251 55.0053 78.4512 56.7555C77.9808 57.6013 77.385 59.2484 76.8534 60.1001C75.9345 61.5776 74.2736 63.103 73.7105 64.4874C73.3415 65.3893 73.8771 65.4419 73.9722 65.9678C74.1582 66.9841 72.4498 67.6607 72.1991 67.7405C72.191 67.7427 72.4908 66.9567 72.054 67.2236C71.4659 67.1948 72.2016 67.7311 72.1991 67.7405C72.0361 67.7937 71.135 69.1973 71.0584 69.5323C71.0171 69.7145 71.476 69.8526 71.4466 69.9433C71.299 70.3931 71.1398 70.8368 70.9686 71.2743L63.5011 68.0696C63.814 66.3202 64.3123 64.6238 65.0175 62.9749C65.0385 62.9399 65.52 63.1555 65.5633 63.0712C66.1807 61.8964 65.8227 60.905 65.7858 59.7627C65.7491 58.6207 66.1291 57.8448 67.1797 57.5092C67.3176 56.7001 68.0497 55.7088 68.4828 55.1421C68.9159 54.5754 67.9718 54.1775 67.9704 54.1151C67.9123 52.1642 68.7911 51.3261 69.4558 49.5323C69.7735 48.68 70.1777 46.9176 70.3689 45.9463C70.5185 45.1781 70.888 44.8041 70.959 44.0751C70.9689 43.9766 70.5063 43.9324 70.4986 43.8989C70.2224 42.9725 71.1647 43.6747 71.4036 43.5774C72.2722 43.2253 72.7502 42.9891 72.7365 41.9107C72.7338 41.6621 71.4179 40.5227 71.4589 40.0842C71.5152 39.5149 71.9976 39.8896 72.0425 39.289C72.0469 39.2378 71.7067 39.1408 71.831 38.8008C72.4034 37.2212 73.1533 35.5389 73.6473 33.8654C73.7161 33.6372 73.0891 33.7587 73.1796 33.4263C73.605 31.8663 74.1606 30.1847 74.887 28.7639C75.0675 28.4148 75.3683 28.7651 75.5049 28.7202C76.3335 28.4415 75.578 27.4335 75.5959 27.3124C75.9983 24.4167 77.5498 22.5951 78.0174 19.662C78.0411 19.5017 77.366 17.9962 78.4304 17.758C78.5016 17.7412 79.585 17.5151 79.1019 16.8578C79.0716 16.8169 78.4961 16.9894 78.723 16.4416C78.9499 15.8938 78.9215 14.8874 79.6871 14.2785C79.9286 14.0854 81.0292 13.7973 80.5304 12.8344C80.4945 12.7706 79.2002 11.1177 80.4682 11.0769C80.6766 11.0712 81.8614 11.5225 81.5197 10.4538C81.4527 10.249 81.0875 10.4662 81.0588 9.97374C81.0134 9.21877 81.6195 8.42994 81.3446 7.43231C81.3107 7.31282 81.0073 6.86512 81.0695 6.50005L91.6365 11.733C91.5588 11.8845 91.4127 11.9962 91.151 12.0113C91.0209 12.0189 90.7635 11.6502 90.5679 11.8463C89.6365 12.7778 89.087 14.0522 88.0905 14.9623C87.7383 15.2851 87.3163 14.6972 86.8869 14.9901C86.4575 15.2831 85.7502 15.9839 85.7131 16.5799C85.6761 17.1761 86.8868 17.3467 86.5197 18.021C84.9236 20.9521 82.513 23.2732 80.5335 25.9292C80.2399 26.3231 80.7927 26.2138 80.3828 26.8103C78.8731 29.0105 76.5245 32.9904 74.5163 34.4093C72.9075 35.5463 73.8361 33.3457 72.8006 34.3507C72.3021 34.8366 72.9127 36.1697 72.8504 36.3277C72.2546 37.8805 71.1513 38.4757 70.4577 39.7628C70.3146 40.0287 70.9034 40.0829 70.777 40.3059C70.3489 41.0704 69.635 41.6884 69.1906 42.3941C68.9922 42.7114 69.3524 42.8802 69.1301 43.1442C68.6017 43.7785 68.0488 44.2792 67.2873 44.7244C67.2179 44.765 67.1023 44.0815 66.7377 44.5691C66.1486 45.3593 65.1493 46.1517 64.8042 47.2942C64.703 47.6341 65.4283 48.1596 64.5067 48.3957C64.3139 48.4456 63.545 47.6692 63.8215 48.8923C63.8664 49.097 64.0792 50.9748 63.0191 51.0786C62.7398 51.1063 61.751 50.983 61.6318 51.3934C61.6183 51.451 62.1383 51.5477 61.9841 51.8489C61.4338 52.9056 60.6804 53.889 60.1064 54.9685C59.9539 55.2573 60.6386 55.1485 60.3983 55.5698C59.7381 56.7288 58.6816 58.0128 57.8078 58.9859C57.4848 59.3441 57.3376 58.8363 57.2808 58.839C56.3615 58.878 56.9774 59.7152 56.9176 59.9004C56.5345 61.0444 55.6497 61.499 55.1374 62.4416C54.995 62.701 55.4993 62.8003 55.4999 62.8723C55.4858 63.6044 55.0554 62.7494 54.7584 63.0105C53.9241 63.7404 53.2651 64.7444 52.6884 65.6701C52.4771 66.0105 53.1812 65.9556 52.9865 66.2575C51.8422 68.0501 50.5302 69.8276 49.0928 71.3519C48.8213 71.6383 48.6193 71.1962 48.4941 71.2078C47.6233 71.2815 47.8991 72.4795 47.8617 72.6844C47.6928 73.6166 47.1973 73.6768 46.8176 74.338C46.3347 75.182 45.7849 76.0515 45.198 76.925L35.4142 72.829C35.8892 69.8872 36.6209 66.7913 37.1964 64.2657C38.2086 59.8119 39.2375 56.4004 39.9176 52.1011C39.9613 51.8279 39.3623 52.002 39.393 51.7652C39.8139 48.7131 40.5729 45.7713 40.9687 42.7084C41.0021 42.4572 40.4162 42.721 40.4524 42.3147C40.523 41.4806 40.741 40.4474 41.0585 39.649C41.2124 39.2594 41.5599 39.8832 41.7057 39.4894C42.0462 38.5726 42.2688 37.5638 42.3631 36.5754C42.4022 36.1546 41.7558 36.6822 41.848 36.1428C42.4651 32.4665 43.0313 28.8487 44.3974 25.2693C44.4911 25.0239 45.6135 24.9986 45.5047 24.4207C45.212 24.3251 44.8585 24.2628 44.5409 24.1865C44.7073 23.0729 44.8968 21.9661 45.1019 20.8633L53.6018 25.8346C50.2951 28.5628 46.8523 31.0982 43.5046 33.8178C43.3266 33.9625 44.0038 34.1574 43.6611 34.4399C41.678 36.0757 39.8608 37.7948 37.4679 39.0293C37.231 39.1524 36.6792 38.2785 36.1868 38.889C36.1005 38.9974 35.297 39.8423 35.2089 40.2048C35.199 40.2566 35.6672 40.4896 35.389 40.7387C33.7673 42.18 31.9494 43.5479 30.0974 44.706C29.7979 44.8923 29.7586 44.2627 29.5425 44.3919C28.0118 45.3116 26.7823 46.8361 25.1892 47.5579C24.1218 48.0396 23.8807 47.0951 22.8654 46.8116C22.722 46.7717 22.1718 47.2035 21.8218 46.8386C20.9401 45.9223 20.3134 44.6377 19.3429 43.6866C19.1343 43.4814 18.6144 44.3208 18.5913 43.4254C18.591 43.3644 18.964 42.7511 18.9401 42.4607C18.9243 42.2594 18.4352 41.9988 18.4829 41.6846C18.5308 41.3705 19.0062 41.5345 19.1506 41.092C19.2928 40.6473 18.7869 40.309 19.3474 39.7537ZM70.4253 52.5881C71.0804 52.1441 69.3976 51.5137 69.6035 52.2843C69.6155 52.3222 70.3927 52.6114 70.4253 52.5881ZM97.1852 19.1116C96.1 19.4414 96.8513 20.4899 97.6632 20.2827C98.4746 20.0753 97.5148 19.0105 97.1852 19.1116ZM93.5775 25.5817C94.3026 24.707 91.7899 24.2774 92.1889 25.3449C92.2113 25.4069 93.5353 25.6329 93.5775 25.5817ZM24.8479 44.8442C24.8261 44.8314 24.4247 45.1346 24.4305 45.1604C24.5888 45.7698 25.3913 45.1633 24.8479 44.8442ZM93.2796 33.9602C93.6544 33.7036 93.3537 32.8114 92.8876 33.1302C92.5126 33.3869 92.8132 34.2798 93.2796 33.9602ZM82.0586 22.2692C82.0871 22.268 82.219 21.9319 82.0727 21.893C81.6013 21.7691 81.5806 22.2885 82.0586 22.2692ZM91.7396 48.0854C92.0666 46.0095 94.2964 44.9766 93.8082 47.2225C93.7198 47.6292 93.2405 46.2617 92.9939 46.7645C92.5443 47.6846 93.7854 48.4667 92.9738 49.3665C92.8255 49.5292 91.7163 48.2033 91.7371 48.0813C91.7379 48.0827 91.7387 48.084 91.7396 48.0854ZM72.5881 52.8992C72.6145 52.8945 72.7868 52.426 72.768 52.4075C72.3067 51.9776 71.9592 52.9215 72.5881 52.8992ZM82.4364 12.9608C82.3792 12.9543 81.6753 13.8743 81.6918 13.9319C82.1072 14.9615 83.5325 13.1031 82.4364 12.9608ZM74.1541 54.328C73.9146 53.5748 74.1695 52.972 75.0093 52.9393C74.7149 53.3945 74.4473 53.8687 74.1541 54.328Z" fill="#E6FF43"/>
<path d="M37.386 20.8104C37.8169 20.8284 38.3233 21.3337 38.8097 21.4579C40.8466 21.9824 41.5523 22.408 43.3804 22.9526C46.0909 23.7604 54.3817 24.9981 53.8203 27.6425C53.8203 27.6425 53.8203 27.6425 53.8203 27.6426C53.8148 27.6685 53.8084 27.6946 53.8012 27.7208C53.6655 28.2185 52.8526 28.6206 52.6283 29.1684C52.4042 29.7165 51.7002 33.4124 50.6676 33.4093C49.1761 33.3775 45.9375 31.7039 45.164 31.5833C44.6352 31.5011 43.9206 31.699 43.2396 31.6165C41.0439 31.3503 39.9682 30.8662 37.8336 31.3626C37.1586 30.7188 36.4837 30.0751 35.8087 29.4313C34.7482 29.4382 33.3465 28.4806 32.7236 28.3847C32.2124 28.306 31.8361 28.6218 31.3059 28.5276C30.7109 28.4242 29.891 27.8229 28.8041 27.6565C27.0226 27.3817 26.4995 28.3029 25.4166 28.2041C24.2937 28.1013 22.7042 27.2027 21.2327 27.2535C21.0343 27.325 20.8359 27.3964 20.6376 27.4678C20.711 27.7402 20.7844 28.0127 20.8578 28.2851C20.1295 28.25 19.9337 27.6821 19.2888 27.5356C18.53 27.363 18.0403 27.758 17.5286 27.647C17.1096 27.5557 16.622 27.0521 16.0729 26.9606C15.2728 26.8252 15.3288 27.4148 14.8801 27.4276C14.7013 27.4316 11.4882 27.0681 11.3096 27.0348C10.748 26.925 10.4265 26.7265 10.1669 26.5108L14.9746 17.6979C15.1143 18.1542 15.1314 18.5716 15.5574 19.0575C17.577 21.356 20.2284 23.142 22.3854 24.9817C23.3487 25.803 24.2436 26.7692 25.0414 27.7494C22.2407 27.7366 24.234 31.9347 25.279 28.5892C25.9515 29.8932 27.244 30.009 28.0778 31.0505C28.6165 31.7248 28.7297 32.4489 29.6004 33.311C31.1474 34.8387 33.6889 35.6676 32.5623 37.6655C34.6356 39.2038 35.6237 41.337 37.6547 40.6184C38.2026 41.0019 38.5663 43.0165 38.9741 43.6516C39.2218 44.0368 40.7103 45.8925 41.9027 47.3429L43.561 49.1315L42.6449 51.1369C42.1533 52.0632 41.7429 52.8556 41.6124 53.1414C41.2484 53.939 40.629 55.3426 40.5028 56.0896C40.3414 57.0268 41.957 58.402 39.1416 59.017C38.5798 60.8621 38.2543 61.4673 37.3144 63.0094C37.1442 63.2886 36.8065 63.1874 36.7336 63.3616C36.584 63.7206 36.5686 64.4311 36.3308 65.0841C35.9393 66.1578 35.0076 66.4753 36.0969 66.7914C35.9818 67.5589 35.8667 68.3263 35.7516 69.0938C35.4492 69.2538 35.1468 69.4139 34.8445 69.5739C34.9085 70.0366 34.9725 70.4992 35.0365 70.9619C33.7129 69.8982 33.5118 72.8828 34.7294 72.3939C33.8567 73.6109 32.984 74.828 32.1112 76.045C30.4786 75.144 30.6814 78.9198 31.7221 79.0427C31.672 79.1601 31.6219 79.2774 31.5717 79.3948L25.0123 74.7136C25.0419 74.6877 25.0716 74.6618 25.1012 74.6359C26.5214 74.0341 27.2577 72.8416 28.8095 71.9062C30.3613 70.9709 30.3561 71.2169 31.3272 71.4948C31.6083 71.18 31.8894 70.8652 32.1705 70.5504C32.2638 67.342 34.6597 70.6266 36.2863 66.7851C38.1616 67.0847 39.8679 64.5382 41.0432 62.8993C41.18 62.7086 40.9936 62.4928 41.1632 62.2247C41.5802 61.5718 43.2457 60.5834 42.5865 59.9387C43.2555 59.7007 43.9244 59.4627 44.5934 59.2247C44.8848 58.7424 45.1762 58.2601 45.4676 57.7778C45.2749 57.5649 45.0823 57.352 44.8896 57.1391C46.3495 57.1516 47.3731 55.7401 48.1565 55.3575C48.313 55.282 48.6029 55.5542 49.0632 55.2901C49.6024 54.9829 50.3707 54.1442 50.994 53.7564C50.9131 53.2415 50.8322 52.7267 50.7513 52.2118C51.5609 51.1749 52.6698 51.739 53.2977 51.3019C53.3457 51.2682 53.7014 50.9374 54.1006 50.5603L55.6762 49.2536L57.3052 50.1366C57.9782 50.4469 58.7592 50.7995 58.8347 50.8213C59.9072 51.1377 60.0688 50.1158 62.8231 51.7271C63.3133 52.0146 63.5711 52.5248 64.0234 52.766C64.8223 53.1926 67.6088 53.7185 68.1203 53.1743C68.7027 54.4658 71.4946 55.4507 72.1533 56.0688C72.3514 56.2566 72.1494 56.7932 72.8134 57.2604C73.3514 57.6396 75.0549 57.9798 75.7593 58.4169C76.5059 58.8827 76.5718 59.4511 76.9079 59.6568C77.2257 59.8506 77.7043 59.6573 78.1555 59.8851C79.561 60.6019 80.5612 61.7971 81.6717 62.3643C83.2771 63.186 85.2138 62.8732 86.7909 63.0923C87.0928 63.326 87.3122 63.7103 87.6626 63.8877C91.9923 66.0897 96.8003 68.7262 101.05 71.1218C101.742 71.5118 102.726 72.2456 103.703 72.9046L99.7577 77.8715C98.5978 76.0259 97.3545 74.4232 96.6789 76.247C95.8279 75.9311 92.9898 70.8616 92.3088 70.0141C91.628 69.167 90.7204 68.7998 90.1706 68.1461C88.5114 66.173 87.6122 64.5609 85.2997 62.4018C84.7015 61.845 83.7234 61.5273 83.4224 61.1534C83.0608 60.7024 83.0746 59.8834 82.6232 59.2849C81.544 57.8609 79.288 55.4097 78.2671 54.0316C78.0816 53.7792 78.3721 53.3963 78.1996 52.9585C77.5294 51.2526 76.2466 49.7803 75.3161 50.9987C75.1578 50.534 74.9512 50.1183 74.711 49.7377L71.6362 45.7572L75.5346 43.0951C77.0568 42.255 78.0868 40.8848 79.3897 39.8827C82.8596 37.2181 89.4909 32.7875 92.1924 30.0281C93.8957 28.288 93.45 27.7841 96.6444 26.1584C97.3534 25.7974 98.0861 25.4746 98.9445 25.0347C100.958 24.0048 103.341 23.7918 103.831 21.5829C104.352 21.3128 104.83 21.0299 105.285 20.7542L108.055 29.8237C106.329 29.6028 104.844 29.476 103.475 28.4437C103.246 28.7407 103.017 29.0378 102.788 29.3348C102.484 29.3303 102.18 29.3257 101.876 29.3212C101.793 29.0259 101.71 28.7306 101.627 28.4353C99.454 28.2702 96.6458 29.3584 94.8043 29.2763C91.7168 29.1398 83.7817 28.3576 80.8692 27.8476C79.323 27.5768 79.2144 28.1978 78.3755 26.8789C78.0243 26.9544 77.673 27.0298 77.3217 27.1052C77.093 27.3776 76.8642 27.65 76.6354 27.9223C74.9504 27.8647 73.0134 27.4772 71.3072 27.3152L69.078 27.1512L68.0917 25.4485C67.9395 25.1724 67.7854 24.9071 67.6282 24.6569C65.7839 21.7235 62.3697 17.7218 60.9564 14.5018C60.6027 13.694 60.5165 12.4618 60.0581 11.7408C59.5011 10.8639 58.728 10.8968 57.9921 10.1569L65.9062 9.37298C65.8781 9.57671 65.8252 9.79746 65.7362 10.0415C64.8024 12.596 61.9665 16.9389 61.138 19.3738C60.8914 20.0968 61.1005 20.5566 60.95 21.0632C60.3224 23.1892 59.6537 24.8767 59.4223 27.0553C57.7551 28.8584 56.7109 28.2538 55.3378 28.4891C54.3007 28.6687 51.7558 29.4595 50.9307 29.3965C50.3511 29.3523 49.8954 28.5278 49.24 28.525C49.7449 25.8008 50.6548 24.9199 52.2454 23.1538C53.6583 19.3164 55.0712 15.479 56.4841 11.6416C56.9291 11.412 57.3742 11.1824 57.8192 10.9529C57.8199 10.9531 57.8206 10.9534 57.8213 10.9537C58.7381 9.62135 58.1658 8.69365 58.2818 7.83215C58.3365 7.42601 58.4054 7.00494 58.4876 6.57039L60.7753 5.72205e-06L64.7168 5.95339C67.9797 9.57737 71.5752 15.4678 74.8654 21.2144L71.6251 19.3333C76.5832 19.7232 81.3772 20.2096 85.0109 20.4406C86.9311 20.5621 93.2011 20.3597 94.4982 20.9562C94.834 21.1115 94.9084 21.6318 95.2708 21.6687C98.5284 21.4908 101.786 21.313 105.044 21.1351C106.15 21.313 107.264 21.4506 108.384 21.5569L117.622 21.7627L110.177 27.4259C105.463 30.5005 101.124 34.2746 96.6623 37.6747C91.2753 41.7797 85.9145 45.8779 80.5588 49.9463L81.2563 44.3209C88.6452 52.9482 95.9482 61.5659 103.061 70.2819C103.798 71.1855 104.638 72.1408 105.504 73.1162L100.371 79.5775C98.0362 78.5108 95.5797 77.4123 93.6432 76.2603C92.4241 75.536 92.2677 74.5301 90.3292 74.2537C90.4116 74.0449 90.4941 73.8361 90.5765 73.6273C89.0053 73.1446 87.8511 73.137 86.2016 72.3713C84.813 71.7257 81.1748 69.9463 80.0028 69.2656C79.3942 68.914 79.8147 68.6569 79.2285 68.3666C78.2236 67.8724 75.8249 67.3204 74.4424 66.6302C73.19 66.0049 71.2937 64.52 70.2997 64.1017C66.7215 62.5917 62.6257 61.3443 59.0158 59.3281C58.0191 58.7701 56.9482 57.6297 56.6218 57.4837C55.9833 57.2001 55.5622 57.5781 55.1125 57.4292C54.73 57.3023 54.3263 57.1343 53.9094 56.9378L59.1472 56.2453C57.4686 57.8043 55.0111 59.4015 53.5441 60.6762C47.802 65.6652 41.9285 71.1863 36.2005 76.1419C34.6401 77.492 32.6583 79.2543 30.6228 81.0338L23.7708 76.1438C25.1678 72.8625 26.6361 69.5137 27.8105 67.2811C28.2558 66.4346 28.6904 66.8909 28.9981 66.1525C29.3391 65.3338 29.1643 64.7406 29.2947 64.346C30.1948 61.613 32.2676 55.6156 33.677 53.2686C33.946 52.8218 34.507 52.6501 34.6244 52.3643C34.6845 52.22 34.5358 51.7754 34.6955 51.3102C35.0663 50.2295 35.4352 49.2361 35.8091 48.2882L36.6442 52.5576C34.5957 50.5698 32.8915 48.6835 30.7432 46.4065C25.1584 40.4905 18.1153 34.2028 12.3194 27.9175C11.0565 26.5481 10.7922 25.0124 10.6014 24.8328C10.1987 24.4514 9.54588 24.5892 8.66951 23.9505L6.00815e-05 15.4489L12.0113 17.8247C12.0504 17.8266 12.0903 17.8292 12.131 17.8326C16.0163 18.1587 20.9792 19.8682 24.6408 20.3377C26.4497 20.57 29.0516 20.3424 30.8365 20.5488C32.2621 20.7136 35.5005 21.7072 36.1895 21.511C36.6084 21.3931 36.9178 20.7942 37.386 20.8104ZM30.1633 34.5911C29.2461 35.1422 31.7429 36.4333 31.4325 35.3279C31.3625 35.079 30.4012 34.4478 30.1633 34.5911ZM92.6654 68.4199C92.7761 68.1433 92.8868 67.8668 92.9975 67.5902C92.6281 67.5439 92.2588 67.4976 91.8894 67.4512C91.9862 67.6991 92.0831 67.9469 92.1799 68.1947C92.3418 68.2698 92.5036 68.3448 92.6654 68.4199Z" fill="white"/>
</svg>
