<svg width="437" height="637" viewBox="0 0 437 637" fill="none" xmlns="http://www.w3.org/2000/svg">
<path d="M41.3123 162.993C17.349 162.993 3.81233 136.827 4.31233 127.493L41.3121 96.9934L82.3123 127.493C78.3123 141.827 64.8123 162.993 41.3123 162.993Z" fill="#D1DE7B"/>
<path d="M390.828 163.493C366.865 163.493 353.328 137.327 353.828 127.993L390.828 97.4934L431.828 127.993C427.828 142.327 414.328 163.493 390.828 163.493Z" fill="#D1DE7B"/>
<path d="M186.315 552.493H219.312H251.315L260.312 631.493H173.315L186.315 552.493Z" fill="#282A36"/>
<path d="M225.304 531.654C225.376 532.161 224.986 532.876 224.966 533.473C224.876 535.976 224.606 536.904 224.453 539.169C224.226 542.527 224.737 552.493 222.034 552.493C222.034 552.493 222.034 552.493 222.034 552.493C222.007 552.493 221.981 552.492 221.953 552.49C221.438 552.456 220.876 551.608 220.294 551.482C219.711 551.357 215.95 551.451 215.738 550.247C215.459 548.501 216.424 544.313 216.381 543.382C216.352 542.746 216.01 541.962 215.949 541.148C215.753 538.524 216.003 537.151 215.075 534.786C215.564 533.841 216.054 532.895 216.543 531.949C216.316 530.715 216.962 528.845 216.926 528.096C216.897 527.481 216.51 527.12 216.492 526.479C216.469 525.76 216.887 524.656 216.824 523.349C216.723 521.205 215.713 520.823 215.585 519.537C215.452 518.203 216.001 516.129 215.646 514.427C215.535 514.213 215.424 514 215.313 513.786C215.061 513.939 214.81 514.092 214.559 514.245C214.442 513.388 214.957 513.019 214.966 512.232C214.977 511.305 214.489 510.832 214.492 510.208C214.494 509.697 214.885 509.005 214.861 508.342C214.827 507.376 214.262 507.588 214.156 507.068C214.115 506.861 213.803 503.027 213.799 502.811C213.776 501.166 214.55 501.022 214.618 499.711C214.802 496.073 214.177 492.338 213.941 488.973C213.835 487.471 213.88 485.903 214.004 484.404C215.983 486.764 217.524 481.542 214.426 483.495C214.867 481.828 214.031 480.646 214.172 479.066C214.264 478.044 214.694 477.336 214.683 475.877C214.66 473.287 213.439 470.454 215.646 469.709C215.257 466.669 216.057 464.036 214.109 462.941C213.99 462.157 215.151 460.148 215.308 459.269C215.457 458.437 215.981 452.057 216.01 451.013C216.039 449.969 216.071 448.142 215.9 447.263C215.689 446.159 213.668 445.387 216.03 443.421C215.839 441.135 215.907 440.32 216.181 438.194C216.231 437.809 216.582 437.766 216.582 437.541C216.582 437.077 216.323 436.289 216.291 435.462C216.239 434.102 216.977 433.326 215.85 433.478C215.661 432.581 215.472 431.685 215.283 430.788C215.501 430.474 215.718 430.159 215.936 429.845C215.699 429.365 215.462 428.886 215.225 428.406C216.856 428.97 215.893 425.596 214.957 426.691C215.295 424.953 215.632 423.215 215.97 421.477C217.823 421.72 216.183 417.661 215.176 418.003C215.177 417.804 215.179 417.605 215.18 417.406C215.673 415.665 215.27 414.066 215.6 411.944C215.931 409.822 216.112 410.022 216.964 409.376C216.915 408.877 216.867 408.378 216.818 407.878C214.48 405.258 218.527 405.721 216.734 401.234C218.203 399.801 217.432 396.267 216.986 393.924C216.934 393.652 216.649 393.647 216.561 393.284C216.35 392.396 216.716 390.131 215.797 390.208C216.063 389.424 216.329 388.64 216.595 387.856C216.428 387.215 216.261 386.574 216.093 385.933C215.806 385.936 215.519 385.939 215.232 385.943C216.211 384.652 215.834 382.624 216.068 381.624C216.116 381.425 216.512 381.382 216.62 380.763C216.748 380.04 216.631 378.692 216.755 377.83C216.316 377.495 215.877 377.16 215.439 376.825C215.201 375.284 216.359 374.742 216.449 373.837C216.464 373.674 216.381 370.701 216.356 370.541C216.16 369.23 215.174 369.601 215.385 365.808C215.423 365.133 215.765 364.587 215.778 363.976C215.803 362.898 215.029 359.649 214.314 359.393C215.209 358.085 214.843 354.586 215.102 353.555C215.181 353.244 215.751 353.174 215.873 352.218C215.972 351.442 215.515 349.446 215.592 348.463C215.675 347.419 216.154 347.046 216.188 346.579C216.219 346.137 215.833 345.73 215.835 345.128C215.848 343.249 216.471 341.547 216.482 340.061C216.5 337.913 215.355 336.016 214.847 334.218C214.921 333.772 215.167 333.334 215.169 332.866C215.205 327.08 215.416 320.554 215.661 314.75C215.774 312.056 217.328 305.357 214.735 307.145C214.28 306.209 215.326 299.402 215.342 298.107C215.357 296.812 214.892 295.786 214.886 294.769C214.865 291.698 215.2 289.536 214.795 285.798C214.69 284.833 214.139 283.799 214.145 283.227C214.154 282.538 214.687 281.797 214.721 280.905C214.797 278.779 214.622 274.816 214.714 272.776C214.732 272.404 215.2 272.273 215.346 271.74C215.918 269.666 215.868 267.341 214.374 267.752C215.222 265.093 214.449 262.633 214.401 260.169C214.305 254.959 214.653 245.469 214.026 240.93C213.63 238.068 212.96 238.141 213.538 233.928C213.666 232.993 213.839 232.061 213.992 230.927C214.352 228.268 215.59 225.828 214.098 223.802C214.485 220.848 214.211 218.496 215.486 216.305C215.18 216.047 214.874 215.788 214.568 215.53C214.561 215.168 214.553 214.806 214.546 214.444C214.837 214.331 215.129 214.218 215.421 214.105C215.499 211.511 214.3 208.22 214.309 206.025C214.323 202.343 214.788 192.862 215.182 189.371C215.391 187.518 214.766 187.418 216.051 186.357C215.961 185.943 215.872 185.528 215.783 185.114C215.501 184.854 215.22 184.595 214.939 184.336C214.928 181.958 215.365 179.138 215.36 176.873C215.351 172.746 214.577 166.548 215.085 162.403C215.214 161.364 215.794 160.065 215.787 159.047C215.778 157.566 214.816 157.206 214.798 155.327C214.768 152.087 215.887 146.054 215.801 142.992C215.776 142.083 215.418 141.658 215.38 141.03C215.216 138.397 215.245 136.235 214.691 133.71C215.614 130.999 216.804 131.234 218.006 130.393C218.912 129.757 221.014 127.804 221.808 127.527C222.366 127.332 223.083 128.059 223.697 127.786C224.188 131.034 223.648 132.399 222.784 135.037C222.818 139.907 222.853 144.778 222.887 149.649C222.552 150.092 222.217 150.535 221.882 150.978C221.881 150.978 221.88 150.978 221.879 150.978C221.493 152.849 222.356 153.642 222.552 154.65C224.428 164.308 222.96 183.317 222.748 193.95C222.703 196.241 223.155 203.694 222.61 205.266C222.469 205.673 221.952 205.786 221.929 206.219C222.237 210.088 222.544 213.957 222.851 217.826C222.048 225.781 222.712 234.006 222.835 242.023C223.17 263.712 223.578 285.184 223.454 306.518C223.429 310.641 223.817 315.873 223.567 319.909C223.463 321.594 222.633 322.296 223.252 324.509C223.028 324.532 222.805 324.555 222.581 324.578C222.851 326.51 223.36 327.744 223.412 329.909C223.454 331.732 223.488 336.557 223.402 338.168C223.359 339.003 222.942 338.692 222.944 339.471C222.95 340.805 223.528 343.655 223.528 345.496C223.528 347.163 223.047 349.974 223.117 351.256C223.364 355.873 224.078 360.902 223.886 365.821C223.832 367.18 223.29 368.929 223.305 369.354C223.337 370.185 223.863 370.433 223.931 370.992C224.273 373.828 223.647 378.25 223.623 381.03C223.542 390.091 223.771 399.689 223.675 408.71C223.614 414.409 223.707 423.881 223.311 429.143C223.225 430.277 222.649 429.975 222.649 430.928C222.649 431.984 223.038 432.556 223.07 433.05C223.29 436.467 223.684 444.011 223.286 447.237C223.209 447.852 222.757 448.298 222.759 448.666C222.759 448.852 223.067 449.273 223.099 449.857C223.378 455.02 223.198 458.784 223.092 463.842C222.892 473.53 223.466 484.756 223.155 494.933C223.088 497.15 222.194 498.671 222.203 498.983C222.221 499.667 222.822 500.105 222.971 501.491C223.459 506.099 222.817 512.304 223.119 516.687C223.267 518.852 224.03 521.827 224.199 523.958C224.334 525.66 224.035 529.679 224.37 530.433C224.572 530.892 225.222 531.105 225.304 531.654ZM215.184 474.322C216.224 474.625 215.36 471.439 214.802 472.634C214.676 472.903 214.915 474.244 215.184 474.322ZM216.989 325.123C216.692 325.152 216.395 325.182 216.098 325.211C216.222 325.629 216.346 326.047 216.469 326.466C216.648 326.231 216.826 325.995 217.004 325.76C216.999 325.548 216.994 325.336 216.989 325.123ZM51.9633 85.7012C51.8973 86.0417 51.3545 86.3294 51.1751 86.7078C50.4304 88.2735 49.9673 88.704 49.25 90.1106C48.1726 92.1236 46.4228 98.7134 43.8996 97.8374C43.8996 97.8374 43.8995 97.8374 43.8994 97.8373C43.8742 97.8291 43.8489 97.8202 43.8235 97.8106C43.3403 97.6303 42.984 96.9137 42.4591 96.6473C41.9341 96.3806 38.3386 95.2661 38.4137 94.3811C38.5579 93.0612 40.4584 90.6285 40.6678 89.9603C40.8006 89.5188 40.6685 88.8988 40.819 88.3348C41.3102 86.509 41.9017 85.7017 41.679 83.7895C42.3873 83.3518 43.112 82.8843 43.8146 82.4785C43.9397 81.5949 45.0604 80.6285 45.2441 80.1223C45.3942 79.707 45.1456 79.3112 45.31 78.8967C45.4943 78.427 46.1921 77.8901 46.5217 77.0179C47.0695 75.5809 46.267 74.9202 46.5396 74.0402C46.8202 73.1343 47.9703 72.0108 48.1797 70.7867C48.1469 70.6023 48.1145 70.4176 48.0823 70.2326C47.8091 70.218 47.5358 70.2037 47.2624 70.1897C47.4283 69.5914 48.0066 69.5857 48.2675 69.0873C48.5755 68.5007 48.2951 67.9762 48.5021 67.5762C48.6735 67.2461 49.2466 66.988 49.4413 66.5604C49.7282 65.9363 49.1585 65.8073 49.2373 65.4292C49.2626 65.2831 50.2946 62.6904 50.3662 62.5588C50.9093 61.5166 51.6375 61.7999 52.1527 61.0127C53.5907 58.8122 54.3886 56.2085 55.4505 54.0127C55.9209 53.0372 56.5558 52.0997 57.2396 51.2509C58.0102 53.7343 61.3052 51.4173 57.9469 50.9257C58.9594 50.1589 58.7203 48.993 59.468 48.1186C59.9529 47.5546 60.5923 47.3694 61.1705 46.4988C62.1904 44.9552 62.391 42.57 64.494 43.4278C65.4492 41.4309 67.2275 40.4118 66.1596 38.6025C66.4099 38.0767 68.2167 37.6441 68.732 37.2506C69.2072 36.8608 72.5227 33.6612 73.0448 33.1303C73.5548 32.5806 74.4438 31.6187 74.7387 31.0358C75.1067 30.3104 73.9983 28.5201 76.6972 29.0895C77.6836 27.7607 78.1435 27.3827 79.41 26.4923C79.6397 26.3317 79.9103 26.5574 80.0246 26.4435C80.2598 26.2087 80.4796 25.6257 80.884 25.1882C81.5501 24.4684 82.4634 24.6237 81.6083 23.8805C81.9476 23.298 82.2892 22.7207 82.6435 22.1395C82.9593 22.1451 83.2745 22.1522 83.5892 22.1607C83.6872 21.7523 83.7879 21.3436 83.8913 20.9348C84.6672 22.4206 85.8605 20.0989 84.6536 19.9102C85.8284 19.3381 87.0205 18.7814 88.2124 18.2563C89.2318 19.8029 90.4977 16.7319 89.712 16.075C89.829 15.9877 89.9462 15.9007 90.0636 15.814C91.3776 15.4419 92.0842 14.4283 93.5477 13.8221C95.0184 13.2195 95.0006 13.4598 95.8577 13.9141C96.1317 13.6761 96.4074 13.4398 96.6848 13.2053C97.0642 10.2164 98.8621 13.8168 100.767 10.6776C102.374 11.4564 104.233 9.61535 105.596 8.50522C105.754 8.37572 105.637 8.11511 105.841 7.92564C106.342 7.45884 108.007 7.14913 107.603 6.32463C108.239 6.34824 108.872 6.38119 109.501 6.42348C109.877 6.09916 110.257 5.77808 110.644 5.46034C110.544 5.19118 110.444 4.92203 110.344 4.6529C111.576 5.24333 112.865 4.42132 113.645 4.42996C113.799 4.43249 113.945 4.80075 114.41 4.77521C114.951 4.7467 115.866 4.36884 116.508 4.33218C116.634 3.84614 116.766 3.36016 116.904 2.87435C117.97 2.36956 118.625 3.41631 119.286 3.36807C119.402 3.34979 121.531 2.86539 121.647 2.8309C122.565 2.49326 122.158 1.5111 124.992 1.39244C125.499 1.37675 125.936 1.67826 126.39 1.65358C127.189 1.59626 129.564 0.709821 129.75 -5.72205e-05C130.429 0.577543 131.822 0.598804 132.919 0.663831C133.472 0.694479 133.944 0.733379 134.202 0.832486C134.437 0.925214 134.461 1.49378 135.172 1.66497C135.746 1.7999 137.284 1.49282 138.015 1.67286C138.794 1.86132 138.997 2.38164 139.337 2.47009C139.658 2.55439 140.025 2.22447 140.472 2.30953C141.867 2.58293 142.964 3.48274 144.021 3.77831C145.546 4.20646 147.24 3.55198 148.708 3.54375C149.003 3.72994 149.229 4.07663 149.558 4.20608C153.656 5.80612 157.886 8.34208 161.291 10.9649C162.93 12.1531 165.783 16.397 166.376 13.565C167.245 13.6257 170.372 17.7124 171.014 18.3922C171.696 19.0551 172.564 19.2496 173.094 19.7642C174.693 21.3293 175.565 22.7232 177.664 24.4677C178.21 24.9223 179.123 25.1352 179.393 25.4601C179.716 25.8506 179.667 26.6164 180.05 27.1289C180.975 28.3451 182.921 30.5234 183.721 31.7474C183.869 31.9728 183.552 32.3295 183.664 32.7236C184.1 34.257 185.109 35.5896 186.153 34.4808C186.583 36.5394 188.207 37.5423 189.238 39.0137C191.423 42.0778 194.63 48.1163 196.733 50.6669C198.069 52.2722 198.65 51.9181 199.552 54.8654C199.751 55.5198 199.905 56.1926 200.14 56.9864C200.691 58.853 200.346 60.9506 202.318 61.6024C202.888 63.6696 203.848 65.0812 203.338 67.0298C203.692 67.0695 204.047 67.1098 204.401 67.1508C204.515 67.3827 204.628 67.6146 204.741 67.8467C204.508 68.0399 204.275 68.233 204.042 68.4258C204.724 70.1286 206.762 71.8077 207.362 73.2508C208.395 75.665 210.464 82.1213 210.94 84.5686C211.204 85.8674 211.817 85.7287 210.872 86.8778C211.057 87.123 211.242 87.3683 211.427 87.6136C211.754 87.69 212.081 87.7667 212.408 87.8439C212.991 89.4177 213.247 91.461 213.77 92.9771C214.724 95.7118 216.821 99.6632 217.198 102.652C217.292 103.395 217 104.433 217.209 105.113C217.521 106.13 218.518 106.107 218.907 107.384C219.573 109.56 219.618 113.972 220.243 116.091C220.427 116.711 220.848 116.912 220.993 117.331C221.593 119.045 221.949 120.648 222.879 122.218C222.414 124.32 221.212 124.423 220.168 125.26C219.382 125.9 217.607 127.647 216.866 127.986C216.347 128.228 215.544 127.901 214.981 128.207C214.053 126.205 214.345 125.058 214.79 123.159C213.984 119.874 213.113 116.612 212.198 113.407C212.44 113.021 212.681 112.634 212.921 112.244C212.922 112.244 212.922 112.244 212.923 112.244C212.938 110.855 211.968 110.605 211.586 109.983C208.006 104.077 205.268 91.2106 202.73 84.2772C202.204 82.7617 199.856 78.1827 199.923 76.9722C199.944 76.6586 200.39 76.3852 200.294 76.1006C198.964 73.7557 197.6 71.4309 196.201 69.1395C194.624 63.813 191.466 59.0279 188.666 54.2907C181.076 41.506 172.134 29.6475 161.26 20.639C159.172 18.9051 156.154 17.2489 154.021 15.7046C153.134 15.0629 153.149 14.1095 151.57 13.9764C151.66 13.7711 151.75 13.5657 151.84 13.3602C150.58 13.0147 149.646 13.1274 148.355 12.6184C147.262 12.1598 144.362 11.1414 143.391 10.7916C142.892 10.5997 143.199 10.2536 142.715 10.1194C141.878 9.88547 139.976 10.0265 138.836 9.83124C137.803 9.63504 136.086 8.93209 135.261 8.93873C134.433 8.93572 133.579 8.99284 132.712 9.084C130.43 9.31664 128.173 9.73888 125.891 9.84601C125.024 9.88168 123.831 9.50425 123.555 9.56348C123.023 9.67707 122.95 10.2237 122.608 10.3507C120.884 10.9792 117.976 11.0269 116.233 11.5388C110.556 13.1412 104.952 16.1188 99.9055 19.2859C96.6743 21.2396 91.7546 25.2114 88.8901 27.3113C88.2648 27.7592 88.0285 27.1957 87.5507 27.6328C87.0224 28.1187 87.009 28.6669 86.7883 28.9182C85.2371 30.6441 81.9832 34.5749 80.2501 35.9525C79.9154 36.2114 79.3763 36.1385 79.2113 36.3278C79.1272 36.4231 79.169 36.8416 78.9315 37.162C76.8439 39.9936 75.0984 41.8688 72.9208 44.5509C68.7471 49.6983 64.9841 56.4437 61.2307 62.321C60.4161 63.591 59.1204 64.078 59.023 64.2691C58.8076 64.6907 59.1836 65.2478 58.8562 66.1502C57.7551 69.1503 55.2314 72.6497 54.1971 75.4917C53.6722 76.9118 53.511 79.0507 53.0554 80.4645C52.6958 81.5678 51.3163 83.9723 51.4267 84.5772C51.4902 84.9436 52.032 85.3301 51.9633 85.7012ZM62.2145 45.863C62.9437 46.6311 63.5388 44.2692 62.5921 44.65C62.3773 44.7365 62.0234 45.6638 62.2145 45.863ZM154.066 8.2165C154.182 7.94243 154.298 7.66828 154.413 7.39394C154.081 7.36292 153.749 7.33512 153.418 7.31061C153.495 7.54703 153.57 7.7835 153.644 8.01995C153.785 8.08485 153.925 8.15036 154.066 8.2165ZM394.578 81.1951C394.725 81.5491 394.447 82.1427 394.511 82.5744C394.773 84.4019 394.632 85.1583 394.748 86.7965C394.994 89.2685 396.278 96.6362 393.525 96.7869C393.525 96.7869 393.525 96.7869 393.525 96.7869C393.499 96.7889 393.472 96.7902 393.445 96.7909C392.93 96.8051 392.322 96.2537 391.734 96.214C391.145 96.1743 387.405 96.5529 387.12 95.758C386.742 94.5646 387.358 91.6388 387.216 90.9829C387.128 90.5591 386.714 90.0777 386.57 89.5308C386.096 87.7347 386.19 86.8163 384.973 85.3569C385.332 84.6176 385.691 83.9078 386.039 83.1637C385.648 82.3761 385.997 80.9468 385.849 80.4602C385.727 80.0523 385.293 79.8961 385.174 79.4675C385.04 78.9919 385.262 78.1247 384.981 77.2681C384.517 75.8581 383.468 75.8593 383.111 75.0332C382.738 74.1681 382.88 72.6684 382.194 71.6339C382.045 71.5244 381.895 71.4153 381.746 71.3063C381.537 71.4814 381.327 71.6558 381.118 71.8295C380.834 71.2993 381.25 70.9039 381.098 70.3908C380.918 69.7849 380.354 69.6275 380.224 69.2225C380.118 68.8906 380.339 68.3162 380.169 67.8911C379.923 67.2713 379.435 67.5914 379.22 67.2941C379.142 67.1746 377.969 64.8312 377.906 64.6954C377.49 63.6494 378.181 63.2946 377.919 62.435C377.181 60.0471 375.6 57.9556 374.424 55.9941C373.9 55.1206 373.481 54.1488 373.137 53.1847C375.634 53.7493 375.395 49.8462 373.237 52.4453C373.117 51.238 372.002 50.9157 371.618 49.9115C371.368 49.2592 371.514 48.6338 371.015 47.7795C370.122 46.2549 368.086 45.2864 369.684 43.6863C368.257 42.1436 367.894 40.2079 365.874 40.7199C365.48 40.3607 365.633 38.5846 365.4 38.0107C365.211 37.4597 362.928 33.7269 362.464 33.1829C362.029 32.6211 361.228 31.6623 360.699 31.3357C360.03 30.9149 358.228 31.9326 359.011 29.3414C357.787 28.3599 357.449 27.9339 356.588 26.7396C356.432 26.5243 356.649 26.2477 356.537 26.1427C356.304 25.9265 355.733 25.7529 355.292 25.401C354.57 24.8254 354.648 23.9257 353.991 24.8462C353.409 24.5945 352.826 24.3514 352.241 24.117C352.215 23.8151 352.187 23.5126 352.157 23.2095C351.756 23.1912 351.354 23.1756 350.957 23.1669C352.263 22.1094 349.861 21.4875 349.888 22.6845C349.171 21.7211 348.407 20.7613 347.631 19.8302C348.811 18.3756 345.574 18.2295 345.245 19.227C345.134 19.1553 345.021 19.0839 344.909 19.0128C344.164 17.9771 343.055 17.7926 341.963 16.8225C340.861 15.8566 341.05 15.7633 341.052 14.8044C340.727 14.6944 340.402 14.5868 340.075 14.4816C337.484 15.8395 339.444 12.2465 335.905 12.7097C335.562 10.9744 332.932 10.8138 331.298 10.7694C331.105 10.7618 331.016 11.0324 330.754 11.042C330.12 11.0588 328.728 10.2755 328.53 11.1784C328.081 10.7762 327.657 10.3871 327.205 9.99692C326.743 10.0515 326.282 10.1104 325.821 10.1735C325.757 10.4535 325.693 10.7334 325.63 11.0134C325.017 9.86004 323.546 9.93501 322.953 9.58626C322.831 9.51477 322.878 9.11959 322.485 8.93718C322.026 8.72132 321.1 8.68176 320.533 8.46969C320.238 8.86778 319.946 9.26749 319.657 9.66875C318.583 9.75471 318.382 8.56582 317.782 8.40277C317.679 8.36813 315.657 8.24279 315.541 8.26399C314.638 8.38938 314.762 9.36091 312.267 9.01435C311.819 8.95472 311.464 8.59913 311.05 8.57176C310.489 8.53135 309.032 8.95762 308.311 9.49615C308.099 9.65757 307.953 9.82752 307.915 9.99351C307.029 9.09155 304.716 9.55247 304.036 9.35251C303.828 9.28805 303.74 8.72018 303.1 8.65145C302.565 8.59377 301.272 9.18725 300.618 9.1981C299.919 9.2047 299.606 8.76839 299.291 8.78066C298.994 8.79355 298.786 9.21723 298.394 9.28023C297.161 9.47203 295.901 9.09395 294.921 9.30599C293.502 9.61205 292.562 11.0541 291.582 11.8804C291.28 11.8939 290.931 11.7447 290.637 11.8363C286.994 12.9462 282.937 14.4994 279.443 16.2069C277.818 16.9384 273.166 18.1781 275.628 19.658C275.363 20.3374 271.102 22.1831 270.428 22.761C269.742 23.2979 269.514 24.0988 269.002 24.5485C267.468 25.9084 266.163 26.6484 264.664 28.7165C264.281 29.2501 264.196 30.1306 263.928 30.4017C263.605 30.7272 262.875 30.7238 262.441 31.1447C261.397 32.1503 259.791 34.2719 258.845 35.2947C258.671 35.4791 258.252 35.2522 257.908 35.4442C256.576 36.1801 255.643 37.4891 257.002 38.1698C255.229 39.0931 254.864 40.915 253.954 42.3112C251.982 45.251 248.307 50.6126 247.379 53.6639C246.789 55.5713 247.4 55.8255 245.566 58.1173C245.161 58.6287 244.72 59.1183 244.238 59.7478C243.11 61.2164 241.265 62.2274 242.038 64.1207C240.839 65.811 240.448 67.3987 238.68 68.3019C238.892 68.5865 239.104 68.8703 239.317 69.1534C239.227 69.3871 239.137 69.6209 239.048 69.8549C238.749 69.8151 238.45 69.7757 238.15 69.7365C237.386 71.3721 237.663 73.9378 237.119 75.3499C236.181 77.6985 233.582 83.764 232.496 85.9679C231.908 87.1306 232.488 87.3767 231.04 87.7109C231.04 88.0155 231.04 88.3196 231.041 88.6231C231.258 88.8786 231.474 89.1333 231.692 89.3873C231.225 90.9734 230.266 92.726 229.847 94.2615C229.084 97.0302 228.781 101.378 227.64 104.1C227.353 104.777 226.589 105.529 226.445 106.216C226.235 107.221 227.117 107.69 226.868 108.971C226.434 111.153 224.561 115.066 224.295 117.224C224.214 117.857 224.521 118.205 224.489 118.639C224.37 120.411 224.106 121.998 224.428 123.75C223.265 125.493 222.109 125.204 220.843 125.64C219.887 125.975 217.644 127.091 216.835 127.197C216.265 127.272 215.608 126.685 214.977 126.807C214.746 124.479 215.43 123.429 216.536 121.734C216.994 118.213 217.534 114.766 218.151 111.33C218.54 111.077 218.93 110.825 219.32 110.572C219.321 110.572 219.322 110.572 219.323 110.573C219.961 109.317 219.223 108.622 219.178 107.868C218.66 100.639 223.596 87.6786 226.309 80.5385C226.854 78.991 228.243 73.7663 229.166 72.9106C229.402 72.6867 229.915 72.7939 230.046 72.5116C230.749 69.8019 231.505 67.1117 232.329 64.4189C235.33 59.4716 237.317 53.8568 240.053 48.7118C247.417 34.8836 257.023 21.7089 270.361 12.6955C272.908 10.9626 276.134 8.61854 278.997 7.50429C280.194 7.03722 281.009 7.56527 282.281 6.33832C282.385 6.53692 282.489 6.73557 282.593 6.93433C283.809 6.12452 284.491 5.30405 286.021 4.69704C287.278 4.17183 290.795 3.07739 291.994 2.89237C292.614 2.78218 292.486 3.24374 293.052 3.10653C294.008 2.86628 296.03 1.86058 297.399 1.64703C298.634 1.4376 300.8 1.65383 301.761 1.49938C303.839 1.14969 306.006 0.718289 308.311 0.530858C309.784 0.409104 311.255 0.379299 312.683 0.52328C313.678 0.622641 314.947 1.25638 315.269 1.26799C315.893 1.28591 316.123 0.778641 316.548 0.749474C318.69 0.590518 321.931 1.67032 323.945 2.08583C330.599 3.38789 337.603 5.45128 343.645 8.59702C347.503 10.5009 353.57 14.3208 356.362 17.1301C356.974 17.727 356.435 18.0343 356.983 18.4807C357.587 18.977 358.161 18.9545 358.461 19.169C360.563 20.6065 364.885 24.2903 366.162 26.3651C366.411 26.7544 366.294 27.3027 366.475 27.5047C366.566 27.6075 367.003 27.6372 367.311 27.9442C370.013 30.6596 371.576 32.9974 373.614 36.1168C377.508 42.0714 381.944 49.0949 384.547 56.0827C385.116 57.5993 384.696 58.9719 384.787 59.1741C384.985 59.6279 385.663 59.7035 386.161 60.5892C387.836 63.5812 388.642 68.0442 389.815 71.0481C390.391 72.4907 391.706 74.4413 392.239 75.8917C392.689 77.1046 393.036 79.9951 393.478 80.4999C393.747 80.7907 394.416 80.8119 394.578 81.1951ZM370.92 46.6143C371.926 46.2653 370.064 44.8316 370.006 45.8218C369.993 46.0423 370.661 46.7033 370.92 46.6143ZM285.137 11.9294C285.271 12.1953 285.404 12.4613 285.537 12.7274C285.748 12.5049 285.961 12.2834 286.177 12.0631C285.963 11.957 285.748 11.852 285.532 11.7482C285.4 11.8081 285.269 11.8685 285.137 11.9294ZM234.59 558.484C234.218 558.556 233.694 558.167 233.256 558.147C231.421 558.057 230.741 557.787 229.081 557.634C226.619 557.407 219.313 557.918 219.312 555.215C219.312 555.215 219.312 555.215 219.312 555.215C219.312 555.188 219.313 555.161 219.315 555.134C219.34 554.619 219.962 554.057 220.054 553.475C220.146 552.892 220.077 549.13 220.96 548.919C222.239 548.64 225.309 549.605 225.992 549.562C226.458 549.533 227.033 549.191 227.63 549.13C229.554 548.934 230.56 549.184 232.294 548.255C232.987 548.745 233.68 549.234 234.373 549.724C235.278 549.497 236.649 550.143 237.199 550.107C237.65 550.078 237.914 549.691 238.384 549.673C238.911 549.65 239.72 550.068 240.679 550.005C242.25 549.904 242.53 548.894 243.473 548.766C244.451 548.633 245.972 549.182 247.219 548.827C247.376 548.716 247.532 548.605 247.689 548.493C247.577 548.242 247.465 547.991 247.352 547.74C247.981 547.623 248.251 548.138 248.829 548.147C249.508 548.158 249.855 547.67 250.312 547.672C250.593 547.674 250.949 547.895 251.315 547.995L255.497 548.156L255.785 551.984C255.766 552.109 255.76 552.233 255.78 552.352C255.893 553.052 256.437 552.834 256.585 553.201C256.643 553.347 257.271 556.104 257.294 556.261C257.452 557.457 256.696 557.649 256.737 558.612C256.856 561.283 257.786 563.932 258.3 566.356C258.53 567.439 258.615 568.586 258.617 569.691C256.454 568.196 255.357 572.175 258.272 570.402C257.973 571.666 258.902 572.432 258.892 573.599C258.885 574.354 258.517 574.918 258.65 575.98C258.887 577.864 260.335 579.789 258.204 580.581C258.843 582.751 258.266 584.76 260.293 585.337C260.476 585.895 259.49 587.49 259.406 588.148C259.327 588.77 259.336 593.477 259.394 594.241C259.451 595.004 259.571 596.339 259.814 596.96C260.116 597.74 262.187 598.074 260.003 599.773C260.383 601.417 260.383 602.018 260.287 603.597C260.269 603.883 259.925 603.955 259.943 604.119C259.981 604.456 260.304 605.001 260.404 605.6C260.568 606.584 259.9 607.233 261.007 606.995C261.269 607.627 261.531 608.259 261.793 608.89C261.603 609.144 261.413 609.398 261.223 609.651C261.498 609.974 261.774 610.296 262.049 610.618C260.382 610.393 261.618 612.741 262.457 611.838C262.266 613.142 262.075 614.446 261.884 615.75C260.022 615.783 261.988 618.554 262.961 618.191C262.976 618.336 262.991 618.481 263.006 618.626C262.661 619.95 263.194 621.069 263.041 622.652C262.889 624.235 262.693 624.11 261.899 624.677C261.989 625.035 262.079 625.393 262.169 625.751C264.709 627.395 260.65 627.516 262.803 630.581C262.585 630.778 262.431 631.009 262.328 631.264L262.504 633.606L260.312 633.522C259.066 632.845 257.016 633.447 255.577 633.82C255.378 633.871 255.374 634.156 255.108 634.244C254.457 634.456 252.797 634.089 252.853 635.009C252.278 634.743 251.704 634.477 251.129 634.211C250.659 634.378 250.189 634.545 249.719 634.712C249.721 635 249.724 635.287 249.726 635.574C248.78 634.595 247.293 634.971 246.56 634.737C246.414 634.69 246.382 634.294 245.929 634.186C245.399 634.058 244.411 634.175 243.779 634.051C243.533 634.49 243.287 634.929 243.042 635.367C241.912 635.605 241.515 634.447 240.851 634.357C240.732 634.342 238.552 634.425 238.435 634.45C237.474 634.645 237.746 635.632 234.966 635.421C234.471 635.382 234.07 635.041 233.623 635.027C232.832 635.003 230.45 635.777 230.263 636.492C229.304 635.597 226.738 635.963 225.983 635.704C225.755 635.625 225.703 635.054 225.002 634.933C224.434 634.834 222.97 635.291 222.249 635.214C221.484 635.131 221.211 634.652 220.868 634.618C220.544 634.586 220.246 634.973 219.805 634.971C218.427 634.958 217.179 634.335 216.09 634.324C214.515 634.306 213.124 635.451 211.807 635.959C211.48 635.885 211.158 635.639 210.816 635.637C206.574 635.601 201.789 635.39 197.535 635.145C195.56 635.032 190.648 633.478 191.959 636.071C191.273 636.525 186.282 635.48 185.333 635.464C184.384 635.448 183.632 635.913 182.886 635.92C180.635 635.94 179.05 635.605 176.31 636.01C175.602 636.116 174.844 636.667 174.425 636.661C174.08 636.655 173.718 636.405 173.315 636.236L167.555 636.015L168.636 630.723C168.744 630.551 168.836 630.367 168.881 630.163C169.209 628.637 169.508 625.742 169.842 624.282C169.904 624.015 170.381 623.997 170.589 623.635C171.399 622.227 171.627 620.537 170.104 620.592C171.258 618.806 170.787 616.902 171.034 615.111C171.559 611.327 173.032 604.518 172.953 601.133C172.903 598.999 172.233 598.943 173.305 595.989C173.543 595.333 173.825 594.687 174.111 593.892C174.782 592.026 176.294 590.463 175.064 588.754C175.797 586.681 175.806 584.935 177.326 583.557C177.055 583.32 176.783 583.084 176.512 582.847C176.548 582.584 176.584 582.321 176.619 582.058C176.921 582.024 177.222 581.989 177.523 581.955C177.909 580.091 177.118 577.516 177.388 575.929C177.839 573.268 179.428 566.485 180.232 564.024C180.659 562.718 180.054 562.544 181.448 561.985C181.409 561.671 181.37 561.356 181.331 561.042C181.085 560.809 180.838 560.575 180.591 560.342C180.863 558.62 181.63 556.651 181.895 555.012C182.047 554.075 182.148 552.978 182.246 551.824L182.978 548.241L186.315 548.37C188.841 548.173 191.635 547.918 193.72 548.266C194.482 548.395 195.434 548.975 196.18 548.968C197.266 548.959 197.53 547.997 198.908 547.979C201.283 547.949 205.706 549.068 207.95 548.982C208.617 548.957 208.928 548.599 209.388 548.561C211.319 548.397 212.904 548.426 214.755 547.872C216.742 548.795 216.571 549.985 217.186 551.187C217.653 552.093 219.085 554.195 219.288 554.989C219.431 555.547 218.898 556.264 219.098 556.878C216.716 557.369 215.716 556.829 213.782 555.965C210.212 555.999 206.641 556.034 203.07 556.068C202.745 555.733 202.42 555.398 202.095 555.063C202.095 555.062 202.095 555.061 202.095 555.06C200.724 554.674 200.143 555.537 199.403 555.733C196.095 556.609 191.291 556.756 186.315 556.642L190.408 553.167C189.358 558.744 187.938 564.485 187.152 568.565C186.835 570.215 186.394 575.68 185.669 576.728C185.481 577 184.958 576.998 184.884 577.307C184.727 580.156 184.569 583.004 184.412 585.853C182.673 591.478 182.348 597.535 181.516 603.354C180.135 613.012 178.79 622.616 177.343 632.156L173.315 627.411C179.394 627.335 185.454 627.304 191.499 627.352C194.522 627.376 198.358 626.989 201.317 627.239C202.552 627.342 203.066 628.172 204.689 627.554C204.706 627.777 204.723 628.001 204.74 628.225C206.155 627.955 207.06 627.446 208.648 627.394C209.984 627.351 213.521 627.318 214.702 627.404C215.315 627.446 215.087 627.864 215.658 627.862C216.636 627.855 218.725 627.278 220.074 627.278C221.297 627.278 223.357 627.759 224.297 627.689C227.682 627.442 231.368 626.728 234.975 626.919C235.971 626.974 237.253 627.515 237.565 627.5C238.174 627.469 238.356 626.942 238.765 626.875C240.845 626.533 244.087 627.158 246.125 627.183C250.755 627.24 255.576 627.145 260.312 627.115L255.962 631.989C255.717 629.945 255.485 627.916 255.287 625.921C254.875 621.763 253.997 614.875 253.954 610.997C253.945 610.161 254.543 610.316 254.464 609.622C254.376 608.853 253.941 608.48 253.869 608.124C253.367 605.66 252.35 600.209 252.478 597.814C252.503 597.358 252.915 596.982 252.882 596.714C252.867 596.579 252.526 596.307 252.446 595.885C251.74 592.156 251.607 589.394 251.292 585.697C250.688 578.618 249.186 570.506 248.65 563.058C248.534 561.435 249.295 560.227 249.261 560C249.186 559.504 248.552 559.253 248.29 558.26C247.874 556.678 247.686 554.8 247.53 552.924L251.315 556.303C249.271 556.241 247.236 556.143 245.562 556.3C243.975 556.448 241.794 557.211 240.232 557.38C238.984 557.515 236.038 557.216 235.485 557.551C235.148 557.753 234.993 558.403 234.59 558.484ZM258.28 577.169C257.222 577.066 258.345 579.289 258.8 578.355C258.902 578.145 258.555 577.196 258.28 577.169ZM205.139 633.817C205.16 634.114 205.182 634.41 205.203 634.707C205.51 634.584 205.816 634.46 206.123 634.337C205.951 634.158 205.778 633.98 205.606 633.801C205.45 633.806 205.295 633.812 205.139 633.817ZM16.1837 125.472C16.0336 125.689 15.5095 125.616 15.2654 125.791C14.2399 126.52 13.7096 126.607 12.7362 127.212C11.2928 128.107 7.76312 131.679 6.04352 129.593C6.04348 129.593 6.04343 129.593 6.04339 129.593C6.02653 129.573 6.00985 129.552 5.99334 129.53C5.67927 129.122 5.64954 128.418 5.32772 127.928C5.00568 127.438 2.57663 124.566 2.90782 124.019C3.40579 123.247 5.63905 122.656 5.972 122.326C6.19947 122.101 6.28507 121.587 6.56127 121.281C7.45186 120.293 8.14207 120.048 8.46575 118.577C9.14292 118.654 9.82009 118.73 10.4973 118.806C10.8302 118.237 11.9642 118.139 12.2315 117.873C12.4508 117.654 12.344 117.24 12.5805 117.022C12.8443 116.776 13.5371 116.746 14.0029 116.281C14.7677 115.519 14.273 114.618 14.689 114.109C15.1205 113.581 16.2719 113.343 16.7042 112.527C16.7162 112.373 16.7281 112.219 16.74 112.065C16.521 111.92 16.3021 111.775 16.0831 111.63C16.3403 111.266 16.8104 111.546 17.121 111.302C17.4867 111.015 17.3591 110.488 17.6017 110.291C17.8008 110.13 18.3177 110.211 18.5583 109.981C18.9104 109.647 18.4693 109.278 18.6031 109.031C18.6571 108.933 19.9417 107.47 20.0225 107.397C20.6446 106.856 21.192 107.407 21.7423 107.041C23.2668 106.023 24.3138 104.35 25.4651 103.095C25.9791 102.534 26.6142 102.069 27.2724 101.687C27.6188 103.967 30.6188 103.49 27.893 101.723C28.8181 101.531 28.7434 100.509 29.4446 100.115C29.8986 99.8599 30.4454 99.9657 31.0028 99.4917C31.99 98.6484 32.3091 96.8032 34.0009 98.2684C34.9293 96.9989 36.4569 96.7771 35.6416 94.9245C35.8692 94.5827 37.3843 94.8375 37.8246 94.6788C37.9697 94.6264 38.4046 94.3941 38.9275 94.1006L41.4612 92.241L43.5497 93.9854C44.3161 94.8028 45.3636 95.8673 45.6257 96.086C46.028 96.4218 46.7439 96.994 47.1995 97.1198C47.7699 97.2806 49.2861 95.8905 48.6671 98.3741C49.7006 98.9047 49.9879 99.2026 50.6792 100.059C50.8045 100.214 50.6126 100.508 50.7029 100.576C50.8892 100.715 51.3609 100.742 51.7124 100.964C52.2902 101.33 52.1619 102.154 52.7737 101.204C53.2471 101.321 53.7204 101.438 54.1938 101.554C54.1905 101.823 54.1872 102.092 54.1838 102.36C54.5181 102.313 54.8524 102.267 55.1867 102.22C53.9868 103.36 55.9181 103.597 56.0361 102.519C56.5337 103.309 57.0314 104.1 57.529 104.891C56.3251 106.305 58.9361 106.204 59.4002 105.293C59.4794 105.354 59.5585 105.415 59.6376 105.475C60.0437 106.391 60.9273 106.546 61.5834 107.447C62.2395 108.347 62.0517 108.432 61.8023 109.309C62.0323 109.419 62.2623 109.53 62.4923 109.64C64.9412 108.548 62.3395 111.657 65.2142 111.561C64.914 113.168 66.7958 113.606 68.004 113.95C68.1445 113.99 68.3166 113.763 68.5151 113.801C68.9984 113.897 69.6907 114.869 70.2085 114.107C70.365 114.556 70.5216 115.004 70.6781 115.452C71.0357 115.509 71.3933 115.567 71.7509 115.625C71.921 115.393 72.091 115.162 72.2611 114.931C72.1961 116.102 73.2362 116.407 73.499 116.894C73.5507 116.992 73.3316 117.322 73.516 117.594C73.7304 117.913 74.3424 118.223 74.6152 118.58C75.0118 118.328 75.4084 118.076 75.805 117.824C76.5669 118.095 76.0936 119.186 76.4039 119.529C76.4601 119.59 77.7055 120.413 77.7847 120.441C78.429 120.676 78.8684 119.773 80.2677 121.078C80.5165 121.31 80.5325 121.748 80.7698 121.941C81.1887 122.284 82.9577 122.635 83.4875 122.137C83.4814 122.937 84.3236 123.551 84.8923 124.025L87.3531 126.081L86.4758 128.655C86.3776 128.948 86.2816 129.193 86.1678 129.324C86.0428 129.464 85.4874 129.338 85.2184 129.799C85.0064 130.158 85.1016 131.33 84.8534 131.798C84.5896 132.296 84.069 132.319 83.9508 132.542C83.8381 132.754 84.1255 133.089 84.0081 133.387C83.6317 134.322 82.7115 134.906 82.3849 135.621C81.9187 136.637 82.5229 138.034 82.5419 139.132C82.3677 139.314 82.0391 139.418 81.9241 139.636C80.4783 142.379 78.4482 145.271 76.4075 147.616C75.4722 148.754 71.999 150.454 74.5805 151.411C74.6094 152.127 71.3018 154.15 70.7714 154.593C70.2567 155.071 70.1645 155.792 69.7518 156.175C68.5006 157.321 67.3895 157.822 65.9641 159.378C65.5964 159.778 65.4354 160.563 65.1626 160.741C64.8331 160.955 64.1939 160.741 63.7571 160.982C62.7233 161.571 60.8765 162.824 59.7997 163.246C59.6036 163.324 59.3299 162.937 58.9999 162.935C57.7234 162.924 56.5769 163.449 57.3565 164.742C55.651 164.536 54.6319 165.717 53.2828 166.173C50.4522 167.212 45.0851 167.647 42.5258 168.263C41.9963 168.407 41.6382 168.568 41.3123 168.703C40.6272 168.974 40.0702 169.164 38.427 168.659C37.8801 168.489 37.349 168.265 36.7129 168.033C35.1849 167.48 34.119 166.009 32.6339 167.186C31.0733 166.413 29.6624 166.242 28.9368 164.618C28.6952 164.855 28.4506 165.09 28.2032 165.323C28.0064 165.256 27.8105 165.188 27.6154 165.118C27.6638 164.823 27.7138 164.529 27.7652 164.235C26.4625 163.63 24.2669 163.893 23.1599 163.265C21.2529 162.303 17.1608 158.79 16.0484 157.178C15.426 156.348 14.9605 156.76 15.4189 155.431C15.1961 155.344 14.9711 155.252 14.7475 155.16C14.4506 155.264 14.1525 155.366 13.8533 155.466C12.9095 154.554 12.1801 153.126 11.3769 152.196C9.90375 150.53 7.25706 148.243 6.49225 146.037C6.29573 145.486 6.43518 144.596 6.15125 144.121C5.74422 143.434 4.8143 143.751 4.30256 142.836C3.4097 141.274 3.07761 137.799 2.46626 136.25C2.27456 135.783 1.86501 135.686 1.71822 135.36C1.10492 133.986 0.817858 132.808 -2.47955e-05 131.397C0.636936 129.565 1.88656 129.611 3.03291 129.034C3.8971 128.583 5.99703 127.618 6.80343 127.638C7.36301 127.611 8.07069 127.858 8.68769 127.8C9.16545 128.701 8.70911 129.282 8.07332 130.529C8.53971 132.574 9.32707 134.655 10.2853 136.686C10.0666 137.015 9.84758 137.34 9.63325 137.671C9.63259 137.671 9.63193 137.671 9.63126 137.672C9.66189 138.637 10.6157 138.598 11.0011 138.915C14.5615 142.068 18.7244 149.719 22.6586 152.836C23.4453 153.567 26.4988 155.045 26.8689 155.829C26.9609 156.043 26.7542 156.52 26.9198 156.637C28.6447 157.232 30.382 157.664 32.1206 157.933C34.8305 159.601 38.1944 159.756 41.3123 159.544C41.8091 159.513 42.2977 159.477 42.7789 159.44C52.7056 158.761 61.3061 153.335 67.7611 145.969C69.0328 144.548 70.1758 142.391 71.4104 140.974C71.9271 140.381 72.8081 140.551 72.8274 139.338C73.024 139.445 73.2206 139.552 73.4174 139.659C73.6582 138.74 73.5121 137.98 73.9498 137.078C74.3364 136.309 75.3051 134.3 75.6893 133.639C75.8897 133.304 76.2106 133.608 76.3573 133.275C76.6127 132.694 76.5949 131.245 76.893 130.455C77.1721 129.738 78.055 128.665 78.1668 128.075C78.2708 127.543 78.3483 126.957 78.3972 126.401L79.8863 130.755C78.2789 129.926 76.5728 129.101 75.1884 127.895C74.6741 127.445 74.2944 126.487 74.1142 126.372C73.7611 126.148 73.3473 126.496 73.0823 126.384C71.7374 125.809 70.3323 123.984 69.2288 123.133C65.6331 120.357 61.6357 117.669 58.0651 114.893C55.8091 113.139 51.9445 110.379 50.0644 108.487C49.6591 108.079 50.1249 107.707 49.7417 107.422C49.3167 107.106 48.8541 107.247 48.6368 107.125C47.1307 106.279 43.8616 104.338 42.8016 103.054C42.6001 102.808 42.6905 102.312 42.5415 102.204C42.4666 102.148 42.1133 102.269 41.8594 102.12C40.7467 101.465 39.8398 100.822 38.9676 100.145L43.8107 100.024C42.9313 100.72 42.0267 101.372 41.0069 102.144C37.1323 105.078 33.1552 109.1 29.0211 112.105C28.1205 112.76 26.9639 112.556 26.849 112.662C26.5958 112.894 26.8087 113.498 26.3671 114.054C24.8952 115.9 22.0869 117.384 20.5834 119.013C19.8403 119.818 19.1748 121.356 18.458 122.166C17.8856 122.812 16.1406 123.863 16.0619 124.362C16.0132 124.664 16.3445 125.234 16.1837 125.472ZM31.9233 99.3831C32.4671 100.282 33.1501 98.5993 32.3329 98.5499C32.1489 98.5388 31.782 99.1499 31.9233 99.3831ZM78.3406 142.325C78.6028 142.465 78.865 142.605 79.1273 142.745C79.1354 142.491 79.141 142.24 79.1456 141.988C78.9289 142.005 78.7134 142.019 78.4976 142.032C78.4456 142.13 78.3933 142.227 78.3406 142.325ZM365.683 125.472C365.533 125.689 365.009 125.616 364.765 125.791C363.739 126.52 363.209 126.607 362.235 127.212C360.792 128.107 357.262 131.679 355.543 129.593C355.543 129.593 355.543 129.593 355.543 129.593C355.526 129.573 355.509 129.552 355.492 129.53C355.178 129.122 355.149 128.418 354.827 127.928C354.505 127.438 352.076 124.566 352.407 124.019C352.905 123.247 355.138 122.656 355.471 122.326C355.699 122.101 355.784 121.587 356.06 121.281C356.951 120.293 357.641 120.048 357.965 118.577C358.642 118.654 359.319 118.73 359.996 118.806C360.329 118.237 361.463 118.139 361.731 117.873C361.95 117.654 361.843 117.241 362.08 117.022C362.344 116.776 363.036 116.746 363.502 116.281C364.267 115.519 363.772 114.618 364.188 114.109C364.62 113.581 365.771 113.343 366.203 112.527C366.215 112.373 366.227 112.219 366.239 112.065C366.02 111.92 365.801 111.775 365.582 111.63C365.84 111.266 366.31 111.546 366.62 111.302C366.986 111.015 366.858 110.488 367.101 110.291C367.3 110.13 367.817 110.211 368.058 109.981C368.41 109.647 367.969 109.278 368.102 109.031C368.156 108.933 369.441 107.47 369.522 107.397C370.144 106.856 370.691 107.407 371.242 107.041C372.766 106.023 373.813 104.35 374.964 103.095C375.478 102.534 376.113 102.069 376.772 101.687C377.118 103.967 380.118 103.491 377.392 101.723C378.317 101.532 378.243 100.509 378.944 100.115C379.398 99.8599 379.945 99.9658 380.502 99.4918C381.489 98.6485 381.808 96.8032 383.5 98.2685C384.429 96.999 385.956 96.7772 385.141 94.9246C385.368 94.5828 386.884 94.8376 387.324 94.6789C387.469 94.6264 387.904 94.3941 388.427 94.1006L390.961 92.2411L393.049 93.9854C393.815 94.8028 394.863 95.8673 395.125 96.0859C395.527 96.4217 396.243 96.9939 396.699 97.1198C397.269 97.2805 398.785 95.8905 398.166 98.374C399.2 98.9046 399.487 99.2026 400.178 100.059C400.304 100.214 400.112 100.508 400.202 100.576C400.388 100.714 400.86 100.742 401.212 100.964C401.789 101.33 401.661 102.154 402.273 101.204C402.746 101.321 403.22 101.438 403.693 101.554C403.69 101.823 403.686 102.092 403.683 102.36C404.017 102.313 404.352 102.267 404.686 102.22C403.486 103.36 405.417 103.597 405.535 102.519C406.033 103.309 406.531 104.1 407.028 104.891C405.824 106.305 408.435 106.204 408.899 105.293C408.979 105.354 409.058 105.414 409.137 105.475C409.543 106.391 410.427 106.546 411.083 107.447C411.739 108.347 411.551 108.432 411.302 109.309C411.532 109.419 411.762 109.53 411.991 109.64C414.44 108.548 411.839 111.657 414.713 111.561C414.413 113.168 416.295 113.606 417.503 113.95C417.644 113.99 417.816 113.763 418.014 113.801C418.498 113.897 419.19 114.869 419.708 114.107C419.864 114.556 420.021 115.004 420.177 115.452C420.535 115.509 420.893 115.567 421.25 115.625C421.42 115.393 421.59 115.162 421.76 114.931C421.695 116.102 422.735 116.407 422.998 116.894C423.05 116.992 422.831 117.322 423.015 117.594C423.23 117.913 423.842 118.222 424.114 118.58C424.511 118.328 424.908 118.076 425.304 117.824C426.066 118.095 425.593 119.186 425.903 119.529C425.959 119.59 427.205 120.413 427.284 120.441C427.928 120.676 428.368 119.773 429.767 121.078C430.016 121.31 430.032 121.748 430.269 121.941C430.688 122.284 432.457 122.635 432.987 122.137C432.981 122.937 433.823 123.551 434.391 124.025L436.852 126.081L435.975 128.655C435.877 128.948 435.781 129.193 435.667 129.324C435.542 129.464 434.987 129.338 434.718 129.799C434.506 130.158 434.601 131.33 434.353 131.798C434.089 132.296 433.568 132.319 433.45 132.542C433.337 132.754 433.625 133.089 433.507 133.387C433.131 134.322 432.211 134.906 431.884 135.621C431.418 136.637 432.022 138.034 432.041 139.132C431.867 139.314 431.538 139.418 431.423 139.636C429.977 142.379 427.947 145.271 425.907 147.616C424.971 148.754 421.498 150.454 424.08 151.411C424.109 152.127 420.801 154.15 420.271 154.593C419.756 155.071 419.664 155.792 419.251 156.175C418 157.321 416.889 157.822 415.463 159.378C415.096 159.778 414.935 160.563 414.662 160.741C414.332 160.955 413.693 160.741 413.256 160.982C412.222 161.571 410.376 162.824 409.299 163.246C409.103 163.324 408.829 162.937 408.499 162.935C407.223 162.924 406.076 163.449 406.856 164.742C405.15 164.536 404.131 165.717 402.782 166.173C399.951 167.212 394.584 167.647 392.025 168.263C391.495 168.407 391.137 168.568 390.811 168.703C390.126 168.974 389.569 169.164 387.926 168.659C387.379 168.489 386.848 168.265 386.212 168.033C384.684 167.48 383.618 166.009 382.133 167.186C380.573 166.413 379.162 166.242 378.436 164.618C378.194 164.855 377.95 165.09 377.702 165.323C377.506 165.256 377.31 165.188 377.115 165.118C377.163 164.823 377.213 164.529 377.264 164.235C375.962 163.63 373.766 163.893 372.659 163.265C370.752 162.303 366.66 158.79 365.548 157.178C364.925 156.348 364.46 156.76 364.918 155.431C364.695 155.344 364.47 155.252 364.247 155.16C363.95 155.264 363.652 155.366 363.352 155.466C362.409 154.554 361.679 153.126 360.876 152.196C359.403 150.53 356.756 148.243 355.991 146.037C355.795 145.486 355.934 144.596 355.65 144.121C355.243 143.434 354.313 143.751 353.802 142.836C352.909 141.274 352.577 137.799 351.965 136.25C351.774 135.783 351.364 135.686 351.217 135.36C350.604 133.986 350.317 132.808 349.499 131.397C350.136 129.565 351.386 129.611 352.532 129.034C353.396 128.583 355.496 127.618 356.303 127.638C356.862 127.611 357.57 127.858 358.187 127.8C358.665 128.701 358.208 129.282 357.572 130.529C358.039 132.574 358.826 134.655 359.784 136.686C359.566 137.015 359.347 137.34 359.132 137.671C359.132 137.671 359.131 137.671 359.13 137.672C359.161 138.637 360.115 138.598 360.5 138.915C364.061 142.068 368.224 149.719 372.158 152.836C372.945 153.567 375.998 155.045 376.368 155.829C376.46 156.043 376.253 156.52 376.419 156.637C378.144 157.232 379.881 157.664 381.62 157.933C384.33 159.601 387.694 159.756 390.811 159.544C391.308 159.513 391.797 159.477 392.278 159.44C402.205 158.761 410.805 153.335 417.26 145.969C418.532 144.548 419.675 142.391 420.91 140.974C421.426 140.381 422.307 140.551 422.327 139.338C422.523 139.445 422.72 139.552 422.917 139.659C423.157 138.74 423.011 137.98 423.449 137.078C423.836 136.309 424.804 134.3 425.188 133.639C425.389 133.304 425.71 133.608 425.857 133.275C426.112 132.694 426.094 131.245 426.392 130.455C426.671 129.738 427.554 128.665 427.666 128.075C427.77 127.543 427.847 126.957 427.896 126.401L429.385 130.755C427.778 129.926 426.072 129.101 424.688 127.895C424.173 127.444 423.794 126.487 423.613 126.372C423.26 126.148 422.846 126.496 422.581 126.383C421.237 125.809 419.831 123.984 418.728 123.133C415.132 120.357 411.135 117.669 407.564 114.893C405.308 113.139 401.444 110.379 399.564 108.487C399.158 108.079 399.624 107.707 399.241 107.422C398.816 107.106 398.353 107.247 398.136 107.125C396.63 106.279 393.361 104.338 392.301 103.053C392.099 102.808 392.19 102.312 392.041 102.204C391.966 102.148 391.613 102.269 391.359 102.12C390.246 101.464 389.339 100.822 388.467 100.145L393.31 100.024C392.431 100.72 391.526 101.372 390.506 102.144C386.632 105.078 382.654 109.1 378.52 112.106C377.62 112.761 376.463 112.556 376.348 112.662C376.095 112.894 376.308 113.498 375.866 114.054C374.394 115.9 371.586 117.384 370.083 119.014C369.34 119.818 368.674 121.356 367.957 122.166C367.385 122.812 365.64 123.863 365.561 124.362C365.512 124.664 365.844 125.234 365.683 125.472ZM381.423 99.3831C381.966 100.282 382.649 98.5994 381.832 98.55C381.648 98.5389 381.281 99.15 381.423 99.3831ZM427.84 142.325C428.102 142.465 428.364 142.605 428.626 142.745C428.635 142.491 428.64 142.24 428.645 141.988C428.428 142.005 428.213 142.019 427.997 142.032C427.945 142.13 427.892 142.227 427.84 142.325Z" fill="white"/>
</svg>
