<svg width="545" height="797" viewBox="0 0 545 797" fill="none" xmlns="http://www.w3.org/2000/svg">
<path d="M266.671 542.36C263.82 551.275 259.411 562.722 255.875 571.356C254.768 574.063 254.689 572.465 253.9 574.324C252.356 577.96 251.407 581.522 249.835 585.099C249.312 586.283 248.941 584.445 248.412 585.695C245.525 592.544 243.405 599.241 240.694 606.255C234.529 622.203 228.54 638.07 222.602 653.993L210.053 647.11C222.473 631.663 234.85 616.123 247.438 600.349C255.147 590.688 265.07 579.375 272.612 569.07C273.492 567.866 272.277 568.046 272.396 567.78C274.285 563.615 274.727 565.832 276.69 563.682C284.48 555.143 292.416 545.082 298.973 536.132C301.761 532.323 297.525 535.02 301.19 531.854C301.443 531.633 301.418 533.13 302.289 532.168C304.262 529.986 307.556 525.496 309.01 523.746C311.815 520.375 312.254 519.798 314.809 516.534C316.272 514.671 317.909 512.705 319.58 510.689L327.503 515.563C325.847 518.811 324.148 522.169 322.744 525.419C322.231 526.613 323.799 525.453 323.057 527.392C322.314 529.332 319.903 534.254 318.917 535.832C317.931 537.41 317.611 536.388 317.321 536.613C314.903 538.447 313.953 545.009 313.648 545.767C308.037 559.564 301.589 570.622 295.629 583.246C291.107 592.831 286.598 603.233 282.246 612.33C277.057 623.166 272.257 632.159 267.35 642.748C266.831 643.865 268.428 643.024 267.796 644.389C261.084 658.895 254.199 673.196 246.739 687.272C245.991 688.684 246.008 686.417 245.208 687.803C240.331 696.296 232.033 709.46 233.307 716.473C230.731 721.598 227.696 727.684 224.795 732.465L217.132 728.004C217.695 727.358 218.25 726.742 218.793 726.163C221.428 723.353 220.145 726.98 222.479 722.893C223.006 721.972 221.472 722.573 222.319 721.231C225.887 715.582 230.323 709.79 233.737 704.121C234.429 702.967 233.553 702.798 233.652 702.403C234.52 699.105 239.188 695.881 239.972 695.014C245.926 688.4 249.296 682.882 254.053 676.165C255.157 674.607 252.964 675.824 253.994 674.302C259.351 666.415 265.109 658.393 270.876 651.039C272.161 649.404 271.825 651.502 272.478 650.748C275.348 647.419 274.467 645.613 277.192 642.401C277.764 641.722 278.13 642.589 278.295 642.507C280.872 641.233 280.541 638.317 280.879 637.761C285.126 630.704 289.811 627.579 294.142 620.922C294.659 620.124 292.601 621.295 294.104 619.088C304.107 604.385 315.154 589.163 325.941 575.233C327.618 573.066 327.114 575.1 327.289 575.013C330.098 573.557 329.543 570.946 329.996 570.174C333.613 564.111 338.738 559.677 339.584 554.425C342.451 550.576 345.27 546.699 348.062 542.807L354.8 546.782C343.667 569.144 333.353 591.801 320.923 613.343C320.736 613.67 320.165 612.643 319.797 613.298C315.359 621.182 317.465 620.277 316.497 626.452C316.252 628.006 312.26 631.156 311.937 631.45C310.754 632.516 310.135 630.512 309.815 630.906C307.208 634.186 311.763 635.661 309.35 640.623C309.267 640.775 308.8 639.741 308.519 640.119C307.645 641.294 307.332 642.729 306.446 643.863C304.412 646.456 301.838 646.48 300.89 651.492C300.774 652.129 303.608 652.45 301.339 656.824C300.432 658.567 296.67 666.404 295.447 668.518C294.226 670.63 294.177 668.749 294.068 668.888C290.169 674.282 290.829 671.839 287.867 674.051C284.91 676.265 288.933 677.209 288.752 678.61C288.568 680.013 285.615 683.922 284.802 684.84C283.99 685.758 284.139 684.193 283.513 685.055C279.373 690.783 283.975 688.678 283.546 691.021C282.542 696.546 278.011 699.026 275.582 703.349C274.924 704.519 276.015 703.834 275.55 704.935C273.702 709.289 271.62 711.436 270.037 716.643C269.778 717.495 269.493 722.188 267.076 724.14C266.731 724.415 266.556 723.071 265.525 724.809C263.984 727.404 261.466 732.206 260.276 735.222C259.397 737.449 261.698 735.526 260.04 738.061C259.303 739.187 259.74 736.647 258.408 738.789C257.083 740.92 254.32 746.671 253.28 748.865C252.242 751.055 253.66 750.27 253.63 750.473C253.435 751.696 251.803 756.075 251.623 756.444C246.262 767.615 240.614 778.004 235.151 788.479L231.572 786.349C236.377 780.011 241.106 773.621 245.66 766.893C246.549 765.582 245.137 765.869 245.264 765.663C248.084 761.012 247.72 766.009 250.635 763.436C248.696 762.722 250.29 761.113 252.334 757.879C253.318 756.319 252.107 756.686 252.141 756.503C252.776 753.601 255.112 752.936 255.649 752.718C257.627 751.91 257.677 749.527 259.012 748.969C260.342 748.408 259.607 751.361 261.726 748.373C261.744 747.123 258.645 748.251 260.018 745.813C265.193 736.612 277.778 721.528 282.81 714.753C287.832 707.992 289.307 705.703 292.371 701.861C297.906 694.923 294.892 696.76 297.578 691.916C300.275 687.058 301.481 691.219 302.538 691C303.586 690.791 303.468 689.662 304.359 689.107C305.247 688.556 304.436 690.546 305.88 688.786C307.324 687.025 309.88 681.214 309.727 680.114C309.4 677.787 306.388 679.075 310.372 674.531C310.602 674.271 310.676 675.704 311.52 674.679C318.199 666.525 324.59 657.662 331.196 649.471C332.106 648.346 332.164 649.976 332.702 649.327C338.314 642.575 335.128 644.145 336.403 639.157C337.794 641.477 340.572 640.201 344.45 634.804C346.782 631.561 345.5 631.49 346.382 628.944C346.646 628.18 348.895 626.313 348.778 625.6C348.448 623.519 345.992 624.14 348.664 620.7L354.268 623.702C354.054 624.205 353.777 624.792 353.428 625.478C353.289 625.746 352.776 624.528 352.356 625.48C349.636 631.629 350.98 632.998 348.603 639.858C346.74 645.235 342.158 654.317 339.698 660.312C337.139 659.195 335.566 665.142 336.483 668.145C334.919 672.047 333.41 676.33 331.72 680.035C331.139 681.31 330.71 680.164 330.566 680.298C328.327 682.341 329.428 684.713 329.175 685.587C326.353 695.035 322.185 702.023 320.152 711.289C320.08 711.618 321.7 712.81 319.487 714.654C319.339 714.771 319.614 711.56 317.984 715.664C316.354 719.768 312.43 727.182 311.095 733.232C310.771 734.695 310.91 738.761 308.693 741.141C308.395 741.457 308.031 740.849 307.536 741.281C305.951 742.682 307.42 744.332 305.083 745.799C302.747 747.266 299.959 751.104 298.839 757.291C298.8 757.487 299.732 759.406 299.02 761.215C297.881 764.102 296.016 768.107 294.876 771.14C294.33 772.593 295.584 772.006 295.505 772.264C293.018 780.004 290.384 785.741 287.306 792.767L286.302 792.239C287.638 790.509 289.034 788.685 290.515 786.697C291.741 785.055 294.02 779.469 297.136 776.804C300.554 773.876 301.888 780.251 306.672 771.386C308.605 767.812 306.589 760.189 313.283 756.004C320.676 744.006 329.407 734.225 336.552 722.007C336.873 721.458 336.642 718.854 337.512 717.642C338.805 715.844 340.142 715.292 341.086 714.022C345.06 708.714 347.968 703.351 351.698 698.163C353.113 696.192 353.294 697.351 354.981 695C356.667 692.651 356.891 690.459 359.549 687.534C360.373 686.63 361.444 685.896 362.59 685.133L360.803 684.33C359.661 685.948 358.397 687.678 357.705 689.894C359.759 690.547 359.08 693.158 358.5 697.951C358.39 698.873 359.35 698.089 359.335 698.534C359.292 700.349 358.302 701.799 358.312 703.535C358.314 703.957 359.022 704.149 359.064 704.504C359.442 707.527 356.73 711.699 356.261 712.415C354.471 715.159 355.058 716.788 354.082 718.989C353.106 721.187 353.418 717.622 352.512 720.247C350.637 725.686 349.016 732.867 347.611 738.513C347.054 740.767 348.38 739.459 348.323 739.787C347.432 744.511 345.274 748.982 346.543 752.029C340.853 754.073 346.336 754.958 343.736 761.387C343.529 761.893 341.047 761.999 341.196 759.899C341.346 757.8 342.813 754.919 342.961 751.992C342.997 751.299 341.745 746.976 341.739 746.427C341.695 742.121 345.3 742.387 345.543 742.219C348.188 740.284 346.972 735.078 347.107 733.817C347.721 728.05 349.361 723.421 349.966 718.619C350.366 715.48 348.168 714.63 348.82 712.247C350.986 704.324 354.83 702.308 353.908 694.124C353.714 692.369 350.843 693.369 354.197 688.066C354.356 687.816 355.995 685.571 356.572 683.303L366.166 687.617C365.72 688.244 365.38 688.916 365.256 689.598C365.194 689.945 365.811 690.361 365.622 690.744C364.339 693.299 362.776 694.511 361.25 697.206C359.725 699.9 357.958 703.186 355.743 705.934C354.409 707.59 351.717 709.035 350.859 709.675C348.421 711.473 347.984 714.913 345.998 715.696C343.999 716.489 344.512 712.581 341.201 716.001C342.69 717.247 344.091 718.707 345.529 720.046C339.601 728.463 333.31 736.426 327.489 744.959C326.768 746.017 328.369 745.535 327.619 746.685C324.451 751.537 320.957 755.269 317.773 760.371C315.312 764.322 313.308 769.137 310.763 773.289C307.252 774.466 303.754 780.819 300.599 785.009C299.494 786.477 299.079 786.039 298.176 787.001C294.781 790.64 297.704 789.859 297.186 791.144C295.874 794.391 293.973 794.988 291.853 796.094L280.987 790.37C282.232 789.267 283.519 787.898 284.471 785.263C284.596 784.923 283.959 779.951 284.038 779.329C284.515 775.37 285.033 779.021 286.055 776.818C287.922 772.796 289.539 770.122 290.734 765.025C291.079 763.538 290.992 759.623 293.098 757.279C293.374 756.97 294.027 757.446 294.18 757.172C296.89 752.176 294.652 751.168 295.018 747.865C295.384 744.561 298.729 740.513 299.543 739.74C301.661 737.712 299.328 741.827 299.393 742.005C300.172 744.102 301.221 740.622 302.32 738.076C304.708 738.553 305.948 734.879 303.451 735.433C303.176 735.499 302.62 737.595 302.32 738.076C300.98 734.966 302.208 730.878 305.935 727.262C307.681 725.57 308.068 727.943 310.029 721.534C310.92 718.626 308.957 719.136 309.486 716.471C310.694 710.385 314.958 703.499 316.968 697.514C317.698 695.342 316.06 697.106 316.53 695.611C317.773 691.641 319.707 688.458 320.861 684.436C320.965 684.071 319.751 684.598 320.2 683.381C323.585 674.15 327.189 666.361 330.846 656.77C332.613 652.135 335.27 643.659 337.19 638.893C339.566 632.988 342.886 626.322 345.458 620.359L356.329 626.181C354.728 628.221 353.27 630.183 352.085 632.005C349.373 636.165 350.778 635.831 350.066 637.936C348.698 642.001 342.65 646.603 341.799 647.197C341.772 647.214 344.074 643.612 342.353 645.182C340.758 645.669 341.823 647.155 341.799 647.197C341.243 647.589 336.107 654.401 335.269 655.884C334.814 656.69 335.844 656.794 335.593 657.204C329.613 666.948 323.153 676.373 316.083 685.537C315.95 685.692 315.311 684.858 315.008 685.23C310.75 690.417 309.255 694.62 306.636 699.536C304.017 704.452 301.271 707.872 297.967 709.527C295.72 713.043 291.623 717.461 289.245 719.99C286.868 722.519 288.18 724.047 288.035 724.315C283.55 732.713 279.466 736.501 273.627 744.365C270.849 748.102 265.707 755.78 262.948 760.005C260.771 763.346 259.002 765.031 257.105 768.188C256.848 768.615 257.848 768.713 257.787 768.856C256.251 772.794 255.665 769.955 254.864 770.422C251.955 772.112 250.254 773.225 247.731 777.871C247.148 778.942 247.59 783.592 246.453 785.491C244.969 787.956 244.706 786.437 243.175 789.034C243.043 789.256 243.626 789.607 242.523 791.097C242.03 791.764 241.532 792.436 241.028 793.112L224.697 783.392C228.295 776.358 232.271 768.909 235.751 761.617C236.279 760.516 234.628 761.454 235.375 759.855C238.883 752.354 242.89 744.211 246.872 737.177C247.855 735.448 247.987 736.896 248.377 736.606C250.751 734.819 250.626 730.585 250.863 730.012C256.477 716.318 263.021 706.932 268.847 693.025C269.16 692.267 270.026 685.673 272.882 683.933C273.074 683.813 275.954 682.118 275.895 679.352C275.891 679.179 274.276 680.323 275.688 677.643C277.1 674.963 278.661 670.304 281.422 667.019C282.294 665.979 285.314 663.985 285.713 659.808C285.732 659.533 285.399 652.623 288.408 651.679C288.901 651.529 290.922 652.921 291.856 648.159C292.031 647.247 290.833 648.473 291.562 646.202C292.676 642.722 295.358 638.696 296.332 634.224C296.499 633.443 296.463 629.754 298.745 627.92C299.103 627.633 299.486 628.696 300.18 627.478C303.481 621.688 306.04 615.19 309.499 609.363C310.722 607.299 311.364 608.971 312.771 606.883C314.177 604.795 316.679 600.425 317.282 597.818C317.886 595.209 314.762 596.859 316.322 593.271C323.106 577.672 331.573 563.07 339.159 547.889C340.284 545.637 338.7 547.187 340.31 543.845C340.816 542.795 341.349 541.678 341.905 540.507L359.791 551.058C351.893 562.514 340.371 579.696 332.938 587.738C326.428 594.783 332.521 584.441 327.917 590.085C325.698 592.811 325.501 597.309 325.076 598.045C320.954 605.253 316.768 609.334 312.756 615.61C311.928 616.906 313.6 616.24 312.886 617.337C310.455 621.088 307.395 624.676 305.004 628.213C303.934 629.801 304.751 629.945 303.69 631.353C301.157 634.726 298.754 637.594 295.813 640.551C295.545 640.82 296.234 638.217 294.411 640.748C291.462 644.847 287.288 649.573 284.533 654.736C283.717 656.27 285.082 657.313 281.981 659.661C281.332 660.154 280.216 658.157 279.19 662.711C279.014 663.475 276.808 670.787 273.494 672.806C272.621 673.339 269.863 674.327 268.887 676.175C268.76 676.429 270.162 676.039 269.248 677.495C266.011 682.619 262.281 687.751 258.939 693.003C258.048 694.406 260.251 692.932 258.899 695.007C255.18 700.712 250.092 707.522 246.019 712.793C244.515 714.735 244.845 712.893 244.672 712.99C241.876 714.533 242.443 717.008 241.985 717.851C239.114 723.077 235.792 726.257 232.841 730.86C232.025 732.129 233.376 731.773 233.269 732.065C232.12 735.061 232.132 732.235 230.852 733.744C230.172 734.545 229.495 735.376 228.824 736.23L211.869 726.36C214.071 722.277 216.103 717.821 217.951 713.692C218.787 711.82 216.859 713.458 217.62 711.782C222.108 701.86 227.033 691.667 232.092 682.305C233.046 680.542 233.235 682.024 233.58 681.725C235.969 679.675 236.183 675.118 236.447 674.17C237.64 669.86 239.014 668.616 240.556 665.04C248.079 647.566 258.531 626.54 266.459 610.437C276.786 589.451 285.229 573.368 294.574 553.118C295.169 551.831 293.592 552.667 294.092 551.552C300.555 537.269 307.518 523.49 313.956 509.164L331.399 519.896C331.339 519.977 331.279 520.057 331.218 520.138C330.44 521.175 332.389 520.323 331.166 522.01C328.663 525.474 325.295 529.707 322.387 532.914C320.969 534.48 322.019 531.717 320.606 533.304C317.316 536.997 314.007 541.127 311.02 545.226C309.75 546.972 312.569 545.041 310.855 547.261C299.197 562.394 287.808 577.305 274.886 591.708C274 592.696 271.624 592.317 270.213 594.785C270.544 595.311 271.094 595.725 271.531 596.182C255.766 616.933 239.416 636.911 223.246 657.387L206.844 648.391C207.442 646.743 208.039 645.093 208.634 643.44C209.032 642.334 207.299 643.874 208.065 641.731C212.493 629.322 216.487 617.164 222.046 604.837C222.596 603.614 224.217 604.918 225.257 601.106C225.439 600.433 227.18 594.753 227.292 593.164C227.301 592.946 226.075 593.66 226.69 591.849C230.281 581.33 234.379 570.427 238.623 560.161C239.309 558.505 239.591 560.629 240.088 559.452C243.606 551.102 246.202 541.582 249.933 533.734C252.433 528.482 253.306 531.066 255.901 528.725C256.268 528.394 257.503 525.03 258.476 525.179C260.925 525.545 262.852 528.072 265.532 528.269C266.108 528.314 267.149 523.591 267.468 526.72C267.486 526.937 266.743 530.365 266.887 531.325C266.985 531.994 268.271 531.31 268.245 532.592C268.219 533.875 266.994 534.859 266.767 536.919C266.545 538.981 267.896 538.52 266.671 542.36ZM278.554 731.385C275.938 733.429 278.462 735.812 279.796 732.532C279.858 732.37 278.687 731.278 278.554 731.385ZM331.212 734.899C327.591 737.453 327.798 741.066 330.436 739.322C333.072 737.577 332.313 734.119 331.212 734.899ZM354.93 698.802C351.172 702.117 354.741 705.529 356.904 700.685C357.031 700.404 355.15 698.608 354.93 698.802ZM251.571 542.318C251.629 542.292 252.534 539.88 252.512 539.807C251.942 538.149 250.134 542.972 251.571 542.318ZM354.085 710.74C355.084 709.419 355.376 704.988 354.133 706.629C353.133 707.95 352.841 712.385 354.085 710.74ZM274.014 702.735C274.082 702.712 274.931 701.072 274.654 700.979C273.76 700.683 272.873 703.109 274.014 702.735ZM336.963 781.52C339.679 771.108 345.133 765.719 341.928 776.997C341.347 779.04 341.758 772.25 340.768 774.789C338.959 779.435 340.643 783.22 338.137 787.801C337.68 788.629 336.799 782.112 336.962 781.5C336.962 781.506 336.962 781.513 336.963 781.52ZM274.127 730.473C274.053 730.499 272.531 732.553 272.532 732.629C272.615 734.39 275.681 730.252 274.127 730.473ZM323.07 606.781C323.218 606.697 325.895 601.403 325.9 601.19C325.648 597.626 320.231 608.327 323.07 606.781ZM339.593 660.381C339.63 663.378 338.568 666.544 336.489 668.133C337.541 665.568 338.541 662.963 339.593 660.381Z" fill="#B08259"/>
<path d="M187.019 103.098C175.446 129.62 159.624 164.094 147.42 190.214C143.699 198.181 144.847 194.205 142.455 199.186L125.656 188.482C125.759 188.37 125.865 188.252 125.977 188.128C134.132 179.055 141.337 170.263 149.433 161.329C152.118 158.37 149.597 162.763 152.396 159.646C167.729 142.561 181.743 125.973 197.104 108.516C225.131 76.6658 252.917 44.9593 280.664 13.2172L292.857 21.4671C259.615 84.9435 226.505 148.494 192.758 213.21C175.084 247.105 152.977 287.986 135.195 323.24C133.12 327.355 135.134 325.303 134.794 326.114C129.43 338.825 130.009 333.976 125.685 341.85C116.187 359.152 106.351 377.656 96.8393 395.925L88.0606 390.615C97.6332 377.042 106.976 363.592 115.642 350.967C123.899 338.934 114.125 349.951 123.33 338.459C123.968 337.66 122.58 341.209 124.955 337.986C130.34 330.677 140.088 316.482 144.182 310.762C152.076 299.741 153.356 297.899 160.721 287.403C170.796 273.06 183.125 256.242 193.749 240.722C196.014 237.408 192.209 241.231 195.754 235.897C199.302 230.559 209.092 216.721 212.549 212.165C216.008 207.608 215.205 210.018 215.922 209.285C221.846 203.273 231.505 186.099 232.913 184.006C258.636 145.861 282.176 114.188 306.949 78.8217C316.569 65.0855 326.453 50.8085 336.215 36.7225L344.631 41.9167C336.936 56.3555 329.331 70.6085 322.076 84.0039C304.376 116.678 288.983 144.157 271.917 175.969C270.116 179.326 273.19 175.912 270.991 180.013C247.629 223.582 224.215 266.731 200.198 309.705C197.788 314.014 199.971 307.963 197.514 312.241C182.487 338.444 158.146 379.6 153.28 397.353C143.426 415.278 131.488 437.052 122.064 452.76C115.988 462.888 120.516 452.31 114.024 465.276C112.559 468.199 115.377 464.89 113.119 469.242C103.612 487.564 92.6459 507.268 83.3647 525.46C81.4787 529.161 82.7337 528.549 82.304 529.655C79.0135 538.008 70.9342 549.847 68.0328 554.364L59.7818 549.321C60.1505 548.864 60.4481 548.487 60.6602 548.204C77.0219 526.289 87.9856 509.607 102.433 488.645C105.786 483.781 100.927 488.915 104.121 484.212C120.699 459.829 138.083 434.717 154.842 411.204C158.572 405.975 155.993 411.369 157.815 408.897C165.838 397.993 166.087 394.524 173.754 384.047C175.368 381.837 175.152 383.559 175.507 383.197C181.066 377.541 183.306 370.845 184.409 369.166C198.324 347.894 209.204 335.663 222.877 315.272C224.511 312.831 219.927 317.716 224.571 310.89C255.506 265.415 288.695 217.643 320.209 173.242C325.107 166.338 322.308 171.746 322.687 171.361C328.809 165.035 330.38 159.298 331.883 156.982C343.784 138.741 356.661 122.911 363.124 109.401C373.162 95.0753 383.128 80.7189 393.055 66.3526L399.818 70.1968C368.519 137.8 337.819 205.568 305.117 272.133C304.606 273.178 304.608 270.882 303.593 272.969C291.362 298.073 294.956 293.876 288.85 311.39C287.292 315.841 279.336 327.727 278.665 328.786C276.187 332.702 276.895 327.776 276.142 329.123C269.951 340.293 275.185 340.28 267.945 355.853C267.712 356.336 267.869 353.929 267.185 355.195C265.055 359.127 263.517 363.254 261.424 367.041C256.519 375.929 253.044 377.938 247.753 392.459C247.094 394.283 250.779 392.749 244.232 406.477C241.565 412.073 230.298 436.28 226.887 443.139C223.521 449.909 224.939 444.843 224.675 445.317C215.111 463.006 217.802 456.15 212.019 464.467C206.178 472.911 210.973 472.184 209.625 476.102C208.341 479.886 201.02 493.166 199.228 496.172C197.313 499.442 198.829 494.961 197.229 497.9C186.983 516.626 194.932 507.391 192.48 514.023C186.641 529.458 178.964 539.779 171.247 552.796C171.14 552.936 171.061 553.039 170.92 553.177C170.833 553.247 170.785 553.34 170.438 553.484C170.268 553.545 169.901 553.642 169.465 553.431C169.027 553.215 168.858 552.808 168.816 552.613C168.74 552.201 168.806 552.11 168.821 551.996C168.853 551.87 168.842 551.92 168.852 551.884C168.865 551.844 168.878 551.808 168.891 551.772C168.945 551.631 169.006 551.492 169.084 551.324C171.038 547.511 168.904 550.264 170.579 546.902C177.372 533.754 182.421 526.765 189.884 511.782C191.228 509.115 196.178 496.752 201.664 489.823C202.449 488.834 201.341 492.27 204.615 486.885C209.362 479.088 218.018 464.388 222.74 455.75C226.314 449.217 221.017 455.902 225.983 448.104C228.189 444.646 224.988 451.585 229.092 445.04C233.272 438.354 243.127 421.431 246.925 414.929C250.731 408.403 247.836 411.493 248.09 410.937C249.621 407.616 256.562 394.971 257.217 393.871C289.819 338.614 321.765 288.843 355.084 235.908C357.68 231.8 355.103 233.991 355.491 233.359C364.297 218.971 359.293 231.505 366.382 222.2C363.764 222.577 367.922 216.81 374.19 206.958C377.283 202.109 374.911 204.286 375.134 203.807C377.497 198.935 380.12 195.606 382.018 193.542L386.831 195.986C386.02 197.502 385.351 198.518 385.049 199.013C382.084 203.889 381.289 210.07 379.284 213.393C377.285 216.715 379.195 208.101 375.371 218.767C374.966 221.999 379.569 214.714 376.939 222.912C367.021 253.841 345.124 310.357 336.142 334.863C327.177 359.32 324.452 367.28 319.069 381.474C309.345 407.112 314.049 398.127 308.879 414.359C303.693 430.638 303.302 421.676 301.783 423.738C300.279 425.757 300.096 428.487 298.703 431.171C297.313 433.845 299.035 427.592 296.514 434.151C293.992 440.714 288.707 459.237 288.582 461.84C288.323 467.345 292.856 459.773 285.995 477.071C285.599 478.065 285.933 474.496 284.461 478.319C275.138 502.594 265.931 527.768 256.699 552.399L254.921 551.567C258.335 545.904 261.745 540.275 265.148 534.703C267.478 530.89 266.319 534.841 267.685 532.627C281.915 509.575 275.576 517.082 281.465 503.33C281.923 507.46 287.379 501.142 297.774 483.41C304.024 472.751 302.015 474.04 305.392 466.757C306.405 464.571 311.463 457.401 311.824 455.777C313.025 450.427 307.256 456.592 318.601 438.677C319.101 437.893 318.393 440.909 320.063 438.164C330.865 420.424 330.616 417.399 341.773 397.919C350.518 382.65 367.242 356.179 377.511 338.976C379.706 340.749 388.713 324.094 390.931 316.498C397.567 305.316 404.566 293.141 411.144 282.43C413.407 278.743 412.668 281.603 413.019 281.176C418.425 274.65 419.665 268.826 421.02 266.367C423.755 261.432 426.456 256.7 429.127 252.102L432.561 253.718C424.626 275.678 416.798 294.992 409.752 317.59C409.446 318.575 410.694 320.808 406.704 327.612C406.44 328.051 408.899 318.742 404.154 331.546C399.407 344.353 389.604 368.183 383.947 386.302C382.576 390.686 380.075 402.128 375.727 410.457C375.145 411.565 375.088 410.099 374.184 411.676C371.273 416.778 372.028 420.419 368.132 426.242C364.236 432.065 358.211 444.937 352.734 463.294C352.556 463.877 352.462 468.662 350.378 474.302C347.048 483.306 342.072 495.996 338.645 505.415C337.005 509.926 338.964 507.37 338.694 508.159C332.182 526.974 326.383 542.281 320.031 558.842L318.632 558.07C325.507 549.467 332.732 540.467 340.942 530.076C344.872 525.105 354.967 509.891 363.29 500.819C372.427 490.855 367.707 504.702 385.747 479.513C393.027 469.355 397.944 453.174 414.127 437.317C425.251 422.383 436.35 408.187 447.431 394.074L445.967 393.345C439.472 416.454 432.95 439.412 426.985 463.674C426.516 465.58 426.499 472.009 425.263 476.455C423.425 483.054 421.68 486.476 420.343 491.182C414.723 510.894 410.434 529.166 405.134 548.204C403.384 554.494 403.088 553.233 401.461 558.48L402.039 558.744C402.518 558.078 403.071 557.285 403.721 556.322C408.726 548.911 411.152 543.36 418.312 533.568C423.722 526.175 430.618 519.777 437.578 509.816C436.047 508.236 440.719 501.323 448.485 488.676C449.977 486.244 447.657 488.37 448.331 487.199C451.059 482.421 454.396 478.542 456.941 473.976C457.562 472.866 456.984 472.408 457.457 471.478C461.453 463.55 470.891 452.395 472.515 450.481C477.588 444.492 479.644 440.564 482.635 436.14L484.02 436.721C483.767 437.899 483.479 439.118 483.126 440.422C481.208 447.498 482.92 436.677 480.916 444.991C476.762 462.225 472.22 484.535 468.505 502.144C467.028 509.171 468.989 504.576 468.8 505.586C466.005 520.171 461.913 534.655 462.139 543.113C457.257 549.38 458.491 551.218 457.936 558.599L457.639 558.461C459.312 555.639 461.782 551.998 466.053 547.065C467.15 545.801 470.34 545.603 466.65 550.866C464.813 553.486 462.255 556.585 459.523 559.941L455.591 558.109C456.557 553.852 457.565 549.281 458.212 544.848C458.518 542.758 458.8 530.475 459.004 528.834C460.609 515.98 464.475 514.919 464.807 514.29C468.461 507.141 469.122 492.198 469.755 488.359C472.647 470.795 476.229 456.108 478.739 441.437C479.134 439.137 479.313 437.307 479.381 435.752L486.576 438.772C484.534 443.268 484.567 445.626 481.296 450.425C466.994 471.409 459.36 476.969 448.417 498.437C446.068 503.038 451.024 500.217 439.141 514.39C438.394 515.28 429.284 525.61 425.869 532.813C425.441 533.718 426.077 534.106 425.404 535.226C420.877 542.731 417.141 547.256 412.079 555.344C410.663 557.607 409.172 560.002 407.622 562.473L394.984 556.714C396.751 549.417 398.731 541.518 400.969 534.001C402.841 527.711 406.394 519.953 407.548 517.011C410.825 508.712 411.781 499.115 414.369 494.126C416.975 489.093 415.868 500.02 420.433 486.204C418.71 485.176 417.12 483.461 415.472 482.115C423.788 451.879 432.494 422.264 440.707 391.911L451.746 397.408C451.45 397.793 451.154 398.177 450.858 398.562C448.446 401.704 451.746 399.134 449.181 402.519C438.358 416.795 428.204 428.724 417.078 443.605C408.469 455.126 399.698 468.277 390.723 480.345C383.356 486.26 370.306 504.376 360.235 517.079C356.708 521.529 356.472 520.868 353.851 523.945C343.972 535.564 349.884 531.11 347.574 534.603C338.378 548.495 333.892 548.222 323.058 561.491L314.776 556.924C315.271 555.675 315.777 554.335 316.296 552.889C316.676 551.836 319.15 538.176 319.658 536.355C322.864 524.78 321.109 534.775 323.842 527.796C328.832 515.054 332.62 506.317 337.474 491.002C338.887 486.535 341.355 475.484 345.539 467.336C346.089 466.264 346.595 467.152 346.968 466.264C353.655 450.16 351.511 448.889 354.145 439.254C356.779 429.617 363.64 415.751 365.171 412.978C369.162 405.72 363.526 419.056 363.49 419.515C363.088 424.913 366.695 414.29 369.75 406.283C372.432 405.941 376.405 394.634 372.908 397.979C372.519 398.362 370.443 404.704 369.75 406.283C370.115 398.409 374.347 385.933 381.403 373.023C384.707 366.98 383.631 373.44 390.309 353.858C393.341 344.971 390.544 347.812 392.961 339.875C398.483 321.742 408.365 299.168 414.826 280.755C417.171 274.072 413.956 280.242 415.529 275.664C418.524 266.943 421.699 259.12 424.767 250.873L436.288 256.293C434.522 259.268 432.76 262.31 431.006 265.502C430.444 266.527 432.704 264.541 430.688 268.009C415.422 294.31 401.523 316.857 385.47 344.251C377.714 357.487 364.311 381.421 356.193 395.084C342.128 418.766 323.823 447.313 312.226 467.79C304.659 481.142 307.178 478.716 304.414 484.717C299.085 496.301 285.804 514.553 283.976 516.988C283.92 517.061 290.397 505.551 286.418 511.387C283.474 514.411 284.048 516.857 283.976 516.988C282.779 518.588 269.268 541.247 266.779 545.859C265.426 548.366 267.006 547.445 266.286 548.744C264.963 551.127 263.637 553.509 262.307 555.89L248.646 549.5C259.053 518.64 269.952 487.876 281.497 456.945C281.727 456.359 282.351 457.592 282.881 456.208C290.316 436.871 293.651 423.977 298.75 407.657C303.848 391.339 308.666 378.678 313.712 369.749C317.873 357.55 324.852 340.411 328.89 330.557C332.929 320.704 331.592 318.644 331.872 317.751C340.597 289.859 347.366 274.357 357.789 245.914C362.568 232.884 371.478 207.359 376.665 192.327L390.969 199.591C390.65 200.078 390.338 200.554 390.035 201.017C383.368 211.231 378.904 217.17 372.936 226.845C372.141 228.136 373.706 227.329 373.482 227.735C367.5 238.849 369 232.643 367.261 234.624C360.97 241.822 357.135 246.406 349.056 260.385C347.14 263.688 344.005 274.425 340.515 280.361C336.033 287.979 336.873 284.548 332.2 292.585C331.803 293.267 332.447 293.51 329.424 298.343C315.356 320.864 299.979 345.46 285.866 369.193C283.939 372.428 287.347 368.821 284.566 373.528C271.552 395.561 257.252 419.732 244.28 440.975C241.121 446.141 242.383 442.482 241.52 443.518C236.157 450.032 232.114 460.922 231.154 462.657C221.644 479.897 212.745 495.206 203.966 510.305C199.616 517.789 195.173 525.436 190.833 533.055C188.658 536.873 186.384 540.909 184.299 544.682C183.043 546.962 182.285 548.344 181 550.743C180.414 551.842 180.11 552.414 179.441 553.711C179.171 554.237 178.952 554.674 178.795 554.998C178.778 555.034 178.662 555.273 178.622 555.36C178.573 555.467 178.545 555.532 178.552 555.517C178.561 555.494 178.601 555.423 178.726 555.052C178.758 554.955 178.796 554.836 178.841 554.674C178.85 554.638 178.839 554.683 178.87 554.565C178.894 554.471 178.921 554.364 178.949 554.236C179.004 553.979 179.07 553.652 179.119 553.133C179.157 552.606 179.223 551.904 179 550.644C178.761 549.454 178.179 547.237 175.788 545.24C173.388 543.195 169.984 542.954 168.345 543.337C166.585 543.691 165.772 544.219 165.179 544.567C164.06 545.294 163.785 545.651 163.514 545.908C163.049 546.398 162.994 546.506 162.942 546.567C163.107 546.244 165.192 542.292 166.272 540.031C167.829 536.86 168.828 534.729 170.364 531.465C171.309 529.473 177.985 510.785 183.34 503.708C183.784 503.058 188.991 496.422 191.182 488.839C191.315 488.372 188.192 492.747 192.218 484.467C196.459 475.73 202.126 462.212 208.597 450.888C210.67 447.249 216.382 439.418 220.201 427.791C220.426 427.072 225.389 408.615 230.294 403.526C231.074 402.747 232.894 404.589 237.82 391.087C238.773 388.473 236.151 392.815 238.939 386.036C243.222 375.619 250.068 362.457 254.868 349.575C255.716 347.297 258.523 337.355 263.105 330.459C263.825 329.375 263.529 331.934 265.439 328.037C274.493 309.581 283.088 289.766 292.369 271.07C295.659 264.438 295.257 268.421 298.818 261.568C302.379 254.715 309.216 240.752 312.063 233.174C314.907 225.602 309.307 232.736 314.236 221.684C335.623 173.719 358.613 126.832 380.692 79.3169C384.028 72.1351 380.655 77.6757 385.408 67.3176C385.876 66.2976 386.349 65.2638 386.828 64.2184L404.837 74.4553C380.7 109.706 341.489 167.82 319.981 196.371C302.271 219.881 322.443 188.84 309.284 207.063C302.936 215.858 298.287 226.9 296.867 229.1C283.016 250.611 272.06 264.646 259.289 283.798C256.652 287.753 260.104 284.469 257.851 287.829C250.162 299.311 241.572 311.028 234.156 321.952C230.831 326.855 232.069 326.381 228.932 330.839C221.435 341.511 214.64 350.835 206.856 360.912C206.147 361.83 209.804 354.863 204.308 362.793C195.415 375.631 183.859 391.209 174.269 406.419C171.426 410.934 172.722 412.079 165.252 420.849C163.686 422.69 163.726 418.995 157.629 431.003C156.601 433.02 145.875 452.857 138.363 461.047C136.382 463.209 130.794 468.358 127.38 473.791C126.922 474.531 129.655 472.184 126.719 476.612C116.359 492.208 105.16 508.32 94.4991 524.331C91.6538 528.608 96.7747 522.845 92.5089 529.202C86.4802 538.188 79.5629 548.239 72.646 558.168L54.2926 546.951C59.7865 536.914 65.2921 526.988 70.1702 518.251C73.8722 511.626 72.077 516.617 72.4149 516.172C77.8626 509.021 78.6938 503.504 79.9963 500.858C88.1198 484.412 95.5281 472.549 103.344 457.567C105.503 453.433 103.141 455.916 103.511 455.061C107.392 446.216 105.41 453.295 108.46 448.017C117.009 433.233 125.981 416.452 134.076 401.205C137.048 395.604 132.746 401.38 135.424 396.359C151.257 366.632 167.97 335.865 184.084 307.211C187.119 301.816 185.978 305.625 186.752 304.577C192.104 297.363 196.748 285.064 198.025 282.346C203.827 269.987 206.966 265.664 212.566 255.007C239.908 202.936 274.8 139.255 301.413 90.5378C312.135 70.9082 322.155 52.6598 331.844 35.0177L348.115 45.0593C322.039 81.6952 297.951 115.516 270.721 154.623C268.215 158.221 271.628 155.214 269.479 158.322C241.693 198.434 213.788 237.538 185.988 277.758C183.705 281.058 187.854 276.903 184.217 282.218C176.765 293.125 167.119 306.797 159.191 317.549C155.326 322.795 159.627 315.14 155.751 320.43C146.724 332.747 137.275 346.109 128.41 359.046C124.639 364.553 131.266 356.901 126.298 364.012C117.927 376.006 109.596 387.95 101.263 399.864L82.518 388.526C102.774 349.248 123.093 310.245 144.613 270.792C146.574 267.198 150.095 264.974 153.731 257.056C153.512 256.205 152.885 255.921 152.461 255.38C191.643 178.806 231.371 103.502 271.064 26.9192C272.737 23.6902 268.86 28.7617 272.095 22.5076C273.699 19.4052 275.298 16.3094 276.892 13.2188L294.259 24.9688C270.018 53.0492 246.379 80.6587 220.688 108.828C217.901 111.886 217.802 108.996 210.057 118.411C208.692 120.073 196.886 134.132 194.104 138.001C193.732 138.531 196.615 136.597 192.767 141.089C175.766 160.919 157.991 181.337 140.403 201.229L124.672 191.205C128.193 183.588 131.712 176.026 135.209 168.563C137.561 163.548 136.037 169.328 137.719 165.76C149.648 140.443 161.432 112.372 173.188 88.3413C181.06 72.2575 179.887 78.9937 185.297 70.9973C186.061 69.866 190.633 59.7703 191.749 59.6432C194.569 59.296 194.799 65.2832 198.065 64.3344C198.765 64.1383 204.293 50.3511 201.926 58.9204C201.757 59.5175 197.759 69.5181 197.091 72.1234C196.625 73.9364 198.883 71.3052 197.711 74.9058C196.539 78.5061 194.093 81.9429 191.971 87.8322C189.856 93.7214 192 91.6764 187.019 103.098ZM347.06 286.183C351.28 277.232 348.536 274.7 345.702 285.004C345.568 285.504 346.845 286.646 347.06 286.183ZM435.219 422.206C440.071 410.18 440.238 401.09 436.717 409.548C433.198 418.004 433.743 425.871 435.219 422.206ZM401.148 551.343C406.262 537.136 402.18 533.567 398.889 549.38C398.696 550.299 400.849 552.174 401.148 551.343ZM167.671 111.429C167.768 111.323 171.071 104.073 171.107 103.881C171.848 99.5637 165.245 114.061 167.671 111.429ZM472.687 454.742C469.529 458.282 462.646 469.956 466.572 465.556C469.732 462.015 476.621 450.331 472.687 454.742ZM170.82 551.57C170.8 551.593 170.695 551.793 170.593 552.007C170.543 552.113 170.495 552.221 170.466 552.296C170.452 552.327 170.439 552.379 170.441 552.353C170.442 552.335 170.448 552.306 170.432 552.23C170.421 552.163 170.341 551.987 170.158 551.924C169.788 551.851 169.788 551.991 169.766 551.98C169.75 551.997 169.824 551.921 169.915 551.797C170.036 551.642 170.249 551.311 170.531 550.813C170.663 550.58 170.857 550.228 170.972 550.007C171.058 549.842 171.144 549.671 171.226 549.501C171.556 548.824 171.83 548.172 171.72 548.165C171.45 548.142 170.99 548.664 170.575 549.238C170.472 549.382 170.371 549.529 170.275 549.674C170.114 549.938 169.951 550.208 169.816 550.431C169.545 550.881 169.35 551.197 169.283 551.323C169.213 551.427 169.139 551.493 169.262 551.384C169.3 551.354 169.352 551.307 169.493 551.238C169.626 551.183 169.919 551.031 170.417 551.193C170.932 551.37 171.156 551.867 171.186 552.061C171.231 552.281 171.211 552.376 171.206 552.443C171.186 552.572 171.178 552.564 171.177 552.568C171.174 552.572 171.172 552.572 171.17 552.571C171.167 552.569 171.166 552.56 171.167 552.546C171.171 552.488 171.2 552.367 171.238 552.23C171.276 552.093 171.322 551.936 171.366 551.783C171.405 551.638 171.465 551.449 171.446 551.416C171.438 551.285 171.397 551.203 171.307 551.197C171.206 551.216 171.124 551.167 170.82 551.57ZM507.934 496.728C487.229 522.783 471.595 536.159 494.343 507.944C498.462 502.834 486.615 519.859 492.061 513.515C502.024 501.906 506.305 492.363 517.008 480.936C518.947 478.869 509.122 495.247 507.902 496.778C507.913 496.761 507.924 496.745 507.934 496.728ZM352.869 282.245C352.978 282.075 355.696 274.651 355.718 274.457C356.141 270.058 350.664 285.015 352.869 282.245ZM313.157 252.535C313.422 252.194 321.23 235.543 321.393 234.976C323.796 225.533 308.033 259.142 313.157 252.535ZM377.735 338.742C381.144 330.741 386.245 321.769 390.91 316.531C386.516 323.893 382.147 331.336 377.735 338.742Z" fill="#56B156"/>
<path d="M451.826 537.056C449.139 537.128 445.346 536.739 442.176 536.718C428.896 536.628 423.976 536.358 411.961 536.205C394.146 535.978 341.272 536.49 341.271 533.786C341.271 533.786 341.271 533.786 341.271 533.786C341.272 533.76 341.277 533.733 341.287 533.706C341.472 533.191 345.969 532.628 346.637 532.046C347.303 531.463 346.803 527.702 353.191 527.49C362.452 527.212 384.668 528.176 389.607 528.133C392.984 528.104 397.141 527.762 401.459 527.701C415.381 527.506 422.666 527.756 435.209 526.827C440.226 527.316 445.243 527.806 450.26 528.295C456.807 528.068 466.728 528.714 470.705 528.678C473.967 528.649 475.88 528.262 479.28 528.244C483.094 528.222 488.951 528.639 495.888 528.576C507.261 528.475 509.285 527.465 516.109 527.337C521.441 527.237 529.004 527.524 536.271 527.52L533.675 533.478C532.056 531.737 530.435 530.041 528.856 528.471C528.004 527.717 527.152 526.963 526.299 526.209C526.668 526.974 527.036 527.74 527.404 528.505C524.223 525.253 523.269 523.47 520.431 520.402C517.092 516.793 515.027 515.287 512.777 512.862C510.934 510.875 508.719 507.916 506.309 505.359C502.796 501.628 503.145 502.834 501.191 500.886C500.412 500.108 486.339 485.421 485.555 484.583C479.598 478.206 479.648 477.123 474.96 471.979C461.958 457.715 448.015 443.627 435.69 430.71C430.186 424.942 424.557 418.819 419.237 412.912C429.209 420.735 411.479 399.39 416.263 409.089C410.566 402.311 405.685 398.286 400.082 392.049C396.458 388.014 394.218 384.972 388.939 379.308C379.571 369.259 368.447 359.081 367.374 354.684C364.06 351.285 360.948 347.954 358.07 344.869L352.147 338.448L360.855 338.48C370.974 338.459 379.138 338.453 383.24 337.078C387.399 336.959 398.057 338.12 402.721 338.277C407.133 338.426 440.98 338.95 446.517 338.979C452.054 339.008 461.747 339.04 466.411 338.869C472.27 338.657 476.364 336.637 486.795 338.999L484.348 344.469C484.348 344.469 484.348 344.469 484.348 344.469C476.122 335.554 473.293 332.287 465.98 323.695C464.656 322.139 464.763 321.733 463.969 320.843C462.331 319.011 459.351 316.066 456.403 312.816C451.557 307.472 449.363 303.911 449.058 305.262C445.748 301.841 442.437 298.421 439.126 295.001C438.176 293.612 437.226 292.223 436.277 290.834C434.405 289.096 432.534 287.358 430.662 285.62C433.868 286.76 421.223 274.058 424.398 279.014C418.505 271.915 412.612 264.816 406.718 257.718C408.958 257.441 393.386 242.482 393.842 244.505C393.14 243.717 392.438 242.93 391.736 242.142C385.948 234.928 379.995 228.873 372.738 220.259C365.482 211.646 366.321 212.313 364.675 209.193C362.873 207.25 361.071 205.308 359.27 203.365C348.263 194.56 352.917 193.694 335.717 177.143C334.748 175.521 333.236 173.492 331.38 171.223L328.608 168.098L332.771 168.114C341.845 168.513 354.852 167.99 364.249 167.653C365.695 167.601 365.72 167.316 367.646 167.228C372.356 167.017 384.373 167.383 383.962 166.464C388.122 166.73 392.282 166.996 396.442 167.262C399.843 167.095 403.243 166.927 406.643 166.76C406.626 166.473 406.609 166.186 406.591 165.899C412.581 166.755 421.563 166.574 427.271 166.672L424.974 172.358C424.396 171.78 423.87 171.245 423.412 170.762C422.685 169.994 422.796 169.55 420.51 167.192C417.839 164.434 412.615 159.552 409.412 156.286C407.829 155.367 406.245 154.448 404.662 153.528C398.616 148.019 397.353 145.19 393.962 141.79C393.351 141.178 381.949 130.281 381.32 129.709C376.18 125.017 376.912 127.095 362.587 112.966C360.036 110.449 358.189 108.191 355.869 105.931C351.772 101.939 338.834 90.5202 337.362 90.093C332.993 84.6286 319.386 71.9947 315.632 68.0098C314.5 66.806 314.628 66.137 311.064 62.5255C308.175 59.5974 300.239 52.5679 296.54 48.8895C292.616 44.9835 291.527 43.2654 289.766 41.5175C288.102 39.8668 286.279 38.6439 283.983 36.4237C276.822 29.4879 270.76 22.7681 265.1 17.2858C261.736 14.0265 258.397 11.0645 255.13 8.27159L259.836 8.10709C256.001 12.9262 252.507 17.5854 248.972 21.9598C247.334 23.669 245.595 25.2328 243.933 27.0755C223.371 49.865 200.049 75.4588 179.27 98.1765C169.624 108.724 144.691 134.099 152.965 128.784C149.98 132.779 125.041 158.921 120.434 164.016C117.541 167.215 115.164 170.124 112.903 172.841L109.724 165.702C111.815 165.621 113.828 165.555 115.835 165.552C132.125 165.532 143.596 165.867 163.424 165.462C168.212 165.363 173.319 164.875 176.442 164.818L187.207 164.861L180.472 173.205C180.339 173.378 180.21 173.541 180.087 173.695C177.797 176.541 174.924 179.277 171.94 182.95C164.831 191.709 151.829 208.23 144.994 216.621C143.745 218.152 142.946 218.401 141.066 220.516C133.742 228.751 126.072 238.411 128.602 237.641C119.124 248.123 111.573 258.793 103.441 269.027C87.2095 289.449 58.027 325.414 42.5592 345.525L38.5076 337.092C40.0182 337.062 41.4545 337.03 42.8078 336.995C57.9903 336.599 57.6019 335.929 79.9552 336.507C84.9172 336.635 89.8572 336.808 95.8755 336.961C109.982 337.321 122.924 338.559 133.677 337.067C149.344 337.454 161.822 337.18 173.447 338.455C174.446 338.232 175.444 338.009 176.442 337.787L186.443 337.824L179.807 345.261C179.623 345.595 179.438 345.929 179.254 346.262C177.986 347.705 176.718 349.148 175.45 350.591C174.835 350.847 174.219 351.102 173.603 351.357C164.422 361.607 153.746 375.472 146.017 384.187C133.06 398.799 99.3642 436.148 86.7925 449.751C80.1183 456.973 80.2353 457.784 75.5422 461.146C74.1513 462.851 72.7604 464.557 71.3695 466.263C70.6677 467.479 69.9659 468.696 69.2642 469.913C60.9106 479.363 50.6654 490.274 42.7026 499.273C34.1011 508.995 23.1418 521.784 12.5269 533.947L9.27148 526.716C20.359 526.636 31.1175 526.631 40.0703 526.838C45.5836 526.966 52.4753 527.546 57.8742 527.539C65.7319 527.53 67.6418 526.568 77.6133 526.55C94.7993 526.521 126.805 527.639 143.049 527.553C147.874 527.529 150.125 527.17 153.456 527.132C167.426 526.968 178.894 526.997 192.289 526.444C206.672 527.366 205.43 528.557 209.887 529.758C213.265 530.665 223.623 532.766 225.093 533.56C226.126 534.118 222.27 534.835 223.717 535.45C206.485 535.94 199.246 535.4 185.254 534.536C159.414 534.571 133.574 534.605 107.734 534.64C105.383 534.304 103.032 533.969 100.681 533.634C100.681 533.633 100.681 533.632 100.681 533.632C90.7575 533.245 86.5517 534.108 81.1999 534.304C62.3686 534.994 36.836 535.231 9.27148 535.246L-1.14441e-05 535.281L6.14119 528.293C37.5685 492.765 73.48 453.171 97.2307 426.551C105.322 417.481 131.197 387.58 137.134 381.697C138.671 380.175 139.457 380.068 140.996 378.362C151.97 365.59 162.943 352.818 173.917 340.045L176.442 345.655C172.755 345.71 169.067 345.765 165.38 345.82C123.668 345.027 80.5624 345.665 38.5076 345.8L31.1986 345.829L35.761 340.083C36.0717 339.692 36.3823 339.302 36.6929 338.911C82.4626 281.395 127.916 224.226 173.244 167.419L176.442 174.076C154.17 174.111 131.931 174.135 109.724 174.142L100.393 174.176L106.63 167.195C119.178 153.247 131.719 139.323 144.258 125.424C158.91 109.184 177.192 88.2945 191.704 72.5462C197.76 65.9732 200.868 63.761 208.263 54.6213C208.511 54.6793 208.76 54.7373 209.009 54.7953C215.663 46.9997 219.665 41.793 227.311 33.2209C233.044 26.7954 247.223 10.9981 254.346 3.16551L257.165 -2.67029e-05L260.262 2.95872C261.196 3.8705 262.013 4.67079 262.682 5.32942C265.841 8.44025 264.363 7.59337 267.337 10.4632C272.432 15.3744 283.709 25.4627 290.732 32.2463C297.095 38.3915 307.487 49.0975 312.427 53.772C330.216 70.6089 349.901 88.629 368.542 106.899C373.691 111.946 379.985 118.779 381.619 120.336C384.814 123.378 386.125 123.912 388.302 125.921C399.364 136.13 415.803 152.876 426.396 163.141C427.681 164.387 428.969 165.634 430.26 166.885L437.934 174.246L427.271 174.282C396.334 174.244 364.315 174.324 332.771 174.355L336.034 167.063C346.601 178.862 357.08 190.581 367.322 202.085C387.428 224.668 420.984 262.067 439.293 283.143C443.241 287.688 441.742 286.876 445.11 290.644C448.845 294.822 451.159 296.826 452.928 298.757C461.521 308.138 477.36 325.497 489.884 339.52L496.073 346.39L486.795 346.425C478.8 346.422 471.655 346.374 466.549 346.255C463.288 346.178 460.923 345.726 458.971 345.728C457.983 345.728 455.751 346.036 452.65 346.068C425.262 346.347 405.294 346.167 378.458 346.061C372.687 346.039 366.812 346.026 360.855 346.021L363.594 339.736C395.622 374.266 431.538 412.3 463.961 447.599C471.919 456.263 476.756 462.781 477.889 463.986C480.373 466.633 482.395 467.926 487.508 473.211C503.31 489.551 523.384 511.921 539.023 528.508L544.902 534.789L536.271 534.821C534.547 534.833 532.865 534.85 531.23 534.871C519.743 535.019 503.958 535.782 492.654 535.951C483.626 536.086 462.304 535.787 458.302 536.122C455.868 536.324 454.741 536.974 451.826 537.056ZM383.692 372.924C385.549 373.394 373.41 361.6 377.318 366.625C378.198 367.757 383.212 372.803 383.692 372.924ZM215.098 56.3886C215.423 56.4722 215.747 56.5557 216.071 56.6393C217.464 54.9073 218.857 53.1754 220.249 51.4435C219.282 52.251 218.315 53.0585 217.348 53.8661C216.598 54.7069 215.848 55.5478 215.098 56.3886ZM335.28 561.416C335.208 560.679 335.598 559.637 335.618 558.767C335.708 555.121 335.978 553.77 336.131 550.472C336.358 545.581 335.846 531.065 338.55 531.065C338.55 531.065 338.55 531.065 338.55 531.065C338.576 531.065 338.603 531.066 338.63 531.069C339.145 531.12 339.708 532.354 340.29 532.538C340.873 532.721 344.634 532.583 344.846 534.337C345.124 536.879 344.16 542.979 344.203 544.335C344.232 545.262 344.574 546.403 344.635 547.589C344.831 551.411 344.581 553.411 345.509 556.854C345.02 558.232 344.53 559.609 344.041 560.987C344.268 562.784 343.622 565.508 343.658 566.599C343.687 567.495 344.074 568.02 344.092 568.954C344.115 570.001 343.697 571.609 343.76 573.513C343.861 576.636 344.871 577.191 344.999 579.065C345.132 581.007 344.583 584.029 344.938 586.508C345.049 586.818 345.16 587.129 345.271 587.44C345.523 587.217 345.774 586.995 346.025 586.772C346.142 588.021 345.627 588.557 345.618 589.705C345.607 591.055 346.095 591.743 346.092 592.652C346.09 593.396 345.699 594.405 345.723 595.37C345.757 596.776 346.322 596.469 346.428 597.225C346.469 597.527 346.781 603.111 346.785 603.426C346.808 605.822 346.034 606.031 345.966 607.941C345.782 613.24 346.407 618.679 346.643 623.58C346.749 625.768 346.704 628.052 346.58 630.234C344.601 626.797 343.06 634.404 346.158 631.559C345.717 633.987 346.553 635.708 346.412 638.01C346.319 639.499 345.89 640.529 345.901 642.655C345.924 646.426 347.145 650.552 344.938 651.637C345.327 656.065 344.527 659.9 346.475 661.495C346.594 662.637 345.433 665.563 345.276 666.844C345.127 668.055 344.603 677.347 344.574 678.867C344.545 680.388 344.513 683.049 344.684 684.329C344.895 685.938 346.916 687.062 344.554 689.925C344.745 693.255 344.677 694.442 344.403 697.538C344.353 698.099 344.002 698.162 344.002 698.49C344.002 699.165 344.261 700.313 344.293 701.517C344.345 703.498 343.607 704.628 344.734 704.407C344.923 705.713 345.112 707.019 345.301 708.325C345.083 708.783 344.866 709.241 344.648 709.699C344.885 710.397 345.122 711.095 345.359 711.794C343.728 710.974 344.691 715.887 345.627 714.292C345.289 716.823 344.952 719.354 344.614 721.886C342.761 721.532 344.4 727.444 345.408 726.946C345.407 727.236 345.405 727.525 345.404 727.815C344.911 730.351 345.314 732.679 344.983 735.77C344.653 738.861 344.472 738.571 343.62 739.51C343.669 740.238 343.717 740.965 343.766 741.692C346.104 745.509 342.057 744.834 343.85 751.369C342.381 753.457 343.152 758.604 343.598 762.016C343.65 762.413 343.935 762.42 344.023 762.949C344.234 764.242 343.867 767.541 344.787 767.428C344.521 768.57 344.255 769.712 343.989 770.854C344.156 771.788 344.323 772.721 344.491 773.655C344.778 773.65 345.065 773.645 345.352 773.641C344.373 775.52 344.749 778.474 344.515 779.931C344.468 780.221 344.072 780.284 343.964 781.185C343.919 781.556 343.904 782.039 343.899 782.565L343.847 785.242L341.271 785.192C340.304 785.182 339.193 785.203 338.379 785.122C337.891 785.561 337.403 786 336.915 786.439C334.671 786.677 333.882 785.519 332.564 785.429C332.326 785.413 327.996 785.496 327.763 785.521C325.853 785.717 326.394 786.703 320.87 786.492C319.887 786.454 319.091 786.112 318.202 786.099C316.632 786.074 311.899 786.848 311.527 787.564C309.622 786.668 304.525 787.034 303.024 786.776C302.571 786.696 302.468 786.126 301.076 786.004C299.947 785.905 297.039 786.362 295.607 786.286C294.087 786.202 293.544 785.723 292.863 785.689C292.22 785.658 291.626 786.045 290.75 786.042C288.013 786.029 285.534 785.406 283.371 785.395C280.242 785.377 277.478 786.522 274.86 787.03C274.211 786.956 273.572 786.71 272.891 786.708C264.464 786.672 254.958 786.461 246.506 786.216C242.582 786.103 232.825 784.549 235.429 787.142C234.438 787.472 228.931 787.01 225.271 786.727L221.03 786.645L221.109 782.565C221.215 781.188 221.297 780.073 221.301 779.558C221.317 777.673 220.851 776.178 220.845 774.696C220.824 770.224 221.159 767.075 220.755 761.631C220.649 760.225 220.098 758.719 220.104 757.886C220.113 756.883 220.646 755.804 220.68 754.505C220.756 751.408 220.581 745.636 220.673 742.665C220.691 742.123 221.159 741.932 221.305 741.156C221.877 738.135 221.827 734.748 220.333 735.347C221.181 731.475 220.408 727.892 220.36 724.304C220.264 716.715 220.612 702.893 219.985 696.282C219.589 692.114 218.919 692.22 219.497 686.083C219.625 684.721 219.798 683.365 219.951 681.713C220.311 677.84 221.549 674.287 220.057 671.335C220.444 667.033 220.17 663.608 221.445 660.416C221.139 660.04 220.833 659.664 220.527 659.287C220.52 658.76 220.512 658.233 220.505 657.705C220.797 657.541 221.088 657.376 221.38 657.212C221.459 653.434 220.259 648.641 220.268 645.443C220.282 640.081 220.748 626.272 221.141 621.188C221.35 618.489 220.725 618.343 222.01 616.798C221.921 616.194 221.831 615.591 221.742 614.987C221.461 614.609 221.179 614.231 220.898 613.854C220.887 610.391 221.324 606.283 221.319 602.985C221.31 596.973 220.536 587.946 221.045 581.91C221.173 580.396 221.753 578.504 221.746 577.022C221.737 574.865 220.775 574.34 220.757 571.603C220.727 566.885 221.846 558.098 221.76 553.638C221.735 552.313 221.377 551.695 221.339 550.781C221.175 546.946 221.204 543.797 220.651 540.12C221.573 536.171 222.763 536.512 223.965 535.288C224.871 534.361 226.973 531.517 227.767 531.114C228.325 530.83 229.042 531.889 229.656 531.491C230.147 536.222 229.607 538.21 228.743 542.051C228.778 549.145 228.812 556.239 228.846 563.334C228.511 563.979 228.176 564.624 227.841 565.27C227.84 565.27 227.839 565.27 227.839 565.27C227.452 567.994 228.315 569.149 228.511 570.618C230.387 584.685 228.919 612.37 228.707 627.856C228.662 631.193 229.114 642.048 228.569 644.338C228.428 644.931 227.911 645.096 227.888 645.726C228.196 651.361 228.503 656.996 228.81 662.631C228.007 674.218 228.671 686.198 228.794 697.873C229.096 726.332 229.457 754.535 229.435 782.565L225.271 778.401C228.355 778.404 231.436 778.411 234.515 778.423C240.52 778.448 248.141 778.06 254.02 778.31C256.473 778.414 257.495 779.244 260.719 778.625C260.752 778.849 260.786 779.072 260.82 779.296C263.633 779.026 265.431 778.517 268.584 778.465C271.24 778.423 278.266 778.389 280.613 778.475C281.83 778.518 281.376 778.936 282.511 778.933C284.454 778.927 288.605 778.349 291.286 778.349C293.714 778.349 297.808 778.83 299.675 778.761C306.399 778.513 313.724 777.8 320.889 777.991C322.869 778.045 325.415 778.587 326.035 778.572C327.245 778.54 327.606 778.014 328.42 777.946C331.99 777.651 337.285 778.078 341.271 778.215L336.922 782.565C336.943 781.939 336.958 781.345 336.961 780.795C337.042 767.6 336.813 753.62 336.909 740.481C336.97 732.18 336.877 718.385 337.273 710.721C337.359 709.069 337.935 709.509 337.935 708.122C337.935 706.583 337.546 705.75 337.514 705.031C337.294 700.053 336.9 689.066 337.298 684.367C337.375 683.472 337.826 682.823 337.825 682.287C337.825 682.015 337.516 681.403 337.485 680.551C337.206 673.032 337.386 667.55 337.492 660.182C337.692 646.072 337.118 629.723 337.429 614.9C337.496 611.67 338.39 609.455 338.381 609.001C338.363 608.005 337.762 607.367 337.613 605.348C337.125 598.637 337.767 589.599 337.465 583.216C337.317 580.062 336.554 575.729 336.385 572.625C336.25 570.147 336.549 564.293 336.214 563.194C336.012 562.526 335.362 562.217 335.28 561.416ZM345.4 644.919C344.36 644.477 345.224 649.118 345.782 647.377C345.907 646.985 345.669 645.033 345.4 644.919ZM261.614 784.888C261.656 785.185 261.699 785.482 261.741 785.779C262.35 785.655 262.96 785.532 263.569 785.408C263.226 785.23 262.884 785.051 262.542 784.873C262.232 784.878 261.923 784.883 261.614 784.888ZM335.584 525.073C335.722 525.002 335.917 525.391 336.08 525.411C336.763 525.501 337.016 525.771 337.635 525.924C338.551 526.151 341.271 525.64 341.271 528.343C341.271 528.343 341.271 528.343 341.271 528.343C341.271 528.37 341.271 528.396 341.271 528.424C341.261 528.939 341.03 529.501 340.995 530.083C340.961 530.666 340.987 534.427 340.658 534.639C340.182 534.918 339.039 533.953 338.785 533.996C338.611 534.025 338.397 534.367 338.175 534.428C337.459 534.624 337.084 534.374 336.439 535.303C336.18 534.813 335.922 534.324 335.664 533.834C335.327 534.061 334.817 533.415 334.612 533.451C334.444 533.48 334.346 533.867 334.171 533.885C333.975 533.908 333.674 533.49 333.317 533.553C332.732 533.654 332.627 534.664 332.276 534.792C331.912 534.925 331.346 534.376 330.882 534.731C330.823 534.842 330.765 534.953 330.707 535.065C330.748 535.316 330.79 535.567 330.832 535.818C330.598 535.935 330.497 535.42 330.282 535.411C330.029 535.4 329.9 535.888 329.73 535.886C329.591 535.883 329.402 535.492 329.221 535.516C328.957 535.55 329.015 536.115 328.873 536.221C328.816 536.262 327.77 536.574 327.711 536.578C327.262 536.601 327.223 535.827 326.865 535.76C325.872 535.575 324.853 536.2 323.934 536.436C323.524 536.542 323.096 536.497 322.687 536.373C323.331 534.394 321.906 532.853 322.439 535.951C321.984 535.51 321.661 536.346 321.23 536.205C320.951 536.113 320.758 535.683 320.36 535.694C319.653 535.717 318.88 536.938 318.676 534.731C317.847 535.12 317.128 534.32 316.829 536.268C316.615 536.387 316.067 535.227 315.827 535.069C315.6 534.92 313.858 534.396 313.573 534.367C313.288 534.338 312.79 534.306 312.55 534.477C312.248 534.689 312.038 536.709 311.501 534.347C310.877 534.538 310.655 534.47 310.074 534.196C309.969 534.146 309.958 533.796 309.896 533.795C309.77 533.795 309.555 534.054 309.329 534.086C308.958 534.138 308.746 533.4 308.787 534.527C308.543 534.716 308.298 534.905 308.053 535.094C307.967 534.876 307.881 534.659 307.796 534.441C307.665 534.678 307.534 534.915 307.403 535.152C307.557 533.521 306.636 534.484 306.935 535.42C306.461 535.082 305.986 534.745 305.512 534.408C305.578 532.554 304.47 534.194 304.564 535.201C304.509 535.2 304.455 535.199 304.401 535.197C303.925 534.704 303.489 535.107 302.91 534.777C302.331 534.446 302.385 534.266 302.209 533.413C302.073 533.462 301.936 533.511 301.8 533.559C301.085 535.897 301.211 531.85 299.987 533.643C299.595 532.174 298.631 532.945 297.991 533.391C297.917 533.443 297.916 533.728 297.817 533.816C297.574 534.027 296.956 533.661 296.977 534.58C296.763 534.314 296.549 534.048 296.335 533.782C296.16 533.949 295.985 534.117 295.81 534.284C295.811 534.571 295.812 534.858 295.813 535.145C295.461 534.167 294.907 534.543 294.634 534.309C294.58 534.261 294.568 533.865 294.399 533.757C294.202 533.629 293.834 533.746 293.599 533.622C293.507 534.061 293.416 534.5 293.324 534.939C292.904 535.176 292.756 534.018 292.509 533.929C292.464 533.913 291.653 533.996 291.609 534.021C291.251 534.217 291.353 535.203 290.318 534.992C290.133 534.954 289.984 534.612 289.817 534.599C289.523 534.574 288.636 535.348 288.566 536.064C288.21 535.168 287.254 535.534 286.973 535.275C286.888 535.196 286.869 534.626 286.608 534.504C286.396 534.405 285.851 534.862 285.583 534.785C285.298 534.702 285.197 534.223 285.069 534.189C284.948 534.158 284.837 534.544 284.673 534.542C284.16 534.529 283.695 533.906 283.29 533.895C282.704 533.877 282.186 535.022 281.695 535.53C281.574 535.456 281.454 535.21 281.326 535.208C279.747 535.172 277.966 534.961 276.382 534.716C275.646 534.603 273.818 533.049 274.306 535.642C274.05 536.097 272.192 535.051 271.839 535.035C271.486 535.02 271.205 535.485 270.928 535.492C270.09 535.512 269.5 535.177 268.479 535.582C268.216 535.687 267.934 536.238 267.778 536.232C267.59 536.223 267.387 535.69 267.144 535.656C266.564 535.58 265.482 535.755 264.925 535.663C264.824 535.645 264.788 535.177 264.642 535.031C264.076 534.459 263.442 534.509 263.554 536.003C262.828 535.155 262.157 535.928 261.484 535.976C260.062 536.072 257.472 535.724 256.233 536.351C255.452 536.747 255.472 537.417 254.322 536.839C254.067 536.711 253.812 536.538 253.503 536.385C252.777 536.025 252.111 534.787 251.558 536.279C250.752 535.892 250.11 536.166 249.512 534.891C249.441 535.197 249.371 535.503 249.3 535.809C249.201 535.816 249.103 535.824 249.004 535.831C248.973 535.54 248.942 535.248 248.911 534.956C248.203 534.878 247.305 536.077 246.706 536.068C245.701 536.054 243.113 535.589 242.16 535.195C241.655 534.986 241.627 535.611 241.338 534.326C241.225 534.416 241.112 534.505 240.998 534.594C240.928 534.876 240.857 535.157 240.786 535.438C240.137 535.449 239.367 535.012 238.749 535.017C237.623 535.026 235.931 535.8 234.8 535.292C234.516 535.163 234.162 534.583 233.884 534.59C233.48 534.599 233.381 535.561 232.868 535.579C231.984 535.609 230.337 534.49 229.502 534.576C229.253 534.601 229.138 534.959 228.966 534.997C228.248 535.161 227.658 535.132 226.968 535.686C226.228 534.763 226.292 533.573 226.063 532.371C225.889 531.465 225.356 529.363 225.281 528.569C225.228 528.011 225.426 527.294 225.351 526.68C226.238 526.189 226.61 526.729 227.33 527.593C228.66 527.559 229.989 527.524 231.319 527.49C231.44 527.825 231.561 528.16 231.682 528.495C231.682 528.496 231.682 528.497 231.682 528.498C232.192 528.884 232.408 528.021 232.684 527.825C235.32 525.949 240.508 527.417 243.41 527.629C244.035 527.674 246.07 527.222 246.499 527.767C246.61 527.908 246.641 528.425 246.759 528.448C247.815 528.14 248.871 527.833 249.927 527.526C252.098 528.329 254.343 527.666 256.531 527.542C262.451 527.207 268.312 526.799 274.135 526.923C275.26 526.948 276.688 526.56 277.79 526.81C278.25 526.914 278.441 527.744 279.045 527.125C279.051 527.349 279.058 527.572 279.064 527.796C279.591 527.526 279.928 527.017 280.519 526.965C281.017 526.923 282.333 526.889 282.773 526.975C283.001 527.018 282.916 527.435 283.129 527.433C283.493 527.427 284.271 526.849 284.773 526.849C285.228 526.849 285.996 527.33 286.346 527.26C287.606 527.013 288.978 526.299 290.321 526.491C290.692 526.545 291.169 527.087 291.285 527.072C291.512 527.04 291.58 526.514 291.732 526.446C292.506 526.104 293.713 526.73 294.472 526.754C296.945 526.835 299.565 526.606 302.027 526.702C303.583 526.763 306.168 526.671 307.604 527.066C307.914 527.152 307.831 527.729 308.091 527.729C308.38 527.728 308.536 527.339 308.67 527.307C309.603 527.087 311.662 526.693 312.543 527.091C312.711 527.168 312.832 527.62 312.933 527.618C312.983 527.618 313.098 527.31 313.258 527.278C314.667 526.999 315.694 527.179 317.075 527.285C319.719 527.485 322.783 526.911 325.561 527.222C326.166 527.289 326.581 528.183 326.666 528.174C326.853 528.156 326.973 527.555 327.351 527.406C328.608 526.918 330.302 527.56 331.498 527.258C332.089 527.11 332.901 526.347 333.483 526.178C333.948 526.043 335.045 526.342 335.25 526.007C335.376 525.805 335.434 525.155 335.584 525.073ZM319.935 535.193C320.018 534.153 319.148 535.017 319.475 535.575C319.548 535.701 319.914 535.462 319.935 535.193ZM279.213 533.388C279.221 533.685 279.229 533.982 279.237 534.279C279.351 534.155 279.465 534.032 279.579 533.908C279.515 533.73 279.451 533.551 279.387 533.373C279.329 533.378 279.271 533.383 279.213 533.388Z" fill="white"/>
</svg>
